<?xml version="1.0" encoding="utf-8" standalone="no"?>
<!DOCTYPE svg PUBLIC "-//W3C//DTD SVG 1.1//EN"
  "http://www.w3.org/Graphics/SVG/1.1/DTD/svg11.dtd">
<svg xmlns:xlink="http://www.w3.org/1999/xlink" width="432pt" height="432pt" viewBox="0 0 432 432" xmlns="http://www.w3.org/2000/svg" version="1.1">
 <metadata>
  <rdf:RDF xmlns:dc="http://purl.org/dc/elements/1.1/" xmlns:cc="http://creativecommons.org/ns#" xmlns:rdf="http://www.w3.org/1999/02/22-rdf-syntax-ns#">
   <cc:Work>
    <dc:type rdf:resource="http://purl.org/dc/dcmitype/StillImage"/>
    <dc:date>2025-03-02T17:55:05.688211</dc:date>
    <dc:format>image/svg+xml</dc:format>
    <dc:creator>
     <cc:Agent>
      <dc:title>Matplotlib v3.10.0, https://matplotlib.org/</dc:title>
     </cc:Agent>
    </dc:creator>
   </cc:Work>
  </rdf:RDF>
 </metadata>
 <defs>
  <style type="text/css">*{stroke-linejoin: round; stroke-linecap: butt}</style>
 </defs>
 <g id="figure_1">
  <g id="patch_1">
   <path d="M 0 432 
L 432 432 
L 432 0 
L 0 0 
z
" style="fill: #ffffff"/>
  </g>
  <g id="axes_1">
   <g id="patch_2">
    <path d="M 81.9 356.76 
L 360.9 356.76 
L 360.9 79.56 
L 81.9 79.56 
L 81.9 356.76 
z
" clip-path="url(#p3373a6cc70)" style="fill: none; stroke: #969696; stroke-width: 1.5; stroke-linejoin: miter"/>
   </g>
   <g id="patch_3">
    <path d="M 81.9 358.4925 
C 82.362448 358.4925 82.806017 358.309953 83.133017 357.985062 
C 83.460017 357.660172 83.64375 357.219464 83.64375 356.76 
C 83.64375 356.300536 83.460017 355.859828 83.133017 355.534938 
C 82.806017 355.210047 82.362448 355.0275 81.9 355.0275 
C 81.437552 355.0275 80.993983 355.210047 80.666983 355.534938 
C 80.339983 355.859828 80.15625 356.300536 80.15625 356.76 
C 80.15625 357.219464 80.339983 357.660172 80.666983 357.985062 
C 80.993983 358.309953 81.437552 358.4925 81.9 358.4925 
z
" clip-path="url(#p3373a6cc70)" style="fill: #0871b7; fill-opacity: 0.752941; stroke: #231f20; stroke-linejoin: miter"/>
   </g>
   <g id="patch_4">
    <path d="M 360.9 358.4925 
C 361.362448 358.4925 361.806017 358.309953 362.133017 357.985062 
C 362.460017 357.660172 362.64375 357.219464 362.64375 356.76 
C 362.64375 356.300536 362.460017 355.859828 362.133017 355.534938 
C 361.806017 355.210047 361.362448 355.0275 360.9 355.0275 
C 360.437552 355.0275 359.993983 355.210047 359.666983 355.534938 
C 359.339983 355.859828 359.15625 356.300536 359.15625 356.76 
C 359.15625 357.219464 359.339983 357.660172 359.666983 357.985062 
C 359.993983 358.309953 360.437552 358.4925 360.9 358.4925 
z
" clip-path="url(#p3373a6cc70)" style="fill: #0871b7; fill-opacity: 0.752941; stroke: #231f20; stroke-linejoin: miter"/>
   </g>
   <g id="patch_5">
    <path d="M 81.9 81.2925 
C 82.362448 81.2925 82.806017 81.109953 83.133017 80.785062 
C 83.460017 80.460172 83.64375 80.019464 83.64375 79.56 
C 83.64375 79.100536 83.460017 78.659828 83.133017 78.334938 
C 82.806017 78.010047 82.362448 77.8275 81.9 77.8275 
C 81.437552 77.8275 80.993983 78.010047 80.666983 78.334938 
C 80.339983 78.659828 80.15625 79.100536 80.15625 79.56 
C 80.15625 80.019464 80.339983 80.460172 80.666983 80.785062 
C 80.993983 81.109953 81.437552 81.2925 81.9 81.2925 
z
" clip-path="url(#p3373a6cc70)" style="fill: #0871b7; fill-opacity: 0.752941; stroke: #231f20; stroke-linejoin: miter"/>
   </g>
   <g id="patch_6">
    <path d="M 360.9 81.2925 
C 361.362448 81.2925 361.806017 81.109953 362.133017 80.785062 
C 362.460017 80.460172 362.64375 80.019464 362.64375 79.56 
C 362.64375 79.100536 362.460017 78.659828 362.133017 78.334938 
C 361.806017 78.010047 361.362448 77.8275 360.9 77.8275 
C 360.437552 77.8275 359.993983 78.010047 359.666983 78.334938 
C 359.339983 78.659828 359.15625 79.100536 359.15625 79.56 
C 359.15625 80.019464 359.339983 80.460172 359.666983 80.785062 
C 359.993983 81.109953 360.437552 81.2925 360.9 81.2925 
z
" clip-path="url(#p3373a6cc70)" style="fill: #0871b7; fill-opacity: 0.752941; stroke: #231f20; stroke-linejoin: miter"/>
   </g>
   <g id="patch_7">
    <path d="M 130.075813 360.8025 
C 131.154858 360.8025 132.189854 360.376557 132.952854 359.618479 
C 133.715854 358.860402 134.144563 357.832084 134.144563 356.76 
C 134.144563 355.687916 133.715854 354.659598 132.952854 353.901521 
C 132.189854 353.143443 131.154858 352.7175 130.075813 352.7175 
C 128.996768 352.7175 127.961772 353.143443 127.198772 353.901521 
C 126.435772 354.659598 126.007063 355.687916 126.007063 356.76 
C 126.007063 357.832084 126.435772 358.860402 127.198772 359.618479 
C 127.961772 360.376557 128.996768 360.8025 130.075813 360.8025 
z
" clip-path="url(#p3373a6cc70)" style="fill: #0871b7; fill-opacity: 0.752941; stroke: #231f20; stroke-linejoin: miter"/>
   </g>
   <g id="patch_8">
    <path d="M 312.724187 360.8025 
C 313.803232 360.8025 314.838228 360.376557 315.601228 359.618479 
C 316.364228 358.860402 316.792937 357.832084 316.792937 356.76 
C 316.792937 355.687916 316.364228 354.659598 315.601228 353.901521 
C 314.838228 353.143443 313.803232 352.7175 312.724187 352.7175 
C 311.645142 352.7175 310.610146 353.143443 309.847146 353.901521 
C 309.084146 354.659598 308.655437 355.687916 308.655437 356.76 
C 308.655437 357.832084 309.084146 358.860402 309.847146 359.618479 
C 310.610146 360.376557 311.645142 360.8025 312.724187 360.8025 
z
" clip-path="url(#p3373a6cc70)" style="fill: #0871b7; fill-opacity: 0.752941; stroke: #231f20; stroke-linejoin: miter"/>
   </g>
   <g id="patch_9">
    <path d="M 81.9 312.937499 
C 82.979045 312.937499 84.014041 312.511555 84.777041 311.753478 
C 85.540041 310.9954 85.96875 309.967082 85.96875 308.894999 
C 85.96875 307.822915 85.540041 306.794597 84.777041 306.03652 
C 84.014041 305.278442 82.979045 304.852499 81.9 304.852499 
C 80.820955 304.852499 79.785959 305.278442 79.022959 306.03652 
C 78.259959 306.794597 77.83125 307.822915 77.83125 308.894999 
C 77.83125 309.967082 78.259959 310.9954 79.022959 311.753478 
C 79.785959 312.511555 80.820955 312.937499 81.9 312.937499 
z
" clip-path="url(#p3373a6cc70)" style="fill: #0871b7; fill-opacity: 0.752941; stroke: #231f20; stroke-linejoin: miter"/>
   </g>
   <g id="patch_10">
    <path d="M 360.9 312.937499 
C 361.979045 312.937499 363.014041 312.511555 363.777041 311.753478 
C 364.540041 310.9954 364.96875 309.967082 364.96875 308.894999 
C 364.96875 307.822915 364.540041 306.794597 363.777041 306.03652 
C 363.014041 305.278442 361.979045 304.852499 360.9 304.852499 
C 359.820955 304.852499 358.785959 305.278442 358.022959 306.03652 
C 357.259959 306.794597 356.83125 307.822915 356.83125 308.894999 
C 356.83125 309.967082 357.259959 310.9954 358.022959 311.753478 
C 358.785959 312.511555 359.820955 312.937499 360.9 312.937499 
z
" clip-path="url(#p3373a6cc70)" style="fill: #0871b7; fill-opacity: 0.752941; stroke: #231f20; stroke-linejoin: miter"/>
   </g>
   <g id="patch_11">
    <path d="M 81.9 131.467501 
C 82.979045 131.467501 84.014041 131.041558 84.777041 130.28348 
C 85.540041 129.525403 85.96875 128.497085 85.96875 127.425001 
C 85.96875 126.352918 85.540041 125.3246 84.777041 124.566522 
C 84.014041 123.808445 82.979045 123.382501 81.9 123.382501 
C 80.820955 123.382501 79.785959 123.808445 79.022959 124.566522 
C 78.259959 125.3246 77.83125 126.352918 77.83125 127.425001 
C 77.83125 128.497085 78.259959 129.525403 79.022959 130.28348 
C 79.785959 131.041558 80.820955 131.467501 81.9 131.467501 
z
" clip-path="url(#p3373a6cc70)" style="fill: #0871b7; fill-opacity: 0.752941; stroke: #231f20; stroke-linejoin: miter"/>
   </g>
   <g id="patch_12">
    <path d="M 360.9 131.467501 
C 361.979045 131.467501 363.014041 131.041558 363.777041 130.28348 
C 364.540041 129.525403 364.96875 128.497085 364.96875 127.425001 
C 364.96875 126.352918 364.540041 125.3246 363.777041 124.566522 
C 363.014041 123.808445 361.979045 123.382501 360.9 123.382501 
C 359.820955 123.382501 358.785959 123.808445 358.022959 124.566522 
C 357.259959 125.3246 356.83125 126.352918 356.83125 127.425001 
C 356.83125 128.497085 357.259959 129.525403 358.022959 130.28348 
C 358.785959 131.041558 359.820955 131.467501 360.9 131.467501 
z
" clip-path="url(#p3373a6cc70)" style="fill: #0871b7; fill-opacity: 0.752941; stroke: #231f20; stroke-linejoin: miter"/>
   </g>
   <g id="patch_13">
    <path d="M 130.075813 83.6025 
C 131.154858 83.6025 132.189854 83.176557 132.952854 82.418479 
C 133.715854 81.660402 134.144563 80.632084 134.144563 79.56 
C 134.144563 78.487916 133.715854 77.459598 132.952854 76.701521 
C 132.189854 75.943443 131.154858 75.5175 130.075813 75.5175 
C 128.996768 75.5175 127.961772 75.943443 127.198772 76.701521 
C 126.435772 77.459598 126.007063 78.487916 126.007063 79.56 
C 126.007063 80.632084 126.435772 81.660402 127.198772 82.418479 
C 127.961772 83.176557 128.996768 83.6025 130.075813 83.6025 
z
" clip-path="url(#p3373a6cc70)" style="fill: #0871b7; fill-opacity: 0.752941; stroke: #231f20; stroke-linejoin: miter"/>
   </g>
   <g id="patch_14">
    <path d="M 312.724187 83.6025 
C 313.803232 83.6025 314.838228 83.176557 315.601228 82.418479 
C 316.364228 81.660402 316.792937 80.632084 316.792937 79.56 
C 316.792937 78.487916 316.364228 77.459598 315.601228 76.701521 
C 314.838228 75.943443 313.803232 75.5175 312.724187 75.5175 
C 311.645142 75.5175 310.610146 75.943443 309.847146 76.701521 
C 309.084146 77.459598 308.655437 78.487916 308.655437 79.56 
C 308.655437 80.632084 309.084146 81.660402 309.847146 82.418479 
C 310.610146 83.176557 311.645142 83.6025 312.724187 83.6025 
z
" clip-path="url(#p3373a6cc70)" style="fill: #0871b7; fill-opacity: 0.752941; stroke: #231f20; stroke-linejoin: miter"/>
   </g>
   <g id="patch_15">
    <path d="M 221.4 361.38 
C 222.633194 361.38 223.816046 360.893208 224.688047 360.026833 
C 225.560047 359.160459 226.05 357.985238 226.05 356.76 
C 226.05 355.534762 225.560047 354.359541 224.688047 353.493167 
C 223.816046 352.626792 222.633194 352.14 221.4 352.14 
C 220.166806 352.14 218.983954 352.626792 218.111953 353.493167 
C 217.239953 354.359541 216.75 355.534762 216.75 356.76 
C 216.75 357.985238 217.239953 359.160459 218.111953 360.026833 
C 218.983954 360.893208 220.166806 361.38 221.4 361.38 
z
" clip-path="url(#p3373a6cc70)" style="fill: #0871b7; fill-opacity: 0.752941; stroke: #231f20; stroke-linejoin: miter"/>
   </g>
   <g id="patch_16">
    <path d="M 81.9 222.78 
C 83.133194 222.78 84.316046 222.293208 85.188047 221.426833 
C 86.060047 220.560459 86.55 219.385238 86.55 218.16 
C 86.55 216.934762 86.060047 215.759541 85.188047 214.893167 
C 84.316046 214.026792 83.133194 213.54 81.9 213.54 
C 80.666806 213.54 79.483954 214.026792 78.611953 214.893167 
C 77.739953 215.759541 77.25 216.934762 77.25 218.16 
C 77.25 219.385238 77.739953 220.560459 78.611953 221.426833 
C 79.483954 222.293208 80.666806 222.78 81.9 222.78 
z
" clip-path="url(#p3373a6cc70)" style="fill: #0871b7; fill-opacity: 0.752941; stroke: #231f20; stroke-linejoin: miter"/>
   </g>
   <g id="patch_17">
    <path d="M 360.9 222.78 
C 362.133194 222.78 363.316046 222.293208 364.188047 221.426833 
C 365.060047 220.560459 365.55 219.385238 365.55 218.16 
C 365.55 216.934762 365.060047 215.759541 364.188047 214.893167 
C 363.316046 214.026792 362.133194 213.54 360.9 213.54 
C 359.666806 213.54 358.483954 214.026792 357.611953 214.893167 
C 356.739953 215.759541 356.25 216.934762 356.25 218.16 
C 356.25 219.385238 356.739953 220.560459 357.611953 221.426833 
C 358.483954 222.293208 359.666806 222.78 360.9 222.78 
z
" clip-path="url(#p3373a6cc70)" style="fill: #0871b7; fill-opacity: 0.752941; stroke: #231f20; stroke-linejoin: miter"/>
   </g>
   <g id="patch_18">
    <path d="M 221.4 84.18 
C 222.633194 84.18 223.816046 83.693208 224.688047 82.826833 
C 225.560047 81.960459 226.05 80.785238 226.05 79.56 
C 226.05 78.334762 225.560047 77.159541 224.688047 76.293167 
C 223.816046 75.426792 222.633194 74.94 221.4 74.94 
C 220.166806 74.94 218.983954 75.426792 218.111953 76.293167 
C 217.239953 77.159541 216.75 78.334762 216.75 79.56 
C 216.75 80.785238 217.239953 81.960459 218.111953 82.826833 
C 218.983954 83.693208 220.166806 84.18 221.4 84.18 
z
" clip-path="url(#p3373a6cc70)" style="fill: #0871b7; fill-opacity: 0.752941; stroke: #231f20; stroke-linejoin: miter"/>
   </g>
   <g id="patch_19">
    <path d="M 130.075813 318.327499 
C 132.593585 318.327499 135.008574 317.333631 136.788908 315.564783 
C 138.569242 313.795936 139.569563 311.396527 139.569563 308.894999 
C 139.569563 306.393471 138.569242 303.994062 136.788908 302.225214 
C 135.008574 300.456366 132.593585 299.462499 130.075813 299.462499 
C 127.558041 299.462499 125.143052 300.456366 123.362718 302.225214 
C 121.582384 303.994062 120.582063 306.393471 120.582063 308.894999 
C 120.582063 311.396527 121.582384 313.795936 123.362718 315.564783 
C 125.143052 317.333631 127.558041 318.327499 130.075813 318.327499 
z
" clip-path="url(#p3373a6cc70)" style="fill: #0871b7; fill-opacity: 0.752941; stroke: #231f20; stroke-linejoin: miter"/>
   </g>
   <g id="patch_20">
    <path d="M 312.724187 136.857501 
C 315.241959 136.857501 317.656948 135.863634 319.437282 134.094786 
C 321.217616 132.325938 322.217937 129.926529 322.217937 127.425001 
C 322.217937 124.923473 321.217616 122.524064 319.437282 120.755217 
C 317.656948 118.986369 315.241959 117.992501 312.724187 117.992501 
C 310.206415 117.992501 307.791426 118.986369 306.011092 120.755217 
C 304.230758 122.524064 303.230437 124.923473 303.230437 127.425001 
C 303.230437 129.926529 304.230758 132.325938 306.011092 134.094786 
C 307.791426 135.863634 310.206415 136.857501 312.724187 136.857501 
z
" clip-path="url(#p3373a6cc70)" style="fill: #0871b7; fill-opacity: 0.752941; stroke: #231f20; stroke-linejoin: miter"/>
   </g>
   <g id="patch_21">
    <path d="M 312.724187 318.327499 
C 315.241959 318.327499 317.656948 317.333631 319.437282 315.564783 
C 321.217616 313.795936 322.217937 311.396527 322.217937 308.894999 
C 322.217937 306.393471 321.217616 303.994062 319.437282 302.225214 
C 317.656948 300.456366 315.241959 299.462499 312.724187 299.462499 
C 310.206415 299.462499 307.791426 300.456366 306.011092 302.225214 
C 304.230758 303.994062 303.230437 306.393471 303.230437 308.894999 
C 303.230437 311.396527 304.230758 313.795936 306.011092 315.564783 
C 307.791426 317.333631 310.206415 318.327499 312.724187 318.327499 
z
" clip-path="url(#p3373a6cc70)" style="fill: #0871b7; fill-opacity: 0.752941; stroke: #231f20; stroke-linejoin: miter"/>
   </g>
   <g id="patch_22">
    <path d="M 130.075813 136.857501 
C 132.593585 136.857501 135.008574 135.863634 136.788908 134.094786 
C 138.569242 132.325938 139.569563 129.926529 139.569563 127.425001 
C 139.569563 124.923473 138.569242 122.524064 136.788908 120.755217 
C 135.008574 118.986369 132.593585 117.992501 130.075813 117.992501 
C 127.558041 117.992501 125.143052 118.986369 123.362718 120.755217 
C 121.582384 122.524064 120.582063 124.923473 120.582063 127.425001 
C 120.582063 129.926529 121.582384 132.325938 123.362718 134.094786 
C 125.143052 135.863634 127.558041 136.857501 130.075813 136.857501 
z
" clip-path="url(#p3373a6cc70)" style="fill: #0871b7; fill-opacity: 0.752941; stroke: #231f20; stroke-linejoin: miter"/>
   </g>
   <g id="patch_23">
    <path d="M 221.4 319.674999 
C 224.277454 319.674999 227.037442 318.53915 229.072109 316.51761 
C 231.106776 314.49607 232.25 311.753888 232.25 308.894999 
C 232.25 306.036109 231.106776 303.293928 229.072109 301.272388 
C 227.037442 299.250848 224.277454 298.114999 221.4 298.114999 
C 218.522546 298.114999 215.762558 299.250848 213.727891 301.272388 
C 211.693224 303.293928 210.55 306.036109 210.55 308.894999 
C 210.55 311.753888 211.693224 314.49607 213.727891 316.51761 
C 215.762558 318.53915 218.522546 319.674999 221.4 319.674999 
z
" clip-path="url(#p3373a6cc70)" style="fill: #0871b7; fill-opacity: 0.752941; stroke: #231f20; stroke-linejoin: miter"/>
   </g>
   <g id="patch_24">
    <path d="M 130.075813 228.94 
C 132.953267 228.94 135.713255 227.804151 137.747922 225.782611 
C 139.782588 223.761071 140.925813 221.018889 140.925813 218.16 
C 140.925813 215.301111 139.782588 212.558929 137.747922 210.537389 
C 135.713255 208.515849 132.953267 207.38 130.075813 207.38 
C 127.198359 207.38 124.438371 208.515849 122.403704 210.537389 
C 120.369037 212.558929 119.225813 215.301111 119.225813 218.16 
C 119.225813 221.018889 120.369037 223.761071 122.403704 225.782611 
C 124.438371 227.804151 127.198359 228.94 130.075813 228.94 
z
" clip-path="url(#p3373a6cc70)" style="fill: #0871b7; fill-opacity: 0.752941; stroke: #231f20; stroke-linejoin: miter"/>
   </g>
   <g id="patch_25">
    <path d="M 312.724187 228.94 
C 315.601641 228.94 318.361629 227.804151 320.396296 225.782611 
C 322.430963 223.761071 323.574187 221.018889 323.574187 218.16 
C 323.574187 215.301111 322.430963 212.558929 320.396296 210.537389 
C 318.361629 208.515849 315.601641 207.38 312.724187 207.38 
C 309.846733 207.38 307.086745 208.515849 305.052078 210.537389 
C 303.017412 212.558929 301.874187 215.301111 301.874187 218.16 
C 301.874187 221.018889 303.017412 223.761071 305.052078 225.782611 
C 307.086745 227.804151 309.846733 228.94 312.724187 228.94 
z
" clip-path="url(#p3373a6cc70)" style="fill: #0871b7; fill-opacity: 0.752941; stroke: #231f20; stroke-linejoin: miter"/>
   </g>
   <g id="patch_26">
    <path d="M 221.4 138.205001 
C 224.277454 138.205001 227.037442 137.069152 229.072109 135.047612 
C 231.106776 133.026072 232.25 130.283891 232.25 127.425001 
C 232.25 124.566112 231.106776 121.82393 229.072109 119.80239 
C 227.037442 117.78085 224.277454 116.645001 221.4 116.645001 
C 218.522546 116.645001 215.762558 117.78085 213.727891 119.80239 
C 211.693224 121.82393 210.55 124.566112 210.55 127.425001 
C 210.55 130.283891 211.693224 133.026072 213.727891 135.047612 
C 215.762558 137.069152 218.522546 138.205001 221.4 138.205001 
z
" clip-path="url(#p3373a6cc70)" style="fill: #0871b7; fill-opacity: 0.752941; stroke: #231f20; stroke-linejoin: miter"/>
   </g>
   <g id="patch_27">
    <path d="M 221.4 230.48 
C 224.688518 230.48 227.84279 229.181887 230.168124 226.871556 
C 232.493458 224.561224 233.8 221.427302 233.8 218.16 
C 233.8 214.892698 232.493458 211.758776 230.168124 209.448444 
C 227.84279 207.138113 224.688518 205.84 221.4 205.84 
C 218.111482 205.84 214.95721 207.138113 212.631876 209.448444 
C 210.306542 211.758776 209 214.892698 209 218.16 
C 209 221.427302 210.306542 224.561224 212.631876 226.871556 
C 214.95721 229.181887 218.111482 230.48 221.4 230.48 
z
" clip-path="url(#p3373a6cc70)" style="fill: #0871b7; fill-opacity: 0.752941; stroke: #231f20; stroke-linejoin: miter"/>
   </g>
  </g>
 </g>
 <defs>
  <clipPath id="p3373a6cc70">
   <rect x="54" y="51.84" width="334.8" height="332.64"/>
  </clipPath>
 </defs>
</svg>
