<?xml version="1.0" encoding="utf-8" standalone="no"?>
<!DOCTYPE svg PUBLIC "-//W3C//DTD SVG 1.1//EN"
  "http://www.w3.org/Graphics/SVG/1.1/DTD/svg11.dtd">
<svg xmlns:xlink="http://www.w3.org/1999/xlink" width="432pt" height="432pt" viewBox="0 0 432 432" xmlns="http://www.w3.org/2000/svg" version="1.1">
 <metadata>
  <rdf:RDF xmlns:dc="http://purl.org/dc/elements/1.1/" xmlns:cc="http://creativecommons.org/ns#" xmlns:rdf="http://www.w3.org/1999/02/22-rdf-syntax-ns#">
   <cc:Work>
    <dc:type rdf:resource="http://purl.org/dc/dcmitype/StillImage"/>
    <dc:date>2025-03-02T17:55:05.342223</dc:date>
    <dc:format>image/svg+xml</dc:format>
    <dc:creator>
     <cc:Agent>
      <dc:title>Matplotlib v3.10.0, https://matplotlib.org/</dc:title>
     </cc:Agent>
    </dc:creator>
   </cc:Work>
  </rdf:RDF>
 </metadata>
 <defs>
  <style type="text/css">*{stroke-linejoin: round; stroke-linecap: butt}</style>
 </defs>
 <g id="figure_1">
  <g id="patch_1">
   <path d="M 0 432 
L 432 432 
L 432 0 
L 0 0 
z
" style="fill: #ffffff"/>
  </g>
  <g id="axes_1">
   <g id="patch_2">
    <path d="M 81.9 356.76 
L 360.9 356.76 
L 360.9 79.56 
L 81.9 79.56 
L 81.9 356.76 
z
" clip-path="url(#p1b3055775d)" style="fill: none; stroke: #969696; stroke-width: 1.5; stroke-linejoin: miter"/>
   </g>
   <g id="patch_3">
    <path d="M 113.343765 335.144098 
C 115.91292 335.144098 118.377195 334.129948 120.193862 332.325001 
C 122.010529 330.520055 123.031265 328.071678 123.031265 325.519098 
C 123.031265 322.966519 122.010529 320.518142 120.193862 318.713196 
C 118.377195 316.908249 115.91292 315.894098 113.343765 315.894098 
C 110.77461 315.894098 108.310335 316.908249 106.493668 318.713196 
C 104.677001 320.518142 103.656265 322.966519 103.656265 325.519098 
C 103.656265 328.071678 104.677001 330.520055 106.493668 332.325001 
C 108.310335 334.129948 110.77461 335.144098 113.343765 335.144098 
z
" clip-path="url(#p1b3055775d)" style="fill: #0871b7; fill-opacity: 0.752941; stroke: #231f20; stroke-linejoin: miter"/>
   </g>
   <g id="patch_4">
    <path d="M 329.456235 335.144098 
C 332.02539 335.144098 334.489665 334.129948 336.306332 332.325001 
C 338.122999 330.520055 339.143735 328.071678 339.143735 325.519098 
C 339.143735 322.966519 338.122999 320.518142 336.306332 318.713196 
C 334.489665 316.908249 332.02539 315.894098 329.456235 315.894098 
C 326.88708 315.894098 324.422805 316.908249 322.606138 318.713196 
C 320.789471 320.518142 319.768735 322.966519 319.768735 325.519098 
C 319.768735 328.071678 320.789471 330.520055 322.606138 332.325001 
C 324.422805 334.129948 326.88708 335.144098 329.456235 335.144098 
z
" clip-path="url(#p1b3055775d)" style="fill: #0871b7; fill-opacity: 0.752941; stroke: #231f20; stroke-linejoin: miter"/>
   </g>
   <g id="patch_5">
    <path d="M 113.343765 120.425902 
C 115.91292 120.425902 118.377195 119.411751 120.193862 117.606804 
C 122.010529 115.801858 123.031265 113.353481 123.031265 110.800902 
C 123.031265 108.248322 122.010529 105.799945 120.193862 103.994999 
C 118.377195 102.190052 115.91292 101.175902 113.343765 101.175902 
C 110.77461 101.175902 108.310335 102.190052 106.493668 103.994999 
C 104.677001 105.799945 103.656265 108.248322 103.656265 110.800902 
C 103.656265 113.353481 104.677001 115.801858 106.493668 117.606804 
C 108.310335 119.411751 110.77461 120.425902 113.343765 120.425902 
z
" clip-path="url(#p1b3055775d)" style="fill: #0871b7; fill-opacity: 0.752941; stroke: #231f20; stroke-linejoin: miter"/>
   </g>
   <g id="patch_6">
    <path d="M 329.456235 120.425902 
C 332.02539 120.425902 334.489665 119.411751 336.306332 117.606804 
C 338.122999 115.801858 339.143735 113.353481 339.143735 110.800902 
C 339.143735 108.248322 338.122999 105.799945 336.306332 103.994999 
C 334.489665 102.190052 332.02539 101.175902 329.456235 101.175902 
C 326.88708 101.175902 324.422805 102.190052 322.606138 103.994999 
C 320.789471 105.799945 319.768735 108.248322 319.768735 110.800902 
C 319.768735 113.353481 320.789471 115.801858 322.606138 117.606804 
C 324.422805 119.411751 326.88708 120.425902 329.456235 120.425902 
z
" clip-path="url(#p1b3055775d)" style="fill: #0871b7; fill-opacity: 0.752941; stroke: #231f20; stroke-linejoin: miter"/>
   </g>
   <g id="patch_7">
    <path d="M 221.4 337.693867 
C 224.649753 337.693867 227.766841 336.411057 230.064763 334.12796 
C 232.362686 331.844863 233.653826 328.747885 233.653826 325.519098 
C 233.653826 322.290312 232.362686 319.193333 230.064763 316.910237 
C 227.766841 314.62714 224.649753 313.344329 221.4 313.344329 
C 218.150247 313.344329 215.033159 314.62714 212.735237 316.910237 
C 210.437314 319.193333 209.146174 322.290312 209.146174 325.519098 
C 209.146174 328.747885 210.437314 331.844863 212.735237 334.12796 
C 215.033159 336.411057 218.150247 337.693867 221.4 337.693867 
z
" clip-path="url(#p1b3055775d)" style="fill: #0871b7; fill-opacity: 0.752941; stroke: #231f20; stroke-linejoin: miter"/>
   </g>
   <g id="patch_8">
    <path d="M 113.343765 230.334769 
C 116.593517 230.334769 119.710606 229.051959 122.008528 226.768862 
C 124.30645 224.485765 125.597591 221.388786 125.597591 218.16 
C 125.597591 214.931214 124.30645 211.834235 122.008528 209.551138 
C 119.710606 207.268041 116.593517 205.985231 113.343765 205.985231 
C 110.094012 205.985231 106.976923 207.268041 104.679001 209.551138 
C 102.381079 211.834235 101.089939 214.931214 101.089939 218.16 
C 101.089939 221.388786 102.381079 224.485765 104.679001 226.768862 
C 106.976923 229.051959 110.094012 230.334769 113.343765 230.334769 
z
" clip-path="url(#p1b3055775d)" style="fill: #0871b7; fill-opacity: 0.752941; stroke: #231f20; stroke-linejoin: miter"/>
   </g>
   <g id="patch_9">
    <path d="M 329.456235 230.334769 
C 332.705988 230.334769 335.823077 229.051959 338.120999 226.768862 
C 340.418921 224.485765 341.710061 221.388786 341.710061 218.16 
C 341.710061 214.931214 340.418921 211.834235 338.120999 209.551138 
C 335.823077 207.268041 332.705988 205.985231 329.456235 205.985231 
C 326.206483 205.985231 323.089394 207.268041 320.791472 209.551138 
C 318.49355 211.834235 317.202409 214.931214 317.202409 218.16 
C 317.202409 221.388786 318.49355 224.485765 320.791472 226.768862 
C 323.089394 229.051959 326.206483 230.334769 329.456235 230.334769 
z
" clip-path="url(#p1b3055775d)" style="fill: #0871b7; fill-opacity: 0.752941; stroke: #231f20; stroke-linejoin: miter"/>
   </g>
   <g id="patch_10">
    <path d="M 221.4 122.975671 
C 224.649753 122.975671 227.766841 121.69286 230.064763 119.409763 
C 232.362686 117.126667 233.653826 114.029688 233.653826 110.800902 
C 233.653826 107.572115 232.362686 104.475137 230.064763 102.19204 
C 227.766841 99.908943 224.649753 98.626133 221.4 98.626133 
C 218.150247 98.626133 215.033159 99.908943 212.735237 102.19204 
C 210.437314 104.475137 209.146174 107.572115 209.146174 110.800902 
C 209.146174 114.029688 210.437314 117.126667 212.735237 119.409763 
C 215.033159 121.69286 218.150247 122.975671 221.4 122.975671 
z
" clip-path="url(#p1b3055775d)" style="fill: #0871b7; fill-opacity: 0.752941; stroke: #231f20; stroke-linejoin: miter"/>
   </g>
   <g id="patch_11">
    <path d="M 221.4 233.56 
C 225.510648 233.56 229.453488 231.937359 232.360155 229.049444 
C 235.266822 226.16153 236.9 222.244128 236.9 218.16 
C 236.9 214.075872 235.266822 210.15847 232.360155 207.270556 
C 229.453488 204.382641 225.510648 202.76 221.4 202.76 
C 217.289352 202.76 213.346512 204.382641 210.439845 207.270556 
C 207.533178 210.15847 205.9 214.075872 205.9 218.16 
C 205.9 222.244128 207.533178 226.16153 210.439845 229.049444 
C 213.346512 231.937359 217.289352 233.56 221.4 233.56 
z
" clip-path="url(#p1b3055775d)" style="fill: #0871b7; fill-opacity: 0.752941; stroke: #231f20; stroke-linejoin: miter"/>
   </g>
  </g>
 </g>
 <defs>
  <clipPath id="p1b3055775d">
   <rect x="54" y="51.84" width="334.8" height="332.64"/>
  </clipPath>
 </defs>
</svg>
