<?xml version="1.0" encoding="utf-8" standalone="no"?>
<!DOCTYPE svg PUBLIC "-//W3C//DTD SVG 1.1//EN"
  "http://www.w3.org/Graphics/SVG/1.1/DTD/svg11.dtd">
<svg xmlns:xlink="http://www.w3.org/1999/xlink" width="432pt" height="432pt" viewBox="0 0 432 432" xmlns="http://www.w3.org/2000/svg" version="1.1">
 <metadata>
  <rdf:RDF xmlns:dc="http://purl.org/dc/elements/1.1/" xmlns:cc="http://creativecommons.org/ns#" xmlns:rdf="http://www.w3.org/1999/02/22-rdf-syntax-ns#">
   <cc:Work>
    <dc:type rdf:resource="http://purl.org/dc/dcmitype/StillImage"/>
    <dc:date>2025-03-02T17:55:07.526162</dc:date>
    <dc:format>image/svg+xml</dc:format>
    <dc:creator>
     <cc:Agent>
      <dc:title>Matplotlib v3.10.0, https://matplotlib.org/</dc:title>
     </cc:Agent>
    </dc:creator>
   </cc:Work>
  </rdf:RDF>
 </metadata>
 <defs>
  <style type="text/css">*{stroke-linejoin: round; stroke-linecap: butt}</style>
 </defs>
 <g id="figure_1">
  <g id="patch_1">
   <path d="M 0 432 
L 432 432 
L 432 0 
L 0 0 
z
" style="fill: #ffffff"/>
  </g>
  <g id="axes_1">
   <g id="patch_2">
    <path d="M 81.9 356.76 
L 360.9 356.76 
L 360.9 79.56 
L 81.9 79.56 
L 81.9 356.76 
z
" clip-path="url(#pe284793ef2)" style="fill: none; stroke: #969696; stroke-width: 1.5; stroke-linejoin: miter"/>
   </g>
   <g id="patch_3">
    <path d="M 81.9 357.689803 
C 82.148188 357.689803 82.386244 357.591833 82.561739 357.41747 
C 82.737235 357.243107 82.835841 357.006587 82.835841 356.76 
C 82.835841 356.513413 82.737235 356.276893 82.561739 356.10253 
C 82.386244 355.928167 82.148188 355.830197 81.9 355.830197 
C 81.651812 355.830197 81.413756 355.928167 81.238261 356.10253 
C 81.062765 356.276893 80.964159 356.513413 80.964159 356.76 
C 80.964159 357.006587 81.062765 357.243107 81.238261 357.41747 
C 81.413756 357.591833 81.651812 357.689803 81.9 357.689803 
z
" clip-path="url(#pe284793ef2)" style="fill: #0871b7; fill-opacity: 0.752941; stroke: #231f20; stroke-linejoin: miter"/>
   </g>
   <g id="patch_4">
    <path d="M 360.9 357.689803 
C 361.148188 357.689803 361.386244 357.591833 361.561739 357.41747 
C 361.737235 357.243107 361.835841 357.006587 361.835841 356.76 
C 361.835841 356.513413 361.737235 356.276893 361.561739 356.10253 
C 361.386244 355.928167 361.148188 355.830197 360.9 355.830197 
C 360.651812 355.830197 360.413756 355.928167 360.238261 356.10253 
C 360.062765 356.276893 359.964159 356.513413 359.964159 356.76 
C 359.964159 357.006587 360.062765 357.243107 360.238261 357.41747 
C 360.413756 357.591833 360.651812 357.689803 360.9 357.689803 
z
" clip-path="url(#pe284793ef2)" style="fill: #0871b7; fill-opacity: 0.752941; stroke: #231f20; stroke-linejoin: miter"/>
   </g>
   <g id="patch_5">
    <path d="M 81.9 80.489803 
C 82.148188 80.489803 82.386244 80.391833 82.561739 80.21747 
C 82.737235 80.043107 82.835841 79.806587 82.835841 79.56 
C 82.835841 79.313413 82.737235 79.076893 82.561739 78.90253 
C 82.386244 78.728167 82.148188 78.630197 81.9 78.630197 
C 81.651812 78.630197 81.413756 78.728167 81.238261 78.90253 
C 81.062765 79.076893 80.964159 79.313413 80.964159 79.56 
C 80.964159 79.806587 81.062765 80.043107 81.238261 80.21747 
C 81.413756 80.391833 81.651812 80.489803 81.9 80.489803 
z
" clip-path="url(#pe284793ef2)" style="fill: #0871b7; fill-opacity: 0.752941; stroke: #231f20; stroke-linejoin: miter"/>
   </g>
   <g id="patch_6">
    <path d="M 360.9 80.489803 
C 361.148188 80.489803 361.386244 80.391833 361.561739 80.21747 
C 361.737235 80.043107 361.835841 79.806587 361.835841 79.56 
C 361.835841 79.313413 361.737235 79.076893 361.561739 78.90253 
C 361.386244 78.728167 361.148188 78.630197 360.9 78.630197 
C 360.651812 78.630197 360.413756 78.728167 360.238261 78.90253 
C 360.062765 79.076893 359.964159 79.313413 359.964159 79.56 
C 359.964159 79.806587 360.062765 80.043107 360.238261 80.21747 
C 360.413756 80.391833 360.651812 80.489803 360.9 80.489803 
z
" clip-path="url(#pe284793ef2)" style="fill: #0871b7; fill-opacity: 0.752941; stroke: #231f20; stroke-linejoin: miter"/>
   </g>
   <g id="patch_7">
    <path d="M 109.8 359.15161 
C 110.438381 359.15161 111.050701 358.899615 111.502105 358.451123 
C 111.953508 358.002632 112.20714 357.394262 112.20714 356.76 
C 112.20714 356.125738 111.953508 355.517368 111.502105 355.068877 
C 111.050701 354.620385 110.438381 354.36839 109.8 354.36839 
C 109.161619 354.36839 108.549299 354.620385 108.097895 355.068877 
C 107.646492 355.517368 107.39286 356.125738 107.39286 356.76 
C 107.39286 357.394262 107.646492 358.002632 108.097895 358.451123 
C 108.549299 358.899615 109.161619 359.15161 109.8 359.15161 
z
" clip-path="url(#pe284793ef2)" style="fill: #0871b7; fill-opacity: 0.752941; stroke: #231f20; stroke-linejoin: miter"/>
   </g>
   <g id="patch_8">
    <path d="M 333 359.15161 
C 333.638381 359.15161 334.250701 358.899615 334.702105 358.451123 
C 335.153508 358.002632 335.40714 357.394262 335.40714 356.76 
C 335.40714 356.125738 335.153508 355.517368 334.702105 355.068877 
C 334.250701 354.620385 333.638381 354.36839 333 354.36839 
C 332.361619 354.36839 331.749299 354.620385 331.297895 355.068877 
C 330.846492 355.517368 330.59286 356.125738 330.59286 356.76 
C 330.59286 357.394262 330.846492 358.002632 331.297895 358.451123 
C 331.749299 358.899615 332.361619 359.15161 333 359.15161 
z
" clip-path="url(#pe284793ef2)" style="fill: #0871b7; fill-opacity: 0.752941; stroke: #231f20; stroke-linejoin: miter"/>
   </g>
   <g id="patch_9">
    <path d="M 81.9 331.43161 
C 82.538381 331.43161 83.150701 331.179615 83.602105 330.731123 
C 84.053508 330.282632 84.30714 329.674262 84.30714 329.04 
C 84.30714 328.405738 84.053508 327.797368 83.602105 327.348877 
C 83.150701 326.900385 82.538381 326.64839 81.9 326.64839 
C 81.261619 326.64839 80.649299 326.900385 80.197895 327.348877 
C 79.746492 327.797368 79.49286 328.405738 79.49286 329.04 
C 79.49286 329.674262 79.746492 330.282632 80.197895 330.731123 
C 80.649299 331.179615 81.261619 331.43161 81.9 331.43161 
z
" clip-path="url(#pe284793ef2)" style="fill: #0871b7; fill-opacity: 0.752941; stroke: #231f20; stroke-linejoin: miter"/>
   </g>
   <g id="patch_10">
    <path d="M 360.9 331.43161 
C 361.538381 331.43161 362.150701 331.179615 362.602105 330.731123 
C 363.053508 330.282632 363.30714 329.674262 363.30714 329.04 
C 363.30714 328.405738 363.053508 327.797368 362.602105 327.348877 
C 362.150701 326.900385 361.538381 326.64839 360.9 326.64839 
C 360.261619 326.64839 359.649299 326.900385 359.197895 327.348877 
C 358.746492 327.797368 358.49286 328.405738 358.49286 329.04 
C 358.49286 329.674262 358.746492 330.282632 359.197895 330.731123 
C 359.649299 331.179615 360.261619 331.43161 360.9 331.43161 
z
" clip-path="url(#pe284793ef2)" style="fill: #0871b7; fill-opacity: 0.752941; stroke: #231f20; stroke-linejoin: miter"/>
   </g>
   <g id="patch_11">
    <path d="M 81.9 109.67161 
C 82.538381 109.67161 83.150701 109.419615 83.602105 108.971123 
C 84.053508 108.522632 84.30714 107.914262 84.30714 107.28 
C 84.30714 106.645738 84.053508 106.037368 83.602105 105.588877 
C 83.150701 105.140385 82.538381 104.88839 81.9 104.88839 
C 81.261619 104.88839 80.649299 105.140385 80.197895 105.588877 
C 79.746492 106.037368 79.49286 106.645738 79.49286 107.28 
C 79.49286 107.914262 79.746492 108.522632 80.197895 108.971123 
C 80.649299 109.419615 81.261619 109.67161 81.9 109.67161 
z
" clip-path="url(#pe284793ef2)" style="fill: #0871b7; fill-opacity: 0.752941; stroke: #231f20; stroke-linejoin: miter"/>
   </g>
   <g id="patch_12">
    <path d="M 360.9 109.67161 
C 361.538381 109.67161 362.150701 109.419615 362.602105 108.971123 
C 363.053508 108.522632 363.30714 107.914262 363.30714 107.28 
C 363.30714 106.645738 363.053508 106.037368 362.602105 105.588877 
C 362.150701 105.140385 361.538381 104.88839 360.9 104.88839 
C 360.261619 104.88839 359.649299 105.140385 359.197895 105.588877 
C 358.746492 106.037368 358.49286 106.645738 358.49286 107.28 
C 358.49286 107.914262 358.746492 108.522632 359.197895 108.971123 
C 359.649299 109.419615 360.261619 109.67161 360.9 109.67161 
z
" clip-path="url(#pe284793ef2)" style="fill: #0871b7; fill-opacity: 0.752941; stroke: #231f20; stroke-linejoin: miter"/>
   </g>
   <g id="patch_13">
    <path d="M 109.8 81.95161 
C 110.438381 81.95161 111.050701 81.699615 111.502105 81.251123 
C 111.953508 80.802632 112.20714 80.194262 112.20714 79.56 
C 112.20714 78.925738 111.953508 78.317368 111.502105 77.868877 
C 111.050701 77.420385 110.438381 77.16839 109.8 77.16839 
C 109.161619 77.16839 108.549299 77.420385 108.097895 77.868877 
C 107.646492 78.317368 107.39286 78.925738 107.39286 79.56 
C 107.39286 80.194262 107.646492 80.802632 108.097895 81.251123 
C 108.549299 81.699615 109.161619 81.95161 109.8 81.95161 
z
" clip-path="url(#pe284793ef2)" style="fill: #0871b7; fill-opacity: 0.752941; stroke: #231f20; stroke-linejoin: miter"/>
   </g>
   <g id="patch_14">
    <path d="M 333 81.95161 
C 333.638381 81.95161 334.250701 81.699615 334.702105 81.251123 
C 335.153508 80.802632 335.40714 80.194262 335.40714 79.56 
C 335.40714 78.925738 335.153508 78.317368 334.702105 77.868877 
C 334.250701 77.420385 333.638381 77.16839 333 77.16839 
C 332.361619 77.16839 331.749299 77.420385 331.297895 77.868877 
C 330.846492 78.317368 330.59286 78.925738 330.59286 79.56 
C 330.59286 80.194262 330.846492 80.802632 331.297895 81.251123 
C 331.749299 81.699615 332.361619 81.95161 333 81.95161 
z
" clip-path="url(#pe284793ef2)" style="fill: #0871b7; fill-opacity: 0.752941; stroke: #231f20; stroke-linejoin: miter"/>
   </g>
   <g id="patch_15">
    <path d="M 305.1 358.37587 
C 305.531316 358.37587 305.945025 358.205612 306.250012 357.902593 
C 306.554999 357.599574 306.726363 357.188534 306.726363 356.76 
C 306.726363 356.331466 306.554999 355.920426 306.250012 355.617407 
C 305.945025 355.314388 305.531316 355.14413 305.1 355.14413 
C 304.668684 355.14413 304.254975 355.314388 303.949988 355.617407 
C 303.645001 355.920426 303.473637 356.331466 303.473637 356.76 
C 303.473637 357.188534 303.645001 357.599574 303.949988 357.902593 
C 304.254975 358.205612 304.668684 358.37587 305.1 358.37587 
z
" clip-path="url(#pe284793ef2)" style="fill: #b74e08; fill-opacity: 0.752941; stroke: #231f20; stroke-linejoin: miter"/>
   </g>
   <g id="patch_16">
    <path d="M 81.9 136.61587 
C 82.331316 136.61587 82.745025 136.445612 83.050012 136.142593 
C 83.354999 135.839574 83.526363 135.428534 83.526363 135 
C 83.526363 134.571466 83.354999 134.160426 83.050012 133.857407 
C 82.745025 133.554388 82.331316 133.38413 81.9 133.38413 
C 81.468684 133.38413 81.054975 133.554388 80.749988 133.857407 
C 80.445001 134.160426 80.273637 134.571466 80.273637 135 
C 80.273637 135.428534 80.445001 135.839574 80.749988 136.142593 
C 81.054975 136.445612 81.468684 136.61587 81.9 136.61587 
z
" clip-path="url(#pe284793ef2)" style="fill: #b74e08; fill-opacity: 0.752941; stroke: #231f20; stroke-linejoin: miter"/>
   </g>
   <g id="patch_17">
    <path d="M 360.9 136.61587 
C 361.331316 136.61587 361.745025 136.445612 362.050012 136.142593 
C 362.354999 135.839574 362.526363 135.428534 362.526363 135 
C 362.526363 134.571466 362.354999 134.160426 362.050012 133.857407 
C 361.745025 133.554388 361.331316 133.38413 360.9 133.38413 
C 360.468684 133.38413 360.054975 133.554388 359.749988 133.857407 
C 359.445001 134.160426 359.273637 134.571466 359.273637 135 
C 359.273637 135.428534 359.445001 135.839574 359.749988 136.142593 
C 360.054975 136.445612 360.468684 136.61587 360.9 136.61587 
z
" clip-path="url(#pe284793ef2)" style="fill: #b74e08; fill-opacity: 0.752941; stroke: #231f20; stroke-linejoin: miter"/>
   </g>
   <g id="patch_18">
    <path d="M 305.1 81.17587 
C 305.531316 81.17587 305.945025 81.005612 306.250012 80.702593 
C 306.554999 80.399574 306.726363 79.988534 306.726363 79.56 
C 306.726363 79.131466 306.554999 78.720426 306.250012 78.417407 
C 305.945025 78.114388 305.531316 77.94413 305.1 77.94413 
C 304.668684 77.94413 304.254975 78.114388 303.949988 78.417407 
C 303.645001 78.720426 303.473637 79.131466 303.473637 79.56 
C 303.473637 79.988534 303.645001 80.399574 303.949988 80.702593 
C 304.254975 81.005612 304.668684 81.17587 305.1 81.17587 
z
" clip-path="url(#pe284793ef2)" style="fill: #b74e08; fill-opacity: 0.752941; stroke: #231f20; stroke-linejoin: miter"/>
   </g>
   <g id="patch_19">
    <path d="M 137.7 358.37587 
C 138.131316 358.37587 138.545025 358.205612 138.850012 357.902593 
C 139.154999 357.599574 139.326363 357.188534 139.326363 356.76 
C 139.326363 356.331466 139.154999 355.920426 138.850012 355.617407 
C 138.545025 355.314388 138.131316 355.14413 137.7 355.14413 
C 137.268684 355.14413 136.854975 355.314388 136.549988 355.617407 
C 136.245001 355.920426 136.073637 356.331466 136.073637 356.76 
C 136.073637 357.188534 136.245001 357.599574 136.549988 357.902593 
C 136.854975 358.205612 137.268684 358.37587 137.7 358.37587 
z
" clip-path="url(#pe284793ef2)" style="fill: #b74e08; fill-opacity: 0.752941; stroke: #231f20; stroke-linejoin: miter"/>
   </g>
   <g id="patch_20">
    <path d="M 81.9 302.93587 
C 82.331316 302.93587 82.745025 302.765612 83.050012 302.462593 
C 83.354999 302.159574 83.526363 301.748534 83.526363 301.32 
C 83.526363 300.891466 83.354999 300.480426 83.050012 300.177407 
C 82.745025 299.874388 82.331316 299.70413 81.9 299.70413 
C 81.468684 299.70413 81.054975 299.874388 80.749988 300.177407 
C 80.445001 300.480426 80.273637 300.891466 80.273637 301.32 
C 80.273637 301.748534 80.445001 302.159574 80.749988 302.462593 
C 81.054975 302.765612 81.468684 302.93587 81.9 302.93587 
z
" clip-path="url(#pe284793ef2)" style="fill: #b74e08; fill-opacity: 0.752941; stroke: #231f20; stroke-linejoin: miter"/>
   </g>
   <g id="patch_21">
    <path d="M 360.9 302.93587 
C 361.331316 302.93587 361.745025 302.765612 362.050012 302.462593 
C 362.354999 302.159574 362.526363 301.748534 362.526363 301.32 
C 362.526363 300.891466 362.354999 300.480426 362.050012 300.177407 
C 361.745025 299.874388 361.331316 299.70413 360.9 299.70413 
C 360.468684 299.70413 360.054975 299.874388 359.749988 300.177407 
C 359.445001 300.480426 359.273637 300.891466 359.273637 301.32 
C 359.273637 301.748534 359.445001 302.159574 359.749988 302.462593 
C 360.054975 302.765612 360.468684 302.93587 360.9 302.93587 
z
" clip-path="url(#pe284793ef2)" style="fill: #b74e08; fill-opacity: 0.752941; stroke: #231f20; stroke-linejoin: miter"/>
   </g>
   <g id="patch_22">
    <path d="M 137.7 81.17587 
C 138.131316 81.17587 138.545025 81.005612 138.850012 80.702593 
C 139.154999 80.399574 139.326363 79.988534 139.326363 79.56 
C 139.326363 79.131466 139.154999 78.720426 138.850012 78.417407 
C 138.545025 78.114388 138.131316 77.94413 137.7 77.94413 
C 137.268684 77.94413 136.854975 78.114388 136.549988 78.417407 
C 136.245001 78.720426 136.073637 79.131466 136.073637 79.56 
C 136.073637 79.988534 136.245001 80.399574 136.549988 80.702593 
C 136.854975 81.005612 137.268684 81.17587 137.7 81.17587 
z
" clip-path="url(#pe284793ef2)" style="fill: #b74e08; fill-opacity: 0.752941; stroke: #231f20; stroke-linejoin: miter"/>
   </g>
   <g id="patch_23">
    <path d="M 109.8 335.19162 
C 111.442022 335.19162 113.017013 334.543447 114.178098 333.389852 
C 115.339184 332.236258 115.991566 330.671429 115.991566 329.04 
C 115.991566 327.408571 115.339184 325.843742 114.178098 324.690148 
C 113.017013 323.536553 111.442022 322.88838 109.8 322.88838 
C 108.157978 322.88838 106.582987 323.536553 105.421902 324.690148 
C 104.260816 325.843742 103.608434 327.408571 103.608434 329.04 
C 103.608434 330.671429 104.260816 332.236258 105.421902 333.389852 
C 106.582987 334.543447 108.157978 335.19162 109.8 335.19162 
z
" clip-path="url(#pe284793ef2)" style="fill: #0871b7; fill-opacity: 0.752941; stroke: #231f20; stroke-linejoin: miter"/>
   </g>
   <g id="patch_24">
    <path d="M 333 335.19162 
C 334.642022 335.19162 336.217013 334.543447 337.378098 333.389852 
C 338.539184 332.236258 339.191566 330.671429 339.191566 329.04 
C 339.191566 327.408571 338.539184 325.843742 337.378098 324.690148 
C 336.217013 323.536553 334.642022 322.88838 333 322.88838 
C 331.357978 322.88838 329.782987 323.536553 328.621902 324.690148 
C 327.460816 325.843742 326.808434 327.408571 326.808434 329.04 
C 326.808434 330.671429 327.460816 332.236258 328.621902 333.389852 
C 329.782987 334.543447 331.357978 335.19162 333 335.19162 
z
" clip-path="url(#pe284793ef2)" style="fill: #0871b7; fill-opacity: 0.752941; stroke: #231f20; stroke-linejoin: miter"/>
   </g>
   <g id="patch_25">
    <path d="M 109.8 113.43162 
C 111.442022 113.43162 113.017013 112.783447 114.178098 111.629852 
C 115.339184 110.476258 115.991566 108.911429 115.991566 107.28 
C 115.991566 105.648571 115.339184 104.083742 114.178098 102.930148 
C 113.017013 101.776553 111.442022 101.12838 109.8 101.12838 
C 108.157978 101.12838 106.582987 101.776553 105.421902 102.930148 
C 104.260816 104.083742 103.608434 105.648571 103.608434 107.28 
C 103.608434 108.911429 104.260816 110.476258 105.421902 111.629852 
C 106.582987 112.783447 108.157978 113.43162 109.8 113.43162 
z
" clip-path="url(#pe284793ef2)" style="fill: #0871b7; fill-opacity: 0.752941; stroke: #231f20; stroke-linejoin: miter"/>
   </g>
   <g id="patch_26">
    <path d="M 333 113.43162 
C 334.642022 113.43162 336.217013 112.783447 337.378098 111.629852 
C 338.539184 110.476258 339.191566 108.911429 339.191566 107.28 
C 339.191566 105.648571 338.539184 104.083742 337.378098 102.930148 
C 336.217013 101.776553 334.642022 101.12838 333 101.12838 
C 331.357978 101.12838 329.782987 101.776553 328.621902 102.930148 
C 327.460816 104.083742 326.808434 105.648571 326.808434 107.28 
C 326.808434 108.911429 327.460816 110.476258 328.621902 111.629852 
C 329.782987 112.783447 331.357978 113.43162 333 113.43162 
z
" clip-path="url(#pe284793ef2)" style="fill: #0871b7; fill-opacity: 0.752941; stroke: #231f20; stroke-linejoin: miter"/>
   </g>
   <g id="patch_27">
    <path d="M 165.6 360.588487 
C 166.62192 360.588487 167.602122 360.185094 168.324728 359.467149 
C 169.047335 358.749205 169.453348 357.775327 169.453348 356.76 
C 169.453348 355.744673 169.047335 354.770795 168.324728 354.052851 
C 167.602122 353.334906 166.62192 352.931513 165.6 352.931513 
C 164.57808 352.931513 163.597878 353.334906 162.875272 354.052851 
C 162.152665 354.770795 161.746652 355.744673 161.746652 356.76 
C 161.746652 357.775327 162.152665 358.749205 162.875272 359.467149 
C 163.597878 360.185094 164.57808 360.588487 165.6 360.588487 
z
" clip-path="url(#pe284793ef2)" style="fill: #0871b7; fill-opacity: 0.752941; stroke: #231f20; stroke-linejoin: miter"/>
   </g>
   <g id="patch_28">
    <path d="M 81.9 277.428487 
C 82.92192 277.428487 83.902122 277.025094 84.624728 276.307149 
C 85.347335 275.589205 85.753348 274.615327 85.753348 273.6 
C 85.753348 272.584673 85.347335 271.610795 84.624728 270.892851 
C 83.902122 270.174906 82.92192 269.771513 81.9 269.771513 
C 80.87808 269.771513 79.897878 270.174906 79.175272 270.892851 
C 78.452665 271.610795 78.046652 272.584673 78.046652 273.6 
C 78.046652 274.615327 78.452665 275.589205 79.175272 276.307149 
C 79.897878 277.025094 80.87808 277.428487 81.9 277.428487 
z
" clip-path="url(#pe284793ef2)" style="fill: #0871b7; fill-opacity: 0.752941; stroke: #231f20; stroke-linejoin: miter"/>
   </g>
   <g id="patch_29">
    <path d="M 360.9 277.428487 
C 361.92192 277.428487 362.902122 277.025094 363.624728 276.307149 
C 364.347335 275.589205 364.753348 274.615327 364.753348 273.6 
C 364.753348 272.584673 364.347335 271.610795 363.624728 270.892851 
C 362.902122 270.174906 361.92192 269.771513 360.9 269.771513 
C 359.87808 269.771513 358.897878 270.174906 358.175272 270.892851 
C 357.452665 271.610795 357.046652 272.584673 357.046652 273.6 
C 357.046652 274.615327 357.452665 275.589205 358.175272 276.307149 
C 358.897878 277.025094 359.87808 277.428487 360.9 277.428487 
z
" clip-path="url(#pe284793ef2)" style="fill: #0871b7; fill-opacity: 0.752941; stroke: #231f20; stroke-linejoin: miter"/>
   </g>
   <g id="patch_30">
    <path d="M 165.6 83.388487 
C 166.62192 83.388487 167.602122 82.985094 168.324728 82.267149 
C 169.047335 81.549205 169.453348 80.575327 169.453348 79.56 
C 169.453348 78.544673 169.047335 77.570795 168.324728 76.852851 
C 167.602122 76.134906 166.62192 75.731513 165.6 75.731513 
C 164.57808 75.731513 163.597878 76.134906 162.875272 76.852851 
C 162.152665 77.570795 161.746652 78.544673 161.746652 79.56 
C 161.746652 80.575327 162.152665 81.549205 162.875272 82.267149 
C 163.597878 82.985094 164.57808 83.388487 165.6 83.388487 
z
" clip-path="url(#pe284793ef2)" style="fill: #0871b7; fill-opacity: 0.752941; stroke: #231f20; stroke-linejoin: miter"/>
   </g>
   <g id="patch_31">
    <path d="M 277.2 360.588487 
C 278.22192 360.588487 279.202122 360.185094 279.924728 359.467149 
C 280.647335 358.749205 281.053348 357.775327 281.053348 356.76 
C 281.053348 355.744673 280.647335 354.770795 279.924728 354.052851 
C 279.202122 353.334906 278.22192 352.931513 277.2 352.931513 
C 276.17808 352.931513 275.197878 353.334906 274.475272 354.052851 
C 273.752665 354.770795 273.346652 355.744673 273.346652 356.76 
C 273.346652 357.775327 273.752665 358.749205 274.475272 359.467149 
C 275.197878 360.185094 276.17808 360.588487 277.2 360.588487 
z
" clip-path="url(#pe284793ef2)" style="fill: #0871b7; fill-opacity: 0.752941; stroke: #231f20; stroke-linejoin: miter"/>
   </g>
   <g id="patch_32">
    <path d="M 81.9 166.548487 
C 82.92192 166.548487 83.902122 166.145094 84.624728 165.427149 
C 85.347335 164.709205 85.753348 163.735327 85.753348 162.72 
C 85.753348 161.704673 85.347335 160.730795 84.624728 160.012851 
C 83.902122 159.294906 82.92192 158.891513 81.9 158.891513 
C 80.87808 158.891513 79.897878 159.294906 79.175272 160.012851 
C 78.452665 160.730795 78.046652 161.704673 78.046652 162.72 
C 78.046652 163.735327 78.452665 164.709205 79.175272 165.427149 
C 79.897878 166.145094 80.87808 166.548487 81.9 166.548487 
z
" clip-path="url(#pe284793ef2)" style="fill: #0871b7; fill-opacity: 0.752941; stroke: #231f20; stroke-linejoin: miter"/>
   </g>
   <g id="patch_33">
    <path d="M 360.9 166.548487 
C 361.92192 166.548487 362.902122 166.145094 363.624728 165.427149 
C 364.347335 164.709205 364.753348 163.735327 364.753348 162.72 
C 364.753348 161.704673 364.347335 160.730795 363.624728 160.012851 
C 362.902122 159.294906 361.92192 158.891513 360.9 158.891513 
C 359.87808 158.891513 358.897878 159.294906 358.175272 160.012851 
C 357.452665 160.730795 357.046652 161.704673 357.046652 162.72 
C 357.046652 163.735327 357.452665 164.709205 358.175272 165.427149 
C 358.897878 166.145094 359.87808 166.548487 360.9 166.548487 
z
" clip-path="url(#pe284793ef2)" style="fill: #0871b7; fill-opacity: 0.752941; stroke: #231f20; stroke-linejoin: miter"/>
   </g>
   <g id="patch_34">
    <path d="M 277.2 83.388487 
C 278.22192 83.388487 279.202122 82.985094 279.924728 82.267149 
C 280.647335 81.549205 281.053348 80.575327 281.053348 79.56 
C 281.053348 78.544673 280.647335 77.570795 279.924728 76.852851 
C 279.202122 76.134906 278.22192 75.731513 277.2 75.731513 
C 276.17808 75.731513 275.197878 76.134906 274.475272 76.852851 
C 273.752665 77.570795 273.346652 78.544673 273.346652 79.56 
C 273.346652 80.575327 273.752665 81.549205 274.475272 82.267149 
C 275.197878 82.985094 276.17808 83.388487 277.2 83.388487 
z
" clip-path="url(#pe284793ef2)" style="fill: #0871b7; fill-opacity: 0.752941; stroke: #231f20; stroke-linejoin: miter"/>
   </g>
   <g id="patch_35">
    <path d="M 193.5 360.504288 
C 194.499445 360.504288 195.458089 360.109766 196.164803 359.407611 
C 196.871518 358.705456 197.268601 357.752997 197.268601 356.76 
C 197.268601 355.767003 196.871518 354.814544 196.164803 354.112389 
C 195.458089 353.410234 194.499445 353.015712 193.5 353.015712 
C 192.500555 353.015712 191.541911 353.410234 190.835197 354.112389 
C 190.128482 354.814544 189.731399 355.767003 189.731399 356.76 
C 189.731399 357.752997 190.128482 358.705456 190.835197 359.407611 
C 191.541911 360.109766 192.500555 360.504288 193.5 360.504288 
z
" clip-path="url(#pe284793ef2)" style="fill: #b74e08; fill-opacity: 0.752941; stroke: #231f20; stroke-linejoin: miter"/>
   </g>
   <g id="patch_36">
    <path d="M 249.3 360.504288 
C 250.299445 360.504288 251.258089 360.109766 251.964803 359.407611 
C 252.671518 358.705456 253.068601 357.752997 253.068601 356.76 
C 253.068601 355.767003 252.671518 354.814544 251.964803 354.112389 
C 251.258089 353.410234 250.299445 353.015712 249.3 353.015712 
C 248.300555 353.015712 247.341911 353.410234 246.635197 354.112389 
C 245.928482 354.814544 245.531399 355.767003 245.531399 356.76 
C 245.531399 357.752997 245.928482 358.705456 246.635197 359.407611 
C 247.341911 360.109766 248.300555 360.504288 249.3 360.504288 
z
" clip-path="url(#pe284793ef2)" style="fill: #b74e08; fill-opacity: 0.752941; stroke: #231f20; stroke-linejoin: miter"/>
   </g>
   <g id="patch_37">
    <path d="M 81.9 249.624288 
C 82.899445 249.624288 83.858089 249.229766 84.564803 248.527611 
C 85.271518 247.825456 85.668601 246.872997 85.668601 245.88 
C 85.668601 244.887003 85.271518 243.934544 84.564803 243.232389 
C 83.858089 242.530234 82.899445 242.135712 81.9 242.135712 
C 80.900555 242.135712 79.941911 242.530234 79.235197 243.232389 
C 78.528482 243.934544 78.131399 244.887003 78.131399 245.88 
C 78.131399 246.872997 78.528482 247.825456 79.235197 248.527611 
C 79.941911 249.229766 80.900555 249.624288 81.9 249.624288 
z
" clip-path="url(#pe284793ef2)" style="fill: #b74e08; fill-opacity: 0.752941; stroke: #231f20; stroke-linejoin: miter"/>
   </g>
   <g id="patch_38">
    <path d="M 360.9 249.624288 
C 361.899445 249.624288 362.858089 249.229766 363.564803 248.527611 
C 364.271518 247.825456 364.668601 246.872997 364.668601 245.88 
C 364.668601 244.887003 364.271518 243.934544 363.564803 243.232389 
C 362.858089 242.530234 361.899445 242.135712 360.9 242.135712 
C 359.900555 242.135712 358.941911 242.530234 358.235197 243.232389 
C 357.528482 243.934544 357.131399 244.887003 357.131399 245.88 
C 357.131399 246.872997 357.528482 247.825456 358.235197 248.527611 
C 358.941911 249.229766 359.900555 249.624288 360.9 249.624288 
z
" clip-path="url(#pe284793ef2)" style="fill: #b74e08; fill-opacity: 0.752941; stroke: #231f20; stroke-linejoin: miter"/>
   </g>
   <g id="patch_39">
    <path d="M 81.9 194.184288 
C 82.899445 194.184288 83.858089 193.789766 84.564803 193.087611 
C 85.271518 192.385456 85.668601 191.432997 85.668601 190.44 
C 85.668601 189.447003 85.271518 188.494544 84.564803 187.792389 
C 83.858089 187.090234 82.899445 186.695712 81.9 186.695712 
C 80.900555 186.695712 79.941911 187.090234 79.235197 187.792389 
C 78.528482 188.494544 78.131399 189.447003 78.131399 190.44 
C 78.131399 191.432997 78.528482 192.385456 79.235197 193.087611 
C 79.941911 193.789766 80.900555 194.184288 81.9 194.184288 
z
" clip-path="url(#pe284793ef2)" style="fill: #b74e08; fill-opacity: 0.752941; stroke: #231f20; stroke-linejoin: miter"/>
   </g>
   <g id="patch_40">
    <path d="M 360.9 194.184288 
C 361.899445 194.184288 362.858089 193.789766 363.564803 193.087611 
C 364.271518 192.385456 364.668601 191.432997 364.668601 190.44 
C 364.668601 189.447003 364.271518 188.494544 363.564803 187.792389 
C 362.858089 187.090234 361.899445 186.695712 360.9 186.695712 
C 359.900555 186.695712 358.941911 187.090234 358.235197 187.792389 
C 357.528482 188.494544 357.131399 189.447003 357.131399 190.44 
C 357.131399 191.432997 357.528482 192.385456 358.235197 193.087611 
C 358.941911 193.789766 359.900555 194.184288 360.9 194.184288 
z
" clip-path="url(#pe284793ef2)" style="fill: #b74e08; fill-opacity: 0.752941; stroke: #231f20; stroke-linejoin: miter"/>
   </g>
   <g id="patch_41">
    <path d="M 193.5 83.304288 
C 194.499445 83.304288 195.458089 82.909766 196.164803 82.207611 
C 196.871518 81.505456 197.268601 80.552997 197.268601 79.56 
C 197.268601 78.567003 196.871518 77.614544 196.164803 76.912389 
C 195.458089 76.210234 194.499445 75.815712 193.5 75.815712 
C 192.500555 75.815712 191.541911 76.210234 190.835197 76.912389 
C 190.128482 77.614544 189.731399 78.567003 189.731399 79.56 
C 189.731399 80.552997 190.128482 81.505456 190.835197 82.207611 
C 191.541911 82.909766 192.500555 83.304288 193.5 83.304288 
z
" clip-path="url(#pe284793ef2)" style="fill: #b74e08; fill-opacity: 0.752941; stroke: #231f20; stroke-linejoin: miter"/>
   </g>
   <g id="patch_42">
    <path d="M 249.3 83.304288 
C 250.299445 83.304288 251.258089 82.909766 251.964803 82.207611 
C 252.671518 81.505456 253.068601 80.552997 253.068601 79.56 
C 253.068601 78.567003 252.671518 77.614544 251.964803 76.912389 
C 251.258089 76.210234 250.299445 75.815712 249.3 75.815712 
C 248.300555 75.815712 247.341911 76.210234 246.635197 76.912389 
C 245.928482 77.614544 245.531399 78.567003 245.531399 79.56 
C 245.531399 80.552997 245.928482 81.505456 246.635197 82.207611 
C 247.341911 82.909766 248.300555 83.304288 249.3 83.304288 
z
" clip-path="url(#pe284793ef2)" style="fill: #b74e08; fill-opacity: 0.752941; stroke: #231f20; stroke-linejoin: miter"/>
   </g>
   <g id="patch_43">
    <path d="M 305.1 333.196288 
C 306.209418 333.196288 307.273547 332.758356 308.058024 331.97894 
C 308.842501 331.199524 309.283277 330.142261 309.283277 329.04 
C 309.283277 327.937739 308.842501 326.880476 308.058024 326.10106 
C 307.273547 325.321644 306.209418 324.883712 305.1 324.883712 
C 303.990582 324.883712 302.926453 325.321644 302.141976 326.10106 
C 301.357499 326.880476 300.916723 327.937739 300.916723 329.04 
C 300.916723 330.142261 301.357499 331.199524 302.141976 331.97894 
C 302.926453 332.758356 303.990582 333.196288 305.1 333.196288 
z
" clip-path="url(#pe284793ef2)" style="fill: #b74e08; fill-opacity: 0.752941; stroke: #231f20; stroke-linejoin: miter"/>
   </g>
   <g id="patch_44">
    <path d="M 333 305.476288 
C 334.109418 305.476288 335.173547 305.038356 335.958024 304.25894 
C 336.742501 303.479524 337.183277 302.422261 337.183277 301.32 
C 337.183277 300.217739 336.742501 299.160476 335.958024 298.38106 
C 335.173547 297.601644 334.109418 297.163712 333 297.163712 
C 331.890582 297.163712 330.826453 297.601644 330.041976 298.38106 
C 329.257499 299.160476 328.816723 300.217739 328.816723 301.32 
C 328.816723 302.422261 329.257499 303.479524 330.041976 304.25894 
C 330.826453 305.038356 331.890582 305.476288 333 305.476288 
z
" clip-path="url(#pe284793ef2)" style="fill: #b74e08; fill-opacity: 0.752941; stroke: #231f20; stroke-linejoin: miter"/>
   </g>
   <g id="patch_45">
    <path d="M 109.8 139.156288 
C 110.909418 139.156288 111.973547 138.718356 112.758024 137.93894 
C 113.542501 137.159524 113.983277 136.102261 113.983277 135 
C 113.983277 133.897739 113.542501 132.840476 112.758024 132.06106 
C 111.973547 131.281644 110.909418 130.843712 109.8 130.843712 
C 108.690582 130.843712 107.626453 131.281644 106.841976 132.06106 
C 106.057499 132.840476 105.616723 133.897739 105.616723 135 
C 105.616723 136.102261 106.057499 137.159524 106.841976 137.93894 
C 107.626453 138.718356 108.690582 139.156288 109.8 139.156288 
z
" clip-path="url(#pe284793ef2)" style="fill: #b74e08; fill-opacity: 0.752941; stroke: #231f20; stroke-linejoin: miter"/>
   </g>
   <g id="patch_46">
    <path d="M 333 139.156288 
C 334.109418 139.156288 335.173547 138.718356 335.958024 137.93894 
C 336.742501 137.159524 337.183277 136.102261 337.183277 135 
C 337.183277 133.897739 336.742501 132.840476 335.958024 132.06106 
C 335.173547 131.281644 334.109418 130.843712 333 130.843712 
C 331.890582 130.843712 330.826453 131.281644 330.041976 132.06106 
C 329.257499 132.840476 328.816723 133.897739 328.816723 135 
C 328.816723 136.102261 329.257499 137.159524 330.041976 137.93894 
C 330.826453 138.718356 331.890582 139.156288 333 139.156288 
z
" clip-path="url(#pe284793ef2)" style="fill: #b74e08; fill-opacity: 0.752941; stroke: #231f20; stroke-linejoin: miter"/>
   </g>
   <g id="patch_47">
    <path d="M 137.7 111.436288 
C 138.809418 111.436288 139.873547 110.998356 140.658024 110.21894 
C 141.442501 109.439524 141.883277 108.382261 141.883277 107.28 
C 141.883277 106.177739 141.442501 105.120476 140.658024 104.34106 
C 139.873547 103.561644 138.809418 103.123712 137.7 103.123712 
C 136.590582 103.123712 135.526453 103.561644 134.741976 104.34106 
C 133.957499 105.120476 133.516723 106.177739 133.516723 107.28 
C 133.516723 108.382261 133.957499 109.439524 134.741976 110.21894 
C 135.526453 110.998356 136.590582 111.436288 137.7 111.436288 
z
" clip-path="url(#pe284793ef2)" style="fill: #b74e08; fill-opacity: 0.752941; stroke: #231f20; stroke-linejoin: miter"/>
   </g>
   <g id="patch_48">
    <path d="M 305.1 111.436288 
C 306.209418 111.436288 307.273547 110.998356 308.058024 110.21894 
C 308.842501 109.439524 309.283277 108.382261 309.283277 107.28 
C 309.283277 106.177739 308.842501 105.120476 308.058024 104.34106 
C 307.273547 103.561644 306.209418 103.123712 305.1 103.123712 
C 303.990582 103.123712 302.926453 103.561644 302.141976 104.34106 
C 301.357499 105.120476 300.916723 106.177739 300.916723 107.28 
C 300.916723 108.382261 301.357499 109.439524 302.141976 110.21894 
C 302.926453 110.998356 303.990582 111.436288 305.1 111.436288 
z
" clip-path="url(#pe284793ef2)" style="fill: #b74e08; fill-opacity: 0.752941; stroke: #231f20; stroke-linejoin: miter"/>
   </g>
   <g id="patch_49">
    <path d="M 221.4 361.555398 
C 222.680013 361.555398 223.907771 361.050125 224.812877 360.150858 
C 225.717983 359.251592 226.226537 358.031754 226.226537 356.76 
C 226.226537 355.488246 225.717983 354.268408 224.812877 353.369142 
C 223.907771 352.469875 222.680013 351.964602 221.4 351.964602 
C 220.119987 351.964602 218.892229 352.469875 217.987123 353.369142 
C 217.082017 354.268408 216.573463 355.488246 216.573463 356.76 
C 216.573463 358.031754 217.082017 359.251592 217.987123 360.150858 
C 218.892229 361.050125 220.119987 361.555398 221.4 361.555398 
z
" clip-path="url(#pe284793ef2)" style="fill: #0871b7; fill-opacity: 0.752941; stroke: #231f20; stroke-linejoin: miter"/>
   </g>
   <g id="patch_50">
    <path d="M 81.9 222.955398 
C 83.180013 222.955398 84.407771 222.450125 85.312877 221.550858 
C 86.217983 220.651592 86.726537 219.431754 86.726537 218.16 
C 86.726537 216.888246 86.217983 215.668408 85.312877 214.769142 
C 84.407771 213.869875 83.180013 213.364602 81.9 213.364602 
C 80.619987 213.364602 79.392229 213.869875 78.487123 214.769142 
C 77.582017 215.668408 77.073463 216.888246 77.073463 218.16 
C 77.073463 219.431754 77.582017 220.651592 78.487123 221.550858 
C 79.392229 222.450125 80.619987 222.955398 81.9 222.955398 
z
" clip-path="url(#pe284793ef2)" style="fill: #0871b7; fill-opacity: 0.752941; stroke: #231f20; stroke-linejoin: miter"/>
   </g>
   <g id="patch_51">
    <path d="M 360.9 222.955398 
C 362.180013 222.955398 363.407771 222.450125 364.312877 221.550858 
C 365.217983 220.651592 365.726537 219.431754 365.726537 218.16 
C 365.726537 216.888246 365.217983 215.668408 364.312877 214.769142 
C 363.407771 213.869875 362.180013 213.364602 360.9 213.364602 
C 359.619987 213.364602 358.392229 213.869875 357.487123 214.769142 
C 356.582017 215.668408 356.073463 216.888246 356.073463 218.16 
C 356.073463 219.431754 356.582017 220.651592 357.487123 221.550858 
C 358.392229 222.450125 359.619987 222.955398 360.9 222.955398 
z
" clip-path="url(#pe284793ef2)" style="fill: #0871b7; fill-opacity: 0.752941; stroke: #231f20; stroke-linejoin: miter"/>
   </g>
   <g id="patch_52">
    <path d="M 221.4 84.355398 
C 222.680013 84.355398 223.907771 83.850125 224.812877 82.950858 
C 225.717983 82.051592 226.226537 80.831754 226.226537 79.56 
C 226.226537 78.288246 225.717983 77.068408 224.812877 76.169142 
C 223.907771 75.269875 222.680013 74.764602 221.4 74.764602 
C 220.119987 74.764602 218.892229 75.269875 217.987123 76.169142 
C 217.082017 77.068408 216.573463 78.288246 216.573463 79.56 
C 216.573463 80.831754 217.082017 82.051592 217.987123 82.950858 
C 218.892229 83.850125 220.119987 84.355398 221.4 84.355398 
z
" clip-path="url(#pe284793ef2)" style="fill: #0871b7; fill-opacity: 0.752941; stroke: #231f20; stroke-linejoin: miter"/>
   </g>
   <g id="patch_53">
    <path d="M 137.7 333.196288 
C 138.809418 333.196288 139.873547 332.758356 140.658024 331.97894 
C 141.442501 331.199524 141.883277 330.142261 141.883277 329.04 
C 141.883277 327.937739 141.442501 326.880476 140.658024 326.10106 
C 139.873547 325.321644 138.809418 324.883712 137.7 324.883712 
C 136.590582 324.883712 135.526453 325.321644 134.741976 326.10106 
C 133.957499 326.880476 133.516723 327.937739 133.516723 329.04 
C 133.516723 330.142261 133.957499 331.199524 134.741976 331.97894 
C 135.526453 332.758356 136.590582 333.196288 137.7 333.196288 
z
" clip-path="url(#pe284793ef2)" style="fill: #b74e08; fill-opacity: 0.752941; stroke: #231f20; stroke-linejoin: miter"/>
   </g>
   <g id="patch_54">
    <path d="M 109.8 305.476288 
C 110.909418 305.476288 111.973547 305.038356 112.758024 304.25894 
C 113.542501 303.479524 113.983277 302.422261 113.983277 301.32 
C 113.983277 300.217739 113.542501 299.160476 112.758024 298.38106 
C 111.973547 297.601644 110.909418 297.163712 109.8 297.163712 
C 108.690582 297.163712 107.626453 297.601644 106.841976 298.38106 
C 106.057499 299.160476 105.616723 300.217739 105.616723 301.32 
C 105.616723 302.422261 106.057499 303.479524 106.841976 304.25894 
C 107.626453 305.038356 108.690582 305.476288 109.8 305.476288 
z
" clip-path="url(#pe284793ef2)" style="fill: #b74e08; fill-opacity: 0.752941; stroke: #231f20; stroke-linejoin: miter"/>
   </g>
   <g id="patch_55">
    <path d="M 333 172.56751 
C 335.628549 172.56751 338.149793 171.529915 340.008457 169.683241 
C 341.867122 167.836568 342.911455 165.33159 342.911455 162.72 
C 342.911455 160.10841 341.867122 157.603432 340.008457 155.756759 
C 338.149793 153.910085 335.628549 152.87249 333 152.87249 
C 330.371451 152.87249 327.850207 153.910085 325.991543 155.756759 
C 324.132878 157.603432 323.088545 160.10841 323.088545 162.72 
C 323.088545 165.33159 324.132878 167.836568 325.991543 169.683241 
C 327.850207 171.529915 330.371451 172.56751 333 172.56751 
z
" clip-path="url(#pe284793ef2)" style="fill: #0871b7; fill-opacity: 0.752941; stroke: #231f20; stroke-linejoin: miter"/>
   </g>
   <g id="patch_56">
    <path d="M 277.2 117.12751 
C 279.828549 117.12751 282.349793 116.089915 284.208457 114.243241 
C 286.067122 112.396568 287.111455 109.89159 287.111455 107.28 
C 287.111455 104.66841 286.067122 102.163432 284.208457 100.316759 
C 282.349793 98.470085 279.828549 97.43249 277.2 97.43249 
C 274.571451 97.43249 272.050207 98.470085 270.191543 100.316759 
C 268.332878 102.163432 267.288545 104.66841 267.288545 107.28 
C 267.288545 109.89159 268.332878 112.396568 270.191543 114.243241 
C 272.050207 116.089915 274.571451 117.12751 277.2 117.12751 
z
" clip-path="url(#pe284793ef2)" style="fill: #0871b7; fill-opacity: 0.752941; stroke: #231f20; stroke-linejoin: miter"/>
   </g>
   <g id="patch_57">
    <path d="M 333 283.44751 
C 335.628549 283.44751 338.149793 282.409915 340.008457 280.563241 
C 341.867122 278.716568 342.911455 276.21159 342.911455 273.6 
C 342.911455 270.98841 341.867122 268.483432 340.008457 266.636759 
C 338.149793 264.790085 335.628549 263.75249 333 263.75249 
C 330.371451 263.75249 327.850207 264.790085 325.991543 266.636759 
C 324.132878 268.483432 323.088545 270.98841 323.088545 273.6 
C 323.088545 276.21159 324.132878 278.716568 325.991543 280.563241 
C 327.850207 282.409915 330.371451 283.44751 333 283.44751 
z
" clip-path="url(#pe284793ef2)" style="fill: #0871b7; fill-opacity: 0.752941; stroke: #231f20; stroke-linejoin: miter"/>
   </g>
   <g id="patch_58">
    <path d="M 165.6 117.12751 
C 168.228549 117.12751 170.749793 116.089915 172.608457 114.243241 
C 174.467122 112.396568 175.511455 109.89159 175.511455 107.28 
C 175.511455 104.66841 174.467122 102.163432 172.608457 100.316759 
C 170.749793 98.470085 168.228549 97.43249 165.6 97.43249 
C 162.971451 97.43249 160.450207 98.470085 158.591543 100.316759 
C 156.732878 102.163432 155.688545 104.66841 155.688545 107.28 
C 155.688545 109.89159 156.732878 112.396568 158.591543 114.243241 
C 160.450207 116.089915 162.971451 117.12751 165.6 117.12751 
z
" clip-path="url(#pe284793ef2)" style="fill: #0871b7; fill-opacity: 0.752941; stroke: #231f20; stroke-linejoin: miter"/>
   </g>
   <g id="patch_59">
    <path d="M 165.6 338.88751 
C 168.228549 338.88751 170.749793 337.849915 172.608457 336.003241 
C 174.467122 334.156568 175.511455 331.65159 175.511455 329.04 
C 175.511455 326.42841 174.467122 323.923432 172.608457 322.076759 
C 170.749793 320.230085 168.228549 319.19249 165.6 319.19249 
C 162.971451 319.19249 160.450207 320.230085 158.591543 322.076759 
C 156.732878 323.923432 155.688545 326.42841 155.688545 329.04 
C 155.688545 331.65159 156.732878 334.156568 158.591543 336.003241 
C 160.450207 337.849915 162.971451 338.88751 165.6 338.88751 
z
" clip-path="url(#pe284793ef2)" style="fill: #0871b7; fill-opacity: 0.752941; stroke: #231f20; stroke-linejoin: miter"/>
   </g>
   <g id="patch_60">
    <path d="M 277.2 338.88751 
C 279.828549 338.88751 282.349793 337.849915 284.208457 336.003241 
C 286.067122 334.156568 287.111455 331.65159 287.111455 329.04 
C 287.111455 326.42841 286.067122 323.923432 284.208457 322.076759 
C 282.349793 320.230085 279.828549 319.19249 277.2 319.19249 
C 274.571451 319.19249 272.050207 320.230085 270.191543 322.076759 
C 268.332878 323.923432 267.288545 326.42841 267.288545 329.04 
C 267.288545 331.65159 268.332878 334.156568 270.191543 336.003241 
C 272.050207 337.849915 274.571451 338.88751 277.2 338.88751 
z
" clip-path="url(#pe284793ef2)" style="fill: #0871b7; fill-opacity: 0.752941; stroke: #231f20; stroke-linejoin: miter"/>
   </g>
   <g id="patch_61">
    <path d="M 109.8 283.44751 
C 112.428549 283.44751 114.949793 282.409915 116.808457 280.563241 
C 118.667122 278.716568 119.711455 276.21159 119.711455 273.6 
C 119.711455 270.98841 118.667122 268.483432 116.808457 266.636759 
C 114.949793 264.790085 112.428549 263.75249 109.8 263.75249 
C 107.171451 263.75249 104.650207 264.790085 102.791543 266.636759 
C 100.932878 268.483432 99.888545 270.98841 99.888545 273.6 
C 99.888545 276.21159 100.932878 278.716568 102.791543 280.563241 
C 104.650207 282.409915 107.171451 283.44751 109.8 283.44751 
z
" clip-path="url(#pe284793ef2)" style="fill: #0871b7; fill-opacity: 0.752941; stroke: #231f20; stroke-linejoin: miter"/>
   </g>
   <g id="patch_62">
    <path d="M 109.8 172.56751 
C 112.428549 172.56751 114.949793 171.529915 116.808457 169.683241 
C 118.667122 167.836568 119.711455 165.33159 119.711455 162.72 
C 119.711455 160.10841 118.667122 157.603432 116.808457 155.756759 
C 114.949793 153.910085 112.428549 152.87249 109.8 152.87249 
C 107.171451 152.87249 104.650207 153.910085 102.791543 155.756759 
C 100.932878 157.603432 99.888545 160.10841 99.888545 162.72 
C 99.888545 165.33159 100.932878 167.836568 102.791543 169.683241 
C 104.650207 171.529915 107.171451 172.56751 109.8 172.56751 
z
" clip-path="url(#pe284793ef2)" style="fill: #0871b7; fill-opacity: 0.752941; stroke: #231f20; stroke-linejoin: miter"/>
   </g>
   <g id="patch_63">
    <path d="M 305.1 304.12816 
C 305.849569 304.12816 306.568538 303.832274 307.098563 303.305669 
C 307.628588 302.779063 307.926395 302.064733 307.926395 301.32 
C 307.926395 300.575267 307.628588 299.860937 307.098563 299.334331 
C 306.568538 298.807726 305.849569 298.51184 305.1 298.51184 
C 304.350431 298.51184 303.631462 298.807726 303.101437 299.334331 
C 302.571412 299.860937 302.273605 300.575267 302.273605 301.32 
C 302.273605 302.064733 302.571412 302.779063 303.101437 303.305669 
C 303.631462 303.832274 304.350431 304.12816 305.1 304.12816 
z
" clip-path="url(#pe284793ef2)" style="fill: #0871b7; fill-opacity: 0.752941; stroke: #231f20; stroke-linejoin: miter"/>
   </g>
   <g id="patch_64">
    <path d="M 137.7 137.80816 
C 138.449569 137.80816 139.168538 137.512274 139.698563 136.985669 
C 140.228588 136.459063 140.526395 135.744733 140.526395 135 
C 140.526395 134.255267 140.228588 133.540937 139.698563 133.014331 
C 139.168538 132.487726 138.449569 132.19184 137.7 132.19184 
C 136.950431 132.19184 136.231462 132.487726 135.701437 133.014331 
C 135.171412 133.540937 134.873605 134.255267 134.873605 135 
C 134.873605 135.744733 135.171412 136.459063 135.701437 136.985669 
C 136.231462 137.512274 136.950431 137.80816 137.7 137.80816 
z
" clip-path="url(#pe284793ef2)" style="fill: #0871b7; fill-opacity: 0.752941; stroke: #231f20; stroke-linejoin: miter"/>
   </g>
   <g id="patch_65">
    <path d="M 305.1 137.80816 
C 305.849569 137.80816 306.568538 137.512274 307.098563 136.985669 
C 307.628588 136.459063 307.926395 135.744733 307.926395 135 
C 307.926395 134.255267 307.628588 133.540937 307.098563 133.014331 
C 306.568538 132.487726 305.849569 132.19184 305.1 132.19184 
C 304.350431 132.19184 303.631462 132.487726 303.101437 133.014331 
C 302.571412 133.540937 302.273605 134.255267 302.273605 135 
C 302.273605 135.744733 302.571412 136.459063 303.101437 136.985669 
C 303.631462 137.512274 304.350431 137.80816 305.1 137.80816 
z
" clip-path="url(#pe284793ef2)" style="fill: #0871b7; fill-opacity: 0.752941; stroke: #231f20; stroke-linejoin: miter"/>
   </g>
   <g id="patch_66">
    <path d="M 137.7 304.12816 
C 138.449569 304.12816 139.168538 303.832274 139.698563 303.305669 
C 140.228588 302.779063 140.526395 302.064733 140.526395 301.32 
C 140.526395 300.575267 140.228588 299.860937 139.698563 299.334331 
C 139.168538 298.807726 138.449569 298.51184 137.7 298.51184 
C 136.950431 298.51184 136.231462 298.807726 135.701437 299.334331 
C 135.171412 299.860937 134.873605 300.575267 134.873605 301.32 
C 134.873605 302.064733 135.171412 302.779063 135.701437 303.305669 
C 136.231462 303.832274 136.950431 304.12816 137.7 304.12816 
z
" clip-path="url(#pe284793ef2)" style="fill: #0871b7; fill-opacity: 0.752941; stroke: #231f20; stroke-linejoin: miter"/>
   </g>
   <g id="patch_67">
    <path d="M 333 255.510935 
C 335.570739 255.510935 338.036534 254.496159 339.854321 252.690099 
C 341.672108 250.88404 342.693473 248.434154 342.693473 245.88 
C 342.693473 243.325846 341.672108 240.87596 339.854321 239.069901 
C 338.036534 237.263841 335.570739 236.249065 333 236.249065 
C 330.429261 236.249065 327.963466 237.263841 326.145679 239.069901 
C 324.327892 240.87596 323.306527 243.325846 323.306527 245.88 
C 323.306527 248.434154 324.327892 250.88404 326.145679 252.690099 
C 327.963466 254.496159 330.429261 255.510935 333 255.510935 
z
" clip-path="url(#pe284793ef2)" style="fill: #b74e08; fill-opacity: 0.752941; stroke: #231f20; stroke-linejoin: miter"/>
   </g>
   <g id="patch_68">
    <path d="M 333 200.070935 
C 335.570739 200.070935 338.036534 199.056159 339.854321 197.250099 
C 341.672108 195.44404 342.693473 192.994154 342.693473 190.44 
C 342.693473 187.885846 341.672108 185.43596 339.854321 183.629901 
C 338.036534 181.823841 335.570739 180.809065 333 180.809065 
C 330.429261 180.809065 327.963466 181.823841 326.145679 183.629901 
C 324.327892 185.43596 323.306527 187.885846 323.306527 190.44 
C 323.306527 192.994154 324.327892 195.44404 326.145679 197.250099 
C 327.963466 199.056159 330.429261 200.070935 333 200.070935 
z
" clip-path="url(#pe284793ef2)" style="fill: #b74e08; fill-opacity: 0.752941; stroke: #231f20; stroke-linejoin: miter"/>
   </g>
   <g id="patch_69">
    <path d="M 193.5 116.910935 
C 196.070739 116.910935 198.536534 115.896159 200.354321 114.090099 
C 202.172108 112.28404 203.193473 109.834154 203.193473 107.28 
C 203.193473 104.725846 202.172108 102.27596 200.354321 100.469901 
C 198.536534 98.663841 196.070739 97.649065 193.5 97.649065 
C 190.929261 97.649065 188.463466 98.663841 186.645679 100.469901 
C 184.827892 102.27596 183.806527 104.725846 183.806527 107.28 
C 183.806527 109.834154 184.827892 112.28404 186.645679 114.090099 
C 188.463466 115.896159 190.929261 116.910935 193.5 116.910935 
z
" clip-path="url(#pe284793ef2)" style="fill: #b74e08; fill-opacity: 0.752941; stroke: #231f20; stroke-linejoin: miter"/>
   </g>
   <g id="patch_70">
    <path d="M 249.3 116.910935 
C 251.870739 116.910935 254.336534 115.896159 256.154321 114.090099 
C 257.972108 112.28404 258.993473 109.834154 258.993473 107.28 
C 258.993473 104.725846 257.972108 102.27596 256.154321 100.469901 
C 254.336534 98.663841 251.870739 97.649065 249.3 97.649065 
C 246.729261 97.649065 244.263466 98.663841 242.445679 100.469901 
C 240.627892 102.27596 239.606527 104.725846 239.606527 107.28 
C 239.606527 109.834154 240.627892 112.28404 242.445679 114.090099 
C 244.263466 115.896159 246.729261 116.910935 249.3 116.910935 
z
" clip-path="url(#pe284793ef2)" style="fill: #b74e08; fill-opacity: 0.752941; stroke: #231f20; stroke-linejoin: miter"/>
   </g>
   <g id="patch_71">
    <path d="M 193.5 338.670935 
C 196.070739 338.670935 198.536534 337.656159 200.354321 335.850099 
C 202.172108 334.04404 203.193473 331.594154 203.193473 329.04 
C 203.193473 326.485846 202.172108 324.03596 200.354321 322.229901 
C 198.536534 320.423841 196.070739 319.409065 193.5 319.409065 
C 190.929261 319.409065 188.463466 320.423841 186.645679 322.229901 
C 184.827892 324.03596 183.806527 326.485846 183.806527 329.04 
C 183.806527 331.594154 184.827892 334.04404 186.645679 335.850099 
C 188.463466 337.656159 190.929261 338.670935 193.5 338.670935 
z
" clip-path="url(#pe284793ef2)" style="fill: #b74e08; fill-opacity: 0.752941; stroke: #231f20; stroke-linejoin: miter"/>
   </g>
   <g id="patch_72">
    <path d="M 249.3 338.670935 
C 251.870739 338.670935 254.336534 337.656159 256.154321 335.850099 
C 257.972108 334.04404 258.993473 331.594154 258.993473 329.04 
C 258.993473 326.485846 257.972108 324.03596 256.154321 322.229901 
C 254.336534 320.423841 251.870739 319.409065 249.3 319.409065 
C 246.729261 319.409065 244.263466 320.423841 242.445679 322.229901 
C 240.627892 324.03596 239.606527 326.485846 239.606527 329.04 
C 239.606527 331.594154 240.627892 334.04404 242.445679 335.850099 
C 244.263466 337.656159 246.729261 338.670935 249.3 338.670935 
z
" clip-path="url(#pe284793ef2)" style="fill: #b74e08; fill-opacity: 0.752941; stroke: #231f20; stroke-linejoin: miter"/>
   </g>
   <g id="patch_73">
    <path d="M 109.8 255.510935 
C 112.370739 255.510935 114.836534 254.496159 116.654321 252.690099 
C 118.472108 250.88404 119.493473 248.434154 119.493473 245.88 
C 119.493473 243.325846 118.472108 240.87596 116.654321 239.069901 
C 114.836534 237.263841 112.370739 236.249065 109.8 236.249065 
C 107.229261 236.249065 104.763466 237.263841 102.945679 239.069901 
C 101.127892 240.87596 100.106527 243.325846 100.106527 245.88 
C 100.106527 248.434154 101.127892 250.88404 102.945679 252.690099 
C 104.763466 254.496159 107.229261 255.510935 109.8 255.510935 
z
" clip-path="url(#pe284793ef2)" style="fill: #b74e08; fill-opacity: 0.752941; stroke: #231f20; stroke-linejoin: miter"/>
   </g>
   <g id="patch_74">
    <path d="M 109.8 200.070935 
C 112.370739 200.070935 114.836534 199.056159 116.654321 197.250099 
C 118.472108 195.44404 119.493473 192.994154 119.493473 190.44 
C 119.493473 187.885846 118.472108 185.43596 116.654321 183.629901 
C 114.836534 181.823841 112.370739 180.809065 109.8 180.809065 
C 107.229261 180.809065 104.763466 181.823841 102.945679 183.629901 
C 101.127892 185.43596 100.106527 187.885846 100.106527 190.44 
C 100.106527 192.994154 101.127892 195.44404 102.945679 197.250099 
C 104.763466 199.056159 107.229261 200.070935 109.8 200.070935 
z
" clip-path="url(#pe284793ef2)" style="fill: #b74e08; fill-opacity: 0.752941; stroke: #231f20; stroke-linejoin: miter"/>
   </g>
   <g id="patch_75">
    <path d="M 221.4 341.374567 
C 224.692407 341.374567 227.850408 340.074919 230.178491 337.761856 
C 232.506574 335.448793 233.814661 332.311165 233.814661 329.04 
C 233.814661 325.768835 232.506574 322.631207 230.178491 320.318144 
C 227.850408 318.005081 224.692407 316.705433 221.4 316.705433 
C 218.107593 316.705433 214.949592 318.005081 212.621509 320.318144 
C 210.293426 322.631207 208.985339 325.768835 208.985339 329.04 
C 208.985339 332.311165 210.293426 335.448793 212.621509 337.761856 
C 214.949592 340.074919 218.107593 341.374567 221.4 341.374567 
z
" clip-path="url(#pe284793ef2)" style="fill: #0871b7; fill-opacity: 0.752941; stroke: #231f20; stroke-linejoin: miter"/>
   </g>
   <g id="patch_76">
    <path d="M 109.8 230.494567 
C 113.092407 230.494567 116.250408 229.194919 118.578491 226.881856 
C 120.906574 224.568793 122.214661 221.431165 122.214661 218.16 
C 122.214661 214.888835 120.906574 211.751207 118.578491 209.438144 
C 116.250408 207.125081 113.092407 205.825433 109.8 205.825433 
C 106.507593 205.825433 103.349592 207.125081 101.021509 209.438144 
C 98.693426 211.751207 97.385339 214.888835 97.385339 218.16 
C 97.385339 221.431165 98.693426 224.568793 101.021509 226.881856 
C 103.349592 229.194919 106.507593 230.494567 109.8 230.494567 
z
" clip-path="url(#pe284793ef2)" style="fill: #0871b7; fill-opacity: 0.752941; stroke: #231f20; stroke-linejoin: miter"/>
   </g>
   <g id="patch_77">
    <path d="M 333 230.494567 
C 336.292407 230.494567 339.450408 229.194919 341.778491 226.881856 
C 344.106574 224.568793 345.414661 221.431165 345.414661 218.16 
C 345.414661 214.888835 344.106574 211.751207 341.778491 209.438144 
C 339.450408 207.125081 336.292407 205.825433 333 205.825433 
C 329.707593 205.825433 326.549592 207.125081 324.221509 209.438144 
C 321.893426 211.751207 320.585339 214.888835 320.585339 218.16 
C 320.585339 221.431165 321.893426 224.568793 324.221509 226.881856 
C 326.549592 229.194919 329.707593 230.494567 333 230.494567 
z
" clip-path="url(#pe284793ef2)" style="fill: #0871b7; fill-opacity: 0.752941; stroke: #231f20; stroke-linejoin: miter"/>
   </g>
   <g id="patch_78">
    <path d="M 221.4 119.614567 
C 224.692407 119.614567 227.850408 118.314919 230.178491 116.001856 
C 232.506574 113.688793 233.814661 110.551165 233.814661 107.28 
C 233.814661 104.008835 232.506574 100.871207 230.178491 98.558144 
C 227.850408 96.245081 224.692407 94.945433 221.4 94.945433 
C 218.107593 94.945433 214.949592 96.245081 212.621509 98.558144 
C 210.293426 100.871207 208.985339 104.008835 208.985339 107.28 
C 208.985339 110.551165 210.293426 113.688793 212.621509 116.001856 
C 214.949592 118.314919 218.107593 119.614567 221.4 119.614567 
z
" clip-path="url(#pe284793ef2)" style="fill: #0871b7; fill-opacity: 0.752941; stroke: #231f20; stroke-linejoin: miter"/>
   </g>
   <g id="patch_79">
    <path d="M 165.6 307.973384 
C 167.375956 307.973384 169.079412 307.272341 170.335203 306.024653 
C 171.590993 304.776964 172.296588 303.084498 172.296588 301.32 
C 172.296588 299.555502 171.590993 297.863036 170.335203 296.615347 
C 169.079412 295.367659 167.375956 294.666616 165.6 294.666616 
C 163.824044 294.666616 162.120588 295.367659 160.864797 296.615347 
C 159.609007 297.863036 158.903412 299.555502 158.903412 301.32 
C 158.903412 303.084498 159.609007 304.776964 160.864797 306.024653 
C 162.120588 307.272341 163.824044 307.973384 165.6 307.973384 
z
" clip-path="url(#pe284793ef2)" style="fill: #b74e08; fill-opacity: 0.752941; stroke: #231f20; stroke-linejoin: miter"/>
   </g>
   <g id="patch_80">
    <path d="M 137.7 280.253384 
C 139.475956 280.253384 141.179412 279.552341 142.435203 278.304653 
C 143.690993 277.056964 144.396588 275.364498 144.396588 273.6 
C 144.396588 271.835502 143.690993 270.143036 142.435203 268.895347 
C 141.179412 267.647659 139.475956 266.946616 137.7 266.946616 
C 135.924044 266.946616 134.220588 267.647659 132.964797 268.895347 
C 131.709007 270.143036 131.003412 271.835502 131.003412 273.6 
C 131.003412 275.364498 131.709007 277.056964 132.964797 278.304653 
C 134.220588 279.552341 135.924044 280.253384 137.7 280.253384 
z
" clip-path="url(#pe284793ef2)" style="fill: #b74e08; fill-opacity: 0.752941; stroke: #231f20; stroke-linejoin: miter"/>
   </g>
   <g id="patch_81">
    <path d="M 305.1 169.373384 
C 306.875956 169.373384 308.579412 168.672341 309.835203 167.424653 
C 311.090993 166.176964 311.796588 164.484498 311.796588 162.72 
C 311.796588 160.955502 311.090993 159.263036 309.835203 158.015347 
C 308.579412 156.767659 306.875956 156.066616 305.1 156.066616 
C 303.324044 156.066616 301.620588 156.767659 300.364797 158.015347 
C 299.109007 159.263036 298.403412 160.955502 298.403412 162.72 
C 298.403412 164.484498 299.109007 166.176964 300.364797 167.424653 
C 301.620588 168.672341 303.324044 169.373384 305.1 169.373384 
z
" clip-path="url(#pe284793ef2)" style="fill: #b74e08; fill-opacity: 0.752941; stroke: #231f20; stroke-linejoin: miter"/>
   </g>
   <g id="patch_82">
    <path d="M 277.2 141.653384 
C 278.975956 141.653384 280.679412 140.952341 281.935203 139.704653 
C 283.190993 138.456964 283.896588 136.764498 283.896588 135 
C 283.896588 133.235502 283.190993 131.543036 281.935203 130.295347 
C 280.679412 129.047659 278.975956 128.346616 277.2 128.346616 
C 275.424044 128.346616 273.720588 129.047659 272.464797 130.295347 
C 271.209007 131.543036 270.503412 133.235502 270.503412 135 
C 270.503412 136.764498 271.209007 138.456964 272.464797 139.704653 
C 273.720588 140.952341 275.424044 141.653384 277.2 141.653384 
z
" clip-path="url(#pe284793ef2)" style="fill: #b74e08; fill-opacity: 0.752941; stroke: #231f20; stroke-linejoin: miter"/>
   </g>
   <g id="patch_83">
    <path d="M 277.2 307.973384 
C 278.975956 307.973384 280.679412 307.272341 281.935203 306.024653 
C 283.190993 304.776964 283.896588 303.084498 283.896588 301.32 
C 283.896588 299.555502 283.190993 297.863036 281.935203 296.615347 
C 280.679412 295.367659 278.975956 294.666616 277.2 294.666616 
C 275.424044 294.666616 273.720588 295.367659 272.464797 296.615347 
C 271.209007 297.863036 270.503412 299.555502 270.503412 301.32 
C 270.503412 303.084498 271.209007 304.776964 272.464797 306.024653 
C 273.720588 307.272341 275.424044 307.973384 277.2 307.973384 
z
" clip-path="url(#pe284793ef2)" style="fill: #b74e08; fill-opacity: 0.752941; stroke: #231f20; stroke-linejoin: miter"/>
   </g>
   <g id="patch_84">
    <path d="M 305.1 280.253384 
C 306.875956 280.253384 308.579412 279.552341 309.835203 278.304653 
C 311.090993 277.056964 311.796588 275.364498 311.796588 273.6 
C 311.796588 271.835502 311.090993 270.143036 309.835203 268.895347 
C 308.579412 267.647659 306.875956 266.946616 305.1 266.946616 
C 303.324044 266.946616 301.620588 267.647659 300.364797 268.895347 
C 299.109007 270.143036 298.403412 271.835502 298.403412 273.6 
C 298.403412 275.364498 299.109007 277.056964 300.364797 278.304653 
C 301.620588 279.552341 303.324044 280.253384 305.1 280.253384 
z
" clip-path="url(#pe284793ef2)" style="fill: #b74e08; fill-opacity: 0.752941; stroke: #231f20; stroke-linejoin: miter"/>
   </g>
   <g id="patch_85">
    <path d="M 137.7 169.373384 
C 139.475956 169.373384 141.179412 168.672341 142.435203 167.424653 
C 143.690993 166.176964 144.396588 164.484498 144.396588 162.72 
C 144.396588 160.955502 143.690993 159.263036 142.435203 158.015347 
C 141.179412 156.767659 139.475956 156.066616 137.7 156.066616 
C 135.924044 156.066616 134.220588 156.767659 132.964797 158.015347 
C 131.709007 159.263036 131.003412 160.955502 131.003412 162.72 
C 131.003412 164.484498 131.709007 166.176964 132.964797 167.424653 
C 134.220588 168.672341 135.924044 169.373384 137.7 169.373384 
z
" clip-path="url(#pe284793ef2)" style="fill: #b74e08; fill-opacity: 0.752941; stroke: #231f20; stroke-linejoin: miter"/>
   </g>
   <g id="patch_86">
    <path d="M 165.6 141.653384 
C 167.375956 141.653384 169.079412 140.952341 170.335203 139.704653 
C 171.590993 138.456964 172.296588 136.764498 172.296588 135 
C 172.296588 133.235502 171.590993 131.543036 170.335203 130.295347 
C 169.079412 129.047659 167.375956 128.346616 165.6 128.346616 
C 163.824044 128.346616 162.120588 129.047659 160.864797 130.295347 
C 159.609007 131.543036 158.903412 133.235502 158.903412 135 
C 158.903412 136.764498 159.609007 138.456964 160.864797 139.704653 
C 162.120588 140.952341 163.824044 141.653384 165.6 141.653384 
z
" clip-path="url(#pe284793ef2)" style="fill: #b74e08; fill-opacity: 0.752941; stroke: #231f20; stroke-linejoin: miter"/>
   </g>
   <g id="patch_87">
    <path d="M 305.1 252.387056 
C 306.836897 252.387056 308.50289 251.701432 309.731062 250.481184 
C 310.959233 249.260936 311.64931 247.605692 311.64931 245.88 
C 311.64931 244.154308 310.959233 242.499064 309.731062 241.278816 
C 308.50289 240.058568 306.836897 239.372944 305.1 239.372944 
C 303.363103 239.372944 301.69711 240.058568 300.468938 241.278816 
C 299.240767 242.499064 298.55069 244.154308 298.55069 245.88 
C 298.55069 247.605692 299.240767 249.260936 300.468938 250.481184 
C 301.69711 251.701432 303.363103 252.387056 305.1 252.387056 
z
" clip-path="url(#pe284793ef2)" style="fill: #0871b7; fill-opacity: 0.752941; stroke: #231f20; stroke-linejoin: miter"/>
   </g>
   <g id="patch_88">
    <path d="M 305.1 196.947056 
C 306.836897 196.947056 308.50289 196.261432 309.731062 195.041184 
C 310.959233 193.820936 311.64931 192.165692 311.64931 190.44 
C 311.64931 188.714308 310.959233 187.059064 309.731062 185.838816 
C 308.50289 184.618568 306.836897 183.932944 305.1 183.932944 
C 303.363103 183.932944 301.69711 184.618568 300.468938 185.838816 
C 299.240767 187.059064 298.55069 188.714308 298.55069 190.44 
C 298.55069 192.165692 299.240767 193.820936 300.468938 195.041184 
C 301.69711 196.261432 303.363103 196.947056 305.1 196.947056 
z
" clip-path="url(#pe284793ef2)" style="fill: #0871b7; fill-opacity: 0.752941; stroke: #231f20; stroke-linejoin: miter"/>
   </g>
   <g id="patch_89">
    <path d="M 193.5 141.507056 
C 195.236897 141.507056 196.90289 140.821432 198.131062 139.601184 
C 199.359233 138.380936 200.04931 136.725692 200.04931 135 
C 200.04931 133.274308 199.359233 131.619064 198.131062 130.398816 
C 196.90289 129.178568 195.236897 128.492944 193.5 128.492944 
C 191.763103 128.492944 190.09711 129.178568 188.868938 130.398816 
C 187.640767 131.619064 186.95069 133.274308 186.95069 135 
C 186.95069 136.725692 187.640767 138.380936 188.868938 139.601184 
C 190.09711 140.821432 191.763103 141.507056 193.5 141.507056 
z
" clip-path="url(#pe284793ef2)" style="fill: #0871b7; fill-opacity: 0.752941; stroke: #231f20; stroke-linejoin: miter"/>
   </g>
   <g id="patch_90">
    <path d="M 249.3 141.507056 
C 251.036897 141.507056 252.70289 140.821432 253.931062 139.601184 
C 255.159233 138.380936 255.84931 136.725692 255.84931 135 
C 255.84931 133.274308 255.159233 131.619064 253.931062 130.398816 
C 252.70289 129.178568 251.036897 128.492944 249.3 128.492944 
C 247.563103 128.492944 245.89711 129.178568 244.668938 130.398816 
C 243.440767 131.619064 242.75069 133.274308 242.75069 135 
C 242.75069 136.725692 243.440767 138.380936 244.668938 139.601184 
C 245.89711 140.821432 247.563103 141.507056 249.3 141.507056 
z
" clip-path="url(#pe284793ef2)" style="fill: #0871b7; fill-opacity: 0.752941; stroke: #231f20; stroke-linejoin: miter"/>
   </g>
   <g id="patch_91">
    <path d="M 249.3 307.827056 
C 251.036897 307.827056 252.70289 307.141432 253.931062 305.921184 
C 255.159233 304.700936 255.84931 303.045692 255.84931 301.32 
C 255.84931 299.594308 255.159233 297.939064 253.931062 296.718816 
C 252.70289 295.498568 251.036897 294.812944 249.3 294.812944 
C 247.563103 294.812944 245.89711 295.498568 244.668938 296.718816 
C 243.440767 297.939064 242.75069 299.594308 242.75069 301.32 
C 242.75069 303.045692 243.440767 304.700936 244.668938 305.921184 
C 245.89711 307.141432 247.563103 307.827056 249.3 307.827056 
z
" clip-path="url(#pe284793ef2)" style="fill: #0871b7; fill-opacity: 0.752941; stroke: #231f20; stroke-linejoin: miter"/>
   </g>
   <g id="patch_92">
    <path d="M 137.7 196.947056 
C 139.436897 196.947056 141.10289 196.261432 142.331062 195.041184 
C 143.559233 193.820936 144.24931 192.165692 144.24931 190.44 
C 144.24931 188.714308 143.559233 187.059064 142.331062 185.838816 
C 141.10289 184.618568 139.436897 183.932944 137.7 183.932944 
C 135.963103 183.932944 134.29711 184.618568 133.068938 185.838816 
C 131.840767 187.059064 131.15069 188.714308 131.15069 190.44 
C 131.15069 192.165692 131.840767 193.820936 133.068938 195.041184 
C 134.29711 196.261432 135.963103 196.947056 137.7 196.947056 
z
" clip-path="url(#pe284793ef2)" style="fill: #0871b7; fill-opacity: 0.752941; stroke: #231f20; stroke-linejoin: miter"/>
   </g>
   <g id="patch_93">
    <path d="M 193.5 307.827056 
C 195.236897 307.827056 196.90289 307.141432 198.131062 305.921184 
C 199.359233 304.700936 200.04931 303.045692 200.04931 301.32 
C 200.04931 299.594308 199.359233 297.939064 198.131062 296.718816 
C 196.90289 295.498568 195.236897 294.812944 193.5 294.812944 
C 191.763103 294.812944 190.09711 295.498568 188.868938 296.718816 
C 187.640767 297.939064 186.95069 299.594308 186.95069 301.32 
C 186.95069 303.045692 187.640767 304.700936 188.868938 305.921184 
C 190.09711 307.141432 191.763103 307.827056 193.5 307.827056 
z
" clip-path="url(#pe284793ef2)" style="fill: #0871b7; fill-opacity: 0.752941; stroke: #231f20; stroke-linejoin: miter"/>
   </g>
   <g id="patch_94">
    <path d="M 137.7 252.387056 
C 139.436897 252.387056 141.10289 251.701432 142.331062 250.481184 
C 143.559233 249.260936 144.24931 247.605692 144.24931 245.88 
C 144.24931 244.154308 143.559233 242.499064 142.331062 241.278816 
C 141.10289 240.058568 139.436897 239.372944 137.7 239.372944 
C 135.963103 239.372944 134.29711 240.058568 133.068938 241.278816 
C 131.840767 242.499064 131.15069 244.154308 131.15069 245.88 
C 131.15069 247.605692 131.840767 249.260936 133.068938 250.481184 
C 134.29711 251.701432 135.963103 252.387056 137.7 252.387056 
z
" clip-path="url(#pe284793ef2)" style="fill: #0871b7; fill-opacity: 0.752941; stroke: #231f20; stroke-linejoin: miter"/>
   </g>
   <g id="patch_95">
    <path d="M 305.1 226.493742 
C 307.324486 226.493742 309.458162 225.615646 311.03111 224.052845 
C 312.604059 222.490044 313.487857 220.370134 313.487857 218.16 
C 313.487857 215.949866 312.604059 213.829956 311.03111 212.267155 
C 309.458162 210.704354 307.324486 209.826258 305.1 209.826258 
C 302.875514 209.826258 300.741838 210.704354 299.16889 212.267155 
C 297.595941 213.829956 296.712143 215.949866 296.712143 218.16 
C 296.712143 220.370134 297.595941 222.490044 299.16889 224.052845 
C 300.741838 225.615646 302.875514 226.493742 305.1 226.493742 
z
" clip-path="url(#pe284793ef2)" style="fill: #b74e08; fill-opacity: 0.752941; stroke: #231f20; stroke-linejoin: miter"/>
   </g>
   <g id="patch_96">
    <path d="M 221.4 143.333742 
C 223.624486 143.333742 225.758162 142.455646 227.33111 140.892845 
C 228.904059 139.330044 229.787857 137.210134 229.787857 135 
C 229.787857 132.789866 228.904059 130.669956 227.33111 129.107155 
C 225.758162 127.544354 223.624486 126.666258 221.4 126.666258 
C 219.175514 126.666258 217.041838 127.544354 215.46889 129.107155 
C 213.895941 130.669956 213.012143 132.789866 213.012143 135 
C 213.012143 137.210134 213.895941 139.330044 215.46889 140.892845 
C 217.041838 142.455646 219.175514 143.333742 221.4 143.333742 
z
" clip-path="url(#pe284793ef2)" style="fill: #b74e08; fill-opacity: 0.752941; stroke: #231f20; stroke-linejoin: miter"/>
   </g>
   <g id="patch_97">
    <path d="M 221.4 309.653742 
C 223.624486 309.653742 225.758162 308.775646 227.33111 307.212845 
C 228.904059 305.650044 229.787857 303.530134 229.787857 301.32 
C 229.787857 299.109866 228.904059 296.989956 227.33111 295.427155 
C 225.758162 293.864354 223.624486 292.986258 221.4 292.986258 
C 219.175514 292.986258 217.041838 293.864354 215.46889 295.427155 
C 213.895941 296.989956 213.012143 299.109866 213.012143 301.32 
C 213.012143 303.530134 213.895941 305.650044 215.46889 307.212845 
C 217.041838 308.775646 219.175514 309.653742 221.4 309.653742 
z
" clip-path="url(#pe284793ef2)" style="fill: #b74e08; fill-opacity: 0.752941; stroke: #231f20; stroke-linejoin: miter"/>
   </g>
   <g id="patch_98">
    <path d="M 137.7 226.493742 
C 139.924486 226.493742 142.058162 225.615646 143.63111 224.052845 
C 145.204059 222.490044 146.087857 220.370134 146.087857 218.16 
C 146.087857 215.949866 145.204059 213.829956 143.63111 212.267155 
C 142.058162 210.704354 139.924486 209.826258 137.7 209.826258 
C 135.475514 209.826258 133.341838 210.704354 131.76889 212.267155 
C 130.195941 213.829956 129.312143 215.949866 129.312143 218.16 
C 129.312143 220.370134 130.195941 222.490044 131.76889 224.052845 
C 133.341838 225.615646 135.475514 226.493742 137.7 226.493742 
z
" clip-path="url(#pe284793ef2)" style="fill: #b74e08; fill-opacity: 0.752941; stroke: #231f20; stroke-linejoin: miter"/>
   </g>
   <g id="patch_99">
    <path d="M 165.6 289.363889 
C 169.807779 289.363889 173.843785 287.702906 176.819134 284.746753 
C 179.794483 281.790599 181.466252 277.780632 181.466252 273.6 
C 181.466252 269.419368 179.794483 265.409401 176.819134 262.453247 
C 173.843785 259.497094 169.807779 257.836111 165.6 257.836111 
C 161.392221 257.836111 157.356215 259.497094 154.380866 262.453247 
C 151.405517 265.409401 149.733748 269.419368 149.733748 273.6 
C 149.733748 277.780632 151.405517 281.790599 154.380866 284.746753 
C 157.356215 287.702906 161.392221 289.363889 165.6 289.363889 
z
" clip-path="url(#pe284793ef2)" style="fill: #0871b7; fill-opacity: 0.752941; stroke: #231f20; stroke-linejoin: miter"/>
   </g>
   <g id="patch_100">
    <path d="M 277.2 289.363889 
C 281.407779 289.363889 285.443785 287.702906 288.419134 284.746753 
C 291.394483 281.790599 293.066252 277.780632 293.066252 273.6 
C 293.066252 269.419368 291.394483 265.409401 288.419134 262.453247 
C 285.443785 259.497094 281.407779 257.836111 277.2 257.836111 
C 272.992221 257.836111 268.956215 259.497094 265.980866 262.453247 
C 263.005517 265.409401 261.333748 269.419368 261.333748 273.6 
C 261.333748 277.780632 263.005517 281.790599 265.980866 284.746753 
C 268.956215 287.702906 272.992221 289.363889 277.2 289.363889 
z
" clip-path="url(#pe284793ef2)" style="fill: #0871b7; fill-opacity: 0.752941; stroke: #231f20; stroke-linejoin: miter"/>
   </g>
   <g id="patch_101">
    <path d="M 165.6 178.483889 
C 169.807779 178.483889 173.843785 176.822906 176.819134 173.866753 
C 179.794483 170.910599 181.466252 166.900632 181.466252 162.72 
C 181.466252 158.539368 179.794483 154.529401 176.819134 151.573247 
C 173.843785 148.617094 169.807779 146.956111 165.6 146.956111 
C 161.392221 146.956111 157.356215 148.617094 154.380866 151.573247 
C 151.405517 154.529401 149.733748 158.539368 149.733748 162.72 
C 149.733748 166.900632 151.405517 170.910599 154.380866 173.866753 
C 157.356215 176.822906 161.392221 178.483889 165.6 178.483889 
z
" clip-path="url(#pe284793ef2)" style="fill: #0871b7; fill-opacity: 0.752941; stroke: #231f20; stroke-linejoin: miter"/>
   </g>
   <g id="patch_102">
    <path d="M 277.2 178.483889 
C 281.407779 178.483889 285.443785 176.822906 288.419134 173.866753 
C 291.394483 170.910599 293.066252 166.900632 293.066252 162.72 
C 293.066252 158.539368 291.394483 154.529401 288.419134 151.573247 
C 285.443785 148.617094 281.407779 146.956111 277.2 146.956111 
C 272.992221 146.956111 268.956215 148.617094 265.980866 151.573247 
C 263.005517 154.529401 261.333748 158.539368 261.333748 162.72 
C 261.333748 166.900632 263.005517 170.910599 265.980866 173.866753 
C 268.956215 176.822906 272.992221 178.483889 277.2 178.483889 
z
" clip-path="url(#pe284793ef2)" style="fill: #0871b7; fill-opacity: 0.752941; stroke: #231f20; stroke-linejoin: miter"/>
   </g>
   <g id="patch_103">
    <path d="M 193.5 289.017195 
C 197.615238 289.017195 201.56248 287.392742 204.472392 284.501603 
C 207.382305 281.610464 209.017306 277.688688 209.017306 273.6 
C 209.017306 269.511312 207.382305 265.589536 204.472392 262.698397 
C 201.56248 259.807258 197.615238 258.182805 193.5 258.182805 
C 189.384762 258.182805 185.43752 259.807258 182.527608 262.698397 
C 179.617695 265.589536 177.982694 269.511312 177.982694 273.6 
C 177.982694 277.688688 179.617695 281.610464 182.527608 284.501603 
C 185.43752 287.392742 189.384762 289.017195 193.5 289.017195 
z
" clip-path="url(#pe284793ef2)" style="fill: #b74e08; fill-opacity: 0.752941; stroke: #231f20; stroke-linejoin: miter"/>
   </g>
   <g id="patch_104">
    <path d="M 165.6 261.297195 
C 169.715238 261.297195 173.66248 259.672742 176.572392 256.781603 
C 179.482305 253.890464 181.117306 249.968688 181.117306 245.88 
C 181.117306 241.791312 179.482305 237.869536 176.572392 234.978397 
C 173.66248 232.087258 169.715238 230.462805 165.6 230.462805 
C 161.484762 230.462805 157.53752 232.087258 154.627608 234.978397 
C 151.717695 237.869536 150.082694 241.791312 150.082694 245.88 
C 150.082694 249.968688 151.717695 253.890464 154.627608 256.781603 
C 157.53752 259.672742 161.484762 261.297195 165.6 261.297195 
z
" clip-path="url(#pe284793ef2)" style="fill: #b74e08; fill-opacity: 0.752941; stroke: #231f20; stroke-linejoin: miter"/>
   </g>
   <g id="patch_105">
    <path d="M 249.3 289.017195 
C 253.415238 289.017195 257.36248 287.392742 260.272392 284.501603 
C 263.182305 281.610464 264.817306 277.688688 264.817306 273.6 
C 264.817306 269.511312 263.182305 265.589536 260.272392 262.698397 
C 257.36248 259.807258 253.415238 258.182805 249.3 258.182805 
C 245.184762 258.182805 241.23752 259.807258 238.327608 262.698397 
C 235.417695 265.589536 233.782694 269.511312 233.782694 273.6 
C 233.782694 277.688688 235.417695 281.610464 238.327608 284.501603 
C 241.23752 287.392742 245.184762 289.017195 249.3 289.017195 
z
" clip-path="url(#pe284793ef2)" style="fill: #b74e08; fill-opacity: 0.752941; stroke: #231f20; stroke-linejoin: miter"/>
   </g>
   <g id="patch_106">
    <path d="M 165.6 205.857195 
C 169.715238 205.857195 173.66248 204.232742 176.572392 201.341603 
C 179.482305 198.450464 181.117306 194.528688 181.117306 190.44 
C 181.117306 186.351312 179.482305 182.429536 176.572392 179.538397 
C 173.66248 176.647258 169.715238 175.022805 165.6 175.022805 
C 161.484762 175.022805 157.53752 176.647258 154.627608 179.538397 
C 151.717695 182.429536 150.082694 186.351312 150.082694 190.44 
C 150.082694 194.528688 151.717695 198.450464 154.627608 201.341603 
C 157.53752 204.232742 161.484762 205.857195 165.6 205.857195 
z
" clip-path="url(#pe284793ef2)" style="fill: #b74e08; fill-opacity: 0.752941; stroke: #231f20; stroke-linejoin: miter"/>
   </g>
   <g id="patch_107">
    <path d="M 277.2 261.297195 
C 281.315238 261.297195 285.26248 259.672742 288.172392 256.781603 
C 291.082305 253.890464 292.717306 249.968688 292.717306 245.88 
C 292.717306 241.791312 291.082305 237.869536 288.172392 234.978397 
C 285.26248 232.087258 281.315238 230.462805 277.2 230.462805 
C 273.084762 230.462805 269.13752 232.087258 266.227608 234.978397 
C 263.317695 237.869536 261.682694 241.791312 261.682694 245.88 
C 261.682694 249.968688 263.317695 253.890464 266.227608 256.781603 
C 269.13752 259.672742 273.084762 261.297195 277.2 261.297195 
z
" clip-path="url(#pe284793ef2)" style="fill: #b74e08; fill-opacity: 0.752941; stroke: #231f20; stroke-linejoin: miter"/>
   </g>
   <g id="patch_108">
    <path d="M 277.2 205.857195 
C 281.315238 205.857195 285.26248 204.232742 288.172392 201.341603 
C 291.082305 198.450464 292.717306 194.528688 292.717306 190.44 
C 292.717306 186.351312 291.082305 182.429536 288.172392 179.538397 
C 285.26248 176.647258 281.315238 175.022805 277.2 175.022805 
C 273.084762 175.022805 269.13752 176.647258 266.227608 179.538397 
C 263.317695 182.429536 261.682694 186.351312 261.682694 190.44 
C 261.682694 194.528688 263.317695 198.450464 266.227608 201.341603 
C 269.13752 204.232742 273.084762 205.857195 277.2 205.857195 
z
" clip-path="url(#pe284793ef2)" style="fill: #b74e08; fill-opacity: 0.752941; stroke: #231f20; stroke-linejoin: miter"/>
   </g>
   <g id="patch_109">
    <path d="M 193.5 178.137195 
C 197.615238 178.137195 201.56248 176.512742 204.472392 173.621603 
C 207.382305 170.730464 209.017306 166.808688 209.017306 162.72 
C 209.017306 158.631312 207.382305 154.709536 204.472392 151.818397 
C 201.56248 148.927258 197.615238 147.302805 193.5 147.302805 
C 189.384762 147.302805 185.43752 148.927258 182.527608 151.818397 
C 179.617695 154.709536 177.982694 158.631312 177.982694 162.72 
C 177.982694 166.808688 179.617695 170.730464 182.527608 173.621603 
C 185.43752 176.512742 189.384762 178.137195 193.5 178.137195 
z
" clip-path="url(#pe284793ef2)" style="fill: #b74e08; fill-opacity: 0.752941; stroke: #231f20; stroke-linejoin: miter"/>
   </g>
   <g id="patch_110">
    <path d="M 249.3 178.137195 
C 253.415238 178.137195 257.36248 176.512742 260.272392 173.621603 
C 263.182305 170.730464 264.817306 166.808688 264.817306 162.72 
C 264.817306 158.631312 263.182305 154.709536 260.272392 151.818397 
C 257.36248 148.927258 253.415238 147.302805 249.3 147.302805 
C 245.184762 147.302805 241.23752 148.927258 238.327608 151.818397 
C 235.417695 154.709536 233.782694 158.631312 233.782694 162.72 
C 233.782694 166.808688 235.417695 170.730464 238.327608 173.621603 
C 241.23752 176.512742 245.184762 178.137195 249.3 178.137195 
z
" clip-path="url(#pe284793ef2)" style="fill: #b74e08; fill-opacity: 0.752941; stroke: #231f20; stroke-linejoin: miter"/>
   </g>
   <g id="patch_111">
    <path d="M 221.4 293.345167 
C 226.670483 293.345167 231.72581 291.264692 235.452604 287.561942 
C 239.179398 283.859191 241.273382 278.83648 241.273382 273.6 
C 241.273382 268.36352 239.179398 263.340809 235.452604 259.638058 
C 231.72581 255.935308 226.670483 253.854833 221.4 253.854833 
C 216.129517 253.854833 211.07419 255.935308 207.347396 259.638058 
C 203.620602 263.340809 201.526618 268.36352 201.526618 273.6 
C 201.526618 278.83648 203.620602 283.859191 207.347396 287.561942 
C 211.07419 291.264692 216.129517 293.345167 221.4 293.345167 
z
" clip-path="url(#pe284793ef2)" style="fill: #0871b7; fill-opacity: 0.752941; stroke: #231f20; stroke-linejoin: miter"/>
   </g>
   <g id="patch_112">
    <path d="M 165.6 237.905167 
C 170.870483 237.905167 175.92581 235.824692 179.652604 232.121942 
C 183.379398 228.419191 185.473382 223.39648 185.473382 218.16 
C 185.473382 212.92352 183.379398 207.900809 179.652604 204.198058 
C 175.92581 200.495308 170.870483 198.414833 165.6 198.414833 
C 160.329517 198.414833 155.27419 200.495308 151.547396 204.198058 
C 147.820602 207.900809 145.726618 212.92352 145.726618 218.16 
C 145.726618 223.39648 147.820602 228.419191 151.547396 232.121942 
C 155.27419 235.824692 160.329517 237.905167 165.6 237.905167 
z
" clip-path="url(#pe284793ef2)" style="fill: #0871b7; fill-opacity: 0.752941; stroke: #231f20; stroke-linejoin: miter"/>
   </g>
   <g id="patch_113">
    <path d="M 277.2 237.905167 
C 282.470483 237.905167 287.52581 235.824692 291.252604 232.121942 
C 294.979398 228.419191 297.073382 223.39648 297.073382 218.16 
C 297.073382 212.92352 294.979398 207.900809 291.252604 204.198058 
C 287.52581 200.495308 282.470483 198.414833 277.2 198.414833 
C 271.929517 198.414833 266.87419 200.495308 263.147396 204.198058 
C 259.420602 207.900809 257.326618 212.92352 257.326618 218.16 
C 257.326618 223.39648 259.420602 228.419191 263.147396 232.121942 
C 266.87419 235.824692 271.929517 237.905167 277.2 237.905167 
z
" clip-path="url(#pe284793ef2)" style="fill: #0871b7; fill-opacity: 0.752941; stroke: #231f20; stroke-linejoin: miter"/>
   </g>
   <g id="patch_114">
    <path d="M 221.4 182.465167 
C 226.670483 182.465167 231.72581 180.384692 235.452604 176.681942 
C 239.179398 172.979191 241.273382 167.95648 241.273382 162.72 
C 241.273382 157.48352 239.179398 152.460809 235.452604 148.758058 
C 231.72581 145.055308 226.670483 142.974833 221.4 142.974833 
C 216.129517 142.974833 211.07419 145.055308 207.347396 148.758058 
C 203.620602 152.460809 201.526618 157.48352 201.526618 162.72 
C 201.526618 167.95648 203.620602 172.979191 207.347396 176.681942 
C 211.07419 180.384692 216.129517 182.465167 221.4 182.465167 
z
" clip-path="url(#pe284793ef2)" style="fill: #0871b7; fill-opacity: 0.752941; stroke: #231f20; stroke-linejoin: miter"/>
   </g>
   <g id="patch_115">
    <path d="M 193.5 260.958125 
C 197.524732 260.958125 201.385162 259.369399 204.231077 256.541844 
C 207.076992 253.71429 208.676035 249.878765 208.676035 245.88 
C 208.676035 241.881235 207.076992 238.04571 204.231077 235.218156 
C 201.385162 232.390601 197.524732 230.801875 193.5 230.801875 
C 189.475268 230.801875 185.614838 232.390601 182.768923 235.218156 
C 179.923008 238.04571 178.323965 241.881235 178.323965 245.88 
C 178.323965 249.878765 179.923008 253.71429 182.768923 256.541844 
C 185.614838 259.369399 189.475268 260.958125 193.5 260.958125 
z
" clip-path="url(#pe284793ef2)" style="fill: #0871b7; fill-opacity: 0.752941; stroke: #231f20; stroke-linejoin: miter"/>
   </g>
   <g id="patch_116">
    <path d="M 249.3 260.958125 
C 253.324732 260.958125 257.185162 259.369399 260.031077 256.541844 
C 262.876992 253.71429 264.476035 249.878765 264.476035 245.88 
C 264.476035 241.881235 262.876992 238.04571 260.031077 235.218156 
C 257.185162 232.390601 253.324732 230.801875 249.3 230.801875 
C 245.275268 230.801875 241.414838 232.390601 238.568923 235.218156 
C 235.723008 238.04571 234.123965 241.881235 234.123965 245.88 
C 234.123965 249.878765 235.723008 253.71429 238.568923 256.541844 
C 241.414838 259.369399 245.275268 260.958125 249.3 260.958125 
z
" clip-path="url(#pe284793ef2)" style="fill: #0871b7; fill-opacity: 0.752941; stroke: #231f20; stroke-linejoin: miter"/>
   </g>
   <g id="patch_117">
    <path d="M 193.5 205.518125 
C 197.524732 205.518125 201.385162 203.929399 204.231077 201.101844 
C 207.076992 198.27429 208.676035 194.438765 208.676035 190.44 
C 208.676035 186.441235 207.076992 182.60571 204.231077 179.778156 
C 201.385162 176.950601 197.524732 175.361875 193.5 175.361875 
C 189.475268 175.361875 185.614838 176.950601 182.768923 179.778156 
C 179.923008 182.60571 178.323965 186.441235 178.323965 190.44 
C 178.323965 194.438765 179.923008 198.27429 182.768923 201.101844 
C 185.614838 203.929399 189.475268 205.518125 193.5 205.518125 
z
" clip-path="url(#pe284793ef2)" style="fill: #0871b7; fill-opacity: 0.752941; stroke: #231f20; stroke-linejoin: miter"/>
   </g>
   <g id="patch_118">
    <path d="M 249.3 205.518125 
C 253.324732 205.518125 257.185162 203.929399 260.031077 201.101844 
C 262.876992 198.27429 264.476035 194.438765 264.476035 190.44 
C 264.476035 186.441235 262.876992 182.60571 260.031077 179.778156 
C 257.185162 176.950601 253.324732 175.361875 249.3 175.361875 
C 245.275268 175.361875 241.414838 176.950601 238.568923 179.778156 
C 235.723008 182.60571 234.123965 186.441235 234.123965 190.44 
C 234.123965 194.438765 235.723008 198.27429 238.568923 201.101844 
C 241.414838 203.929399 245.275268 205.518125 249.3 205.518125 
z
" clip-path="url(#pe284793ef2)" style="fill: #0871b7; fill-opacity: 0.752941; stroke: #231f20; stroke-linejoin: miter"/>
   </g>
   <g id="patch_119">
    <path d="M 221.4 265.190913 
C 226.554569 265.190913 231.498715 263.156193 235.143545 259.534877 
C 238.788376 255.913562 240.836308 251.001314 240.836308 245.88 
C 240.836308 240.758686 238.788376 235.846438 235.143545 232.225123 
C 231.498715 228.603807 226.554569 226.569087 221.4 226.569087 
C 216.245431 226.569087 211.301285 228.603807 207.656455 232.225123 
C 204.011624 235.846438 201.963692 240.758686 201.963692 245.88 
C 201.963692 251.001314 204.011624 255.913562 207.656455 259.534877 
C 211.301285 263.156193 216.245431 265.190913 221.4 265.190913 
z
" clip-path="url(#pe284793ef2)" style="fill: #b74e08; fill-opacity: 0.752941; stroke: #231f20; stroke-linejoin: miter"/>
   </g>
   <g id="patch_120">
    <path d="M 193.5 237.470913 
C 198.654569 237.470913 203.598715 235.436193 207.243545 231.814877 
C 210.888376 228.193562 212.936308 223.281314 212.936308 218.16 
C 212.936308 213.038686 210.888376 208.126438 207.243545 204.505123 
C 203.598715 200.883807 198.654569 198.849087 193.5 198.849087 
C 188.345431 198.849087 183.401285 200.883807 179.756455 204.505123 
C 176.111624 208.126438 174.063692 213.038686 174.063692 218.16 
C 174.063692 223.281314 176.111624 228.193562 179.756455 231.814877 
C 183.401285 235.436193 188.345431 237.470913 193.5 237.470913 
z
" clip-path="url(#pe284793ef2)" style="fill: #b74e08; fill-opacity: 0.752941; stroke: #231f20; stroke-linejoin: miter"/>
   </g>
   <g id="patch_121">
    <path d="M 249.3 237.470913 
C 254.454569 237.470913 259.398715 235.436193 263.043545 231.814877 
C 266.688376 228.193562 268.736308 223.281314 268.736308 218.16 
C 268.736308 213.038686 266.688376 208.126438 263.043545 204.505123 
C 259.398715 200.883807 254.454569 198.849087 249.3 198.849087 
C 244.145431 198.849087 239.201285 200.883807 235.556455 204.505123 
C 231.911624 208.126438 229.863692 213.038686 229.863692 218.16 
C 229.863692 223.281314 231.911624 228.193562 235.556455 231.814877 
C 239.201285 235.436193 244.145431 237.470913 249.3 237.470913 
z
" clip-path="url(#pe284793ef2)" style="fill: #b74e08; fill-opacity: 0.752941; stroke: #231f20; stroke-linejoin: miter"/>
   </g>
   <g id="patch_122">
    <path d="M 221.4 209.750913 
C 226.554569 209.750913 231.498715 207.716193 235.143545 204.094877 
C 238.788376 200.473562 240.836308 195.561314 240.836308 190.44 
C 240.836308 185.318686 238.788376 180.406438 235.143545 176.785123 
C 231.498715 173.163807 226.554569 171.129087 221.4 171.129087 
C 216.245431 171.129087 211.301285 173.163807 207.656455 176.785123 
C 204.011624 180.406438 201.963692 185.318686 201.963692 190.44 
C 201.963692 195.561314 204.011624 200.473562 207.656455 204.094877 
C 211.301285 207.716193 216.245431 209.750913 221.4 209.750913 
z
" clip-path="url(#pe284793ef2)" style="fill: #b74e08; fill-opacity: 0.752941; stroke: #231f20; stroke-linejoin: miter"/>
   </g>
   <g id="patch_123">
    <path d="M 221.4 242.891944 
C 228.001579 242.891944 234.333663 240.286031 239.001685 235.648126 
C 243.669706 231.01022 246.292541 224.718988 246.292541 218.16 
C 246.292541 211.601012 243.669706 205.30978 239.001685 200.671874 
C 234.333663 196.033969 228.001579 193.428056 221.4 193.428056 
C 214.798421 193.428056 208.466337 196.033969 203.798315 200.671874 
C 199.130294 205.30978 196.507459 211.601012 196.507459 218.16 
C 196.507459 224.718988 199.130294 231.01022 203.798315 235.648126 
C 208.466337 240.286031 214.798421 242.891944 221.4 242.891944 
z
" clip-path="url(#pe284793ef2)" style="fill: #0871b7; fill-opacity: 0.752941; stroke: #231f20; stroke-linejoin: miter"/>
   </g>
  </g>
 </g>
 <defs>
  <clipPath id="pe284793ef2">
   <rect x="54" y="51.84" width="334.8" height="332.64"/>
  </clipPath>
 </defs>
</svg>
