<?xml version="1.0" encoding="utf-8" standalone="no"?>
<!DOCTYPE svg PUBLIC "-//W3C//DTD SVG 1.1//EN"
  "http://www.w3.org/Graphics/SVG/1.1/DTD/svg11.dtd">
<svg xmlns:xlink="http://www.w3.org/1999/xlink" width="432pt" height="432pt" viewBox="0 0 432 432" xmlns="http://www.w3.org/2000/svg" version="1.1">
 <metadata>
  <rdf:RDF xmlns:dc="http://purl.org/dc/elements/1.1/" xmlns:cc="http://creativecommons.org/ns#" xmlns:rdf="http://www.w3.org/1999/02/22-rdf-syntax-ns#">
   <cc:Work>
    <dc:type rdf:resource="http://purl.org/dc/dcmitype/StillImage"/>
    <dc:date>2025-03-02T17:55:06.427730</dc:date>
    <dc:format>image/svg+xml</dc:format>
    <dc:creator>
     <cc:Agent>
      <dc:title>Matplotlib v3.10.0, https://matplotlib.org/</dc:title>
     </cc:Agent>
    </dc:creator>
   </cc:Work>
  </rdf:RDF>
 </metadata>
 <defs>
  <style type="text/css">*{stroke-linejoin: round; stroke-linecap: butt}</style>
 </defs>
 <g id="figure_1">
  <g id="patch_1">
   <path d="M 0 432 
L 432 432 
L 432 0 
L 0 0 
z
" style="fill: #ffffff"/>
  </g>
  <g id="axes_1">
   <g id="patch_2">
    <path d="M 81.9 356.76 
L 360.9 356.76 
L 360.9 79.56 
L 81.9 79.56 
L 81.9 356.76 
z
" clip-path="url(#pe3a2b07e72)" style="fill: none; stroke: #969696; stroke-width: 1.5; stroke-linejoin: miter"/>
   </g>
   <g id="patch_3">
    <path d="M 314.4 323.55375 
C 317.868359 323.55375 321.19513 322.184647 323.647631 319.747969 
C 326.100131 317.311291 327.478125 314.005983 327.478125 310.56 
C 327.478125 307.114017 326.100131 303.808709 323.647631 301.372031 
C 321.19513 298.935353 317.868359 297.56625 314.4 297.56625 
C 310.931641 297.56625 307.60487 298.935353 305.152369 301.372031 
C 302.699869 303.808709 301.321875 307.114017 301.321875 310.56 
C 301.321875 314.005983 302.699869 317.311291 305.152369 319.747969 
C 307.60487 322.184647 310.931641 323.55375 314.4 323.55375 
z
" clip-path="url(#pe3a2b07e72)" style="fill: #0871b7; fill-opacity: 0.752941; stroke: #231f20; stroke-linejoin: miter"/>
   </g>
   <g id="patch_4">
    <path d="M 128.4 138.75375 
C 131.868359 138.75375 135.19513 137.384647 137.647631 134.947969 
C 140.100131 132.511291 141.478125 129.205983 141.478125 125.76 
C 141.478125 122.314017 140.100131 119.008709 137.647631 116.572031 
C 135.19513 114.135353 131.868359 112.76625 128.4 112.76625 
C 124.931641 112.76625 121.60487 114.135353 119.152369 116.572031 
C 116.699869 119.008709 115.321875 122.314017 115.321875 125.76 
C 115.321875 129.205983 116.699869 132.511291 119.152369 134.947969 
C 121.60487 137.384647 124.931641 138.75375 128.4 138.75375 
z
" clip-path="url(#pe3a2b07e72)" style="fill: #0871b7; fill-opacity: 0.752941; stroke: #231f20; stroke-linejoin: miter"/>
   </g>
   <g id="patch_5">
    <path d="M 314.4 138.75375 
C 317.868359 138.75375 321.19513 137.384647 323.647631 134.947969 
C 326.100131 132.511291 327.478125 129.205983 327.478125 125.76 
C 327.478125 122.314017 326.100131 119.008709 323.647631 116.572031 
C 321.19513 114.135353 317.868359 112.76625 314.4 112.76625 
C 310.931641 112.76625 307.60487 114.135353 305.152369 116.572031 
C 302.699869 119.008709 301.321875 122.314017 301.321875 125.76 
C 301.321875 129.205983 302.699869 132.511291 305.152369 134.947969 
C 307.60487 137.384647 310.931641 138.75375 314.4 138.75375 
z
" clip-path="url(#pe3a2b07e72)" style="fill: #0871b7; fill-opacity: 0.752941; stroke: #231f20; stroke-linejoin: miter"/>
   </g>
   <g id="patch_6">
    <path d="M 128.4 323.55375 
C 131.868359 323.55375 135.19513 322.184647 137.647631 319.747969 
C 140.100131 317.311291 141.478125 314.005983 141.478125 310.56 
C 141.478125 307.114017 140.100131 303.808709 137.647631 301.372031 
C 135.19513 298.935353 131.868359 297.56625 128.4 297.56625 
C 124.931641 297.56625 121.60487 298.935353 119.152369 301.372031 
C 116.699869 303.808709 115.321875 307.114017 115.321875 310.56 
C 115.321875 314.005983 116.699869 317.311291 119.152369 319.747969 
C 121.60487 322.184647 124.931641 323.55375 128.4 323.55375 
z
" clip-path="url(#pe3a2b07e72)" style="fill: #0871b7; fill-opacity: 0.752941; stroke: #231f20; stroke-linejoin: miter"/>
   </g>
   <g id="patch_7">
    <path d="M 221.4 321.169352 
C 224.231904 321.169352 226.948201 320.051484 228.950659 318.061945 
C 230.953117 316.072406 232.078244 313.373633 232.078244 310.56 
C 232.078244 307.746367 230.953117 305.047594 228.950659 303.058055 
C 226.948201 301.068516 224.231904 299.950648 221.4 299.950648 
C 218.568096 299.950648 215.851799 301.068516 213.849341 303.058055 
C 211.846883 305.047594 210.721756 307.746367 210.721756 310.56 
C 210.721756 313.373633 211.846883 316.072406 213.849341 318.061945 
C 215.851799 320.051484 218.568096 321.169352 221.4 321.169352 
z
" clip-path="url(#pe3a2b07e72)" style="fill: #0871b7; fill-opacity: 0.752941; stroke: #231f20; stroke-linejoin: miter"/>
   </g>
   <g id="patch_8">
    <path d="M 128.4 228.769352 
C 131.231904 228.769352 133.948201 227.651484 135.950659 225.661945 
C 137.953117 223.672406 139.078244 220.973633 139.078244 218.16 
C 139.078244 215.346367 137.953117 212.647594 135.950659 210.658055 
C 133.948201 208.668516 131.231904 207.550648 128.4 207.550648 
C 125.568096 207.550648 122.851799 208.668516 120.849341 210.658055 
C 118.846883 212.647594 117.721756 215.346367 117.721756 218.16 
C 117.721756 220.973633 118.846883 223.672406 120.849341 225.661945 
C 122.851799 227.651484 125.568096 228.769352 128.4 228.769352 
z
" clip-path="url(#pe3a2b07e72)" style="fill: #0871b7; fill-opacity: 0.752941; stroke: #231f20; stroke-linejoin: miter"/>
   </g>
   <g id="patch_9">
    <path d="M 314.4 228.769352 
C 317.231904 228.769352 319.948201 227.651484 321.950659 225.661945 
C 323.953117 223.672406 325.078244 220.973633 325.078244 218.16 
C 325.078244 215.346367 323.953117 212.647594 321.950659 210.658055 
C 319.948201 208.668516 317.231904 207.550648 314.4 207.550648 
C 311.568096 207.550648 308.851799 208.668516 306.849341 210.658055 
C 304.846883 212.647594 303.721756 215.346367 303.721756 218.16 
C 303.721756 220.973633 304.846883 223.672406 306.849341 225.661945 
C 308.851799 227.651484 311.568096 228.769352 314.4 228.769352 
z
" clip-path="url(#pe3a2b07e72)" style="fill: #0871b7; fill-opacity: 0.752941; stroke: #231f20; stroke-linejoin: miter"/>
   </g>
   <g id="patch_10">
    <path d="M 221.4 136.369352 
C 224.231904 136.369352 226.948201 135.251484 228.950659 133.261945 
C 230.953117 131.272406 232.078244 128.573633 232.078244 125.76 
C 232.078244 122.946367 230.953117 120.247594 228.950659 118.258055 
C 226.948201 116.268516 224.231904 115.150648 221.4 115.150648 
C 218.568096 115.150648 215.851799 116.268516 213.849341 118.258055 
C 211.846883 120.247594 210.721756 122.946367 210.721756 125.76 
C 210.721756 128.573633 211.846883 131.272406 213.849341 133.261945 
C 215.851799 135.251484 218.568096 136.369352 221.4 136.369352 
z
" clip-path="url(#pe3a2b07e72)" style="fill: #0871b7; fill-opacity: 0.752941; stroke: #231f20; stroke-linejoin: miter"/>
   </g>
   <g id="patch_11">
    <path d="M 221.4 226.8225 
C 223.71224 226.8225 225.930087 225.909764 227.565087 224.285312 
C 229.200087 222.660861 230.11875 220.457322 230.11875 218.16 
C 230.11875 215.862678 229.200087 213.659139 227.565087 212.034688 
C 225.930087 210.410236 223.71224 209.4975 221.4 209.4975 
C 219.08776 209.4975 216.869913 210.410236 215.234913 212.034688 
C 213.599913 213.659139 212.68125 215.862678 212.68125 218.16 
C 212.68125 220.457322 213.599913 222.660861 215.234913 224.285312 
C 216.869913 225.909764 219.08776 226.8225 221.4 226.8225 
z
" clip-path="url(#pe3a2b07e72)" style="fill: #0871b7; fill-opacity: 0.752941; stroke: #231f20; stroke-linejoin: miter"/>
   </g>
  </g>
 </g>
 <defs>
  <clipPath id="pe3a2b07e72">
   <rect x="54" y="51.84" width="334.8" height="332.64"/>
  </clipPath>
 </defs>
</svg>
