<?xml version="1.0" encoding="utf-8" standalone="no"?>
<!DOCTYPE svg PUBLIC "-//W3C//DTD SVG 1.1//EN"
  "http://www.w3.org/Graphics/SVG/1.1/DTD/svg11.dtd">
<svg xmlns:xlink="http://www.w3.org/1999/xlink" width="432pt" height="432pt" viewBox="0 0 432 432" xmlns="http://www.w3.org/2000/svg" version="1.1">
 <metadata>
  <rdf:RDF xmlns:dc="http://purl.org/dc/elements/1.1/" xmlns:cc="http://creativecommons.org/ns#" xmlns:rdf="http://www.w3.org/1999/02/22-rdf-syntax-ns#">
   <cc:Work>
    <dc:type rdf:resource="http://purl.org/dc/dcmitype/StillImage"/>
    <dc:date>2025-03-02T17:55:07.209856</dc:date>
    <dc:format>image/svg+xml</dc:format>
    <dc:creator>
     <cc:Agent>
      <dc:title>Matplotlib v3.10.0, https://matplotlib.org/</dc:title>
     </cc:Agent>
    </dc:creator>
   </cc:Work>
  </rdf:RDF>
 </metadata>
 <defs>
  <style type="text/css">*{stroke-linejoin: round; stroke-linecap: butt}</style>
 </defs>
 <g id="figure_1">
  <g id="patch_1">
   <path d="M 0 432 
L 432 432 
L 432 0 
L 0 0 
z
" style="fill: #ffffff"/>
  </g>
  <g id="axes_1">
   <g id="patch_2">
    <path d="M 81.9 356.76 
L 360.9 356.76 
L 360.9 79.56 
L 81.9 79.56 
L 81.9 356.76 
z
" clip-path="url(#p26e231b036)" style="fill: none; stroke: #969696; stroke-width: 1.5; stroke-linejoin: miter"/>
   </g>
   <g id="patch_3">
    <path d="M 81.9 359.455 
C 82.619363 359.455 83.30936 359.171038 83.818027 358.665653 
C 84.326694 358.160268 84.6125 357.474722 84.6125 356.76 
C 84.6125 356.045278 84.326694 355.359732 83.818027 354.854347 
C 83.30936 354.348962 82.619363 354.065 81.9 354.065 
C 81.180637 354.065 80.49064 354.348962 79.981973 354.854347 
C 79.473306 355.359732 79.1875 356.045278 79.1875 356.76 
C 79.1875 357.474722 79.473306 358.160268 79.981973 358.665653 
C 80.49064 359.171038 81.180637 359.455 81.9 359.455 
z
" clip-path="url(#p26e231b036)" style="fill: #0871b7; fill-opacity: 0.752941; stroke: #231f20; stroke-linejoin: miter"/>
   </g>
   <g id="patch_4">
    <path d="M 360.9 359.455 
C 361.619363 359.455 362.30936 359.171038 362.818027 358.665653 
C 363.326694 358.160268 363.6125 357.474722 363.6125 356.76 
C 363.6125 356.045278 363.326694 355.359732 362.818027 354.854347 
C 362.30936 354.348962 361.619363 354.065 360.9 354.065 
C 360.180637 354.065 359.49064 354.348962 358.981973 354.854347 
C 358.473306 355.359732 358.1875 356.045278 358.1875 356.76 
C 358.1875 357.474722 358.473306 358.160268 358.981973 358.665653 
C 359.49064 359.171038 360.180637 359.455 360.9 359.455 
z
" clip-path="url(#p26e231b036)" style="fill: #0871b7; fill-opacity: 0.752941; stroke: #231f20; stroke-linejoin: miter"/>
   </g>
   <g id="patch_5">
    <path d="M 81.9 82.255 
C 82.619363 82.255 83.30936 81.971038 83.818027 81.465653 
C 84.326694 80.960268 84.6125 80.274722 84.6125 79.56 
C 84.6125 78.845278 84.326694 78.159732 83.818027 77.654347 
C 83.30936 77.148962 82.619363 76.865 81.9 76.865 
C 81.180637 76.865 80.49064 77.148962 79.981973 77.654347 
C 79.473306 78.159732 79.1875 78.845278 79.1875 79.56 
C 79.1875 80.274722 79.473306 80.960268 79.981973 81.465653 
C 80.49064 81.971038 81.180637 82.255 81.9 82.255 
z
" clip-path="url(#p26e231b036)" style="fill: #0871b7; fill-opacity: 0.752941; stroke: #231f20; stroke-linejoin: miter"/>
   </g>
   <g id="patch_6">
    <path d="M 360.9 82.255 
C 361.619363 82.255 362.30936 81.971038 362.818027 81.465653 
C 363.326694 80.960268 363.6125 80.274722 363.6125 79.56 
C 363.6125 78.845278 363.326694 78.159732 362.818027 77.654347 
C 362.30936 77.148962 361.619363 76.865 360.9 76.865 
C 360.180637 76.865 359.49064 77.148962 358.981973 77.654347 
C 358.473306 78.159732 358.1875 78.845278 358.1875 79.56 
C 358.1875 80.274722 358.473306 80.960268 358.981973 81.465653 
C 359.49064 81.971038 360.180637 82.255 360.9 82.255 
z
" clip-path="url(#p26e231b036)" style="fill: #0871b7; fill-opacity: 0.752941; stroke: #231f20; stroke-linejoin: miter"/>
   </g>
   <g id="patch_7">
    <path d="M 151.65 362.522152 
C 153.188064 362.522152 154.663339 361.915016 155.750915 360.834457 
C 156.83849 359.753898 157.449569 358.288141 157.449569 356.76 
C 157.449569 355.231859 156.83849 353.766102 155.750915 352.685543 
C 154.663339 351.604984 153.188064 350.997848 151.65 350.997848 
C 150.111936 350.997848 148.636661 351.604984 147.549085 352.685543 
C 146.46151 353.766102 145.850431 355.231859 145.850431 356.76 
C 145.850431 358.288141 146.46151 359.753898 147.549085 360.834457 
C 148.636661 361.915016 150.111936 362.522152 151.65 362.522152 
z
" clip-path="url(#p26e231b036)" style="fill: #0871b7; fill-opacity: 0.752941; stroke: #231f20; stroke-linejoin: miter"/>
   </g>
   <g id="patch_8">
    <path d="M 291.15 362.522152 
C 292.688064 362.522152 294.163339 361.915016 295.250915 360.834457 
C 296.33849 359.753898 296.949569 358.288141 296.949569 356.76 
C 296.949569 355.231859 296.33849 353.766102 295.250915 352.685543 
C 294.163339 351.604984 292.688064 350.997848 291.15 350.997848 
C 289.611936 350.997848 288.136661 351.604984 287.049085 352.685543 
C 285.96151 353.766102 285.350431 355.231859 285.350431 356.76 
C 285.350431 358.288141 285.96151 359.753898 287.049085 360.834457 
C 288.136661 361.915016 289.611936 362.522152 291.15 362.522152 
z
" clip-path="url(#p26e231b036)" style="fill: #0871b7; fill-opacity: 0.752941; stroke: #231f20; stroke-linejoin: miter"/>
   </g>
   <g id="patch_9">
    <path d="M 81.9 293.222152 
C 83.438064 293.222152 84.913339 292.615016 86.000915 291.534457 
C 87.08849 290.453898 87.699569 288.988141 87.699569 287.46 
C 87.699569 285.931859 87.08849 284.466102 86.000915 283.385543 
C 84.913339 282.304984 83.438064 281.697848 81.9 281.697848 
C 80.361936 281.697848 78.886661 282.304984 77.799085 283.385543 
C 76.71151 284.466102 76.100431 285.931859 76.100431 287.46 
C 76.100431 288.988141 76.71151 290.453898 77.799085 291.534457 
C 78.886661 292.615016 80.361936 293.222152 81.9 293.222152 
z
" clip-path="url(#p26e231b036)" style="fill: #0871b7; fill-opacity: 0.752941; stroke: #231f20; stroke-linejoin: miter"/>
   </g>
   <g id="patch_10">
    <path d="M 360.9 293.222152 
C 362.438064 293.222152 363.913339 292.615016 365.000915 291.534457 
C 366.08849 290.453898 366.699569 288.988141 366.699569 287.46 
C 366.699569 285.931859 366.08849 284.466102 365.000915 283.385543 
C 363.913339 282.304984 362.438064 281.697848 360.9 281.697848 
C 359.361936 281.697848 357.886661 282.304984 356.799085 283.385543 
C 355.71151 284.466102 355.100431 285.931859 355.100431 287.46 
C 355.100431 288.988141 355.71151 290.453898 356.799085 291.534457 
C 357.886661 292.615016 359.361936 293.222152 360.9 293.222152 
z
" clip-path="url(#p26e231b036)" style="fill: #0871b7; fill-opacity: 0.752941; stroke: #231f20; stroke-linejoin: miter"/>
   </g>
   <g id="patch_11">
    <path d="M 81.9 154.622152 
C 83.438064 154.622152 84.913339 154.015016 86.000915 152.934457 
C 87.08849 151.853898 87.699569 150.388141 87.699569 148.86 
C 87.699569 147.331859 87.08849 145.866102 86.000915 144.785543 
C 84.913339 143.704984 83.438064 143.097848 81.9 143.097848 
C 80.361936 143.097848 78.886661 143.704984 77.799085 144.785543 
C 76.71151 145.866102 76.100431 147.331859 76.100431 148.86 
C 76.100431 150.388141 76.71151 151.853898 77.799085 152.934457 
C 78.886661 154.015016 80.361936 154.622152 81.9 154.622152 
z
" clip-path="url(#p26e231b036)" style="fill: #0871b7; fill-opacity: 0.752941; stroke: #231f20; stroke-linejoin: miter"/>
   </g>
   <g id="patch_12">
    <path d="M 360.9 154.622152 
C 362.438064 154.622152 363.913339 154.015016 365.000915 152.934457 
C 366.08849 151.853898 366.699569 150.388141 366.699569 148.86 
C 366.699569 147.331859 366.08849 145.866102 365.000915 144.785543 
C 363.913339 143.704984 362.438064 143.097848 360.9 143.097848 
C 359.361936 143.097848 357.886661 143.704984 356.799085 144.785543 
C 355.71151 145.866102 355.100431 147.331859 355.100431 148.86 
C 355.100431 150.388141 355.71151 151.853898 356.799085 152.934457 
C 357.886661 154.015016 359.361936 154.622152 360.9 154.622152 
z
" clip-path="url(#p26e231b036)" style="fill: #0871b7; fill-opacity: 0.752941; stroke: #231f20; stroke-linejoin: miter"/>
   </g>
   <g id="patch_13">
    <path d="M 151.65 85.322152 
C 153.188064 85.322152 154.663339 84.715016 155.750915 83.634457 
C 156.83849 82.553898 157.449569 81.088141 157.449569 79.56 
C 157.449569 78.031859 156.83849 76.566102 155.750915 75.485543 
C 154.663339 74.404984 153.188064 73.797848 151.65 73.797848 
C 150.111936 73.797848 148.636661 74.404984 147.549085 75.485543 
C 146.46151 76.566102 145.850431 78.031859 145.850431 79.56 
C 145.850431 81.088141 146.46151 82.553898 147.549085 83.634457 
C 148.636661 84.715016 150.111936 85.322152 151.65 85.322152 
z
" clip-path="url(#p26e231b036)" style="fill: #0871b7; fill-opacity: 0.752941; stroke: #231f20; stroke-linejoin: miter"/>
   </g>
   <g id="patch_14">
    <path d="M 291.15 85.322152 
C 292.688064 85.322152 294.163339 84.715016 295.250915 83.634457 
C 296.33849 82.553898 296.949569 81.088141 296.949569 79.56 
C 296.949569 78.031859 296.33849 76.566102 295.250915 75.485543 
C 294.163339 74.404984 292.688064 73.797848 291.15 73.797848 
C 289.611936 73.797848 288.136661 74.404984 287.049085 75.485543 
C 285.96151 76.566102 285.350431 78.031859 285.350431 79.56 
C 285.350431 81.088141 285.96151 82.553898 287.049085 83.634457 
C 288.136661 84.715016 289.611936 85.322152 291.15 85.322152 
z
" clip-path="url(#p26e231b036)" style="fill: #0871b7; fill-opacity: 0.752941; stroke: #231f20; stroke-linejoin: miter"/>
   </g>
   <g id="patch_15">
    <path d="M 221.4 360.288583 
C 222.341868 360.288583 223.245286 359.916789 223.911287 359.255085 
C 224.577288 358.593381 224.951496 357.695791 224.951496 356.76 
C 224.951496 355.824209 224.577288 354.926619 223.911287 354.264915 
C 223.245286 353.603211 222.341868 353.231417 221.4 353.231417 
C 220.458132 353.231417 219.554714 353.603211 218.888713 354.264915 
C 218.222712 354.926619 217.848504 355.824209 217.848504 356.76 
C 217.848504 357.695791 218.222712 358.593381 218.888713 359.255085 
C 219.554714 359.916789 220.458132 360.288583 221.4 360.288583 
z
" clip-path="url(#p26e231b036)" style="fill: #0871b7; fill-opacity: 0.752941; stroke: #231f20; stroke-linejoin: miter"/>
   </g>
   <g id="patch_16">
    <path d="M 81.9 221.688583 
C 82.841868 221.688583 83.745286 221.316789 84.411287 220.655085 
C 85.077288 219.993381 85.451496 219.095791 85.451496 218.16 
C 85.451496 217.224209 85.077288 216.326619 84.411287 215.664915 
C 83.745286 215.003211 82.841868 214.631417 81.9 214.631417 
C 80.958132 214.631417 80.054714 215.003211 79.388713 215.664915 
C 78.722712 216.326619 78.348504 217.224209 78.348504 218.16 
C 78.348504 219.095791 78.722712 219.993381 79.388713 220.655085 
C 80.054714 221.316789 80.958132 221.688583 81.9 221.688583 
z
" clip-path="url(#p26e231b036)" style="fill: #0871b7; fill-opacity: 0.752941; stroke: #231f20; stroke-linejoin: miter"/>
   </g>
   <g id="patch_17">
    <path d="M 360.9 221.688583 
C 361.841868 221.688583 362.745286 221.316789 363.411287 220.655085 
C 364.077288 219.993381 364.451496 219.095791 364.451496 218.16 
C 364.451496 217.224209 364.077288 216.326619 363.411287 215.664915 
C 362.745286 215.003211 361.841868 214.631417 360.9 214.631417 
C 359.958132 214.631417 359.054714 215.003211 358.388713 215.664915 
C 357.722712 216.326619 357.348504 217.224209 357.348504 218.16 
C 357.348504 219.095791 357.722712 219.993381 358.388713 220.655085 
C 359.054714 221.316789 359.958132 221.688583 360.9 221.688583 
z
" clip-path="url(#p26e231b036)" style="fill: #0871b7; fill-opacity: 0.752941; stroke: #231f20; stroke-linejoin: miter"/>
   </g>
   <g id="patch_18">
    <path d="M 221.4 83.088583 
C 222.341868 83.088583 223.245286 82.716789 223.911287 82.055085 
C 224.577288 81.393381 224.951496 80.495791 224.951496 79.56 
C 224.951496 78.624209 224.577288 77.726619 223.911287 77.064915 
C 223.245286 76.403211 222.341868 76.031417 221.4 76.031417 
C 220.458132 76.031417 219.554714 76.403211 218.888713 77.064915 
C 218.222712 77.726619 217.848504 78.624209 217.848504 79.56 
C 217.848504 80.495791 218.222712 81.393381 218.888713 82.055085 
C 219.554714 82.716789 220.458132 83.088583 221.4 83.088583 
z
" clip-path="url(#p26e231b036)" style="fill: #0871b7; fill-opacity: 0.752941; stroke: #231f20; stroke-linejoin: miter"/>
   </g>
   <g id="patch_19">
    <path d="M 151.65 299.78 
C 154.938518 299.78 158.09279 298.481887 160.418124 296.171556 
C 162.743458 293.861224 164.05 290.727302 164.05 287.46 
C 164.05 284.192698 162.743458 281.058776 160.418124 278.748444 
C 158.09279 276.438113 154.938518 275.14 151.65 275.14 
C 148.361482 275.14 145.20721 276.438113 142.881876 278.748444 
C 140.556542 281.058776 139.25 284.192698 139.25 287.46 
C 139.25 290.727302 140.556542 293.861224 142.881876 296.171556 
C 145.20721 298.481887 148.361482 299.78 151.65 299.78 
z
" clip-path="url(#p26e231b036)" style="fill: #0871b7; fill-opacity: 0.752941; stroke: #231f20; stroke-linejoin: miter"/>
   </g>
   <g id="patch_20">
    <path d="M 291.15 299.78 
C 294.438518 299.78 297.59279 298.481887 299.918124 296.171556 
C 302.243458 293.861224 303.55 290.727302 303.55 287.46 
C 303.55 284.192698 302.243458 281.058776 299.918124 278.748444 
C 297.59279 276.438113 294.438518 275.14 291.15 275.14 
C 287.861482 275.14 284.70721 276.438113 282.381876 278.748444 
C 280.056542 281.058776 278.75 284.192698 278.75 287.46 
C 278.75 290.727302 280.056542 293.861224 282.381876 296.171556 
C 284.70721 298.481887 287.861482 299.78 291.15 299.78 
z
" clip-path="url(#p26e231b036)" style="fill: #0871b7; fill-opacity: 0.752941; stroke: #231f20; stroke-linejoin: miter"/>
   </g>
   <g id="patch_21">
    <path d="M 151.65 161.18 
C 154.938518 161.18 158.09279 159.881887 160.418124 157.571556 
C 162.743458 155.261224 164.05 152.127302 164.05 148.86 
C 164.05 145.592698 162.743458 142.458776 160.418124 140.148444 
C 158.09279 137.838113 154.938518 136.54 151.65 136.54 
C 148.361482 136.54 145.20721 137.838113 142.881876 140.148444 
C 140.556542 142.458776 139.25 145.592698 139.25 148.86 
C 139.25 152.127302 140.556542 155.261224 142.881876 157.571556 
C 145.20721 159.881887 148.361482 161.18 151.65 161.18 
z
" clip-path="url(#p26e231b036)" style="fill: #0871b7; fill-opacity: 0.752941; stroke: #231f20; stroke-linejoin: miter"/>
   </g>
   <g id="patch_22">
    <path d="M 291.15 161.18 
C 294.438518 161.18 297.59279 159.881887 299.918124 157.571556 
C 302.243458 155.261224 303.55 152.127302 303.55 148.86 
C 303.55 145.592698 302.243458 142.458776 299.918124 140.148444 
C 297.59279 137.838113 294.438518 136.54 291.15 136.54 
C 287.861482 136.54 284.70721 137.838113 282.381876 140.148444 
C 280.056542 142.458776 278.75 145.592698 278.75 148.86 
C 278.75 152.127302 280.056542 155.261224 282.381876 157.571556 
C 284.70721 159.881887 287.861482 161.18 291.15 161.18 
z
" clip-path="url(#p26e231b036)" style="fill: #0871b7; fill-opacity: 0.752941; stroke: #231f20; stroke-linejoin: miter"/>
   </g>
   <g id="patch_23">
    <path d="M 221.4 295.004428 
C 223.413798 295.004428 225.345387 294.2095 226.769358 292.794716 
C 228.193328 291.379933 228.993418 289.460806 228.993418 287.46 
C 228.993418 285.459194 228.193328 283.540067 226.769358 282.125284 
C 225.345387 280.7105 223.413798 279.915572 221.4 279.915572 
C 219.386202 279.915572 217.454613 280.7105 216.030642 282.125284 
C 214.606672 283.540067 213.806582 285.459194 213.806582 287.46 
C 213.806582 289.460806 214.606672 291.379933 216.030642 292.794716 
C 217.454613 294.2095 219.386202 295.004428 221.4 295.004428 
z
" clip-path="url(#p26e231b036)" style="fill: #0871b7; fill-opacity: 0.752941; stroke: #231f20; stroke-linejoin: miter"/>
   </g>
   <g id="patch_24">
    <path d="M 151.65 225.704428 
C 153.663798 225.704428 155.595387 224.9095 157.019358 223.494716 
C 158.443328 222.079933 159.243418 220.160806 159.243418 218.16 
C 159.243418 216.159194 158.443328 214.240067 157.019358 212.825284 
C 155.595387 211.4105 153.663798 210.615572 151.65 210.615572 
C 149.636202 210.615572 147.704613 211.4105 146.280642 212.825284 
C 144.856672 214.240067 144.056582 216.159194 144.056582 218.16 
C 144.056582 220.160806 144.856672 222.079933 146.280642 223.494716 
C 147.704613 224.9095 149.636202 225.704428 151.65 225.704428 
z
" clip-path="url(#p26e231b036)" style="fill: #0871b7; fill-opacity: 0.752941; stroke: #231f20; stroke-linejoin: miter"/>
   </g>
   <g id="patch_25">
    <path d="M 291.15 225.704428 
C 293.163798 225.704428 295.095387 224.9095 296.519358 223.494716 
C 297.943328 222.079933 298.743418 220.160806 298.743418 218.16 
C 298.743418 216.159194 297.943328 214.240067 296.519358 212.825284 
C 295.095387 211.4105 293.163798 210.615572 291.15 210.615572 
C 289.136202 210.615572 287.204613 211.4105 285.780642 212.825284 
C 284.356672 214.240067 283.556582 216.159194 283.556582 218.16 
C 283.556582 220.160806 284.356672 222.079933 285.780642 223.494716 
C 287.204613 224.9095 289.136202 225.704428 291.15 225.704428 
z
" clip-path="url(#p26e231b036)" style="fill: #0871b7; fill-opacity: 0.752941; stroke: #231f20; stroke-linejoin: miter"/>
   </g>
   <g id="patch_26">
    <path d="M 221.4 156.404428 
C 223.413798 156.404428 225.345387 155.6095 226.769358 154.194716 
C 228.193328 152.779933 228.993418 150.860806 228.993418 148.86 
C 228.993418 146.859194 228.193328 144.940067 226.769358 143.525284 
C 225.345387 142.1105 223.413798 141.315572 221.4 141.315572 
C 219.386202 141.315572 217.454613 142.1105 216.030642 143.525284 
C 214.606672 144.940067 213.806582 146.859194 213.806582 148.86 
C 213.806582 150.860806 214.606672 152.779933 216.030642 154.194716 
C 217.454613 155.6095 219.386202 156.404428 221.4 156.404428 
z
" clip-path="url(#p26e231b036)" style="fill: #0871b7; fill-opacity: 0.752941; stroke: #231f20; stroke-linejoin: miter"/>
   </g>
   <g id="patch_27">
    <path d="M 221.4 222.78 
C 222.633194 222.78 223.816046 222.293208 224.688047 221.426833 
C 225.560047 220.560459 226.05 219.385238 226.05 218.16 
C 226.05 216.934762 225.560047 215.759541 224.688047 214.893167 
C 223.816046 214.026792 222.633194 213.54 221.4 213.54 
C 220.166806 213.54 218.983954 214.026792 218.111953 214.893167 
C 217.239953 215.759541 216.75 216.934762 216.75 218.16 
C 216.75 219.385238 217.239953 220.560459 218.111953 221.426833 
C 218.983954 222.293208 220.166806 222.78 221.4 222.78 
z
" clip-path="url(#p26e231b036)" style="fill: #0871b7; fill-opacity: 0.752941; stroke: #231f20; stroke-linejoin: miter"/>
   </g>
  </g>
 </g>
 <defs>
  <clipPath id="p26e231b036">
   <rect x="54" y="51.84" width="334.8" height="332.64"/>
  </clipPath>
 </defs>
</svg>
