<?xml version="1.0" encoding="utf-8" standalone="no"?>
<!DOCTYPE svg PUBLIC "-//W3C//DTD SVG 1.1//EN"
  "http://www.w3.org/Graphics/SVG/1.1/DTD/svg11.dtd">
<svg xmlns:xlink="http://www.w3.org/1999/xlink" width="432pt" height="432pt" viewBox="0 0 432 432" xmlns="http://www.w3.org/2000/svg" version="1.1">
 <metadata>
  <rdf:RDF xmlns:dc="http://purl.org/dc/elements/1.1/" xmlns:cc="http://creativecommons.org/ns#" xmlns:rdf="http://www.w3.org/1999/02/22-rdf-syntax-ns#">
   <cc:Work>
    <dc:type rdf:resource="http://purl.org/dc/dcmitype/StillImage"/>
    <dc:date>2025-03-02T17:55:05.537892</dc:date>
    <dc:format>image/svg+xml</dc:format>
    <dc:creator>
     <cc:Agent>
      <dc:title>Matplotlib v3.10.0, https://matplotlib.org/</dc:title>
     </cc:Agent>
    </dc:creator>
   </cc:Work>
  </rdf:RDF>
 </metadata>
 <defs>
  <style type="text/css">*{stroke-linejoin: round; stroke-linecap: butt}</style>
 </defs>
 <g id="figure_1">
  <g id="patch_1">
   <path d="M 0 432 
L 432 432 
L 432 0 
L 0 0 
z
" style="fill: #ffffff"/>
  </g>
  <g id="axes_1">
   <g id="patch_2">
    <path d="M 81.9 356.76 
L 360.9 356.76 
L 360.9 79.56 
L 81.9 79.56 
L 81.9 356.76 
z
" clip-path="url(#pc9c022014e)" style="fill: none; stroke: #969696; stroke-width: 1.5; stroke-linejoin: miter"/>
   </g>
   <g id="patch_3">
    <path d="M 81.9 374.085 
C 86.524479 374.085 90.960174 372.259529 94.230174 369.010625 
C 97.500175 365.761721 99.3375 361.354644 99.3375 356.76 
C 99.3375 352.165356 97.500175 347.758279 94.230174 344.509375 
C 90.960174 341.260471 86.524479 339.435 81.9 339.435 
C 77.275521 339.435 72.839826 341.260471 69.569826 344.509375 
C 66.299825 347.758279 64.4625 352.165356 64.4625 356.76 
C 64.4625 361.354644 66.299825 365.761721 69.569826 369.010625 
C 72.839826 372.259529 77.275521 374.085 81.9 374.085 
z
" clip-path="url(#pc9c022014e)" style="fill: #0871b7; fill-opacity: 0.752941; stroke: #231f20; stroke-linejoin: miter"/>
   </g>
   <g id="patch_4">
    <path d="M 360.9 374.085 
C 365.524479 374.085 369.960174 372.259529 373.230174 369.010625 
C 376.500175 365.761721 378.3375 361.354644 378.3375 356.76 
C 378.3375 352.165356 376.500175 347.758279 373.230174 344.509375 
C 369.960174 341.260471 365.524479 339.435 360.9 339.435 
C 356.275521 339.435 351.839826 341.260471 348.569826 344.509375 
C 345.299825 347.758279 343.4625 352.165356 343.4625 356.76 
C 343.4625 361.354644 345.299825 365.761721 348.569826 369.010625 
C 351.839826 372.259529 356.275521 374.085 360.9 374.085 
z
" clip-path="url(#pc9c022014e)" style="fill: #0871b7; fill-opacity: 0.752941; stroke: #231f20; stroke-linejoin: miter"/>
   </g>
   <g id="patch_5">
    <path d="M 81.9 96.885 
C 86.524479 96.885 90.960174 95.059529 94.230174 91.810625 
C 97.500175 88.561721 99.3375 84.154644 99.3375 79.56 
C 99.3375 74.965356 97.500175 70.558279 94.230174 67.309375 
C 90.960174 64.060471 86.524479 62.235 81.9 62.235 
C 77.275521 62.235 72.839826 64.060471 69.569826 67.309375 
C 66.299825 70.558279 64.4625 74.965356 64.4625 79.56 
C 64.4625 84.154644 66.299825 88.561721 69.569826 91.810625 
C 72.839826 95.059529 77.275521 96.885 81.9 96.885 
z
" clip-path="url(#pc9c022014e)" style="fill: #0871b7; fill-opacity: 0.752941; stroke: #231f20; stroke-linejoin: miter"/>
   </g>
   <g id="patch_6">
    <path d="M 360.9 96.885 
C 365.524479 96.885 369.960174 95.059529 373.230174 91.810625 
C 376.500175 88.561721 378.3375 84.154644 378.3375 79.56 
C 378.3375 74.965356 376.500175 70.558279 373.230174 67.309375 
C 369.960174 64.060471 365.524479 62.235 360.9 62.235 
C 356.275521 62.235 351.839826 64.060471 348.569826 67.309375 
C 345.299825 70.558279 343.4625 74.965356 343.4625 79.56 
C 343.4625 84.154644 345.299825 88.561721 348.569826 91.810625 
C 351.839826 95.059529 356.275521 96.885 360.9 96.885 
z
" clip-path="url(#pc9c022014e)" style="fill: #0871b7; fill-opacity: 0.752941; stroke: #231f20; stroke-linejoin: miter"/>
   </g>
  </g>
 </g>
 <defs>
  <clipPath id="pc9c022014e">
   <rect x="54" y="51.84" width="334.8" height="332.64"/>
  </clipPath>
 </defs>
</svg>
