<?xml version="1.0" encoding="utf-8" standalone="no"?>
<!DOCTYPE svg PUBLIC "-//W3C//DTD SVG 1.1//EN"
  "http://www.w3.org/Graphics/SVG/1.1/DTD/svg11.dtd">
<svg xmlns:xlink="http://www.w3.org/1999/xlink" width="432pt" height="432pt" viewBox="0 0 432 432" xmlns="http://www.w3.org/2000/svg" version="1.1">
 <metadata>
  <rdf:RDF xmlns:dc="http://purl.org/dc/elements/1.1/" xmlns:cc="http://creativecommons.org/ns#" xmlns:rdf="http://www.w3.org/1999/02/22-rdf-syntax-ns#">
   <cc:Work>
    <dc:type rdf:resource="http://purl.org/dc/dcmitype/StillImage"/>
    <dc:date>2025-03-02T17:55:05.389447</dc:date>
    <dc:format>image/svg+xml</dc:format>
    <dc:creator>
     <cc:Agent>
      <dc:title>Matplotlib v3.10.0, https://matplotlib.org/</dc:title>
     </cc:Agent>
    </dc:creator>
   </cc:Work>
  </rdf:RDF>
 </metadata>
 <defs>
  <style type="text/css">*{stroke-linejoin: round; stroke-linecap: butt}</style>
 </defs>
 <g id="figure_1">
  <g id="patch_1">
   <path d="M 0 432 
L 432 432 
L 432 0 
L 0 0 
z
" style="fill: #ffffff"/>
  </g>
  <g id="axes_1">
   <g id="patch_2">
    <path d="M 81.9 356.76 
L 360.9 356.76 
L 360.9 79.56 
L 81.9 79.56 
L 81.9 356.76 
z
" clip-path="url(#p279d7cb8c8)" style="fill: none; stroke: #969696; stroke-width: 1.5; stroke-linejoin: miter"/>
   </g>
   <g id="patch_3">
    <path d="M 101.271485 343.540078 
C 102.880132 343.540078 104.42311 342.905079 105.560595 341.774932 
C 106.698081 340.644785 107.337203 339.111762 107.337203 337.513493 
C 107.337203 335.915224 106.698081 334.3822 105.560595 333.252054 
C 104.42311 332.121907 102.880132 331.486908 101.271485 331.486908 
C 99.662837 331.486908 98.119859 332.121907 96.982374 333.252054 
C 95.844888 334.3822 95.205766 335.915224 95.205766 337.513493 
C 95.205766 339.111762 95.844888 340.644785 96.982374 341.774932 
C 98.119859 342.905079 99.662837 343.540078 101.271485 343.540078 
z
" clip-path="url(#p279d7cb8c8)" style="fill: #0871b7; fill-opacity: 0.752941; stroke: #231f20; stroke-linejoin: miter"/>
   </g>
   <g id="patch_4">
    <path d="M 341.528515 343.540078 
C 343.137163 343.540078 344.680141 342.905079 345.817626 341.774932 
C 346.955112 340.644785 347.594234 339.111762 347.594234 337.513493 
C 347.594234 335.915224 346.955112 334.3822 345.817626 333.252054 
C 344.680141 332.121907 343.137163 331.486908 341.528515 331.486908 
C 339.919868 331.486908 338.37689 332.121907 337.239405 333.252054 
C 336.101919 334.3822 335.462797 335.915224 335.462797 337.513493 
C 335.462797 339.111762 336.101919 340.644785 337.239405 341.774932 
C 338.37689 342.905079 339.919868 343.540078 341.528515 343.540078 
z
" clip-path="url(#p279d7cb8c8)" style="fill: #0871b7; fill-opacity: 0.752941; stroke: #231f20; stroke-linejoin: miter"/>
   </g>
   <g id="patch_5">
    <path d="M 101.271485 104.833092 
C 102.880132 104.833092 104.42311 104.198093 105.560595 103.067946 
C 106.698081 101.9378 107.337203 100.404776 107.337203 98.806507 
C 107.337203 97.208238 106.698081 95.675215 105.560595 94.545068 
C 104.42311 93.414921 102.880132 92.779922 101.271485 92.779922 
C 99.662837 92.779922 98.119859 93.414921 96.982374 94.545068 
C 95.844888 95.675215 95.205766 97.208238 95.205766 98.806507 
C 95.205766 100.404776 95.844888 101.9378 96.982374 103.067946 
C 98.119859 104.198093 99.662837 104.833092 101.271485 104.833092 
z
" clip-path="url(#p279d7cb8c8)" style="fill: #0871b7; fill-opacity: 0.752941; stroke: #231f20; stroke-linejoin: miter"/>
   </g>
   <g id="patch_6">
    <path d="M 341.528515 104.833092 
C 343.137163 104.833092 344.680141 104.198093 345.817626 103.067946 
C 346.955112 101.9378 347.594234 100.404776 347.594234 98.806507 
C 347.594234 97.208238 346.955112 95.675215 345.817626 94.545068 
C 344.680141 93.414921 343.137163 92.779922 341.528515 92.779922 
C 339.919868 92.779922 338.37689 93.414921 337.239405 94.545068 
C 336.101919 95.675215 335.462797 97.208238 335.462797 98.806507 
C 335.462797 100.404776 336.101919 101.9378 337.239405 103.067946 
C 338.37689 104.198093 339.919868 104.833092 341.528515 104.833092 
z
" clip-path="url(#p279d7cb8c8)" style="fill: #0871b7; fill-opacity: 0.752941; stroke: #231f20; stroke-linejoin: miter"/>
   </g>
   <g id="patch_7">
    <path d="M 173.972644 345.765211 
C 176.175236 345.765211 178.287912 344.895758 179.845379 343.348339 
C 181.402847 341.80092 182.277946 339.701874 182.277946 337.513493 
C 182.277946 335.325111 181.402847 333.226066 179.845379 331.678647 
C 178.287912 330.131227 176.175236 329.261774 173.972644 329.261774 
C 171.770053 329.261774 169.657377 330.131227 168.09991 331.678647 
C 166.542442 333.226066 165.667343 335.325111 165.667343 337.513493 
C 165.667343 339.701874 166.542442 341.80092 168.09991 343.348339 
C 169.657377 344.895758 171.770053 345.765211 173.972644 345.765211 
z
" clip-path="url(#p279d7cb8c8)" style="fill: #0871b7; fill-opacity: 0.752941; stroke: #231f20; stroke-linejoin: miter"/>
   </g>
   <g id="patch_8">
    <path d="M 101.271485 273.533091 
C 103.474076 273.533091 105.586752 272.663638 107.144219 271.116219 
C 108.701687 269.5688 109.576786 267.469754 109.576786 265.281373 
C 109.576786 263.092991 108.701687 260.993946 107.144219 259.446526 
C 105.586752 257.899107 103.474076 257.029654 101.271485 257.029654 
C 99.068893 257.029654 96.956217 257.899107 95.39875 259.446526 
C 93.841282 260.993946 92.966183 263.092991 92.966183 265.281373 
C 92.966183 267.469754 93.841282 269.5688 95.39875 271.116219 
C 96.956217 272.663638 99.068893 273.533091 101.271485 273.533091 
z
" clip-path="url(#p279d7cb8c8)" style="fill: #0871b7; fill-opacity: 0.752941; stroke: #231f20; stroke-linejoin: miter"/>
   </g>
   <g id="patch_9">
    <path d="M 268.827356 345.765211 
C 271.029947 345.765211 273.142623 344.895758 274.70009 343.348339 
C 276.257558 341.80092 277.132657 339.701874 277.132657 337.513493 
C 277.132657 335.325111 276.257558 333.226066 274.70009 331.678647 
C 273.142623 330.131227 271.029947 329.261774 268.827356 329.261774 
C 266.624764 329.261774 264.512088 330.131227 262.954621 331.678647 
C 261.397153 333.226066 260.522054 335.325111 260.522054 337.513493 
C 260.522054 339.701874 261.397153 341.80092 262.954621 343.348339 
C 264.512088 344.895758 266.624764 345.765211 268.827356 345.765211 
z
" clip-path="url(#p279d7cb8c8)" style="fill: #0871b7; fill-opacity: 0.752941; stroke: #231f20; stroke-linejoin: miter"/>
   </g>
   <g id="patch_10">
    <path d="M 101.271485 179.290346 
C 103.474076 179.290346 105.586752 178.420893 107.144219 176.873474 
C 108.701687 175.326054 109.576786 173.227009 109.576786 171.038627 
C 109.576786 168.850246 108.701687 166.7512 107.144219 165.203781 
C 105.586752 163.656362 103.474076 162.786909 101.271485 162.786909 
C 99.068893 162.786909 96.956217 163.656362 95.39875 165.203781 
C 93.841282 166.7512 92.966183 168.850246 92.966183 171.038627 
C 92.966183 173.227009 93.841282 175.326054 95.39875 176.873474 
C 96.956217 178.420893 99.068893 179.290346 101.271485 179.290346 
z
" clip-path="url(#p279d7cb8c8)" style="fill: #0871b7; fill-opacity: 0.752941; stroke: #231f20; stroke-linejoin: miter"/>
   </g>
   <g id="patch_11">
    <path d="M 341.528515 273.533091 
C 343.731107 273.533091 345.843783 272.663638 347.40125 271.116219 
C 348.958718 269.5688 349.833817 267.469754 349.833817 265.281373 
C 349.833817 263.092991 348.958718 260.993946 347.40125 259.446526 
C 345.843783 257.899107 343.731107 257.029654 341.528515 257.029654 
C 339.325924 257.029654 337.213248 257.899107 335.655781 259.446526 
C 334.098313 260.993946 333.223214 263.092991 333.223214 265.281373 
C 333.223214 267.469754 334.098313 269.5688 335.655781 271.116219 
C 337.213248 272.663638 339.325924 273.533091 341.528515 273.533091 
z
" clip-path="url(#p279d7cb8c8)" style="fill: #0871b7; fill-opacity: 0.752941; stroke: #231f20; stroke-linejoin: miter"/>
   </g>
   <g id="patch_12">
    <path d="M 173.972644 107.058226 
C 176.175236 107.058226 178.287912 106.188773 179.845379 104.641353 
C 181.402847 103.093934 182.277946 100.994889 182.277946 98.806507 
C 182.277946 96.618126 181.402847 94.51908 179.845379 92.971661 
C 178.287912 91.424242 176.175236 90.554789 173.972644 90.554789 
C 171.770053 90.554789 169.657377 91.424242 168.09991 92.971661 
C 166.542442 94.51908 165.667343 96.618126 165.667343 98.806507 
C 165.667343 100.994889 166.542442 103.093934 168.09991 104.641353 
C 169.657377 106.188773 171.770053 107.058226 173.972644 107.058226 
z
" clip-path="url(#p279d7cb8c8)" style="fill: #0871b7; fill-opacity: 0.752941; stroke: #231f20; stroke-linejoin: miter"/>
   </g>
   <g id="patch_13">
    <path d="M 341.528515 179.290346 
C 343.731107 179.290346 345.843783 178.420893 347.40125 176.873474 
C 348.958718 175.326054 349.833817 173.227009 349.833817 171.038627 
C 349.833817 168.850246 348.958718 166.7512 347.40125 165.203781 
C 345.843783 163.656362 343.731107 162.786909 341.528515 162.786909 
C 339.325924 162.786909 337.213248 163.656362 335.655781 165.203781 
C 334.098313 166.7512 333.223214 168.850246 333.223214 171.038627 
C 333.223214 173.227009 334.098313 175.326054 335.655781 176.873474 
C 337.213248 178.420893 339.325924 179.290346 341.528515 179.290346 
z
" clip-path="url(#p279d7cb8c8)" style="fill: #0871b7; fill-opacity: 0.752941; stroke: #231f20; stroke-linejoin: miter"/>
   </g>
   <g id="patch_14">
    <path d="M 268.827356 107.058226 
C 271.029947 107.058226 273.142623 106.188773 274.70009 104.641353 
C 276.257558 103.093934 277.132657 100.994889 277.132657 98.806507 
C 277.132657 96.618126 276.257558 94.51908 274.70009 92.971661 
C 273.142623 91.424242 271.029947 90.554789 268.827356 90.554789 
C 266.624764 90.554789 264.512088 91.424242 262.954621 92.971661 
C 261.397153 94.51908 260.522054 96.618126 260.522054 98.806507 
C 260.522054 100.994889 261.397153 103.093934 262.954621 104.641353 
C 264.512088 106.188773 266.624764 107.058226 268.827356 107.058226 
z
" clip-path="url(#p279d7cb8c8)" style="fill: #0871b7; fill-opacity: 0.752941; stroke: #231f20; stroke-linejoin: miter"/>
   </g>
   <g id="patch_15">
    <path d="M 173.972644 276.579787 
C 176.988476 276.579787 179.881193 275.389315 182.013708 273.270558 
C 184.146223 271.151802 185.344426 268.277747 185.344426 265.281373 
C 185.344426 262.284998 184.146223 259.410944 182.013708 257.292187 
C 179.881193 255.17343 176.988476 253.982958 173.972644 253.982958 
C 170.956813 253.982958 168.064096 255.17343 165.931581 257.292187 
C 163.799066 259.410944 162.600863 262.284998 162.600863 265.281373 
C 162.600863 268.277747 163.799066 271.151802 165.931581 273.270558 
C 168.064096 275.389315 170.956813 276.579787 173.972644 276.579787 
z
" clip-path="url(#p279d7cb8c8)" style="fill: #0871b7; fill-opacity: 0.752941; stroke: #231f20; stroke-linejoin: miter"/>
   </g>
   <g id="patch_16">
    <path d="M 268.827356 276.579787 
C 271.843187 276.579787 274.735904 275.389315 276.868419 273.270558 
C 279.000934 271.151802 280.199137 268.277747 280.199137 265.281373 
C 280.199137 262.284998 279.000934 259.410944 276.868419 257.292187 
C 274.735904 255.17343 271.843187 253.982958 268.827356 253.982958 
C 265.811524 253.982958 262.918807 255.17343 260.786292 257.292187 
C 258.653777 259.410944 257.455574 262.284998 257.455574 265.281373 
C 257.455574 268.277747 258.653777 271.151802 260.786292 273.270558 
C 262.918807 275.389315 265.811524 276.579787 268.827356 276.579787 
z
" clip-path="url(#p279d7cb8c8)" style="fill: #0871b7; fill-opacity: 0.752941; stroke: #231f20; stroke-linejoin: miter"/>
   </g>
   <g id="patch_17">
    <path d="M 173.972644 182.337042 
C 176.988476 182.337042 179.881193 181.14657 182.013708 179.027813 
C 184.146223 176.909056 185.344426 174.035002 185.344426 171.038627 
C 185.344426 168.042253 184.146223 165.168198 182.013708 163.049442 
C 179.881193 160.930685 176.988476 159.740213 173.972644 159.740213 
C 170.956813 159.740213 168.064096 160.930685 165.931581 163.049442 
C 163.799066 165.168198 162.600863 168.042253 162.600863 171.038627 
C 162.600863 174.035002 163.799066 176.909056 165.931581 179.027813 
C 168.064096 181.14657 170.956813 182.337042 173.972644 182.337042 
z
" clip-path="url(#p279d7cb8c8)" style="fill: #0871b7; fill-opacity: 0.752941; stroke: #231f20; stroke-linejoin: miter"/>
   </g>
   <g id="patch_18">
    <path d="M 268.827356 182.337042 
C 271.843187 182.337042 274.735904 181.14657 276.868419 179.027813 
C 279.000934 176.909056 280.199137 174.035002 280.199137 171.038627 
C 280.199137 168.042253 279.000934 165.168198 276.868419 163.049442 
C 274.735904 160.930685 271.843187 159.740213 268.827356 159.740213 
C 265.811524 159.740213 262.918807 160.930685 260.786292 163.049442 
C 258.653777 165.168198 257.455574 168.042253 257.455574 171.038627 
C 257.455574 174.035002 258.653777 176.909056 260.786292 179.027813 
C 262.918807 181.14657 265.811524 182.337042 268.827356 182.337042 
z
" clip-path="url(#p279d7cb8c8)" style="fill: #0871b7; fill-opacity: 0.752941; stroke: #231f20; stroke-linejoin: miter"/>
   </g>
  </g>
 </g>
 <defs>
  <clipPath id="p279d7cb8c8">
   <rect x="54" y="51.84" width="334.8" height="332.64"/>
  </clipPath>
 </defs>
</svg>
