<?xml version="1.0" encoding="utf-8" standalone="no"?>
<!DOCTYPE svg PUBLIC "-//W3C//DTD SVG 1.1//EN"
  "http://www.w3.org/Graphics/SVG/1.1/DTD/svg11.dtd">
<svg xmlns:xlink="http://www.w3.org/1999/xlink" width="432pt" height="432pt" viewBox="0 0 432 432" xmlns="http://www.w3.org/2000/svg" version="1.1">
 <metadata>
  <rdf:RDF xmlns:dc="http://purl.org/dc/elements/1.1/" xmlns:cc="http://creativecommons.org/ns#" xmlns:rdf="http://www.w3.org/1999/02/22-rdf-syntax-ns#">
   <cc:Work>
    <dc:type rdf:resource="http://purl.org/dc/dcmitype/StillImage"/>
    <dc:date>2025-03-02T17:55:06.853217</dc:date>
    <dc:format>image/svg+xml</dc:format>
    <dc:creator>
     <cc:Agent>
      <dc:title>Matplotlib v3.10.0, https://matplotlib.org/</dc:title>
     </cc:Agent>
    </dc:creator>
   </cc:Work>
  </rdf:RDF>
 </metadata>
 <defs>
  <style type="text/css">*{stroke-linejoin: round; stroke-linecap: butt}</style>
 </defs>
 <g id="figure_1">
  <g id="patch_1">
   <path d="M 0 432 
L 432 432 
L 432 0 
L 0 0 
z
" style="fill: #ffffff"/>
  </g>
  <g id="axes_1">
   <g id="patch_2">
    <path d="M 81.9 356.76 
L 360.9 356.76 
L 360.9 79.56 
L 81.9 79.56 
L 81.9 356.76 
z
" clip-path="url(#p0f18bd0fb6)" style="fill: none; stroke: #969696; stroke-width: 1.5; stroke-linejoin: miter"/>
   </g>
   <g id="patch_3">
    <path d="M 348.218182 348.426651 
C 349.357059 348.426651 350.449443 347.97709 351.254751 347.176978 
C 352.060058 346.376866 352.512539 345.291529 352.512539 344.16 
C 352.512539 343.028471 352.060058 341.943134 351.254751 341.143022 
C 350.449443 340.34291 349.357059 339.893349 348.218182 339.893349 
C 347.079305 339.893349 345.98692 340.34291 345.181613 341.143022 
C 344.376305 341.943134 343.923825 343.028471 343.923825 344.16 
C 343.923825 345.291529 344.376305 346.376866 345.181613 347.176978 
C 345.98692 347.97709 347.079305 348.426651 348.218182 348.426651 
z
" clip-path="url(#p0f18bd0fb6)" style="fill: #0871b7; fill-opacity: 0.752941; stroke: #231f20; stroke-linejoin: miter"/>
   </g>
   <g id="patch_4">
    <path d="M 94.581818 96.426651 
C 95.720695 96.426651 96.81308 95.97709 97.618387 95.176978 
C 98.423695 94.376866 98.876175 93.291529 98.876175 92.16 
C 98.876175 91.028471 98.423695 89.943134 97.618387 89.143022 
C 96.81308 88.34291 95.720695 87.893349 94.581818 87.893349 
C 93.442941 87.893349 92.350557 88.34291 91.545249 89.143022 
C 90.739942 89.943134 90.287461 91.028471 90.287461 92.16 
C 90.287461 93.291529 90.739942 94.376866 91.545249 95.176978 
C 92.350557 95.97709 93.442941 96.426651 94.581818 96.426651 
z
" clip-path="url(#p0f18bd0fb6)" style="fill: #0871b7; fill-opacity: 0.752941; stroke: #231f20; stroke-linejoin: miter"/>
   </g>
   <g id="patch_5">
    <path d="M 348.218182 96.426651 
C 349.357059 96.426651 350.449443 95.97709 351.254751 95.176978 
C 352.060058 94.376866 352.512539 93.291529 352.512539 92.16 
C 352.512539 91.028471 352.060058 89.943134 351.254751 89.143022 
C 350.449443 88.34291 349.357059 87.893349 348.218182 87.893349 
C 347.079305 87.893349 345.98692 88.34291 345.181613 89.143022 
C 344.376305 89.943134 343.923825 91.028471 343.923825 92.16 
C 343.923825 93.291529 344.376305 94.376866 345.181613 95.176978 
C 345.98692 95.97709 347.079305 96.426651 348.218182 96.426651 
z
" clip-path="url(#p0f18bd0fb6)" style="fill: #0871b7; fill-opacity: 0.752941; stroke: #231f20; stroke-linejoin: miter"/>
   </g>
   <g id="patch_6">
    <path d="M 94.581818 348.426651 
C 95.720695 348.426651 96.81308 347.97709 97.618387 347.176978 
C 98.423695 346.376866 98.876175 345.291529 98.876175 344.16 
C 98.876175 343.028471 98.423695 341.943134 97.618387 341.143022 
C 96.81308 340.34291 95.720695 339.893349 94.581818 339.893349 
C 93.442941 339.893349 92.350557 340.34291 91.545249 341.143022 
C 90.739942 341.943134 90.287461 343.028471 90.287461 344.16 
C 90.287461 345.291529 90.739942 346.376866 91.545249 347.176978 
C 92.350557 347.97709 93.442941 348.426651 94.581818 348.426651 
z
" clip-path="url(#p0f18bd0fb6)" style="fill: #0871b7; fill-opacity: 0.752941; stroke: #231f20; stroke-linejoin: miter"/>
   </g>
   <g id="patch_7">
    <path d="M 322.854545 347.673773 
C 323.79246 347.673773 324.692086 347.30354 325.355292 346.644613 
C 326.018498 345.985686 326.391135 345.091864 326.391135 344.16 
C 326.391135 343.228136 326.018498 342.334314 325.355292 341.675387 
C 324.692086 341.01646 323.79246 340.646227 322.854545 340.646227 
C 321.916631 340.646227 321.017005 341.01646 320.353799 341.675387 
C 319.690593 342.334314 319.317956 343.228136 319.317956 344.16 
C 319.317956 345.091864 319.690593 345.985686 320.353799 346.644613 
C 321.017005 347.30354 321.916631 347.673773 322.854545 347.673773 
z
" clip-path="url(#p0f18bd0fb6)" style="fill: #b74e08; fill-opacity: 0.752941; stroke: #231f20; stroke-linejoin: miter"/>
   </g>
   <g id="patch_8">
    <path d="M 94.581818 120.873773 
C 95.519733 120.873773 96.419359 120.50354 97.082565 119.844613 
C 97.745771 119.185686 98.118408 118.291864 98.118408 117.36 
C 98.118408 116.428136 97.745771 115.534314 97.082565 114.875387 
C 96.419359 114.21646 95.519733 113.846227 94.581818 113.846227 
C 93.643904 113.846227 92.744277 114.21646 92.081072 114.875387 
C 91.417866 115.534314 91.045228 116.428136 91.045228 117.36 
C 91.045228 118.291864 91.417866 119.185686 92.081072 119.844613 
C 92.744277 120.50354 93.643904 120.873773 94.581818 120.873773 
z
" clip-path="url(#p0f18bd0fb6)" style="fill: #b74e08; fill-opacity: 0.752941; stroke: #231f20; stroke-linejoin: miter"/>
   </g>
   <g id="patch_9">
    <path d="M 348.218182 322.473773 
C 349.156096 322.473773 350.055723 322.10354 350.718928 321.444613 
C 351.382134 320.785686 351.754772 319.891864 351.754772 318.96 
C 351.754772 318.028136 351.382134 317.134314 350.718928 316.475387 
C 350.055723 315.81646 349.156096 315.446227 348.218182 315.446227 
C 347.280267 315.446227 346.380641 315.81646 345.717435 316.475387 
C 345.054229 317.134314 344.681592 318.028136 344.681592 318.96 
C 344.681592 319.891864 345.054229 320.785686 345.717435 321.444613 
C 346.380641 322.10354 347.280267 322.473773 348.218182 322.473773 
z
" clip-path="url(#p0f18bd0fb6)" style="fill: #b74e08; fill-opacity: 0.752941; stroke: #231f20; stroke-linejoin: miter"/>
   </g>
   <g id="patch_10">
    <path d="M 348.218182 120.873773 
C 349.156096 120.873773 350.055723 120.50354 350.718928 119.844613 
C 351.382134 119.185686 351.754772 118.291864 351.754772 117.36 
C 351.754772 116.428136 351.382134 115.534314 350.718928 114.875387 
C 350.055723 114.21646 349.156096 113.846227 348.218182 113.846227 
C 347.280267 113.846227 346.380641 114.21646 345.717435 114.875387 
C 345.054229 115.534314 344.681592 116.428136 344.681592 117.36 
C 344.681592 118.291864 345.054229 119.185686 345.717435 119.844613 
C 346.380641 120.50354 347.280267 120.873773 348.218182 120.873773 
z
" clip-path="url(#p0f18bd0fb6)" style="fill: #b74e08; fill-opacity: 0.752941; stroke: #231f20; stroke-linejoin: miter"/>
   </g>
   <g id="patch_11">
    <path d="M 119.945455 95.673773 
C 120.883369 95.673773 121.782995 95.30354 122.446201 94.644613 
C 123.109407 93.985686 123.482044 93.091864 123.482044 92.16 
C 123.482044 91.228136 123.109407 90.334314 122.446201 89.675387 
C 121.782995 89.01646 120.883369 88.646227 119.945455 88.646227 
C 119.00754 88.646227 118.107914 89.01646 117.444708 89.675387 
C 116.781502 90.334314 116.408865 91.228136 116.408865 92.16 
C 116.408865 93.091864 116.781502 93.985686 117.444708 94.644613 
C 118.107914 95.30354 119.00754 95.673773 119.945455 95.673773 
z
" clip-path="url(#p0f18bd0fb6)" style="fill: #b74e08; fill-opacity: 0.752941; stroke: #231f20; stroke-linejoin: miter"/>
   </g>
   <g id="patch_12">
    <path d="M 322.854545 95.673773 
C 323.79246 95.673773 324.692086 95.30354 325.355292 94.644613 
C 326.018498 93.985686 326.391135 93.091864 326.391135 92.16 
C 326.391135 91.228136 326.018498 90.334314 325.355292 89.675387 
C 324.692086 89.01646 323.79246 88.646227 322.854545 88.646227 
C 321.916631 88.646227 321.017005 89.01646 320.353799 89.675387 
C 319.690593 90.334314 319.317956 91.228136 319.317956 92.16 
C 319.317956 93.091864 319.690593 93.985686 320.353799 94.644613 
C 321.017005 95.30354 321.916631 95.673773 322.854545 95.673773 
z
" clip-path="url(#p0f18bd0fb6)" style="fill: #b74e08; fill-opacity: 0.752941; stroke: #231f20; stroke-linejoin: miter"/>
   </g>
   <g id="patch_13">
    <path d="M 119.945455 347.673773 
C 120.883369 347.673773 121.782995 347.30354 122.446201 346.644613 
C 123.109407 345.985686 123.482044 345.091864 123.482044 344.16 
C 123.482044 343.228136 123.109407 342.334314 122.446201 341.675387 
C 121.782995 341.01646 120.883369 340.646227 119.945455 340.646227 
C 119.00754 340.646227 118.107914 341.01646 117.444708 341.675387 
C 116.781502 342.334314 116.408865 343.228136 116.408865 344.16 
C 116.408865 345.091864 116.781502 345.985686 117.444708 346.644613 
C 118.107914 347.30354 119.00754 347.673773 119.945455 347.673773 
z
" clip-path="url(#p0f18bd0fb6)" style="fill: #b74e08; fill-opacity: 0.752941; stroke: #231f20; stroke-linejoin: miter"/>
   </g>
   <g id="patch_14">
    <path d="M 94.581818 322.473773 
C 95.519733 322.473773 96.419359 322.10354 97.082565 321.444613 
C 97.745771 320.785686 98.118408 319.891864 98.118408 318.96 
C 98.118408 318.028136 97.745771 317.134314 97.082565 316.475387 
C 96.419359 315.81646 95.519733 315.446227 94.581818 315.446227 
C 93.643904 315.446227 92.744277 315.81646 92.081072 316.475387 
C 91.417866 317.134314 91.045228 318.028136 91.045228 318.96 
C 91.045228 319.891864 91.417866 320.785686 92.081072 321.444613 
C 92.744277 322.10354 93.643904 322.473773 94.581818 322.473773 
z
" clip-path="url(#p0f18bd0fb6)" style="fill: #b74e08; fill-opacity: 0.752941; stroke: #231f20; stroke-linejoin: miter"/>
   </g>
   <g id="patch_15">
    <path d="M 297.490909 353.854017 
C 300.078486 353.854017 302.560432 352.832594 304.390125 351.014705 
C 306.219819 349.196816 307.247874 346.730883 307.247874 344.16 
C 307.247874 341.589117 306.219819 339.123184 304.390125 337.305295 
C 302.560432 335.487406 300.078486 334.465983 297.490909 334.465983 
C 294.903332 334.465983 292.421387 335.487406 290.591693 337.305295 
C 288.762 339.123184 287.733944 341.589117 287.733944 344.16 
C 287.733944 346.730883 288.762 349.196816 290.591693 351.014705 
C 292.421387 352.832594 294.903332 353.854017 297.490909 353.854017 
z
" clip-path="url(#p0f18bd0fb6)" style="fill: #0871b7; fill-opacity: 0.752941; stroke: #231f20; stroke-linejoin: miter"/>
   </g>
   <g id="patch_16">
    <path d="M 348.218182 303.454017 
C 350.805759 303.454017 353.287704 302.432594 355.117398 300.614705 
C 356.947091 298.796816 357.975147 296.330883 357.975147 293.76 
C 357.975147 291.189117 356.947091 288.723184 355.117398 286.905295 
C 353.287704 285.087406 350.805759 284.065983 348.218182 284.065983 
C 345.630605 284.065983 343.148659 285.087406 341.318966 286.905295 
C 339.489272 288.723184 338.461217 291.189117 338.461217 293.76 
C 338.461217 296.330883 339.489272 298.796816 341.318966 300.614705 
C 343.148659 302.432594 345.630605 303.454017 348.218182 303.454017 
z
" clip-path="url(#p0f18bd0fb6)" style="fill: #0871b7; fill-opacity: 0.752941; stroke: #231f20; stroke-linejoin: miter"/>
   </g>
   <g id="patch_17">
    <path d="M 94.581818 152.254017 
C 97.169395 152.254017 99.651341 151.232594 101.481034 149.414705 
C 103.310728 147.596816 104.338783 145.130883 104.338783 142.56 
C 104.338783 139.989117 103.310728 137.523184 101.481034 135.705295 
C 99.651341 133.887406 97.169395 132.865983 94.581818 132.865983 
C 91.994241 132.865983 89.512296 133.887406 87.682602 135.705295 
C 85.852909 137.523184 84.824853 139.989117 84.824853 142.56 
C 84.824853 145.130883 85.852909 147.596816 87.682602 149.414705 
C 89.512296 151.232594 91.994241 152.254017 94.581818 152.254017 
z
" clip-path="url(#p0f18bd0fb6)" style="fill: #0871b7; fill-opacity: 0.752941; stroke: #231f20; stroke-linejoin: miter"/>
   </g>
   <g id="patch_18">
    <path d="M 348.218182 152.254017 
C 350.805759 152.254017 353.287704 151.232594 355.117398 149.414705 
C 356.947091 147.596816 357.975147 145.130883 357.975147 142.56 
C 357.975147 139.989117 356.947091 137.523184 355.117398 135.705295 
C 353.287704 133.887406 350.805759 132.865983 348.218182 132.865983 
C 345.630605 132.865983 343.148659 133.887406 341.318966 135.705295 
C 339.489272 137.523184 338.461217 139.989117 338.461217 142.56 
C 338.461217 145.130883 339.489272 147.596816 341.318966 149.414705 
C 343.148659 151.232594 345.630605 152.254017 348.218182 152.254017 
z
" clip-path="url(#p0f18bd0fb6)" style="fill: #0871b7; fill-opacity: 0.752941; stroke: #231f20; stroke-linejoin: miter"/>
   </g>
   <g id="patch_19">
    <path d="M 145.309091 101.854017 
C 147.896668 101.854017 150.378613 100.832594 152.208307 99.014705 
C 154.038 97.196816 155.066056 94.730883 155.066056 92.16 
C 155.066056 89.589117 154.038 87.123184 152.208307 85.305295 
C 150.378613 83.487406 147.896668 82.465983 145.309091 82.465983 
C 142.721514 82.465983 140.239568 83.487406 138.409875 85.305295 
C 136.580181 87.123184 135.552126 89.589117 135.552126 92.16 
C 135.552126 94.730883 136.580181 97.196816 138.409875 99.014705 
C 140.239568 100.832594 142.721514 101.854017 145.309091 101.854017 
z
" clip-path="url(#p0f18bd0fb6)" style="fill: #0871b7; fill-opacity: 0.752941; stroke: #231f20; stroke-linejoin: miter"/>
   </g>
   <g id="patch_20">
    <path d="M 297.490909 101.854017 
C 300.078486 101.854017 302.560432 100.832594 304.390125 99.014705 
C 306.219819 97.196816 307.247874 94.730883 307.247874 92.16 
C 307.247874 89.589117 306.219819 87.123184 304.390125 85.305295 
C 302.560432 83.487406 300.078486 82.465983 297.490909 82.465983 
C 294.903332 82.465983 292.421387 83.487406 290.591693 85.305295 
C 288.762 87.123184 287.733944 89.589117 287.733944 92.16 
C 287.733944 94.730883 288.762 97.196816 290.591693 99.014705 
C 292.421387 100.832594 294.903332 101.854017 297.490909 101.854017 
z
" clip-path="url(#p0f18bd0fb6)" style="fill: #0871b7; fill-opacity: 0.752941; stroke: #231f20; stroke-linejoin: miter"/>
   </g>
   <g id="patch_21">
    <path d="M 145.309091 353.854017 
C 147.896668 353.854017 150.378613 352.832594 152.208307 351.014705 
C 154.038 349.196816 155.066056 346.730883 155.066056 344.16 
C 155.066056 341.589117 154.038 339.123184 152.208307 337.305295 
C 150.378613 335.487406 147.896668 334.465983 145.309091 334.465983 
C 142.721514 334.465983 140.239568 335.487406 138.409875 337.305295 
C 136.580181 339.123184 135.552126 341.589117 135.552126 344.16 
C 135.552126 346.730883 136.580181 349.196816 138.409875 351.014705 
C 140.239568 352.832594 142.721514 353.854017 145.309091 353.854017 
z
" clip-path="url(#p0f18bd0fb6)" style="fill: #0871b7; fill-opacity: 0.752941; stroke: #231f20; stroke-linejoin: miter"/>
   </g>
   <g id="patch_22">
    <path d="M 94.581818 303.454017 
C 97.169395 303.454017 99.651341 302.432594 101.481034 300.614705 
C 103.310728 298.796816 104.338783 296.330883 104.338783 293.76 
C 104.338783 291.189117 103.310728 288.723184 101.481034 286.905295 
C 99.651341 285.087406 97.169395 284.065983 94.581818 284.065983 
C 91.994241 284.065983 89.512296 285.087406 87.682602 286.905295 
C 85.852909 288.723184 84.824853 291.189117 84.824853 293.76 
C 84.824853 296.330883 85.852909 298.796816 87.682602 300.614705 
C 89.512296 302.432594 91.994241 303.454017 94.581818 303.454017 
z
" clip-path="url(#p0f18bd0fb6)" style="fill: #0871b7; fill-opacity: 0.752941; stroke: #231f20; stroke-linejoin: miter"/>
   </g>
   <g id="patch_23">
    <path d="M 119.945455 321.853745 
C 120.717868 321.853745 121.458749 321.548842 122.004928 321.006187 
C 122.551107 320.463532 122.85799 319.72743 122.85799 318.96 
C 122.85799 318.19257 122.551107 317.456468 122.004928 316.913813 
C 121.458749 316.371158 120.717868 316.066255 119.945455 316.066255 
C 119.173041 316.066255 118.43216 316.371158 117.885981 316.913813 
C 117.339802 317.456468 117.032919 318.19257 117.032919 318.96 
C 117.032919 319.72743 117.339802 320.463532 117.885981 321.006187 
C 118.43216 321.548842 119.173041 321.853745 119.945455 321.853745 
z
" clip-path="url(#p0f18bd0fb6)" style="fill: #0871b7; fill-opacity: 0.752941; stroke: #231f20; stroke-linejoin: miter"/>
   </g>
   <g id="patch_24">
    <path d="M 322.854545 321.853745 
C 323.626959 321.853745 324.36784 321.548842 324.914019 321.006187 
C 325.460198 320.463532 325.767081 319.72743 325.767081 318.96 
C 325.767081 318.19257 325.460198 317.456468 324.914019 316.913813 
C 324.36784 316.371158 323.626959 316.066255 322.854545 316.066255 
C 322.082132 316.066255 321.341251 316.371158 320.795072 316.913813 
C 320.248893 317.456468 319.94201 318.19257 319.94201 318.96 
C 319.94201 319.72743 320.248893 320.463532 320.795072 321.006187 
C 321.341251 321.548842 322.082132 321.853745 322.854545 321.853745 
z
" clip-path="url(#p0f18bd0fb6)" style="fill: #0871b7; fill-opacity: 0.752941; stroke: #231f20; stroke-linejoin: miter"/>
   </g>
   <g id="patch_25">
    <path d="M 119.945455 120.253745 
C 120.717868 120.253745 121.458749 119.948842 122.004928 119.406187 
C 122.551107 118.863532 122.85799 118.12743 122.85799 117.36 
C 122.85799 116.59257 122.551107 115.856468 122.004928 115.313813 
C 121.458749 114.771158 120.717868 114.466255 119.945455 114.466255 
C 119.173041 114.466255 118.43216 114.771158 117.885981 115.313813 
C 117.339802 115.856468 117.032919 116.59257 117.032919 117.36 
C 117.032919 118.12743 117.339802 118.863532 117.885981 119.406187 
C 118.43216 119.948842 119.173041 120.253745 119.945455 120.253745 
z
" clip-path="url(#p0f18bd0fb6)" style="fill: #0871b7; fill-opacity: 0.752941; stroke: #231f20; stroke-linejoin: miter"/>
   </g>
   <g id="patch_26">
    <path d="M 322.854545 120.253745 
C 323.626959 120.253745 324.36784 119.948842 324.914019 119.406187 
C 325.460198 118.863532 325.767081 118.12743 325.767081 117.36 
C 325.767081 116.59257 325.460198 115.856468 324.914019 115.313813 
C 324.36784 114.771158 323.626959 114.466255 322.854545 114.466255 
C 322.082132 114.466255 321.341251 114.771158 320.795072 115.313813 
C 320.248893 115.856468 319.94201 116.59257 319.94201 117.36 
C 319.94201 118.12743 320.248893 118.863532 320.795072 119.406187 
C 321.341251 119.948842 322.082132 120.253745 322.854545 120.253745 
z
" clip-path="url(#p0f18bd0fb6)" style="fill: #0871b7; fill-opacity: 0.752941; stroke: #231f20; stroke-linejoin: miter"/>
   </g>
   <g id="patch_27">
    <path d="M 348.218182 281.283505 
C 351.614406 281.283505 354.871987 279.942876 357.27348 277.556876 
C 359.674973 275.170877 361.024307 271.934313 361.024307 268.56 
C 361.024307 265.185687 359.674973 261.949123 357.27348 259.563124 
C 354.871987 257.177124 351.614406 255.836495 348.218182 255.836495 
C 344.821958 255.836495 341.564377 257.177124 339.162884 259.563124 
C 336.761391 261.949123 335.412057 265.185687 335.412057 268.56 
C 335.412057 271.934313 336.761391 275.170877 339.162884 277.556876 
C 341.564377 279.942876 344.821958 281.283505 348.218182 281.283505 
z
" clip-path="url(#p0f18bd0fb6)" style="fill: #b74e08; fill-opacity: 0.752941; stroke: #231f20; stroke-linejoin: miter"/>
   </g>
   <g id="patch_28">
    <path d="M 170.672727 104.883505 
C 174.068951 104.883505 177.326532 103.542876 179.728025 101.156876 
C 182.129518 98.770877 183.478852 95.534313 183.478852 92.16 
C 183.478852 88.785687 182.129518 85.549123 179.728025 83.163124 
C 177.326532 80.777124 174.068951 79.436495 170.672727 79.436495 
C 167.276503 79.436495 164.018923 80.777124 161.61743 83.163124 
C 159.215937 85.549123 157.866602 88.785687 157.866602 92.16 
C 157.866602 95.534313 159.215937 98.770877 161.61743 101.156876 
C 164.018923 103.542876 167.276503 104.883505 170.672727 104.883505 
z
" clip-path="url(#p0f18bd0fb6)" style="fill: #b74e08; fill-opacity: 0.752941; stroke: #231f20; stroke-linejoin: miter"/>
   </g>
   <g id="patch_29">
    <path d="M 348.218182 180.483505 
C 351.614406 180.483505 354.871987 179.142876 357.27348 176.756876 
C 359.674973 174.370877 361.024307 171.134313 361.024307 167.76 
C 361.024307 164.385687 359.674973 161.149123 357.27348 158.763124 
C 354.871987 156.377124 351.614406 155.036495 348.218182 155.036495 
C 344.821958 155.036495 341.564377 156.377124 339.162884 158.763124 
C 336.761391 161.149123 335.412057 164.385687 335.412057 167.76 
C 335.412057 171.134313 336.761391 174.370877 339.162884 176.756876 
C 341.564377 179.142876 344.821958 180.483505 348.218182 180.483505 
z
" clip-path="url(#p0f18bd0fb6)" style="fill: #b74e08; fill-opacity: 0.752941; stroke: #231f20; stroke-linejoin: miter"/>
   </g>
   <g id="patch_30">
    <path d="M 272.127273 104.883505 
C 275.523497 104.883505 278.781077 103.542876 281.18257 101.156876 
C 283.584063 98.770877 284.933398 95.534313 284.933398 92.16 
C 284.933398 88.785687 283.584063 85.549123 281.18257 83.163124 
C 278.781077 80.777124 275.523497 79.436495 272.127273 79.436495 
C 268.731049 79.436495 265.473468 80.777124 263.071975 83.163124 
C 260.670482 85.549123 259.321148 88.785687 259.321148 92.16 
C 259.321148 95.534313 260.670482 98.770877 263.071975 101.156876 
C 265.473468 103.542876 268.731049 104.883505 272.127273 104.883505 
z
" clip-path="url(#p0f18bd0fb6)" style="fill: #b74e08; fill-opacity: 0.752941; stroke: #231f20; stroke-linejoin: miter"/>
   </g>
   <g id="patch_31">
    <path d="M 170.672727 356.883505 
C 174.068951 356.883505 177.326532 355.542876 179.728025 353.156876 
C 182.129518 350.770877 183.478852 347.534313 183.478852 344.16 
C 183.478852 340.785687 182.129518 337.549123 179.728025 335.163124 
C 177.326532 332.777124 174.068951 331.436495 170.672727 331.436495 
C 167.276503 331.436495 164.018923 332.777124 161.61743 335.163124 
C 159.215937 337.549123 157.866602 340.785687 157.866602 344.16 
C 157.866602 347.534313 159.215937 350.770877 161.61743 353.156876 
C 164.018923 355.542876 167.276503 356.883505 170.672727 356.883505 
z
" clip-path="url(#p0f18bd0fb6)" style="fill: #b74e08; fill-opacity: 0.752941; stroke: #231f20; stroke-linejoin: miter"/>
   </g>
   <g id="patch_32">
    <path d="M 94.581818 281.283505 
C 97.978042 281.283505 101.235623 279.942876 103.637116 277.556876 
C 106.038609 275.170877 107.387943 271.934313 107.387943 268.56 
C 107.387943 265.185687 106.038609 261.949123 103.637116 259.563124 
C 101.235623 257.177124 97.978042 255.836495 94.581818 255.836495 
C 91.185594 255.836495 87.928013 257.177124 85.52652 259.563124 
C 83.125027 261.949123 81.775693 265.185687 81.775693 268.56 
C 81.775693 271.934313 83.125027 275.170877 85.52652 277.556876 
C 87.928013 279.942876 91.185594 281.283505 94.581818 281.283505 
z
" clip-path="url(#p0f18bd0fb6)" style="fill: #b74e08; fill-opacity: 0.752941; stroke: #231f20; stroke-linejoin: miter"/>
   </g>
   <g id="patch_33">
    <path d="M 272.127273 356.883505 
C 275.523497 356.883505 278.781077 355.542876 281.18257 353.156876 
C 283.584063 350.770877 284.933398 347.534313 284.933398 344.16 
C 284.933398 340.785687 283.584063 337.549123 281.18257 335.163124 
C 278.781077 332.777124 275.523497 331.436495 272.127273 331.436495 
C 268.731049 331.436495 265.473468 332.777124 263.071975 335.163124 
C 260.670482 337.549123 259.321148 340.785687 259.321148 344.16 
C 259.321148 347.534313 260.670482 350.770877 263.071975 353.156876 
C 265.473468 355.542876 268.731049 356.883505 272.127273 356.883505 
z
" clip-path="url(#p0f18bd0fb6)" style="fill: #b74e08; fill-opacity: 0.752941; stroke: #231f20; stroke-linejoin: miter"/>
   </g>
   <g id="patch_34">
    <path d="M 94.581818 180.483505 
C 97.978042 180.483505 101.235623 179.142876 103.637116 176.756876 
C 106.038609 174.370877 107.387943 171.134313 107.387943 167.76 
C 107.387943 164.385687 106.038609 161.149123 103.637116 158.763124 
C 101.235623 156.377124 97.978042 155.036495 94.581818 155.036495 
C 91.185594 155.036495 87.928013 156.377124 85.52652 158.763124 
C 83.125027 161.149123 81.775693 164.385687 81.775693 167.76 
C 81.775693 171.134313 83.125027 174.370877 85.52652 176.756876 
C 87.928013 179.142876 91.185594 180.483505 94.581818 180.483505 
z
" clip-path="url(#p0f18bd0fb6)" style="fill: #b74e08; fill-opacity: 0.752941; stroke: #231f20; stroke-linejoin: miter"/>
   </g>
   <g id="patch_35">
    <path d="M 348.218182 260.377043 
C 352.760459 260.377043 357.117309 258.58402 360.329184 255.392867 
C 363.541059 252.201713 365.345725 247.872973 365.345725 243.36 
C 365.345725 238.847027 363.541059 234.518287 360.329184 231.327133 
C 357.117309 228.13598 352.760459 226.342957 348.218182 226.342957 
C 343.675904 226.342957 339.319055 228.13598 336.10718 231.327133 
C 332.895304 234.518287 331.090638 238.847027 331.090638 243.36 
C 331.090638 247.872973 332.895304 252.201713 336.10718 255.392867 
C 339.319055 258.58402 343.675904 260.377043 348.218182 260.377043 
z
" clip-path="url(#p0f18bd0fb6)" style="fill: #0871b7; fill-opacity: 0.752941; stroke: #231f20; stroke-linejoin: miter"/>
   </g>
   <g id="patch_36">
    <path d="M 348.218182 209.977043 
C 352.760459 209.977043 357.117309 208.18402 360.329184 204.992867 
C 363.541059 201.801713 365.345725 197.472973 365.345725 192.96 
C 365.345725 188.447027 363.541059 184.118287 360.329184 180.927133 
C 357.117309 177.73598 352.760459 175.942957 348.218182 175.942957 
C 343.675904 175.942957 339.319055 177.73598 336.10718 180.927133 
C 332.895304 184.118287 331.090638 188.447027 331.090638 192.96 
C 331.090638 197.472973 332.895304 201.801713 336.10718 204.992867 
C 339.319055 208.18402 343.675904 209.977043 348.218182 209.977043 
z
" clip-path="url(#p0f18bd0fb6)" style="fill: #0871b7; fill-opacity: 0.752941; stroke: #231f20; stroke-linejoin: miter"/>
   </g>
   <g id="patch_37">
    <path d="M 196.036364 109.177043 
C 200.578641 109.177043 204.935491 107.38402 208.147366 104.192867 
C 211.359241 101.001713 213.163907 96.672973 213.163907 92.16 
C 213.163907 87.647027 211.359241 83.318287 208.147366 80.127133 
C 204.935491 76.93598 200.578641 75.142957 196.036364 75.142957 
C 191.494086 75.142957 187.137237 76.93598 183.925361 80.127133 
C 180.713486 83.318287 178.90882 87.647027 178.90882 92.16 
C 178.90882 96.672973 180.713486 101.001713 183.925361 104.192867 
C 187.137237 107.38402 191.494086 109.177043 196.036364 109.177043 
z
" clip-path="url(#p0f18bd0fb6)" style="fill: #0871b7; fill-opacity: 0.752941; stroke: #231f20; stroke-linejoin: miter"/>
   </g>
   <g id="patch_38">
    <path d="M 246.763636 109.177043 
C 251.305914 109.177043 255.662763 107.38402 258.874639 104.192867 
C 262.086514 101.001713 263.89118 96.672973 263.89118 92.16 
C 263.89118 87.647027 262.086514 83.318287 258.874639 80.127133 
C 255.662763 76.93598 251.305914 75.142957 246.763636 75.142957 
C 242.221359 75.142957 237.864509 76.93598 234.652634 80.127133 
C 231.440759 83.318287 229.636093 87.647027 229.636093 92.16 
C 229.636093 96.672973 231.440759 101.001713 234.652634 104.192867 
C 237.864509 107.38402 242.221359 109.177043 246.763636 109.177043 
z
" clip-path="url(#p0f18bd0fb6)" style="fill: #0871b7; fill-opacity: 0.752941; stroke: #231f20; stroke-linejoin: miter"/>
   </g>
   <g id="patch_39">
    <path d="M 196.036364 361.177043 
C 200.578641 361.177043 204.935491 359.38402 208.147366 356.192867 
C 211.359241 353.001713 213.163907 348.672973 213.163907 344.16 
C 213.163907 339.647027 211.359241 335.318287 208.147366 332.127133 
C 204.935491 328.93598 200.578641 327.142957 196.036364 327.142957 
C 191.494086 327.142957 187.137237 328.93598 183.925361 332.127133 
C 180.713486 335.318287 178.90882 339.647027 178.90882 344.16 
C 178.90882 348.672973 180.713486 353.001713 183.925361 356.192867 
C 187.137237 359.38402 191.494086 361.177043 196.036364 361.177043 
z
" clip-path="url(#p0f18bd0fb6)" style="fill: #0871b7; fill-opacity: 0.752941; stroke: #231f20; stroke-linejoin: miter"/>
   </g>
   <g id="patch_40">
    <path d="M 246.763636 361.177043 
C 251.305914 361.177043 255.662763 359.38402 258.874639 356.192867 
C 262.086514 353.001713 263.89118 348.672973 263.89118 344.16 
C 263.89118 339.647027 262.086514 335.318287 258.874639 332.127133 
C 255.662763 328.93598 251.305914 327.142957 246.763636 327.142957 
C 242.221359 327.142957 237.864509 328.93598 234.652634 332.127133 
C 231.440759 335.318287 229.636093 339.647027 229.636093 344.16 
C 229.636093 348.672973 231.440759 353.001713 234.652634 356.192867 
C 237.864509 359.38402 242.221359 361.177043 246.763636 361.177043 
z
" clip-path="url(#p0f18bd0fb6)" style="fill: #0871b7; fill-opacity: 0.752941; stroke: #231f20; stroke-linejoin: miter"/>
   </g>
   <g id="patch_41">
    <path d="M 94.581818 260.377043 
C 99.124096 260.377043 103.480945 258.58402 106.69282 255.392867 
C 109.904696 252.201713 111.709362 247.872973 111.709362 243.36 
C 111.709362 238.847027 109.904696 234.518287 106.69282 231.327133 
C 103.480945 228.13598 99.124096 226.342957 94.581818 226.342957 
C 90.039541 226.342957 85.682691 228.13598 82.470816 231.327133 
C 79.258941 234.518287 77.454275 238.847027 77.454275 243.36 
C 77.454275 247.872973 79.258941 252.201713 82.470816 255.392867 
C 85.682691 258.58402 90.039541 260.377043 94.581818 260.377043 
z
" clip-path="url(#p0f18bd0fb6)" style="fill: #0871b7; fill-opacity: 0.752941; stroke: #231f20; stroke-linejoin: miter"/>
   </g>
   <g id="patch_42">
    <path d="M 94.581818 209.977043 
C 99.124096 209.977043 103.480945 208.18402 106.69282 204.992867 
C 109.904696 201.801713 111.709362 197.472973 111.709362 192.96 
C 111.709362 188.447027 109.904696 184.118287 106.69282 180.927133 
C 103.480945 177.73598 99.124096 175.942957 94.581818 175.942957 
C 90.039541 175.942957 85.682691 177.73598 82.470816 180.927133 
C 79.258941 184.118287 77.454275 188.447027 77.454275 192.96 
C 77.454275 197.472973 79.258941 201.801713 82.470816 204.992867 
C 85.682691 208.18402 90.039541 209.977043 94.581818 209.977043 
z
" clip-path="url(#p0f18bd0fb6)" style="fill: #0871b7; fill-opacity: 0.752941; stroke: #231f20; stroke-linejoin: miter"/>
   </g>
   <g id="patch_43">
    <path d="M 348.218182 235.687357 
C 352.896675 235.687357 357.384179 233.840564 360.692374 230.553713 
C 364.000568 227.266862 365.859353 222.808309 365.859353 218.16 
C 365.859353 213.511691 364.000568 209.053138 360.692374 205.766287 
C 357.384179 202.479436 352.896675 200.632643 348.218182 200.632643 
C 343.539688 200.632643 339.052184 202.479436 335.74399 205.766287 
C 332.435796 209.053138 330.57701 213.511691 330.57701 218.16 
C 330.57701 222.808309 332.435796 227.266862 335.74399 230.553713 
C 339.052184 233.840564 343.539688 235.687357 348.218182 235.687357 
z
" clip-path="url(#p0f18bd0fb6)" style="fill: #b74e08; fill-opacity: 0.752941; stroke: #231f20; stroke-linejoin: miter"/>
   </g>
   <g id="patch_44">
    <path d="M 221.4 109.687357 
C 226.078493 109.687357 230.565998 107.840564 233.874192 104.553713 
C 237.182386 101.266862 239.041171 96.808309 239.041171 92.16 
C 239.041171 87.511691 237.182386 83.053138 233.874192 79.766287 
C 230.565998 76.479436 226.078493 74.632643 221.4 74.632643 
C 216.721507 74.632643 212.234002 76.479436 208.925808 79.766287 
C 205.617614 83.053138 203.758829 87.511691 203.758829 92.16 
C 203.758829 96.808309 205.617614 101.266862 208.925808 104.553713 
C 212.234002 107.840564 216.721507 109.687357 221.4 109.687357 
z
" clip-path="url(#p0f18bd0fb6)" style="fill: #b74e08; fill-opacity: 0.752941; stroke: #231f20; stroke-linejoin: miter"/>
   </g>
   <g id="patch_45">
    <path d="M 221.4 361.687357 
C 226.078493 361.687357 230.565998 359.840564 233.874192 356.553713 
C 237.182386 353.266862 239.041171 348.808309 239.041171 344.16 
C 239.041171 339.511691 237.182386 335.053138 233.874192 331.766287 
C 230.565998 328.479436 226.078493 326.632643 221.4 326.632643 
C 216.721507 326.632643 212.234002 328.479436 208.925808 331.766287 
C 205.617614 335.053138 203.758829 339.511691 203.758829 344.16 
C 203.758829 348.808309 205.617614 353.266862 208.925808 356.553713 
C 212.234002 359.840564 216.721507 361.687357 221.4 361.687357 
z
" clip-path="url(#p0f18bd0fb6)" style="fill: #b74e08; fill-opacity: 0.752941; stroke: #231f20; stroke-linejoin: miter"/>
   </g>
   <g id="patch_46">
    <path d="M 145.309091 326.943445 
C 147.440073 326.943445 149.484063 326.102259 150.990896 324.605148 
C 152.497728 323.108037 153.344376 321.077234 153.344376 318.96 
C 153.344376 316.842766 152.497728 314.811963 150.990896 313.314852 
C 149.484063 311.817741 147.440073 310.976555 145.309091 310.976555 
C 143.178108 310.976555 141.134118 311.817741 139.627286 313.314852 
C 138.120454 314.811963 137.273806 316.842766 137.273806 318.96 
C 137.273806 321.077234 138.120454 323.108037 139.627286 324.605148 
C 141.134118 326.102259 143.178108 326.943445 145.309091 326.943445 
z
" clip-path="url(#p0f18bd0fb6)" style="fill: #b74e08; fill-opacity: 0.752941; stroke: #231f20; stroke-linejoin: miter"/>
   </g>
   <g id="patch_47">
    <path d="M 297.490909 326.943445 
C 299.621892 326.943445 301.665882 326.102259 303.172714 324.605148 
C 304.679546 323.108037 305.526194 321.077234 305.526194 318.96 
C 305.526194 316.842766 304.679546 314.811963 303.172714 313.314852 
C 301.665882 311.817741 299.621892 310.976555 297.490909 310.976555 
C 295.359927 310.976555 293.315937 311.817741 291.809104 313.314852 
C 290.302272 314.811963 289.455624 316.842766 289.455624 318.96 
C 289.455624 321.077234 290.302272 323.108037 291.809104 324.605148 
C 293.315937 326.102259 295.359927 326.943445 297.490909 326.943445 
z
" clip-path="url(#p0f18bd0fb6)" style="fill: #b74e08; fill-opacity: 0.752941; stroke: #231f20; stroke-linejoin: miter"/>
   </g>
   <g id="patch_48">
    <path d="M 119.945455 301.743445 
C 122.076437 301.743445 124.120427 300.902259 125.627259 299.405148 
C 127.134091 297.908037 127.98074 295.877234 127.98074 293.76 
C 127.98074 291.642766 127.134091 289.611963 125.627259 288.114852 
C 124.120427 286.617741 122.076437 285.776555 119.945455 285.776555 
C 117.814472 285.776555 115.770482 286.617741 114.26365 288.114852 
C 112.756818 289.611963 111.910169 291.642766 111.910169 293.76 
C 111.910169 295.877234 112.756818 297.908037 114.26365 299.405148 
C 115.770482 300.902259 117.814472 301.743445 119.945455 301.743445 
z
" clip-path="url(#p0f18bd0fb6)" style="fill: #b74e08; fill-opacity: 0.752941; stroke: #231f20; stroke-linejoin: miter"/>
   </g>
   <g id="patch_49">
    <path d="M 94.581818 235.687357 
C 99.260312 235.687357 103.747816 233.840564 107.05601 230.553713 
C 110.364204 227.266862 112.22299 222.808309 112.22299 218.16 
C 112.22299 213.511691 110.364204 209.053138 107.05601 205.766287 
C 103.747816 202.479436 99.260312 200.632643 94.581818 200.632643 
C 89.903325 200.632643 85.415821 202.479436 82.107626 205.766287 
C 78.799432 209.053138 76.940647 213.511691 76.940647 218.16 
C 76.940647 222.808309 78.799432 227.266862 82.107626 230.553713 
C 85.415821 233.840564 89.903325 235.687357 94.581818 235.687357 
z
" clip-path="url(#p0f18bd0fb6)" style="fill: #b74e08; fill-opacity: 0.752941; stroke: #231f20; stroke-linejoin: miter"/>
   </g>
   <g id="patch_50">
    <path d="M 119.945455 150.543445 
C 122.076437 150.543445 124.120427 149.702259 125.627259 148.205148 
C 127.134091 146.708037 127.98074 144.677234 127.98074 142.56 
C 127.98074 140.442766 127.134091 138.411963 125.627259 136.914852 
C 124.120427 135.417741 122.076437 134.576555 119.945455 134.576555 
C 117.814472 134.576555 115.770482 135.417741 114.26365 136.914852 
C 112.756818 138.411963 111.910169 140.442766 111.910169 142.56 
C 111.910169 144.677234 112.756818 146.708037 114.26365 148.205148 
C 115.770482 149.702259 117.814472 150.543445 119.945455 150.543445 
z
" clip-path="url(#p0f18bd0fb6)" style="fill: #b74e08; fill-opacity: 0.752941; stroke: #231f20; stroke-linejoin: miter"/>
   </g>
   <g id="patch_51">
    <path d="M 322.854545 301.743445 
C 324.985528 301.743445 327.029518 300.902259 328.53635 299.405148 
C 330.043182 297.908037 330.889831 295.877234 330.889831 293.76 
C 330.889831 291.642766 330.043182 289.611963 328.53635 288.114852 
C 327.029518 286.617741 324.985528 285.776555 322.854545 285.776555 
C 320.723563 285.776555 318.679573 286.617741 317.172741 288.114852 
C 315.665909 289.611963 314.81926 291.642766 314.81926 293.76 
C 314.81926 295.877234 315.665909 297.908037 317.172741 299.405148 
C 318.679573 300.902259 320.723563 301.743445 322.854545 301.743445 
z
" clip-path="url(#p0f18bd0fb6)" style="fill: #b74e08; fill-opacity: 0.752941; stroke: #231f20; stroke-linejoin: miter"/>
   </g>
   <g id="patch_52">
    <path d="M 322.854545 150.543445 
C 324.985528 150.543445 327.029518 149.702259 328.53635 148.205148 
C 330.043182 146.708037 330.889831 144.677234 330.889831 142.56 
C 330.889831 140.442766 330.043182 138.411963 328.53635 136.914852 
C 327.029518 135.417741 324.985528 134.576555 322.854545 134.576555 
C 320.723563 134.576555 318.679573 135.417741 317.172741 136.914852 
C 315.665909 138.411963 314.81926 140.442766 314.81926 142.56 
C 314.81926 144.677234 315.665909 146.708037 317.172741 148.205148 
C 318.679573 149.702259 320.723563 150.543445 322.854545 150.543445 
z
" clip-path="url(#p0f18bd0fb6)" style="fill: #b74e08; fill-opacity: 0.752941; stroke: #231f20; stroke-linejoin: miter"/>
   </g>
   <g id="patch_53">
    <path d="M 145.309091 125.343445 
C 147.440073 125.343445 149.484063 124.502259 150.990896 123.005148 
C 152.497728 121.508037 153.344376 119.477234 153.344376 117.36 
C 153.344376 115.242766 152.497728 113.211963 150.990896 111.714852 
C 149.484063 110.217741 147.440073 109.376555 145.309091 109.376555 
C 143.178108 109.376555 141.134118 110.217741 139.627286 111.714852 
C 138.120454 113.211963 137.273806 115.242766 137.273806 117.36 
C 137.273806 119.477234 138.120454 121.508037 139.627286 123.005148 
C 141.134118 124.502259 143.178108 125.343445 145.309091 125.343445 
z
" clip-path="url(#p0f18bd0fb6)" style="fill: #b74e08; fill-opacity: 0.752941; stroke: #231f20; stroke-linejoin: miter"/>
   </g>
   <g id="patch_54">
    <path d="M 297.490909 125.343445 
C 299.621892 125.343445 301.665882 124.502259 303.172714 123.005148 
C 304.679546 121.508037 305.526194 119.477234 305.526194 117.36 
C 305.526194 115.242766 304.679546 113.211963 303.172714 111.714852 
C 301.665882 110.217741 299.621892 109.376555 297.490909 109.376555 
C 295.359927 109.376555 293.315937 110.217741 291.809104 111.714852 
C 290.302272 113.211963 289.455624 115.242766 289.455624 117.36 
C 289.455624 119.477234 290.302272 121.508037 291.809104 123.005148 
C 293.315937 124.502259 295.359927 125.343445 297.490909 125.343445 
z
" clip-path="url(#p0f18bd0fb6)" style="fill: #b74e08; fill-opacity: 0.752941; stroke: #231f20; stroke-linejoin: miter"/>
   </g>
   <g id="patch_55">
    <path d="M 322.854545 279.03836 
C 325.651484 279.03836 328.334243 277.934294 330.311977 275.969319 
C 332.289711 274.004345 333.400947 271.338894 333.400947 268.56 
C 333.400947 265.781106 332.289711 263.115655 330.311977 261.150681 
C 328.334243 259.185706 325.651484 258.08164 322.854545 258.08164 
C 320.057607 258.08164 317.374848 259.185706 315.397114 261.150681 
C 313.41938 263.115655 312.308144 265.781106 312.308144 268.56 
C 312.308144 271.338894 313.41938 274.004345 315.397114 275.969319 
C 317.374848 277.934294 320.057607 279.03836 322.854545 279.03836 
z
" clip-path="url(#p0f18bd0fb6)" style="fill: #0871b7; fill-opacity: 0.752941; stroke: #231f20; stroke-linejoin: miter"/>
   </g>
   <g id="patch_56">
    <path d="M 170.672727 127.83836 
C 173.469666 127.83836 176.152425 126.734294 178.130159 124.769319 
C 180.107893 122.804345 181.219128 120.138894 181.219128 117.36 
C 181.219128 114.581106 180.107893 111.915655 178.130159 109.950681 
C 176.152425 107.985706 173.469666 106.88164 170.672727 106.88164 
C 167.875789 106.88164 165.19303 107.985706 163.215295 109.950681 
C 161.237561 111.915655 160.126326 114.581106 160.126326 117.36 
C 160.126326 120.138894 161.237561 122.804345 163.215295 124.769319 
C 165.19303 126.734294 167.875789 127.83836 170.672727 127.83836 
z
" clip-path="url(#p0f18bd0fb6)" style="fill: #0871b7; fill-opacity: 0.752941; stroke: #231f20; stroke-linejoin: miter"/>
   </g>
   <g id="patch_57">
    <path d="M 170.672727 329.43836 
C 173.469666 329.43836 176.152425 328.334294 178.130159 326.369319 
C 180.107893 324.404345 181.219128 321.738894 181.219128 318.96 
C 181.219128 316.181106 180.107893 313.515655 178.130159 311.550681 
C 176.152425 309.585706 173.469666 308.48164 170.672727 308.48164 
C 167.875789 308.48164 165.19303 309.585706 163.215295 311.550681 
C 161.237561 313.515655 160.126326 316.181106 160.126326 318.96 
C 160.126326 321.738894 161.237561 324.404345 163.215295 326.369319 
C 165.19303 328.334294 167.875789 329.43836 170.672727 329.43836 
z
" clip-path="url(#p0f18bd0fb6)" style="fill: #0871b7; fill-opacity: 0.752941; stroke: #231f20; stroke-linejoin: miter"/>
   </g>
   <g id="patch_58">
    <path d="M 119.945455 279.03836 
C 122.742393 279.03836 125.425152 277.934294 127.402886 275.969319 
C 129.38062 274.004345 130.491856 271.338894 130.491856 268.56 
C 130.491856 265.781106 129.38062 263.115655 127.402886 261.150681 
C 125.425152 259.185706 122.742393 258.08164 119.945455 258.08164 
C 117.148516 258.08164 114.465757 259.185706 112.488023 261.150681 
C 110.510289 263.115655 109.399053 265.781106 109.399053 268.56 
C 109.399053 271.338894 110.510289 274.004345 112.488023 275.969319 
C 114.465757 277.934294 117.148516 279.03836 119.945455 279.03836 
z
" clip-path="url(#p0f18bd0fb6)" style="fill: #0871b7; fill-opacity: 0.752941; stroke: #231f20; stroke-linejoin: miter"/>
   </g>
   <g id="patch_59">
    <path d="M 272.127273 329.43836 
C 274.924211 329.43836 277.60697 328.334294 279.584705 326.369319 
C 281.562439 324.404345 282.673674 321.738894 282.673674 318.96 
C 282.673674 316.181106 281.562439 313.515655 279.584705 311.550681 
C 277.60697 309.585706 274.924211 308.48164 272.127273 308.48164 
C 269.330334 308.48164 266.647575 309.585706 264.669841 311.550681 
C 262.692107 313.515655 261.580872 316.181106 261.580872 318.96 
C 261.580872 321.738894 262.692107 324.404345 264.669841 326.369319 
C 266.647575 328.334294 269.330334 329.43836 272.127273 329.43836 
z
" clip-path="url(#p0f18bd0fb6)" style="fill: #0871b7; fill-opacity: 0.752941; stroke: #231f20; stroke-linejoin: miter"/>
   </g>
   <g id="patch_60">
    <path d="M 119.945455 178.23836 
C 122.742393 178.23836 125.425152 177.134294 127.402886 175.169319 
C 129.38062 173.204345 130.491856 170.538894 130.491856 167.76 
C 130.491856 164.981106 129.38062 162.315655 127.402886 160.350681 
C 125.425152 158.385706 122.742393 157.28164 119.945455 157.28164 
C 117.148516 157.28164 114.465757 158.385706 112.488023 160.350681 
C 110.510289 162.315655 109.399053 164.981106 109.399053 167.76 
C 109.399053 170.538894 110.510289 173.204345 112.488023 175.169319 
C 114.465757 177.134294 117.148516 178.23836 119.945455 178.23836 
z
" clip-path="url(#p0f18bd0fb6)" style="fill: #0871b7; fill-opacity: 0.752941; stroke: #231f20; stroke-linejoin: miter"/>
   </g>
   <g id="patch_61">
    <path d="M 322.854545 178.23836 
C 325.651484 178.23836 328.334243 177.134294 330.311977 175.169319 
C 332.289711 173.204345 333.400947 170.538894 333.400947 167.76 
C 333.400947 164.981106 332.289711 162.315655 330.311977 160.350681 
C 328.334243 158.385706 325.651484 157.28164 322.854545 157.28164 
C 320.057607 157.28164 317.374848 158.385706 315.397114 160.350681 
C 313.41938 162.315655 312.308144 164.981106 312.308144 167.76 
C 312.308144 170.538894 313.41938 173.204345 315.397114 175.169319 
C 317.374848 177.134294 320.057607 178.23836 322.854545 178.23836 
z
" clip-path="url(#p0f18bd0fb6)" style="fill: #0871b7; fill-opacity: 0.752941; stroke: #231f20; stroke-linejoin: miter"/>
   </g>
   <g id="patch_62">
    <path d="M 272.127273 127.83836 
C 274.924211 127.83836 277.60697 126.734294 279.584705 124.769319 
C 281.562439 122.804345 282.673674 120.138894 282.673674 117.36 
C 282.673674 114.581106 281.562439 111.915655 279.584705 109.950681 
C 277.60697 107.985706 274.924211 106.88164 272.127273 106.88164 
C 269.330334 106.88164 266.647575 107.985706 264.669841 109.950681 
C 262.692107 111.915655 261.580872 114.581106 261.580872 117.36 
C 261.580872 120.138894 262.692107 122.804345 264.669841 124.769319 
C 266.647575 126.734294 269.330334 127.83836 272.127273 127.83836 
z
" clip-path="url(#p0f18bd0fb6)" style="fill: #0871b7; fill-opacity: 0.752941; stroke: #231f20; stroke-linejoin: miter"/>
   </g>
   <g id="patch_63">
    <path d="M 145.309091 315.785225 
C 151.188179 315.785225 156.827265 313.464509 160.984408 309.334186 
C 165.141551 305.203864 167.477337 299.601158 167.477337 293.76 
C 167.477337 287.918842 165.141551 282.316136 160.984408 278.185814 
C 156.827265 274.055491 151.188179 271.734775 145.309091 271.734775 
C 139.430003 271.734775 133.790916 274.055491 129.633774 278.185814 
C 125.476631 282.316136 123.140845 287.918842 123.140845 293.76 
C 123.140845 299.601158 125.476631 305.203864 129.633774 309.334186 
C 133.790916 313.464509 139.430003 315.785225 145.309091 315.785225 
z
" clip-path="url(#p0f18bd0fb6)" style="fill: #0871b7; fill-opacity: 0.752941; stroke: #231f20; stroke-linejoin: miter"/>
   </g>
   <g id="patch_64">
    <path d="M 297.490909 315.785225 
C 303.369997 315.785225 309.009084 313.464509 313.166226 309.334186 
C 317.323369 305.203864 319.659155 299.601158 319.659155 293.76 
C 319.659155 287.918842 317.323369 282.316136 313.166226 278.185814 
C 309.009084 274.055491 303.369997 271.734775 297.490909 271.734775 
C 291.611821 271.734775 285.972735 274.055491 281.815592 278.185814 
C 277.658449 282.316136 275.322663 287.918842 275.322663 293.76 
C 275.322663 299.601158 277.658449 305.203864 281.815592 309.334186 
C 285.972735 313.464509 291.611821 315.785225 297.490909 315.785225 
z
" clip-path="url(#p0f18bd0fb6)" style="fill: #0871b7; fill-opacity: 0.752941; stroke: #231f20; stroke-linejoin: miter"/>
   </g>
   <g id="patch_65">
    <path d="M 145.309091 164.585225 
C 151.188179 164.585225 156.827265 162.264509 160.984408 158.134186 
C 165.141551 154.003864 167.477337 148.401158 167.477337 142.56 
C 167.477337 136.718842 165.141551 131.116136 160.984408 126.985814 
C 156.827265 122.855491 151.188179 120.534775 145.309091 120.534775 
C 139.430003 120.534775 133.790916 122.855491 129.633774 126.985814 
C 125.476631 131.116136 123.140845 136.718842 123.140845 142.56 
C 123.140845 148.401158 125.476631 154.003864 129.633774 158.134186 
C 133.790916 162.264509 139.430003 164.585225 145.309091 164.585225 
z
" clip-path="url(#p0f18bd0fb6)" style="fill: #0871b7; fill-opacity: 0.752941; stroke: #231f20; stroke-linejoin: miter"/>
   </g>
   <g id="patch_66">
    <path d="M 297.490909 164.585225 
C 303.369997 164.585225 309.009084 162.264509 313.166226 158.134186 
C 317.323369 154.003864 319.659155 148.401158 319.659155 142.56 
C 319.659155 136.718842 317.323369 131.116136 313.166226 126.985814 
C 309.009084 122.855491 303.369997 120.534775 297.490909 120.534775 
C 291.611821 120.534775 285.972735 122.855491 281.815592 126.985814 
C 277.658449 131.116136 275.322663 136.718842 275.322663 142.56 
C 275.322663 148.401158 277.658449 154.003864 281.815592 158.134186 
C 285.972735 162.264509 291.611821 164.585225 297.490909 164.585225 
z
" clip-path="url(#p0f18bd0fb6)" style="fill: #0871b7; fill-opacity: 0.752941; stroke: #231f20; stroke-linejoin: miter"/>
   </g>
   <g id="patch_67">
    <path d="M 196.036364 332.974276 
C 199.777127 332.974276 203.365182 331.497643 206.010301 328.869589 
C 208.65542 326.241536 210.141641 322.676629 210.141641 318.96 
C 210.141641 315.243371 208.65542 311.678464 206.010301 309.050411 
C 203.365182 306.422357 199.777127 304.945724 196.036364 304.945724 
C 192.2956 304.945724 188.707545 306.422357 186.062426 309.050411 
C 183.417307 311.678464 181.931086 315.243371 181.931086 318.96 
C 181.931086 322.676629 183.417307 326.241536 186.062426 328.869589 
C 188.707545 331.497643 192.2956 332.974276 196.036364 332.974276 
z
" clip-path="url(#p0f18bd0fb6)" style="fill: #b74e08; fill-opacity: 0.752941; stroke: #231f20; stroke-linejoin: miter"/>
   </g>
   <g id="patch_68">
    <path d="M 246.763636 332.974276 
C 250.5044 332.974276 254.092455 331.497643 256.737574 328.869589 
C 259.382693 326.241536 260.868914 322.676629 260.868914 318.96 
C 260.868914 315.243371 259.382693 311.678464 256.737574 309.050411 
C 254.092455 306.422357 250.5044 304.945724 246.763636 304.945724 
C 243.022873 304.945724 239.434818 306.422357 236.789699 309.050411 
C 234.14458 311.678464 232.658359 315.243371 232.658359 318.96 
C 232.658359 322.676629 234.14458 326.241536 236.789699 328.869589 
C 239.434818 331.497643 243.022873 332.974276 246.763636 332.974276 
z
" clip-path="url(#p0f18bd0fb6)" style="fill: #b74e08; fill-opacity: 0.752941; stroke: #231f20; stroke-linejoin: miter"/>
   </g>
   <g id="patch_69">
    <path d="M 119.945455 257.374276 
C 123.686218 257.374276 127.274273 255.897643 129.919392 253.269589 
C 132.564511 250.641536 134.050732 247.076629 134.050732 243.36 
C 134.050732 239.643371 132.564511 236.078464 129.919392 233.450411 
C 127.274273 230.822357 123.686218 229.345724 119.945455 229.345724 
C 116.204691 229.345724 112.616636 230.822357 109.971517 233.450411 
C 107.326398 236.078464 105.840177 239.643371 105.840177 243.36 
C 105.840177 247.076629 107.326398 250.641536 109.971517 253.269589 
C 112.616636 255.897643 116.204691 257.374276 119.945455 257.374276 
z
" clip-path="url(#p0f18bd0fb6)" style="fill: #b74e08; fill-opacity: 0.752941; stroke: #231f20; stroke-linejoin: miter"/>
   </g>
   <g id="patch_70">
    <path d="M 119.945455 206.974276 
C 123.686218 206.974276 127.274273 205.497643 129.919392 202.869589 
C 132.564511 200.241536 134.050732 196.676629 134.050732 192.96 
C 134.050732 189.243371 132.564511 185.678464 129.919392 183.050411 
C 127.274273 180.422357 123.686218 178.945724 119.945455 178.945724 
C 116.204691 178.945724 112.616636 180.422357 109.971517 183.050411 
C 107.326398 185.678464 105.840177 189.243371 105.840177 192.96 
C 105.840177 196.676629 107.326398 200.241536 109.971517 202.869589 
C 112.616636 205.497643 116.204691 206.974276 119.945455 206.974276 
z
" clip-path="url(#p0f18bd0fb6)" style="fill: #b74e08; fill-opacity: 0.752941; stroke: #231f20; stroke-linejoin: miter"/>
   </g>
   <g id="patch_71">
    <path d="M 322.854545 206.974276 
C 326.595309 206.974276 330.183364 205.497643 332.828483 202.869589 
C 335.473602 200.241536 336.959823 196.676629 336.959823 192.96 
C 336.959823 189.243371 335.473602 185.678464 332.828483 183.050411 
C 330.183364 180.422357 326.595309 178.945724 322.854545 178.945724 
C 319.113782 178.945724 315.525727 180.422357 312.880608 183.050411 
C 310.235489 185.678464 308.749268 189.243371 308.749268 192.96 
C 308.749268 196.676629 310.235489 200.241536 312.880608 202.869589 
C 315.525727 205.497643 319.113782 206.974276 322.854545 206.974276 
z
" clip-path="url(#p0f18bd0fb6)" style="fill: #b74e08; fill-opacity: 0.752941; stroke: #231f20; stroke-linejoin: miter"/>
   </g>
   <g id="patch_72">
    <path d="M 246.763636 131.374276 
C 250.5044 131.374276 254.092455 129.897643 256.737574 127.269589 
C 259.382693 124.641536 260.868914 121.076629 260.868914 117.36 
C 260.868914 113.643371 259.382693 110.078464 256.737574 107.450411 
C 254.092455 104.822357 250.5044 103.345724 246.763636 103.345724 
C 243.022873 103.345724 239.434818 104.822357 236.789699 107.450411 
C 234.14458 110.078464 232.658359 113.643371 232.658359 117.36 
C 232.658359 121.076629 234.14458 124.641536 236.789699 127.269589 
C 239.434818 129.897643 243.022873 131.374276 246.763636 131.374276 
z
" clip-path="url(#p0f18bd0fb6)" style="fill: #b74e08; fill-opacity: 0.752941; stroke: #231f20; stroke-linejoin: miter"/>
   </g>
   <g id="patch_73">
    <path d="M 322.854545 257.374276 
C 326.595309 257.374276 330.183364 255.897643 332.828483 253.269589 
C 335.473602 250.641536 336.959823 247.076629 336.959823 243.36 
C 336.959823 239.643371 335.473602 236.078464 332.828483 233.450411 
C 330.183364 230.822357 326.595309 229.345724 322.854545 229.345724 
C 319.113782 229.345724 315.525727 230.822357 312.880608 233.450411 
C 310.235489 236.078464 308.749268 239.643371 308.749268 243.36 
C 308.749268 247.076629 310.235489 250.641536 312.880608 253.269589 
C 315.525727 255.897643 319.113782 257.374276 322.854545 257.374276 
z
" clip-path="url(#p0f18bd0fb6)" style="fill: #b74e08; fill-opacity: 0.752941; stroke: #231f20; stroke-linejoin: miter"/>
   </g>
   <g id="patch_74">
    <path d="M 196.036364 131.374276 
C 199.777127 131.374276 203.365182 129.897643 206.010301 127.269589 
C 208.65542 124.641536 210.141641 121.076629 210.141641 117.36 
C 210.141641 113.643371 208.65542 110.078464 206.010301 107.450411 
C 203.365182 104.822357 199.777127 103.345724 196.036364 103.345724 
C 192.2956 103.345724 188.707545 104.822357 186.062426 107.450411 
C 183.417307 110.078464 181.931086 113.643371 181.931086 117.36 
C 181.931086 121.076629 183.417307 124.641536 186.062426 127.269589 
C 188.707545 129.897643 192.2956 131.374276 196.036364 131.374276 
z
" clip-path="url(#p0f18bd0fb6)" style="fill: #b74e08; fill-opacity: 0.752941; stroke: #231f20; stroke-linejoin: miter"/>
   </g>
   <g id="patch_75">
    <path d="M 221.4 333.394542 
C 225.252943 333.394542 228.948598 331.873627 231.67304 329.166762 
C 234.397482 326.459897 235.928272 322.788085 235.928272 318.96 
C 235.928272 315.131915 234.397482 311.460103 231.67304 308.753238 
C 228.948598 306.046373 225.252943 304.525458 221.4 304.525458 
C 217.547057 304.525458 213.851402 306.046373 211.12696 308.753238 
C 208.402518 311.460103 206.871728 315.131915 206.871728 318.96 
C 206.871728 322.788085 208.402518 326.459897 211.12696 329.166762 
C 213.851402 331.873627 217.547057 333.394542 221.4 333.394542 
z
" clip-path="url(#p0f18bd0fb6)" style="fill: #0871b7; fill-opacity: 0.752941; stroke: #231f20; stroke-linejoin: miter"/>
   </g>
   <g id="patch_76">
    <path d="M 119.945455 232.594542 
C 123.798397 232.594542 127.494052 231.073627 130.218494 228.366762 
C 132.942937 225.659897 134.473727 221.988085 134.473727 218.16 
C 134.473727 214.331915 132.942937 210.660103 130.218494 207.953238 
C 127.494052 205.246373 123.798397 203.725458 119.945455 203.725458 
C 116.092512 203.725458 112.396857 205.246373 109.672415 207.953238 
C 106.947973 210.660103 105.417182 214.331915 105.417182 218.16 
C 105.417182 221.988085 106.947973 225.659897 109.672415 228.366762 
C 112.396857 231.073627 116.092512 232.594542 119.945455 232.594542 
z
" clip-path="url(#p0f18bd0fb6)" style="fill: #0871b7; fill-opacity: 0.752941; stroke: #231f20; stroke-linejoin: miter"/>
   </g>
   <g id="patch_77">
    <path d="M 322.854545 232.594542 
C 326.707488 232.594542 330.403143 231.073627 333.127585 228.366762 
C 335.852027 225.659897 337.382818 221.988085 337.382818 218.16 
C 337.382818 214.331915 335.852027 210.660103 333.127585 207.953238 
C 330.403143 205.246373 326.707488 203.725458 322.854545 203.725458 
C 319.001603 203.725458 315.305948 205.246373 312.581506 207.953238 
C 309.857063 210.660103 308.326273 214.331915 308.326273 218.16 
C 308.326273 221.988085 309.857063 225.659897 312.581506 228.366762 
C 315.305948 231.073627 319.001603 232.594542 322.854545 232.594542 
z
" clip-path="url(#p0f18bd0fb6)" style="fill: #0871b7; fill-opacity: 0.752941; stroke: #231f20; stroke-linejoin: miter"/>
   </g>
   <g id="patch_78">
    <path d="M 221.4 131.794542 
C 225.252943 131.794542 228.948598 130.273627 231.67304 127.566762 
C 234.397482 124.859897 235.928272 121.188085 235.928272 117.36 
C 235.928272 113.531915 234.397482 109.860103 231.67304 107.153238 
C 228.948598 104.446373 225.252943 102.925458 221.4 102.925458 
C 217.547057 102.925458 213.851402 104.446373 211.12696 107.153238 
C 208.402518 109.860103 206.871728 113.531915 206.871728 117.36 
C 206.871728 121.188085 208.402518 124.859897 211.12696 127.566762 
C 213.851402 130.273627 217.547057 131.794542 221.4 131.794542 
z
" clip-path="url(#p0f18bd0fb6)" style="fill: #0871b7; fill-opacity: 0.752941; stroke: #231f20; stroke-linejoin: miter"/>
   </g>
   <g id="patch_79">
    <path d="M 297.490909 297.468353 
C 305.207277 297.468353 312.608641 294.422387 318.064937 289.001293 
C 323.521234 283.580199 326.586979 276.226585 326.586979 268.56 
C 326.586979 260.893415 323.521234 253.539801 318.064937 248.118707 
C 312.608641 242.697613 305.207277 239.651647 297.490909 239.651647 
C 289.774541 239.651647 282.373177 242.697613 276.916881 248.118707 
C 271.460585 253.539801 268.394839 260.893415 268.394839 268.56 
C 268.394839 276.226585 271.460585 283.580199 276.916881 289.001293 
C 282.373177 294.422387 289.774541 297.468353 297.490909 297.468353 
z
" clip-path="url(#p0f18bd0fb6)" style="fill: #b74e08; fill-opacity: 0.752941; stroke: #231f20; stroke-linejoin: miter"/>
   </g>
   <g id="patch_80">
    <path d="M 170.672727 171.468353 
C 178.389095 171.468353 185.79046 168.422387 191.246756 163.001293 
C 196.703052 157.580199 199.768797 150.226585 199.768797 142.56 
C 199.768797 134.893415 196.703052 127.539801 191.246756 122.118707 
C 185.79046 116.697613 178.389095 113.651647 170.672727 113.651647 
C 162.956359 113.651647 155.554995 116.697613 150.098699 122.118707 
C 144.642403 127.539801 141.576657 134.893415 141.576657 142.56 
C 141.576657 150.226585 144.642403 157.580199 150.098699 163.001293 
C 155.554995 168.422387 162.956359 171.468353 170.672727 171.468353 
z
" clip-path="url(#p0f18bd0fb6)" style="fill: #b74e08; fill-opacity: 0.752941; stroke: #231f20; stroke-linejoin: miter"/>
   </g>
   <g id="patch_81">
    <path d="M 170.672727 322.668353 
C 178.389095 322.668353 185.79046 319.622387 191.246756 314.201293 
C 196.703052 308.780199 199.768797 301.426585 199.768797 293.76 
C 199.768797 286.093415 196.703052 278.739801 191.246756 273.318707 
C 185.79046 267.897613 178.389095 264.851647 170.672727 264.851647 
C 162.956359 264.851647 155.554995 267.897613 150.098699 273.318707 
C 144.642403 278.739801 141.576657 286.093415 141.576657 293.76 
C 141.576657 301.426585 144.642403 308.780199 150.098699 314.201293 
C 155.554995 319.622387 162.956359 322.668353 170.672727 322.668353 
z
" clip-path="url(#p0f18bd0fb6)" style="fill: #b74e08; fill-opacity: 0.752941; stroke: #231f20; stroke-linejoin: miter"/>
   </g>
   <g id="patch_82">
    <path d="M 145.309091 297.468353 
C 153.025459 297.468353 160.426823 294.422387 165.883119 289.001293 
C 171.339415 283.580199 174.405161 276.226585 174.405161 268.56 
C 174.405161 260.893415 171.339415 253.539801 165.883119 248.118707 
C 160.426823 242.697613 153.025459 239.651647 145.309091 239.651647 
C 137.592723 239.651647 130.191359 242.697613 124.735063 248.118707 
C 119.278766 253.539801 116.213021 260.893415 116.213021 268.56 
C 116.213021 276.226585 119.278766 283.580199 124.735063 289.001293 
C 130.191359 294.422387 137.592723 297.468353 145.309091 297.468353 
z
" clip-path="url(#p0f18bd0fb6)" style="fill: #b74e08; fill-opacity: 0.752941; stroke: #231f20; stroke-linejoin: miter"/>
   </g>
   <g id="patch_83">
    <path d="M 272.127273 322.668353 
C 279.843641 322.668353 287.245005 319.622387 292.701301 314.201293 
C 298.157597 308.780199 301.223343 301.426585 301.223343 293.76 
C 301.223343 286.093415 298.157597 278.739801 292.701301 273.318707 
C 287.245005 267.897613 279.843641 264.851647 272.127273 264.851647 
C 264.410905 264.851647 257.00954 267.897613 251.553244 273.318707 
C 246.096948 278.739801 243.031203 286.093415 243.031203 293.76 
C 243.031203 301.426585 246.096948 308.780199 251.553244 314.201293 
C 257.00954 319.622387 264.410905 322.668353 272.127273 322.668353 
z
" clip-path="url(#p0f18bd0fb6)" style="fill: #b74e08; fill-opacity: 0.752941; stroke: #231f20; stroke-linejoin: miter"/>
   </g>
   <g id="patch_84">
    <path d="M 145.309091 196.668353 
C 153.025459 196.668353 160.426823 193.622387 165.883119 188.201293 
C 171.339415 182.780199 174.405161 175.426585 174.405161 167.76 
C 174.405161 160.093415 171.339415 152.739801 165.883119 147.318707 
C 160.426823 141.897613 153.025459 138.851647 145.309091 138.851647 
C 137.592723 138.851647 130.191359 141.897613 124.735063 147.318707 
C 119.278766 152.739801 116.213021 160.093415 116.213021 167.76 
C 116.213021 175.426585 119.278766 182.780199 124.735063 188.201293 
C 130.191359 193.622387 137.592723 196.668353 145.309091 196.668353 
z
" clip-path="url(#p0f18bd0fb6)" style="fill: #b74e08; fill-opacity: 0.752941; stroke: #231f20; stroke-linejoin: miter"/>
   </g>
   <g id="patch_85">
    <path d="M 297.490909 196.668353 
C 305.207277 196.668353 312.608641 193.622387 318.064937 188.201293 
C 323.521234 182.780199 326.586979 175.426585 326.586979 167.76 
C 326.586979 160.093415 323.521234 152.739801 318.064937 147.318707 
C 312.608641 141.897613 305.207277 138.851647 297.490909 138.851647 
C 289.774541 138.851647 282.373177 141.897613 276.916881 147.318707 
C 271.460585 152.739801 268.394839 160.093415 268.394839 167.76 
C 268.394839 175.426585 271.460585 182.780199 276.916881 188.201293 
C 282.373177 193.622387 289.774541 196.668353 297.490909 196.668353 
z
" clip-path="url(#p0f18bd0fb6)" style="fill: #b74e08; fill-opacity: 0.752941; stroke: #231f20; stroke-linejoin: miter"/>
   </g>
   <g id="patch_86">
    <path d="M 272.127273 171.468353 
C 279.843641 171.468353 287.245005 168.422387 292.701301 163.001293 
C 298.157597 157.580199 301.223343 150.226585 301.223343 142.56 
C 301.223343 134.893415 298.157597 127.539801 292.701301 122.118707 
C 287.245005 116.697613 279.843641 113.651647 272.127273 113.651647 
C 264.410905 113.651647 257.00954 116.697613 251.553244 122.118707 
C 246.096948 127.539801 243.031203 134.893415 243.031203 142.56 
C 243.031203 150.226585 246.096948 157.580199 251.553244 163.001293 
C 257.00954 168.422387 264.410905 171.468353 272.127273 171.468353 
z
" clip-path="url(#p0f18bd0fb6)" style="fill: #b74e08; fill-opacity: 0.752941; stroke: #231f20; stroke-linejoin: miter"/>
   </g>
   <g id="patch_87">
    <path d="M 196.036364 332.423459 
C 206.356615 332.423459 216.255565 328.349633 223.553085 321.099194 
C 230.850605 313.848755 234.950884 304.013669 234.950884 293.76 
C 234.950884 283.506331 230.850605 273.671245 223.553085 266.420806 
C 216.255565 259.170367 206.356615 255.096541 196.036364 255.096541 
C 185.716112 255.096541 175.817162 259.170367 168.519642 266.420806 
C 161.222123 273.671245 157.121843 283.506331 157.121843 293.76 
C 157.121843 304.013669 161.222123 313.848755 168.519642 321.099194 
C 175.817162 328.349633 185.716112 332.423459 196.036364 332.423459 
z
" clip-path="url(#p0f18bd0fb6)" style="fill: #0871b7; fill-opacity: 0.752941; stroke: #231f20; stroke-linejoin: miter"/>
   </g>
   <g id="patch_88">
    <path d="M 145.309091 282.023459 
C 155.629342 282.023459 165.528292 277.949633 172.825812 270.699194 
C 180.123332 263.448755 184.223611 253.613669 184.223611 243.36 
C 184.223611 233.106331 180.123332 223.271245 172.825812 216.020806 
C 165.528292 208.770367 155.629342 204.696541 145.309091 204.696541 
C 134.988839 204.696541 125.089889 208.770367 117.79237 216.020806 
C 110.49485 223.271245 106.39457 233.106331 106.39457 243.36 
C 106.39457 253.613669 110.49485 263.448755 117.79237 270.699194 
C 125.089889 277.949633 134.988839 282.023459 145.309091 282.023459 
z
" clip-path="url(#p0f18bd0fb6)" style="fill: #0871b7; fill-opacity: 0.752941; stroke: #231f20; stroke-linejoin: miter"/>
   </g>
   <g id="patch_89">
    <path d="M 246.763636 332.423459 
C 257.083888 332.423459 266.982838 328.349633 274.280358 321.099194 
C 281.577877 313.848755 285.678157 304.013669 285.678157 293.76 
C 285.678157 283.506331 281.577877 273.671245 274.280358 266.420806 
C 266.982838 259.170367 257.083888 255.096541 246.763636 255.096541 
C 236.443385 255.096541 226.544435 259.170367 219.246915 266.420806 
C 211.949395 273.671245 207.849116 283.506331 207.849116 293.76 
C 207.849116 304.013669 211.949395 313.848755 219.246915 321.099194 
C 226.544435 328.349633 236.443385 332.423459 246.763636 332.423459 
z
" clip-path="url(#p0f18bd0fb6)" style="fill: #0871b7; fill-opacity: 0.752941; stroke: #231f20; stroke-linejoin: miter"/>
   </g>
   <g id="patch_90">
    <path d="M 297.490909 282.023459 
C 307.811161 282.023459 317.710111 277.949633 325.00763 270.699194 
C 332.30515 263.448755 336.40543 253.613669 336.40543 243.36 
C 336.40543 233.106331 332.30515 223.271245 325.00763 216.020806 
C 317.710111 208.770367 307.811161 204.696541 297.490909 204.696541 
C 287.170658 204.696541 277.271708 208.770367 269.974188 216.020806 
C 262.676668 223.271245 258.576389 233.106331 258.576389 243.36 
C 258.576389 253.613669 262.676668 263.448755 269.974188 270.699194 
C 277.271708 277.949633 287.170658 282.023459 297.490909 282.023459 
z
" clip-path="url(#p0f18bd0fb6)" style="fill: #0871b7; fill-opacity: 0.752941; stroke: #231f20; stroke-linejoin: miter"/>
   </g>
   <g id="patch_91">
    <path d="M 145.309091 231.623459 
C 155.629342 231.623459 165.528292 227.549633 172.825812 220.299194 
C 180.123332 213.048755 184.223611 203.213669 184.223611 192.96 
C 184.223611 182.706331 180.123332 172.871245 172.825812 165.620806 
C 165.528292 158.370367 155.629342 154.296541 145.309091 154.296541 
C 134.988839 154.296541 125.089889 158.370367 117.79237 165.620806 
C 110.49485 172.871245 106.39457 182.706331 106.39457 192.96 
C 106.39457 203.213669 110.49485 213.048755 117.79237 220.299194 
C 125.089889 227.549633 134.988839 231.623459 145.309091 231.623459 
z
" clip-path="url(#p0f18bd0fb6)" style="fill: #0871b7; fill-opacity: 0.752941; stroke: #231f20; stroke-linejoin: miter"/>
   </g>
   <g id="patch_92">
    <path d="M 297.490909 231.623459 
C 307.811161 231.623459 317.710111 227.549633 325.00763 220.299194 
C 332.30515 213.048755 336.40543 203.213669 336.40543 192.96 
C 336.40543 182.706331 332.30515 172.871245 325.00763 165.620806 
C 317.710111 158.370367 307.811161 154.296541 297.490909 154.296541 
C 287.170658 154.296541 277.271708 158.370367 269.974188 165.620806 
C 262.676668 172.871245 258.576389 182.706331 258.576389 192.96 
C 258.576389 203.213669 262.676668 213.048755 269.974188 220.299194 
C 277.271708 227.549633 287.170658 231.623459 297.490909 231.623459 
z
" clip-path="url(#p0f18bd0fb6)" style="fill: #0871b7; fill-opacity: 0.752941; stroke: #231f20; stroke-linejoin: miter"/>
   </g>
   <g id="patch_93">
    <path d="M 196.036364 181.223459 
C 206.356615 181.223459 216.255565 177.149633 223.553085 169.899194 
C 230.850605 162.648755 234.950884 152.813669 234.950884 142.56 
C 234.950884 132.306331 230.850605 122.471245 223.553085 115.220806 
C 216.255565 107.970367 206.356615 103.896541 196.036364 103.896541 
C 185.716112 103.896541 175.817162 107.970367 168.519642 115.220806 
C 161.222123 122.471245 157.121843 132.306331 157.121843 142.56 
C 157.121843 152.813669 161.222123 162.648755 168.519642 169.899194 
C 175.817162 177.149633 185.716112 181.223459 196.036364 181.223459 
z
" clip-path="url(#p0f18bd0fb6)" style="fill: #0871b7; fill-opacity: 0.752941; stroke: #231f20; stroke-linejoin: miter"/>
   </g>
   <g id="patch_94">
    <path d="M 246.763636 181.223459 
C 257.083888 181.223459 266.982838 177.149633 274.280358 169.899194 
C 281.577877 162.648755 285.678157 152.813669 285.678157 142.56 
C 285.678157 132.306331 281.577877 122.471245 274.280358 115.220806 
C 266.982838 107.970367 257.083888 103.896541 246.763636 103.896541 
C 236.443385 103.896541 226.544435 107.970367 219.246915 115.220806 
C 211.949395 122.471245 207.849116 132.306331 207.849116 142.56 
C 207.849116 152.813669 211.949395 162.648755 219.246915 169.899194 
C 226.544435 177.149633 236.443385 181.223459 246.763636 181.223459 
z
" clip-path="url(#p0f18bd0fb6)" style="fill: #0871b7; fill-opacity: 0.752941; stroke: #231f20; stroke-linejoin: miter"/>
   </g>
   <g id="patch_95">
    <path d="M 221.4 333.582915 
C 232.029739 333.582915 242.225543 329.386921 249.741904 321.919053 
C 257.258265 314.451185 261.481505 304.32116 261.481505 293.76 
C 261.481505 283.19884 257.258265 273.068815 249.741904 265.600947 
C 242.225543 258.133079 232.029739 253.937085 221.4 253.937085 
C 210.770261 253.937085 200.574457 258.133079 193.058096 265.600947 
C 185.541735 273.068815 181.318495 283.19884 181.318495 293.76 
C 181.318495 304.32116 185.541735 314.451185 193.058096 321.919053 
C 200.574457 329.386921 210.770261 333.582915 221.4 333.582915 
z
" clip-path="url(#p0f18bd0fb6)" style="fill: #b74e08; fill-opacity: 0.752941; stroke: #231f20; stroke-linejoin: miter"/>
   </g>
   <g id="patch_96">
    <path d="M 145.309091 257.982915 
C 155.93883 257.982915 166.134634 253.786921 173.650995 246.319053 
C 181.167356 238.851185 185.390596 228.72116 185.390596 218.16 
C 185.390596 207.59884 181.167356 197.468815 173.650995 190.000947 
C 166.134634 182.533079 155.93883 178.337085 145.309091 178.337085 
C 134.679352 178.337085 124.483548 182.533079 116.967187 190.000947 
C 109.450826 197.468815 105.227586 207.59884 105.227586 218.16 
C 105.227586 228.72116 109.450826 238.851185 116.967187 246.319053 
C 124.483548 253.786921 134.679352 257.982915 145.309091 257.982915 
z
" clip-path="url(#p0f18bd0fb6)" style="fill: #b74e08; fill-opacity: 0.752941; stroke: #231f20; stroke-linejoin: miter"/>
   </g>
   <g id="patch_97">
    <path d="M 297.490909 257.982915 
C 308.120648 257.982915 318.316452 253.786921 325.832813 246.319053 
C 333.349174 238.851185 337.572414 228.72116 337.572414 218.16 
C 337.572414 207.59884 333.349174 197.468815 325.832813 190.000947 
C 318.316452 182.533079 308.120648 178.337085 297.490909 178.337085 
C 286.86117 178.337085 276.665366 182.533079 269.149005 190.000947 
C 261.632644 197.468815 257.409404 207.59884 257.409404 218.16 
C 257.409404 228.72116 261.632644 238.851185 269.149005 246.319053 
C 276.665366 253.786921 286.86117 257.982915 297.490909 257.982915 
z
" clip-path="url(#p0f18bd0fb6)" style="fill: #b74e08; fill-opacity: 0.752941; stroke: #231f20; stroke-linejoin: miter"/>
   </g>
   <g id="patch_98">
    <path d="M 221.4 182.382915 
C 232.029739 182.382915 242.225543 178.186921 249.741904 170.719053 
C 257.258265 163.251185 261.481505 153.12116 261.481505 142.56 
C 261.481505 131.99884 257.258265 121.868815 249.741904 114.400947 
C 242.225543 106.933079 232.029739 102.737085 221.4 102.737085 
C 210.770261 102.737085 200.574457 106.933079 193.058096 114.400947 
C 185.541735 121.868815 181.318495 131.99884 181.318495 142.56 
C 181.318495 153.12116 185.541735 163.251185 193.058096 170.719053 
C 200.574457 178.186921 210.770261 182.382915 221.4 182.382915 
z
" clip-path="url(#p0f18bd0fb6)" style="fill: #b74e08; fill-opacity: 0.752941; stroke: #231f20; stroke-linejoin: miter"/>
   </g>
   <g id="patch_99">
    <path d="M 272.127273 306.502535 
C 282.255092 306.502535 291.969465 302.504671 299.130914 295.389424 
C 306.292363 288.274178 310.316188 278.622478 310.316188 268.56 
C 310.316188 258.497522 306.292363 248.845822 299.130914 241.730576 
C 291.969465 234.615329 282.255092 230.617465 272.127273 230.617465 
C 261.999454 230.617465 252.285081 234.615329 245.123632 241.730576 
C 237.962182 248.845822 233.938357 258.497522 233.938357 268.56 
C 233.938357 278.622478 237.962182 288.274178 245.123632 295.389424 
C 252.285081 302.504671 261.999454 306.502535 272.127273 306.502535 
z
" clip-path="url(#p0f18bd0fb6)" style="fill: #0871b7; fill-opacity: 0.752941; stroke: #231f20; stroke-linejoin: miter"/>
   </g>
   <g id="patch_100">
    <path d="M 170.672727 205.702535 
C 180.800546 205.702535 190.514919 201.704671 197.676368 194.589424 
C 204.837818 187.474178 208.861643 177.822478 208.861643 167.76 
C 208.861643 157.697522 204.837818 148.045822 197.676368 140.930576 
C 190.514919 133.815329 180.800546 129.817465 170.672727 129.817465 
C 160.544908 129.817465 150.830535 133.815329 143.669086 140.930576 
C 136.507637 148.045822 132.483812 157.697522 132.483812 167.76 
C 132.483812 177.822478 136.507637 187.474178 143.669086 194.589424 
C 150.830535 201.704671 160.544908 205.702535 170.672727 205.702535 
z
" clip-path="url(#p0f18bd0fb6)" style="fill: #0871b7; fill-opacity: 0.752941; stroke: #231f20; stroke-linejoin: miter"/>
   </g>
   <g id="patch_101">
    <path d="M 170.672727 306.502535 
C 180.800546 306.502535 190.514919 302.504671 197.676368 295.389424 
C 204.837818 288.274178 208.861643 278.622478 208.861643 268.56 
C 208.861643 258.497522 204.837818 248.845822 197.676368 241.730576 
C 190.514919 234.615329 180.800546 230.617465 170.672727 230.617465 
C 160.544908 230.617465 150.830535 234.615329 143.669086 241.730576 
C 136.507637 248.845822 132.483812 258.497522 132.483812 268.56 
C 132.483812 278.622478 136.507637 288.274178 143.669086 295.389424 
C 150.830535 302.504671 160.544908 306.502535 170.672727 306.502535 
z
" clip-path="url(#p0f18bd0fb6)" style="fill: #0871b7; fill-opacity: 0.752941; stroke: #231f20; stroke-linejoin: miter"/>
   </g>
   <g id="patch_102">
    <path d="M 272.127273 205.702535 
C 282.255092 205.702535 291.969465 201.704671 299.130914 194.589424 
C 306.292363 187.474178 310.316188 177.822478 310.316188 167.76 
C 310.316188 157.697522 306.292363 148.045822 299.130914 140.930576 
C 291.969465 133.815329 282.255092 129.817465 272.127273 129.817465 
C 261.999454 129.817465 252.285081 133.815329 245.123632 140.930576 
C 237.962182 148.045822 233.938357 157.697522 233.938357 167.76 
C 233.938357 177.822478 237.962182 187.474178 245.123632 194.589424 
C 252.285081 201.704671 261.999454 205.702535 272.127273 205.702535 
z
" clip-path="url(#p0f18bd0fb6)" style="fill: #0871b7; fill-opacity: 0.752941; stroke: #231f20; stroke-linejoin: miter"/>
   </g>
   <g id="patch_103">
    <path d="M 246.763636 319.30622 
C 260.309081 319.30622 273.301563 313.959278 282.879639 304.442996 
C 292.457715 294.926714 297.839377 282.018055 297.839377 268.56 
C 297.839377 255.101945 292.457715 242.193286 282.879639 232.677004 
C 273.301563 223.160722 260.309081 217.81378 246.763636 217.81378 
C 233.218192 217.81378 220.225709 223.160722 210.647634 232.677004 
C 201.069558 242.193286 195.687895 255.101945 195.687895 268.56 
C 195.687895 282.018055 201.069558 294.926714 210.647634 304.442996 
C 220.225709 313.959278 233.218192 319.30622 246.763636 319.30622 
z
" clip-path="url(#p0f18bd0fb6)" style="fill: #b74e08; fill-opacity: 0.752941; stroke: #231f20; stroke-linejoin: miter"/>
   </g>
   <g id="patch_104">
    <path d="M 170.672727 243.70622 
C 184.218172 243.70622 197.210654 238.359278 206.78873 228.842996 
C 216.366806 219.326714 221.748468 206.418055 221.748468 192.96 
C 221.748468 179.501945 216.366806 166.593286 206.78873 157.077004 
C 197.210654 147.560722 184.218172 142.21378 170.672727 142.21378 
C 157.127282 142.21378 144.1348 147.560722 134.556724 157.077004 
C 124.978649 166.593286 119.596986 179.501945 119.596986 192.96 
C 119.596986 206.418055 124.978649 219.326714 134.556724 228.842996 
C 144.1348 238.359278 157.127282 243.70622 170.672727 243.70622 
z
" clip-path="url(#p0f18bd0fb6)" style="fill: #b74e08; fill-opacity: 0.752941; stroke: #231f20; stroke-linejoin: miter"/>
   </g>
   <g id="patch_105">
    <path d="M 196.036364 319.30622 
C 209.581808 319.30622 222.574291 313.959278 232.152366 304.442996 
C 241.730442 294.926714 247.112105 282.018055 247.112105 268.56 
C 247.112105 255.101945 241.730442 242.193286 232.152366 232.677004 
C 222.574291 223.160722 209.581808 217.81378 196.036364 217.81378 
C 182.490919 217.81378 169.498437 223.160722 159.920361 232.677004 
C 150.342285 242.193286 144.960623 255.101945 144.960623 268.56 
C 144.960623 282.018055 150.342285 294.926714 159.920361 304.442996 
C 169.498437 313.959278 182.490919 319.30622 196.036364 319.30622 
z
" clip-path="url(#p0f18bd0fb6)" style="fill: #b74e08; fill-opacity: 0.752941; stroke: #231f20; stroke-linejoin: miter"/>
   </g>
   <g id="patch_106">
    <path d="M 170.672727 294.10622 
C 184.218172 294.10622 197.210654 288.759278 206.78873 279.242996 
C 216.366806 269.726714 221.748468 256.818055 221.748468 243.36 
C 221.748468 229.901945 216.366806 216.993286 206.78873 207.477004 
C 197.210654 197.960722 184.218172 192.61378 170.672727 192.61378 
C 157.127282 192.61378 144.1348 197.960722 134.556724 207.477004 
C 124.978649 216.993286 119.596986 229.901945 119.596986 243.36 
C 119.596986 256.818055 124.978649 269.726714 134.556724 279.242996 
C 144.1348 288.759278 157.127282 294.10622 170.672727 294.10622 
z
" clip-path="url(#p0f18bd0fb6)" style="fill: #b74e08; fill-opacity: 0.752941; stroke: #231f20; stroke-linejoin: miter"/>
   </g>
   <g id="patch_107">
    <path d="M 272.127273 243.70622 
C 285.672718 243.70622 298.6652 238.359278 308.243276 228.842996 
C 317.821351 219.326714 323.203014 206.418055 323.203014 192.96 
C 323.203014 179.501945 317.821351 166.593286 308.243276 157.077004 
C 298.6652 147.560722 285.672718 142.21378 272.127273 142.21378 
C 258.581828 142.21378 245.589346 147.560722 236.01127 157.077004 
C 226.433194 166.593286 221.051532 179.501945 221.051532 192.96 
C 221.051532 206.418055 226.433194 219.326714 236.01127 228.842996 
C 245.589346 238.359278 258.581828 243.70622 272.127273 243.70622 
z
" clip-path="url(#p0f18bd0fb6)" style="fill: #b74e08; fill-opacity: 0.752941; stroke: #231f20; stroke-linejoin: miter"/>
   </g>
   <g id="patch_108">
    <path d="M 246.763636 218.50622 
C 260.309081 218.50622 273.301563 213.159278 282.879639 203.642996 
C 292.457715 194.126714 297.839377 181.218055 297.839377 167.76 
C 297.839377 154.301945 292.457715 141.393286 282.879639 131.877004 
C 273.301563 122.360722 260.309081 117.01378 246.763636 117.01378 
C 233.218192 117.01378 220.225709 122.360722 210.647634 131.877004 
C 201.069558 141.393286 195.687895 154.301945 195.687895 167.76 
C 195.687895 181.218055 201.069558 194.126714 210.647634 203.642996 
C 220.225709 213.159278 233.218192 218.50622 246.763636 218.50622 
z
" clip-path="url(#p0f18bd0fb6)" style="fill: #b74e08; fill-opacity: 0.752941; stroke: #231f20; stroke-linejoin: miter"/>
   </g>
   <g id="patch_109">
    <path d="M 272.127273 294.10622 
C 285.672718 294.10622 298.6652 288.759278 308.243276 279.242996 
C 317.821351 269.726714 323.203014 256.818055 323.203014 243.36 
C 323.203014 229.901945 317.821351 216.993286 308.243276 207.477004 
C 298.6652 197.960722 285.672718 192.61378 272.127273 192.61378 
C 258.581828 192.61378 245.589346 197.960722 236.01127 207.477004 
C 226.433194 216.993286 221.051532 229.901945 221.051532 243.36 
C 221.051532 256.818055 226.433194 269.726714 236.01127 279.242996 
C 245.589346 288.759278 258.581828 294.10622 272.127273 294.10622 
z
" clip-path="url(#p0f18bd0fb6)" style="fill: #b74e08; fill-opacity: 0.752941; stroke: #231f20; stroke-linejoin: miter"/>
   </g>
   <g id="patch_110">
    <path d="M 196.036364 218.50622 
C 209.581808 218.50622 222.574291 213.159278 232.152366 203.642996 
C 241.730442 194.126714 247.112105 181.218055 247.112105 167.76 
C 247.112105 154.301945 241.730442 141.393286 232.152366 131.877004 
C 222.574291 122.360722 209.581808 117.01378 196.036364 117.01378 
C 182.490919 117.01378 169.498437 122.360722 159.920361 131.877004 
C 150.342285 141.393286 144.960623 154.301945 144.960623 167.76 
C 144.960623 181.218055 150.342285 194.126714 159.920361 203.642996 
C 169.498437 213.159278 182.490919 218.50622 196.036364 218.50622 
z
" clip-path="url(#p0f18bd0fb6)" style="fill: #b74e08; fill-opacity: 0.752941; stroke: #231f20; stroke-linejoin: miter"/>
   </g>
   <g id="patch_111">
    <path d="M 221.4 320.828018 
C 235.351651 320.828018 248.733757 315.32073 258.599064 305.51907 
C 268.464371 295.71741 274.007421 282.42164 274.007421 268.56 
C 274.007421 254.69836 268.464371 241.40259 258.599064 231.60093 
C 248.733757 221.79927 235.351651 216.291982 221.4 216.291982 
C 207.448349 216.291982 194.066243 221.79927 184.200936 231.60093 
C 174.335629 241.40259 168.792579 254.69836 168.792579 268.56 
C 168.792579 282.42164 174.335629 295.71741 184.200936 305.51907 
C 194.066243 315.32073 207.448349 320.828018 221.4 320.828018 
z
" clip-path="url(#p0f18bd0fb6)" style="fill: #0871b7; fill-opacity: 0.752941; stroke: #231f20; stroke-linejoin: miter"/>
   </g>
   <g id="patch_112">
    <path d="M 170.672727 270.428018 
C 184.624378 270.428018 198.006484 264.92073 207.871791 255.11907 
C 217.737099 245.31741 223.280148 232.02164 223.280148 218.16 
C 223.280148 204.29836 217.737099 191.00259 207.871791 181.20093 
C 198.006484 171.39927 184.624378 165.891982 170.672727 165.891982 
C 156.721076 165.891982 143.33897 171.39927 133.473663 181.20093 
C 123.608356 191.00259 118.065306 204.29836 118.065306 218.16 
C 118.065306 232.02164 123.608356 245.31741 133.473663 255.11907 
C 143.33897 264.92073 156.721076 270.428018 170.672727 270.428018 
z
" clip-path="url(#p0f18bd0fb6)" style="fill: #0871b7; fill-opacity: 0.752941; stroke: #231f20; stroke-linejoin: miter"/>
   </g>
   <g id="patch_113">
    <path d="M 272.127273 270.428018 
C 286.078924 270.428018 299.46103 264.92073 309.326337 255.11907 
C 319.191644 245.31741 324.734694 232.02164 324.734694 218.16 
C 324.734694 204.29836 319.191644 191.00259 309.326337 181.20093 
C 299.46103 171.39927 286.078924 165.891982 272.127273 165.891982 
C 258.175622 165.891982 244.793516 171.39927 234.928209 181.20093 
C 225.062901 191.00259 219.519852 204.29836 219.519852 218.16 
C 219.519852 232.02164 225.062901 245.31741 234.928209 255.11907 
C 244.793516 264.92073 258.175622 270.428018 272.127273 270.428018 
z
" clip-path="url(#p0f18bd0fb6)" style="fill: #0871b7; fill-opacity: 0.752941; stroke: #231f20; stroke-linejoin: miter"/>
   </g>
   <g id="patch_114">
    <path d="M 221.4 220.028018 
C 235.351651 220.028018 248.733757 214.52073 258.599064 204.71907 
C 268.464371 194.91741 274.007421 181.62164 274.007421 167.76 
C 274.007421 153.89836 268.464371 140.60259 258.599064 130.80093 
C 248.733757 120.99927 235.351651 115.491982 221.4 115.491982 
C 207.448349 115.491982 194.066243 120.99927 184.200936 130.80093 
C 174.335629 140.60259 168.792579 153.89836 168.792579 167.76 
C 168.792579 181.62164 174.335629 194.91741 184.200936 204.71907 
C 194.066243 214.52073 207.448349 220.028018 221.4 220.028018 
z
" clip-path="url(#p0f18bd0fb6)" style="fill: #0871b7; fill-opacity: 0.752941; stroke: #231f20; stroke-linejoin: miter"/>
   </g>
   <g id="patch_115">
    <path d="M 196.036364 311.2305 
C 214.15271 311.2305 231.529497 304.079236 244.339689 291.351691 
C 257.14988 278.624146 264.347581 261.359467 264.347581 243.36 
C 264.347581 225.360533 257.14988 208.095854 244.339689 195.368309 
C 231.529497 182.640764 214.15271 175.4895 196.036364 175.4895 
C 177.920017 175.4895 160.54323 182.640764 147.733038 195.368309 
C 134.922847 208.095854 127.725146 225.360533 127.725146 243.36 
C 127.725146 261.359467 134.922847 278.624146 147.733038 291.351691 
C 160.54323 304.079236 177.920017 311.2305 196.036364 311.2305 
z
" clip-path="url(#p0f18bd0fb6)" style="fill: #0871b7; fill-opacity: 0.752941; stroke: #231f20; stroke-linejoin: miter"/>
   </g>
   <g id="patch_116">
    <path d="M 246.763636 260.8305 
C 264.879983 260.8305 282.25677 253.679236 295.066962 240.951691 
C 307.877153 228.224146 315.074854 210.959467 315.074854 192.96 
C 315.074854 174.960533 307.877153 157.695854 295.066962 144.968309 
C 282.25677 132.240764 264.879983 125.0895 246.763636 125.0895 
C 228.64729 125.0895 211.270503 132.240764 198.460311 144.968309 
C 185.65012 157.695854 178.452419 174.960533 178.452419 192.96 
C 178.452419 210.959467 185.65012 228.224146 198.460311 240.951691 
C 211.270503 253.679236 228.64729 260.8305 246.763636 260.8305 
z
" clip-path="url(#p0f18bd0fb6)" style="fill: #0871b7; fill-opacity: 0.752941; stroke: #231f20; stroke-linejoin: miter"/>
   </g>
   <g id="patch_117">
    <path d="M 246.763636 311.2305 
C 264.879983 311.2305 282.25677 304.079236 295.066962 291.351691 
C 307.877153 278.624146 315.074854 261.359467 315.074854 243.36 
C 315.074854 225.360533 307.877153 208.095854 295.066962 195.368309 
C 282.25677 182.640764 264.879983 175.4895 246.763636 175.4895 
C 228.64729 175.4895 211.270503 182.640764 198.460311 195.368309 
C 185.65012 208.095854 178.452419 225.360533 178.452419 243.36 
C 178.452419 261.359467 185.65012 278.624146 198.460311 291.351691 
C 211.270503 304.079236 228.64729 311.2305 246.763636 311.2305 
z
" clip-path="url(#p0f18bd0fb6)" style="fill: #0871b7; fill-opacity: 0.752941; stroke: #231f20; stroke-linejoin: miter"/>
   </g>
   <g id="patch_118">
    <path d="M 196.036364 260.8305 
C 214.15271 260.8305 231.529497 253.679236 244.339689 240.951691 
C 257.14988 228.224146 264.347581 210.959467 264.347581 192.96 
C 264.347581 174.960533 257.14988 157.695854 244.339689 144.968309 
C 231.529497 132.240764 214.15271 125.0895 196.036364 125.0895 
C 177.920017 125.0895 160.54323 132.240764 147.733038 144.968309 
C 134.922847 157.695854 127.725146 174.960533 127.725146 192.96 
C 127.725146 210.959467 134.922847 228.224146 147.733038 240.951691 
C 160.54323 253.679236 177.920017 260.8305 196.036364 260.8305 
z
" clip-path="url(#p0f18bd0fb6)" style="fill: #0871b7; fill-opacity: 0.752941; stroke: #231f20; stroke-linejoin: miter"/>
   </g>
   <g id="patch_119">
    <path d="M 246.763636 288.065828 
C 265.423263 288.065828 283.321152 280.700109 296.515501 267.590885 
C 309.70985 254.481661 317.123398 236.699242 317.123398 218.16 
C 317.123398 199.620758 309.70985 181.838339 296.515501 168.729115 
C 283.321152 155.619891 265.423263 148.254172 246.763636 148.254172 
C 228.104009 148.254172 210.20612 155.619891 197.011771 168.729115 
C 183.817423 181.838339 176.403874 199.620758 176.403874 218.16 
C 176.403874 236.699242 183.817423 254.481661 197.011771 267.590885 
C 210.20612 280.700109 228.104009 288.065828 246.763636 288.065828 
z
" clip-path="url(#p0f18bd0fb6)" style="fill: #b74e08; fill-opacity: 0.752941; stroke: #231f20; stroke-linejoin: miter"/>
   </g>
   <g id="patch_120">
    <path d="M 221.4 262.865828 
C 240.059627 262.865828 257.957516 255.500109 271.151865 242.390885 
C 284.346214 229.281661 291.759762 211.499242 291.759762 192.96 
C 291.759762 174.420758 284.346214 156.638339 271.151865 143.529115 
C 257.957516 130.419891 240.059627 123.054172 221.4 123.054172 
C 202.740373 123.054172 184.842484 130.419891 171.648135 143.529115 
C 158.453786 156.638339 151.040238 174.420758 151.040238 192.96 
C 151.040238 211.499242 158.453786 229.281661 171.648135 242.390885 
C 184.842484 255.500109 202.740373 262.865828 221.4 262.865828 
z
" clip-path="url(#p0f18bd0fb6)" style="fill: #b74e08; fill-opacity: 0.752941; stroke: #231f20; stroke-linejoin: miter"/>
   </g>
   <g id="patch_121">
    <path d="M 221.4 313.265828 
C 240.059627 313.265828 257.957516 305.900109 271.151865 292.790885 
C 284.346214 279.681661 291.759762 261.899242 291.759762 243.36 
C 291.759762 224.820758 284.346214 207.038339 271.151865 193.929115 
C 257.957516 180.819891 240.059627 173.454172 221.4 173.454172 
C 202.740373 173.454172 184.842484 180.819891 171.648135 193.929115 
C 158.453786 207.038339 151.040238 224.820758 151.040238 243.36 
C 151.040238 261.899242 158.453786 279.681661 171.648135 292.790885 
C 184.842484 305.900109 202.740373 313.265828 221.4 313.265828 
z
" clip-path="url(#p0f18bd0fb6)" style="fill: #b74e08; fill-opacity: 0.752941; stroke: #231f20; stroke-linejoin: miter"/>
   </g>
   <g id="patch_122">
    <path d="M 196.036364 288.065828 
C 214.695991 288.065828 232.59388 280.700109 245.788229 267.590885 
C 258.982577 254.481661 266.396126 236.699242 266.396126 218.16 
C 266.396126 199.620758 258.982577 181.838339 245.788229 168.729115 
C 232.59388 155.619891 214.695991 148.254172 196.036364 148.254172 
C 177.376737 148.254172 159.478848 155.619891 146.284499 168.729115 
C 133.09015 181.838339 125.676602 199.620758 125.676602 218.16 
C 125.676602 236.699242 133.09015 254.481661 146.284499 267.590885 
C 159.478848 280.700109 177.376737 288.065828 196.036364 288.065828 
z
" clip-path="url(#p0f18bd0fb6)" style="fill: #b74e08; fill-opacity: 0.752941; stroke: #231f20; stroke-linejoin: miter"/>
   </g>
   <g id="patch_123">
    <path d="M 221.4 290.162193 
C 240.6192 290.162193 259.053818 282.575587 272.643844 269.073239 
C 286.23387 255.57089 293.869739 237.255205 293.869739 218.16 
C 293.869739 199.064795 286.23387 180.74911 272.643844 167.246761 
C 259.053818 153.744413 240.6192 146.157807 221.4 146.157807 
C 202.1808 146.157807 183.746182 153.744413 170.156156 167.246761 
C 156.56613 180.74911 148.930261 199.064795 148.930261 218.16 
C 148.930261 237.255205 156.56613 255.57089 170.156156 269.073239 
C 183.746182 282.575587 202.1808 290.162193 221.4 290.162193 
z
" clip-path="url(#p0f18bd0fb6)" style="fill: #0871b7; fill-opacity: 0.752941; stroke: #231f20; stroke-linejoin: miter"/>
   </g>
  </g>
 </g>
 <defs>
  <clipPath id="p0f18bd0fb6">
   <rect x="54" y="51.84" width="334.8" height="332.64"/>
  </clipPath>
 </defs>
</svg>
