<?xml version="1.0" encoding="utf-8" standalone="no"?>
<!DOCTYPE svg PUBLIC "-//W3C//DTD SVG 1.1//EN"
  "http://www.w3.org/Graphics/SVG/1.1/DTD/svg11.dtd">
<svg xmlns:xlink="http://www.w3.org/1999/xlink" width="432pt" height="432pt" viewBox="0 0 432 432" xmlns="http://www.w3.org/2000/svg" version="1.1">
 <metadata>
  <rdf:RDF xmlns:dc="http://purl.org/dc/elements/1.1/" xmlns:cc="http://creativecommons.org/ns#" xmlns:rdf="http://www.w3.org/1999/02/22-rdf-syntax-ns#">
   <cc:Work>
    <dc:type rdf:resource="http://purl.org/dc/dcmitype/StillImage"/>
    <dc:date>2025-03-02T17:55:05.506080</dc:date>
    <dc:format>image/svg+xml</dc:format>
    <dc:creator>
     <cc:Agent>
      <dc:title>Matplotlib v3.10.0, https://matplotlib.org/</dc:title>
     </cc:Agent>
    </dc:creator>
   </cc:Work>
  </rdf:RDF>
 </metadata>
 <defs>
  <style type="text/css">*{stroke-linejoin: round; stroke-linecap: butt}</style>
 </defs>
 <g id="figure_1">
  <g id="patch_1">
   <path d="M 0 432 
L 432 432 
L 432 0 
L 0 0 
z
" style="fill: #ffffff"/>
  </g>
  <g id="axes_1">
   <g id="patch_2">
    <path d="M 81.9 356.76 
L 360.9 356.76 
L 360.9 79.56 
L 81.9 79.56 
L 81.9 356.76 
z
" clip-path="url(#p28b34c809d)" style="fill: none; stroke: #969696; stroke-width: 1.5; stroke-linejoin: miter"/>
   </g>
   <g id="patch_3">
    <path d="M 91.320503 350.368471 
C 92.112789 350.368471 92.872732 350.055724 93.432964 349.499107 
C 93.993195 348.94249 94.307974 348.18745 94.307974 347.400275 
C 94.307974 346.6131 93.993195 345.858059 93.432964 345.301443 
C 92.872732 344.744826 92.112789 344.432078 91.320503 344.432078 
C 90.528216 344.432078 89.768273 344.744826 89.208042 345.301443 
C 88.647811 345.858059 88.333032 346.6131 88.333032 347.400275 
C 88.333032 348.18745 88.647811 348.94249 89.208042 349.499107 
C 89.768273 350.055724 90.528216 350.368471 91.320503 350.368471 
z
" clip-path="url(#p28b34c809d)" style="fill: #0871b7; fill-opacity: 0.752941; stroke: #231f20; stroke-linejoin: miter"/>
   </g>
   <g id="patch_4">
    <path d="M 351.479497 350.368471 
C 352.271784 350.368471 353.031727 350.055724 353.591958 349.499107 
C 354.152189 348.94249 354.466968 348.18745 354.466968 347.400275 
C 354.466968 346.6131 354.152189 345.858059 353.591958 345.301443 
C 353.031727 344.744826 352.271784 344.432078 351.479497 344.432078 
C 350.687211 344.432078 349.927268 344.744826 349.367036 345.301443 
C 348.806805 345.858059 348.492026 346.6131 348.492026 347.400275 
C 348.492026 348.18745 348.806805 348.94249 349.367036 349.499107 
C 349.927268 350.055724 350.687211 350.368471 351.479497 350.368471 
z
" clip-path="url(#p28b34c809d)" style="fill: #0871b7; fill-opacity: 0.752941; stroke: #231f20; stroke-linejoin: miter"/>
   </g>
   <g id="patch_5">
    <path d="M 91.320503 91.887922 
C 92.112789 91.887922 92.872732 91.575174 93.432964 91.018557 
C 93.993195 90.461941 94.307974 89.7069 94.307974 88.919725 
C 94.307974 88.13255 93.993195 87.37751 93.432964 86.820893 
C 92.872732 86.264276 92.112789 85.951529 91.320503 85.951529 
C 90.528216 85.951529 89.768273 86.264276 89.208042 86.820893 
C 88.647811 87.37751 88.333032 88.13255 88.333032 88.919725 
C 88.333032 89.7069 88.647811 90.461941 89.208042 91.018557 
C 89.768273 91.575174 90.528216 91.887922 91.320503 91.887922 
z
" clip-path="url(#p28b34c809d)" style="fill: #0871b7; fill-opacity: 0.752941; stroke: #231f20; stroke-linejoin: miter"/>
   </g>
   <g id="patch_6">
    <path d="M 351.479497 91.887922 
C 352.271784 91.887922 353.031727 91.575174 353.591958 91.018557 
C 354.152189 90.461941 354.466968 89.7069 354.466968 88.919725 
C 354.466968 88.13255 354.152189 87.37751 353.591958 86.820893 
C 353.031727 86.264276 352.271784 85.951529 351.479497 85.951529 
C 350.687211 85.951529 349.927268 86.264276 349.367036 86.820893 
C 348.806805 87.37751 348.492026 88.13255 348.492026 88.919725 
C 348.492026 89.7069 348.806805 90.461941 349.367036 91.018557 
C 349.927268 91.575174 350.687211 91.887922 351.479497 91.887922 
z
" clip-path="url(#p28b34c809d)" style="fill: #0871b7; fill-opacity: 0.752941; stroke: #231f20; stroke-linejoin: miter"/>
   </g>
   <g id="patch_7">
    <path d="M 129.161291 351.707456 
C 130.310986 351.707456 131.413747 351.253624 132.226704 350.445911 
C 133.039661 349.638199 133.49644 348.542552 133.49644 347.400275 
C 133.49644 346.257997 133.039661 345.16235 132.226704 344.354638 
C 131.413747 343.546926 130.310986 343.093094 129.161291 343.093094 
C 128.011595 343.093094 126.908834 343.546926 126.095877 344.354638 
C 125.28292 345.16235 124.826141 346.257997 124.826141 347.400275 
C 124.826141 348.542552 125.28292 349.638199 126.095877 350.445911 
C 126.908834 351.253624 128.011595 351.707456 129.161291 351.707456 
z
" clip-path="url(#p28b34c809d)" style="fill: #0871b7; fill-opacity: 0.752941; stroke: #231f20; stroke-linejoin: miter"/>
   </g>
   <g id="patch_8">
    <path d="M 313.638709 351.707456 
C 314.788405 351.707456 315.891166 351.253624 316.704123 350.445911 
C 317.51708 349.638199 317.973859 348.542552 317.973859 347.400275 
C 317.973859 346.257997 317.51708 345.16235 316.704123 344.354638 
C 315.891166 343.546926 314.788405 343.093094 313.638709 343.093094 
C 312.489014 343.093094 311.386253 343.546926 310.573296 344.354638 
C 309.760339 345.16235 309.30356 346.257997 309.30356 347.400275 
C 309.30356 348.542552 309.760339 349.638199 310.573296 350.445911 
C 311.386253 351.253624 312.489014 351.707456 313.638709 351.707456 
z
" clip-path="url(#p28b34c809d)" style="fill: #0871b7; fill-opacity: 0.752941; stroke: #231f20; stroke-linejoin: miter"/>
   </g>
   <g id="patch_9">
    <path d="M 91.320503 314.110802 
C 92.470198 314.110802 93.572959 313.65697 94.385916 312.849258 
C 95.198874 312.041545 95.655652 310.945899 95.655652 309.803621 
C 95.655652 308.661343 95.198874 307.565697 94.385916 306.757984 
C 93.572959 305.950272 92.470198 305.49644 91.320503 305.49644 
C 90.170808 305.49644 89.068046 305.950272 88.255089 306.757984 
C 87.442132 307.565697 86.985353 308.661343 86.985353 309.803621 
C 86.985353 310.945899 87.442132 312.041545 88.255089 312.849258 
C 89.068046 313.65697 90.170808 314.110802 91.320503 314.110802 
z
" clip-path="url(#p28b34c809d)" style="fill: #0871b7; fill-opacity: 0.752941; stroke: #231f20; stroke-linejoin: miter"/>
   </g>
   <g id="patch_10">
    <path d="M 351.479497 314.110802 
C 352.629192 314.110802 353.731954 313.65697 354.544911 312.849258 
C 355.357868 312.041545 355.814647 310.945899 355.814647 309.803621 
C 355.814647 308.661343 355.357868 307.565697 354.544911 306.757984 
C 353.731954 305.950272 352.629192 305.49644 351.479497 305.49644 
C 350.329802 305.49644 349.227041 305.950272 348.414084 306.757984 
C 347.601126 307.565697 347.144348 308.661343 347.144348 309.803621 
C 347.144348 310.945899 347.601126 312.041545 348.414084 312.849258 
C 349.227041 313.65697 350.329802 314.110802 351.479497 314.110802 
z
" clip-path="url(#p28b34c809d)" style="fill: #0871b7; fill-opacity: 0.752941; stroke: #231f20; stroke-linejoin: miter"/>
   </g>
   <g id="patch_11">
    <path d="M 91.320503 130.82356 
C 92.470198 130.82356 93.572959 130.369728 94.385916 129.562016 
C 95.198874 128.754303 95.655652 127.658657 95.655652 126.516379 
C 95.655652 125.374101 95.198874 124.278455 94.385916 123.470742 
C 93.572959 122.66303 92.470198 122.209198 91.320503 122.209198 
C 90.170808 122.209198 89.068046 122.66303 88.255089 123.470742 
C 87.442132 124.278455 86.985353 125.374101 86.985353 126.516379 
C 86.985353 127.658657 87.442132 128.754303 88.255089 129.562016 
C 89.068046 130.369728 90.170808 130.82356 91.320503 130.82356 
z
" clip-path="url(#p28b34c809d)" style="fill: #0871b7; fill-opacity: 0.752941; stroke: #231f20; stroke-linejoin: miter"/>
   </g>
   <g id="patch_12">
    <path d="M 351.479497 130.82356 
C 352.629192 130.82356 353.731954 130.369728 354.544911 129.562016 
C 355.357868 128.754303 355.814647 127.658657 355.814647 126.516379 
C 355.814647 125.374101 355.357868 124.278455 354.544911 123.470742 
C 353.731954 122.66303 352.629192 122.209198 351.479497 122.209198 
C 350.329802 122.209198 349.227041 122.66303 348.414084 123.470742 
C 347.601126 124.278455 347.144348 125.374101 347.144348 126.516379 
C 347.144348 127.658657 347.601126 128.754303 348.414084 129.562016 
C 349.227041 130.369728 350.329802 130.82356 351.479497 130.82356 
z
" clip-path="url(#p28b34c809d)" style="fill: #0871b7; fill-opacity: 0.752941; stroke: #231f20; stroke-linejoin: miter"/>
   </g>
   <g id="patch_13">
    <path d="M 129.161291 93.226906 
C 130.310986 93.226906 131.413747 92.773074 132.226704 91.965362 
C 133.039661 91.15765 133.49644 90.062003 133.49644 88.919725 
C 133.49644 87.777448 133.039661 86.681801 132.226704 85.874089 
C 131.413747 85.066376 130.310986 84.612544 129.161291 84.612544 
C 128.011595 84.612544 126.908834 85.066376 126.095877 85.874089 
C 125.28292 86.681801 124.826141 87.777448 124.826141 88.919725 
C 124.826141 90.062003 125.28292 91.15765 126.095877 91.965362 
C 126.908834 92.773074 128.011595 93.226906 129.161291 93.226906 
z
" clip-path="url(#p28b34c809d)" style="fill: #0871b7; fill-opacity: 0.752941; stroke: #231f20; stroke-linejoin: miter"/>
   </g>
   <g id="patch_14">
    <path d="M 313.638709 93.226906 
C 314.788405 93.226906 315.891166 92.773074 316.704123 91.965362 
C 317.51708 91.15765 317.973859 90.062003 317.973859 88.919725 
C 317.973859 87.777448 317.51708 86.681801 316.704123 85.874089 
C 315.891166 85.066376 314.788405 84.612544 313.638709 84.612544 
C 312.489014 84.612544 311.386253 85.066376 310.573296 85.874089 
C 309.760339 86.681801 309.30356 87.777448 309.30356 88.919725 
C 309.30356 90.062003 309.760339 91.15765 310.573296 91.965362 
C 311.386253 92.773074 312.489014 93.226906 313.638709 93.226906 
z
" clip-path="url(#p28b34c809d)" style="fill: #0871b7; fill-opacity: 0.752941; stroke: #231f20; stroke-linejoin: miter"/>
   </g>
   <g id="patch_15">
    <path d="M 188.112624 352.305579 
C 189.421973 352.305579 190.677871 351.788725 191.603721 350.868849 
C 192.529571 349.948972 193.049781 348.701177 193.049781 347.400275 
C 193.049781 346.099373 192.529571 344.851577 191.603721 343.931701 
C 190.677871 343.011824 189.421973 342.49497 188.112624 342.49497 
C 186.803274 342.49497 185.547376 343.011824 184.621526 343.931701 
C 183.695677 344.851577 183.175467 346.099373 183.175467 347.400275 
C 183.175467 348.701177 183.695677 349.948972 184.621526 350.868849 
C 185.547376 351.788725 186.803274 352.305579 188.112624 352.305579 
z
" clip-path="url(#p28b34c809d)" style="fill: #0871b7; fill-opacity: 0.752941; stroke: #231f20; stroke-linejoin: miter"/>
   </g>
   <g id="patch_16">
    <path d="M 254.687376 352.305579 
C 255.996726 352.305579 257.252624 351.788725 258.178474 350.868849 
C 259.104323 349.948972 259.624533 348.701177 259.624533 347.400275 
C 259.624533 346.099373 259.104323 344.851577 258.178474 343.931701 
C 257.252624 343.011824 255.996726 342.49497 254.687376 342.49497 
C 253.378027 342.49497 252.122129 343.011824 251.196279 343.931701 
C 250.270429 344.851577 249.750219 346.099373 249.750219 347.400275 
C 249.750219 348.701177 250.270429 349.948972 251.196279 350.868849 
C 252.122129 351.788725 253.378027 352.305579 254.687376 352.305579 
z
" clip-path="url(#p28b34c809d)" style="fill: #0871b7; fill-opacity: 0.752941; stroke: #231f20; stroke-linejoin: miter"/>
   </g>
   <g id="patch_17">
    <path d="M 91.320503 256.137924 
C 92.629852 256.137924 93.88575 255.62107 94.8116 254.701193 
C 95.73745 253.781317 96.25766 252.533521 96.25766 251.232619 
C 96.25766 249.931717 95.73745 248.683922 94.8116 247.764045 
C 93.88575 246.844169 92.629852 246.327315 91.320503 246.327315 
C 90.011153 246.327315 88.755255 246.844169 87.829406 247.764045 
C 86.903556 248.683922 86.383346 249.931717 86.383346 251.232619 
C 86.383346 252.533521 86.903556 253.781317 87.829406 254.701193 
C 88.755255 255.62107 90.011153 256.137924 91.320503 256.137924 
z
" clip-path="url(#p28b34c809d)" style="fill: #0871b7; fill-opacity: 0.752941; stroke: #231f20; stroke-linejoin: miter"/>
   </g>
   <g id="patch_18">
    <path d="M 91.320503 189.992685 
C 92.629852 189.992685 93.88575 189.475831 94.8116 188.555955 
C 95.73745 187.636078 96.25766 186.388283 96.25766 185.087381 
C 96.25766 183.786479 95.73745 182.538683 94.8116 181.618807 
C 93.88575 180.69893 92.629852 180.182076 91.320503 180.182076 
C 90.011153 180.182076 88.755255 180.69893 87.829406 181.618807 
C 86.903556 182.538683 86.383346 183.786479 86.383346 185.087381 
C 86.383346 186.388283 86.903556 187.636078 87.829406 188.555955 
C 88.755255 189.475831 90.011153 189.992685 91.320503 189.992685 
z
" clip-path="url(#p28b34c809d)" style="fill: #0871b7; fill-opacity: 0.752941; stroke: #231f20; stroke-linejoin: miter"/>
   </g>
   <g id="patch_19">
    <path d="M 351.479497 256.137924 
C 352.788847 256.137924 354.044745 255.62107 354.970594 254.701193 
C 355.896444 253.781317 356.416654 252.533521 356.416654 251.232619 
C 356.416654 249.931717 355.896444 248.683922 354.970594 247.764045 
C 354.044745 246.844169 352.788847 246.327315 351.479497 246.327315 
C 350.170148 246.327315 348.91425 246.844169 347.9884 247.764045 
C 347.06255 248.683922 346.54234 249.931717 346.54234 251.232619 
C 346.54234 252.533521 347.06255 253.781317 347.9884 254.701193 
C 348.91425 255.62107 350.170148 256.137924 351.479497 256.137924 
z
" clip-path="url(#p28b34c809d)" style="fill: #0871b7; fill-opacity: 0.752941; stroke: #231f20; stroke-linejoin: miter"/>
   </g>
   <g id="patch_20">
    <path d="M 351.479497 189.992685 
C 352.788847 189.992685 354.044745 189.475831 354.970594 188.555955 
C 355.896444 187.636078 356.416654 186.388283 356.416654 185.087381 
C 356.416654 183.786479 355.896444 182.538683 354.970594 181.618807 
C 354.044745 180.69893 352.788847 180.182076 351.479497 180.182076 
C 350.170148 180.182076 348.91425 180.69893 347.9884 181.618807 
C 347.06255 182.538683 346.54234 183.786479 346.54234 185.087381 
C 346.54234 186.388283 347.06255 187.636078 347.9884 188.555955 
C 348.91425 189.475831 350.170148 189.992685 351.479497 189.992685 
z
" clip-path="url(#p28b34c809d)" style="fill: #0871b7; fill-opacity: 0.752941; stroke: #231f20; stroke-linejoin: miter"/>
   </g>
   <g id="patch_21">
    <path d="M 188.112624 93.82503 
C 189.421973 93.82503 190.677871 93.308176 191.603721 92.388299 
C 192.529571 91.468423 193.049781 90.220627 193.049781 88.919725 
C 193.049781 87.618823 192.529571 86.371028 191.603721 85.451151 
C 190.677871 84.531275 189.421973 84.014421 188.112624 84.014421 
C 186.803274 84.014421 185.547376 84.531275 184.621526 85.451151 
C 183.695677 86.371028 183.175467 87.618823 183.175467 88.919725 
C 183.175467 90.220627 183.695677 91.468423 184.621526 92.388299 
C 185.547376 93.308176 186.803274 93.82503 188.112624 93.82503 
z
" clip-path="url(#p28b34c809d)" style="fill: #0871b7; fill-opacity: 0.752941; stroke: #231f20; stroke-linejoin: miter"/>
   </g>
   <g id="patch_22">
    <path d="M 254.687376 93.82503 
C 255.996726 93.82503 257.252624 93.308176 258.178474 92.388299 
C 259.104323 91.468423 259.624533 90.220627 259.624533 88.919725 
C 259.624533 87.618823 259.104323 86.371028 258.178474 85.451151 
C 257.252624 84.531275 255.996726 84.014421 254.687376 84.014421 
C 253.378027 84.014421 252.122129 84.531275 251.196279 85.451151 
C 250.270429 86.371028 249.750219 87.618823 249.750219 88.919725 
C 249.750219 90.220627 250.270429 91.468423 251.196279 92.388299 
C 252.122129 93.308176 253.378027 93.82503 254.687376 93.82503 
z
" clip-path="url(#p28b34c809d)" style="fill: #0871b7; fill-opacity: 0.752941; stroke: #231f20; stroke-linejoin: miter"/>
   </g>
   <g id="patch_23">
    <path d="M 129.161291 316.053815 
C 130.829625 316.053815 132.429853 315.395255 133.609544 314.223176 
C 134.789234 313.051096 135.452071 311.461192 135.452071 309.803621 
C 135.452071 308.14605 134.789234 306.556146 133.609544 305.384066 
C 132.429853 304.211987 130.829625 303.553427 129.161291 303.553427 
C 127.492956 303.553427 125.892728 304.211987 124.713037 305.384066 
C 123.533347 306.556146 122.870511 308.14605 122.870511 309.803621 
C 122.870511 311.461192 123.533347 313.051096 124.713037 314.223176 
C 125.892728 315.395255 127.492956 316.053815 129.161291 316.053815 
z
" clip-path="url(#p28b34c809d)" style="fill: #0871b7; fill-opacity: 0.752941; stroke: #231f20; stroke-linejoin: miter"/>
   </g>
   <g id="patch_24">
    <path d="M 313.638709 316.053815 
C 315.307044 316.053815 316.907272 315.395255 318.086963 314.223176 
C 319.266653 313.051096 319.929489 311.461192 319.929489 309.803621 
C 319.929489 308.14605 319.266653 306.556146 318.086963 305.384066 
C 316.907272 304.211987 315.307044 303.553427 313.638709 303.553427 
C 311.970375 303.553427 310.370147 304.211987 309.190456 305.384066 
C 308.010766 306.556146 307.347929 308.14605 307.347929 309.803621 
C 307.347929 311.461192 308.010766 313.051096 309.190456 314.223176 
C 310.370147 315.395255 311.970375 316.053815 313.638709 316.053815 
z
" clip-path="url(#p28b34c809d)" style="fill: #0871b7; fill-opacity: 0.752941; stroke: #231f20; stroke-linejoin: miter"/>
   </g>
   <g id="patch_25">
    <path d="M 129.161291 132.766573 
C 130.829625 132.766573 132.429853 132.108013 133.609544 130.935934 
C 134.789234 129.763854 135.452071 128.17395 135.452071 126.516379 
C 135.452071 124.858808 134.789234 123.268904 133.609544 122.096824 
C 132.429853 120.924745 130.829625 120.266185 129.161291 120.266185 
C 127.492956 120.266185 125.892728 120.924745 124.713037 122.096824 
C 123.533347 123.268904 122.870511 124.858808 122.870511 126.516379 
C 122.870511 128.17395 123.533347 129.763854 124.713037 130.935934 
C 125.892728 132.108013 127.492956 132.766573 129.161291 132.766573 
z
" clip-path="url(#p28b34c809d)" style="fill: #0871b7; fill-opacity: 0.752941; stroke: #231f20; stroke-linejoin: miter"/>
   </g>
   <g id="patch_26">
    <path d="M 313.638709 132.766573 
C 315.307044 132.766573 316.907272 132.108013 318.086963 130.935934 
C 319.266653 129.763854 319.929489 128.17395 319.929489 126.516379 
C 319.929489 124.858808 319.266653 123.268904 318.086963 122.096824 
C 316.907272 120.924745 315.307044 120.266185 313.638709 120.266185 
C 311.970375 120.266185 310.370147 120.924745 309.190456 122.096824 
C 308.010766 123.268904 307.347929 124.858808 307.347929 126.516379 
C 307.347929 128.17395 308.010766 129.763854 309.190456 130.935934 
C 310.370147 132.108013 311.970375 132.766573 313.638709 132.766573 
z
" clip-path="url(#p28b34c809d)" style="fill: #0871b7; fill-opacity: 0.752941; stroke: #231f20; stroke-linejoin: miter"/>
   </g>
   <g id="patch_27">
    <path d="M 188.112624 316.921758 
C 190.012634 316.921758 191.83508 316.171747 193.17859 314.836904 
C 194.522101 313.502062 195.276983 311.691373 195.276983 309.803621 
C 195.276983 307.915869 194.522101 306.10518 193.17859 304.770338 
C 191.83508 303.435495 190.012634 302.685484 188.112624 302.685484 
C 186.212613 302.685484 184.390167 303.435495 183.046657 304.770338 
C 181.703147 306.10518 180.948264 307.915869 180.948264 309.803621 
C 180.948264 311.691373 181.703147 313.502062 183.046657 314.836904 
C 184.390167 316.171747 186.212613 316.921758 188.112624 316.921758 
z
" clip-path="url(#p28b34c809d)" style="fill: #0871b7; fill-opacity: 0.752941; stroke: #231f20; stroke-linejoin: miter"/>
   </g>
   <g id="patch_28">
    <path d="M 129.161291 258.350757 
C 131.061301 258.350757 132.883747 257.600745 134.227257 256.265902 
C 135.570768 254.93106 136.32565 253.120371 136.32565 251.232619 
C 136.32565 249.344867 135.570768 247.534178 134.227257 246.199336 
C 132.883747 244.864494 131.061301 244.114482 129.161291 244.114482 
C 127.26128 244.114482 125.438834 244.864494 124.095324 246.199336 
C 122.751814 247.534178 121.996931 249.344867 121.996931 251.232619 
C 121.996931 253.120371 122.751814 254.93106 124.095324 256.265902 
C 125.438834 257.600745 127.26128 258.350757 129.161291 258.350757 
z
" clip-path="url(#p28b34c809d)" style="fill: #0871b7; fill-opacity: 0.752941; stroke: #231f20; stroke-linejoin: miter"/>
   </g>
   <g id="patch_29">
    <path d="M 254.687376 316.921758 
C 256.587387 316.921758 258.409833 316.171747 259.753343 314.836904 
C 261.096853 313.502062 261.851736 311.691373 261.851736 309.803621 
C 261.851736 307.915869 261.096853 306.10518 259.753343 304.770338 
C 258.409833 303.435495 256.587387 302.685484 254.687376 302.685484 
C 252.787366 302.685484 250.96492 303.435495 249.62141 304.770338 
C 248.277899 306.10518 247.523017 307.915869 247.523017 309.803621 
C 247.523017 311.691373 248.277899 313.502062 249.62141 314.836904 
C 250.96492 316.171747 252.787366 316.921758 254.687376 316.921758 
z
" clip-path="url(#p28b34c809d)" style="fill: #0871b7; fill-opacity: 0.752941; stroke: #231f20; stroke-linejoin: miter"/>
   </g>
   <g id="patch_30">
    <path d="M 129.161291 192.205518 
C 131.061301 192.205518 132.883747 191.455506 134.227257 190.120664 
C 135.570768 188.785822 136.32565 186.975133 136.32565 185.087381 
C 136.32565 183.199629 135.570768 181.38894 134.227257 180.054098 
C 132.883747 178.719255 131.061301 177.969243 129.161291 177.969243 
C 127.26128 177.969243 125.438834 178.719255 124.095324 180.054098 
C 122.751814 181.38894 121.996931 183.199629 121.996931 185.087381 
C 121.996931 186.975133 122.751814 188.785822 124.095324 190.120664 
C 125.438834 191.455506 127.26128 192.205518 129.161291 192.205518 
z
" clip-path="url(#p28b34c809d)" style="fill: #0871b7; fill-opacity: 0.752941; stroke: #231f20; stroke-linejoin: miter"/>
   </g>
   <g id="patch_31">
    <path d="M 313.638709 192.205518 
C 315.53872 192.205518 317.361166 191.455506 318.704676 190.120664 
C 320.048186 188.785822 320.803069 186.975133 320.803069 185.087381 
C 320.803069 183.199629 320.048186 181.38894 318.704676 180.054098 
C 317.361166 178.719255 315.53872 177.969243 313.638709 177.969243 
C 311.738699 177.969243 309.916253 178.719255 308.572743 180.054098 
C 307.229232 181.38894 306.47435 183.199629 306.47435 185.087381 
C 306.47435 186.975133 307.229232 188.785822 308.572743 190.120664 
C 309.916253 191.455506 311.738699 192.205518 313.638709 192.205518 
z
" clip-path="url(#p28b34c809d)" style="fill: #0871b7; fill-opacity: 0.752941; stroke: #231f20; stroke-linejoin: miter"/>
   </g>
   <g id="patch_32">
    <path d="M 254.687376 133.634516 
C 256.587387 133.634516 258.409833 132.884505 259.753343 131.549662 
C 261.096853 130.21482 261.851736 128.404131 261.851736 126.516379 
C 261.851736 124.628627 261.096853 122.817938 259.753343 121.483096 
C 258.409833 120.148253 256.587387 119.398242 254.687376 119.398242 
C 252.787366 119.398242 250.96492 120.148253 249.62141 121.483096 
C 248.277899 122.817938 247.523017 124.628627 247.523017 126.516379 
C 247.523017 128.404131 248.277899 130.21482 249.62141 131.549662 
C 250.96492 132.884505 252.787366 133.634516 254.687376 133.634516 
z
" clip-path="url(#p28b34c809d)" style="fill: #0871b7; fill-opacity: 0.752941; stroke: #231f20; stroke-linejoin: miter"/>
   </g>
   <g id="patch_33">
    <path d="M 313.638709 258.350757 
C 315.53872 258.350757 317.361166 257.600745 318.704676 256.265902 
C 320.048186 254.93106 320.803069 253.120371 320.803069 251.232619 
C 320.803069 249.344867 320.048186 247.534178 318.704676 246.199336 
C 317.361166 244.864494 315.53872 244.114482 313.638709 244.114482 
C 311.738699 244.114482 309.916253 244.864494 308.572743 246.199336 
C 307.229232 247.534178 306.47435 249.344867 306.47435 251.232619 
C 306.47435 253.120371 307.229232 254.93106 308.572743 256.265902 
C 309.916253 257.600745 311.738699 258.350757 313.638709 258.350757 
z
" clip-path="url(#p28b34c809d)" style="fill: #0871b7; fill-opacity: 0.752941; stroke: #231f20; stroke-linejoin: miter"/>
   </g>
   <g id="patch_34">
    <path d="M 188.112624 133.634516 
C 190.012634 133.634516 191.83508 132.884505 193.17859 131.549662 
C 194.522101 130.21482 195.276983 128.404131 195.276983 126.516379 
C 195.276983 124.628627 194.522101 122.817938 193.17859 121.483096 
C 191.83508 120.148253 190.012634 119.398242 188.112624 119.398242 
C 186.212613 119.398242 184.390167 120.148253 183.046657 121.483096 
C 181.703147 122.817938 180.948264 124.628627 180.948264 126.516379 
C 180.948264 128.404131 181.703147 130.21482 183.046657 131.549662 
C 184.390167 132.884505 186.212613 133.634516 188.112624 133.634516 
z
" clip-path="url(#p28b34c809d)" style="fill: #0871b7; fill-opacity: 0.752941; stroke: #231f20; stroke-linejoin: miter"/>
   </g>
   <g id="patch_35">
    <path d="M 188.112624 259.339228 
C 190.276482 259.339228 192.352005 258.485065 193.882084 256.964857 
C 195.412163 255.44465 196.271873 253.382517 196.271873 251.232619 
C 196.271873 249.082721 195.412163 247.020588 193.882084 245.500381 
C 192.352005 243.980174 190.276482 243.12601 188.112624 243.12601 
C 185.948765 243.12601 183.873242 243.980174 182.343163 245.500381 
C 180.813084 247.020588 179.953374 249.082721 179.953374 251.232619 
C 179.953374 253.382517 180.813084 255.44465 182.343163 256.964857 
C 183.873242 258.485065 185.948765 259.339228 188.112624 259.339228 
z
" clip-path="url(#p28b34c809d)" style="fill: #0871b7; fill-opacity: 0.752941; stroke: #231f20; stroke-linejoin: miter"/>
   </g>
   <g id="patch_36">
    <path d="M 254.687376 259.339228 
C 256.851235 259.339228 258.926758 258.485065 260.456837 256.964857 
C 261.986916 255.44465 262.846626 253.382517 262.846626 251.232619 
C 262.846626 249.082721 261.986916 247.020588 260.456837 245.500381 
C 258.926758 243.980174 256.851235 243.12601 254.687376 243.12601 
C 252.523518 243.12601 250.447995 243.980174 248.917916 245.500381 
C 247.387837 247.020588 246.528127 249.082721 246.528127 251.232619 
C 246.528127 253.382517 247.387837 255.44465 248.917916 256.964857 
C 250.447995 258.485065 252.523518 259.339228 254.687376 259.339228 
z
" clip-path="url(#p28b34c809d)" style="fill: #0871b7; fill-opacity: 0.752941; stroke: #231f20; stroke-linejoin: miter"/>
   </g>
   <g id="patch_37">
    <path d="M 188.112624 193.19399 
C 190.276482 193.19399 192.352005 192.339826 193.882084 190.819619 
C 195.412163 189.299412 196.271873 187.237279 196.271873 185.087381 
C 196.271873 182.937483 195.412163 180.87535 193.882084 179.355143 
C 192.352005 177.834935 190.276482 176.980772 188.112624 176.980772 
C 185.948765 176.980772 183.873242 177.834935 182.343163 179.355143 
C 180.813084 180.87535 179.953374 182.937483 179.953374 185.087381 
C 179.953374 187.237279 180.813084 189.299412 182.343163 190.819619 
C 183.873242 192.339826 185.948765 193.19399 188.112624 193.19399 
z
" clip-path="url(#p28b34c809d)" style="fill: #0871b7; fill-opacity: 0.752941; stroke: #231f20; stroke-linejoin: miter"/>
   </g>
   <g id="patch_38">
    <path d="M 254.687376 193.19399 
C 256.851235 193.19399 258.926758 192.339826 260.456837 190.819619 
C 261.986916 189.299412 262.846626 187.237279 262.846626 185.087381 
C 262.846626 182.937483 261.986916 180.87535 260.456837 179.355143 
C 258.926758 177.834935 256.851235 176.980772 254.687376 176.980772 
C 252.523518 176.980772 250.447995 177.834935 248.917916 179.355143 
C 247.387837 180.87535 246.528127 182.937483 246.528127 185.087381 
C 246.528127 187.237279 247.387837 189.299412 248.917916 190.819619 
C 250.447995 192.339826 252.523518 193.19399 254.687376 193.19399 
z
" clip-path="url(#p28b34c809d)" style="fill: #0871b7; fill-opacity: 0.752941; stroke: #231f20; stroke-linejoin: miter"/>
   </g>
  </g>
 </g>
 <defs>
  <clipPath id="p28b34c809d">
   <rect x="54" y="51.84" width="334.8" height="332.64"/>
  </clipPath>
 </defs>
</svg>
