<?xml version="1.0" encoding="utf-8" standalone="no"?>
<!DOCTYPE svg PUBLIC "-//W3C//DTD SVG 1.1//EN"
  "http://www.w3.org/Graphics/SVG/1.1/DTD/svg11.dtd">
<svg xmlns:xlink="http://www.w3.org/1999/xlink" width="432pt" height="432pt" viewBox="0 0 432 432" xmlns="http://www.w3.org/2000/svg" version="1.1">
 <metadata>
  <rdf:RDF xmlns:dc="http://purl.org/dc/elements/1.1/" xmlns:cc="http://creativecommons.org/ns#" xmlns:rdf="http://www.w3.org/1999/02/22-rdf-syntax-ns#">
   <cc:Work>
    <dc:type rdf:resource="http://purl.org/dc/dcmitype/StillImage"/>
    <dc:date>2025-03-02T17:55:07.375561</dc:date>
    <dc:format>image/svg+xml</dc:format>
    <dc:creator>
     <cc:Agent>
      <dc:title>Matplotlib v3.10.0, https://matplotlib.org/</dc:title>
     </cc:Agent>
    </dc:creator>
   </cc:Work>
  </rdf:RDF>
 </metadata>
 <defs>
  <style type="text/css">*{stroke-linejoin: round; stroke-linecap: butt}</style>
 </defs>
 <g id="figure_1">
  <g id="patch_1">
   <path d="M 0 432 
L 432 432 
L 432 0 
L 0 0 
z
" style="fill: #ffffff"/>
  </g>
  <g id="axes_1">
   <g id="patch_2">
    <path d="M 81.9 356.76 
L 360.9 356.76 
L 360.9 79.56 
L 81.9 79.56 
L 81.9 356.76 
z
" clip-path="url(#pf2a6b3ffc7)" style="fill: none; stroke: #969696; stroke-width: 1.5; stroke-linejoin: miter"/>
   </g>
   <g id="patch_3">
    <path d="M 81.9 357.968778 
C 82.222653 357.968778 82.532135 357.841413 82.760285 357.614735 
C 82.988435 357.388057 83.116627 357.080572 83.116627 356.76 
C 83.116627 356.439428 82.988435 356.131943 82.760285 355.905265 
C 82.532135 355.678587 82.222653 355.551222 81.9 355.551222 
C 81.577347 355.551222 81.267865 355.678587 81.039715 355.905265 
C 80.811565 356.131943 80.683373 356.439428 80.683373 356.76 
C 80.683373 357.080572 80.811565 357.388057 81.039715 357.614735 
C 81.267865 357.841413 81.577347 357.968778 81.9 357.968778 
z
" clip-path="url(#pf2a6b3ffc7)" style="fill: #0871b7; fill-opacity: 0.752941; stroke: #231f20; stroke-linejoin: miter"/>
   </g>
   <g id="patch_4">
    <path d="M 360.9 357.968778 
C 361.222653 357.968778 361.532135 357.841413 361.760285 357.614735 
C 361.988435 357.388057 362.116627 357.080572 362.116627 356.76 
C 362.116627 356.439428 361.988435 356.131943 361.760285 355.905265 
C 361.532135 355.678587 361.222653 355.551222 360.9 355.551222 
C 360.577347 355.551222 360.267865 355.678587 360.039715 355.905265 
C 359.811565 356.131943 359.683373 356.439428 359.683373 356.76 
C 359.683373 357.080572 359.811565 357.388057 360.039715 357.614735 
C 360.267865 357.841413 360.577347 357.968778 360.9 357.968778 
z
" clip-path="url(#pf2a6b3ffc7)" style="fill: #0871b7; fill-opacity: 0.752941; stroke: #231f20; stroke-linejoin: miter"/>
   </g>
   <g id="patch_5">
    <path d="M 81.9 80.768778 
C 82.222653 80.768778 82.532135 80.641413 82.760285 80.414735 
C 82.988435 80.188057 83.116627 79.880572 83.116627 79.56 
C 83.116627 79.239428 82.988435 78.931943 82.760285 78.705265 
C 82.532135 78.478587 82.222653 78.351222 81.9 78.351222 
C 81.577347 78.351222 81.267865 78.478587 81.039715 78.705265 
C 80.811565 78.931943 80.683373 79.239428 80.683373 79.56 
C 80.683373 79.880572 80.811565 80.188057 81.039715 80.414735 
C 81.267865 80.641413 81.577347 80.768778 81.9 80.768778 
z
" clip-path="url(#pf2a6b3ffc7)" style="fill: #0871b7; fill-opacity: 0.752941; stroke: #231f20; stroke-linejoin: miter"/>
   </g>
   <g id="patch_6">
    <path d="M 360.9 80.768778 
C 361.222653 80.768778 361.532135 80.641413 361.760285 80.414735 
C 361.988435 80.188057 362.116627 79.880572 362.116627 79.56 
C 362.116627 79.239428 361.988435 78.931943 361.760285 78.705265 
C 361.532135 78.478587 361.222653 78.351222 360.9 78.351222 
C 360.577347 78.351222 360.267865 78.478587 360.039715 78.705265 
C 359.811565 78.931943 359.683373 79.239428 359.683373 79.56 
C 359.683373 79.880572 359.811565 80.188057 360.039715 80.414735 
C 360.267865 80.641413 360.577347 80.768778 360.9 80.768778 
z
" clip-path="url(#pf2a6b3ffc7)" style="fill: #0871b7; fill-opacity: 0.752941; stroke: #231f20; stroke-linejoin: miter"/>
   </g>
   <g id="patch_7">
    <path d="M 116.775 359.70939 
C 117.562267 359.70939 118.317395 359.398624 118.874076 358.845534 
C 119.430758 358.292444 119.743542 357.542187 119.743542 356.76 
C 119.743542 355.977813 119.430758 355.227556 118.874076 354.674466 
C 118.317395 354.121376 117.562267 353.81061 116.775 353.81061 
C 115.987733 353.81061 115.232605 354.121376 114.675924 354.674466 
C 114.119242 355.227556 113.806458 355.977813 113.806458 356.76 
C 113.806458 357.542187 114.119242 358.292444 114.675924 358.845534 
C 115.232605 359.398624 115.987733 359.70939 116.775 359.70939 
z
" clip-path="url(#pf2a6b3ffc7)" style="fill: #0871b7; fill-opacity: 0.752941; stroke: #231f20; stroke-linejoin: miter"/>
   </g>
   <g id="patch_8">
    <path d="M 326.025 359.70939 
C 326.812267 359.70939 327.567395 359.398624 328.124076 358.845534 
C 328.680758 358.292444 328.993542 357.542187 328.993542 356.76 
C 328.993542 355.977813 328.680758 355.227556 328.124076 354.674466 
C 327.567395 354.121376 326.812267 353.81061 326.025 353.81061 
C 325.237733 353.81061 324.482605 354.121376 323.925924 354.674466 
C 323.369242 355.227556 323.056458 355.977813 323.056458 356.76 
C 323.056458 357.542187 323.369242 358.292444 323.925924 358.845534 
C 324.482605 359.398624 325.237733 359.70939 326.025 359.70939 
z
" clip-path="url(#pf2a6b3ffc7)" style="fill: #0871b7; fill-opacity: 0.752941; stroke: #231f20; stroke-linejoin: miter"/>
   </g>
   <g id="patch_9">
    <path d="M 81.9 325.05939 
C 82.687267 325.05939 83.442395 324.748624 83.999076 324.195534 
C 84.555758 323.642444 84.868542 322.892187 84.868542 322.11 
C 84.868542 321.327813 84.555758 320.577556 83.999076 320.024466 
C 83.442395 319.471376 82.687267 319.16061 81.9 319.16061 
C 81.112733 319.16061 80.357605 319.471376 79.800924 320.024466 
C 79.244242 320.577556 78.931458 321.327813 78.931458 322.11 
C 78.931458 322.892187 79.244242 323.642444 79.800924 324.195534 
C 80.357605 324.748624 81.112733 325.05939 81.9 325.05939 
z
" clip-path="url(#pf2a6b3ffc7)" style="fill: #0871b7; fill-opacity: 0.752941; stroke: #231f20; stroke-linejoin: miter"/>
   </g>
   <g id="patch_10">
    <path d="M 360.9 325.05939 
C 361.687267 325.05939 362.442395 324.748624 362.999076 324.195534 
C 363.555758 323.642444 363.868542 322.892187 363.868542 322.11 
C 363.868542 321.327813 363.555758 320.577556 362.999076 320.024466 
C 362.442395 319.471376 361.687267 319.16061 360.9 319.16061 
C 360.112733 319.16061 359.357605 319.471376 358.800924 320.024466 
C 358.244242 320.577556 357.931458 321.327813 357.931458 322.11 
C 357.931458 322.892187 358.244242 323.642444 358.800924 324.195534 
C 359.357605 324.748624 360.112733 325.05939 360.9 325.05939 
z
" clip-path="url(#pf2a6b3ffc7)" style="fill: #0871b7; fill-opacity: 0.752941; stroke: #231f20; stroke-linejoin: miter"/>
   </g>
   <g id="patch_11">
    <path d="M 81.9 117.15939 
C 82.687267 117.15939 83.442395 116.848624 83.999076 116.295534 
C 84.555758 115.742444 84.868542 114.992187 84.868542 114.21 
C 84.868542 113.427813 84.555758 112.677556 83.999076 112.124466 
C 83.442395 111.571376 82.687267 111.26061 81.9 111.26061 
C 81.112733 111.26061 80.357605 111.571376 79.800924 112.124466 
C 79.244242 112.677556 78.931458 113.427813 78.931458 114.21 
C 78.931458 114.992187 79.244242 115.742444 79.800924 116.295534 
C 80.357605 116.848624 81.112733 117.15939 81.9 117.15939 
z
" clip-path="url(#pf2a6b3ffc7)" style="fill: #0871b7; fill-opacity: 0.752941; stroke: #231f20; stroke-linejoin: miter"/>
   </g>
   <g id="patch_12">
    <path d="M 360.9 117.15939 
C 361.687267 117.15939 362.442395 116.848624 362.999076 116.295534 
C 363.555758 115.742444 363.868542 114.992187 363.868542 114.21 
C 363.868542 113.427813 363.555758 112.677556 362.999076 112.124466 
C 362.442395 111.571376 361.687267 111.26061 360.9 111.26061 
C 360.112733 111.26061 359.357605 111.571376 358.800924 112.124466 
C 358.244242 112.677556 357.931458 113.427813 357.931458 114.21 
C 357.931458 114.992187 358.244242 115.742444 358.800924 116.295534 
C 359.357605 116.848624 360.112733 117.15939 360.9 117.15939 
z
" clip-path="url(#pf2a6b3ffc7)" style="fill: #0871b7; fill-opacity: 0.752941; stroke: #231f20; stroke-linejoin: miter"/>
   </g>
   <g id="patch_13">
    <path d="M 116.775 82.50939 
C 117.562267 82.50939 118.317395 82.198624 118.874076 81.645534 
C 119.430758 81.092444 119.743542 80.342187 119.743542 79.56 
C 119.743542 78.777813 119.430758 78.027556 118.874076 77.474466 
C 118.317395 76.921376 117.562267 76.61061 116.775 76.61061 
C 115.987733 76.61061 115.232605 76.921376 114.675924 77.474466 
C 114.119242 78.027556 113.806458 78.777813 113.806458 79.56 
C 113.806458 80.342187 114.119242 81.092444 114.675924 81.645534 
C 115.232605 82.198624 115.987733 82.50939 116.775 82.50939 
z
" clip-path="url(#pf2a6b3ffc7)" style="fill: #0871b7; fill-opacity: 0.752941; stroke: #231f20; stroke-linejoin: miter"/>
   </g>
   <g id="patch_14">
    <path d="M 326.025 82.50939 
C 326.812267 82.50939 327.567395 82.198624 328.124076 81.645534 
C 328.680758 81.092444 328.993542 80.342187 328.993542 79.56 
C 328.993542 78.777813 328.680758 78.027556 328.124076 77.474466 
C 327.567395 76.921376 326.812267 76.61061 326.025 76.61061 
C 325.237733 76.61061 324.482605 76.921376 323.925924 77.474466 
C 323.369242 78.027556 323.056458 78.777813 323.056458 79.56 
C 323.056458 80.342187 323.369242 81.092444 323.925924 81.645534 
C 324.482605 82.198624 325.237733 82.50939 326.025 82.50939 
z
" clip-path="url(#pf2a6b3ffc7)" style="fill: #0871b7; fill-opacity: 0.752941; stroke: #231f20; stroke-linejoin: miter"/>
   </g>
   <g id="patch_15">
    <path d="M 151.65 357.930907 
C 151.962545 357.930907 152.26233 357.807533 152.483332 357.587956 
C 152.704335 357.36838 152.82851 357.070528 152.82851 356.76 
C 152.82851 356.449472 152.704335 356.15162 152.483332 355.932044 
C 152.26233 355.712467 151.962545 355.589093 151.65 355.589093 
C 151.337455 355.589093 151.03767 355.712467 150.816668 355.932044 
C 150.595665 356.15162 150.47149 356.449472 150.47149 356.76 
C 150.47149 357.070528 150.595665 357.36838 150.816668 357.587956 
C 151.03767 357.807533 151.337455 357.930907 151.65 357.930907 
z
" clip-path="url(#pf2a6b3ffc7)" style="fill: #b74e08; fill-opacity: 0.752941; stroke: #231f20; stroke-linejoin: miter"/>
   </g>
   <g id="patch_16">
    <path d="M 291.15 357.930907 
C 291.462545 357.930907 291.76233 357.807533 291.983332 357.587956 
C 292.204335 357.36838 292.32851 357.070528 292.32851 356.76 
C 292.32851 356.449472 292.204335 356.15162 291.983332 355.932044 
C 291.76233 355.712467 291.462545 355.589093 291.15 355.589093 
C 290.837455 355.589093 290.53767 355.712467 290.316668 355.932044 
C 290.095665 356.15162 289.97149 356.449472 289.97149 356.76 
C 289.97149 357.070528 290.095665 357.36838 290.316668 357.587956 
C 290.53767 357.807533 290.837455 357.930907 291.15 357.930907 
z
" clip-path="url(#pf2a6b3ffc7)" style="fill: #b74e08; fill-opacity: 0.752941; stroke: #231f20; stroke-linejoin: miter"/>
   </g>
   <g id="patch_17">
    <path d="M 81.9 288.630907 
C 82.212545 288.630907 82.51233 288.507533 82.733332 288.287956 
C 82.954335 288.06838 83.07851 287.770528 83.07851 287.46 
C 83.07851 287.149472 82.954335 286.85162 82.733332 286.632044 
C 82.51233 286.412467 82.212545 286.289093 81.9 286.289093 
C 81.587455 286.289093 81.28767 286.412467 81.066668 286.632044 
C 80.845665 286.85162 80.72149 287.149472 80.72149 287.46 
C 80.72149 287.770528 80.845665 288.06838 81.066668 288.287956 
C 81.28767 288.507533 81.587455 288.630907 81.9 288.630907 
z
" clip-path="url(#pf2a6b3ffc7)" style="fill: #b74e08; fill-opacity: 0.752941; stroke: #231f20; stroke-linejoin: miter"/>
   </g>
   <g id="patch_18">
    <path d="M 360.9 288.630907 
C 361.212545 288.630907 361.51233 288.507533 361.733332 288.287956 
C 361.954335 288.06838 362.07851 287.770528 362.07851 287.46 
C 362.07851 287.149472 361.954335 286.85162 361.733332 286.632044 
C 361.51233 286.412467 361.212545 286.289093 360.9 286.289093 
C 360.587455 286.289093 360.28767 286.412467 360.066668 286.632044 
C 359.845665 286.85162 359.72149 287.149472 359.72149 287.46 
C 359.72149 287.770528 359.845665 288.06838 360.066668 288.287956 
C 360.28767 288.507533 360.587455 288.630907 360.9 288.630907 
z
" clip-path="url(#pf2a6b3ffc7)" style="fill: #b74e08; fill-opacity: 0.752941; stroke: #231f20; stroke-linejoin: miter"/>
   </g>
   <g id="patch_19">
    <path d="M 81.9 150.030907 
C 82.212545 150.030907 82.51233 149.907533 82.733332 149.687956 
C 82.954335 149.46838 83.07851 149.170528 83.07851 148.86 
C 83.07851 148.549472 82.954335 148.25162 82.733332 148.032044 
C 82.51233 147.812467 82.212545 147.689093 81.9 147.689093 
C 81.587455 147.689093 81.28767 147.812467 81.066668 148.032044 
C 80.845665 148.25162 80.72149 148.549472 80.72149 148.86 
C 80.72149 149.170528 80.845665 149.46838 81.066668 149.687956 
C 81.28767 149.907533 81.587455 150.030907 81.9 150.030907 
z
" clip-path="url(#pf2a6b3ffc7)" style="fill: #b74e08; fill-opacity: 0.752941; stroke: #231f20; stroke-linejoin: miter"/>
   </g>
   <g id="patch_20">
    <path d="M 360.9 150.030907 
C 361.212545 150.030907 361.51233 149.907533 361.733332 149.687956 
C 361.954335 149.46838 362.07851 149.170528 362.07851 148.86 
C 362.07851 148.549472 361.954335 148.25162 361.733332 148.032044 
C 361.51233 147.812467 361.212545 147.689093 360.9 147.689093 
C 360.587455 147.689093 360.28767 147.812467 360.066668 148.032044 
C 359.845665 148.25162 359.72149 148.549472 359.72149 148.86 
C 359.72149 149.170528 359.845665 149.46838 360.066668 149.687956 
C 360.28767 149.907533 360.587455 150.030907 360.9 150.030907 
z
" clip-path="url(#pf2a6b3ffc7)" style="fill: #b74e08; fill-opacity: 0.752941; stroke: #231f20; stroke-linejoin: miter"/>
   </g>
   <g id="patch_21">
    <path d="M 151.65 80.730907 
C 151.962545 80.730907 152.26233 80.607533 152.483332 80.387956 
C 152.704335 80.16838 152.82851 79.870528 152.82851 79.56 
C 152.82851 79.249472 152.704335 78.95162 152.483332 78.732044 
C 152.26233 78.512467 151.962545 78.389093 151.65 78.389093 
C 151.337455 78.389093 151.03767 78.512467 150.816668 78.732044 
C 150.595665 78.95162 150.47149 79.249472 150.47149 79.56 
C 150.47149 79.870528 150.595665 80.16838 150.816668 80.387956 
C 151.03767 80.607533 151.337455 80.730907 151.65 80.730907 
z
" clip-path="url(#pf2a6b3ffc7)" style="fill: #b74e08; fill-opacity: 0.752941; stroke: #231f20; stroke-linejoin: miter"/>
   </g>
   <g id="patch_22">
    <path d="M 291.15 80.730907 
C 291.462545 80.730907 291.76233 80.607533 291.983332 80.387956 
C 292.204335 80.16838 292.32851 79.870528 292.32851 79.56 
C 292.32851 79.249472 292.204335 78.95162 291.983332 78.732044 
C 291.76233 78.512467 291.462545 78.389093 291.15 78.389093 
C 290.837455 78.389093 290.53767 78.512467 290.316668 78.732044 
C 290.095665 78.95162 289.97149 79.249472 289.97149 79.56 
C 289.97149 79.870528 290.095665 80.16838 290.316668 80.387956 
C 290.53767 80.607533 290.837455 80.730907 291.15 80.730907 
z
" clip-path="url(#pf2a6b3ffc7)" style="fill: #b74e08; fill-opacity: 0.752941; stroke: #231f20; stroke-linejoin: miter"/>
   </g>
   <g id="patch_23">
    <path d="M 116.775 329.306444 
C 118.695912 329.306444 120.538408 328.548182 121.896698 327.198655 
C 123.254988 325.849128 124.018175 324.018519 124.018175 322.11 
C 124.018175 320.201481 123.254988 318.370872 121.896698 317.021345 
C 120.538408 315.671818 118.695912 314.913556 116.775 314.913556 
C 114.854088 314.913556 113.011592 315.671818 111.653302 317.021345 
C 110.295012 318.370872 109.531825 320.201481 109.531825 322.11 
C 109.531825 324.018519 110.295012 325.849128 111.653302 327.198655 
C 113.011592 328.548182 114.854088 329.306444 116.775 329.306444 
z
" clip-path="url(#pf2a6b3ffc7)" style="fill: #0871b7; fill-opacity: 0.752941; stroke: #231f20; stroke-linejoin: miter"/>
   </g>
   <g id="patch_24">
    <path d="M 326.025 329.306444 
C 327.945912 329.306444 329.788408 328.548182 331.146698 327.198655 
C 332.504988 325.849128 333.268175 324.018519 333.268175 322.11 
C 333.268175 320.201481 332.504988 318.370872 331.146698 317.021345 
C 329.788408 315.671818 327.945912 314.913556 326.025 314.913556 
C 324.104088 314.913556 322.261592 315.671818 320.903302 317.021345 
C 319.545012 318.370872 318.781825 320.201481 318.781825 322.11 
C 318.781825 324.018519 319.545012 325.849128 320.903302 327.198655 
C 322.261592 328.548182 324.104088 329.306444 326.025 329.306444 
z
" clip-path="url(#pf2a6b3ffc7)" style="fill: #0871b7; fill-opacity: 0.752941; stroke: #231f20; stroke-linejoin: miter"/>
   </g>
   <g id="patch_25">
    <path d="M 116.775 121.406444 
C 118.695912 121.406444 120.538408 120.648182 121.896698 119.298655 
C 123.254988 117.949128 124.018175 116.118519 124.018175 114.21 
C 124.018175 112.301481 123.254988 110.470872 121.896698 109.121345 
C 120.538408 107.771818 118.695912 107.013556 116.775 107.013556 
C 114.854088 107.013556 113.011592 107.771818 111.653302 109.121345 
C 110.295012 110.470872 109.531825 112.301481 109.531825 114.21 
C 109.531825 116.118519 110.295012 117.949128 111.653302 119.298655 
C 113.011592 120.648182 114.854088 121.406444 116.775 121.406444 
z
" clip-path="url(#pf2a6b3ffc7)" style="fill: #0871b7; fill-opacity: 0.752941; stroke: #231f20; stroke-linejoin: miter"/>
   </g>
   <g id="patch_26">
    <path d="M 326.025 121.406444 
C 327.945912 121.406444 329.788408 120.648182 331.146698 119.298655 
C 332.504988 117.949128 333.268175 116.118519 333.268175 114.21 
C 333.268175 112.301481 332.504988 110.470872 331.146698 109.121345 
C 329.788408 107.771818 327.945912 107.013556 326.025 107.013556 
C 324.104088 107.013556 322.261592 107.771818 320.903302 109.121345 
C 319.545012 110.470872 318.781825 112.301481 318.781825 114.21 
C 318.781825 116.118519 319.545012 117.949128 320.903302 119.298655 
C 322.261592 120.648182 324.104088 121.406444 326.025 121.406444 
z
" clip-path="url(#pf2a6b3ffc7)" style="fill: #0871b7; fill-opacity: 0.752941; stroke: #231f20; stroke-linejoin: miter"/>
   </g>
   <g id="patch_27">
    <path d="M 186.525 360.69786 
C 187.576114 360.69786 188.584319 360.282942 189.327568 359.544487 
C 190.070818 358.806033 190.48843 357.804333 190.48843 356.76 
C 190.48843 355.715667 190.070818 354.713967 189.327568 353.975513 
C 188.584319 353.237058 187.576114 352.82214 186.525 352.82214 
C 185.473886 352.82214 184.465681 353.237058 183.722432 353.975513 
C 182.979182 354.713967 182.56157 355.715667 182.56157 356.76 
C 182.56157 357.804333 182.979182 358.806033 183.722432 359.544487 
C 184.465681 360.282942 185.473886 360.69786 186.525 360.69786 
z
" clip-path="url(#pf2a6b3ffc7)" style="fill: #0871b7; fill-opacity: 0.752941; stroke: #231f20; stroke-linejoin: miter"/>
   </g>
   <g id="patch_28">
    <path d="M 256.275 360.69786 
C 257.326114 360.69786 258.334319 360.282942 259.077568 359.544487 
C 259.820818 358.806033 260.23843 357.804333 260.23843 356.76 
C 260.23843 355.715667 259.820818 354.713967 259.077568 353.975513 
C 258.334319 353.237058 257.326114 352.82214 256.275 352.82214 
C 255.223886 352.82214 254.215681 353.237058 253.472432 353.975513 
C 252.729182 354.713967 252.31157 355.715667 252.31157 356.76 
C 252.31157 357.804333 252.729182 358.806033 253.472432 359.544487 
C 254.215681 360.282942 255.223886 360.69786 256.275 360.69786 
z
" clip-path="url(#pf2a6b3ffc7)" style="fill: #0871b7; fill-opacity: 0.752941; stroke: #231f20; stroke-linejoin: miter"/>
   </g>
   <g id="patch_29">
    <path d="M 81.9 256.74786 
C 82.951114 256.74786 83.959319 256.332942 84.702568 255.594487 
C 85.445818 254.856033 85.86343 253.854333 85.86343 252.81 
C 85.86343 251.765667 85.445818 250.763967 84.702568 250.025513 
C 83.959319 249.287058 82.951114 248.87214 81.9 248.87214 
C 80.848886 248.87214 79.840681 249.287058 79.097432 250.025513 
C 78.354182 250.763967 77.93657 251.765667 77.93657 252.81 
C 77.93657 253.854333 78.354182 254.856033 79.097432 255.594487 
C 79.840681 256.332942 80.848886 256.74786 81.9 256.74786 
z
" clip-path="url(#pf2a6b3ffc7)" style="fill: #0871b7; fill-opacity: 0.752941; stroke: #231f20; stroke-linejoin: miter"/>
   </g>
   <g id="patch_30">
    <path d="M 360.9 256.74786 
C 361.951114 256.74786 362.959319 256.332942 363.702568 255.594487 
C 364.445818 254.856033 364.86343 253.854333 364.86343 252.81 
C 364.86343 251.765667 364.445818 250.763967 363.702568 250.025513 
C 362.959319 249.287058 361.951114 248.87214 360.9 248.87214 
C 359.848886 248.87214 358.840681 249.287058 358.097432 250.025513 
C 357.354182 250.763967 356.93657 251.765667 356.93657 252.81 
C 356.93657 253.854333 357.354182 254.856033 358.097432 255.594487 
C 358.840681 256.332942 359.848886 256.74786 360.9 256.74786 
z
" clip-path="url(#pf2a6b3ffc7)" style="fill: #0871b7; fill-opacity: 0.752941; stroke: #231f20; stroke-linejoin: miter"/>
   </g>
   <g id="patch_31">
    <path d="M 81.9 187.44786 
C 82.951114 187.44786 83.959319 187.032942 84.702568 186.294487 
C 85.445818 185.556033 85.86343 184.554333 85.86343 183.51 
C 85.86343 182.465667 85.445818 181.463967 84.702568 180.725513 
C 83.959319 179.987058 82.951114 179.57214 81.9 179.57214 
C 80.848886 179.57214 79.840681 179.987058 79.097432 180.725513 
C 78.354182 181.463967 77.93657 182.465667 77.93657 183.51 
C 77.93657 184.554333 78.354182 185.556033 79.097432 186.294487 
C 79.840681 187.032942 80.848886 187.44786 81.9 187.44786 
z
" clip-path="url(#pf2a6b3ffc7)" style="fill: #0871b7; fill-opacity: 0.752941; stroke: #231f20; stroke-linejoin: miter"/>
   </g>
   <g id="patch_32">
    <path d="M 360.9 187.44786 
C 361.951114 187.44786 362.959319 187.032942 363.702568 186.294487 
C 364.445818 185.556033 364.86343 184.554333 364.86343 183.51 
C 364.86343 182.465667 364.445818 181.463967 363.702568 180.725513 
C 362.959319 179.987058 361.951114 179.57214 360.9 179.57214 
C 359.848886 179.57214 358.840681 179.987058 358.097432 180.725513 
C 357.354182 181.463967 356.93657 182.465667 356.93657 183.51 
C 356.93657 184.554333 357.354182 185.556033 358.097432 186.294487 
C 358.840681 187.032942 359.848886 187.44786 360.9 187.44786 
z
" clip-path="url(#pf2a6b3ffc7)" style="fill: #0871b7; fill-opacity: 0.752941; stroke: #231f20; stroke-linejoin: miter"/>
   </g>
   <g id="patch_33">
    <path d="M 186.525 83.49786 
C 187.576114 83.49786 188.584319 83.082942 189.327568 82.344487 
C 190.070818 81.606033 190.48843 80.604333 190.48843 79.56 
C 190.48843 78.515667 190.070818 77.513967 189.327568 76.775513 
C 188.584319 76.037058 187.576114 75.62214 186.525 75.62214 
C 185.473886 75.62214 184.465681 76.037058 183.722432 76.775513 
C 182.979182 77.513967 182.56157 78.515667 182.56157 79.56 
C 182.56157 80.604333 182.979182 81.606033 183.722432 82.344487 
C 184.465681 83.082942 185.473886 83.49786 186.525 83.49786 
z
" clip-path="url(#pf2a6b3ffc7)" style="fill: #0871b7; fill-opacity: 0.752941; stroke: #231f20; stroke-linejoin: miter"/>
   </g>
   <g id="patch_34">
    <path d="M 256.275 83.49786 
C 257.326114 83.49786 258.334319 83.082942 259.077568 82.344487 
C 259.820818 81.606033 260.23843 80.604333 260.23843 79.56 
C 260.23843 78.515667 259.820818 77.513967 259.077568 76.775513 
C 258.334319 76.037058 257.326114 75.62214 256.275 75.62214 
C 255.223886 75.62214 254.215681 76.037058 253.472432 76.775513 
C 252.729182 77.513967 252.31157 78.515667 252.31157 79.56 
C 252.31157 80.604333 252.729182 81.606033 253.472432 82.344487 
C 254.215681 83.082942 255.223886 83.49786 256.275 83.49786 
z
" clip-path="url(#pf2a6b3ffc7)" style="fill: #0871b7; fill-opacity: 0.752941; stroke: #231f20; stroke-linejoin: miter"/>
   </g>
   <g id="patch_35">
    <path d="M 221.4 359.34986 
C 222.091299 359.34986 222.754377 359.076976 223.243199 358.591307 
C 223.732021 358.105639 224.006677 357.446839 224.006677 356.76 
C 224.006677 356.073161 223.732021 355.414361 223.243199 354.928693 
C 222.754377 354.443024 222.091299 354.17014 221.4 354.17014 
C 220.708701 354.17014 220.045623 354.443024 219.556801 354.928693 
C 219.067979 355.414361 218.793323 356.073161 218.793323 356.76 
C 218.793323 357.446839 219.067979 358.105639 219.556801 358.591307 
C 220.045623 359.076976 220.708701 359.34986 221.4 359.34986 
z
" clip-path="url(#pf2a6b3ffc7)" style="fill: #b74e08; fill-opacity: 0.752941; stroke: #231f20; stroke-linejoin: miter"/>
   </g>
   <g id="patch_36">
    <path d="M 81.9 220.74986 
C 82.591299 220.74986 83.254377 220.476976 83.743199 219.991307 
C 84.232021 219.505639 84.506677 218.846839 84.506677 218.16 
C 84.506677 217.473161 84.232021 216.814361 83.743199 216.328693 
C 83.254377 215.843024 82.591299 215.57014 81.9 215.57014 
C 81.208701 215.57014 80.545623 215.843024 80.056801 216.328693 
C 79.567979 216.814361 79.293323 217.473161 79.293323 218.16 
C 79.293323 218.846839 79.567979 219.505639 80.056801 219.991307 
C 80.545623 220.476976 81.208701 220.74986 81.9 220.74986 
z
" clip-path="url(#pf2a6b3ffc7)" style="fill: #b74e08; fill-opacity: 0.752941; stroke: #231f20; stroke-linejoin: miter"/>
   </g>
   <g id="patch_37">
    <path d="M 360.9 220.74986 
C 361.591299 220.74986 362.254377 220.476976 362.743199 219.991307 
C 363.232021 219.505639 363.506677 218.846839 363.506677 218.16 
C 363.506677 217.473161 363.232021 216.814361 362.743199 216.328693 
C 362.254377 215.843024 361.591299 215.57014 360.9 215.57014 
C 360.208701 215.57014 359.545623 215.843024 359.056801 216.328693 
C 358.567979 216.814361 358.293323 217.473161 358.293323 218.16 
C 358.293323 218.846839 358.567979 219.505639 359.056801 219.991307 
C 359.545623 220.476976 360.208701 220.74986 360.9 220.74986 
z
" clip-path="url(#pf2a6b3ffc7)" style="fill: #b74e08; fill-opacity: 0.752941; stroke: #231f20; stroke-linejoin: miter"/>
   </g>
   <g id="patch_38">
    <path d="M 221.4 82.14986 
C 222.091299 82.14986 222.754377 81.876976 223.243199 81.391307 
C 223.732021 80.905639 224.006677 80.246839 224.006677 79.56 
C 224.006677 78.873161 223.732021 78.214361 223.243199 77.728693 
C 222.754377 77.243024 222.091299 76.97014 221.4 76.97014 
C 220.708701 76.97014 220.045623 77.243024 219.556801 77.728693 
C 219.067979 78.214361 218.793323 78.873161 218.793323 79.56 
C 218.793323 80.246839 219.067979 80.905639 219.556801 81.391307 
C 220.045623 81.876976 220.708701 82.14986 221.4 82.14986 
z
" clip-path="url(#pf2a6b3ffc7)" style="fill: #b74e08; fill-opacity: 0.752941; stroke: #231f20; stroke-linejoin: miter"/>
   </g>
   <g id="patch_39">
    <path d="M 151.65 324.966986 
C 152.412601 324.966986 153.144071 324.665956 153.683312 324.130194 
C 154.222553 323.594432 154.525538 322.867681 154.525538 322.11 
C 154.525538 321.352319 154.222553 320.625568 153.683312 320.089806 
C 153.144071 319.554044 152.412601 319.253014 151.65 319.253014 
C 150.887399 319.253014 150.155929 319.554044 149.616688 320.089806 
C 149.077447 320.625568 148.774462 321.352319 148.774462 322.11 
C 148.774462 322.867681 149.077447 323.594432 149.616688 324.130194 
C 150.155929 324.665956 150.887399 324.966986 151.65 324.966986 
z
" clip-path="url(#pf2a6b3ffc7)" style="fill: #b74e08; fill-opacity: 0.752941; stroke: #231f20; stroke-linejoin: miter"/>
   </g>
   <g id="patch_40">
    <path d="M 291.15 324.966986 
C 291.912601 324.966986 292.644071 324.665956 293.183312 324.130194 
C 293.722553 323.594432 294.025538 322.867681 294.025538 322.11 
C 294.025538 321.352319 293.722553 320.625568 293.183312 320.089806 
C 292.644071 319.554044 291.912601 319.253014 291.15 319.253014 
C 290.387399 319.253014 289.655929 319.554044 289.116688 320.089806 
C 288.577447 320.625568 288.274462 321.352319 288.274462 322.11 
C 288.274462 322.867681 288.577447 323.594432 289.116688 324.130194 
C 289.655929 324.665956 290.387399 324.966986 291.15 324.966986 
z
" clip-path="url(#pf2a6b3ffc7)" style="fill: #b74e08; fill-opacity: 0.752941; stroke: #231f20; stroke-linejoin: miter"/>
   </g>
   <g id="patch_41">
    <path d="M 116.775 290.316986 
C 117.537601 290.316986 118.269071 290.015956 118.808312 289.480194 
C 119.347553 288.944432 119.650538 288.217681 119.650538 287.46 
C 119.650538 286.702319 119.347553 285.975568 118.808312 285.439806 
C 118.269071 284.904044 117.537601 284.603014 116.775 284.603014 
C 116.012399 284.603014 115.280929 284.904044 114.741688 285.439806 
C 114.202447 285.975568 113.899462 286.702319 113.899462 287.46 
C 113.899462 288.217681 114.202447 288.944432 114.741688 289.480194 
C 115.280929 290.015956 116.012399 290.316986 116.775 290.316986 
z
" clip-path="url(#pf2a6b3ffc7)" style="fill: #b74e08; fill-opacity: 0.752941; stroke: #231f20; stroke-linejoin: miter"/>
   </g>
   <g id="patch_42">
    <path d="M 326.025 290.316986 
C 326.787601 290.316986 327.519071 290.015956 328.058312 289.480194 
C 328.597553 288.944432 328.900538 288.217681 328.900538 287.46 
C 328.900538 286.702319 328.597553 285.975568 328.058312 285.439806 
C 327.519071 284.904044 326.787601 284.603014 326.025 284.603014 
C 325.262399 284.603014 324.530929 284.904044 323.991688 285.439806 
C 323.452447 285.975568 323.149462 286.702319 323.149462 287.46 
C 323.149462 288.217681 323.452447 288.944432 323.991688 289.480194 
C 324.530929 290.015956 325.262399 290.316986 326.025 290.316986 
z
" clip-path="url(#pf2a6b3ffc7)" style="fill: #b74e08; fill-opacity: 0.752941; stroke: #231f20; stroke-linejoin: miter"/>
   </g>
   <g id="patch_43">
    <path d="M 116.775 151.716986 
C 117.537601 151.716986 118.269071 151.415956 118.808312 150.880194 
C 119.347553 150.344432 119.650538 149.617681 119.650538 148.86 
C 119.650538 148.102319 119.347553 147.375568 118.808312 146.839806 
C 118.269071 146.304044 117.537601 146.003014 116.775 146.003014 
C 116.012399 146.003014 115.280929 146.304044 114.741688 146.839806 
C 114.202447 147.375568 113.899462 148.102319 113.899462 148.86 
C 113.899462 149.617681 114.202447 150.344432 114.741688 150.880194 
C 115.280929 151.415956 116.012399 151.716986 116.775 151.716986 
z
" clip-path="url(#pf2a6b3ffc7)" style="fill: #b74e08; fill-opacity: 0.752941; stroke: #231f20; stroke-linejoin: miter"/>
   </g>
   <g id="patch_44">
    <path d="M 326.025 151.716986 
C 326.787601 151.716986 327.519071 151.415956 328.058312 150.880194 
C 328.597553 150.344432 328.900538 149.617681 328.900538 148.86 
C 328.900538 148.102319 328.597553 147.375568 328.058312 146.839806 
C 327.519071 146.304044 326.787601 146.003014 326.025 146.003014 
C 325.262399 146.003014 324.530929 146.304044 323.991688 146.839806 
C 323.452447 147.375568 323.149462 148.102319 323.149462 148.86 
C 323.149462 149.617681 323.452447 150.344432 323.991688 150.880194 
C 324.530929 151.415956 325.262399 151.716986 326.025 151.716986 
z
" clip-path="url(#pf2a6b3ffc7)" style="fill: #b74e08; fill-opacity: 0.752941; stroke: #231f20; stroke-linejoin: miter"/>
   </g>
   <g id="patch_45">
    <path d="M 151.65 117.066986 
C 152.412601 117.066986 153.144071 116.765956 153.683312 116.230194 
C 154.222553 115.694432 154.525538 114.967681 154.525538 114.21 
C 154.525538 113.452319 154.222553 112.725568 153.683312 112.189806 
C 153.144071 111.654044 152.412601 111.353014 151.65 111.353014 
C 150.887399 111.353014 150.155929 111.654044 149.616688 112.189806 
C 149.077447 112.725568 148.774462 113.452319 148.774462 114.21 
C 148.774462 114.967681 149.077447 115.694432 149.616688 116.230194 
C 150.155929 116.765956 150.887399 117.066986 151.65 117.066986 
z
" clip-path="url(#pf2a6b3ffc7)" style="fill: #b74e08; fill-opacity: 0.752941; stroke: #231f20; stroke-linejoin: miter"/>
   </g>
   <g id="patch_46">
    <path d="M 291.15 117.066986 
C 291.912601 117.066986 292.644071 116.765956 293.183312 116.230194 
C 293.722553 115.694432 294.025538 114.967681 294.025538 114.21 
C 294.025538 113.452319 293.722553 112.725568 293.183312 112.189806 
C 292.644071 111.654044 291.912601 111.353014 291.15 111.353014 
C 290.387399 111.353014 289.655929 111.654044 289.116688 112.189806 
C 288.577447 112.725568 288.274462 113.452319 288.274462 114.21 
C 288.274462 114.967681 288.577447 115.694432 289.116688 116.230194 
C 289.655929 116.765956 290.387399 117.066986 291.15 117.066986 
z
" clip-path="url(#pf2a6b3ffc7)" style="fill: #b74e08; fill-opacity: 0.752941; stroke: #231f20; stroke-linejoin: miter"/>
   </g>
   <g id="patch_47">
    <path d="M 186.525 331.718287 
C 189.089694 331.718287 191.54969 330.705898 193.363203 328.904085 
C 195.176715 327.102273 196.195679 324.658148 196.195679 322.11 
C 196.195679 319.561852 195.176715 317.117727 193.363203 315.315915 
C 191.54969 313.514102 189.089694 312.501713 186.525 312.501713 
C 183.960306 312.501713 181.50031 313.514102 179.686797 315.315915 
C 177.873285 317.117727 176.854321 319.561852 176.854321 322.11 
C 176.854321 324.658148 177.873285 327.102273 179.686797 328.904085 
C 181.50031 330.705898 183.960306 331.718287 186.525 331.718287 
z
" clip-path="url(#pf2a6b3ffc7)" style="fill: #0871b7; fill-opacity: 0.752941; stroke: #231f20; stroke-linejoin: miter"/>
   </g>
   <g id="patch_48">
    <path d="M 256.275 331.718287 
C 258.839694 331.718287 261.29969 330.705898 263.113203 328.904085 
C 264.926715 327.102273 265.945679 324.658148 265.945679 322.11 
C 265.945679 319.561852 264.926715 317.117727 263.113203 315.315915 
C 261.29969 313.514102 258.839694 312.501713 256.275 312.501713 
C 253.710306 312.501713 251.25031 313.514102 249.436797 315.315915 
C 247.623285 317.117727 246.604321 319.561852 246.604321 322.11 
C 246.604321 324.658148 247.623285 327.102273 249.436797 328.904085 
C 251.25031 330.705898 253.710306 331.718287 256.275 331.718287 
z
" clip-path="url(#pf2a6b3ffc7)" style="fill: #0871b7; fill-opacity: 0.752941; stroke: #231f20; stroke-linejoin: miter"/>
   </g>
   <g id="patch_49">
    <path d="M 116.775 262.418287 
C 119.339694 262.418287 121.79969 261.405898 123.613203 259.604085 
C 125.426715 257.802273 126.445679 255.358148 126.445679 252.81 
C 126.445679 250.261852 125.426715 247.817727 123.613203 246.015915 
C 121.79969 244.214102 119.339694 243.201713 116.775 243.201713 
C 114.210306 243.201713 111.75031 244.214102 109.936797 246.015915 
C 108.123285 247.817727 107.104321 250.261852 107.104321 252.81 
C 107.104321 255.358148 108.123285 257.802273 109.936797 259.604085 
C 111.75031 261.405898 114.210306 262.418287 116.775 262.418287 
z
" clip-path="url(#pf2a6b3ffc7)" style="fill: #0871b7; fill-opacity: 0.752941; stroke: #231f20; stroke-linejoin: miter"/>
   </g>
   <g id="patch_50">
    <path d="M 326.025 262.418287 
C 328.589694 262.418287 331.04969 261.405898 332.863203 259.604085 
C 334.676715 257.802273 335.695679 255.358148 335.695679 252.81 
C 335.695679 250.261852 334.676715 247.817727 332.863203 246.015915 
C 331.04969 244.214102 328.589694 243.201713 326.025 243.201713 
C 323.460306 243.201713 321.00031 244.214102 319.186797 246.015915 
C 317.373285 247.817727 316.354321 250.261852 316.354321 252.81 
C 316.354321 255.358148 317.373285 257.802273 319.186797 259.604085 
C 321.00031 261.405898 323.460306 262.418287 326.025 262.418287 
z
" clip-path="url(#pf2a6b3ffc7)" style="fill: #0871b7; fill-opacity: 0.752941; stroke: #231f20; stroke-linejoin: miter"/>
   </g>
   <g id="patch_51">
    <path d="M 116.775 193.118287 
C 119.339694 193.118287 121.79969 192.105898 123.613203 190.304085 
C 125.426715 188.502273 126.445679 186.058148 126.445679 183.51 
C 126.445679 180.961852 125.426715 178.517727 123.613203 176.715915 
C 121.79969 174.914102 119.339694 173.901713 116.775 173.901713 
C 114.210306 173.901713 111.75031 174.914102 109.936797 176.715915 
C 108.123285 178.517727 107.104321 180.961852 107.104321 183.51 
C 107.104321 186.058148 108.123285 188.502273 109.936797 190.304085 
C 111.75031 192.105898 114.210306 193.118287 116.775 193.118287 
z
" clip-path="url(#pf2a6b3ffc7)" style="fill: #0871b7; fill-opacity: 0.752941; stroke: #231f20; stroke-linejoin: miter"/>
   </g>
   <g id="patch_52">
    <path d="M 326.025 193.118287 
C 328.589694 193.118287 331.04969 192.105898 332.863203 190.304085 
C 334.676715 188.502273 335.695679 186.058148 335.695679 183.51 
C 335.695679 180.961852 334.676715 178.517727 332.863203 176.715915 
C 331.04969 174.914102 328.589694 173.901713 326.025 173.901713 
C 323.460306 173.901713 321.00031 174.914102 319.186797 176.715915 
C 317.373285 178.517727 316.354321 180.961852 316.354321 183.51 
C 316.354321 186.058148 317.373285 188.502273 319.186797 190.304085 
C 321.00031 192.105898 323.460306 193.118287 326.025 193.118287 
z
" clip-path="url(#pf2a6b3ffc7)" style="fill: #0871b7; fill-opacity: 0.752941; stroke: #231f20; stroke-linejoin: miter"/>
   </g>
   <g id="patch_53">
    <path d="M 186.525 123.818287 
C 189.089694 123.818287 191.54969 122.805898 193.363203 121.004085 
C 195.176715 119.202273 196.195679 116.758148 196.195679 114.21 
C 196.195679 111.661852 195.176715 109.217727 193.363203 107.415915 
C 191.54969 105.614102 189.089694 104.601713 186.525 104.601713 
C 183.960306 104.601713 181.50031 105.614102 179.686797 107.415915 
C 177.873285 109.217727 176.854321 111.661852 176.854321 114.21 
C 176.854321 116.758148 177.873285 119.202273 179.686797 121.004085 
C 181.50031 122.805898 183.960306 123.818287 186.525 123.818287 
z
" clip-path="url(#pf2a6b3ffc7)" style="fill: #0871b7; fill-opacity: 0.752941; stroke: #231f20; stroke-linejoin: miter"/>
   </g>
   <g id="patch_54">
    <path d="M 256.275 123.818287 
C 258.839694 123.818287 261.29969 122.805898 263.113203 121.004085 
C 264.926715 119.202273 265.945679 116.758148 265.945679 114.21 
C 265.945679 111.661852 264.926715 109.217727 263.113203 107.415915 
C 261.29969 105.614102 258.839694 104.601713 256.275 104.601713 
C 253.710306 104.601713 251.25031 105.614102 249.436797 107.415915 
C 247.623285 109.217727 246.604321 111.661852 246.604321 114.21 
C 246.604321 116.758148 247.623285 119.202273 249.436797 121.004085 
C 251.25031 122.805898 253.710306 123.818287 256.275 123.818287 
z
" clip-path="url(#pf2a6b3ffc7)" style="fill: #0871b7; fill-opacity: 0.752941; stroke: #231f20; stroke-linejoin: miter"/>
   </g>
   <g id="patch_55">
    <path d="M 221.4 328.429199 
C 223.086753 328.429199 224.704649 327.763368 225.897363 326.578348 
C 227.090078 325.393328 227.760232 323.785871 227.760232 322.11 
C 227.760232 320.434129 227.090078 318.826672 225.897363 317.641652 
C 224.704649 316.456632 223.086753 315.790801 221.4 315.790801 
C 219.713247 315.790801 218.095351 316.456632 216.902637 317.641652 
C 215.709922 318.826672 215.039768 320.434129 215.039768 322.11 
C 215.039768 323.785871 215.709922 325.393328 216.902637 326.578348 
C 218.095351 327.763368 219.713247 328.429199 221.4 328.429199 
z
" clip-path="url(#pf2a6b3ffc7)" style="fill: #b74e08; fill-opacity: 0.752941; stroke: #231f20; stroke-linejoin: miter"/>
   </g>
   <g id="patch_56">
    <path d="M 116.775 224.479199 
C 118.461753 224.479199 120.079649 223.813368 121.272363 222.628348 
C 122.465078 221.443328 123.135232 219.835871 123.135232 218.16 
C 123.135232 216.484129 122.465078 214.876672 121.272363 213.691652 
C 120.079649 212.506632 118.461753 211.840801 116.775 211.840801 
C 115.088247 211.840801 113.470351 212.506632 112.277637 213.691652 
C 111.084922 214.876672 110.414768 216.484129 110.414768 218.16 
C 110.414768 219.835871 111.084922 221.443328 112.277637 222.628348 
C 113.470351 223.813368 115.088247 224.479199 116.775 224.479199 
z
" clip-path="url(#pf2a6b3ffc7)" style="fill: #b74e08; fill-opacity: 0.752941; stroke: #231f20; stroke-linejoin: miter"/>
   </g>
   <g id="patch_57">
    <path d="M 326.025 224.479199 
C 327.711753 224.479199 329.329649 223.813368 330.522363 222.628348 
C 331.715078 221.443328 332.385232 219.835871 332.385232 218.16 
C 332.385232 216.484129 331.715078 214.876672 330.522363 213.691652 
C 329.329649 212.506632 327.711753 211.840801 326.025 211.840801 
C 324.338247 211.840801 322.720351 212.506632 321.527637 213.691652 
C 320.334922 214.876672 319.664768 216.484129 319.664768 218.16 
C 319.664768 219.835871 320.334922 221.443328 321.527637 222.628348 
C 322.720351 223.813368 324.338247 224.479199 326.025 224.479199 
z
" clip-path="url(#pf2a6b3ffc7)" style="fill: #b74e08; fill-opacity: 0.752941; stroke: #231f20; stroke-linejoin: miter"/>
   </g>
   <g id="patch_58">
    <path d="M 221.4 120.529199 
C 223.086753 120.529199 224.704649 119.863368 225.897363 118.678348 
C 227.090078 117.493328 227.760232 115.885871 227.760232 114.21 
C 227.760232 112.534129 227.090078 110.926672 225.897363 109.741652 
C 224.704649 108.556632 223.086753 107.890801 221.4 107.890801 
C 219.713247 107.890801 218.095351 108.556632 216.902637 109.741652 
C 215.709922 110.926672 215.039768 112.534129 215.039768 114.21 
C 215.039768 115.885871 215.709922 117.493328 216.902637 118.678348 
C 218.095351 119.863368 219.713247 120.529199 221.4 120.529199 
z
" clip-path="url(#pf2a6b3ffc7)" style="fill: #b74e08; fill-opacity: 0.752941; stroke: #231f20; stroke-linejoin: miter"/>
   </g>
   <g id="patch_59">
    <path d="M 151.65 288.594222 
C 151.952752 288.594222 152.243146 288.474713 152.457224 288.262016 
C 152.671302 288.049319 152.791587 287.760799 152.791587 287.46 
C 152.791587 287.159201 152.671302 286.870681 152.457224 286.657984 
C 152.243146 286.445287 151.952752 286.325778 151.65 286.325778 
C 151.347248 286.325778 151.056854 286.445287 150.842776 286.657984 
C 150.628698 286.870681 150.508413 287.159201 150.508413 287.46 
C 150.508413 287.760799 150.628698 288.049319 150.842776 288.262016 
C 151.056854 288.474713 151.347248 288.594222 151.65 288.594222 
z
" clip-path="url(#pf2a6b3ffc7)" style="fill: #0871b7; fill-opacity: 0.752941; stroke: #231f20; stroke-linejoin: miter"/>
   </g>
   <g id="patch_60">
    <path d="M 291.15 288.594222 
C 291.452752 288.594222 291.743146 288.474713 291.957224 288.262016 
C 292.171302 288.049319 292.291587 287.760799 292.291587 287.46 
C 292.291587 287.159201 292.171302 286.870681 291.957224 286.657984 
C 291.743146 286.445287 291.452752 286.325778 291.15 286.325778 
C 290.847248 286.325778 290.556854 286.445287 290.342776 286.657984 
C 290.128698 286.870681 290.008413 287.159201 290.008413 287.46 
C 290.008413 287.760799 290.128698 288.049319 290.342776 288.262016 
C 290.556854 288.474713 290.847248 288.594222 291.15 288.594222 
z
" clip-path="url(#pf2a6b3ffc7)" style="fill: #0871b7; fill-opacity: 0.752941; stroke: #231f20; stroke-linejoin: miter"/>
   </g>
   <g id="patch_61">
    <path d="M 151.65 149.994222 
C 151.952752 149.994222 152.243146 149.874713 152.457224 149.662016 
C 152.671302 149.449319 152.791587 149.160799 152.791587 148.86 
C 152.791587 148.559201 152.671302 148.270681 152.457224 148.057984 
C 152.243146 147.845287 151.952752 147.725778 151.65 147.725778 
C 151.347248 147.725778 151.056854 147.845287 150.842776 148.057984 
C 150.628698 148.270681 150.508413 148.559201 150.508413 148.86 
C 150.508413 149.160799 150.628698 149.449319 150.842776 149.662016 
C 151.056854 149.874713 151.347248 149.994222 151.65 149.994222 
z
" clip-path="url(#pf2a6b3ffc7)" style="fill: #0871b7; fill-opacity: 0.752941; stroke: #231f20; stroke-linejoin: miter"/>
   </g>
   <g id="patch_62">
    <path d="M 291.15 149.994222 
C 291.452752 149.994222 291.743146 149.874713 291.957224 149.662016 
C 292.171302 149.449319 292.291587 149.160799 292.291587 148.86 
C 292.291587 148.559201 292.171302 148.270681 291.957224 148.057984 
C 291.743146 147.845287 291.452752 147.725778 291.15 147.725778 
C 290.847248 147.725778 290.556854 147.845287 290.342776 148.057984 
C 290.128698 148.270681 290.008413 148.559201 290.008413 148.86 
C 290.008413 149.160799 290.128698 149.449319 290.342776 149.662016 
C 290.556854 149.874713 290.847248 149.994222 291.15 149.994222 
z
" clip-path="url(#pf2a6b3ffc7)" style="fill: #0871b7; fill-opacity: 0.752941; stroke: #231f20; stroke-linejoin: miter"/>
   </g>
   <g id="patch_63">
    <path d="M 186.525 291.274486 
C 187.543183 291.274486 188.5198 290.872568 189.239764 290.157249 
C 189.959728 289.44193 190.364256 288.471614 190.364256 287.46 
C 190.364256 286.448386 189.959728 285.47807 189.239764 284.762751 
C 188.5198 284.047432 187.543183 283.645514 186.525 283.645514 
C 185.506817 283.645514 184.5302 284.047432 183.810236 284.762751 
C 183.090272 285.47807 182.685744 286.448386 182.685744 287.46 
C 182.685744 288.471614 183.090272 289.44193 183.810236 290.157249 
C 184.5302 290.872568 185.506817 291.274486 186.525 291.274486 
z
" clip-path="url(#pf2a6b3ffc7)" style="fill: #b74e08; fill-opacity: 0.752941; stroke: #231f20; stroke-linejoin: miter"/>
   </g>
   <g id="patch_64">
    <path d="M 256.275 291.274486 
C 257.293183 291.274486 258.2698 290.872568 258.989764 290.157249 
C 259.709728 289.44193 260.114256 288.471614 260.114256 287.46 
C 260.114256 286.448386 259.709728 285.47807 258.989764 284.762751 
C 258.2698 284.047432 257.293183 283.645514 256.275 283.645514 
C 255.256817 283.645514 254.2802 284.047432 253.560236 284.762751 
C 252.840272 285.47807 252.435744 286.448386 252.435744 287.46 
C 252.435744 288.471614 252.840272 289.44193 253.560236 290.157249 
C 254.2802 290.872568 255.256817 291.274486 256.275 291.274486 
z
" clip-path="url(#pf2a6b3ffc7)" style="fill: #b74e08; fill-opacity: 0.752941; stroke: #231f20; stroke-linejoin: miter"/>
   </g>
   <g id="patch_65">
    <path d="M 151.65 256.624486 
C 152.668183 256.624486 153.6448 256.222568 154.364764 255.507249 
C 155.084728 254.79193 155.489256 253.821614 155.489256 252.81 
C 155.489256 251.798386 155.084728 250.82807 154.364764 250.112751 
C 153.6448 249.397432 152.668183 248.995514 151.65 248.995514 
C 150.631817 248.995514 149.6552 249.397432 148.935236 250.112751 
C 148.215272 250.82807 147.810744 251.798386 147.810744 252.81 
C 147.810744 253.821614 148.215272 254.79193 148.935236 255.507249 
C 149.6552 256.222568 150.631817 256.624486 151.65 256.624486 
z
" clip-path="url(#pf2a6b3ffc7)" style="fill: #b74e08; fill-opacity: 0.752941; stroke: #231f20; stroke-linejoin: miter"/>
   </g>
   <g id="patch_66">
    <path d="M 291.15 256.624486 
C 292.168183 256.624486 293.1448 256.222568 293.864764 255.507249 
C 294.584728 254.79193 294.989256 253.821614 294.989256 252.81 
C 294.989256 251.798386 294.584728 250.82807 293.864764 250.112751 
C 293.1448 249.397432 292.168183 248.995514 291.15 248.995514 
C 290.131817 248.995514 289.1552 249.397432 288.435236 250.112751 
C 287.715272 250.82807 287.310744 251.798386 287.310744 252.81 
C 287.310744 253.821614 287.715272 254.79193 288.435236 255.507249 
C 289.1552 256.222568 290.131817 256.624486 291.15 256.624486 
z
" clip-path="url(#pf2a6b3ffc7)" style="fill: #b74e08; fill-opacity: 0.752941; stroke: #231f20; stroke-linejoin: miter"/>
   </g>
   <g id="patch_67">
    <path d="M 151.65 187.324486 
C 152.668183 187.324486 153.6448 186.922568 154.364764 186.207249 
C 155.084728 185.49193 155.489256 184.521614 155.489256 183.51 
C 155.489256 182.498386 155.084728 181.52807 154.364764 180.812751 
C 153.6448 180.097432 152.668183 179.695514 151.65 179.695514 
C 150.631817 179.695514 149.6552 180.097432 148.935236 180.812751 
C 148.215272 181.52807 147.810744 182.498386 147.810744 183.51 
C 147.810744 184.521614 148.215272 185.49193 148.935236 186.207249 
C 149.6552 186.922568 150.631817 187.324486 151.65 187.324486 
z
" clip-path="url(#pf2a6b3ffc7)" style="fill: #b74e08; fill-opacity: 0.752941; stroke: #231f20; stroke-linejoin: miter"/>
   </g>
   <g id="patch_68">
    <path d="M 291.15 187.324486 
C 292.168183 187.324486 293.1448 186.922568 293.864764 186.207249 
C 294.584728 185.49193 294.989256 184.521614 294.989256 183.51 
C 294.989256 182.498386 294.584728 181.52807 293.864764 180.812751 
C 293.1448 180.097432 292.168183 179.695514 291.15 179.695514 
C 290.131817 179.695514 289.1552 180.097432 288.435236 180.812751 
C 287.715272 181.52807 287.310744 182.498386 287.310744 183.51 
C 287.310744 184.521614 287.715272 185.49193 288.435236 186.207249 
C 289.1552 186.922568 290.131817 187.324486 291.15 187.324486 
z
" clip-path="url(#pf2a6b3ffc7)" style="fill: #b74e08; fill-opacity: 0.752941; stroke: #231f20; stroke-linejoin: miter"/>
   </g>
   <g id="patch_69">
    <path d="M 186.525 152.674486 
C 187.543183 152.674486 188.5198 152.272568 189.239764 151.557249 
C 189.959728 150.84193 190.364256 149.871614 190.364256 148.86 
C 190.364256 147.848386 189.959728 146.87807 189.239764 146.162751 
C 188.5198 145.447432 187.543183 145.045514 186.525 145.045514 
C 185.506817 145.045514 184.5302 145.447432 183.810236 146.162751 
C 183.090272 146.87807 182.685744 147.848386 182.685744 148.86 
C 182.685744 149.871614 183.090272 150.84193 183.810236 151.557249 
C 184.5302 152.272568 185.506817 152.674486 186.525 152.674486 
z
" clip-path="url(#pf2a6b3ffc7)" style="fill: #b74e08; fill-opacity: 0.752941; stroke: #231f20; stroke-linejoin: miter"/>
   </g>
   <g id="patch_70">
    <path d="M 256.275 152.674486 
C 257.293183 152.674486 258.2698 152.272568 258.989764 151.557249 
C 259.709728 150.84193 260.114256 149.871614 260.114256 148.86 
C 260.114256 147.848386 259.709728 146.87807 258.989764 146.162751 
C 258.2698 145.447432 257.293183 145.045514 256.275 145.045514 
C 255.256817 145.045514 254.2802 145.447432 253.560236 146.162751 
C 252.840272 146.87807 252.435744 147.848386 252.435744 148.86 
C 252.435744 149.871614 252.840272 150.84193 253.560236 151.557249 
C 254.2802 152.272568 255.256817 152.674486 256.275 152.674486 
z
" clip-path="url(#pf2a6b3ffc7)" style="fill: #b74e08; fill-opacity: 0.752941; stroke: #231f20; stroke-linejoin: miter"/>
   </g>
   <g id="patch_71">
    <path d="M 221.4 289.968719 
C 222.06964 289.968719 222.711944 289.704385 223.185452 289.233933 
C 223.658959 288.76348 223.92501 288.12532 223.92501 287.46 
C 223.92501 286.79468 223.658959 286.15652 223.185452 285.686067 
C 222.711944 285.215615 222.06964 284.951281 221.4 284.951281 
C 220.73036 284.951281 220.088056 285.215615 219.614548 285.686067 
C 219.141041 286.15652 218.87499 286.79468 218.87499 287.46 
C 218.87499 288.12532 219.141041 288.76348 219.614548 289.233933 
C 220.088056 289.704385 220.73036 289.968719 221.4 289.968719 
z
" clip-path="url(#pf2a6b3ffc7)" style="fill: #0871b7; fill-opacity: 0.752941; stroke: #231f20; stroke-linejoin: miter"/>
   </g>
   <g id="patch_72">
    <path d="M 151.65 220.668719 
C 152.31964 220.668719 152.961944 220.404385 153.435452 219.933933 
C 153.908959 219.46348 154.17501 218.82532 154.17501 218.16 
C 154.17501 217.49468 153.908959 216.85652 153.435452 216.386067 
C 152.961944 215.915615 152.31964 215.651281 151.65 215.651281 
C 150.98036 215.651281 150.338056 215.915615 149.864548 216.386067 
C 149.391041 216.85652 149.12499 217.49468 149.12499 218.16 
C 149.12499 218.82532 149.391041 219.46348 149.864548 219.933933 
C 150.338056 220.404385 150.98036 220.668719 151.65 220.668719 
z
" clip-path="url(#pf2a6b3ffc7)" style="fill: #0871b7; fill-opacity: 0.752941; stroke: #231f20; stroke-linejoin: miter"/>
   </g>
   <g id="patch_73">
    <path d="M 291.15 220.668719 
C 291.81964 220.668719 292.461944 220.404385 292.935452 219.933933 
C 293.408959 219.46348 293.67501 218.82532 293.67501 218.16 
C 293.67501 217.49468 293.408959 216.85652 292.935452 216.386067 
C 292.461944 215.915615 291.81964 215.651281 291.15 215.651281 
C 290.48036 215.651281 289.838056 215.915615 289.364548 216.386067 
C 288.891041 216.85652 288.62499 217.49468 288.62499 218.16 
C 288.62499 218.82532 288.891041 219.46348 289.364548 219.933933 
C 289.838056 220.404385 290.48036 220.668719 291.15 220.668719 
z
" clip-path="url(#pf2a6b3ffc7)" style="fill: #0871b7; fill-opacity: 0.752941; stroke: #231f20; stroke-linejoin: miter"/>
   </g>
   <g id="patch_74">
    <path d="M 221.4 151.368719 
C 222.06964 151.368719 222.711944 151.104385 223.185452 150.633933 
C 223.658959 150.16348 223.92501 149.52532 223.92501 148.86 
C 223.92501 148.19468 223.658959 147.55652 223.185452 147.086067 
C 222.711944 146.615615 222.06964 146.351281 221.4 146.351281 
C 220.73036 146.351281 220.088056 146.615615 219.614548 147.086067 
C 219.141041 147.55652 218.87499 148.19468 218.87499 148.86 
C 218.87499 149.52532 219.141041 150.16348 219.614548 150.633933 
C 220.088056 151.104385 220.73036 151.368719 221.4 151.368719 
z
" clip-path="url(#pf2a6b3ffc7)" style="fill: #0871b7; fill-opacity: 0.752941; stroke: #231f20; stroke-linejoin: miter"/>
   </g>
   <g id="patch_75">
    <path d="M 186.525 265.638444 
C 189.949235 265.638444 193.233683 264.286759 195.654983 261.88108 
C 198.076283 259.475402 199.436746 256.212143 199.436746 252.81 
C 199.436746 249.407857 198.076283 246.144598 195.654983 243.73892 
C 193.233683 241.333241 189.949235 239.981556 186.525 239.981556 
C 183.100765 239.981556 179.816317 241.333241 177.395017 243.73892 
C 174.973717 246.144598 173.613254 249.407857 173.613254 252.81 
C 173.613254 256.212143 174.973717 259.475402 177.395017 261.88108 
C 179.816317 264.286759 183.100765 265.638444 186.525 265.638444 
z
" clip-path="url(#pf2a6b3ffc7)" style="fill: #0871b7; fill-opacity: 0.752941; stroke: #231f20; stroke-linejoin: miter"/>
   </g>
   <g id="patch_76">
    <path d="M 256.275 265.638444 
C 259.699235 265.638444 262.983683 264.286759 265.404983 261.88108 
C 267.826283 259.475402 269.186746 256.212143 269.186746 252.81 
C 269.186746 249.407857 267.826283 246.144598 265.404983 243.73892 
C 262.983683 241.333241 259.699235 239.981556 256.275 239.981556 
C 252.850765 239.981556 249.566317 241.333241 247.145017 243.73892 
C 244.723717 246.144598 243.363254 249.407857 243.363254 252.81 
C 243.363254 256.212143 244.723717 259.475402 247.145017 261.88108 
C 249.566317 264.286759 252.850765 265.638444 256.275 265.638444 
z
" clip-path="url(#pf2a6b3ffc7)" style="fill: #0871b7; fill-opacity: 0.752941; stroke: #231f20; stroke-linejoin: miter"/>
   </g>
   <g id="patch_77">
    <path d="M 186.525 196.338444 
C 189.949235 196.338444 193.233683 194.986759 195.654983 192.58108 
C 198.076283 190.175402 199.436746 186.912143 199.436746 183.51 
C 199.436746 180.107857 198.076283 176.844598 195.654983 174.43892 
C 193.233683 172.033241 189.949235 170.681556 186.525 170.681556 
C 183.100765 170.681556 179.816317 172.033241 177.395017 174.43892 
C 174.973717 176.844598 173.613254 180.107857 173.613254 183.51 
C 173.613254 186.912143 174.973717 190.175402 177.395017 192.58108 
C 179.816317 194.986759 183.100765 196.338444 186.525 196.338444 
z
" clip-path="url(#pf2a6b3ffc7)" style="fill: #0871b7; fill-opacity: 0.752941; stroke: #231f20; stroke-linejoin: miter"/>
   </g>
   <g id="patch_78">
    <path d="M 256.275 196.338444 
C 259.699235 196.338444 262.983683 194.986759 265.404983 192.58108 
C 267.826283 190.175402 269.186746 186.912143 269.186746 183.51 
C 269.186746 180.107857 267.826283 176.844598 265.404983 174.43892 
C 262.983683 172.033241 259.699235 170.681556 256.275 170.681556 
C 252.850765 170.681556 249.566317 172.033241 247.145017 174.43892 
C 244.723717 176.844598 243.363254 180.107857 243.363254 183.51 
C 243.363254 186.912143 244.723717 190.175402 247.145017 192.58108 
C 249.566317 194.986759 252.850765 196.338444 256.275 196.338444 
z
" clip-path="url(#pf2a6b3ffc7)" style="fill: #0871b7; fill-opacity: 0.752941; stroke: #231f20; stroke-linejoin: miter"/>
   </g>
   <g id="patch_79">
    <path d="M 221.4 261.247038 
C 223.652058 261.247038 225.812181 260.358059 227.404626 258.775887 
C 228.997072 257.193715 229.891824 255.047529 229.891824 252.81 
C 229.891824 250.572471 228.997072 248.426285 227.404626 246.844113 
C 225.812181 245.261941 223.652058 244.372962 221.4 244.372962 
C 219.147942 244.372962 216.987819 245.261941 215.395374 246.844113 
C 213.802928 248.426285 212.908176 250.572471 212.908176 252.81 
C 212.908176 255.047529 213.802928 257.193715 215.395374 258.775887 
C 216.987819 260.358059 219.147942 261.247038 221.4 261.247038 
z
" clip-path="url(#pf2a6b3ffc7)" style="fill: #b74e08; fill-opacity: 0.752941; stroke: #231f20; stroke-linejoin: miter"/>
   </g>
   <g id="patch_80">
    <path d="M 186.525 226.597038 
C 188.777058 226.597038 190.937181 225.708059 192.529626 224.125887 
C 194.122072 222.543715 195.016824 220.397529 195.016824 218.16 
C 195.016824 215.922471 194.122072 213.776285 192.529626 212.194113 
C 190.937181 210.611941 188.777058 209.722962 186.525 209.722962 
C 184.272942 209.722962 182.112819 210.611941 180.520374 212.194113 
C 178.927928 213.776285 178.033176 215.922471 178.033176 218.16 
C 178.033176 220.397529 178.927928 222.543715 180.520374 224.125887 
C 182.112819 225.708059 184.272942 226.597038 186.525 226.597038 
z
" clip-path="url(#pf2a6b3ffc7)" style="fill: #b74e08; fill-opacity: 0.752941; stroke: #231f20; stroke-linejoin: miter"/>
   </g>
   <g id="patch_81">
    <path d="M 256.275 226.597038 
C 258.527058 226.597038 260.687181 225.708059 262.279626 224.125887 
C 263.872072 222.543715 264.766824 220.397529 264.766824 218.16 
C 264.766824 215.922471 263.872072 213.776285 262.279626 212.194113 
C 260.687181 210.611941 258.527058 209.722962 256.275 209.722962 
C 254.022942 209.722962 251.862819 210.611941 250.270374 212.194113 
C 248.677928 213.776285 247.783176 215.922471 247.783176 218.16 
C 247.783176 220.397529 248.677928 222.543715 250.270374 224.125887 
C 251.862819 225.708059 254.022942 226.597038 256.275 226.597038 
z
" clip-path="url(#pf2a6b3ffc7)" style="fill: #b74e08; fill-opacity: 0.752941; stroke: #231f20; stroke-linejoin: miter"/>
   </g>
   <g id="patch_82">
    <path d="M 221.4 191.947038 
C 223.652058 191.947038 225.812181 191.058059 227.404626 189.475887 
C 228.997072 187.893715 229.891824 185.747529 229.891824 183.51 
C 229.891824 181.272471 228.997072 179.126285 227.404626 177.544113 
C 225.812181 175.961941 223.652058 175.072962 221.4 175.072962 
C 219.147942 175.072962 216.987819 175.961941 215.395374 177.544113 
C 213.802928 179.126285 212.908176 181.272471 212.908176 183.51 
C 212.908176 185.747529 213.802928 187.893715 215.395374 189.475887 
C 216.987819 191.058059 219.147942 191.947038 221.4 191.947038 
z
" clip-path="url(#pf2a6b3ffc7)" style="fill: #b74e08; fill-opacity: 0.752941; stroke: #231f20; stroke-linejoin: miter"/>
   </g>
   <g id="patch_83">
    <path d="M 221.4 223.708889 
C 222.881138 223.708889 224.301812 223.124223 225.349135 222.083657 
C 226.396458 221.043091 226.984921 219.631583 226.984921 218.16 
C 226.984921 216.688417 226.396458 215.276909 225.349135 214.236343 
C 224.301812 213.195777 222.881138 212.611111 221.4 212.611111 
C 219.918862 212.611111 218.498188 213.195777 217.450865 214.236343 
C 216.403542 215.276909 215.815079 216.688417 215.815079 218.16 
C 215.815079 219.631583 216.403542 221.043091 217.450865 222.083657 
C 218.498188 223.124223 219.918862 223.708889 221.4 223.708889 
z
" clip-path="url(#pf2a6b3ffc7)" style="fill: #0871b7; fill-opacity: 0.752941; stroke: #231f20; stroke-linejoin: miter"/>
   </g>
  </g>
 </g>
 <defs>
  <clipPath id="pf2a6b3ffc7">
   <rect x="54" y="51.84" width="334.8" height="332.64"/>
  </clipPath>
 </defs>
</svg>
