<?xml version="1.0" encoding="utf-8" standalone="no"?>
<!DOCTYPE svg PUBLIC "-//W3C//DTD SVG 1.1//EN"
  "http://www.w3.org/Graphics/SVG/1.1/DTD/svg11.dtd">
<svg xmlns:xlink="http://www.w3.org/1999/xlink" width="432pt" height="432pt" viewBox="0 0 432 432" xmlns="http://www.w3.org/2000/svg" version="1.1">
 <metadata>
  <rdf:RDF xmlns:dc="http://purl.org/dc/elements/1.1/" xmlns:cc="http://creativecommons.org/ns#" xmlns:rdf="http://www.w3.org/1999/02/22-rdf-syntax-ns#">
   <cc:Work>
    <dc:type rdf:resource="http://purl.org/dc/dcmitype/StillImage"/>
    <dc:date>2025-03-02T17:55:06.133725</dc:date>
    <dc:format>image/svg+xml</dc:format>
    <dc:creator>
     <cc:Agent>
      <dc:title>Matplotlib v3.10.0, https://matplotlib.org/</dc:title>
     </cc:Agent>
    </dc:creator>
   </cc:Work>
  </rdf:RDF>
 </metadata>
 <defs>
  <style type="text/css">*{stroke-linejoin: round; stroke-linecap: butt}</style>
 </defs>
 <g id="figure_1">
  <g id="patch_1">
   <path d="M 0 432 
L 432 432 
L 432 0 
L 0 0 
z
" style="fill: #ffffff"/>
  </g>
  <g id="axes_1">
   <g id="patch_2">
    <path d="M 81.9 356.76 
L 360.9 356.76 
L 360.9 79.56 
L 81.9 79.56 
L 81.9 356.76 
z
" clip-path="url(#p1a613bda0a)" style="fill: none; stroke: #969696; stroke-width: 1.5; stroke-linejoin: miter"/>
   </g>
   <g id="patch_3">
    <path d="M 109.8 344.489653 
C 113.923902 344.489653 117.879454 342.86178 120.795493 339.964554 
C 123.711532 337.067329 125.349975 333.137296 125.349975 329.04 
C 125.349975 324.942704 123.711532 321.012671 120.795493 318.115446 
C 117.879454 315.21822 113.923902 313.590347 109.8 313.590347 
C 105.676098 313.590347 101.720546 315.21822 98.804507 318.115446 
C 95.888468 321.012671 94.250025 324.942704 94.250025 329.04 
C 94.250025 333.137296 95.888468 337.067329 98.804507 339.964554 
C 101.720546 342.86178 105.676098 344.489653 109.8 344.489653 
z
" clip-path="url(#p1a613bda0a)" style="fill: #0871b7; fill-opacity: 0.752941; stroke: #231f20; stroke-linejoin: miter"/>
   </g>
   <g id="patch_4">
    <path d="M 333 344.489653 
C 337.123902 344.489653 341.079454 342.86178 343.995493 339.964554 
C 346.911532 337.067329 348.549975 333.137296 348.549975 329.04 
C 348.549975 324.942704 346.911532 321.012671 343.995493 318.115446 
C 341.079454 315.21822 337.123902 313.590347 333 313.590347 
C 328.876098 313.590347 324.920546 315.21822 322.004507 318.115446 
C 319.088468 321.012671 317.450025 324.942704 317.450025 329.04 
C 317.450025 333.137296 319.088468 337.067329 322.004507 339.964554 
C 324.920546 342.86178 328.876098 344.489653 333 344.489653 
z
" clip-path="url(#p1a613bda0a)" style="fill: #0871b7; fill-opacity: 0.752941; stroke: #231f20; stroke-linejoin: miter"/>
   </g>
   <g id="patch_5">
    <path d="M 109.8 122.729653 
C 113.923902 122.729653 117.879454 121.10178 120.795493 118.204554 
C 123.711532 115.307329 125.349975 111.377296 125.349975 107.28 
C 125.349975 103.182704 123.711532 99.252671 120.795493 96.355446 
C 117.879454 93.45822 113.923902 91.830347 109.8 91.830347 
C 105.676098 91.830347 101.720546 93.45822 98.804507 96.355446 
C 95.888468 99.252671 94.250025 103.182704 94.250025 107.28 
C 94.250025 111.377296 95.888468 115.307329 98.804507 118.204554 
C 101.720546 121.10178 105.676098 122.729653 109.8 122.729653 
z
" clip-path="url(#p1a613bda0a)" style="fill: #0871b7; fill-opacity: 0.752941; stroke: #231f20; stroke-linejoin: miter"/>
   </g>
   <g id="patch_6">
    <path d="M 333 122.729653 
C 337.123902 122.729653 341.079454 121.10178 343.995493 118.204554 
C 346.911532 115.307329 348.549975 111.377296 348.549975 107.28 
C 348.549975 103.182704 346.911532 99.252671 343.995493 96.355446 
C 341.079454 93.45822 337.123902 91.830347 333 91.830347 
C 328.876098 91.830347 324.920546 93.45822 322.004507 96.355446 
C 319.088468 99.252671 317.450025 103.182704 317.450025 107.28 
C 317.450025 111.377296 319.088468 115.307329 322.004507 118.204554 
C 324.920546 121.10178 328.876098 122.729653 333 122.729653 
z
" clip-path="url(#p1a613bda0a)" style="fill: #0871b7; fill-opacity: 0.752941; stroke: #231f20; stroke-linejoin: miter"/>
   </g>
   <g id="patch_7">
    <path d="M 305.1 355.304354 
C 312.110618 355.304354 318.835043 352.536976 323.792298 347.611703 
C 328.749553 342.686429 331.534901 336.005388 331.534901 329.04 
C 331.534901 322.074612 328.749553 315.393571 323.792298 310.468297 
C 318.835043 305.543024 312.110618 302.775646 305.1 302.775646 
C 298.089382 302.775646 291.364957 305.543024 286.407702 310.468297 
C 281.450447 315.393571 278.665099 322.074612 278.665099 329.04 
C 278.665099 336.005388 281.450447 342.686429 286.407702 347.611703 
C 291.364957 352.536976 298.089382 355.304354 305.1 355.304354 
z
" clip-path="url(#p1a613bda0a)" style="fill: #b74e08; fill-opacity: 0.752941; stroke: #231f20; stroke-linejoin: miter"/>
   </g>
   <g id="patch_8">
    <path d="M 333 327.584354 
C 340.010618 327.584354 346.735043 324.816976 351.692298 319.891703 
C 356.649553 314.966429 359.434901 308.285388 359.434901 301.32 
C 359.434901 294.354612 356.649553 287.673571 351.692298 282.748297 
C 346.735043 277.823024 340.010618 275.055646 333 275.055646 
C 325.989382 275.055646 319.264957 277.823024 314.307702 282.748297 
C 309.350447 287.673571 306.565099 294.354612 306.565099 301.32 
C 306.565099 308.285388 309.350447 314.966429 314.307702 319.891703 
C 319.264957 324.816976 325.989382 327.584354 333 327.584354 
z
" clip-path="url(#p1a613bda0a)" style="fill: #b74e08; fill-opacity: 0.752941; stroke: #231f20; stroke-linejoin: miter"/>
   </g>
   <g id="patch_9">
    <path d="M 109.8 161.264354 
C 116.810618 161.264354 123.535043 158.496976 128.492298 153.571703 
C 133.449553 148.646429 136.234901 141.965388 136.234901 135 
C 136.234901 128.034612 133.449553 121.353571 128.492298 116.428297 
C 123.535043 111.503024 116.810618 108.735646 109.8 108.735646 
C 102.789382 108.735646 96.064957 111.503024 91.107702 116.428297 
C 86.150447 121.353571 83.365099 128.034612 83.365099 135 
C 83.365099 141.965388 86.150447 148.646429 91.107702 153.571703 
C 96.064957 158.496976 102.789382 161.264354 109.8 161.264354 
z
" clip-path="url(#p1a613bda0a)" style="fill: #b74e08; fill-opacity: 0.752941; stroke: #231f20; stroke-linejoin: miter"/>
   </g>
   <g id="patch_10">
    <path d="M 333 161.264354 
C 340.010618 161.264354 346.735043 158.496976 351.692298 153.571703 
C 356.649553 148.646429 359.434901 141.965388 359.434901 135 
C 359.434901 128.034612 356.649553 121.353571 351.692298 116.428297 
C 346.735043 111.503024 340.010618 108.735646 333 108.735646 
C 325.989382 108.735646 319.264957 111.503024 314.307702 116.428297 
C 309.350447 121.353571 306.565099 128.034612 306.565099 135 
C 306.565099 141.965388 309.350447 148.646429 314.307702 153.571703 
C 319.264957 158.496976 325.989382 161.264354 333 161.264354 
z
" clip-path="url(#p1a613bda0a)" style="fill: #b74e08; fill-opacity: 0.752941; stroke: #231f20; stroke-linejoin: miter"/>
   </g>
   <g id="patch_11">
    <path d="M 137.7 133.544354 
C 144.710618 133.544354 151.435043 130.776976 156.392298 125.851703 
C 161.349553 120.926429 164.134901 114.245388 164.134901 107.28 
C 164.134901 100.314612 161.349553 93.633571 156.392298 88.708297 
C 151.435043 83.783024 144.710618 81.015646 137.7 81.015646 
C 130.689382 81.015646 123.964957 83.783024 119.007702 88.708297 
C 114.050447 93.633571 111.265099 100.314612 111.265099 107.28 
C 111.265099 114.245388 114.050447 120.926429 119.007702 125.851703 
C 123.964957 130.776976 130.689382 133.544354 137.7 133.544354 
z
" clip-path="url(#p1a613bda0a)" style="fill: #b74e08; fill-opacity: 0.752941; stroke: #231f20; stroke-linejoin: miter"/>
   </g>
   <g id="patch_12">
    <path d="M 305.1 133.544354 
C 312.110618 133.544354 318.835043 130.776976 323.792298 125.851703 
C 328.749553 120.926429 331.534901 114.245388 331.534901 107.28 
C 331.534901 100.314612 328.749553 93.633571 323.792298 88.708297 
C 318.835043 83.783024 312.110618 81.015646 305.1 81.015646 
C 298.089382 81.015646 291.364957 83.783024 286.407702 88.708297 
C 281.450447 93.633571 278.665099 100.314612 278.665099 107.28 
C 278.665099 114.245388 281.450447 120.926429 286.407702 125.851703 
C 291.364957 130.776976 298.089382 133.544354 305.1 133.544354 
z
" clip-path="url(#p1a613bda0a)" style="fill: #b74e08; fill-opacity: 0.752941; stroke: #231f20; stroke-linejoin: miter"/>
   </g>
   <g id="patch_13">
    <path d="M 137.7 355.304354 
C 144.710618 355.304354 151.435043 352.536976 156.392298 347.611703 
C 161.349553 342.686429 164.134901 336.005388 164.134901 329.04 
C 164.134901 322.074612 161.349553 315.393571 156.392298 310.468297 
C 151.435043 305.543024 144.710618 302.775646 137.7 302.775646 
C 130.689382 302.775646 123.964957 305.543024 119.007702 310.468297 
C 114.050447 315.393571 111.265099 322.074612 111.265099 329.04 
C 111.265099 336.005388 114.050447 342.686429 119.007702 347.611703 
C 123.964957 352.536976 130.689382 355.304354 137.7 355.304354 
z
" clip-path="url(#p1a613bda0a)" style="fill: #b74e08; fill-opacity: 0.752941; stroke: #231f20; stroke-linejoin: miter"/>
   </g>
   <g id="patch_14">
    <path d="M 109.8 327.584354 
C 116.810618 327.584354 123.535043 324.816976 128.492298 319.891703 
C 133.449553 314.966429 136.234901 308.285388 136.234901 301.32 
C 136.234901 294.354612 133.449553 287.673571 128.492298 282.748297 
C 123.535043 277.823024 116.810618 275.055646 109.8 275.055646 
C 102.789382 275.055646 96.064957 277.823024 91.107702 282.748297 
C 86.150447 287.673571 83.365099 294.354612 83.365099 301.32 
C 83.365099 308.285388 86.150447 314.966429 91.107702 319.891703 
C 96.064957 324.816976 102.789382 327.584354 109.8 327.584354 
z
" clip-path="url(#p1a613bda0a)" style="fill: #b74e08; fill-opacity: 0.752941; stroke: #231f20; stroke-linejoin: miter"/>
   </g>
   <g id="patch_15">
    <path d="M 333 207.074967 
C 344.839458 207.074967 356.195597 202.401448 364.567358 194.083698 
C 372.939119 185.765948 377.642986 174.483075 377.642986 162.72 
C 377.642986 150.956925 372.939119 139.674052 364.567358 131.356302 
C 356.195597 123.038552 344.839458 118.365033 333 118.365033 
C 321.160542 118.365033 309.804403 123.038552 301.432642 131.356302 
C 293.060881 139.674052 288.357014 150.956925 288.357014 162.72 
C 288.357014 174.483075 293.060881 185.765948 301.432642 194.083698 
C 309.804403 202.401448 321.160542 207.074967 333 207.074967 
z
" clip-path="url(#p1a613bda0a)" style="fill: #0871b7; fill-opacity: 0.752941; stroke: #231f20; stroke-linejoin: miter"/>
   </g>
   <g id="patch_16">
    <path d="M 277.2 151.634967 
C 289.039458 151.634967 300.395597 146.961448 308.767358 138.643698 
C 317.139119 130.325948 321.842986 119.043075 321.842986 107.28 
C 321.842986 95.516925 317.139119 84.234052 308.767358 75.916302 
C 300.395597 67.598552 289.039458 62.925033 277.2 62.925033 
C 265.360542 62.925033 254.004403 67.598552 245.632642 75.916302 
C 237.260881 84.234052 232.557014 95.516925 232.557014 107.28 
C 232.557014 119.043075 237.260881 130.325948 245.632642 138.643698 
C 254.004403 146.961448 265.360542 151.634967 277.2 151.634967 
z
" clip-path="url(#p1a613bda0a)" style="fill: #0871b7; fill-opacity: 0.752941; stroke: #231f20; stroke-linejoin: miter"/>
   </g>
   <g id="patch_17">
    <path d="M 333 317.954967 
C 344.839458 317.954967 356.195597 313.281448 364.567358 304.963698 
C 372.939119 296.645948 377.642986 285.363075 377.642986 273.6 
C 377.642986 261.836925 372.939119 250.554052 364.567358 242.236302 
C 356.195597 233.918552 344.839458 229.245033 333 229.245033 
C 321.160542 229.245033 309.804403 233.918552 301.432642 242.236302 
C 293.060881 250.554052 288.357014 261.836925 288.357014 273.6 
C 288.357014 285.363075 293.060881 296.645948 301.432642 304.963698 
C 309.804403 313.281448 321.160542 317.954967 333 317.954967 
z
" clip-path="url(#p1a613bda0a)" style="fill: #0871b7; fill-opacity: 0.752941; stroke: #231f20; stroke-linejoin: miter"/>
   </g>
   <g id="patch_18">
    <path d="M 165.6 151.634967 
C 177.439458 151.634967 188.795597 146.961448 197.167358 138.643698 
C 205.539119 130.325948 210.242986 119.043075 210.242986 107.28 
C 210.242986 95.516925 205.539119 84.234052 197.167358 75.916302 
C 188.795597 67.598552 177.439458 62.925033 165.6 62.925033 
C 153.760542 62.925033 142.404403 67.598552 134.032642 75.916302 
C 125.660881 84.234052 120.957014 95.516925 120.957014 107.28 
C 120.957014 119.043075 125.660881 130.325948 134.032642 138.643698 
C 142.404403 146.961448 153.760542 151.634967 165.6 151.634967 
z
" clip-path="url(#p1a613bda0a)" style="fill: #0871b7; fill-opacity: 0.752941; stroke: #231f20; stroke-linejoin: miter"/>
   </g>
   <g id="patch_19">
    <path d="M 165.6 373.394967 
C 177.439458 373.394967 188.795597 368.721448 197.167358 360.403698 
C 205.539119 352.085948 210.242986 340.803075 210.242986 329.04 
C 210.242986 317.276925 205.539119 305.994052 197.167358 297.676302 
C 188.795597 289.358552 177.439458 284.685033 165.6 284.685033 
C 153.760542 284.685033 142.404403 289.358552 134.032642 297.676302 
C 125.660881 305.994052 120.957014 317.276925 120.957014 329.04 
C 120.957014 340.803075 125.660881 352.085948 134.032642 360.403698 
C 142.404403 368.721448 153.760542 373.394967 165.6 373.394967 
z
" clip-path="url(#p1a613bda0a)" style="fill: #0871b7; fill-opacity: 0.752941; stroke: #231f20; stroke-linejoin: miter"/>
   </g>
   <g id="patch_20">
    <path d="M 277.2 373.394967 
C 289.039458 373.394967 300.395597 368.721448 308.767358 360.403698 
C 317.139119 352.085948 321.842986 340.803075 321.842986 329.04 
C 321.842986 317.276925 317.139119 305.994052 308.767358 297.676302 
C 300.395597 289.358552 289.039458 284.685033 277.2 284.685033 
C 265.360542 284.685033 254.004403 289.358552 245.632642 297.676302 
C 237.260881 305.994052 232.557014 317.276925 232.557014 329.04 
C 232.557014 340.803075 237.260881 352.085948 245.632642 360.403698 
C 254.004403 368.721448 265.360542 373.394967 277.2 373.394967 
z
" clip-path="url(#p1a613bda0a)" style="fill: #0871b7; fill-opacity: 0.752941; stroke: #231f20; stroke-linejoin: miter"/>
   </g>
   <g id="patch_21">
    <path d="M 109.8 317.954967 
C 121.639458 317.954967 132.995597 313.281448 141.367358 304.963698 
C 149.739119 296.645948 154.442986 285.363075 154.442986 273.6 
C 154.442986 261.836925 149.739119 250.554052 141.367358 242.236302 
C 132.995597 233.918552 121.639458 229.245033 109.8 229.245033 
C 97.960542 229.245033 86.604403 233.918552 78.232642 242.236302 
C 69.860881 250.554052 65.157014 261.836925 65.157014 273.6 
C 65.157014 285.363075 69.860881 296.645948 78.232642 304.963698 
C 86.604403 313.281448 97.960542 317.954967 109.8 317.954967 
z
" clip-path="url(#p1a613bda0a)" style="fill: #0871b7; fill-opacity: 0.752941; stroke: #231f20; stroke-linejoin: miter"/>
   </g>
   <g id="patch_22">
    <path d="M 109.8 207.074967 
C 121.639458 207.074967 132.995597 202.401448 141.367358 194.083698 
C 149.739119 185.765948 154.442986 174.483075 154.442986 162.72 
C 154.442986 150.956925 149.739119 139.674052 141.367358 131.356302 
C 132.995597 123.038552 121.639458 118.365033 109.8 118.365033 
C 97.960542 118.365033 86.604403 123.038552 78.232642 131.356302 
C 69.860881 139.674052 65.157014 150.956925 65.157014 162.72 
C 65.157014 174.483075 69.860881 185.765948 78.232642 194.083698 
C 86.604403 202.401448 97.960542 207.074967 109.8 207.074967 
z
" clip-path="url(#p1a613bda0a)" style="fill: #0871b7; fill-opacity: 0.752941; stroke: #231f20; stroke-linejoin: miter"/>
   </g>
   <g id="patch_23">
    <path d="M 305.1 345.969306 
C 317.018025 345.969306 328.449522 341.264773 336.876839 332.891827 
C 345.304155 324.51888 350.039236 313.161134 350.039236 301.32 
C 350.039236 289.478866 345.304155 278.12112 336.876839 269.748173 
C 328.449522 261.375227 317.018025 256.670694 305.1 256.670694 
C 293.181975 256.670694 281.750478 261.375227 273.323161 269.748173 
C 264.895845 278.12112 260.160764 289.478866 260.160764 301.32 
C 260.160764 313.161134 264.895845 324.51888 273.323161 332.891827 
C 281.750478 341.264773 293.181975 345.969306 305.1 345.969306 
z
" clip-path="url(#p1a613bda0a)" style="fill: #0871b7; fill-opacity: 0.752941; stroke: #231f20; stroke-linejoin: miter"/>
   </g>
   <g id="patch_24">
    <path d="M 137.7 179.649306 
C 149.618025 179.649306 161.049522 174.944773 169.476839 166.571827 
C 177.904155 158.19888 182.639236 146.841134 182.639236 135 
C 182.639236 123.158866 177.904155 111.80112 169.476839 103.428173 
C 161.049522 95.055227 149.618025 90.350694 137.7 90.350694 
C 125.781975 90.350694 114.350478 95.055227 105.923161 103.428173 
C 97.495845 111.80112 92.760764 123.158866 92.760764 135 
C 92.760764 146.841134 97.495845 158.19888 105.923161 166.571827 
C 114.350478 174.944773 125.781975 179.649306 137.7 179.649306 
z
" clip-path="url(#p1a613bda0a)" style="fill: #0871b7; fill-opacity: 0.752941; stroke: #231f20; stroke-linejoin: miter"/>
   </g>
   <g id="patch_25">
    <path d="M 305.1 179.649306 
C 317.018025 179.649306 328.449522 174.944773 336.876839 166.571827 
C 345.304155 158.19888 350.039236 146.841134 350.039236 135 
C 350.039236 123.158866 345.304155 111.80112 336.876839 103.428173 
C 328.449522 95.055227 317.018025 90.350694 305.1 90.350694 
C 293.181975 90.350694 281.750478 95.055227 273.323161 103.428173 
C 264.895845 111.80112 260.160764 123.158866 260.160764 135 
C 260.160764 146.841134 264.895845 158.19888 273.323161 166.571827 
C 281.750478 174.944773 293.181975 179.649306 305.1 179.649306 
z
" clip-path="url(#p1a613bda0a)" style="fill: #0871b7; fill-opacity: 0.752941; stroke: #231f20; stroke-linejoin: miter"/>
   </g>
   <g id="patch_26">
    <path d="M 137.7 345.969306 
C 149.618025 345.969306 161.049522 341.264773 169.476839 332.891827 
C 177.904155 324.51888 182.639236 313.161134 182.639236 301.32 
C 182.639236 289.478866 177.904155 278.12112 169.476839 269.748173 
C 161.049522 261.375227 149.618025 256.670694 137.7 256.670694 
C 125.781975 256.670694 114.350478 261.375227 105.923161 269.748173 
C 97.495845 278.12112 92.760764 289.478866 92.760764 301.32 
C 92.760764 313.161134 97.495845 324.51888 105.923161 332.891827 
C 114.350478 341.264773 125.781975 345.969306 137.7 345.969306 
z
" clip-path="url(#p1a613bda0a)" style="fill: #0871b7; fill-opacity: 0.752941; stroke: #231f20; stroke-linejoin: miter"/>
   </g>
   <g id="patch_27">
    <path d="M 333 302.885531 
C 348.216213 302.885531 362.811257 296.879069 373.570745 286.188998 
C 384.330232 275.498927 390.375697 260.998044 390.375697 245.88 
C 390.375697 230.761956 384.330232 216.261073 373.570745 205.571002 
C 362.811257 194.880931 348.216213 188.874469 333 188.874469 
C 317.783787 188.874469 303.188743 194.880931 292.429255 205.571002 
C 281.669768 216.261073 275.624303 230.761956 275.624303 245.88 
C 275.624303 260.998044 281.669768 275.498927 292.429255 286.188998 
C 303.188743 296.879069 317.783787 302.885531 333 302.885531 
z
" clip-path="url(#p1a613bda0a)" style="fill: #b74e08; fill-opacity: 0.752941; stroke: #231f20; stroke-linejoin: miter"/>
   </g>
   <g id="patch_28">
    <path d="M 333 247.445531 
C 348.216213 247.445531 362.811257 241.439069 373.570745 230.748998 
C 384.330232 220.058927 390.375697 205.558044 390.375697 190.44 
C 390.375697 175.321956 384.330232 160.821073 373.570745 150.131002 
C 362.811257 139.440931 348.216213 133.434469 333 133.434469 
C 317.783787 133.434469 303.188743 139.440931 292.429255 150.131002 
C 281.669768 160.821073 275.624303 175.321956 275.624303 190.44 
C 275.624303 205.558044 281.669768 220.058927 292.429255 230.748998 
C 303.188743 241.439069 317.783787 247.445531 333 247.445531 
z
" clip-path="url(#p1a613bda0a)" style="fill: #b74e08; fill-opacity: 0.752941; stroke: #231f20; stroke-linejoin: miter"/>
   </g>
   <g id="patch_29">
    <path d="M 193.5 164.285531 
C 208.716213 164.285531 223.311257 158.279069 234.070745 147.588998 
C 244.830232 136.898927 250.875697 122.398044 250.875697 107.28 
C 250.875697 92.161956 244.830232 77.661073 234.070745 66.971002 
C 223.311257 56.280931 208.716213 50.274469 193.5 50.274469 
C 178.283787 50.274469 163.688743 56.280931 152.929255 66.971002 
C 142.169768 77.661073 136.124303 92.161956 136.124303 107.28 
C 136.124303 122.398044 142.169768 136.898927 152.929255 147.588998 
C 163.688743 158.279069 178.283787 164.285531 193.5 164.285531 
z
" clip-path="url(#p1a613bda0a)" style="fill: #b74e08; fill-opacity: 0.752941; stroke: #231f20; stroke-linejoin: miter"/>
   </g>
   <g id="patch_30">
    <path d="M 249.3 164.285531 
C 264.516213 164.285531 279.111257 158.279069 289.870745 147.588998 
C 300.630232 136.898927 306.675697 122.398044 306.675697 107.28 
C 306.675697 92.161956 300.630232 77.661073 289.870745 66.971002 
C 279.111257 56.280931 264.516213 50.274469 249.3 50.274469 
C 234.083787 50.274469 219.488743 56.280931 208.729255 66.971002 
C 197.969768 77.661073 191.924303 92.161956 191.924303 107.28 
C 191.924303 122.398044 197.969768 136.898927 208.729255 147.588998 
C 219.488743 158.279069 234.083787 164.285531 249.3 164.285531 
z
" clip-path="url(#p1a613bda0a)" style="fill: #b74e08; fill-opacity: 0.752941; stroke: #231f20; stroke-linejoin: miter"/>
   </g>
   <g id="patch_31">
    <path d="M 193.5 386.045531 
C 208.716213 386.045531 223.311257 380.039069 234.070745 369.348998 
C 244.830232 358.658927 250.875697 344.158044 250.875697 329.04 
C 250.875697 313.921956 244.830232 299.421073 234.070745 288.731002 
C 223.311257 278.040931 208.716213 272.034469 193.5 272.034469 
C 178.283787 272.034469 163.688743 278.040931 152.929255 288.731002 
C 142.169768 299.421073 136.124303 313.921956 136.124303 329.04 
C 136.124303 344.158044 142.169768 358.658927 152.929255 369.348998 
C 163.688743 380.039069 178.283787 386.045531 193.5 386.045531 
z
" clip-path="url(#p1a613bda0a)" style="fill: #b74e08; fill-opacity: 0.752941; stroke: #231f20; stroke-linejoin: miter"/>
   </g>
   <g id="patch_32">
    <path d="M 249.3 386.045531 
C 264.516213 386.045531 279.111257 380.039069 289.870745 369.348998 
C 300.630232 358.658927 306.675697 344.158044 306.675697 329.04 
C 306.675697 313.921956 300.630232 299.421073 289.870745 288.731002 
C 279.111257 278.040931 264.516213 272.034469 249.3 272.034469 
C 234.083787 272.034469 219.488743 278.040931 208.729255 288.731002 
C 197.969768 299.421073 191.924303 313.921956 191.924303 329.04 
C 191.924303 344.158044 197.969768 358.658927 208.729255 369.348998 
C 219.488743 380.039069 234.083787 386.045531 249.3 386.045531 
z
" clip-path="url(#p1a613bda0a)" style="fill: #b74e08; fill-opacity: 0.752941; stroke: #231f20; stroke-linejoin: miter"/>
   </g>
   <g id="patch_33">
    <path d="M 109.8 302.885531 
C 125.016213 302.885531 139.611257 296.879069 150.370745 286.188998 
C 161.130232 275.498927 167.175697 260.998044 167.175697 245.88 
C 167.175697 230.761956 161.130232 216.261073 150.370745 205.571002 
C 139.611257 194.880931 125.016213 188.874469 109.8 188.874469 
C 94.583787 188.874469 79.988743 194.880931 69.229255 205.571002 
C 58.469768 216.261073 52.424303 230.761956 52.424303 245.88 
C 52.424303 260.998044 58.469768 275.498927 69.229255 286.188998 
C 79.988743 296.879069 94.583787 302.885531 109.8 302.885531 
z
" clip-path="url(#p1a613bda0a)" style="fill: #b74e08; fill-opacity: 0.752941; stroke: #231f20; stroke-linejoin: miter"/>
   </g>
   <g id="patch_34">
    <path d="M 109.8 247.445531 
C 125.016213 247.445531 139.611257 241.439069 150.370745 230.748998 
C 161.130232 220.058927 167.175697 205.558044 167.175697 190.44 
C 167.175697 175.321956 161.130232 160.821073 150.370745 150.131002 
C 139.611257 139.440931 125.016213 133.434469 109.8 133.434469 
C 94.583787 133.434469 79.988743 139.440931 69.229255 150.131002 
C 58.469768 160.821073 52.424303 175.321956 52.424303 190.44 
C 52.424303 205.558044 58.469768 220.058927 69.229255 230.748998 
C 79.988743 241.439069 94.583787 247.445531 109.8 247.445531 
z
" clip-path="url(#p1a613bda0a)" style="fill: #b74e08; fill-opacity: 0.752941; stroke: #231f20; stroke-linejoin: miter"/>
   </g>
   <g id="patch_35">
    <path d="M 221.4 392.302268 
C 238.286293 392.302268 254.483241 385.636556 266.423654 373.773179 
C 278.364066 361.909801 285.073062 345.81735 285.073062 329.04 
C 285.073062 312.26265 278.364066 296.170199 266.423654 284.306821 
C 254.483241 272.443444 238.286293 265.777732 221.4 265.777732 
C 204.513707 265.777732 188.316759 272.443444 176.376346 284.306821 
C 164.435934 296.170199 157.726938 312.26265 157.726938 329.04 
C 157.726938 345.81735 164.435934 361.909801 176.376346 373.773179 
C 188.316759 385.636556 204.513707 392.302268 221.4 392.302268 
z
" clip-path="url(#p1a613bda0a)" style="fill: #0871b7; fill-opacity: 0.752941; stroke: #231f20; stroke-linejoin: miter"/>
   </g>
   <g id="patch_36">
    <path d="M 109.8 281.422268 
C 126.686293 281.422268 142.883241 274.756556 154.823654 262.893179 
C 166.764066 251.029801 173.473062 234.93735 173.473062 218.16 
C 173.473062 201.38265 166.764066 185.290199 154.823654 173.426821 
C 142.883241 161.563444 126.686293 154.897732 109.8 154.897732 
C 92.913707 154.897732 76.716759 161.563444 64.776346 173.426821 
C 52.835934 185.290199 46.126938 201.38265 46.126938 218.16 
C 46.126938 234.93735 52.835934 251.029801 64.776346 262.893179 
C 76.716759 274.756556 92.913707 281.422268 109.8 281.422268 
z
" clip-path="url(#p1a613bda0a)" style="fill: #0871b7; fill-opacity: 0.752941; stroke: #231f20; stroke-linejoin: miter"/>
   </g>
   <g id="patch_37">
    <path d="M 333 281.422268 
C 349.886293 281.422268 366.083241 274.756556 378.023654 262.893179 
C 389.964066 251.029801 396.673062 234.93735 396.673062 218.16 
C 396.673062 201.38265 389.964066 185.290199 378.023654 173.426821 
C 366.083241 161.563444 349.886293 154.897732 333 154.897732 
C 316.113707 154.897732 299.916759 161.563444 287.976346 173.426821 
C 276.035934 185.290199 269.326938 201.38265 269.326938 218.16 
C 269.326938 234.93735 276.035934 251.029801 287.976346 262.893179 
C 299.916759 274.756556 316.113707 281.422268 333 281.422268 
z
" clip-path="url(#p1a613bda0a)" style="fill: #0871b7; fill-opacity: 0.752941; stroke: #231f20; stroke-linejoin: miter"/>
   </g>
   <g id="patch_38">
    <path d="M 221.4 170.542268 
C 238.286293 170.542268 254.483241 163.876556 266.423654 152.013179 
C 278.364066 140.149801 285.073062 124.05735 285.073062 107.28 
C 285.073062 90.50265 278.364066 74.410199 266.423654 62.546821 
C 254.483241 50.683444 238.286293 44.017732 221.4 44.017732 
C 204.513707 44.017732 188.316759 50.683444 176.376346 62.546821 
C 164.435934 74.410199 157.726938 90.50265 157.726938 107.28 
C 157.726938 124.05735 164.435934 140.149801 176.376346 152.013179 
C 188.316759 163.876556 204.513707 170.542268 221.4 170.542268 
z
" clip-path="url(#p1a613bda0a)" style="fill: #0871b7; fill-opacity: 0.752941; stroke: #231f20; stroke-linejoin: miter"/>
   </g>
   <g id="patch_39">
    <path d="M 165.6 376.723282 
C 185.727036 376.723282 205.03243 368.778317 219.264394 354.638172 
C 233.496358 340.498028 241.492914 321.317184 241.492914 301.32 
C 241.492914 281.322816 233.496358 262.141972 219.264394 248.001828 
C 205.03243 233.861683 185.727036 225.916718 165.6 225.916718 
C 145.472964 225.916718 126.16757 233.861683 111.935606 248.001828 
C 97.703642 262.141972 89.707086 281.322816 89.707086 301.32 
C 89.707086 321.317184 97.703642 340.498028 111.935606 354.638172 
C 126.16757 368.778317 145.472964 376.723282 165.6 376.723282 
z
" clip-path="url(#p1a613bda0a)" style="fill: #b74e08; fill-opacity: 0.752941; stroke: #231f20; stroke-linejoin: miter"/>
   </g>
   <g id="patch_40">
    <path d="M 137.7 349.003282 
C 157.827036 349.003282 177.13243 341.058317 191.364394 326.918172 
C 205.596358 312.778028 213.592914 293.597184 213.592914 273.6 
C 213.592914 253.602816 205.596358 234.421972 191.364394 220.281828 
C 177.13243 206.141683 157.827036 198.196718 137.7 198.196718 
C 117.572964 198.196718 98.26757 206.141683 84.035606 220.281828 
C 69.803642 234.421972 61.807086 253.602816 61.807086 273.6 
C 61.807086 293.597184 69.803642 312.778028 84.035606 326.918172 
C 98.26757 341.058317 117.572964 349.003282 137.7 349.003282 
z
" clip-path="url(#p1a613bda0a)" style="fill: #b74e08; fill-opacity: 0.752941; stroke: #231f20; stroke-linejoin: miter"/>
   </g>
   <g id="patch_41">
    <path d="M 305.1 238.123282 
C 325.227036 238.123282 344.53243 230.178317 358.764394 216.038172 
C 372.996358 201.898028 380.992914 182.717184 380.992914 162.72 
C 380.992914 142.722816 372.996358 123.541972 358.764394 109.401828 
C 344.53243 95.261683 325.227036 87.316718 305.1 87.316718 
C 284.972964 87.316718 265.66757 95.261683 251.435606 109.401828 
C 237.203642 123.541972 229.207086 142.722816 229.207086 162.72 
C 229.207086 182.717184 237.203642 201.898028 251.435606 216.038172 
C 265.66757 230.178317 284.972964 238.123282 305.1 238.123282 
z
" clip-path="url(#p1a613bda0a)" style="fill: #b74e08; fill-opacity: 0.752941; stroke: #231f20; stroke-linejoin: miter"/>
   </g>
   <g id="patch_42">
    <path d="M 277.2 210.403282 
C 297.327036 210.403282 316.63243 202.458317 330.864394 188.318172 
C 345.096358 174.178028 353.092914 154.997184 353.092914 135 
C 353.092914 115.002816 345.096358 95.821972 330.864394 81.681828 
C 316.63243 67.541683 297.327036 59.596718 277.2 59.596718 
C 257.072964 59.596718 237.76757 67.541683 223.535606 81.681828 
C 209.303642 95.821972 201.307086 115.002816 201.307086 135 
C 201.307086 154.997184 209.303642 174.178028 223.535606 188.318172 
C 237.76757 202.458317 257.072964 210.403282 277.2 210.403282 
z
" clip-path="url(#p1a613bda0a)" style="fill: #b74e08; fill-opacity: 0.752941; stroke: #231f20; stroke-linejoin: miter"/>
   </g>
   <g id="patch_43">
    <path d="M 277.2 376.723282 
C 297.327036 376.723282 316.63243 368.778317 330.864394 354.638172 
C 345.096358 340.498028 353.092914 321.317184 353.092914 301.32 
C 353.092914 281.322816 345.096358 262.141972 330.864394 248.001828 
C 316.63243 233.861683 297.327036 225.916718 277.2 225.916718 
C 257.072964 225.916718 237.76757 233.861683 223.535606 248.001828 
C 209.303642 262.141972 201.307086 281.322816 201.307086 301.32 
C 201.307086 321.317184 209.303642 340.498028 223.535606 354.638172 
C 237.76757 368.778317 257.072964 376.723282 277.2 376.723282 
z
" clip-path="url(#p1a613bda0a)" style="fill: #b74e08; fill-opacity: 0.752941; stroke: #231f20; stroke-linejoin: miter"/>
   </g>
   <g id="patch_44">
    <path d="M 305.1 349.003282 
C 325.227036 349.003282 344.53243 341.058317 358.764394 326.918172 
C 372.996358 312.778028 380.992914 293.597184 380.992914 273.6 
C 380.992914 253.602816 372.996358 234.421972 358.764394 220.281828 
C 344.53243 206.141683 325.227036 198.196718 305.1 198.196718 
C 284.972964 198.196718 265.66757 206.141683 251.435606 220.281828 
C 237.203642 234.421972 229.207086 253.602816 229.207086 273.6 
C 229.207086 293.597184 237.203642 312.778028 251.435606 326.918172 
C 265.66757 341.058317 284.972964 349.003282 305.1 349.003282 
z
" clip-path="url(#p1a613bda0a)" style="fill: #b74e08; fill-opacity: 0.752941; stroke: #231f20; stroke-linejoin: miter"/>
   </g>
   <g id="patch_45">
    <path d="M 137.7 238.123282 
C 157.827036 238.123282 177.13243 230.178317 191.364394 216.038172 
C 205.596358 201.898028 213.592914 182.717184 213.592914 162.72 
C 213.592914 142.722816 205.596358 123.541972 191.364394 109.401828 
C 177.13243 95.261683 157.827036 87.316718 137.7 87.316718 
C 117.572964 87.316718 98.26757 95.261683 84.035606 109.401828 
C 69.803642 123.541972 61.807086 142.722816 61.807086 162.72 
C 61.807086 182.717184 69.803642 201.898028 84.035606 216.038172 
C 98.26757 230.178317 117.572964 238.123282 137.7 238.123282 
z
" clip-path="url(#p1a613bda0a)" style="fill: #b74e08; fill-opacity: 0.752941; stroke: #231f20; stroke-linejoin: miter"/>
   </g>
   <g id="patch_46">
    <path d="M 165.6 210.403282 
C 185.727036 210.403282 205.03243 202.458317 219.264394 188.318172 
C 233.496358 174.178028 241.492914 154.997184 241.492914 135 
C 241.492914 115.002816 233.496358 95.821972 219.264394 81.681828 
C 205.03243 67.541683 185.727036 59.596718 165.6 59.596718 
C 145.472964 59.596718 126.16757 67.541683 111.935606 81.681828 
C 97.703642 95.821972 89.707086 115.002816 89.707086 135 
C 89.707086 154.997184 97.703642 174.178028 111.935606 188.318172 
C 126.16757 202.458317 145.472964 210.403282 165.6 210.403282 
z
" clip-path="url(#p1a613bda0a)" style="fill: #b74e08; fill-opacity: 0.752941; stroke: #231f20; stroke-linejoin: miter"/>
   </g>
   <g id="patch_47">
    <path d="M 305.1 342.789196 
C 330.967506 342.789196 355.779029 332.578232 374.070118 314.40515 
C 392.361207 296.232068 402.638477 271.580619 402.638477 245.88 
C 402.638477 220.179381 392.361207 195.527932 374.070118 177.35485 
C 355.779029 159.181768 330.967506 148.970804 305.1 148.970804 
C 279.232494 148.970804 254.420971 159.181768 236.129882 177.35485 
C 217.838793 195.527932 207.561523 220.179381 207.561523 245.88 
C 207.561523 271.580619 217.838793 296.232068 236.129882 314.40515 
C 254.420971 332.578232 279.232494 342.789196 305.1 342.789196 
z
" clip-path="url(#p1a613bda0a)" style="fill: #0871b7; fill-opacity: 0.752941; stroke: #231f20; stroke-linejoin: miter"/>
   </g>
   <g id="patch_48">
    <path d="M 305.1 287.349196 
C 330.967506 287.349196 355.779029 277.138232 374.070118 258.96515 
C 392.361207 240.792068 402.638477 216.140619 402.638477 190.44 
C 402.638477 164.739381 392.361207 140.087932 374.070118 121.91485 
C 355.779029 103.741768 330.967506 93.530804 305.1 93.530804 
C 279.232494 93.530804 254.420971 103.741768 236.129882 121.91485 
C 217.838793 140.087932 207.561523 164.739381 207.561523 190.44 
C 207.561523 216.140619 217.838793 240.792068 236.129882 258.96515 
C 254.420971 277.138232 279.232494 287.349196 305.1 287.349196 
z
" clip-path="url(#p1a613bda0a)" style="fill: #0871b7; fill-opacity: 0.752941; stroke: #231f20; stroke-linejoin: miter"/>
   </g>
   <g id="patch_49">
    <path d="M 193.5 231.909196 
C 219.367506 231.909196 244.179029 221.698232 262.470118 203.52515 
C 280.761207 185.352068 291.038477 160.700619 291.038477 135 
C 291.038477 109.299381 280.761207 84.647932 262.470118 66.47485 
C 244.179029 48.301768 219.367506 38.090804 193.5 38.090804 
C 167.632494 38.090804 142.820971 48.301768 124.529882 66.47485 
C 106.238793 84.647932 95.961523 109.299381 95.961523 135 
C 95.961523 160.700619 106.238793 185.352068 124.529882 203.52515 
C 142.820971 221.698232 167.632494 231.909196 193.5 231.909196 
z
" clip-path="url(#p1a613bda0a)" style="fill: #0871b7; fill-opacity: 0.752941; stroke: #231f20; stroke-linejoin: miter"/>
   </g>
   <g id="patch_50">
    <path d="M 249.3 231.909196 
C 275.167506 231.909196 299.979029 221.698232 318.270118 203.52515 
C 336.561207 185.352068 346.838477 160.700619 346.838477 135 
C 346.838477 109.299381 336.561207 84.647932 318.270118 66.47485 
C 299.979029 48.301768 275.167506 38.090804 249.3 38.090804 
C 223.432494 38.090804 198.620971 48.301768 180.329882 66.47485 
C 162.038793 84.647932 151.761523 109.299381 151.761523 135 
C 151.761523 160.700619 162.038793 185.352068 180.329882 203.52515 
C 198.620971 221.698232 223.432494 231.909196 249.3 231.909196 
z
" clip-path="url(#p1a613bda0a)" style="fill: #0871b7; fill-opacity: 0.752941; stroke: #231f20; stroke-linejoin: miter"/>
   </g>
   <g id="patch_51">
    <path d="M 249.3 398.229196 
C 275.167506 398.229196 299.979029 388.018232 318.270118 369.84515 
C 336.561207 351.672068 346.838477 327.020619 346.838477 301.32 
C 346.838477 275.619381 336.561207 250.967932 318.270118 232.79485 
C 299.979029 214.621768 275.167506 204.410804 249.3 204.410804 
C 223.432494 204.410804 198.620971 214.621768 180.329882 232.79485 
C 162.038793 250.967932 151.761523 275.619381 151.761523 301.32 
C 151.761523 327.020619 162.038793 351.672068 180.329882 369.84515 
C 198.620971 388.018232 223.432494 398.229196 249.3 398.229196 
z
" clip-path="url(#p1a613bda0a)" style="fill: #0871b7; fill-opacity: 0.752941; stroke: #231f20; stroke-linejoin: miter"/>
   </g>
   <g id="patch_52">
    <path d="M 137.7 287.349196 
C 163.567506 287.349196 188.379029 277.138232 206.670118 258.96515 
C 224.961207 240.792068 235.238477 216.140619 235.238477 190.44 
C 235.238477 164.739381 224.961207 140.087932 206.670118 121.91485 
C 188.379029 103.741768 163.567506 93.530804 137.7 93.530804 
C 111.832494 93.530804 87.020971 103.741768 68.729882 121.91485 
C 50.438793 140.087932 40.161523 164.739381 40.161523 190.44 
C 40.161523 216.140619 50.438793 240.792068 68.729882 258.96515 
C 87.020971 277.138232 111.832494 287.349196 137.7 287.349196 
z
" clip-path="url(#p1a613bda0a)" style="fill: #0871b7; fill-opacity: 0.752941; stroke: #231f20; stroke-linejoin: miter"/>
   </g>
   <g id="patch_53">
    <path d="M 193.5 398.229196 
C 219.367506 398.229196 244.179029 388.018232 262.470118 369.84515 
C 280.761207 351.672068 291.038477 327.020619 291.038477 301.32 
C 291.038477 275.619381 280.761207 250.967932 262.470118 232.79485 
C 244.179029 214.621768 219.367506 204.410804 193.5 204.410804 
C 167.632494 204.410804 142.820971 214.621768 124.529882 232.79485 
C 106.238793 250.967932 95.961523 275.619381 95.961523 301.32 
C 95.961523 327.020619 106.238793 351.672068 124.529882 369.84515 
C 142.820971 388.018232 167.632494 398.229196 193.5 398.229196 
z
" clip-path="url(#p1a613bda0a)" style="fill: #0871b7; fill-opacity: 0.752941; stroke: #231f20; stroke-linejoin: miter"/>
   </g>
   <g id="patch_54">
    <path d="M 137.7 342.789196 
C 163.567506 342.789196 188.379029 332.578232 206.670118 314.40515 
C 224.961207 296.232068 235.238477 271.580619 235.238477 245.88 
C 235.238477 220.179381 224.961207 195.527932 206.670118 177.35485 
C 188.379029 159.181768 163.567506 148.970804 137.7 148.970804 
C 111.832494 148.970804 87.020971 159.181768 68.729882 177.35485 
C 50.438793 195.527932 40.161523 220.179381 40.161523 245.88 
C 40.161523 271.580619 50.438793 296.232068 68.729882 314.40515 
C 87.020971 332.578232 111.832494 342.789196 137.7 342.789196 
z
" clip-path="url(#p1a613bda0a)" style="fill: #0871b7; fill-opacity: 0.752941; stroke: #231f20; stroke-linejoin: miter"/>
   </g>
   <g id="patch_55">
    <path d="M 305.1 325.705625 
C 333.806637 325.705625 361.34139 314.37394 381.640048 294.206241 
C 401.938706 274.038542 413.343974 246.681433 413.343974 218.16 
C 413.343974 189.638567 401.938706 162.281458 381.640048 142.113759 
C 361.34139 121.94606 333.806637 110.614375 305.1 110.614375 
C 276.393363 110.614375 248.85861 121.94606 228.559952 142.113759 
C 208.261294 162.281458 196.856026 189.638567 196.856026 218.16 
C 196.856026 246.681433 208.261294 274.038542 228.559952 294.206241 
C 248.85861 314.37394 276.393363 325.705625 305.1 325.705625 
z
" clip-path="url(#p1a613bda0a)" style="fill: #b74e08; fill-opacity: 0.752941; stroke: #231f20; stroke-linejoin: miter"/>
   </g>
   <g id="patch_56">
    <path d="M 221.4 242.545625 
C 250.106637 242.545625 277.64139 231.21394 297.940048 211.046241 
C 318.238706 190.878542 329.643974 163.521433 329.643974 135 
C 329.643974 106.478567 318.238706 79.121458 297.940048 58.953759 
C 277.64139 38.78606 250.106637 27.454375 221.4 27.454375 
C 192.693363 27.454375 165.15861 38.78606 144.859952 58.953759 
C 124.561294 79.121458 113.156026 106.478567 113.156026 135 
C 113.156026 163.521433 124.561294 190.878542 144.859952 211.046241 
C 165.15861 231.21394 192.693363 242.545625 221.4 242.545625 
z
" clip-path="url(#p1a613bda0a)" style="fill: #b74e08; fill-opacity: 0.752941; stroke: #231f20; stroke-linejoin: miter"/>
   </g>
   <g id="patch_57">
    <path d="M 221.4 408.865625 
C 250.106637 408.865625 277.64139 397.53394 297.940048 377.366241 
C 318.238706 357.198542 329.643974 329.841433 329.643974 301.32 
C 329.643974 272.798567 318.238706 245.441458 297.940048 225.273759 
C 277.64139 205.10606 250.106637 193.774375 221.4 193.774375 
C 192.693363 193.774375 165.15861 205.10606 144.859952 225.273759 
C 124.561294 245.441458 113.156026 272.798567 113.156026 301.32 
C 113.156026 329.841433 124.561294 357.198542 144.859952 377.366241 
C 165.15861 397.53394 192.693363 408.865625 221.4 408.865625 
z
" clip-path="url(#p1a613bda0a)" style="fill: #b74e08; fill-opacity: 0.752941; stroke: #231f20; stroke-linejoin: miter"/>
   </g>
   <g id="patch_58">
    <path d="M 137.7 325.705625 
C 166.406637 325.705625 193.94139 314.37394 214.240048 294.206241 
C 234.538706 274.038542 245.943974 246.681433 245.943974 218.16 
C 245.943974 189.638567 234.538706 162.281458 214.240048 142.113759 
C 193.94139 121.94606 166.406637 110.614375 137.7 110.614375 
C 108.993363 110.614375 81.45861 121.94606 61.159952 142.113759 
C 40.861294 162.281458 29.456026 189.638567 29.456026 218.16 
C 29.456026 246.681433 40.861294 274.038542 61.159952 294.206241 
C 81.45861 314.37394 108.993363 325.705625 137.7 325.705625 
z
" clip-path="url(#p1a613bda0a)" style="fill: #b74e08; fill-opacity: 0.752941; stroke: #231f20; stroke-linejoin: miter"/>
   </g>
   <g id="patch_59">
    <path d="M 165.6 400.940278 
C 199.590329 400.940278 232.193078 387.522903 256.22787 363.643174 
C 280.262662 339.763445 293.767163 307.371036 293.767163 273.6 
C 293.767163 239.828964 280.262662 207.436555 256.22787 183.556826 
C 232.193078 159.677097 199.590329 146.259722 165.6 146.259722 
C 131.609671 146.259722 99.006922 159.677097 74.97213 183.556826 
C 50.937338 207.436555 37.432837 239.828964 37.432837 273.6 
C 37.432837 307.371036 50.937338 339.763445 74.97213 363.643174 
C 99.006922 387.522903 131.609671 400.940278 165.6 400.940278 
z
" clip-path="url(#p1a613bda0a)" style="fill: #0871b7; fill-opacity: 0.752941; stroke: #231f20; stroke-linejoin: miter"/>
   </g>
   <g id="patch_60">
    <path d="M 277.2 400.940278 
C 311.190329 400.940278 343.793078 387.522903 367.82787 363.643174 
C 391.862662 339.763445 405.367163 307.371036 405.367163 273.6 
C 405.367163 239.828964 391.862662 207.436555 367.82787 183.556826 
C 343.793078 159.677097 311.190329 146.259722 277.2 146.259722 
C 243.209671 146.259722 210.606922 159.677097 186.57213 183.556826 
C 162.537338 207.436555 149.032837 239.828964 149.032837 273.6 
C 149.032837 307.371036 162.537338 339.763445 186.57213 363.643174 
C 210.606922 387.522903 243.209671 400.940278 277.2 400.940278 
z
" clip-path="url(#p1a613bda0a)" style="fill: #0871b7; fill-opacity: 0.752941; stroke: #231f20; stroke-linejoin: miter"/>
   </g>
   <g id="patch_61">
    <path d="M 165.6 290.060278 
C 199.590329 290.060278 232.193078 276.642903 256.22787 252.763174 
C 280.262662 228.883445 293.767163 196.491036 293.767163 162.72 
C 293.767163 128.948964 280.262662 96.556555 256.22787 72.676826 
C 232.193078 48.797097 199.590329 35.379722 165.6 35.379722 
C 131.609671 35.379722 99.006922 48.797097 74.97213 72.676826 
C 50.937338 96.556555 37.432837 128.948964 37.432837 162.72 
C 37.432837 196.491036 50.937338 228.883445 74.97213 252.763174 
C 99.006922 276.642903 131.609671 290.060278 165.6 290.060278 
z
" clip-path="url(#p1a613bda0a)" style="fill: #0871b7; fill-opacity: 0.752941; stroke: #231f20; stroke-linejoin: miter"/>
   </g>
   <g id="patch_62">
    <path d="M 277.2 290.060278 
C 311.190329 290.060278 343.793078 276.642903 367.82787 252.763174 
C 391.862662 228.883445 405.367163 196.491036 405.367163 162.72 
C 405.367163 128.948964 391.862662 96.556555 367.82787 72.676826 
C 343.793078 48.797097 311.190329 35.379722 277.2 35.379722 
C 243.209671 35.379722 210.606922 48.797097 186.57213 72.676826 
C 162.537338 96.556555 149.032837 128.948964 149.032837 162.72 
C 149.032837 196.491036 162.537338 228.883445 186.57213 252.763174 
C 210.606922 276.642903 243.209671 290.060278 277.2 290.060278 
z
" clip-path="url(#p1a613bda0a)" style="fill: #0871b7; fill-opacity: 0.752941; stroke: #231f20; stroke-linejoin: miter"/>
   </g>
   <g id="patch_63">
    <path d="M 193.5 437.259241 
C 237.184775 437.259241 279.086217 420.015071 309.976017 389.324559 
C 340.865818 358.634047 358.221964 317.002938 358.221964 273.6 
C 358.221964 230.197062 340.865818 188.565953 309.976017 157.875441 
C 279.086217 127.184929 237.184775 109.940759 193.5 109.940759 
C 149.815225 109.940759 107.913783 127.184929 77.023983 157.875441 
C 46.134182 188.565953 28.778036 230.197062 28.778036 273.6 
C 28.778036 317.002938 46.134182 358.634047 77.023983 389.324559 
C 107.913783 420.015071 149.815225 437.259241 193.5 437.259241 
z
" clip-path="url(#p1a613bda0a)" style="fill: #b74e08; fill-opacity: 0.752941; stroke: #231f20; stroke-linejoin: miter"/>
   </g>
   <g id="patch_64">
    <path d="M 165.6 409.539241 
C 209.284775 409.539241 251.186217 392.295071 282.076017 361.604559 
C 312.965818 330.914047 330.321964 289.282938 330.321964 245.88 
C 330.321964 202.477062 312.965818 160.845953 282.076017 130.155441 
C 251.186217 99.464929 209.284775 82.220759 165.6 82.220759 
C 121.915225 82.220759 80.013783 99.464929 49.123983 130.155441 
C 18.234182 160.845953 0.878036 202.477062 0.878036 245.88 
C 0.878036 289.282938 18.234182 330.914047 49.123983 361.604559 
C 80.013783 392.295071 121.915225 409.539241 165.6 409.539241 
z
" clip-path="url(#p1a613bda0a)" style="fill: #b74e08; fill-opacity: 0.752941; stroke: #231f20; stroke-linejoin: miter"/>
   </g>
   <g id="patch_65">
    <path d="M 249.3 437.259241 
C 292.984775 437.259241 334.886217 420.015071 365.776017 389.324559 
C 396.665818 358.634047 414.021964 317.002938 414.021964 273.6 
C 414.021964 230.197062 396.665818 188.565953 365.776017 157.875441 
C 334.886217 127.184929 292.984775 109.940759 249.3 109.940759 
C 205.615225 109.940759 163.713783 127.184929 132.823983 157.875441 
C 101.934182 188.565953 84.578036 230.197062 84.578036 273.6 
C 84.578036 317.002938 101.934182 358.634047 132.823983 389.324559 
C 163.713783 420.015071 205.615225 437.259241 249.3 437.259241 
z
" clip-path="url(#p1a613bda0a)" style="fill: #b74e08; fill-opacity: 0.752941; stroke: #231f20; stroke-linejoin: miter"/>
   </g>
   <g id="patch_66">
    <path d="M 165.6 354.099241 
C 209.284775 354.099241 251.186217 336.855071 282.076017 306.164559 
C 312.965818 275.474047 330.321964 233.842938 330.321964 190.44 
C 330.321964 147.037062 312.965818 105.405953 282.076017 74.715441 
C 251.186217 44.024929 209.284775 26.780759 165.6 26.780759 
C 121.915225 26.780759 80.013783 44.024929 49.123983 74.715441 
C 18.234182 105.405953 0.878036 147.037062 0.878036 190.44 
C 0.878036 233.842938 18.234182 275.474047 49.123983 306.164559 
C 80.013783 336.855071 121.915225 354.099241 165.6 354.099241 
z
" clip-path="url(#p1a613bda0a)" style="fill: #b74e08; fill-opacity: 0.752941; stroke: #231f20; stroke-linejoin: miter"/>
   </g>
   <g id="patch_67">
    <path d="M 277.2 409.539241 
C 320.884775 409.539241 362.786217 392.295071 393.676017 361.604559 
C 424.565818 330.914047 441.921964 289.282938 441.921964 245.88 
C 441.921964 202.477062 424.565818 160.845953 393.676017 130.155441 
C 362.786217 99.464929 320.884775 82.220759 277.2 82.220759 
C 233.515225 82.220759 191.613783 99.464929 160.723983 130.155441 
C 129.834182 160.845953 112.478036 202.477062 112.478036 245.88 
C 112.478036 289.282938 129.834182 330.914047 160.723983 361.604559 
C 191.613783 392.295071 233.515225 409.539241 277.2 409.539241 
z
" clip-path="url(#p1a613bda0a)" style="fill: #b74e08; fill-opacity: 0.752941; stroke: #231f20; stroke-linejoin: miter"/>
   </g>
   <g id="patch_68">
    <path d="M 277.2 354.099241 
C 320.884775 354.099241 362.786217 336.855071 393.676017 306.164559 
C 424.565818 275.474047 441.921964 233.842938 441.921964 190.44 
C 441.921964 147.037062 424.565818 105.405953 393.676017 74.715441 
C 362.786217 44.024929 320.884775 26.780759 277.2 26.780759 
C 233.515225 26.780759 191.613783 44.024929 160.723983 74.715441 
C 129.834182 105.405953 112.478036 147.037062 112.478036 190.44 
C 112.478036 233.842938 129.834182 275.474047 160.723983 306.164559 
C 191.613783 336.855071 233.515225 354.099241 277.2 354.099241 
z
" clip-path="url(#p1a613bda0a)" style="fill: #b74e08; fill-opacity: 0.752941; stroke: #231f20; stroke-linejoin: miter"/>
   </g>
   <g id="patch_69">
    <path d="M 193.5 326.379241 
C 237.184775 326.379241 279.086217 309.135071 309.976017 278.444559 
C 340.865818 247.754047 358.221964 206.122938 358.221964 162.72 
C 358.221964 119.317062 340.865818 77.685953 309.976017 46.995441 
C 279.086217 16.304929 237.184775 -0.939241 193.5 -0.939241 
C 149.815225 -0.939241 107.913783 16.304929 77.023983 46.995441 
C 46.134182 77.685953 28.778036 119.317062 28.778036 162.72 
C 28.778036 206.122938 46.134182 247.754047 77.023983 278.444559 
C 107.913783 309.135071 149.815225 326.379241 193.5 326.379241 
z
" clip-path="url(#p1a613bda0a)" style="fill: #b74e08; fill-opacity: 0.752941; stroke: #231f20; stroke-linejoin: miter"/>
   </g>
   <g id="patch_70">
    <path d="M 249.3 326.379241 
C 292.984775 326.379241 334.886217 309.135071 365.776017 278.444559 
C 396.665818 247.754047 414.021964 206.122938 414.021964 162.72 
C 414.021964 119.317062 396.665818 77.685953 365.776017 46.995441 
C 334.886217 16.304929 292.984775 -0.939241 249.3 -0.939241 
C 205.615225 -0.939241 163.713783 16.304929 132.823983 46.995441 
C 101.934182 77.685953 84.578036 119.317062 84.578036 162.72 
C 84.578036 206.122938 101.934182 247.754047 132.823983 278.444559 
C 163.713783 309.135071 205.615225 326.379241 249.3 326.379241 
z
" clip-path="url(#p1a613bda0a)" style="fill: #b74e08; fill-opacity: 0.752941; stroke: #231f20; stroke-linejoin: miter"/>
   </g>
   <g id="patch_71">
    <path d="M 221.4 455.221932 
C 269.87947 455.221932 316.379873 436.0851 350.660036 402.0261 
C 384.940198 367.9671 404.201295 321.766699 404.201295 273.6 
C 404.201295 225.433301 384.940198 179.2329 350.660036 145.1739 
C 316.379873 111.1149 269.87947 91.978068 221.4 91.978068 
C 172.92053 91.978068 126.420127 111.1149 92.139964 145.1739 
C 57.859802 179.2329 38.598705 225.433301 38.598705 273.6 
C 38.598705 321.766699 57.859802 367.9671 92.139964 402.0261 
C 126.420127 436.0851 172.92053 455.221932 221.4 455.221932 
z
" clip-path="url(#p1a613bda0a)" style="fill: #0871b7; fill-opacity: 0.752941; stroke: #231f20; stroke-linejoin: miter"/>
   </g>
   <g id="patch_72">
    <path d="M 165.6 399.781932 
C 214.07947 399.781932 260.579873 380.6451 294.860036 346.5861 
C 329.140198 312.5271 348.401295 266.326699 348.401295 218.16 
C 348.401295 169.993301 329.140198 123.7929 294.860036 89.7339 
C 260.579873 55.6749 214.07947 36.538068 165.6 36.538068 
C 117.12053 36.538068 70.620127 55.6749 36.339964 89.7339 
C 2.059802 123.7929 -17.201295 169.993301 -17.201295 218.16 
C -17.201295 266.326699 2.059802 312.5271 36.339964 346.5861 
C 70.620127 380.6451 117.12053 399.781932 165.6 399.781932 
z
" clip-path="url(#p1a613bda0a)" style="fill: #0871b7; fill-opacity: 0.752941; stroke: #231f20; stroke-linejoin: miter"/>
   </g>
   <g id="patch_73">
    <path d="M 277.2 399.781932 
C 325.67947 399.781932 372.179873 380.6451 406.460036 346.5861 
C 440.740198 312.5271 460.001295 266.326699 460.001295 218.16 
C 460.001295 169.993301 440.740198 123.7929 406.460036 89.7339 
C 372.179873 55.6749 325.67947 36.538068 277.2 36.538068 
C 228.72053 36.538068 182.220127 55.6749 147.939964 89.7339 
C 113.659802 123.7929 94.398705 169.993301 94.398705 218.16 
C 94.398705 266.326699 113.659802 312.5271 147.939964 346.5861 
C 182.220127 380.6451 228.72053 399.781932 277.2 399.781932 
z
" clip-path="url(#p1a613bda0a)" style="fill: #0871b7; fill-opacity: 0.752941; stroke: #231f20; stroke-linejoin: miter"/>
   </g>
   <g id="patch_74">
    <path d="M 221.4 344.341932 
C 269.87947 344.341932 316.379873 325.2051 350.660036 291.1461 
C 384.940198 257.0871 404.201295 210.886699 404.201295 162.72 
C 404.201295 114.553301 384.940198 68.3529 350.660036 34.2939 
C 316.379873 0.2349 269.87947 -18.901932 221.4 -18.901932 
C 172.92053 -18.901932 126.420127 0.2349 92.139964 34.2939 
C 57.859802 68.3529 38.598705 114.553301 38.598705 162.72 
C 38.598705 210.886699 57.859802 257.0871 92.139964 291.1461 
C 126.420127 325.2051 172.92053 344.341932 221.4 344.341932 
z
" clip-path="url(#p1a613bda0a)" style="fill: #0871b7; fill-opacity: 0.752941; stroke: #231f20; stroke-linejoin: miter"/>
   </g>
   <g id="patch_75">
    <path d="M 193.5 456.216806 
C 249.644193 456.216806 303.496425 434.054393 343.196365 394.610582 
C 382.896304 355.16677 405.202629 301.661973 405.202629 245.88 
C 405.202629 190.098027 382.896304 136.59323 343.196365 97.149418 
C 303.496425 57.705607 249.644193 35.543194 193.5 35.543194 
C 137.355807 35.543194 83.503575 57.705607 43.803635 97.149418 
C 4.103696 136.59323 -18.202629 190.098027 -18.202629 245.88 
C -18.202629 301.661973 4.103696 355.16677 43.803635 394.610582 
C 83.503575 434.054393 137.355807 456.216806 193.5 456.216806 
z
" clip-path="url(#p1a613bda0a)" style="fill: #0871b7; fill-opacity: 0.752941; stroke: #231f20; stroke-linejoin: miter"/>
   </g>
   <g id="patch_76">
    <path d="M 249.3 456.216806 
C 305.444193 456.216806 359.296425 434.054393 398.996365 394.610582 
C 438.696304 355.16677 461.002629 301.661973 461.002629 245.88 
C 461.002629 190.098027 438.696304 136.59323 398.996365 97.149418 
C 359.296425 57.705607 305.444193 35.543194 249.3 35.543194 
C 193.155807 35.543194 139.303575 57.705607 99.603635 97.149418 
C 59.903696 136.59323 37.597371 190.098027 37.597371 245.88 
C 37.597371 301.661973 59.903696 355.16677 99.603635 394.610582 
C 139.303575 434.054393 193.155807 456.216806 249.3 456.216806 
z
" clip-path="url(#p1a613bda0a)" style="fill: #0871b7; fill-opacity: 0.752941; stroke: #231f20; stroke-linejoin: miter"/>
   </g>
   <g id="patch_77">
    <path d="M 193.5 400.776806 
C 249.644193 400.776806 303.496425 378.614393 343.196365 339.170582 
C 382.896304 299.72677 405.202629 246.221973 405.202629 190.44 
C 405.202629 134.658027 382.896304 81.15323 343.196365 41.709418 
C 303.496425 2.265607 249.644193 -19.896806 193.5 -19.896806 
C 137.355807 -19.896806 83.503575 2.265607 43.803635 41.709418 
C 4.103696 81.15323 -18.202629 134.658027 -18.202629 190.44 
C -18.202629 246.221973 4.103696 299.72677 43.803635 339.170582 
C 83.503575 378.614393 137.355807 400.776806 193.5 400.776806 
z
" clip-path="url(#p1a613bda0a)" style="fill: #0871b7; fill-opacity: 0.752941; stroke: #231f20; stroke-linejoin: miter"/>
   </g>
   <g id="patch_78">
    <path d="M 249.3 400.776806 
C 305.444193 400.776806 359.296425 378.614393 398.996365 339.170582 
C 438.696304 299.72677 461.002629 246.221973 461.002629 190.44 
C 461.002629 134.658027 438.696304 81.15323 398.996365 41.709418 
C 359.296425 2.265607 305.444193 -19.896806 249.3 -19.896806 
C 193.155807 -19.896806 139.303575 2.265607 99.603635 41.709418 
C 59.903696 81.15323 37.597371 134.658027 37.597371 190.44 
C 37.597371 246.221973 59.903696 299.72677 99.603635 339.170582 
C 139.303575 378.614393 193.155807 400.776806 249.3 400.776806 
z
" clip-path="url(#p1a613bda0a)" style="fill: #0871b7; fill-opacity: 0.752941; stroke: #231f20; stroke-linejoin: miter"/>
   </g>
   <g id="patch_79">
    <path d="M 221.4 479.30267 
C 283.706392 479.30267 343.469264 454.707785 387.526537 410.934753 
C 431.583809 367.161721 456.338401 307.784416 456.338401 245.88 
C 456.338401 183.975584 431.583809 124.598279 387.526537 80.825247 
C 343.469264 37.052215 283.706392 12.45733 221.4 12.45733 
C 159.093608 12.45733 99.330736 37.052215 55.273463 80.825247 
C 11.216191 124.598279 -13.538401 183.975584 -13.538401 245.88 
C -13.538401 307.784416 11.216191 367.161721 55.273463 410.934753 
C 99.330736 454.707785 159.093608 479.30267 221.4 479.30267 
z
" clip-path="url(#p1a613bda0a)" style="fill: #b74e08; fill-opacity: 0.752941; stroke: #231f20; stroke-linejoin: miter"/>
   </g>
   <g id="patch_80">
    <path d="M 193.5 451.58267 
C 255.806392 451.58267 315.569264 426.987785 359.626537 383.214753 
C 403.683809 339.441721 428.438401 280.064416 428.438401 218.16 
C 428.438401 156.255584 403.683809 96.878279 359.626537 53.105247 
C 315.569264 9.332215 255.806392 -15.26267 193.5 -15.26267 
C 131.193608 -15.26267 71.430736 9.332215 27.373463 53.105247 
C -16.683809 96.878279 -41.438401 156.255584 -41.438401 218.16 
C -41.438401 280.064416 -16.683809 339.441721 27.373463 383.214753 
C 71.430736 426.987785 131.193608 451.58267 193.5 451.58267 
z
" clip-path="url(#p1a613bda0a)" style="fill: #b74e08; fill-opacity: 0.752941; stroke: #231f20; stroke-linejoin: miter"/>
   </g>
   <g id="patch_81">
    <path d="M 249.3 451.58267 
C 311.606392 451.58267 371.369264 426.987785 415.426537 383.214753 
C 459.483809 339.441721 484.238401 280.064416 484.238401 218.16 
C 484.238401 156.255584 459.483809 96.878279 415.426537 53.105247 
C 371.369264 9.332215 311.606392 -15.26267 249.3 -15.26267 
C 186.993608 -15.26267 127.230736 9.332215 83.173463 53.105247 
C 39.116191 96.878279 14.361599 156.255584 14.361599 218.16 
C 14.361599 280.064416 39.116191 339.441721 83.173463 383.214753 
C 127.230736 426.987785 186.993608 451.58267 249.3 451.58267 
z
" clip-path="url(#p1a613bda0a)" style="fill: #b74e08; fill-opacity: 0.752941; stroke: #231f20; stroke-linejoin: miter"/>
   </g>
   <g id="patch_82">
    <path d="M 221.4 423.86267 
C 283.706392 423.86267 343.469264 399.267785 387.526537 355.494753 
C 431.583809 311.721721 456.338401 252.344416 456.338401 190.44 
C 456.338401 128.535584 431.583809 69.158279 387.526537 25.385247 
C 343.469264 -18.387785 283.706392 -42.98267 221.4 -42.98267 
C 159.093608 -42.98267 99.330736 -18.387785 55.273463 25.385247 
C 11.216191 69.158279 -13.538401 128.535584 -13.538401 190.44 
C -13.538401 252.344416 11.216191 311.721721 55.273463 355.494753 
C 99.330736 399.267785 159.093608 423.86267 221.4 423.86267 
z
" clip-path="url(#p1a613bda0a)" style="fill: #b74e08; fill-opacity: 0.752941; stroke: #231f20; stroke-linejoin: miter"/>
   </g>
   <g id="patch_83">
    <path d="M 221.4 477.202361 
C 290.544934 477.202361 356.867178 449.908024 405.76003 401.33061 
C 454.652881 352.753197 482.124454 286.858837 482.124454 218.16 
C 482.124454 149.461163 454.652881 83.566803 405.76003 34.98939 
C 356.867178 -13.588024 290.544934 -40.882361 221.4 -40.882361 
C 152.255066 -40.882361 85.932822 -13.588024 37.03997 34.98939 
C -11.852881 83.566803 -39.324454 149.461163 -39.324454 218.16 
C -39.324454 286.858837 -11.852881 352.753197 37.03997 401.33061 
C 85.932822 449.908024 152.255066 477.202361 221.4 477.202361 
z
" clip-path="url(#p1a613bda0a)" style="fill: #0871b7; fill-opacity: 0.752941; stroke: #231f20; stroke-linejoin: miter"/>
   </g>
  </g>
 </g>
 <defs>
  <clipPath id="p1a613bda0a">
   <rect x="54" y="51.84" width="334.8" height="332.64"/>
  </clipPath>
 </defs>
</svg>
