<?xml version="1.0" encoding="utf-8" standalone="no"?>
<!DOCTYPE svg PUBLIC "-//W3C//DTD SVG 1.1//EN"
  "http://www.w3.org/Graphics/SVG/1.1/DTD/svg11.dtd">
<svg xmlns:xlink="http://www.w3.org/1999/xlink" width="432pt" height="432pt" viewBox="0 0 432 432" xmlns="http://www.w3.org/2000/svg" version="1.1">
 <metadata>
  <rdf:RDF xmlns:dc="http://purl.org/dc/elements/1.1/" xmlns:cc="http://creativecommons.org/ns#" xmlns:rdf="http://www.w3.org/1999/02/22-rdf-syntax-ns#">
   <cc:Work>
    <dc:type rdf:resource="http://purl.org/dc/dcmitype/StillImage"/>
    <dc:date>2025-03-02T17:55:06.470812</dc:date>
    <dc:format>image/svg+xml</dc:format>
    <dc:creator>
     <cc:Agent>
      <dc:title>Matplotlib v3.10.0, https://matplotlib.org/</dc:title>
     </cc:Agent>
    </dc:creator>
   </cc:Work>
  </rdf:RDF>
 </metadata>
 <defs>
  <style type="text/css">*{stroke-linejoin: round; stroke-linecap: butt}</style>
 </defs>
 <g id="figure_1">
  <g id="patch_1">
   <path d="M 0 432 
L 432 432 
L 432 0 
L 0 0 
z
" style="fill: #ffffff"/>
  </g>
  <g id="axes_1">
   <g id="patch_2">
    <path d="M 81.9 356.76 
L 360.9 356.76 
L 360.9 79.56 
L 81.9 79.56 
L 81.9 356.76 
z
" clip-path="url(#p4912245954)" style="fill: none; stroke: #969696; stroke-width: 1.5; stroke-linejoin: miter"/>
   </g>
   <g id="patch_3">
    <path d="M 109.8 337.311484 
C 112.007868 337.311484 114.125604 336.439949 115.686802 334.888823 
C 117.248 333.337697 118.125195 331.233623 118.125195 329.04 
C 118.125195 326.846377 117.248 324.742303 115.686802 323.191177 
C 114.125604 321.640051 112.007868 320.768516 109.8 320.768516 
C 107.592132 320.768516 105.474396 321.640051 103.913198 323.191177 
C 102.352 324.742303 101.474805 326.846377 101.474805 329.04 
C 101.474805 331.233623 102.352 333.337697 103.913198 334.888823 
C 105.474396 336.439949 107.592132 337.311484 109.8 337.311484 
z
" clip-path="url(#p4912245954)" style="fill: #0871b7; fill-opacity: 0.752941; stroke: #231f20; stroke-linejoin: miter"/>
   </g>
   <g id="patch_4">
    <path d="M 333 337.311484 
C 335.207868 337.311484 337.325604 336.439949 338.886802 334.888823 
C 340.448 333.337697 341.325195 331.233623 341.325195 329.04 
C 341.325195 326.846377 340.448 324.742303 338.886802 323.191177 
C 337.325604 321.640051 335.207868 320.768516 333 320.768516 
C 330.792132 320.768516 328.674396 321.640051 327.113198 323.191177 
C 325.552 324.742303 324.674805 326.846377 324.674805 329.04 
C 324.674805 331.233623 325.552 333.337697 327.113198 334.888823 
C 328.674396 336.439949 330.792132 337.311484 333 337.311484 
z
" clip-path="url(#p4912245954)" style="fill: #0871b7; fill-opacity: 0.752941; stroke: #231f20; stroke-linejoin: miter"/>
   </g>
   <g id="patch_5">
    <path d="M 109.8 115.551484 
C 112.007868 115.551484 114.125604 114.679949 115.686802 113.128823 
C 117.248 111.577697 118.125195 109.473623 118.125195 107.28 
C 118.125195 105.086377 117.248 102.982303 115.686802 101.431177 
C 114.125604 99.880051 112.007868 99.008516 109.8 99.008516 
C 107.592132 99.008516 105.474396 99.880051 103.913198 101.431177 
C 102.352 102.982303 101.474805 105.086377 101.474805 107.28 
C 101.474805 109.473623 102.352 111.577697 103.913198 113.128823 
C 105.474396 114.679949 107.592132 115.551484 109.8 115.551484 
z
" clip-path="url(#p4912245954)" style="fill: #0871b7; fill-opacity: 0.752941; stroke: #231f20; stroke-linejoin: miter"/>
   </g>
   <g id="patch_6">
    <path d="M 333 115.551484 
C 335.207868 115.551484 337.325604 114.679949 338.886802 113.128823 
C 340.448 111.577697 341.325195 109.473623 341.325195 107.28 
C 341.325195 105.086377 340.448 102.982303 338.886802 101.431177 
C 337.325604 99.880051 335.207868 99.008516 333 99.008516 
C 330.792132 99.008516 328.674396 99.880051 327.113198 101.431177 
C 325.552 102.982303 324.674805 105.086377 324.674805 107.28 
C 324.674805 109.473623 325.552 111.577697 327.113198 113.128823 
C 328.674396 114.679949 330.792132 115.551484 333 115.551484 
z
" clip-path="url(#p4912245954)" style="fill: #0871b7; fill-opacity: 0.752941; stroke: #231f20; stroke-linejoin: miter"/>
   </g>
   <g id="patch_7">
    <path d="M 333 167.707893 
C 334.331394 167.707893 335.608437 167.182337 336.549875 166.246973 
C 337.491313 165.311609 338.020282 164.042805 338.020282 162.72 
C 338.020282 161.397195 337.491313 160.128391 336.549875 159.193027 
C 335.608437 158.257663 334.331394 157.732107 333 157.732107 
C 331.668606 157.732107 330.391563 158.257663 329.450125 159.193027 
C 328.508687 160.128391 327.979718 161.397195 327.979718 162.72 
C 327.979718 164.042805 328.508687 165.311609 329.450125 166.246973 
C 330.391563 167.182337 331.668606 167.707893 333 167.707893 
z
" clip-path="url(#p4912245954)" style="fill: #0871b7; fill-opacity: 0.752941; stroke: #231f20; stroke-linejoin: miter"/>
   </g>
   <g id="patch_8">
    <path d="M 277.2 112.267893 
C 278.531394 112.267893 279.808437 111.742337 280.749875 110.806973 
C 281.691313 109.871609 282.220282 108.602805 282.220282 107.28 
C 282.220282 105.957195 281.691313 104.688391 280.749875 103.753027 
C 279.808437 102.817663 278.531394 102.292107 277.2 102.292107 
C 275.868606 102.292107 274.591563 102.817663 273.650125 103.753027 
C 272.708687 104.688391 272.179718 105.957195 272.179718 107.28 
C 272.179718 108.602805 272.708687 109.871609 273.650125 110.806973 
C 274.591563 111.742337 275.868606 112.267893 277.2 112.267893 
z
" clip-path="url(#p4912245954)" style="fill: #0871b7; fill-opacity: 0.752941; stroke: #231f20; stroke-linejoin: miter"/>
   </g>
   <g id="patch_9">
    <path d="M 333 278.587893 
C 334.331394 278.587893 335.608437 278.062337 336.549875 277.126973 
C 337.491313 276.191609 338.020282 274.922805 338.020282 273.6 
C 338.020282 272.277195 337.491313 271.008391 336.549875 270.073027 
C 335.608437 269.137663 334.331394 268.612107 333 268.612107 
C 331.668606 268.612107 330.391563 269.137663 329.450125 270.073027 
C 328.508687 271.008391 327.979718 272.277195 327.979718 273.6 
C 327.979718 274.922805 328.508687 276.191609 329.450125 277.126973 
C 330.391563 278.062337 331.668606 278.587893 333 278.587893 
z
" clip-path="url(#p4912245954)" style="fill: #0871b7; fill-opacity: 0.752941; stroke: #231f20; stroke-linejoin: miter"/>
   </g>
   <g id="patch_10">
    <path d="M 165.6 112.267893 
C 166.931394 112.267893 168.208437 111.742337 169.149875 110.806973 
C 170.091313 109.871609 170.620282 108.602805 170.620282 107.28 
C 170.620282 105.957195 170.091313 104.688391 169.149875 103.753027 
C 168.208437 102.817663 166.931394 102.292107 165.6 102.292107 
C 164.268606 102.292107 162.991563 102.817663 162.050125 103.753027 
C 161.108687 104.688391 160.579718 105.957195 160.579718 107.28 
C 160.579718 108.602805 161.108687 109.871609 162.050125 110.806973 
C 162.991563 111.742337 164.268606 112.267893 165.6 112.267893 
z
" clip-path="url(#p4912245954)" style="fill: #0871b7; fill-opacity: 0.752941; stroke: #231f20; stroke-linejoin: miter"/>
   </g>
   <g id="patch_11">
    <path d="M 165.6 334.027893 
C 166.931394 334.027893 168.208437 333.502337 169.149875 332.566973 
C 170.091313 331.631609 170.620282 330.362805 170.620282 329.04 
C 170.620282 327.717195 170.091313 326.448391 169.149875 325.513027 
C 168.208437 324.577663 166.931394 324.052107 165.6 324.052107 
C 164.268606 324.052107 162.991563 324.577663 162.050125 325.513027 
C 161.108687 326.448391 160.579718 327.717195 160.579718 329.04 
C 160.579718 330.362805 161.108687 331.631609 162.050125 332.566973 
C 162.991563 333.502337 164.268606 334.027893 165.6 334.027893 
z
" clip-path="url(#p4912245954)" style="fill: #0871b7; fill-opacity: 0.752941; stroke: #231f20; stroke-linejoin: miter"/>
   </g>
   <g id="patch_12">
    <path d="M 277.2 334.027893 
C 278.531394 334.027893 279.808437 333.502337 280.749875 332.566973 
C 281.691313 331.631609 282.220282 330.362805 282.220282 329.04 
C 282.220282 327.717195 281.691313 326.448391 280.749875 325.513027 
C 279.808437 324.577663 278.531394 324.052107 277.2 324.052107 
C 275.868606 324.052107 274.591563 324.577663 273.650125 325.513027 
C 272.708687 326.448391 272.179718 327.717195 272.179718 329.04 
C 272.179718 330.362805 272.708687 331.631609 273.650125 332.566973 
C 274.591563 333.502337 275.868606 334.027893 277.2 334.027893 
z
" clip-path="url(#p4912245954)" style="fill: #0871b7; fill-opacity: 0.752941; stroke: #231f20; stroke-linejoin: miter"/>
   </g>
   <g id="patch_13">
    <path d="M 109.8 278.587893 
C 111.131394 278.587893 112.408437 278.062337 113.349875 277.126973 
C 114.291313 276.191609 114.820282 274.922805 114.820282 273.6 
C 114.820282 272.277195 114.291313 271.008391 113.349875 270.073027 
C 112.408437 269.137663 111.131394 268.612107 109.8 268.612107 
C 108.468606 268.612107 107.191563 269.137663 106.250125 270.073027 
C 105.308687 271.008391 104.779718 272.277195 104.779718 273.6 
C 104.779718 274.922805 105.308687 276.191609 106.250125 277.126973 
C 107.191563 278.062337 108.468606 278.587893 109.8 278.587893 
z
" clip-path="url(#p4912245954)" style="fill: #0871b7; fill-opacity: 0.752941; stroke: #231f20; stroke-linejoin: miter"/>
   </g>
   <g id="patch_14">
    <path d="M 109.8 167.707893 
C 111.131394 167.707893 112.408437 167.182337 113.349875 166.246973 
C 114.291313 165.311609 114.820282 164.042805 114.820282 162.72 
C 114.820282 161.397195 114.291313 160.128391 113.349875 159.193027 
C 112.408437 158.257663 111.131394 157.732107 109.8 157.732107 
C 108.468606 157.732107 107.191563 158.257663 106.250125 159.193027 
C 105.308687 160.128391 104.779718 161.397195 104.779718 162.72 
C 104.779718 164.042805 105.308687 165.311609 106.250125 166.246973 
C 107.191563 167.182337 108.468606 167.707893 109.8 167.707893 
z
" clip-path="url(#p4912245954)" style="fill: #0871b7; fill-opacity: 0.752941; stroke: #231f20; stroke-linejoin: miter"/>
   </g>
   <g id="patch_15">
    <path d="M 221.4 339.040694 
C 224.069437 339.040694 226.629901 337.986958 228.517478 336.111558 
C 230.405055 334.236159 231.465633 331.692215 231.465633 329.04 
C 231.465633 326.387785 230.405055 323.843841 228.517478 321.968442 
C 226.629901 320.093042 224.069437 319.039306 221.4 319.039306 
C 218.730563 319.039306 216.170099 320.093042 214.282522 321.968442 
C 212.394945 323.843841 211.334367 326.387785 211.334367 329.04 
C 211.334367 331.692215 212.394945 334.236159 214.282522 336.111558 
C 216.170099 337.986958 218.730563 339.040694 221.4 339.040694 
z
" clip-path="url(#p4912245954)" style="fill: #0871b7; fill-opacity: 0.752941; stroke: #231f20; stroke-linejoin: miter"/>
   </g>
   <g id="patch_16">
    <path d="M 109.8 228.160694 
C 112.469437 228.160694 115.029901 227.106958 116.917478 225.231558 
C 118.805055 223.356159 119.865633 220.812215 119.865633 218.16 
C 119.865633 215.507785 118.805055 212.963841 116.917478 211.088442 
C 115.029901 209.213042 112.469437 208.159306 109.8 208.159306 
C 107.130563 208.159306 104.570099 209.213042 102.682522 211.088442 
C 100.794945 212.963841 99.734367 215.507785 99.734367 218.16 
C 99.734367 220.812215 100.794945 223.356159 102.682522 225.231558 
C 104.570099 227.106958 107.130563 228.160694 109.8 228.160694 
z
" clip-path="url(#p4912245954)" style="fill: #0871b7; fill-opacity: 0.752941; stroke: #231f20; stroke-linejoin: miter"/>
   </g>
   <g id="patch_17">
    <path d="M 333 228.160694 
C 335.669437 228.160694 338.229901 227.106958 340.117478 225.231558 
C 342.005055 223.356159 343.065633 220.812215 343.065633 218.16 
C 343.065633 215.507785 342.005055 212.963841 340.117478 211.088442 
C 338.229901 209.213042 335.669437 208.159306 333 208.159306 
C 330.330563 208.159306 327.770099 209.213042 325.882522 211.088442 
C 323.994945 212.963841 322.934367 215.507785 322.934367 218.16 
C 322.934367 220.812215 323.994945 223.356159 325.882522 225.231558 
C 327.770099 227.106958 330.330563 228.160694 333 228.160694 
z
" clip-path="url(#p4912245954)" style="fill: #0871b7; fill-opacity: 0.752941; stroke: #231f20; stroke-linejoin: miter"/>
   </g>
   <g id="patch_18">
    <path d="M 221.4 117.280694 
C 224.069437 117.280694 226.629901 116.226958 228.517478 114.351558 
C 230.405055 112.476159 231.465633 109.932215 231.465633 107.28 
C 231.465633 104.627785 230.405055 102.083841 228.517478 100.208442 
C 226.629901 98.333042 224.069437 97.279306 221.4 97.279306 
C 218.730563 97.279306 216.170099 98.333042 214.282522 100.208442 
C 212.394945 102.083841 211.334367 104.627785 211.334367 107.28 
C 211.334367 109.932215 212.394945 112.476159 214.282522 114.351558 
C 216.170099 116.226958 218.730563 117.280694 221.4 117.280694 
z
" clip-path="url(#p4912245954)" style="fill: #0871b7; fill-opacity: 0.752941; stroke: #231f20; stroke-linejoin: miter"/>
   </g>
   <g id="patch_19">
    <path d="M 165.6 276.607813 
C 166.402861 276.607813 167.172947 276.29089 167.740655 275.726845 
C 168.308364 275.162799 168.627344 274.397681 168.627344 273.6 
C 168.627344 272.802319 168.308364 272.037201 167.740655 271.473155 
C 167.172947 270.90911 166.402861 270.592188 165.6 270.592188 
C 164.797139 270.592188 164.027053 270.90911 163.459345 271.473155 
C 162.891636 272.037201 162.572656 272.802319 162.572656 273.6 
C 162.572656 274.397681 162.891636 275.162799 163.459345 275.726845 
C 164.027053 276.29089 164.797139 276.607813 165.6 276.607813 
z
" clip-path="url(#p4912245954)" style="fill: #0871b7; fill-opacity: 0.752941; stroke: #231f20; stroke-linejoin: miter"/>
   </g>
   <g id="patch_20">
    <path d="M 277.2 276.607813 
C 278.002861 276.607813 278.772947 276.29089 279.340655 275.726845 
C 279.908364 275.162799 280.227344 274.397681 280.227344 273.6 
C 280.227344 272.802319 279.908364 272.037201 279.340655 271.473155 
C 278.772947 270.90911 278.002861 270.592188 277.2 270.592188 
C 276.397139 270.592188 275.627053 270.90911 275.059345 271.473155 
C 274.491636 272.037201 274.172656 272.802319 274.172656 273.6 
C 274.172656 274.397681 274.491636 275.162799 275.059345 275.726845 
C 275.627053 276.29089 276.397139 276.607813 277.2 276.607813 
z
" clip-path="url(#p4912245954)" style="fill: #0871b7; fill-opacity: 0.752941; stroke: #231f20; stroke-linejoin: miter"/>
   </g>
   <g id="patch_21">
    <path d="M 165.6 165.727813 
C 166.402861 165.727813 167.172947 165.41089 167.740655 164.846845 
C 168.308364 164.282799 168.627344 163.517681 168.627344 162.72 
C 168.627344 161.922319 168.308364 161.157201 167.740655 160.593155 
C 167.172947 160.02911 166.402861 159.712188 165.6 159.712188 
C 164.797139 159.712188 164.027053 160.02911 163.459345 160.593155 
C 162.891636 161.157201 162.572656 161.922319 162.572656 162.72 
C 162.572656 163.517681 162.891636 164.282799 163.459345 164.846845 
C 164.027053 165.41089 164.797139 165.727813 165.6 165.727813 
z
" clip-path="url(#p4912245954)" style="fill: #0871b7; fill-opacity: 0.752941; stroke: #231f20; stroke-linejoin: miter"/>
   </g>
   <g id="patch_22">
    <path d="M 277.2 165.727813 
C 278.002861 165.727813 278.772947 165.41089 279.340655 164.846845 
C 279.908364 164.282799 280.227344 163.517681 280.227344 162.72 
C 280.227344 161.922319 279.908364 161.157201 279.340655 160.593155 
C 278.772947 160.02911 278.002861 159.712188 277.2 159.712188 
C 276.397139 159.712188 275.627053 160.02911 275.059345 160.593155 
C 274.491636 161.157201 274.172656 161.922319 274.172656 162.72 
C 274.172656 163.517681 274.491636 164.282799 275.059345 164.846845 
C 275.627053 165.41089 276.397139 165.727813 277.2 165.727813 
z
" clip-path="url(#p4912245954)" style="fill: #0871b7; fill-opacity: 0.752941; stroke: #231f20; stroke-linejoin: miter"/>
   </g>
   <g id="patch_23">
    <path d="M 221.4 279.630645 
C 223.009731 279.630645 224.553749 278.995218 225.692001 277.86431 
C 226.830252 276.733402 227.469805 275.199346 227.469805 273.6 
C 227.469805 272.000654 226.830252 270.466598 225.692001 269.33569 
C 224.553749 268.204782 223.009731 267.569355 221.4 267.569355 
C 219.790269 267.569355 218.246251 268.204782 217.107999 269.33569 
C 215.969748 270.466598 215.330195 272.000654 215.330195 273.6 
C 215.330195 275.199346 215.969748 276.733402 217.107999 277.86431 
C 218.246251 278.995218 219.790269 279.630645 221.4 279.630645 
z
" clip-path="url(#p4912245954)" style="fill: #0871b7; fill-opacity: 0.752941; stroke: #231f20; stroke-linejoin: miter"/>
   </g>
   <g id="patch_24">
    <path d="M 165.6 224.190645 
C 167.209731 224.190645 168.753749 223.555218 169.892001 222.42431 
C 171.030252 221.293402 171.669805 219.759346 171.669805 218.16 
C 171.669805 216.560654 171.030252 215.026598 169.892001 213.89569 
C 168.753749 212.764782 167.209731 212.129355 165.6 212.129355 
C 163.990269 212.129355 162.446251 212.764782 161.307999 213.89569 
C 160.169748 215.026598 159.530195 216.560654 159.530195 218.16 
C 159.530195 219.759346 160.169748 221.293402 161.307999 222.42431 
C 162.446251 223.555218 163.990269 224.190645 165.6 224.190645 
z
" clip-path="url(#p4912245954)" style="fill: #0871b7; fill-opacity: 0.752941; stroke: #231f20; stroke-linejoin: miter"/>
   </g>
   <g id="patch_25">
    <path d="M 277.2 224.190645 
C 278.809731 224.190645 280.353749 223.555218 281.492001 222.42431 
C 282.630252 221.293402 283.269805 219.759346 283.269805 218.16 
C 283.269805 216.560654 282.630252 215.026598 281.492001 213.89569 
C 280.353749 212.764782 278.809731 212.129355 277.2 212.129355 
C 275.590269 212.129355 274.046251 212.764782 272.907999 213.89569 
C 271.769748 215.026598 271.130195 216.560654 271.130195 218.16 
C 271.130195 219.759346 271.769748 221.293402 272.907999 222.42431 
C 274.046251 223.555218 275.590269 224.190645 277.2 224.190645 
z
" clip-path="url(#p4912245954)" style="fill: #0871b7; fill-opacity: 0.752941; stroke: #231f20; stroke-linejoin: miter"/>
   </g>
   <g id="patch_26">
    <path d="M 221.4 168.750645 
C 223.009731 168.750645 224.553749 168.115218 225.692001 166.98431 
C 226.830252 165.853402 227.469805 164.319346 227.469805 162.72 
C 227.469805 161.120654 226.830252 159.586598 225.692001 158.45569 
C 224.553749 157.324782 223.009731 156.689355 221.4 156.689355 
C 219.790269 156.689355 218.246251 157.324782 217.107999 158.45569 
C 215.969748 159.586598 215.330195 161.120654 215.330195 162.72 
C 215.330195 164.319346 215.969748 165.853402 217.107999 166.98431 
C 218.246251 168.115218 219.790269 168.750645 221.4 168.750645 
z
" clip-path="url(#p4912245954)" style="fill: #0871b7; fill-opacity: 0.752941; stroke: #231f20; stroke-linejoin: miter"/>
   </g>
   <g id="patch_27">
    <path d="M 221.4 230.251406 
C 224.627501 230.251406 227.723246 228.977379 230.005434 226.709915 
C 232.287622 224.442451 233.569922 221.366678 233.569922 218.16 
C 233.569922 214.953322 232.287622 211.877549 230.005434 209.610085 
C 227.723246 207.342621 224.627501 206.068594 221.4 206.068594 
C 218.172499 206.068594 215.076754 207.342621 212.794566 209.610085 
C 210.512378 211.877549 209.230078 214.953322 209.230078 218.16 
C 209.230078 221.366678 210.512378 224.442451 212.794566 226.709915 
C 215.076754 228.977379 218.172499 230.251406 221.4 230.251406 
z
" clip-path="url(#p4912245954)" style="fill: #0871b7; fill-opacity: 0.752941; stroke: #231f20; stroke-linejoin: miter"/>
   </g>
  </g>
 </g>
 <defs>
  <clipPath id="p4912245954">
   <rect x="54" y="51.84" width="334.8" height="332.64"/>
  </clipPath>
 </defs>
</svg>
