<?xml version="1.0" encoding="utf-8" standalone="no"?>
<!DOCTYPE svg PUBLIC "-//W3C//DTD SVG 1.1//EN"
  "http://www.w3.org/Graphics/SVG/1.1/DTD/svg11.dtd">
<svg xmlns:xlink="http://www.w3.org/1999/xlink" width="432pt" height="432pt" viewBox="0 0 432 432" xmlns="http://www.w3.org/2000/svg" version="1.1">
 <metadata>
  <rdf:RDF xmlns:dc="http://purl.org/dc/elements/1.1/" xmlns:cc="http://creativecommons.org/ns#" xmlns:rdf="http://www.w3.org/1999/02/22-rdf-syntax-ns#">
   <cc:Work>
    <dc:type rdf:resource="http://purl.org/dc/dcmitype/StillImage"/>
    <dc:date>2025-03-02T17:55:05.278124</dc:date>
    <dc:format>image/svg+xml</dc:format>
    <dc:creator>
     <cc:Agent>
      <dc:title>Matplotlib v3.10.0, https://matplotlib.org/</dc:title>
     </cc:Agent>
    </dc:creator>
   </cc:Work>
  </rdf:RDF>
 </metadata>
 <defs>
  <style type="text/css">*{stroke-linejoin: round; stroke-linecap: butt}</style>
 </defs>
 <g id="figure_1">
  <g id="patch_1">
   <path d="M 0 432 
L 432 432 
L 432 0 
L 0 0 
z
" style="fill: #ffffff"/>
  </g>
  <g id="axes_1">
   <g id="patch_2">
    <path d="M 81.9 356.76 
L 360.9 356.76 
L 360.9 79.56 
L 81.9 79.56 
L 81.9 356.76 
z
" clip-path="url(#pca08a73cd9)" style="fill: none; stroke: #969696; stroke-width: 1.5; stroke-linejoin: miter"/>
   </g>
   <g id="patch_3">
    <path d="M 140.859637 315.505747 
C 145.484117 315.505747 149.919811 313.680276 153.189812 310.431372 
C 156.459812 307.182469 158.297137 302.775391 158.297137 298.180747 
C 158.297137 293.586104 156.459812 289.179026 153.189812 285.930122 
C 149.919811 282.681219 145.484117 280.855747 140.859637 280.855747 
C 136.235158 280.855747 131.799463 282.681219 128.529463 285.930122 
C 125.259462 289.179026 123.422137 293.586104 123.422137 298.180747 
C 123.422137 302.775391 125.259462 307.182469 128.529463 310.431372 
C 131.799463 313.680276 136.235158 315.505747 140.859637 315.505747 
z
" clip-path="url(#pca08a73cd9)" style="fill: #0871b7; fill-opacity: 0.752941; stroke: #231f20; stroke-linejoin: miter"/>
   </g>
   <g id="patch_4">
    <path d="M 301.940363 315.505747 
C 306.564842 315.505747 311.000537 313.680276 314.270537 310.431372 
C 317.540538 307.182469 319.377863 302.775391 319.377863 298.180747 
C 319.377863 293.586104 317.540538 289.179026 314.270537 285.930122 
C 311.000537 282.681219 306.564842 280.855747 301.940363 280.855747 
C 297.315883 280.855747 292.880189 282.681219 289.610188 285.930122 
C 286.340188 289.179026 284.502863 293.586104 284.502863 298.180747 
C 284.502863 302.775391 286.340188 307.182469 289.610188 310.431372 
C 292.880189 313.680276 297.315883 315.505747 301.940363 315.505747 
z
" clip-path="url(#pca08a73cd9)" style="fill: #0871b7; fill-opacity: 0.752941; stroke: #231f20; stroke-linejoin: miter"/>
   </g>
   <g id="patch_5">
    <path d="M 140.859637 155.464253 
C 145.484117 155.464253 149.919811 153.638781 153.189812 150.389878 
C 156.459812 147.140974 158.297137 142.733896 158.297137 138.139253 
C 158.297137 133.544609 156.459812 129.137531 153.189812 125.888628 
C 149.919811 122.639724 145.484117 120.814253 140.859637 120.814253 
C 136.235158 120.814253 131.799463 122.639724 128.529463 125.888628 
C 125.259462 129.137531 123.422137 133.544609 123.422137 138.139253 
C 123.422137 142.733896 125.259462 147.140974 128.529463 150.389878 
C 131.799463 153.638781 136.235158 155.464253 140.859637 155.464253 
z
" clip-path="url(#pca08a73cd9)" style="fill: #0871b7; fill-opacity: 0.752941; stroke: #231f20; stroke-linejoin: miter"/>
   </g>
   <g id="patch_6">
    <path d="M 301.940363 155.464253 
C 306.564842 155.464253 311.000537 153.638781 314.270537 150.389878 
C 317.540538 147.140974 319.377863 142.733896 319.377863 138.139253 
C 319.377863 133.544609 317.540538 129.137531 314.270537 125.888628 
C 311.000537 122.639724 306.564842 120.814253 301.940363 120.814253 
C 297.315883 120.814253 292.880189 122.639724 289.610188 125.888628 
C 286.340188 129.137531 284.502863 133.544609 284.502863 138.139253 
C 284.502863 142.733896 286.340188 147.140974 289.610188 150.389878 
C 292.880189 153.638781 297.315883 155.464253 301.940363 155.464253 
z
" clip-path="url(#pca08a73cd9)" style="fill: #0871b7; fill-opacity: 0.752941; stroke: #231f20; stroke-linejoin: miter"/>
   </g>
  </g>
 </g>
 <defs>
  <clipPath id="pca08a73cd9">
   <rect x="54" y="51.84" width="334.8" height="332.64"/>
  </clipPath>
 </defs>
</svg>
