<?xml version="1.0" encoding="utf-8" standalone="no"?>
<!DOCTYPE svg PUBLIC "-//W3C//DTD SVG 1.1//EN"
  "http://www.w3.org/Graphics/SVG/1.1/DTD/svg11.dtd">
<svg xmlns:xlink="http://www.w3.org/1999/xlink" width="432pt" height="432pt" viewBox="0 0 432 432" xmlns="http://www.w3.org/2000/svg" version="1.1">
 <metadata>
  <rdf:RDF xmlns:dc="http://purl.org/dc/elements/1.1/" xmlns:cc="http://creativecommons.org/ns#" xmlns:rdf="http://www.w3.org/1999/02/22-rdf-syntax-ns#">
   <cc:Work>
    <dc:type rdf:resource="http://purl.org/dc/dcmitype/StillImage"/>
    <dc:date>2025-03-02T17:55:06.532971</dc:date>
    <dc:format>image/svg+xml</dc:format>
    <dc:creator>
     <cc:Agent>
      <dc:title>Matplotlib v3.10.0, https://matplotlib.org/</dc:title>
     </cc:Agent>
    </dc:creator>
   </cc:Work>
  </rdf:RDF>
 </metadata>
 <defs>
  <style type="text/css">*{stroke-linejoin: round; stroke-linecap: butt}</style>
 </defs>
 <g id="figure_1">
  <g id="patch_1">
   <path d="M 0 432 
L 432 432 
L 432 0 
L 0 0 
z
" style="fill: #ffffff"/>
  </g>
  <g id="axes_1">
   <g id="patch_2">
    <path d="M 81.9 356.76 
L 360.9 356.76 
L 360.9 79.56 
L 81.9 79.56 
L 81.9 356.76 
z
" clip-path="url(#pd1b3b91500)" style="fill: none; stroke: #969696; stroke-width: 1.5; stroke-linejoin: miter"/>
   </g>
   <g id="patch_3">
    <path d="M 340.971429 343.16236 
C 342.626995 343.16236 344.214976 342.50884 345.385638 341.345731 
C 346.5563 340.182621 347.214064 338.604885 347.214064 336.96 
C 347.214064 335.315115 346.5563 333.737379 345.385638 332.574269 
C 344.214976 331.41116 342.626995 330.75764 340.971429 330.75764 
C 339.315862 330.75764 337.727881 331.41116 336.557219 332.574269 
C 335.386557 333.737379 334.728793 335.315115 334.728793 336.96 
C 334.728793 338.604885 335.386557 340.182621 336.557219 341.345731 
C 337.727881 342.50884 339.315862 343.16236 340.971429 343.16236 
z
" clip-path="url(#pd1b3b91500)" style="fill: #0871b7; fill-opacity: 0.752941; stroke: #231f20; stroke-linejoin: miter"/>
   </g>
   <g id="patch_4">
    <path d="M 101.828571 105.56236 
C 103.484138 105.56236 105.072119 104.90884 106.242781 103.745731 
C 107.413443 102.582621 108.071207 101.004885 108.071207 99.36 
C 108.071207 97.715115 107.413443 96.137379 106.242781 94.974269 
C 105.072119 93.81116 103.484138 93.15764 101.828571 93.15764 
C 100.173005 93.15764 98.585024 93.81116 97.414362 94.974269 
C 96.2437 96.137379 95.585936 97.715115 95.585936 99.36 
C 95.585936 101.004885 96.2437 102.582621 97.414362 103.745731 
C 98.585024 104.90884 100.173005 105.56236 101.828571 105.56236 
z
" clip-path="url(#pd1b3b91500)" style="fill: #0871b7; fill-opacity: 0.752941; stroke: #231f20; stroke-linejoin: miter"/>
   </g>
   <g id="patch_5">
    <path d="M 340.971429 105.56236 
C 342.626995 105.56236 344.214976 104.90884 345.385638 103.745731 
C 346.5563 102.582621 347.214064 101.004885 347.214064 99.36 
C 347.214064 97.715115 346.5563 96.137379 345.385638 94.974269 
C 344.214976 93.81116 342.626995 93.15764 340.971429 93.15764 
C 339.315862 93.15764 337.727881 93.81116 336.557219 94.974269 
C 335.386557 96.137379 334.728793 97.715115 334.728793 99.36 
C 334.728793 101.004885 335.386557 102.582621 336.557219 103.745731 
C 337.727881 104.90884 339.315862 105.56236 340.971429 105.56236 
z
" clip-path="url(#pd1b3b91500)" style="fill: #0871b7; fill-opacity: 0.752941; stroke: #231f20; stroke-linejoin: miter"/>
   </g>
   <g id="patch_6">
    <path d="M 101.828571 343.16236 
C 103.484138 343.16236 105.072119 342.50884 106.242781 341.345731 
C 107.413443 340.182621 108.071207 338.604885 108.071207 336.96 
C 108.071207 335.315115 107.413443 333.737379 106.242781 332.574269 
C 105.072119 331.41116 103.484138 330.75764 101.828571 330.75764 
C 100.173005 330.75764 98.585024 331.41116 97.414362 332.574269 
C 96.2437 333.737379 95.585936 335.315115 95.585936 336.96 
C 95.585936 338.604885 96.2437 340.182621 97.414362 341.345731 
C 98.585024 342.50884 100.173005 343.16236 101.828571 343.16236 
z
" clip-path="url(#pd1b3b91500)" style="fill: #0871b7; fill-opacity: 0.752941; stroke: #231f20; stroke-linejoin: miter"/>
   </g>
   <g id="patch_7">
    <path d="M 141.685714 338.130975 
C 141.998277 338.130975 142.29808 338.007593 142.519095 337.788004 
C 142.74011 337.568415 142.864293 337.270546 142.864293 336.96 
C 142.864293 336.649454 142.74011 336.351585 142.519095 336.131996 
C 142.29808 335.912407 141.998277 335.789025 141.685714 335.789025 
C 141.373152 335.789025 141.073349 335.912407 140.852333 336.131996 
C 140.631318 336.351585 140.507136 336.649454 140.507136 336.96 
C 140.507136 337.270546 140.631318 337.568415 140.852333 337.788004 
C 141.073349 338.007593 141.373152 338.130975 141.685714 338.130975 
z
" clip-path="url(#pd1b3b91500)" style="fill: #0871b7; fill-opacity: 0.752941; stroke: #231f20; stroke-linejoin: miter"/>
   </g>
   <g id="patch_8">
    <path d="M 301.114286 338.130975 
C 301.426848 338.130975 301.726651 338.007593 301.947667 337.788004 
C 302.168682 337.568415 302.292864 337.270546 302.292864 336.96 
C 302.292864 336.649454 302.168682 336.351585 301.947667 336.131996 
C 301.726651 335.912407 301.426848 335.789025 301.114286 335.789025 
C 300.801723 335.789025 300.50192 335.912407 300.280905 336.131996 
C 300.05989 336.351585 299.935707 336.649454 299.935707 336.96 
C 299.935707 337.270546 300.05989 337.568415 300.280905 337.788004 
C 300.50192 338.007593 300.801723 338.130975 301.114286 338.130975 
z
" clip-path="url(#pd1b3b91500)" style="fill: #0871b7; fill-opacity: 0.752941; stroke: #231f20; stroke-linejoin: miter"/>
   </g>
   <g id="patch_9">
    <path d="M 101.828571 298.530975 
C 102.141134 298.530975 102.440937 298.407593 102.661952 298.188004 
C 102.882967 297.968415 103.00715 297.670546 103.00715 297.36 
C 103.00715 297.049454 102.882967 296.751585 102.661952 296.531996 
C 102.440937 296.312407 102.141134 296.189025 101.828571 296.189025 
C 101.516009 296.189025 101.216206 296.312407 100.995191 296.531996 
C 100.774175 296.751585 100.649993 297.049454 100.649993 297.36 
C 100.649993 297.670546 100.774175 297.968415 100.995191 298.188004 
C 101.216206 298.407593 101.516009 298.530975 101.828571 298.530975 
z
" clip-path="url(#pd1b3b91500)" style="fill: #0871b7; fill-opacity: 0.752941; stroke: #231f20; stroke-linejoin: miter"/>
   </g>
   <g id="patch_10">
    <path d="M 340.971429 298.530975 
C 341.283991 298.530975 341.583794 298.407593 341.804809 298.188004 
C 342.025825 297.968415 342.150007 297.670546 342.150007 297.36 
C 342.150007 297.049454 342.025825 296.751585 341.804809 296.531996 
C 341.583794 296.312407 341.283991 296.189025 340.971429 296.189025 
C 340.658866 296.189025 340.359063 296.312407 340.138048 296.531996 
C 339.917033 296.751585 339.79285 297.049454 339.79285 297.36 
C 339.79285 297.670546 339.917033 297.968415 340.138048 298.188004 
C 340.359063 298.407593 340.658866 298.530975 340.971429 298.530975 
z
" clip-path="url(#pd1b3b91500)" style="fill: #0871b7; fill-opacity: 0.752941; stroke: #231f20; stroke-linejoin: miter"/>
   </g>
   <g id="patch_11">
    <path d="M 101.828571 140.130975 
C 102.141134 140.130975 102.440937 140.007593 102.661952 139.788004 
C 102.882967 139.568415 103.00715 139.270546 103.00715 138.96 
C 103.00715 138.649454 102.882967 138.351585 102.661952 138.131996 
C 102.440937 137.912407 102.141134 137.789025 101.828571 137.789025 
C 101.516009 137.789025 101.216206 137.912407 100.995191 138.131996 
C 100.774175 138.351585 100.649993 138.649454 100.649993 138.96 
C 100.649993 139.270546 100.774175 139.568415 100.995191 139.788004 
C 101.216206 140.007593 101.516009 140.130975 101.828571 140.130975 
z
" clip-path="url(#pd1b3b91500)" style="fill: #0871b7; fill-opacity: 0.752941; stroke: #231f20; stroke-linejoin: miter"/>
   </g>
   <g id="patch_12">
    <path d="M 340.971429 140.130975 
C 341.283991 140.130975 341.583794 140.007593 341.804809 139.788004 
C 342.025825 139.568415 342.150007 139.270546 342.150007 138.96 
C 342.150007 138.649454 342.025825 138.351585 341.804809 138.131996 
C 341.583794 137.912407 341.283991 137.789025 340.971429 137.789025 
C 340.658866 137.789025 340.359063 137.912407 340.138048 138.131996 
C 339.917033 138.351585 339.79285 138.649454 339.79285 138.96 
C 339.79285 139.270546 339.917033 139.568415 340.138048 139.788004 
C 340.359063 140.007593 340.658866 140.130975 340.971429 140.130975 
z
" clip-path="url(#pd1b3b91500)" style="fill: #0871b7; fill-opacity: 0.752941; stroke: #231f20; stroke-linejoin: miter"/>
   </g>
   <g id="patch_13">
    <path d="M 141.685714 100.530975 
C 141.998277 100.530975 142.29808 100.407593 142.519095 100.188004 
C 142.74011 99.968415 142.864293 99.670546 142.864293 99.36 
C 142.864293 99.049454 142.74011 98.751585 142.519095 98.531996 
C 142.29808 98.312407 141.998277 98.189025 141.685714 98.189025 
C 141.373152 98.189025 141.073349 98.312407 140.852333 98.531996 
C 140.631318 98.751585 140.507136 99.049454 140.507136 99.36 
C 140.507136 99.670546 140.631318 99.968415 140.852333 100.188004 
C 141.073349 100.407593 141.373152 100.530975 141.685714 100.530975 
z
" clip-path="url(#pd1b3b91500)" style="fill: #0871b7; fill-opacity: 0.752941; stroke: #231f20; stroke-linejoin: miter"/>
   </g>
   <g id="patch_14">
    <path d="M 301.114286 100.530975 
C 301.426848 100.530975 301.726651 100.407593 301.947667 100.188004 
C 302.168682 99.968415 302.292864 99.670546 302.292864 99.36 
C 302.292864 99.049454 302.168682 98.751585 301.947667 98.531996 
C 301.726651 98.312407 301.426848 98.189025 301.114286 98.189025 
C 300.801723 98.189025 300.50192 98.312407 300.280905 98.531996 
C 300.05989 98.751585 299.935707 99.049454 299.935707 99.36 
C 299.935707 99.670546 300.05989 99.968415 300.280905 100.188004 
C 300.50192 100.407593 300.801723 100.530975 301.114286 100.530975 
z
" clip-path="url(#pd1b3b91500)" style="fill: #0871b7; fill-opacity: 0.752941; stroke: #231f20; stroke-linejoin: miter"/>
   </g>
   <g id="patch_15">
    <path d="M 261.257143 346.291133 
C 263.747857 346.291133 266.136894 345.307946 267.898095 343.558108 
C 269.659297 341.808269 270.648868 339.434646 270.648868 336.96 
C 270.648868 334.485354 269.659297 332.111731 267.898095 330.361892 
C 266.136894 328.612054 263.747857 327.628867 261.257143 327.628867 
C 258.766428 327.628867 256.377392 328.612054 254.61619 330.361892 
C 252.854989 332.111731 251.865418 334.485354 251.865418 336.96 
C 251.865418 339.434646 252.854989 341.808269 254.61619 343.558108 
C 256.377392 345.307946 258.766428 346.291133 261.257143 346.291133 
z
" clip-path="url(#pd1b3b91500)" style="fill: #0871b7; fill-opacity: 0.752941; stroke: #231f20; stroke-linejoin: miter"/>
   </g>
   <g id="patch_16">
    <path d="M 101.828571 187.891133 
C 104.319286 187.891133 106.708323 186.907946 108.469524 185.158108 
C 110.230725 183.408269 111.220297 181.034646 111.220297 178.56 
C 111.220297 176.085354 110.230725 173.711731 108.469524 171.961892 
C 106.708323 170.212054 104.319286 169.228867 101.828571 169.228867 
C 99.337857 169.228867 96.94882 170.212054 95.187619 171.961892 
C 93.426418 173.711731 92.436846 176.085354 92.436846 178.56 
C 92.436846 181.034646 93.426418 183.408269 95.187619 185.158108 
C 96.94882 186.907946 99.337857 187.891133 101.828571 187.891133 
z
" clip-path="url(#pd1b3b91500)" style="fill: #0871b7; fill-opacity: 0.752941; stroke: #231f20; stroke-linejoin: miter"/>
   </g>
   <g id="patch_17">
    <path d="M 340.971429 187.891133 
C 343.462143 187.891133 345.85118 186.907946 347.612381 185.158108 
C 349.373582 183.408269 350.363154 181.034646 350.363154 178.56 
C 350.363154 176.085354 349.373582 173.711731 347.612381 171.961892 
C 345.85118 170.212054 343.462143 169.228867 340.971429 169.228867 
C 338.480714 169.228867 336.091677 170.212054 334.330476 171.961892 
C 332.569275 173.711731 331.579703 176.085354 331.579703 178.56 
C 331.579703 181.034646 332.569275 183.408269 334.330476 185.158108 
C 336.091677 186.907946 338.480714 187.891133 340.971429 187.891133 
z
" clip-path="url(#pd1b3b91500)" style="fill: #0871b7; fill-opacity: 0.752941; stroke: #231f20; stroke-linejoin: miter"/>
   </g>
   <g id="patch_18">
    <path d="M 261.257143 108.691133 
C 263.747857 108.691133 266.136894 107.707946 267.898095 105.958108 
C 269.659297 104.208269 270.648868 101.834646 270.648868 99.36 
C 270.648868 96.885354 269.659297 94.511731 267.898095 92.761892 
C 266.136894 91.012054 263.747857 90.028867 261.257143 90.028867 
C 258.766428 90.028867 256.377392 91.012054 254.61619 92.761892 
C 252.854989 94.511731 251.865418 96.885354 251.865418 99.36 
C 251.865418 101.834646 252.854989 104.208269 254.61619 105.958108 
C 256.377392 107.707946 258.766428 108.691133 261.257143 108.691133 
z
" clip-path="url(#pd1b3b91500)" style="fill: #0871b7; fill-opacity: 0.752941; stroke: #231f20; stroke-linejoin: miter"/>
   </g>
   <g id="patch_19">
    <path d="M 340.971429 267.091133 
C 343.462143 267.091133 345.85118 266.107946 347.612381 264.358108 
C 349.373582 262.608269 350.363154 260.234646 350.363154 257.76 
C 350.363154 255.285354 349.373582 252.911731 347.612381 251.161892 
C 345.85118 249.412054 343.462143 248.428867 340.971429 248.428867 
C 338.480714 248.428867 336.091677 249.412054 334.330476 251.161892 
C 332.569275 252.911731 331.579703 255.285354 331.579703 257.76 
C 331.579703 260.234646 332.569275 262.608269 334.330476 264.358108 
C 336.091677 266.107946 338.480714 267.091133 340.971429 267.091133 
z
" clip-path="url(#pd1b3b91500)" style="fill: #0871b7; fill-opacity: 0.752941; stroke: #231f20; stroke-linejoin: miter"/>
   </g>
   <g id="patch_20">
    <path d="M 181.542857 108.691133 
C 184.033572 108.691133 186.422608 107.707946 188.18381 105.958108 
C 189.945011 104.208269 190.934582 101.834646 190.934582 99.36 
C 190.934582 96.885354 189.945011 94.511731 188.18381 92.761892 
C 186.422608 91.012054 184.033572 90.028867 181.542857 90.028867 
C 179.052143 90.028867 176.663106 91.012054 174.901905 92.761892 
C 173.140703 94.511731 172.151132 96.885354 172.151132 99.36 
C 172.151132 101.834646 173.140703 104.208269 174.901905 105.958108 
C 176.663106 107.707946 179.052143 108.691133 181.542857 108.691133 
z
" clip-path="url(#pd1b3b91500)" style="fill: #0871b7; fill-opacity: 0.752941; stroke: #231f20; stroke-linejoin: miter"/>
   </g>
   <g id="patch_21">
    <path d="M 181.542857 346.291133 
C 184.033572 346.291133 186.422608 345.307946 188.18381 343.558108 
C 189.945011 341.808269 190.934582 339.434646 190.934582 336.96 
C 190.934582 334.485354 189.945011 332.111731 188.18381 330.361892 
C 186.422608 328.612054 184.033572 327.628867 181.542857 327.628867 
C 179.052143 327.628867 176.663106 328.612054 174.901905 330.361892 
C 173.140703 332.111731 172.151132 334.485354 172.151132 336.96 
C 172.151132 339.434646 173.140703 341.808269 174.901905 343.558108 
C 176.663106 345.307946 179.052143 346.291133 181.542857 346.291133 
z
" clip-path="url(#pd1b3b91500)" style="fill: #0871b7; fill-opacity: 0.752941; stroke: #231f20; stroke-linejoin: miter"/>
   </g>
   <g id="patch_22">
    <path d="M 101.828571 267.091133 
C 104.319286 267.091133 106.708323 266.107946 108.469524 264.358108 
C 110.230725 262.608269 111.220297 260.234646 111.220297 257.76 
C 111.220297 255.285354 110.230725 252.911731 108.469524 251.161892 
C 106.708323 249.412054 104.319286 248.428867 101.828571 248.428867 
C 99.337857 248.428867 96.94882 249.412054 95.187619 251.161892 
C 93.426418 252.911731 92.436846 255.285354 92.436846 257.76 
C 92.436846 260.234646 93.426418 262.608269 95.187619 264.358108 
C 96.94882 266.107946 99.337857 267.091133 101.828571 267.091133 
z
" clip-path="url(#pd1b3b91500)" style="fill: #0871b7; fill-opacity: 0.752941; stroke: #231f20; stroke-linejoin: miter"/>
   </g>
   <g id="patch_23">
    <path d="M 221.4 343.197726 
C 223.065006 343.197726 224.662042 342.54048 225.83938 341.370739 
C 227.016717 340.200997 227.678231 338.614264 227.678231 336.96 
C 227.678231 335.305736 227.016717 333.719003 225.83938 332.549261 
C 224.662042 331.37952 223.065006 330.722274 221.4 330.722274 
C 219.734994 330.722274 218.137958 331.37952 216.96062 332.549261 
C 215.783283 333.719003 215.121769 335.305736 215.121769 336.96 
C 215.121769 338.614264 215.783283 340.200997 216.96062 341.370739 
C 218.137958 342.54048 219.734994 343.197726 221.4 343.197726 
z
" clip-path="url(#pd1b3b91500)" style="fill: #b74e08; fill-opacity: 0.752941; stroke: #231f20; stroke-linejoin: miter"/>
   </g>
   <g id="patch_24">
    <path d="M 101.828571 224.397726 
C 103.493578 224.397726 105.090614 223.74048 106.267951 222.570739 
C 107.445288 221.400997 108.106802 219.814264 108.106802 218.16 
C 108.106802 216.505736 107.445288 214.919003 106.267951 213.749261 
C 105.090614 212.57952 103.493578 211.922274 101.828571 211.922274 
C 100.163565 211.922274 98.566529 212.57952 97.389192 213.749261 
C 96.211854 214.919003 95.55034 216.505736 95.55034 218.16 
C 95.55034 219.814264 96.211854 221.400997 97.389192 222.570739 
C 98.566529 223.74048 100.163565 224.397726 101.828571 224.397726 
z
" clip-path="url(#pd1b3b91500)" style="fill: #b74e08; fill-opacity: 0.752941; stroke: #231f20; stroke-linejoin: miter"/>
   </g>
   <g id="patch_25">
    <path d="M 340.971429 224.397726 
C 342.636435 224.397726 344.233471 223.74048 345.410808 222.570739 
C 346.588146 221.400997 347.24966 219.814264 347.24966 218.16 
C 347.24966 216.505736 346.588146 214.919003 345.410808 213.749261 
C 344.233471 212.57952 342.636435 211.922274 340.971429 211.922274 
C 339.306422 211.922274 337.709386 212.57952 336.532049 213.749261 
C 335.354712 214.919003 334.693198 216.505736 334.693198 218.16 
C 334.693198 219.814264 335.354712 221.400997 336.532049 222.570739 
C 337.709386 223.74048 339.306422 224.397726 340.971429 224.397726 
z
" clip-path="url(#pd1b3b91500)" style="fill: #b74e08; fill-opacity: 0.752941; stroke: #231f20; stroke-linejoin: miter"/>
   </g>
   <g id="patch_26">
    <path d="M 221.4 105.597726 
C 223.065006 105.597726 224.662042 104.94048 225.83938 103.770739 
C 227.016717 102.600997 227.678231 101.014264 227.678231 99.36 
C 227.678231 97.705736 227.016717 96.119003 225.83938 94.949261 
C 224.662042 93.77952 223.065006 93.122274 221.4 93.122274 
C 219.734994 93.122274 218.137958 93.77952 216.96062 94.949261 
C 215.783283 96.119003 215.121769 97.705736 215.121769 99.36 
C 215.121769 101.014264 215.783283 102.600997 216.96062 103.770739 
C 218.137958 104.94048 219.734994 105.597726 221.4 105.597726 
z
" clip-path="url(#pd1b3b91500)" style="fill: #b74e08; fill-opacity: 0.752941; stroke: #231f20; stroke-linejoin: miter"/>
   </g>
   <g id="patch_27">
    <path d="M 141.685714 297.581074 
C 141.744725 297.581074 141.801326 297.55778 141.843052 297.516323 
C 141.884779 297.474866 141.908224 297.41863 141.908224 297.36 
C 141.908224 297.30137 141.884779 297.245134 141.843052 297.203677 
C 141.801326 297.16222 141.744725 297.138926 141.685714 297.138926 
C 141.626704 297.138926 141.570103 297.16222 141.528376 297.203677 
C 141.48665 297.245134 141.463205 297.30137 141.463205 297.36 
C 141.463205 297.41863 141.48665 297.474866 141.528376 297.516323 
C 141.570103 297.55778 141.626704 297.581074 141.685714 297.581074 
z
" clip-path="url(#pd1b3b91500)" style="fill: #0871b7; fill-opacity: 0.752941; stroke: #231f20; stroke-linejoin: miter"/>
   </g>
   <g id="patch_28">
    <path d="M 301.114286 297.581074 
C 301.173296 297.581074 301.229897 297.55778 301.271624 297.516323 
C 301.31335 297.474866 301.336795 297.41863 301.336795 297.36 
C 301.336795 297.30137 301.31335 297.245134 301.271624 297.203677 
C 301.229897 297.16222 301.173296 297.138926 301.114286 297.138926 
C 301.055275 297.138926 300.998674 297.16222 300.956948 297.203677 
C 300.915221 297.245134 300.891776 297.30137 300.891776 297.36 
C 300.891776 297.41863 300.915221 297.474866 300.956948 297.516323 
C 300.998674 297.55778 301.055275 297.581074 301.114286 297.581074 
z
" clip-path="url(#pd1b3b91500)" style="fill: #0871b7; fill-opacity: 0.752941; stroke: #231f20; stroke-linejoin: miter"/>
   </g>
   <g id="patch_29">
    <path d="M 141.685714 139.181074 
C 141.744725 139.181074 141.801326 139.15778 141.843052 139.116323 
C 141.884779 139.074866 141.908224 139.01863 141.908224 138.96 
C 141.908224 138.90137 141.884779 138.845134 141.843052 138.803677 
C 141.801326 138.76222 141.744725 138.738926 141.685714 138.738926 
C 141.626704 138.738926 141.570103 138.76222 141.528376 138.803677 
C 141.48665 138.845134 141.463205 138.90137 141.463205 138.96 
C 141.463205 139.01863 141.48665 139.074866 141.528376 139.116323 
C 141.570103 139.15778 141.626704 139.181074 141.685714 139.181074 
z
" clip-path="url(#pd1b3b91500)" style="fill: #0871b7; fill-opacity: 0.752941; stroke: #231f20; stroke-linejoin: miter"/>
   </g>
   <g id="patch_30">
    <path d="M 301.114286 139.181074 
C 301.173296 139.181074 301.229897 139.15778 301.271624 139.116323 
C 301.31335 139.074866 301.336795 139.01863 301.336795 138.96 
C 301.336795 138.90137 301.31335 138.845134 301.271624 138.803677 
C 301.229897 138.76222 301.173296 138.738926 301.114286 138.738926 
C 301.055275 138.738926 300.998674 138.76222 300.956948 138.803677 
C 300.915221 138.845134 300.891776 138.90137 300.891776 138.96 
C 300.891776 139.01863 300.915221 139.074866 300.956948 139.116323 
C 300.998674 139.15778 301.055275 139.181074 301.114286 139.181074 
z
" clip-path="url(#pd1b3b91500)" style="fill: #0871b7; fill-opacity: 0.752941; stroke: #231f20; stroke-linejoin: miter"/>
   </g>
   <g id="patch_31">
    <path d="M 301.114286 180.321672 
C 301.58452 180.321672 302.035559 180.136051 302.368065 179.80569 
C 302.700571 179.475329 302.887397 179.027201 302.887397 178.56 
C 302.887397 178.092799 302.700571 177.644671 302.368065 177.31431 
C 302.035559 176.983949 301.58452 176.798328 301.114286 176.798328 
C 300.644051 176.798328 300.193013 176.983949 299.860507 177.31431 
C 299.528001 177.644671 299.341175 178.092799 299.341175 178.56 
C 299.341175 179.027201 299.528001 179.475329 299.860507 179.80569 
C 300.193013 180.136051 300.644051 180.321672 301.114286 180.321672 
z
" clip-path="url(#pd1b3b91500)" style="fill: #0871b7; fill-opacity: 0.752941; stroke: #231f20; stroke-linejoin: miter"/>
   </g>
   <g id="patch_32">
    <path d="M 261.257143 140.721672 
C 261.727377 140.721672 262.178416 140.536051 262.510922 140.20569 
C 262.843428 139.875329 263.030254 139.427201 263.030254 138.96 
C 263.030254 138.492799 262.843428 138.044671 262.510922 137.71431 
C 262.178416 137.383949 261.727377 137.198328 261.257143 137.198328 
C 260.786908 137.198328 260.33587 137.383949 260.003364 137.71431 
C 259.670858 138.044671 259.484032 138.492799 259.484032 138.96 
C 259.484032 139.427201 259.670858 139.875329 260.003364 140.20569 
C 260.33587 140.536051 260.786908 140.721672 261.257143 140.721672 
z
" clip-path="url(#pd1b3b91500)" style="fill: #0871b7; fill-opacity: 0.752941; stroke: #231f20; stroke-linejoin: miter"/>
   </g>
   <g id="patch_33">
    <path d="M 181.542857 299.121672 
C 182.013092 299.121672 182.46413 298.936051 182.796636 298.60569 
C 183.129142 298.275329 183.315968 297.827201 183.315968 297.36 
C 183.315968 296.892799 183.129142 296.444671 182.796636 296.11431 
C 182.46413 295.783949 182.013092 295.598328 181.542857 295.598328 
C 181.072623 295.598328 180.621584 295.783949 180.289078 296.11431 
C 179.956572 296.444671 179.769746 296.892799 179.769746 297.36 
C 179.769746 297.827201 179.956572 298.275329 180.289078 298.60569 
C 180.621584 298.936051 181.072623 299.121672 181.542857 299.121672 
z
" clip-path="url(#pd1b3b91500)" style="fill: #0871b7; fill-opacity: 0.752941; stroke: #231f20; stroke-linejoin: miter"/>
   </g>
   <g id="patch_34">
    <path d="M 261.257143 299.121672 
C 261.727377 299.121672 262.178416 298.936051 262.510922 298.60569 
C 262.843428 298.275329 263.030254 297.827201 263.030254 297.36 
C 263.030254 296.892799 262.843428 296.444671 262.510922 296.11431 
C 262.178416 295.783949 261.727377 295.598328 261.257143 295.598328 
C 260.786908 295.598328 260.33587 295.783949 260.003364 296.11431 
C 259.670858 296.444671 259.484032 296.892799 259.484032 297.36 
C 259.484032 297.827201 259.670858 298.275329 260.003364 298.60569 
C 260.33587 298.936051 260.786908 299.121672 261.257143 299.121672 
z
" clip-path="url(#pd1b3b91500)" style="fill: #0871b7; fill-opacity: 0.752941; stroke: #231f20; stroke-linejoin: miter"/>
   </g>
   <g id="patch_35">
    <path d="M 141.685714 259.521672 
C 142.155949 259.521672 142.606987 259.336051 142.939493 259.00569 
C 143.271999 258.675329 143.458825 258.227201 143.458825 257.76 
C 143.458825 257.292799 143.271999 256.844671 142.939493 256.51431 
C 142.606987 256.183949 142.155949 255.998328 141.685714 255.998328 
C 141.21548 255.998328 140.764441 256.183949 140.431935 256.51431 
C 140.099429 256.844671 139.912603 257.292799 139.912603 257.76 
C 139.912603 258.227201 140.099429 258.675329 140.431935 259.00569 
C 140.764441 259.336051 141.21548 259.521672 141.685714 259.521672 
z
" clip-path="url(#pd1b3b91500)" style="fill: #0871b7; fill-opacity: 0.752941; stroke: #231f20; stroke-linejoin: miter"/>
   </g>
   <g id="patch_36">
    <path d="M 141.685714 180.321672 
C 142.155949 180.321672 142.606987 180.136051 142.939493 179.80569 
C 143.271999 179.475329 143.458825 179.027201 143.458825 178.56 
C 143.458825 178.092799 143.271999 177.644671 142.939493 177.31431 
C 142.606987 176.983949 142.155949 176.798328 141.685714 176.798328 
C 141.21548 176.798328 140.764441 176.983949 140.431935 177.31431 
C 140.099429 177.644671 139.912603 178.092799 139.912603 178.56 
C 139.912603 179.027201 140.099429 179.475329 140.431935 179.80569 
C 140.764441 180.136051 141.21548 180.321672 141.685714 180.321672 
z
" clip-path="url(#pd1b3b91500)" style="fill: #0871b7; fill-opacity: 0.752941; stroke: #231f20; stroke-linejoin: miter"/>
   </g>
   <g id="patch_37">
    <path d="M 301.114286 259.521672 
C 301.58452 259.521672 302.035559 259.336051 302.368065 259.00569 
C 302.700571 258.675329 302.887397 258.227201 302.887397 257.76 
C 302.887397 257.292799 302.700571 256.844671 302.368065 256.51431 
C 302.035559 256.183949 301.58452 255.998328 301.114286 255.998328 
C 300.644051 255.998328 300.193013 256.183949 299.860507 256.51431 
C 299.528001 256.844671 299.341175 257.292799 299.341175 257.76 
C 299.341175 258.227201 299.528001 258.675329 299.860507 259.00569 
C 300.193013 259.336051 300.644051 259.521672 301.114286 259.521672 
z
" clip-path="url(#pd1b3b91500)" style="fill: #0871b7; fill-opacity: 0.752941; stroke: #231f20; stroke-linejoin: miter"/>
   </g>
   <g id="patch_38">
    <path d="M 181.542857 140.721672 
C 182.013092 140.721672 182.46413 140.536051 182.796636 140.20569 
C 183.129142 139.875329 183.315968 139.427201 183.315968 138.96 
C 183.315968 138.492799 183.129142 138.044671 182.796636 137.71431 
C 182.46413 137.383949 182.013092 137.198328 181.542857 137.198328 
C 181.072623 137.198328 180.621584 137.383949 180.289078 137.71431 
C 179.956572 138.044671 179.769746 138.492799 179.769746 138.96 
C 179.769746 139.427201 179.956572 139.875329 180.289078 140.20569 
C 180.621584 140.536051 181.072623 140.721672 181.542857 140.721672 
z
" clip-path="url(#pd1b3b91500)" style="fill: #0871b7; fill-opacity: 0.752941; stroke: #231f20; stroke-linejoin: miter"/>
   </g>
   <g id="patch_39">
    <path d="M 221.4 298.537652 
C 221.714345 298.537652 222.015857 298.413567 222.238133 298.192726 
C 222.460408 297.971884 222.585299 297.672317 222.585299 297.36 
C 222.585299 297.047683 222.460408 296.748116 222.238133 296.527274 
C 222.015857 296.306433 221.714345 296.182348 221.4 296.182348 
C 221.085655 296.182348 220.784143 296.306433 220.561867 296.527274 
C 220.339592 296.748116 220.214701 297.047683 220.214701 297.36 
C 220.214701 297.672317 220.339592 297.971884 220.561867 298.192726 
C 220.784143 298.413567 221.085655 298.537652 221.4 298.537652 
z
" clip-path="url(#pd1b3b91500)" style="fill: #b74e08; fill-opacity: 0.752941; stroke: #231f20; stroke-linejoin: miter"/>
   </g>
   <g id="patch_40">
    <path d="M 141.685714 219.337652 
C 142.000059 219.337652 142.301572 219.213567 142.523847 218.992726 
C 142.746123 218.771884 142.871013 218.472317 142.871013 218.16 
C 142.871013 217.847683 142.746123 217.548116 142.523847 217.327274 
C 142.301572 217.106433 142.000059 216.982348 141.685714 216.982348 
C 141.371369 216.982348 141.069857 217.106433 140.847581 217.327274 
C 140.625306 217.548116 140.500415 217.847683 140.500415 218.16 
C 140.500415 218.472317 140.625306 218.771884 140.847581 218.992726 
C 141.069857 219.213567 141.371369 219.337652 141.685714 219.337652 
z
" clip-path="url(#pd1b3b91500)" style="fill: #b74e08; fill-opacity: 0.752941; stroke: #231f20; stroke-linejoin: miter"/>
   </g>
   <g id="patch_41">
    <path d="M 301.114286 219.337652 
C 301.428631 219.337652 301.730143 219.213567 301.952419 218.992726 
C 302.174694 218.771884 302.299585 218.472317 302.299585 218.16 
C 302.299585 217.847683 302.174694 217.548116 301.952419 217.327274 
C 301.730143 217.106433 301.428631 216.982348 301.114286 216.982348 
C 300.799941 216.982348 300.498428 217.106433 300.276153 217.327274 
C 300.053877 217.548116 299.928987 217.847683 299.928987 218.16 
C 299.928987 218.472317 300.053877 218.771884 300.276153 218.992726 
C 300.498428 219.213567 300.799941 219.337652 301.114286 219.337652 
z
" clip-path="url(#pd1b3b91500)" style="fill: #b74e08; fill-opacity: 0.752941; stroke: #231f20; stroke-linejoin: miter"/>
   </g>
   <g id="patch_42">
    <path d="M 221.4 140.137652 
C 221.714345 140.137652 222.015857 140.013567 222.238133 139.792726 
C 222.460408 139.571884 222.585299 139.272317 222.585299 138.96 
C 222.585299 138.647683 222.460408 138.348116 222.238133 138.127274 
C 222.015857 137.906433 221.714345 137.782348 221.4 137.782348 
C 221.085655 137.782348 220.784143 137.906433 220.561867 138.127274 
C 220.339592 138.348116 220.214701 138.647683 220.214701 138.96 
C 220.214701 139.272317 220.339592 139.571884 220.561867 139.792726 
C 220.784143 140.013567 221.085655 140.137652 221.4 140.137652 
z
" clip-path="url(#pd1b3b91500)" style="fill: #b74e08; fill-opacity: 0.752941; stroke: #231f20; stroke-linejoin: miter"/>
   </g>
   <g id="patch_43">
    <path d="M 181.542857 271.798213 
C 185.29001 271.798213 188.884193 270.319058 191.533831 267.686516 
C 194.183468 265.053973 195.672227 261.482978 195.672227 257.76 
C 195.672227 254.037022 194.183468 250.466027 191.533831 247.833484 
C 188.884193 245.200942 185.29001 243.721787 181.542857 243.721787 
C 177.795704 243.721787 174.201521 245.200942 171.551884 247.833484 
C 168.902247 250.466027 167.413487 254.037022 167.413487 257.76 
C 167.413487 261.482978 168.902247 265.053973 171.551884 267.686516 
C 174.201521 270.319058 177.795704 271.798213 181.542857 271.798213 
z
" clip-path="url(#pd1b3b91500)" style="fill: #0871b7; fill-opacity: 0.752941; stroke: #231f20; stroke-linejoin: miter"/>
   </g>
   <g id="patch_44">
    <path d="M 261.257143 192.598213 
C 265.004296 192.598213 268.598479 191.119058 271.248116 188.486516 
C 273.897753 185.853973 275.386513 182.282978 275.386513 178.56 
C 275.386513 174.837022 273.897753 171.266027 271.248116 168.633484 
C 268.598479 166.000942 265.004296 164.521787 261.257143 164.521787 
C 257.50999 164.521787 253.915807 166.000942 251.266169 168.633484 
C 248.616532 171.266027 247.127773 174.837022 247.127773 178.56 
C 247.127773 182.282978 248.616532 185.853973 251.266169 188.486516 
C 253.915807 191.119058 257.50999 192.598213 261.257143 192.598213 
z
" clip-path="url(#pd1b3b91500)" style="fill: #0871b7; fill-opacity: 0.752941; stroke: #231f20; stroke-linejoin: miter"/>
   </g>
   <g id="patch_45">
    <path d="M 261.257143 271.798213 
C 265.004296 271.798213 268.598479 270.319058 271.248116 267.686516 
C 273.897753 265.053973 275.386513 261.482978 275.386513 257.76 
C 275.386513 254.037022 273.897753 250.466027 271.248116 247.833484 
C 268.598479 245.200942 265.004296 243.721787 261.257143 243.721787 
C 257.50999 243.721787 253.915807 245.200942 251.266169 247.833484 
C 248.616532 250.466027 247.127773 254.037022 247.127773 257.76 
C 247.127773 261.482978 248.616532 265.053973 251.266169 267.686516 
C 253.915807 270.319058 257.50999 271.798213 261.257143 271.798213 
z
" clip-path="url(#pd1b3b91500)" style="fill: #0871b7; fill-opacity: 0.752941; stroke: #231f20; stroke-linejoin: miter"/>
   </g>
   <g id="patch_46">
    <path d="M 181.542857 192.598213 
C 185.29001 192.598213 188.884193 191.119058 191.533831 188.486516 
C 194.183468 185.853973 195.672227 182.282978 195.672227 178.56 
C 195.672227 174.837022 194.183468 171.266027 191.533831 168.633484 
C 188.884193 166.000942 185.29001 164.521787 181.542857 164.521787 
C 177.795704 164.521787 174.201521 166.000942 171.551884 168.633484 
C 168.902247 171.266027 167.413487 174.837022 167.413487 178.56 
C 167.413487 182.282978 168.902247 185.853973 171.551884 188.486516 
C 174.201521 191.119058 177.795704 192.598213 181.542857 192.598213 
z
" clip-path="url(#pd1b3b91500)" style="fill: #0871b7; fill-opacity: 0.752941; stroke: #231f20; stroke-linejoin: miter"/>
   </g>
   <g id="patch_47">
    <path d="M 261.257143 227.54434 
C 263.76206 227.54434 266.164719 226.555547 267.935963 224.795731 
C 269.707206 223.035914 270.70242 220.648756 270.70242 218.16 
C 270.70242 215.671244 269.707206 213.284086 267.935963 211.524269 
C 266.164719 209.764453 263.76206 208.77566 261.257143 208.77566 
C 258.752226 208.77566 256.349567 209.764453 254.578323 211.524269 
C 252.807079 213.284086 251.811865 215.671244 251.811865 218.16 
C 251.811865 220.648756 252.807079 223.035914 254.578323 224.795731 
C 256.349567 226.555547 258.752226 227.54434 261.257143 227.54434 
z
" clip-path="url(#pd1b3b91500)" style="fill: #b74e08; fill-opacity: 0.752941; stroke: #231f20; stroke-linejoin: miter"/>
   </g>
   <g id="patch_48">
    <path d="M 221.4 187.94434 
C 223.904917 187.94434 226.307576 186.955547 228.07882 185.195731 
C 229.850063 183.435914 230.845277 181.048756 230.845277 178.56 
C 230.845277 176.071244 229.850063 173.684086 228.07882 171.924269 
C 226.307576 170.164453 223.904917 169.17566 221.4 169.17566 
C 218.895083 169.17566 216.492424 170.164453 214.72118 171.924269 
C 212.949937 173.684086 211.954723 176.071244 211.954723 178.56 
C 211.954723 181.048756 212.949937 183.435914 214.72118 185.195731 
C 216.492424 186.955547 218.895083 187.94434 221.4 187.94434 
z
" clip-path="url(#pd1b3b91500)" style="fill: #b74e08; fill-opacity: 0.752941; stroke: #231f20; stroke-linejoin: miter"/>
   </g>
   <g id="patch_49">
    <path d="M 221.4 267.14434 
C 223.904917 267.14434 226.307576 266.155547 228.07882 264.395731 
C 229.850063 262.635914 230.845277 260.248756 230.845277 257.76 
C 230.845277 255.271244 229.850063 252.884086 228.07882 251.124269 
C 226.307576 249.364453 223.904917 248.37566 221.4 248.37566 
C 218.895083 248.37566 216.492424 249.364453 214.72118 251.124269 
C 212.949937 252.884086 211.954723 255.271244 211.954723 257.76 
C 211.954723 260.248756 212.949937 262.635914 214.72118 264.395731 
C 216.492424 266.155547 218.895083 267.14434 221.4 267.14434 
z
" clip-path="url(#pd1b3b91500)" style="fill: #b74e08; fill-opacity: 0.752941; stroke: #231f20; stroke-linejoin: miter"/>
   </g>
   <g id="patch_50">
    <path d="M 181.542857 227.54434 
C 184.047774 227.54434 186.450433 226.555547 188.221677 224.795731 
C 189.992921 223.035914 190.988135 220.648756 190.988135 218.16 
C 190.988135 215.671244 189.992921 213.284086 188.221677 211.524269 
C 186.450433 209.764453 184.047774 208.77566 181.542857 208.77566 
C 179.03794 208.77566 176.635281 209.764453 174.864037 211.524269 
C 173.092794 213.284086 172.09758 215.671244 172.09758 218.16 
C 172.09758 220.648756 173.092794 223.035914 174.864037 224.795731 
C 176.635281 226.555547 179.03794 227.54434 181.542857 227.54434 
z
" clip-path="url(#pd1b3b91500)" style="fill: #b74e08; fill-opacity: 0.752941; stroke: #231f20; stroke-linejoin: miter"/>
   </g>
   <g id="patch_51">
    <path d="M 221.4 224.433294 
C 223.0745 224.433294 224.680643 223.7723 225.864693 222.595889 
C 227.048744 221.419477 227.71403 219.823697 227.71403 218.16 
C 227.71403 216.496303 227.048744 214.900523 225.864693 213.724111 
C 224.680643 212.5477 223.0745 211.886706 221.4 211.886706 
C 219.7255 211.886706 218.119357 212.5477 216.935307 213.724111 
C 215.751256 214.900523 215.08597 216.496303 215.08597 218.16 
C 215.08597 219.823697 215.751256 221.419477 216.935307 222.595889 
C 218.119357 223.7723 219.7255 224.433294 221.4 224.433294 
z
" clip-path="url(#pd1b3b91500)" style="fill: #0871b7; fill-opacity: 0.752941; stroke: #231f20; stroke-linejoin: miter"/>
   </g>
  </g>
 </g>
 <defs>
  <clipPath id="pd1b3b91500">
   <rect x="54" y="51.84" width="334.8" height="332.64"/>
  </clipPath>
 </defs>
</svg>
