<?xml version="1.0" encoding="utf-8" standalone="no"?>
<!DOCTYPE svg PUBLIC "-//W3C//DTD SVG 1.1//EN"
  "http://www.w3.org/Graphics/SVG/1.1/DTD/svg11.dtd">
<svg xmlns:xlink="http://www.w3.org/1999/xlink" width="432pt" height="432pt" viewBox="0 0 432 432" xmlns="http://www.w3.org/2000/svg" version="1.1">
 <metadata>
  <rdf:RDF xmlns:dc="http://purl.org/dc/elements/1.1/" xmlns:cc="http://creativecommons.org/ns#" xmlns:rdf="http://www.w3.org/1999/02/22-rdf-syntax-ns#">
   <cc:Work>
    <dc:type rdf:resource="http://purl.org/dc/dcmitype/StillImage"/>
    <dc:date>2025-03-02T17:55:06.707920</dc:date>
    <dc:format>image/svg+xml</dc:format>
    <dc:creator>
     <cc:Agent>
      <dc:title>Matplotlib v3.10.0, https://matplotlib.org/</dc:title>
     </cc:Agent>
    </dc:creator>
   </cc:Work>
  </rdf:RDF>
 </metadata>
 <defs>
  <style type="text/css">*{stroke-linejoin: round; stroke-linecap: butt}</style>
 </defs>
 <g id="figure_1">
  <g id="patch_1">
   <path d="M 0 432 
L 432 432 
L 432 0 
L 0 0 
z
" style="fill: #ffffff"/>
  </g>
  <g id="axes_1">
   <g id="patch_2">
    <path d="M 81.9 356.76 
L 360.9 356.76 
L 360.9 79.56 
L 81.9 79.56 
L 81.9 356.76 
z
" clip-path="url(#p893ee72239)" style="fill: none; stroke: #969696; stroke-width: 1.5; stroke-linejoin: miter"/>
   </g>
   <g id="patch_3">
    <path d="M 97.4 346.388679 
C 98.742281 346.388679 100.029767 345.858826 100.978903 344.915813 
C 101.928039 343.9728 102.461333 342.693621 102.461333 341.36 
C 102.461333 340.026379 101.928039 338.7472 100.978903 337.804187 
C 100.029767 336.861174 98.742281 336.331321 97.4 336.331321 
C 96.057719 336.331321 94.770233 336.861174 93.821097 337.804187 
C 92.871961 338.7472 92.338667 340.026379 92.338667 341.36 
C 92.338667 342.693621 92.871961 343.9728 93.821097 344.915813 
C 94.770233 345.858826 96.057719 346.388679 97.4 346.388679 
z
" clip-path="url(#p893ee72239)" style="fill: #0871b7; fill-opacity: 0.752941; stroke: #231f20; stroke-linejoin: miter"/>
   </g>
   <g id="patch_4">
    <path d="M 345.4 346.388679 
C 346.742281 346.388679 348.029767 345.858826 348.978903 344.915813 
C 349.928039 343.9728 350.461333 342.693621 350.461333 341.36 
C 350.461333 340.026379 349.928039 338.7472 348.978903 337.804187 
C 348.029767 336.861174 346.742281 336.331321 345.4 336.331321 
C 344.057719 336.331321 342.770233 336.861174 341.821097 337.804187 
C 340.871961 338.7472 340.338667 340.026379 340.338667 341.36 
C 340.338667 342.693621 340.871961 343.9728 341.821097 344.915813 
C 342.770233 345.858826 344.057719 346.388679 345.4 346.388679 
z
" clip-path="url(#p893ee72239)" style="fill: #0871b7; fill-opacity: 0.752941; stroke: #231f20; stroke-linejoin: miter"/>
   </g>
   <g id="patch_5">
    <path d="M 97.4 99.988679 
C 98.742281 99.988679 100.029767 99.458826 100.978903 98.515813 
C 101.928039 97.5728 102.461333 96.293621 102.461333 94.96 
C 102.461333 93.626379 101.928039 92.3472 100.978903 91.404187 
C 100.029767 90.461174 98.742281 89.931321 97.4 89.931321 
C 96.057719 89.931321 94.770233 90.461174 93.821097 91.404187 
C 92.871961 92.3472 92.338667 93.626379 92.338667 94.96 
C 92.338667 96.293621 92.871961 97.5728 93.821097 98.515813 
C 94.770233 99.458826 96.057719 99.988679 97.4 99.988679 
z
" clip-path="url(#p893ee72239)" style="fill: #0871b7; fill-opacity: 0.752941; stroke: #231f20; stroke-linejoin: miter"/>
   </g>
   <g id="patch_6">
    <path d="M 345.4 99.988679 
C 346.742281 99.988679 348.029767 99.458826 348.978903 98.515813 
C 349.928039 97.5728 350.461333 96.293621 350.461333 94.96 
C 350.461333 93.626379 349.928039 92.3472 348.978903 91.404187 
C 348.029767 90.461174 346.742281 89.931321 345.4 89.931321 
C 344.057719 89.931321 342.770233 90.461174 341.821097 91.404187 
C 340.871961 92.3472 340.338667 93.626379 340.338667 94.96 
C 340.338667 96.293621 340.871961 97.5728 341.821097 98.515813 
C 342.770233 99.458826 344.057719 99.988679 345.4 99.988679 
z
" clip-path="url(#p893ee72239)" style="fill: #0871b7; fill-opacity: 0.752941; stroke: #231f20; stroke-linejoin: miter"/>
   </g>
   <g id="patch_7">
    <path d="M 128.4 344.175108 
C 129.151423 344.175108 129.872171 343.87849 130.403508 343.350582 
C 130.934844 342.822673 131.233388 342.106575 131.233388 341.36 
C 131.233388 340.613425 130.934844 339.897327 130.403508 339.369418 
C 129.872171 338.84151 129.151423 338.544892 128.4 338.544892 
C 127.648577 338.544892 126.927829 338.84151 126.396492 339.369418 
C 125.865156 339.897327 125.566612 340.613425 125.566612 341.36 
C 125.566612 342.106575 125.865156 342.822673 126.396492 343.350582 
C 126.927829 343.87849 127.648577 344.175108 128.4 344.175108 
z
" clip-path="url(#p893ee72239)" style="fill: #b74e08; fill-opacity: 0.752941; stroke: #231f20; stroke-linejoin: miter"/>
   </g>
   <g id="patch_8">
    <path d="M 314.4 344.175108 
C 315.151423 344.175108 315.872171 343.87849 316.403508 343.350582 
C 316.934844 342.822673 317.233388 342.106575 317.233388 341.36 
C 317.233388 340.613425 316.934844 339.897327 316.403508 339.369418 
C 315.872171 338.84151 315.151423 338.544892 314.4 338.544892 
C 313.648577 338.544892 312.927829 338.84151 312.396492 339.369418 
C 311.865156 339.897327 311.566612 340.613425 311.566612 341.36 
C 311.566612 342.106575 311.865156 342.822673 312.396492 343.350582 
C 312.927829 343.87849 313.648577 344.175108 314.4 344.175108 
z
" clip-path="url(#p893ee72239)" style="fill: #b74e08; fill-opacity: 0.752941; stroke: #231f20; stroke-linejoin: miter"/>
   </g>
   <g id="patch_9">
    <path d="M 97.4 313.375108 
C 98.151423 313.375108 98.872171 313.07849 99.403508 312.550582 
C 99.934844 312.022673 100.233388 311.306575 100.233388 310.56 
C 100.233388 309.813425 99.934844 309.097327 99.403508 308.569418 
C 98.872171 308.04151 98.151423 307.744892 97.4 307.744892 
C 96.648577 307.744892 95.927829 308.04151 95.396492 308.569418 
C 94.865156 309.097327 94.566612 309.813425 94.566612 310.56 
C 94.566612 311.306575 94.865156 312.022673 95.396492 312.550582 
C 95.927829 313.07849 96.648577 313.375108 97.4 313.375108 
z
" clip-path="url(#p893ee72239)" style="fill: #b74e08; fill-opacity: 0.752941; stroke: #231f20; stroke-linejoin: miter"/>
   </g>
   <g id="patch_10">
    <path d="M 345.4 313.375108 
C 346.151423 313.375108 346.872171 313.07849 347.403508 312.550582 
C 347.934844 312.022673 348.233388 311.306575 348.233388 310.56 
C 348.233388 309.813425 347.934844 309.097327 347.403508 308.569418 
C 346.872171 308.04151 346.151423 307.744892 345.4 307.744892 
C 344.648577 307.744892 343.927829 308.04151 343.396492 308.569418 
C 342.865156 309.097327 342.566612 309.813425 342.566612 310.56 
C 342.566612 311.306575 342.865156 312.022673 343.396492 312.550582 
C 343.927829 313.07849 344.648577 313.375108 345.4 313.375108 
z
" clip-path="url(#p893ee72239)" style="fill: #b74e08; fill-opacity: 0.752941; stroke: #231f20; stroke-linejoin: miter"/>
   </g>
   <g id="patch_11">
    <path d="M 97.4 128.575108 
C 98.151423 128.575108 98.872171 128.27849 99.403508 127.750582 
C 99.934844 127.222673 100.233388 126.506575 100.233388 125.76 
C 100.233388 125.013425 99.934844 124.297327 99.403508 123.769418 
C 98.872171 123.24151 98.151423 122.944892 97.4 122.944892 
C 96.648577 122.944892 95.927829 123.24151 95.396492 123.769418 
C 94.865156 124.297327 94.566612 125.013425 94.566612 125.76 
C 94.566612 126.506575 94.865156 127.222673 95.396492 127.750582 
C 95.927829 128.27849 96.648577 128.575108 97.4 128.575108 
z
" clip-path="url(#p893ee72239)" style="fill: #b74e08; fill-opacity: 0.752941; stroke: #231f20; stroke-linejoin: miter"/>
   </g>
   <g id="patch_12">
    <path d="M 345.4 128.575108 
C 346.151423 128.575108 346.872171 128.27849 347.403508 127.750582 
C 347.934844 127.222673 348.233388 126.506575 348.233388 125.76 
C 348.233388 125.013425 347.934844 124.297327 347.403508 123.769418 
C 346.872171 123.24151 346.151423 122.944892 345.4 122.944892 
C 344.648577 122.944892 343.927829 123.24151 343.396492 123.769418 
C 342.865156 124.297327 342.566612 125.013425 342.566612 125.76 
C 342.566612 126.506575 342.865156 127.222673 343.396492 127.750582 
C 343.927829 128.27849 344.648577 128.575108 345.4 128.575108 
z
" clip-path="url(#p893ee72239)" style="fill: #b74e08; fill-opacity: 0.752941; stroke: #231f20; stroke-linejoin: miter"/>
   </g>
   <g id="patch_13">
    <path d="M 128.4 97.775108 
C 129.151423 97.775108 129.872171 97.47849 130.403508 96.950582 
C 130.934844 96.422673 131.233388 95.706575 131.233388 94.96 
C 131.233388 94.213425 130.934844 93.497327 130.403508 92.969418 
C 129.872171 92.44151 129.151423 92.144892 128.4 92.144892 
C 127.648577 92.144892 126.927829 92.44151 126.396492 92.969418 
C 125.865156 93.497327 125.566612 94.213425 125.566612 94.96 
C 125.566612 95.706575 125.865156 96.422673 126.396492 96.950582 
C 126.927829 97.47849 127.648577 97.775108 128.4 97.775108 
z
" clip-path="url(#p893ee72239)" style="fill: #b74e08; fill-opacity: 0.752941; stroke: #231f20; stroke-linejoin: miter"/>
   </g>
   <g id="patch_14">
    <path d="M 314.4 97.775108 
C 315.151423 97.775108 315.872171 97.47849 316.403508 96.950582 
C 316.934844 96.422673 317.233388 95.706575 317.233388 94.96 
C 317.233388 94.213425 316.934844 93.497327 316.403508 92.969418 
C 315.872171 92.44151 315.151423 92.144892 314.4 92.144892 
C 313.648577 92.144892 312.927829 92.44151 312.396492 92.969418 
C 311.865156 93.497327 311.566612 94.213425 311.566612 94.96 
C 311.566612 95.706575 311.865156 96.422673 312.396492 96.950582 
C 312.927829 97.47849 313.648577 97.775108 314.4 97.775108 
z
" clip-path="url(#p893ee72239)" style="fill: #b74e08; fill-opacity: 0.752941; stroke: #231f20; stroke-linejoin: miter"/>
   </g>
   <g id="patch_15">
    <path d="M 159.4 350.75224 
C 161.907026 350.75224 164.311707 349.762614 166.084442 348.001317 
C 167.857177 346.240019 168.853229 343.850851 168.853229 341.36 
C 168.853229 338.869149 167.857177 336.479981 166.084442 334.718683 
C 164.311707 332.957386 161.907026 331.96776 159.4 331.96776 
C 156.892974 331.96776 154.488293 332.957386 152.715558 334.718683 
C 150.942823 336.479981 149.946771 338.869149 149.946771 341.36 
C 149.946771 343.850851 150.942823 346.240019 152.715558 348.001317 
C 154.488293 349.762614 156.892974 350.75224 159.4 350.75224 
z
" clip-path="url(#p893ee72239)" style="fill: #0871b7; fill-opacity: 0.752941; stroke: #231f20; stroke-linejoin: miter"/>
   </g>
   <g id="patch_16">
    <path d="M 97.4 289.15224 
C 99.907026 289.15224 102.311707 288.162614 104.084442 286.401317 
C 105.857177 284.640019 106.853229 282.250851 106.853229 279.76 
C 106.853229 277.269149 105.857177 274.879981 104.084442 273.118683 
C 102.311707 271.357386 99.907026 270.36776 97.4 270.36776 
C 94.892974 270.36776 92.488293 271.357386 90.715558 273.118683 
C 88.942823 274.879981 87.946771 277.269149 87.946771 279.76 
C 87.946771 282.250851 88.942823 284.640019 90.715558 286.401317 
C 92.488293 288.162614 94.892974 289.15224 97.4 289.15224 
z
" clip-path="url(#p893ee72239)" style="fill: #0871b7; fill-opacity: 0.752941; stroke: #231f20; stroke-linejoin: miter"/>
   </g>
   <g id="patch_17">
    <path d="M 345.4 289.15224 
C 347.907026 289.15224 350.311707 288.162614 352.084442 286.401317 
C 353.857177 284.640019 354.853229 282.250851 354.853229 279.76 
C 354.853229 277.269149 353.857177 274.879981 352.084442 273.118683 
C 350.311707 271.357386 347.907026 270.36776 345.4 270.36776 
C 342.892974 270.36776 340.488293 271.357386 338.715558 273.118683 
C 336.942823 274.879981 335.946771 277.269149 335.946771 279.76 
C 335.946771 282.250851 336.942823 284.640019 338.715558 286.401317 
C 340.488293 288.162614 342.892974 289.15224 345.4 289.15224 
z
" clip-path="url(#p893ee72239)" style="fill: #0871b7; fill-opacity: 0.752941; stroke: #231f20; stroke-linejoin: miter"/>
   </g>
   <g id="patch_18">
    <path d="M 345.4 165.95224 
C 347.907026 165.95224 350.311707 164.962614 352.084442 163.201317 
C 353.857177 161.440019 354.853229 159.050851 354.853229 156.56 
C 354.853229 154.069149 353.857177 151.679981 352.084442 149.918683 
C 350.311707 148.157386 347.907026 147.16776 345.4 147.16776 
C 342.892974 147.16776 340.488293 148.157386 338.715558 149.918683 
C 336.942823 151.679981 335.946771 154.069149 335.946771 156.56 
C 335.946771 159.050851 336.942823 161.440019 338.715558 163.201317 
C 340.488293 164.962614 342.892974 165.95224 345.4 165.95224 
z
" clip-path="url(#p893ee72239)" style="fill: #0871b7; fill-opacity: 0.752941; stroke: #231f20; stroke-linejoin: miter"/>
   </g>
   <g id="patch_19">
    <path d="M 159.4 104.35224 
C 161.907026 104.35224 164.311707 103.362614 166.084442 101.601317 
C 167.857177 99.840019 168.853229 97.450851 168.853229 94.96 
C 168.853229 92.469149 167.857177 90.079981 166.084442 88.318683 
C 164.311707 86.557386 161.907026 85.56776 159.4 85.56776 
C 156.892974 85.56776 154.488293 86.557386 152.715558 88.318683 
C 150.942823 90.079981 149.946771 92.469149 149.946771 94.96 
C 149.946771 97.450851 150.942823 99.840019 152.715558 101.601317 
C 154.488293 103.362614 156.892974 104.35224 159.4 104.35224 
z
" clip-path="url(#p893ee72239)" style="fill: #0871b7; fill-opacity: 0.752941; stroke: #231f20; stroke-linejoin: miter"/>
   </g>
   <g id="patch_20">
    <path d="M 283.4 104.35224 
C 285.907026 104.35224 288.311707 103.362614 290.084442 101.601317 
C 291.857177 99.840019 292.853229 97.450851 292.853229 94.96 
C 292.853229 92.469149 291.857177 90.079981 290.084442 88.318683 
C 288.311707 86.557386 285.907026 85.56776 283.4 85.56776 
C 280.892974 85.56776 278.488293 86.557386 276.715558 88.318683 
C 274.942823 90.079981 273.946771 92.469149 273.946771 94.96 
C 273.946771 97.450851 274.942823 99.840019 276.715558 101.601317 
C 278.488293 103.362614 280.892974 104.35224 283.4 104.35224 
z
" clip-path="url(#p893ee72239)" style="fill: #0871b7; fill-opacity: 0.752941; stroke: #231f20; stroke-linejoin: miter"/>
   </g>
   <g id="patch_21">
    <path d="M 283.4 350.75224 
C 285.907026 350.75224 288.311707 349.762614 290.084442 348.001317 
C 291.857177 346.240019 292.853229 343.850851 292.853229 341.36 
C 292.853229 338.869149 291.857177 336.479981 290.084442 334.718683 
C 288.311707 332.957386 285.907026 331.96776 283.4 331.96776 
C 280.892974 331.96776 278.488293 332.957386 276.715558 334.718683 
C 274.942823 336.479981 273.946771 338.869149 273.946771 341.36 
C 273.946771 343.850851 274.942823 346.240019 276.715558 348.001317 
C 278.488293 349.762614 280.892974 350.75224 283.4 350.75224 
z
" clip-path="url(#p893ee72239)" style="fill: #0871b7; fill-opacity: 0.752941; stroke: #231f20; stroke-linejoin: miter"/>
   </g>
   <g id="patch_22">
    <path d="M 97.4 165.95224 
C 99.907026 165.95224 102.311707 164.962614 104.084442 163.201317 
C 105.857177 161.440019 106.853229 159.050851 106.853229 156.56 
C 106.853229 154.069149 105.857177 151.679981 104.084442 149.918683 
C 102.311707 148.157386 99.907026 147.16776 97.4 147.16776 
C 94.892974 147.16776 92.488293 148.157386 90.715558 149.918683 
C 88.942823 151.679981 87.946771 154.069149 87.946771 156.56 
C 87.946771 159.050851 88.942823 161.440019 90.715558 163.201317 
C 92.488293 164.962614 94.892974 165.95224 97.4 165.95224 
z
" clip-path="url(#p893ee72239)" style="fill: #0871b7; fill-opacity: 0.752941; stroke: #231f20; stroke-linejoin: miter"/>
   </g>
   <g id="patch_23">
    <path d="M 314.4 312.135927 
C 314.820655 312.135927 315.224137 311.969878 315.521585 311.674349 
C 315.819033 311.37882 315.986161 310.977941 315.986161 310.56 
C 315.986161 310.142059 315.819033 309.74118 315.521585 309.445651 
C 315.224137 309.150122 314.820655 308.984073 314.4 308.984073 
C 313.979345 308.984073 313.575863 309.150122 313.278415 309.445651 
C 312.980967 309.74118 312.813839 310.142059 312.813839 310.56 
C 312.813839 310.977941 312.980967 311.37882 313.278415 311.674349 
C 313.575863 311.969878 313.979345 312.135927 314.4 312.135927 
z
" clip-path="url(#p893ee72239)" style="fill: #0871b7; fill-opacity: 0.752941; stroke: #231f20; stroke-linejoin: miter"/>
   </g>
   <g id="patch_24">
    <path d="M 128.4 127.335927 
C 128.820655 127.335927 129.224137 127.169878 129.521585 126.874349 
C 129.819033 126.57882 129.986161 126.177941 129.986161 125.76 
C 129.986161 125.342059 129.819033 124.94118 129.521585 124.645651 
C 129.224137 124.350122 128.820655 124.184073 128.4 124.184073 
C 127.979345 124.184073 127.575863 124.350122 127.278415 124.645651 
C 126.980967 124.94118 126.813839 125.342059 126.813839 125.76 
C 126.813839 126.177941 126.980967 126.57882 127.278415 126.874349 
C 127.575863 127.169878 127.979345 127.335927 128.4 127.335927 
z
" clip-path="url(#p893ee72239)" style="fill: #0871b7; fill-opacity: 0.752941; stroke: #231f20; stroke-linejoin: miter"/>
   </g>
   <g id="patch_25">
    <path d="M 314.4 127.335927 
C 314.820655 127.335927 315.224137 127.169878 315.521585 126.874349 
C 315.819033 126.57882 315.986161 126.177941 315.986161 125.76 
C 315.986161 125.342059 315.819033 124.94118 315.521585 124.645651 
C 315.224137 124.350122 314.820655 124.184073 314.4 124.184073 
C 313.979345 124.184073 313.575863 124.350122 313.278415 124.645651 
C 312.980967 124.94118 312.813839 125.342059 312.813839 125.76 
C 312.813839 126.177941 312.980967 126.57882 313.278415 126.874349 
C 313.575863 127.169878 313.979345 127.335927 314.4 127.335927 
z
" clip-path="url(#p893ee72239)" style="fill: #0871b7; fill-opacity: 0.752941; stroke: #231f20; stroke-linejoin: miter"/>
   </g>
   <g id="patch_26">
    <path d="M 128.4 312.135927 
C 128.820655 312.135927 129.224137 311.969878 129.521585 311.674349 
C 129.819033 311.37882 129.986161 310.977941 129.986161 310.56 
C 129.986161 310.142059 129.819033 309.74118 129.521585 309.445651 
C 129.224137 309.150122 128.820655 308.984073 128.4 308.984073 
C 127.979345 308.984073 127.575863 309.150122 127.278415 309.445651 
C 126.980967 309.74118 126.813839 310.142059 126.813839 310.56 
C 126.813839 310.977941 126.980967 311.37882 127.278415 311.674349 
C 127.575863 311.969878 127.979345 312.135927 128.4 312.135927 
z
" clip-path="url(#p893ee72239)" style="fill: #0871b7; fill-opacity: 0.752941; stroke: #231f20; stroke-linejoin: miter"/>
   </g>
   <g id="patch_27">
    <path d="M 190.4 351.262647 
C 193.043266 351.262647 195.578627 350.219242 197.447698 348.362229 
C 199.316769 346.505216 200.36695 343.986213 200.36695 341.36 
C 200.36695 338.733787 199.316769 336.214784 197.447698 334.357771 
C 195.578627 332.500758 193.043266 331.457353 190.4 331.457353 
C 187.756734 331.457353 185.221373 332.500758 183.352302 334.357771 
C 181.483231 336.214784 180.43305 338.733787 180.43305 341.36 
C 180.43305 343.986213 181.483231 346.505216 183.352302 348.362229 
C 185.221373 350.219242 187.756734 351.262647 190.4 351.262647 
z
" clip-path="url(#p893ee72239)" style="fill: #b74e08; fill-opacity: 0.752941; stroke: #231f20; stroke-linejoin: miter"/>
   </g>
   <g id="patch_28">
    <path d="M 252.4 351.262647 
C 255.043266 351.262647 257.578627 350.219242 259.447698 348.362229 
C 261.316769 346.505216 262.36695 343.986213 262.36695 341.36 
C 262.36695 338.733787 261.316769 336.214784 259.447698 334.357771 
C 257.578627 332.500758 255.043266 331.457353 252.4 331.457353 
C 249.756734 331.457353 247.221373 332.500758 245.352302 334.357771 
C 243.483231 336.214784 242.43305 338.733787 242.43305 341.36 
C 242.43305 343.986213 243.483231 346.505216 245.352302 348.362229 
C 247.221373 350.219242 249.756734 351.262647 252.4 351.262647 
z
" clip-path="url(#p893ee72239)" style="fill: #b74e08; fill-opacity: 0.752941; stroke: #231f20; stroke-linejoin: miter"/>
   </g>
   <g id="patch_29">
    <path d="M 97.4 258.862647 
C 100.043266 258.862647 102.578627 257.819242 104.447698 255.962229 
C 106.316769 254.105216 107.36695 251.586213 107.36695 248.96 
C 107.36695 246.333787 106.316769 243.814784 104.447698 241.957771 
C 102.578627 240.100758 100.043266 239.057353 97.4 239.057353 
C 94.756734 239.057353 92.221373 240.100758 90.352302 241.957771 
C 88.483231 243.814784 87.43305 246.333787 87.43305 248.96 
C 87.43305 251.586213 88.483231 254.105216 90.352302 255.962229 
C 92.221373 257.819242 94.756734 258.862647 97.4 258.862647 
z
" clip-path="url(#p893ee72239)" style="fill: #b74e08; fill-opacity: 0.752941; stroke: #231f20; stroke-linejoin: miter"/>
   </g>
   <g id="patch_30">
    <path d="M 345.4 258.862647 
C 348.043266 258.862647 350.578627 257.819242 352.447698 255.962229 
C 354.316769 254.105216 355.36695 251.586213 355.36695 248.96 
C 355.36695 246.333787 354.316769 243.814784 352.447698 241.957771 
C 350.578627 240.100758 348.043266 239.057353 345.4 239.057353 
C 342.756734 239.057353 340.221373 240.100758 338.352302 241.957771 
C 336.483231 243.814784 335.43305 246.333787 335.43305 248.96 
C 335.43305 251.586213 336.483231 254.105216 338.352302 255.962229 
C 340.221373 257.819242 342.756734 258.862647 345.4 258.862647 
z
" clip-path="url(#p893ee72239)" style="fill: #b74e08; fill-opacity: 0.752941; stroke: #231f20; stroke-linejoin: miter"/>
   </g>
   <g id="patch_31">
    <path d="M 97.4 197.262647 
C 100.043266 197.262647 102.578627 196.219242 104.447698 194.362229 
C 106.316769 192.505216 107.36695 189.986213 107.36695 187.36 
C 107.36695 184.733787 106.316769 182.214784 104.447698 180.357771 
C 102.578627 178.500758 100.043266 177.457353 97.4 177.457353 
C 94.756734 177.457353 92.221373 178.500758 90.352302 180.357771 
C 88.483231 182.214784 87.43305 184.733787 87.43305 187.36 
C 87.43305 189.986213 88.483231 192.505216 90.352302 194.362229 
C 92.221373 196.219242 94.756734 197.262647 97.4 197.262647 
z
" clip-path="url(#p893ee72239)" style="fill: #b74e08; fill-opacity: 0.752941; stroke: #231f20; stroke-linejoin: miter"/>
   </g>
   <g id="patch_32">
    <path d="M 345.4 197.262647 
C 348.043266 197.262647 350.578627 196.219242 352.447698 194.362229 
C 354.316769 192.505216 355.36695 189.986213 355.36695 187.36 
C 355.36695 184.733787 354.316769 182.214784 352.447698 180.357771 
C 350.578627 178.500758 348.043266 177.457353 345.4 177.457353 
C 342.756734 177.457353 340.221373 178.500758 338.352302 180.357771 
C 336.483231 182.214784 335.43305 184.733787 335.43305 187.36 
C 335.43305 189.986213 336.483231 192.505216 338.352302 194.362229 
C 340.221373 196.219242 342.756734 197.262647 345.4 197.262647 
z
" clip-path="url(#p893ee72239)" style="fill: #b74e08; fill-opacity: 0.752941; stroke: #231f20; stroke-linejoin: miter"/>
   </g>
   <g id="patch_33">
    <path d="M 190.4 104.862647 
C 193.043266 104.862647 195.578627 103.819242 197.447698 101.962229 
C 199.316769 100.105216 200.36695 97.586213 200.36695 94.96 
C 200.36695 92.333787 199.316769 89.814784 197.447698 87.957771 
C 195.578627 86.100758 193.043266 85.057353 190.4 85.057353 
C 187.756734 85.057353 185.221373 86.100758 183.352302 87.957771 
C 181.483231 89.814784 180.43305 92.333787 180.43305 94.96 
C 180.43305 97.586213 181.483231 100.105216 183.352302 101.962229 
C 185.221373 103.819242 187.756734 104.862647 190.4 104.862647 
z
" clip-path="url(#p893ee72239)" style="fill: #b74e08; fill-opacity: 0.752941; stroke: #231f20; stroke-linejoin: miter"/>
   </g>
   <g id="patch_34">
    <path d="M 252.4 104.862647 
C 255.043266 104.862647 257.578627 103.819242 259.447698 101.962229 
C 261.316769 100.105216 262.36695 97.586213 262.36695 94.96 
C 262.36695 92.333787 261.316769 89.814784 259.447698 87.957771 
C 257.578627 86.100758 255.043266 85.057353 252.4 85.057353 
C 249.756734 85.057353 247.221373 86.100758 245.352302 87.957771 
C 243.483231 89.814784 242.43305 92.333787 242.43305 94.96 
C 242.43305 97.586213 243.483231 100.105216 245.352302 101.962229 
C 247.221373 103.819242 249.756734 104.862647 252.4 104.862647 
z
" clip-path="url(#p893ee72239)" style="fill: #b74e08; fill-opacity: 0.752941; stroke: #231f20; stroke-linejoin: miter"/>
   </g>
   <g id="patch_35">
    <path d="M 221.4 353.978029 
C 224.76807 353.978029 227.998646 352.648514 230.380231 350.282294 
C 232.761816 347.916074 234.099965 344.70634 234.099965 341.36 
C 234.099965 338.01366 232.761816 334.803926 230.380231 332.437706 
C 227.998646 330.071486 224.76807 328.741971 221.4 328.741971 
C 218.03193 328.741971 214.801354 330.071486 212.419769 332.437706 
C 210.038184 334.803926 208.700035 338.01366 208.700035 341.36 
C 208.700035 344.70634 210.038184 347.916074 212.419769 350.282294 
C 214.801354 352.648514 218.03193 353.978029 221.4 353.978029 
z
" clip-path="url(#p893ee72239)" style="fill: #0871b7; fill-opacity: 0.752941; stroke: #231f20; stroke-linejoin: miter"/>
   </g>
   <g id="patch_36">
    <path d="M 97.4 230.778029 
C 100.76807 230.778029 103.998646 229.448514 106.380231 227.082294 
C 108.761816 224.716074 110.099965 221.50634 110.099965 218.16 
C 110.099965 214.81366 108.761816 211.603926 106.380231 209.237706 
C 103.998646 206.871486 100.76807 205.541971 97.4 205.541971 
C 94.03193 205.541971 90.801354 206.871486 88.419769 209.237706 
C 86.038184 211.603926 84.700035 214.81366 84.700035 218.16 
C 84.700035 221.50634 86.038184 224.716074 88.419769 227.082294 
C 90.801354 229.448514 94.03193 230.778029 97.4 230.778029 
z
" clip-path="url(#p893ee72239)" style="fill: #0871b7; fill-opacity: 0.752941; stroke: #231f20; stroke-linejoin: miter"/>
   </g>
   <g id="patch_37">
    <path d="M 345.4 230.778029 
C 348.76807 230.778029 351.998646 229.448514 354.380231 227.082294 
C 356.761816 224.716074 358.099965 221.50634 358.099965 218.16 
C 358.099965 214.81366 356.761816 211.603926 354.380231 209.237706 
C 351.998646 206.871486 348.76807 205.541971 345.4 205.541971 
C 342.03193 205.541971 338.801354 206.871486 336.419769 209.237706 
C 334.038184 211.603926 332.700035 214.81366 332.700035 218.16 
C 332.700035 221.50634 334.038184 224.716074 336.419769 227.082294 
C 338.801354 229.448514 342.03193 230.778029 345.4 230.778029 
z
" clip-path="url(#p893ee72239)" style="fill: #0871b7; fill-opacity: 0.752941; stroke: #231f20; stroke-linejoin: miter"/>
   </g>
   <g id="patch_38">
    <path d="M 221.4 107.578029 
C 224.76807 107.578029 227.998646 106.248514 230.380231 103.882294 
C 232.761816 101.516074 234.099965 98.30634 234.099965 94.96 
C 234.099965 91.61366 232.761816 88.403926 230.380231 86.037706 
C 227.998646 83.671486 224.76807 82.341971 221.4 82.341971 
C 218.03193 82.341971 214.801354 83.671486 212.419769 86.037706 
C 210.038184 88.403926 208.700035 91.61366 208.700035 94.96 
C 208.700035 98.30634 210.038184 101.516074 212.419769 103.882294 
C 214.801354 106.248514 218.03193 107.578029 221.4 107.578029 
z
" clip-path="url(#p893ee72239)" style="fill: #0871b7; fill-opacity: 0.752941; stroke: #231f20; stroke-linejoin: miter"/>
   </g>
   <g id="patch_39">
    <path d="M 159.4 315.817875 
C 160.803459 315.817875 162.149626 315.263873 163.142021 314.277879 
C 164.134417 313.291886 164.692018 311.954405 164.692018 310.56 
C 164.692018 309.165595 164.134417 307.828114 163.142021 306.842121 
C 162.149626 305.856127 160.803459 305.302125 159.4 305.302125 
C 157.996541 305.302125 156.650374 305.856127 155.657979 306.842121 
C 154.665583 307.828114 154.107982 309.165595 154.107982 310.56 
C 154.107982 311.954405 154.665583 313.291886 155.657979 314.277879 
C 156.650374 315.263873 157.996541 315.817875 159.4 315.817875 
z
" clip-path="url(#p893ee72239)" style="fill: #b74e08; fill-opacity: 0.752941; stroke: #231f20; stroke-linejoin: miter"/>
   </g>
   <g id="patch_40">
    <path d="M 283.4 315.817875 
C 284.803459 315.817875 286.149626 315.263873 287.142021 314.277879 
C 288.134417 313.291886 288.692018 311.954405 288.692018 310.56 
C 288.692018 309.165595 288.134417 307.828114 287.142021 306.842121 
C 286.149626 305.856127 284.803459 305.302125 283.4 305.302125 
C 281.996541 305.302125 280.650374 305.856127 279.657979 306.842121 
C 278.665583 307.828114 278.107982 309.165595 278.107982 310.56 
C 278.107982 311.954405 278.665583 313.291886 279.657979 314.277879 
C 280.650374 315.263873 281.996541 315.817875 283.4 315.817875 
z
" clip-path="url(#p893ee72239)" style="fill: #b74e08; fill-opacity: 0.752941; stroke: #231f20; stroke-linejoin: miter"/>
   </g>
   <g id="patch_41">
    <path d="M 128.4 285.017875 
C 129.803459 285.017875 131.149626 284.463873 132.142021 283.477879 
C 133.134417 282.491886 133.692018 281.154405 133.692018 279.76 
C 133.692018 278.365595 133.134417 277.028114 132.142021 276.042121 
C 131.149626 275.056127 129.803459 274.502125 128.4 274.502125 
C 126.996541 274.502125 125.650374 275.056127 124.657979 276.042121 
C 123.665583 277.028114 123.107982 278.365595 123.107982 279.76 
C 123.107982 281.154405 123.665583 282.491886 124.657979 283.477879 
C 125.650374 284.463873 126.996541 285.017875 128.4 285.017875 
z
" clip-path="url(#p893ee72239)" style="fill: #b74e08; fill-opacity: 0.752941; stroke: #231f20; stroke-linejoin: miter"/>
   </g>
   <g id="patch_42">
    <path d="M 314.4 285.017875 
C 315.803459 285.017875 317.149626 284.463873 318.142021 283.477879 
C 319.134417 282.491886 319.692018 281.154405 319.692018 279.76 
C 319.692018 278.365595 319.134417 277.028114 318.142021 276.042121 
C 317.149626 275.056127 315.803459 274.502125 314.4 274.502125 
C 312.996541 274.502125 311.650374 275.056127 310.657979 276.042121 
C 309.665583 277.028114 309.107982 278.365595 309.107982 279.76 
C 309.107982 281.154405 309.665583 282.491886 310.657979 283.477879 
C 311.650374 284.463873 312.996541 285.017875 314.4 285.017875 
z
" clip-path="url(#p893ee72239)" style="fill: #b74e08; fill-opacity: 0.752941; stroke: #231f20; stroke-linejoin: miter"/>
   </g>
   <g id="patch_43">
    <path d="M 128.4 161.817875 
C 129.803459 161.817875 131.149626 161.263873 132.142021 160.277879 
C 133.134417 159.291886 133.692018 157.954405 133.692018 156.56 
C 133.692018 155.165595 133.134417 153.828114 132.142021 152.842121 
C 131.149626 151.856127 129.803459 151.302125 128.4 151.302125 
C 126.996541 151.302125 125.650374 151.856127 124.657979 152.842121 
C 123.665583 153.828114 123.107982 155.165595 123.107982 156.56 
C 123.107982 157.954405 123.665583 159.291886 124.657979 160.277879 
C 125.650374 161.263873 126.996541 161.817875 128.4 161.817875 
z
" clip-path="url(#p893ee72239)" style="fill: #b74e08; fill-opacity: 0.752941; stroke: #231f20; stroke-linejoin: miter"/>
   </g>
   <g id="patch_44">
    <path d="M 314.4 161.817875 
C 315.803459 161.817875 317.149626 161.263873 318.142021 160.277879 
C 319.134417 159.291886 319.692018 157.954405 319.692018 156.56 
C 319.692018 155.165595 319.134417 153.828114 318.142021 152.842121 
C 317.149626 151.856127 315.803459 151.302125 314.4 151.302125 
C 312.996541 151.302125 311.650374 151.856127 310.657979 152.842121 
C 309.665583 153.828114 309.107982 155.165595 309.107982 156.56 
C 309.107982 157.954405 309.665583 159.291886 310.657979 160.277879 
C 311.650374 161.263873 312.996541 161.817875 314.4 161.817875 
z
" clip-path="url(#p893ee72239)" style="fill: #b74e08; fill-opacity: 0.752941; stroke: #231f20; stroke-linejoin: miter"/>
   </g>
   <g id="patch_45">
    <path d="M 159.4 131.017875 
C 160.803459 131.017875 162.149626 130.463873 163.142021 129.477879 
C 164.134417 128.491886 164.692018 127.154405 164.692018 125.76 
C 164.692018 124.365595 164.134417 123.028114 163.142021 122.042121 
C 162.149626 121.056127 160.803459 120.502125 159.4 120.502125 
C 157.996541 120.502125 156.650374 121.056127 155.657979 122.042121 
C 154.665583 123.028114 154.107982 124.365595 154.107982 125.76 
C 154.107982 127.154405 154.665583 128.491886 155.657979 129.477879 
C 156.650374 130.463873 157.996541 131.017875 159.4 131.017875 
z
" clip-path="url(#p893ee72239)" style="fill: #b74e08; fill-opacity: 0.752941; stroke: #231f20; stroke-linejoin: miter"/>
   </g>
   <g id="patch_46">
    <path d="M 283.4 131.017875 
C 284.803459 131.017875 286.149626 130.463873 287.142021 129.477879 
C 288.134417 128.491886 288.692018 127.154405 288.692018 125.76 
C 288.692018 124.365595 288.134417 123.028114 287.142021 122.042121 
C 286.149626 121.056127 284.803459 120.502125 283.4 120.502125 
C 281.996541 120.502125 280.650374 121.056127 279.657979 122.042121 
C 278.665583 123.028114 278.107982 124.365595 278.107982 125.76 
C 278.107982 127.154405 278.665583 128.491886 279.657979 129.477879 
C 280.650374 130.463873 281.996541 131.017875 283.4 131.017875 
z
" clip-path="url(#p893ee72239)" style="fill: #b74e08; fill-opacity: 0.752941; stroke: #231f20; stroke-linejoin: miter"/>
   </g>
   <g id="patch_47">
    <path d="M 252.4 316.103607 
C 253.879728 316.103607 255.29905 315.519497 256.345376 314.479922 
C 257.391702 313.440347 257.979604 312.030182 257.979604 310.56 
C 257.979604 309.089818 257.391702 307.679653 256.345376 306.640078 
C 255.29905 305.600503 253.879728 305.016393 252.4 305.016393 
C 250.920272 305.016393 249.50095 305.600503 248.454624 306.640078 
C 247.408298 307.679653 246.820396 309.089818 246.820396 310.56 
C 246.820396 312.030182 247.408298 313.440347 248.454624 314.479922 
C 249.50095 315.519497 250.920272 316.103607 252.4 316.103607 
z
" clip-path="url(#p893ee72239)" style="fill: #0871b7; fill-opacity: 0.752941; stroke: #231f20; stroke-linejoin: miter"/>
   </g>
   <g id="patch_48">
    <path d="M 314.4 254.503607 
C 315.879728 254.503607 317.29905 253.919497 318.345376 252.879922 
C 319.391702 251.840347 319.979604 250.430182 319.979604 248.96 
C 319.979604 247.489818 319.391702 246.079653 318.345376 245.040078 
C 317.29905 244.000503 315.879728 243.416393 314.4 243.416393 
C 312.920272 243.416393 311.50095 244.000503 310.454624 245.040078 
C 309.408298 246.079653 308.820396 247.489818 308.820396 248.96 
C 308.820396 250.430182 309.408298 251.840347 310.454624 252.879922 
C 311.50095 253.919497 312.920272 254.503607 314.4 254.503607 
z
" clip-path="url(#p893ee72239)" style="fill: #0871b7; fill-opacity: 0.752941; stroke: #231f20; stroke-linejoin: miter"/>
   </g>
   <g id="patch_49">
    <path d="M 128.4 192.903607 
C 129.879728 192.903607 131.29905 192.319497 132.345376 191.279922 
C 133.391702 190.240347 133.979604 188.830182 133.979604 187.36 
C 133.979604 185.889818 133.391702 184.479653 132.345376 183.440078 
C 131.29905 182.400503 129.879728 181.816393 128.4 181.816393 
C 126.920272 181.816393 125.50095 182.400503 124.454624 183.440078 
C 123.408298 184.479653 122.820396 185.889818 122.820396 187.36 
C 122.820396 188.830182 123.408298 190.240347 124.454624 191.279922 
C 125.50095 192.319497 126.920272 192.903607 128.4 192.903607 
z
" clip-path="url(#p893ee72239)" style="fill: #0871b7; fill-opacity: 0.752941; stroke: #231f20; stroke-linejoin: miter"/>
   </g>
   <g id="patch_50">
    <path d="M 314.4 192.903607 
C 315.879728 192.903607 317.29905 192.319497 318.345376 191.279922 
C 319.391702 190.240347 319.979604 188.830182 319.979604 187.36 
C 319.979604 185.889818 319.391702 184.479653 318.345376 183.440078 
C 317.29905 182.400503 315.879728 181.816393 314.4 181.816393 
C 312.920272 181.816393 311.50095 182.400503 310.454624 183.440078 
C 309.408298 184.479653 308.820396 185.889818 308.820396 187.36 
C 308.820396 188.830182 309.408298 190.240347 310.454624 191.279922 
C 311.50095 192.319497 312.920272 192.903607 314.4 192.903607 
z
" clip-path="url(#p893ee72239)" style="fill: #0871b7; fill-opacity: 0.752941; stroke: #231f20; stroke-linejoin: miter"/>
   </g>
   <g id="patch_51">
    <path d="M 190.4 131.303607 
C 191.879728 131.303607 193.29905 130.719497 194.345376 129.679922 
C 195.391702 128.640347 195.979604 127.230182 195.979604 125.76 
C 195.979604 124.289818 195.391702 122.879653 194.345376 121.840078 
C 193.29905 120.800503 191.879728 120.216393 190.4 120.216393 
C 188.920272 120.216393 187.50095 120.800503 186.454624 121.840078 
C 185.408298 122.879653 184.820396 124.289818 184.820396 125.76 
C 184.820396 127.230182 185.408298 128.640347 186.454624 129.679922 
C 187.50095 130.719497 188.920272 131.303607 190.4 131.303607 
z
" clip-path="url(#p893ee72239)" style="fill: #0871b7; fill-opacity: 0.752941; stroke: #231f20; stroke-linejoin: miter"/>
   </g>
   <g id="patch_52">
    <path d="M 252.4 131.303607 
C 253.879728 131.303607 255.29905 130.719497 256.345376 129.679922 
C 257.391702 128.640347 257.979604 127.230182 257.979604 125.76 
C 257.979604 124.289818 257.391702 122.879653 256.345376 121.840078 
C 255.29905 120.800503 253.879728 120.216393 252.4 120.216393 
C 250.920272 120.216393 249.50095 120.800503 248.454624 121.840078 
C 247.408298 122.879653 246.820396 124.289818 246.820396 125.76 
C 246.820396 127.230182 247.408298 128.640347 248.454624 129.679922 
C 249.50095 130.719497 250.920272 131.303607 252.4 131.303607 
z
" clip-path="url(#p893ee72239)" style="fill: #0871b7; fill-opacity: 0.752941; stroke: #231f20; stroke-linejoin: miter"/>
   </g>
   <g id="patch_53">
    <path d="M 190.4 316.103607 
C 191.879728 316.103607 193.29905 315.519497 194.345376 314.479922 
C 195.391702 313.440347 195.979604 312.030182 195.979604 310.56 
C 195.979604 309.089818 195.391702 307.679653 194.345376 306.640078 
C 193.29905 305.600503 191.879728 305.016393 190.4 305.016393 
C 188.920272 305.016393 187.50095 305.600503 186.454624 306.640078 
C 185.408298 307.679653 184.820396 309.089818 184.820396 310.56 
C 184.820396 312.030182 185.408298 313.440347 186.454624 314.479922 
C 187.50095 315.519497 188.920272 316.103607 190.4 316.103607 
z
" clip-path="url(#p893ee72239)" style="fill: #0871b7; fill-opacity: 0.752941; stroke: #231f20; stroke-linejoin: miter"/>
   </g>
   <g id="patch_54">
    <path d="M 128.4 254.503607 
C 129.879728 254.503607 131.29905 253.919497 132.345376 252.879922 
C 133.391702 251.840347 133.979604 250.430182 133.979604 248.96 
C 133.979604 247.489818 133.391702 246.079653 132.345376 245.040078 
C 131.29905 244.000503 129.879728 243.416393 128.4 243.416393 
C 126.920272 243.416393 125.50095 244.000503 124.454624 245.040078 
C 123.408298 246.079653 122.820396 247.489818 122.820396 248.96 
C 122.820396 250.430182 123.408298 251.840347 124.454624 252.879922 
C 125.50095 253.919497 126.920272 254.503607 128.4 254.503607 
z
" clip-path="url(#p893ee72239)" style="fill: #0871b7; fill-opacity: 0.752941; stroke: #231f20; stroke-linejoin: miter"/>
   </g>
   <g id="patch_55">
    <path d="M 221.4 317.623707 
C 223.285481 317.623707 225.093992 316.87943 226.427229 315.554795 
C 227.760465 314.23016 228.509575 312.433317 228.509575 310.56 
C 228.509575 308.686683 227.760465 306.88984 226.427229 305.565205 
C 225.093992 304.24057 223.285481 303.496293 221.4 303.496293 
C 219.514519 303.496293 217.706008 304.24057 216.372771 305.565205 
C 215.039535 306.88984 214.290425 308.686683 214.290425 310.56 
C 214.290425 312.433317 215.039535 314.23016 216.372771 315.554795 
C 217.706008 316.87943 219.514519 317.623707 221.4 317.623707 
z
" clip-path="url(#p893ee72239)" style="fill: #b74e08; fill-opacity: 0.752941; stroke: #231f20; stroke-linejoin: miter"/>
   </g>
   <g id="patch_56">
    <path d="M 128.4 225.223707 
C 130.285481 225.223707 132.093992 224.47943 133.427229 223.154795 
C 134.760465 221.83016 135.509575 220.033317 135.509575 218.16 
C 135.509575 216.286683 134.760465 214.48984 133.427229 213.165205 
C 132.093992 211.84057 130.285481 211.096293 128.4 211.096293 
C 126.514519 211.096293 124.706008 211.84057 123.372771 213.165205 
C 122.039535 214.48984 121.290425 216.286683 121.290425 218.16 
C 121.290425 220.033317 122.039535 221.83016 123.372771 223.154795 
C 124.706008 224.47943 126.514519 225.223707 128.4 225.223707 
z
" clip-path="url(#p893ee72239)" style="fill: #b74e08; fill-opacity: 0.752941; stroke: #231f20; stroke-linejoin: miter"/>
   </g>
   <g id="patch_57">
    <path d="M 314.4 225.223707 
C 316.285481 225.223707 318.093992 224.47943 319.427229 223.154795 
C 320.760465 221.83016 321.509575 220.033317 321.509575 218.16 
C 321.509575 216.286683 320.760465 214.48984 319.427229 213.165205 
C 318.093992 211.84057 316.285481 211.096293 314.4 211.096293 
C 312.514519 211.096293 310.706008 211.84057 309.372771 213.165205 
C 308.039535 214.48984 307.290425 216.286683 307.290425 218.16 
C 307.290425 220.033317 308.039535 221.83016 309.372771 223.154795 
C 310.706008 224.47943 312.514519 225.223707 314.4 225.223707 
z
" clip-path="url(#p893ee72239)" style="fill: #b74e08; fill-opacity: 0.752941; stroke: #231f20; stroke-linejoin: miter"/>
   </g>
   <g id="patch_58">
    <path d="M 221.4 132.823707 
C 223.285481 132.823707 225.093992 132.07943 226.427229 130.754795 
C 227.760465 129.43016 228.509575 127.633317 228.509575 125.76 
C 228.509575 123.886683 227.760465 122.08984 226.427229 120.765205 
C 225.093992 119.44057 223.285481 118.696293 221.4 118.696293 
C 219.514519 118.696293 217.706008 119.44057 216.372771 120.765205 
C 215.039535 122.08984 214.290425 123.886683 214.290425 125.76 
C 214.290425 127.633317 215.039535 129.43016 216.372771 130.754795 
C 217.706008 132.07943 219.514519 132.823707 221.4 132.823707 
z
" clip-path="url(#p893ee72239)" style="fill: #b74e08; fill-opacity: 0.752941; stroke: #231f20; stroke-linejoin: miter"/>
   </g>
   <g id="patch_59">
    <path d="M 159.4 297.302215 
C 164.082459 297.302215 168.573767 295.453857 171.884766 292.164219 
C 175.195765 288.874582 177.056126 284.41225 177.056126 279.76 
C 177.056126 275.10775 175.195765 270.645418 171.884766 267.355781 
C 168.573767 264.066143 164.082459 262.217785 159.4 262.217785 
C 154.717541 262.217785 150.226233 264.066143 146.915234 267.355781 
C 143.604235 270.645418 141.743874 275.10775 141.743874 279.76 
C 141.743874 284.41225 143.604235 288.874582 146.915234 292.164219 
C 150.226233 295.453857 154.717541 297.302215 159.4 297.302215 
z
" clip-path="url(#p893ee72239)" style="fill: #0871b7; fill-opacity: 0.752941; stroke: #231f20; stroke-linejoin: miter"/>
   </g>
   <g id="patch_60">
    <path d="M 283.4 297.302215 
C 288.082459 297.302215 292.573767 295.453857 295.884766 292.164219 
C 299.195765 288.874582 301.056126 284.41225 301.056126 279.76 
C 301.056126 275.10775 299.195765 270.645418 295.884766 267.355781 
C 292.573767 264.066143 288.082459 262.217785 283.4 262.217785 
C 278.717541 262.217785 274.226233 264.066143 270.915234 267.355781 
C 267.604235 270.645418 265.743874 275.10775 265.743874 279.76 
C 265.743874 284.41225 267.604235 288.874582 270.915234 292.164219 
C 274.226233 295.453857 278.717541 297.302215 283.4 297.302215 
z
" clip-path="url(#p893ee72239)" style="fill: #0871b7; fill-opacity: 0.752941; stroke: #231f20; stroke-linejoin: miter"/>
   </g>
   <g id="patch_61">
    <path d="M 159.4 174.102215 
C 164.082459 174.102215 168.573767 172.253857 171.884766 168.964219 
C 175.195765 165.674582 177.056126 161.21225 177.056126 156.56 
C 177.056126 151.90775 175.195765 147.445418 171.884766 144.155781 
C 168.573767 140.866143 164.082459 139.017785 159.4 139.017785 
C 154.717541 139.017785 150.226233 140.866143 146.915234 144.155781 
C 143.604235 147.445418 141.743874 151.90775 141.743874 156.56 
C 141.743874 161.21225 143.604235 165.674582 146.915234 168.964219 
C 150.226233 172.253857 154.717541 174.102215 159.4 174.102215 
z
" clip-path="url(#p893ee72239)" style="fill: #0871b7; fill-opacity: 0.752941; stroke: #231f20; stroke-linejoin: miter"/>
   </g>
   <g id="patch_62">
    <path d="M 283.4 174.102215 
C 288.082459 174.102215 292.573767 172.253857 295.884766 168.964219 
C 299.195765 165.674582 301.056126 161.21225 301.056126 156.56 
C 301.056126 151.90775 299.195765 147.445418 295.884766 144.155781 
C 292.573767 140.866143 288.082459 139.017785 283.4 139.017785 
C 278.717541 139.017785 274.226233 140.866143 270.915234 144.155781 
C 267.604235 147.445418 265.743874 151.90775 265.743874 156.56 
C 265.743874 161.21225 267.604235 165.674582 270.915234 168.964219 
C 274.226233 172.253857 278.717541 174.102215 283.4 174.102215 
z
" clip-path="url(#p893ee72239)" style="fill: #0871b7; fill-opacity: 0.752941; stroke: #231f20; stroke-linejoin: miter"/>
   </g>
   <g id="patch_63">
    <path d="M 283.4 267.45552 
C 288.33692 267.45552 293.072302 265.506716 296.563232 262.038308 
C 300.054162 258.5699 302.015621 253.865069 302.015621 248.96 
C 302.015621 244.054931 300.054162 239.3501 296.563232 235.881692 
C 293.072302 232.413284 288.33692 230.46448 283.4 230.46448 
C 278.46308 230.46448 273.727698 232.413284 270.236768 235.881692 
C 266.745838 239.3501 264.784379 244.054931 264.784379 248.96 
C 264.784379 253.865069 266.745838 258.5699 270.236768 262.038308 
C 273.727698 265.506716 278.46308 267.45552 283.4 267.45552 
z
" clip-path="url(#p893ee72239)" style="fill: #b74e08; fill-opacity: 0.752941; stroke: #231f20; stroke-linejoin: miter"/>
   </g>
   <g id="patch_64">
    <path d="M 190.4 175.05552 
C 195.33692 175.05552 200.072302 173.106716 203.563232 169.638308 
C 207.054162 166.1699 209.015621 161.465069 209.015621 156.56 
C 209.015621 151.654931 207.054162 146.9501 203.563232 143.481692 
C 200.072302 140.013284 195.33692 138.06448 190.4 138.06448 
C 185.46308 138.06448 180.727698 140.013284 177.236768 143.481692 
C 173.745838 146.9501 171.784379 151.654931 171.784379 156.56 
C 171.784379 161.465069 173.745838 166.1699 177.236768 169.638308 
C 180.727698 173.106716 185.46308 175.05552 190.4 175.05552 
z
" clip-path="url(#p893ee72239)" style="fill: #b74e08; fill-opacity: 0.752941; stroke: #231f20; stroke-linejoin: miter"/>
   </g>
   <g id="patch_65">
    <path d="M 252.4 298.25552 
C 257.33692 298.25552 262.072302 296.306716 265.563232 292.838308 
C 269.054162 289.3699 271.015621 284.665069 271.015621 279.76 
C 271.015621 274.854931 269.054162 270.1501 265.563232 266.681692 
C 262.072302 263.213284 257.33692 261.26448 252.4 261.26448 
C 247.46308 261.26448 242.727698 263.213284 239.236768 266.681692 
C 235.745838 270.1501 233.784379 274.854931 233.784379 279.76 
C 233.784379 284.665069 235.745838 289.3699 239.236768 292.838308 
C 242.727698 296.306716 247.46308 298.25552 252.4 298.25552 
z
" clip-path="url(#p893ee72239)" style="fill: #b74e08; fill-opacity: 0.752941; stroke: #231f20; stroke-linejoin: miter"/>
   </g>
   <g id="patch_66">
    <path d="M 159.4 205.85552 
C 164.33692 205.85552 169.072302 203.906716 172.563232 200.438308 
C 176.054162 196.9699 178.015621 192.265069 178.015621 187.36 
C 178.015621 182.454931 176.054162 177.7501 172.563232 174.281692 
C 169.072302 170.813284 164.33692 168.86448 159.4 168.86448 
C 154.46308 168.86448 149.727698 170.813284 146.236768 174.281692 
C 142.745838 177.7501 140.784379 182.454931 140.784379 187.36 
C 140.784379 192.265069 142.745838 196.9699 146.236768 200.438308 
C 149.727698 203.906716 154.46308 205.85552 159.4 205.85552 
z
" clip-path="url(#p893ee72239)" style="fill: #b74e08; fill-opacity: 0.752941; stroke: #231f20; stroke-linejoin: miter"/>
   </g>
   <g id="patch_67">
    <path d="M 283.4 205.85552 
C 288.33692 205.85552 293.072302 203.906716 296.563232 200.438308 
C 300.054162 196.9699 302.015621 192.265069 302.015621 187.36 
C 302.015621 182.454931 300.054162 177.7501 296.563232 174.281692 
C 293.072302 170.813284 288.33692 168.86448 283.4 168.86448 
C 278.46308 168.86448 273.727698 170.813284 270.236768 174.281692 
C 266.745838 177.7501 264.784379 182.454931 264.784379 187.36 
C 264.784379 192.265069 266.745838 196.9699 270.236768 200.438308 
C 273.727698 203.906716 278.46308 205.85552 283.4 205.85552 
z
" clip-path="url(#p893ee72239)" style="fill: #b74e08; fill-opacity: 0.752941; stroke: #231f20; stroke-linejoin: miter"/>
   </g>
   <g id="patch_68">
    <path d="M 252.4 175.05552 
C 257.33692 175.05552 262.072302 173.106716 265.563232 169.638308 
C 269.054162 166.1699 271.015621 161.465069 271.015621 156.56 
C 271.015621 151.654931 269.054162 146.9501 265.563232 143.481692 
C 262.072302 140.013284 257.33692 138.06448 252.4 138.06448 
C 247.46308 138.06448 242.727698 140.013284 239.236768 143.481692 
C 235.745838 146.9501 233.784379 151.654931 233.784379 156.56 
C 233.784379 161.465069 235.745838 166.1699 239.236768 169.638308 
C 242.727698 173.106716 247.46308 175.05552 252.4 175.05552 
z
" clip-path="url(#p893ee72239)" style="fill: #b74e08; fill-opacity: 0.752941; stroke: #231f20; stroke-linejoin: miter"/>
   </g>
   <g id="patch_69">
    <path d="M 190.4 298.25552 
C 195.33692 298.25552 200.072302 296.306716 203.563232 292.838308 
C 207.054162 289.3699 209.015621 284.665069 209.015621 279.76 
C 209.015621 274.854931 207.054162 270.1501 203.563232 266.681692 
C 200.072302 263.213284 195.33692 261.26448 190.4 261.26448 
C 185.46308 261.26448 180.727698 263.213284 177.236768 266.681692 
C 173.745838 270.1501 171.784379 274.854931 171.784379 279.76 
C 171.784379 284.665069 173.745838 289.3699 177.236768 292.838308 
C 180.727698 296.306716 185.46308 298.25552 190.4 298.25552 
z
" clip-path="url(#p893ee72239)" style="fill: #b74e08; fill-opacity: 0.752941; stroke: #231f20; stroke-linejoin: miter"/>
   </g>
   <g id="patch_70">
    <path d="M 159.4 267.45552 
C 164.33692 267.45552 169.072302 265.506716 172.563232 262.038308 
C 176.054162 258.5699 178.015621 253.865069 178.015621 248.96 
C 178.015621 244.054931 176.054162 239.3501 172.563232 235.881692 
C 169.072302 232.413284 164.33692 230.46448 159.4 230.46448 
C 154.46308 230.46448 149.727698 232.413284 146.236768 235.881692 
C 142.745838 239.3501 140.784379 244.054931 140.784379 248.96 
C 140.784379 253.865069 142.745838 258.5699 146.236768 262.038308 
C 149.727698 265.506716 154.46308 267.45552 159.4 267.45552 
z
" clip-path="url(#p893ee72239)" style="fill: #b74e08; fill-opacity: 0.752941; stroke: #231f20; stroke-linejoin: miter"/>
   </g>
   <g id="patch_71">
    <path d="M 221.4 303.327135 
C 227.690662 303.327135 233.724522 300.843953 238.172692 296.424481 
C 242.620862 292.005009 245.120168 286.010077 245.120168 279.76 
C 245.120168 273.509923 242.620862 267.514991 238.172692 263.095519 
C 233.724522 258.676047 227.690662 256.192865 221.4 256.192865 
C 215.109338 256.192865 209.075478 258.676047 204.627308 263.095519 
C 200.179138 267.514991 197.679832 273.509923 197.679832 279.76 
C 197.679832 286.010077 200.179138 292.005009 204.627308 296.424481 
C 209.075478 300.843953 215.109338 303.327135 221.4 303.327135 
z
" clip-path="url(#p893ee72239)" style="fill: #0871b7; fill-opacity: 0.752941; stroke: #231f20; stroke-linejoin: miter"/>
   </g>
   <g id="patch_72">
    <path d="M 159.4 241.727135 
C 165.690662 241.727135 171.724522 239.243953 176.172692 234.824481 
C 180.620862 230.405009 183.120168 224.410077 183.120168 218.16 
C 183.120168 211.909923 180.620862 205.914991 176.172692 201.495519 
C 171.724522 197.076047 165.690662 194.592865 159.4 194.592865 
C 153.109338 194.592865 147.075478 197.076047 142.627308 201.495519 
C 138.179138 205.914991 135.679832 211.909923 135.679832 218.16 
C 135.679832 224.410077 138.179138 230.405009 142.627308 234.824481 
C 147.075478 239.243953 153.109338 241.727135 159.4 241.727135 
z
" clip-path="url(#p893ee72239)" style="fill: #0871b7; fill-opacity: 0.752941; stroke: #231f20; stroke-linejoin: miter"/>
   </g>
   <g id="patch_73">
    <path d="M 283.4 241.727135 
C 289.690662 241.727135 295.724522 239.243953 300.172692 234.824481 
C 304.620862 230.405009 307.120168 224.410077 307.120168 218.16 
C 307.120168 211.909923 304.620862 205.914991 300.172692 201.495519 
C 295.724522 197.076047 289.690662 194.592865 283.4 194.592865 
C 277.109338 194.592865 271.075478 197.076047 266.627308 201.495519 
C 262.179138 205.914991 259.679832 211.909923 259.679832 218.16 
C 259.679832 224.410077 262.179138 230.405009 266.627308 234.824481 
C 271.075478 239.243953 277.109338 241.727135 283.4 241.727135 
z
" clip-path="url(#p893ee72239)" style="fill: #0871b7; fill-opacity: 0.752941; stroke: #231f20; stroke-linejoin: miter"/>
   </g>
   <g id="patch_74">
    <path d="M 221.4 180.127135 
C 227.690662 180.127135 233.724522 177.643953 238.172692 173.224481 
C 242.620862 168.805009 245.120168 162.810077 245.120168 156.56 
C 245.120168 150.309923 242.620862 144.314991 238.172692 139.895519 
C 233.724522 135.476047 227.690662 132.992865 221.4 132.992865 
C 215.109338 132.992865 209.075478 135.476047 204.627308 139.895519 
C 200.179138 144.314991 197.679832 150.309923 197.679832 156.56 
C 197.679832 162.810077 200.179138 168.805009 204.627308 173.224481 
C 209.075478 177.643953 215.109338 180.127135 221.4 180.127135 
z
" clip-path="url(#p893ee72239)" style="fill: #0871b7; fill-opacity: 0.752941; stroke: #231f20; stroke-linejoin: miter"/>
   </g>
   <g id="patch_75">
    <path d="M 252.4 206.860631 
C 257.60521 206.860631 262.597929 204.805922 266.278568 201.149029 
C 269.959207 197.492136 272.027259 192.531628 272.027259 187.36 
C 272.027259 182.188372 269.959207 177.227864 266.278568 173.570971 
C 262.597929 169.914078 257.60521 167.859369 252.4 167.859369 
C 247.19479 167.859369 242.202071 169.914078 238.521432 173.570971 
C 234.840793 177.227864 232.772741 182.188372 232.772741 187.36 
C 232.772741 192.531628 234.840793 197.492136 238.521432 201.149029 
C 242.202071 204.805922 247.19479 206.860631 252.4 206.860631 
z
" clip-path="url(#p893ee72239)" style="fill: #0871b7; fill-opacity: 0.752941; stroke: #231f20; stroke-linejoin: miter"/>
   </g>
   <g id="patch_76">
    <path d="M 252.4 268.460631 
C 257.60521 268.460631 262.597929 266.405922 266.278568 262.749029 
C 269.959207 259.092136 272.027259 254.131628 272.027259 248.96 
C 272.027259 243.788372 269.959207 238.827864 266.278568 235.170971 
C 262.597929 231.514078 257.60521 229.459369 252.4 229.459369 
C 247.19479 229.459369 242.202071 231.514078 238.521432 235.170971 
C 234.840793 238.827864 232.772741 243.788372 232.772741 248.96 
C 232.772741 254.131628 234.840793 259.092136 238.521432 262.749029 
C 242.202071 266.405922 247.19479 268.460631 252.4 268.460631 
z
" clip-path="url(#p893ee72239)" style="fill: #0871b7; fill-opacity: 0.752941; stroke: #231f20; stroke-linejoin: miter"/>
   </g>
   <g id="patch_77">
    <path d="M 190.4 206.860631 
C 195.60521 206.860631 200.597929 204.805922 204.278568 201.149029 
C 207.959207 197.492136 210.027259 192.531628 210.027259 187.36 
C 210.027259 182.188372 207.959207 177.227864 204.278568 173.570971 
C 200.597929 169.914078 195.60521 167.859369 190.4 167.859369 
C 185.19479 167.859369 180.202071 169.914078 176.521432 173.570971 
C 172.840793 177.227864 170.772741 182.188372 170.772741 187.36 
C 170.772741 192.531628 172.840793 197.492136 176.521432 201.149029 
C 180.202071 204.805922 185.19479 206.860631 190.4 206.860631 
z
" clip-path="url(#p893ee72239)" style="fill: #0871b7; fill-opacity: 0.752941; stroke: #231f20; stroke-linejoin: miter"/>
   </g>
   <g id="patch_78">
    <path d="M 190.4 268.460631 
C 195.60521 268.460631 200.597929 266.405922 204.278568 262.749029 
C 207.959207 259.092136 210.027259 254.131628 210.027259 248.96 
C 210.027259 243.788372 207.959207 238.827864 204.278568 235.170971 
C 200.597929 231.514078 195.60521 229.459369 190.4 229.459369 
C 185.19479 229.459369 180.202071 231.514078 176.521432 235.170971 
C 172.840793 238.827864 170.772741 243.788372 170.772741 248.96 
C 170.772741 254.131628 172.840793 259.092136 176.521432 262.749029 
C 180.202071 266.405922 185.19479 268.460631 190.4 268.460631 
z
" clip-path="url(#p893ee72239)" style="fill: #0871b7; fill-opacity: 0.752941; stroke: #231f20; stroke-linejoin: miter"/>
   </g>
   <g id="patch_79">
    <path d="M 252.4 243.007855 
C 259.032519 243.007855 265.394279 240.389728 270.084178 235.730087 
C 274.774077 231.070445 277.409205 224.749728 277.409205 218.16 
C 277.409205 211.570272 274.774077 205.249555 270.084178 200.589913 
C 265.394279 195.930272 259.032519 193.312145 252.4 193.312145 
C 245.767481 193.312145 239.405721 195.930272 234.715822 200.589913 
C 230.025923 205.249555 227.390795 211.570272 227.390795 218.16 
C 227.390795 224.749728 230.025923 231.070445 234.715822 235.730087 
C 239.405721 240.389728 245.767481 243.007855 252.4 243.007855 
z
" clip-path="url(#p893ee72239)" style="fill: #b74e08; fill-opacity: 0.752941; stroke: #231f20; stroke-linejoin: miter"/>
   </g>
   <g id="patch_80">
    <path d="M 221.4 212.207855 
C 228.032519 212.207855 234.394279 209.589728 239.084178 204.930087 
C 243.774077 200.270445 246.409205 193.949728 246.409205 187.36 
C 246.409205 180.770272 243.774077 174.449555 239.084178 169.789913 
C 234.394279 165.130272 228.032519 162.512145 221.4 162.512145 
C 214.767481 162.512145 208.405721 165.130272 203.715822 169.789913 
C 199.025923 174.449555 196.390795 180.770272 196.390795 187.36 
C 196.390795 193.949728 199.025923 200.270445 203.715822 204.930087 
C 208.405721 209.589728 214.767481 212.207855 221.4 212.207855 
z
" clip-path="url(#p893ee72239)" style="fill: #b74e08; fill-opacity: 0.752941; stroke: #231f20; stroke-linejoin: miter"/>
   </g>
   <g id="patch_81">
    <path d="M 221.4 273.807855 
C 228.032519 273.807855 234.394279 271.189728 239.084178 266.530087 
C 243.774077 261.870445 246.409205 255.549728 246.409205 248.96 
C 246.409205 242.370272 243.774077 236.049555 239.084178 231.389913 
C 234.394279 226.730272 228.032519 224.112145 221.4 224.112145 
C 214.767481 224.112145 208.405721 226.730272 203.715822 231.389913 
C 199.025923 236.049555 196.390795 242.370272 196.390795 248.96 
C 196.390795 255.549728 199.025923 261.870445 203.715822 266.530087 
C 208.405721 271.189728 214.767481 273.807855 221.4 273.807855 
z
" clip-path="url(#p893ee72239)" style="fill: #b74e08; fill-opacity: 0.752941; stroke: #231f20; stroke-linejoin: miter"/>
   </g>
   <g id="patch_82">
    <path d="M 190.4 243.007855 
C 197.032519 243.007855 203.394279 240.389728 208.084178 235.730087 
C 212.774077 231.070445 215.409205 224.749728 215.409205 218.16 
C 215.409205 211.570272 212.774077 205.249555 208.084178 200.589913 
C 203.394279 195.930272 197.032519 193.312145 190.4 193.312145 
C 183.767481 193.312145 177.405721 195.930272 172.715822 200.589913 
C 168.025923 205.249555 165.390795 211.570272 165.390795 218.16 
C 165.390795 224.749728 168.025923 231.070445 172.715822 235.730087 
C 177.405721 240.389728 183.767481 243.007855 190.4 243.007855 
z
" clip-path="url(#p893ee72239)" style="fill: #b74e08; fill-opacity: 0.752941; stroke: #231f20; stroke-linejoin: miter"/>
   </g>
   <g id="patch_83">
    <path d="M 221.4 249.821329 
C 229.851206 249.821329 237.957411 246.485291 243.933316 240.54794 
C 249.909222 234.610589 253.266922 226.556683 253.266922 218.16 
C 253.266922 209.763317 249.909222 201.709411 243.933316 195.77206 
C 237.957411 189.834709 229.851206 186.498671 221.4 186.498671 
C 212.948794 186.498671 204.842589 189.834709 198.866684 195.77206 
C 192.890778 201.709411 189.533078 209.763317 189.533078 218.16 
C 189.533078 226.556683 192.890778 234.610589 198.866684 240.54794 
C 204.842589 246.485291 212.948794 249.821329 221.4 249.821329 
z
" clip-path="url(#p893ee72239)" style="fill: #0871b7; fill-opacity: 0.752941; stroke: #231f20; stroke-linejoin: miter"/>
   </g>
  </g>
 </g>
 <defs>
  <clipPath id="p893ee72239">
   <rect x="54" y="51.84" width="334.8" height="332.64"/>
  </clipPath>
 </defs>
</svg>
