<?xml version="1.0" encoding="utf-8" standalone="no"?>
<!DOCTYPE svg PUBLIC "-//W3C//DTD SVG 1.1//EN"
  "http://www.w3.org/Graphics/SVG/1.1/DTD/svg11.dtd">
<svg xmlns:xlink="http://www.w3.org/1999/xlink" width="432pt" height="432pt" viewBox="0 0 432 432" xmlns="http://www.w3.org/2000/svg" version="1.1">
 <metadata>
  <rdf:RDF xmlns:dc="http://purl.org/dc/elements/1.1/" xmlns:cc="http://creativecommons.org/ns#" xmlns:rdf="http://www.w3.org/1999/02/22-rdf-syntax-ns#">
   <cc:Work>
    <dc:type rdf:resource="http://purl.org/dc/dcmitype/StillImage"/>
    <dc:date>2025-03-02T17:37:35.373381</dc:date>
    <dc:format>image/svg+xml</dc:format>
    <dc:creator>
     <cc:Agent>
      <dc:title>Matplotlib v3.10.0, https://matplotlib.org/</dc:title>
     </cc:Agent>
    </dc:creator>
   </cc:Work>
  </rdf:RDF>
 </metadata>
 <defs>
  <style type="text/css">*{stroke-linejoin: round; stroke-linecap: butt}</style>
 </defs>
 <g id="figure_1">
  <g id="patch_1">
   <path d="M 0 432 
L 432 432 
L 432 0 
L 0 0 
z
" style="fill: #ffffff"/>
  </g>
  <g id="axes_1">
   <g id="patch_2">
    <path d="M 81.9 356.76 
L 360.9 356.76 
L 360.9 79.56 
L 81.9 79.56 
L 81.9 356.76 
z
" clip-path="url(#p940b007857)" style="fill: none; stroke: #000000; stroke-width: 3; stroke-linejoin: miter"/>
   </g>
   <g id="patch_3">
    <path d="M 81.9 370.62 
C 85.599583 370.62 89.148139 369.159623 91.76414 366.5605 
C 94.38014 363.961377 95.85 360.435715 95.85 356.76 
C 95.85 353.084285 94.38014 349.558623 91.76414 346.9595 
C 89.148139 344.360377 85.599583 342.9 81.9 342.9 
C 78.200417 342.9 74.651861 344.360377 72.03586 346.9595 
C 69.41986 349.558623 67.95 353.084285 67.95 356.76 
C 67.95 360.435715 69.41986 363.961377 72.03586 366.5605 
C 74.651861 369.159623 78.200417 370.62 81.9 370.62 
z
" clip-path="url(#p940b007857)" style="fill: #c0504d; stroke: #366092; stroke-linejoin: miter"/>
   </g>
   <g id="patch_4">
    <path d="M 360.9 370.62 
C 364.599583 370.62 368.148139 369.159623 370.76414 366.5605 
C 373.38014 363.961377 374.85 360.435715 374.85 356.76 
C 374.85 353.084285 373.38014 349.558623 370.76414 346.9595 
C 368.148139 344.360377 364.599583 342.9 360.9 342.9 
C 357.200417 342.9 353.651861 344.360377 351.03586 346.9595 
C 348.41986 349.558623 346.95 353.084285 346.95 356.76 
C 346.95 360.435715 348.41986 363.961377 351.03586 366.5605 
C 353.651861 369.159623 357.200417 370.62 360.9 370.62 
z
" clip-path="url(#p940b007857)" style="fill: #c0504d; stroke: #366092; stroke-linejoin: miter"/>
   </g>
   <g id="patch_5">
    <path d="M 360.9 93.42 
C 364.599583 93.42 368.148139 91.959623 370.76414 89.3605 
C 373.38014 86.761377 374.85 83.235715 374.85 79.56 
C 374.85 75.884285 373.38014 72.358623 370.76414 69.7595 
C 368.148139 67.160377 364.599583 65.7 360.9 65.7 
C 357.200417 65.7 353.651861 67.160377 351.03586 69.7595 
C 348.41986 72.358623 346.95 75.884285 346.95 79.56 
C 346.95 83.235715 348.41986 86.761377 351.03586 89.3605 
C 353.651861 91.959623 357.200417 93.42 360.9 93.42 
z
" clip-path="url(#p940b007857)" style="fill: #c0504d; stroke: #366092; stroke-linejoin: miter"/>
   </g>
   <g id="patch_6">
    <path d="M 81.9 93.42 
C 85.599583 93.42 89.148139 91.959623 91.76414 89.3605 
C 94.38014 86.761377 95.85 83.235715 95.85 79.56 
C 95.85 75.884285 94.38014 72.358623 91.76414 69.7595 
C 89.148139 67.160377 85.599583 65.7 81.9 65.7 
C 78.200417 65.7 74.651861 67.160377 72.03586 69.7595 
C 69.41986 72.358623 67.95 75.884285 67.95 79.56 
C 67.95 83.235715 69.41986 86.761377 72.03586 89.3605 
C 74.651861 91.959623 78.200417 93.42 81.9 93.42 
z
" clip-path="url(#p940b007857)" style="fill: #c0504d; stroke: #366092; stroke-linejoin: miter"/>
   </g>
   <g id="patch_7">
    <path d="M 130.075813 370.62 
C 133.775396 370.62 137.323952 369.159623 139.939953 366.5605 
C 142.555953 363.961377 144.025813 360.435715 144.025813 356.76 
C 144.025813 353.084285 142.555953 349.558623 139.939953 346.9595 
C 137.323952 344.360377 133.775396 342.9 130.075813 342.9 
C 126.37623 342.9 122.827674 344.360377 120.211673 346.9595 
C 117.595673 349.558623 116.125813 353.084285 116.125813 356.76 
C 116.125813 360.435715 117.595673 363.961377 120.211673 366.5605 
C 122.827674 369.159623 126.37623 370.62 130.075813 370.62 
z
" clip-path="url(#p940b007857)" style="fill: #c0504d; stroke: #366092; stroke-linejoin: miter"/>
   </g>
   <g id="patch_8">
    <path d="M 221.4 370.62 
C 225.099583 370.62 228.648139 369.159623 231.26414 366.5605 
C 233.88014 363.961377 235.35 360.435715 235.35 356.76 
C 235.35 353.084285 233.88014 349.558623 231.26414 346.9595 
C 228.648139 344.360377 225.099583 342.9 221.4 342.9 
C 217.700417 342.9 214.151861 344.360377 211.53586 346.9595 
C 208.91986 349.558623 207.45 353.084285 207.45 356.76 
C 207.45 360.435715 208.91986 363.961377 211.53586 366.5605 
C 214.151861 369.159623 217.700417 370.62 221.4 370.62 
z
" clip-path="url(#p940b007857)" style="fill: #c0504d; stroke: #366092; stroke-linejoin: miter"/>
   </g>
   <g id="patch_9">
    <path d="M 312.724187 370.62 
C 316.42377 370.62 319.972326 369.159623 322.588327 366.5605 
C 325.204327 363.961377 326.674187 360.435715 326.674187 356.76 
C 326.674187 353.084285 325.204327 349.558623 322.588327 346.9595 
C 319.972326 344.360377 316.42377 342.9 312.724187 342.9 
C 309.024604 342.9 305.476048 344.360377 302.860047 346.9595 
C 300.244047 349.558623 298.774187 353.084285 298.774187 356.76 
C 298.774187 360.435715 300.244047 363.961377 302.860047 366.5605 
C 305.476048 369.159623 309.024604 370.62 312.724187 370.62 
z
" clip-path="url(#p940b007857)" style="fill: #c0504d; stroke: #366092; stroke-linejoin: miter"/>
   </g>
   <g id="patch_10">
    <path d="M 360.9 322.754999 
C 364.599583 322.754999 368.148139 321.294622 370.76414 318.695499 
C 373.38014 316.096376 374.85 312.570714 374.85 308.894999 
C 374.85 305.219284 373.38014 301.693622 370.76414 299.094499 
C 368.148139 296.495376 364.599583 295.034999 360.9 295.034999 
C 357.200417 295.034999 353.651861 296.495376 351.03586 299.094499 
C 348.41986 301.693622 346.95 305.219284 346.95 308.894999 
C 346.95 312.570714 348.41986 316.096376 351.03586 318.695499 
C 353.651861 321.294622 357.200417 322.754999 360.9 322.754999 
z
" clip-path="url(#p940b007857)" style="fill: #c0504d; stroke: #366092; stroke-linejoin: miter"/>
   </g>
   <g id="patch_11">
    <path d="M 360.9 232.02 
C 364.599583 232.02 368.148139 230.559623 370.76414 227.9605 
C 373.38014 225.361377 374.85 221.835715 374.85 218.16 
C 374.85 214.484285 373.38014 210.958623 370.76414 208.3595 
C 368.148139 205.760377 364.599583 204.3 360.9 204.3 
C 357.200417 204.3 353.651861 205.760377 351.03586 208.3595 
C 348.41986 210.958623 346.95 214.484285 346.95 218.16 
C 346.95 221.835715 348.41986 225.361377 351.03586 227.9605 
C 353.651861 230.559623 357.200417 232.02 360.9 232.02 
z
" clip-path="url(#p940b007857)" style="fill: #c0504d; stroke: #366092; stroke-linejoin: miter"/>
   </g>
   <g id="patch_12">
    <path d="M 360.9 141.285001 
C 364.599583 141.285001 368.148139 139.824624 370.76414 137.225501 
C 373.38014 134.626378 374.85 131.100716 374.85 127.425001 
C 374.85 123.749286 373.38014 120.223624 370.76414 117.624501 
C 368.148139 115.025378 364.599583 113.565001 360.9 113.565001 
C 357.200417 113.565001 353.651861 115.025378 351.03586 117.624501 
C 348.41986 120.223624 346.95 123.749286 346.95 127.425001 
C 346.95 131.100716 348.41986 134.626378 351.03586 137.225501 
C 353.651861 139.824624 357.200417 141.285001 360.9 141.285001 
z
" clip-path="url(#p940b007857)" style="fill: #c0504d; stroke: #366092; stroke-linejoin: miter"/>
   </g>
   <g id="patch_13">
    <path d="M 312.724187 93.42 
C 316.42377 93.42 319.972326 91.959623 322.588327 89.3605 
C 325.204327 86.761377 326.674187 83.235715 326.674187 79.56 
C 326.674187 75.884285 325.204327 72.358623 322.588327 69.7595 
C 319.972326 67.160377 316.42377 65.7 312.724187 65.7 
C 309.024604 65.7 305.476048 67.160377 302.860047 69.7595 
C 300.244047 72.358623 298.774187 75.884285 298.774187 79.56 
C 298.774187 83.235715 300.244047 86.761377 302.860047 89.3605 
C 305.476048 91.959623 309.024604 93.42 312.724187 93.42 
z
" clip-path="url(#p940b007857)" style="fill: #c0504d; stroke: #366092; stroke-linejoin: miter"/>
   </g>
   <g id="patch_14">
    <path d="M 221.4 93.42 
C 225.099583 93.42 228.648139 91.959623 231.26414 89.3605 
C 233.88014 86.761377 235.35 83.235715 235.35 79.56 
C 235.35 75.884285 233.88014 72.358623 231.26414 69.7595 
C 228.648139 67.160377 225.099583 65.7 221.4 65.7 
C 217.700417 65.7 214.151861 67.160377 211.53586 69.7595 
C 208.91986 72.358623 207.45 75.884285 207.45 79.56 
C 207.45 83.235715 208.91986 86.761377 211.53586 89.3605 
C 214.151861 91.959623 217.700417 93.42 221.4 93.42 
z
" clip-path="url(#p940b007857)" style="fill: #c0504d; stroke: #366092; stroke-linejoin: miter"/>
   </g>
   <g id="patch_15">
    <path d="M 130.075813 93.42 
C 133.775396 93.42 137.323952 91.959623 139.939953 89.3605 
C 142.555953 86.761377 144.025813 83.235715 144.025813 79.56 
C 144.025813 75.884285 142.555953 72.358623 139.939953 69.7595 
C 137.323952 67.160377 133.775396 65.7 130.075813 65.7 
C 126.37623 65.7 122.827674 67.160377 120.211673 69.7595 
C 117.595673 72.358623 116.125813 75.884285 116.125813 79.56 
C 116.125813 83.235715 117.595673 86.761377 120.211673 89.3605 
C 122.827674 91.959623 126.37623 93.42 130.075813 93.42 
z
" clip-path="url(#p940b007857)" style="fill: #c0504d; stroke: #366092; stroke-linejoin: miter"/>
   </g>
   <g id="patch_16">
    <path d="M 81.9 141.285001 
C 85.599583 141.285001 89.148139 139.824624 91.76414 137.225501 
C 94.38014 134.626378 95.85 131.100716 95.85 127.425001 
C 95.85 123.749286 94.38014 120.223624 91.76414 117.624501 
C 89.148139 115.025378 85.599583 113.565001 81.9 113.565001 
C 78.200417 113.565001 74.651861 115.025378 72.03586 117.624501 
C 69.41986 120.223624 67.95 123.749286 67.95 127.425001 
C 67.95 131.100716 69.41986 134.626378 72.03586 137.225501 
C 74.651861 139.824624 78.200417 141.285001 81.9 141.285001 
z
" clip-path="url(#p940b007857)" style="fill: #c0504d; stroke: #366092; stroke-linejoin: miter"/>
   </g>
   <g id="patch_17">
    <path d="M 81.9 232.02 
C 85.599583 232.02 89.148139 230.559623 91.76414 227.9605 
C 94.38014 225.361377 95.85 221.835715 95.85 218.16 
C 95.85 214.484285 94.38014 210.958623 91.76414 208.3595 
C 89.148139 205.760377 85.599583 204.3 81.9 204.3 
C 78.200417 204.3 74.651861 205.760377 72.03586 208.3595 
C 69.41986 210.958623 67.95 214.484285 67.95 218.16 
C 67.95 221.835715 69.41986 225.361377 72.03586 227.9605 
C 74.651861 230.559623 78.200417 232.02 81.9 232.02 
z
" clip-path="url(#p940b007857)" style="fill: #c0504d; stroke: #366092; stroke-linejoin: miter"/>
   </g>
   <g id="patch_18">
    <path d="M 81.9 322.754999 
C 85.599583 322.754999 89.148139 321.294622 91.76414 318.695499 
C 94.38014 316.096376 95.85 312.570714 95.85 308.894999 
C 95.85 305.219284 94.38014 301.693622 91.76414 299.094499 
C 89.148139 296.495376 85.599583 295.034999 81.9 295.034999 
C 78.200417 295.034999 74.651861 296.495376 72.03586 299.094499 
C 69.41986 301.693622 67.95 305.219284 67.95 308.894999 
C 67.95 312.570714 69.41986 316.096376 72.03586 318.695499 
C 74.651861 321.294622 78.200417 322.754999 81.9 322.754999 
z
" clip-path="url(#p940b007857)" style="fill: #c0504d; stroke: #366092; stroke-linejoin: miter"/>
   </g>
   <g id="patch_19">
    <path d="M 130.075813 322.754999 
C 133.775396 322.754999 137.323952 321.294622 139.939953 318.695499 
C 142.555953 316.096376 144.025813 312.570714 144.025813 308.894999 
C 144.025813 305.219284 142.555953 301.693622 139.939953 299.094499 
C 137.323952 296.495376 133.775396 295.034999 130.075813 295.034999 
C 126.37623 295.034999 122.827674 296.495376 120.211673 299.094499 
C 117.595673 301.693622 116.125813 305.219284 116.125813 308.894999 
C 116.125813 312.570714 117.595673 316.096376 120.211673 318.695499 
C 122.827674 321.294622 126.37623 322.754999 130.075813 322.754999 
z
" clip-path="url(#p940b007857)" style="fill: #c0504d; stroke: #366092; stroke-linejoin: miter"/>
   </g>
   <g id="patch_20">
    <path d="M 221.4 322.754999 
C 225.099583 322.754999 228.648139 321.294622 231.26414 318.695499 
C 233.88014 316.096376 235.35 312.570714 235.35 308.894999 
C 235.35 305.219284 233.88014 301.693622 231.26414 299.094499 
C 228.648139 296.495376 225.099583 295.034999 221.4 295.034999 
C 217.700417 295.034999 214.151861 296.495376 211.53586 299.094499 
C 208.91986 301.693622 207.45 305.219284 207.45 308.894999 
C 207.45 312.570714 208.91986 316.096376 211.53586 318.695499 
C 214.151861 321.294622 217.700417 322.754999 221.4 322.754999 
z
" clip-path="url(#p940b007857)" style="fill: #c0504d; stroke: #366092; stroke-linejoin: miter"/>
   </g>
   <g id="patch_21">
    <path d="M 312.724187 322.754999 
C 316.42377 322.754999 319.972326 321.294622 322.588327 318.695499 
C 325.204327 316.096376 326.674187 312.570714 326.674187 308.894999 
C 326.674187 305.219284 325.204327 301.693622 322.588327 299.094499 
C 319.972326 296.495376 316.42377 295.034999 312.724187 295.034999 
C 309.024604 295.034999 305.476048 296.495376 302.860047 299.094499 
C 300.244047 301.693622 298.774187 305.219284 298.774187 308.894999 
C 298.774187 312.570714 300.244047 316.096376 302.860047 318.695499 
C 305.476048 321.294622 309.024604 322.754999 312.724187 322.754999 
z
" clip-path="url(#p940b007857)" style="fill: #c0504d; stroke: #366092; stroke-linejoin: miter"/>
   </g>
   <g id="patch_22">
    <path d="M 130.075813 232.02 
C 133.775396 232.02 137.323952 230.559623 139.939953 227.9605 
C 142.555953 225.361377 144.025813 221.835715 144.025813 218.16 
C 144.025813 214.484285 142.555953 210.958623 139.939953 208.3595 
C 137.323952 205.760377 133.775396 204.3 130.075813 204.3 
C 126.37623 204.3 122.827674 205.760377 120.211673 208.3595 
C 117.595673 210.958623 116.125813 214.484285 116.125813 218.16 
C 116.125813 221.835715 117.595673 225.361377 120.211673 227.9605 
C 122.827674 230.559623 126.37623 232.02 130.075813 232.02 
z
" clip-path="url(#p940b007857)" style="fill: #c0504d; stroke: #366092; stroke-linejoin: miter"/>
   </g>
   <g id="patch_23">
    <path d="M 221.4 232.02 
C 225.099583 232.02 228.648139 230.559623 231.26414 227.9605 
C 233.88014 225.361377 235.35 221.835715 235.35 218.16 
C 235.35 214.484285 233.88014 210.958623 231.26414 208.3595 
C 228.648139 205.760377 225.099583 204.3 221.4 204.3 
C 217.700417 204.3 214.151861 205.760377 211.53586 208.3595 
C 208.91986 210.958623 207.45 214.484285 207.45 218.16 
C 207.45 221.835715 208.91986 225.361377 211.53586 227.9605 
C 214.151861 230.559623 217.700417 232.02 221.4 232.02 
z
" clip-path="url(#p940b007857)" style="fill: #c0504d; stroke: #366092; stroke-linejoin: miter"/>
   </g>
   <g id="patch_24">
    <path d="M 312.724187 232.02 
C 316.42377 232.02 319.972326 230.559623 322.588327 227.9605 
C 325.204327 225.361377 326.674187 221.835715 326.674187 218.16 
C 326.674187 214.484285 325.204327 210.958623 322.588327 208.3595 
C 319.972326 205.760377 316.42377 204.3 312.724187 204.3 
C 309.024604 204.3 305.476048 205.760377 302.860047 208.3595 
C 300.244047 210.958623 298.774187 214.484285 298.774187 218.16 
C 298.774187 221.835715 300.244047 225.361377 302.860047 227.9605 
C 305.476048 230.559623 309.024604 232.02 312.724187 232.02 
z
" clip-path="url(#p940b007857)" style="fill: #c0504d; stroke: #366092; stroke-linejoin: miter"/>
   </g>
   <g id="patch_25">
    <path d="M 130.075813 141.285001 
C 133.775396 141.285001 137.323952 139.824624 139.939953 137.225501 
C 142.555953 134.626378 144.025813 131.100716 144.025813 127.425001 
C 144.025813 123.749286 142.555953 120.223624 139.939953 117.624501 
C 137.323952 115.025378 133.775396 113.565001 130.075813 113.565001 
C 126.37623 113.565001 122.827674 115.025378 120.211673 117.624501 
C 117.595673 120.223624 116.125813 123.749286 116.125813 127.425001 
C 116.125813 131.100716 117.595673 134.626378 120.211673 137.225501 
C 122.827674 139.824624 126.37623 141.285001 130.075813 141.285001 
z
" clip-path="url(#p940b007857)" style="fill: #c0504d; stroke: #366092; stroke-linejoin: miter"/>
   </g>
   <g id="patch_26">
    <path d="M 221.4 141.285001 
C 225.099583 141.285001 228.648139 139.824624 231.26414 137.225501 
C 233.88014 134.626378 235.35 131.100716 235.35 127.425001 
C 235.35 123.749286 233.88014 120.223624 231.26414 117.624501 
C 228.648139 115.025378 225.099583 113.565001 221.4 113.565001 
C 217.700417 113.565001 214.151861 115.025378 211.53586 117.624501 
C 208.91986 120.223624 207.45 123.749286 207.45 127.425001 
C 207.45 131.100716 208.91986 134.626378 211.53586 137.225501 
C 214.151861 139.824624 217.700417 141.285001 221.4 141.285001 
z
" clip-path="url(#p940b007857)" style="fill: #c0504d; stroke: #366092; stroke-linejoin: miter"/>
   </g>
   <g id="patch_27">
    <path d="M 312.724187 141.285001 
C 316.42377 141.285001 319.972326 139.824624 322.588327 137.225501 
C 325.204327 134.626378 326.674187 131.100716 326.674187 127.425001 
C 326.674187 123.749286 325.204327 120.223624 322.588327 117.624501 
C 319.972326 115.025378 316.42377 113.565001 312.724187 113.565001 
C 309.024604 113.565001 305.476048 115.025378 302.860047 117.624501 
C 300.244047 120.223624 298.774187 123.749286 298.774187 127.425001 
C 298.774187 131.100716 300.244047 134.626378 302.860047 137.225501 
C 305.476048 139.824624 309.024604 141.285001 312.724187 141.285001 
z
" clip-path="url(#p940b007857)" style="fill: #c0504d; stroke: #366092; stroke-linejoin: miter"/>
   </g>
  </g>
 </g>
 <defs>
  <clipPath id="p940b007857">
   <rect x="54" y="51.84" width="334.8" height="332.64"/>
  </clipPath>
 </defs>
</svg>
