<?xml version="1.0" encoding="utf-8" standalone="no"?>
<!DOCTYPE svg PUBLIC "-//W3C//DTD SVG 1.1//EN"
  "http://www.w3.org/Graphics/SVG/1.1/DTD/svg11.dtd">
<svg xmlns:xlink="http://www.w3.org/1999/xlink" width="432pt" height="432pt" viewBox="0 0 432 432" xmlns="http://www.w3.org/2000/svg" version="1.1">
 <metadata>
  <rdf:RDF xmlns:dc="http://purl.org/dc/elements/1.1/" xmlns:cc="http://creativecommons.org/ns#" xmlns:rdf="http://www.w3.org/1999/02/22-rdf-syntax-ns#">
   <cc:Work>
    <dc:type rdf:resource="http://purl.org/dc/dcmitype/StillImage"/>
    <dc:date>2025-03-02T17:37:35.928518</dc:date>
    <dc:format>image/svg+xml</dc:format>
    <dc:creator>
     <cc:Agent>
      <dc:title>Matplotlib v3.10.0, https://matplotlib.org/</dc:title>
     </cc:Agent>
    </dc:creator>
   </cc:Work>
  </rdf:RDF>
 </metadata>
 <defs>
  <style type="text/css">*{stroke-linejoin: round; stroke-linecap: butt}</style>
 </defs>
 <g id="figure_1">
  <g id="patch_1">
   <path d="M 0 432 
L 432 432 
L 432 0 
L 0 0 
z
" style="fill: #ffffff"/>
  </g>
  <g id="axes_1">
   <g id="patch_2">
    <path d="M 81.9 356.76 
L 360.9 356.76 
L 360.9 79.56 
L 81.9 79.56 
L 81.9 356.76 
z
" clip-path="url(#p4d4de97304)" style="fill: none; stroke: #000000; stroke-width: 3; stroke-linejoin: miter"/>
   </g>
   <g id="patch_3">
    <path d="M 101.271485 351.373493 
C 104.971068 351.373493 108.519624 349.913116 111.135624 347.313993 
C 113.751625 344.71487 115.221485 341.189208 115.221485 337.513493 
C 115.221485 333.837778 113.751625 330.312116 111.135624 327.712993 
C 108.519624 325.11387 104.971068 323.653493 101.271485 323.653493 
C 97.571901 323.653493 94.023345 325.11387 91.407345 327.712993 
C 88.791345 330.312116 87.321485 333.837778 87.321485 337.513493 
C 87.321485 341.189208 88.791345 344.71487 91.407345 347.313993 
C 94.023345 349.913116 97.571901 351.373493 101.271485 351.373493 
z
" clip-path="url(#p4d4de97304)" style="fill: #c0504d; stroke: #366092; stroke-linejoin: miter"/>
   </g>
   <g id="patch_4">
    <path d="M 173.972644 351.373493 
C 177.672228 351.373493 181.220784 349.913116 183.836784 347.313993 
C 186.452784 344.71487 187.922644 341.189208 187.922644 337.513493 
C 187.922644 333.837778 186.452784 330.312116 183.836784 327.712993 
C 181.220784 325.11387 177.672228 323.653493 173.972644 323.653493 
C 170.273061 323.653493 166.724505 325.11387 164.108505 327.712993 
C 161.492504 330.312116 160.022644 333.837778 160.022644 337.513493 
C 160.022644 341.189208 161.492504 344.71487 164.108505 347.313993 
C 166.724505 349.913116 170.273061 351.373493 173.972644 351.373493 
z
" clip-path="url(#p4d4de97304)" style="fill: #c0504d; stroke: #366092; stroke-linejoin: miter"/>
   </g>
   <g id="patch_5">
    <path d="M 268.827356 351.373493 
C 272.526939 351.373493 276.075495 349.913116 278.691495 347.313993 
C 281.307496 344.71487 282.777356 341.189208 282.777356 337.513493 
C 282.777356 333.837778 281.307496 330.312116 278.691495 327.712993 
C 276.075495 325.11387 272.526939 323.653493 268.827356 323.653493 
C 265.127772 323.653493 261.579216 325.11387 258.963216 327.712993 
C 256.347216 330.312116 254.877356 333.837778 254.877356 337.513493 
C 254.877356 341.189208 256.347216 344.71487 258.963216 347.313993 
C 261.579216 349.913116 265.127772 351.373493 268.827356 351.373493 
z
" clip-path="url(#p4d4de97304)" style="fill: #c0504d; stroke: #366092; stroke-linejoin: miter"/>
   </g>
   <g id="patch_6">
    <path d="M 341.528515 351.373493 
C 345.228099 351.373493 348.776655 349.913116 351.392655 347.313993 
C 354.008655 344.71487 355.478515 341.189208 355.478515 337.513493 
C 355.478515 333.837778 354.008655 330.312116 351.392655 327.712993 
C 348.776655 325.11387 345.228099 323.653493 341.528515 323.653493 
C 337.828932 323.653493 334.280376 325.11387 331.664376 327.712993 
C 329.048375 330.312116 327.578515 333.837778 327.578515 337.513493 
C 327.578515 341.189208 329.048375 344.71487 331.664376 347.313993 
C 334.280376 349.913116 337.828932 351.373493 341.528515 351.373493 
z
" clip-path="url(#p4d4de97304)" style="fill: #c0504d; stroke: #366092; stroke-linejoin: miter"/>
   </g>
   <g id="patch_7">
    <path d="M 101.271485 279.141373 
C 104.971068 279.141373 108.519624 277.680996 111.135624 275.081873 
C 113.751625 272.48275 115.221485 268.957088 115.221485 265.281373 
C 115.221485 261.605658 113.751625 258.079996 111.135624 255.480873 
C 108.519624 252.88175 104.971068 251.421373 101.271485 251.421373 
C 97.571901 251.421373 94.023345 252.88175 91.407345 255.480873 
C 88.791345 258.079996 87.321485 261.605658 87.321485 265.281373 
C 87.321485 268.957088 88.791345 272.48275 91.407345 275.081873 
C 94.023345 277.680996 97.571901 279.141373 101.271485 279.141373 
z
" clip-path="url(#p4d4de97304)" style="fill: #c0504d; stroke: #366092; stroke-linejoin: miter"/>
   </g>
   <g id="patch_8">
    <path d="M 173.972644 279.141373 
C 177.672228 279.141373 181.220784 277.680996 183.836784 275.081873 
C 186.452784 272.48275 187.922644 268.957088 187.922644 265.281373 
C 187.922644 261.605658 186.452784 258.079996 183.836784 255.480873 
C 181.220784 252.88175 177.672228 251.421373 173.972644 251.421373 
C 170.273061 251.421373 166.724505 252.88175 164.108505 255.480873 
C 161.492504 258.079996 160.022644 261.605658 160.022644 265.281373 
C 160.022644 268.957088 161.492504 272.48275 164.108505 275.081873 
C 166.724505 277.680996 170.273061 279.141373 173.972644 279.141373 
z
" clip-path="url(#p4d4de97304)" style="fill: #c0504d; stroke: #366092; stroke-linejoin: miter"/>
   </g>
   <g id="patch_9">
    <path d="M 268.827356 279.141373 
C 272.526939 279.141373 276.075495 277.680996 278.691495 275.081873 
C 281.307496 272.48275 282.777356 268.957088 282.777356 265.281373 
C 282.777356 261.605658 281.307496 258.079996 278.691495 255.480873 
C 276.075495 252.88175 272.526939 251.421373 268.827356 251.421373 
C 265.127772 251.421373 261.579216 252.88175 258.963216 255.480873 
C 256.347216 258.079996 254.877356 261.605658 254.877356 265.281373 
C 254.877356 268.957088 256.347216 272.48275 258.963216 275.081873 
C 261.579216 277.680996 265.127772 279.141373 268.827356 279.141373 
z
" clip-path="url(#p4d4de97304)" style="fill: #c0504d; stroke: #366092; stroke-linejoin: miter"/>
   </g>
   <g id="patch_10">
    <path d="M 341.528515 279.141373 
C 345.228099 279.141373 348.776655 277.680996 351.392655 275.081873 
C 354.008655 272.48275 355.478515 268.957088 355.478515 265.281373 
C 355.478515 261.605658 354.008655 258.079996 351.392655 255.480873 
C 348.776655 252.88175 345.228099 251.421373 341.528515 251.421373 
C 337.828932 251.421373 334.280376 252.88175 331.664376 255.480873 
C 329.048375 258.079996 327.578515 261.605658 327.578515 265.281373 
C 327.578515 268.957088 329.048375 272.48275 331.664376 275.081873 
C 334.280376 277.680996 337.828932 279.141373 341.528515 279.141373 
z
" clip-path="url(#p4d4de97304)" style="fill: #c0504d; stroke: #366092; stroke-linejoin: miter"/>
   </g>
   <g id="patch_11">
    <path d="M 101.271485 184.898627 
C 104.971068 184.898627 108.519624 183.43825 111.135624 180.839127 
C 113.751625 178.240004 115.221485 174.714342 115.221485 171.038627 
C 115.221485 167.362912 113.751625 163.83725 111.135624 161.238127 
C 108.519624 158.639004 104.971068 157.178627 101.271485 157.178627 
C 97.571901 157.178627 94.023345 158.639004 91.407345 161.238127 
C 88.791345 163.83725 87.321485 167.362912 87.321485 171.038627 
C 87.321485 174.714342 88.791345 178.240004 91.407345 180.839127 
C 94.023345 183.43825 97.571901 184.898627 101.271485 184.898627 
z
" clip-path="url(#p4d4de97304)" style="fill: #c0504d; stroke: #366092; stroke-linejoin: miter"/>
   </g>
   <g id="patch_12">
    <path d="M 173.972644 184.898627 
C 177.672228 184.898627 181.220784 183.43825 183.836784 180.839127 
C 186.452784 178.240004 187.922644 174.714342 187.922644 171.038627 
C 187.922644 167.362912 186.452784 163.83725 183.836784 161.238127 
C 181.220784 158.639004 177.672228 157.178627 173.972644 157.178627 
C 170.273061 157.178627 166.724505 158.639004 164.108505 161.238127 
C 161.492504 163.83725 160.022644 167.362912 160.022644 171.038627 
C 160.022644 174.714342 161.492504 178.240004 164.108505 180.839127 
C 166.724505 183.43825 170.273061 184.898627 173.972644 184.898627 
z
" clip-path="url(#p4d4de97304)" style="fill: #c0504d; stroke: #366092; stroke-linejoin: miter"/>
   </g>
   <g id="patch_13">
    <path d="M 268.827356 184.898627 
C 272.526939 184.898627 276.075495 183.43825 278.691495 180.839127 
C 281.307496 178.240004 282.777356 174.714342 282.777356 171.038627 
C 282.777356 167.362912 281.307496 163.83725 278.691495 161.238127 
C 276.075495 158.639004 272.526939 157.178627 268.827356 157.178627 
C 265.127772 157.178627 261.579216 158.639004 258.963216 161.238127 
C 256.347216 163.83725 254.877356 167.362912 254.877356 171.038627 
C 254.877356 174.714342 256.347216 178.240004 258.963216 180.839127 
C 261.579216 183.43825 265.127772 184.898627 268.827356 184.898627 
z
" clip-path="url(#p4d4de97304)" style="fill: #c0504d; stroke: #366092; stroke-linejoin: miter"/>
   </g>
   <g id="patch_14">
    <path d="M 341.528515 184.898627 
C 345.228099 184.898627 348.776655 183.43825 351.392655 180.839127 
C 354.008655 178.240004 355.478515 174.714342 355.478515 171.038627 
C 355.478515 167.362912 354.008655 163.83725 351.392655 161.238127 
C 348.776655 158.639004 345.228099 157.178627 341.528515 157.178627 
C 337.828932 157.178627 334.280376 158.639004 331.664376 161.238127 
C 329.048375 163.83725 327.578515 167.362912 327.578515 171.038627 
C 327.578515 174.714342 329.048375 178.240004 331.664376 180.839127 
C 334.280376 183.43825 337.828932 184.898627 341.528515 184.898627 
z
" clip-path="url(#p4d4de97304)" style="fill: #c0504d; stroke: #366092; stroke-linejoin: miter"/>
   </g>
   <g id="patch_15">
    <path d="M 101.271485 112.666507 
C 104.971068 112.666507 108.519624 111.20613 111.135624 108.607007 
C 113.751625 106.007884 115.221485 102.482222 115.221485 98.806507 
C 115.221485 95.130792 113.751625 91.60513 111.135624 89.006007 
C 108.519624 86.406884 104.971068 84.946507 101.271485 84.946507 
C 97.571901 84.946507 94.023345 86.406884 91.407345 89.006007 
C 88.791345 91.60513 87.321485 95.130792 87.321485 98.806507 
C 87.321485 102.482222 88.791345 106.007884 91.407345 108.607007 
C 94.023345 111.20613 97.571901 112.666507 101.271485 112.666507 
z
" clip-path="url(#p4d4de97304)" style="fill: #c0504d; stroke: #366092; stroke-linejoin: miter"/>
   </g>
   <g id="patch_16">
    <path d="M 173.972644 112.666507 
C 177.672228 112.666507 181.220784 111.20613 183.836784 108.607007 
C 186.452784 106.007884 187.922644 102.482222 187.922644 98.806507 
C 187.922644 95.130792 186.452784 91.60513 183.836784 89.006007 
C 181.220784 86.406884 177.672228 84.946507 173.972644 84.946507 
C 170.273061 84.946507 166.724505 86.406884 164.108505 89.006007 
C 161.492504 91.60513 160.022644 95.130792 160.022644 98.806507 
C 160.022644 102.482222 161.492504 106.007884 164.108505 108.607007 
C 166.724505 111.20613 170.273061 112.666507 173.972644 112.666507 
z
" clip-path="url(#p4d4de97304)" style="fill: #c0504d; stroke: #366092; stroke-linejoin: miter"/>
   </g>
   <g id="patch_17">
    <path d="M 268.827356 112.666507 
C 272.526939 112.666507 276.075495 111.20613 278.691495 108.607007 
C 281.307496 106.007884 282.777356 102.482222 282.777356 98.806507 
C 282.777356 95.130792 281.307496 91.60513 278.691495 89.006007 
C 276.075495 86.406884 272.526939 84.946507 268.827356 84.946507 
C 265.127772 84.946507 261.579216 86.406884 258.963216 89.006007 
C 256.347216 91.60513 254.877356 95.130792 254.877356 98.806507 
C 254.877356 102.482222 256.347216 106.007884 258.963216 108.607007 
C 261.579216 111.20613 265.127772 112.666507 268.827356 112.666507 
z
" clip-path="url(#p4d4de97304)" style="fill: #c0504d; stroke: #366092; stroke-linejoin: miter"/>
   </g>
   <g id="patch_18">
    <path d="M 341.528515 112.666507 
C 345.228099 112.666507 348.776655 111.20613 351.392655 108.607007 
C 354.008655 106.007884 355.478515 102.482222 355.478515 98.806507 
C 355.478515 95.130792 354.008655 91.60513 351.392655 89.006007 
C 348.776655 86.406884 345.228099 84.946507 341.528515 84.946507 
C 337.828932 84.946507 334.280376 86.406884 331.664376 89.006007 
C 329.048375 91.60513 327.578515 95.130792 327.578515 98.806507 
C 327.578515 102.482222 329.048375 106.007884 331.664376 108.607007 
C 334.280376 111.20613 337.828932 112.666507 341.528515 112.666507 
z
" clip-path="url(#p4d4de97304)" style="fill: #c0504d; stroke: #366092; stroke-linejoin: miter"/>
   </g>
  </g>
 </g>
 <defs>
  <clipPath id="p4d4de97304">
   <rect x="54" y="51.84" width="334.8" height="332.64"/>
  </clipPath>
 </defs>
</svg>
