<?xml version="1.0" encoding="utf-8" standalone="no"?>
<!DOCTYPE svg PUBLIC "-//W3C//DTD SVG 1.1//EN"
  "http://www.w3.org/Graphics/SVG/1.1/DTD/svg11.dtd">
<svg xmlns:xlink="http://www.w3.org/1999/xlink" width="432pt" height="432pt" viewBox="0 0 432 432" xmlns="http://www.w3.org/2000/svg" version="1.1">
 <metadata>
  <rdf:RDF xmlns:dc="http://purl.org/dc/elements/1.1/" xmlns:cc="http://creativecommons.org/ns#" xmlns:rdf="http://www.w3.org/1999/02/22-rdf-syntax-ns#">
   <cc:Work>
    <dc:type rdf:resource="http://purl.org/dc/dcmitype/StillImage"/>
    <dc:date>2025-03-02T17:37:35.895290</dc:date>
    <dc:format>image/svg+xml</dc:format>
    <dc:creator>
     <cc:Agent>
      <dc:title>Matplotlib v3.10.0, https://matplotlib.org/</dc:title>
     </cc:Agent>
    </dc:creator>
   </cc:Work>
  </rdf:RDF>
 </metadata>
 <defs>
  <style type="text/css">*{stroke-linejoin: round; stroke-linecap: butt}</style>
 </defs>
 <g id="figure_1">
  <g id="patch_1">
   <path d="M 0 432 
L 432 432 
L 432 0 
L 0 0 
z
" style="fill: #ffffff"/>
  </g>
  <g id="axes_1">
   <g id="patch_2">
    <path d="M 81.9 356.76 
L 360.9 356.76 
L 360.9 79.56 
L 81.9 79.56 
L 81.9 356.76 
z
" clip-path="url(#p2baf502ccf)" style="fill: none; stroke: #000000; stroke-width: 3; stroke-linejoin: miter"/>
   </g>
   <g id="patch_3">
    <path d="M 113.343765 339.379098 
C 117.043348 339.379098 120.591904 337.918721 123.207904 335.319598 
C 125.823905 332.720475 127.293765 329.194813 127.293765 325.519098 
C 127.293765 321.843383 125.823905 318.317721 123.207904 315.718598 
C 120.591904 313.119475 117.043348 311.659098 113.343765 311.659098 
C 109.644181 311.659098 106.095625 313.119475 103.479625 315.718598 
C 100.863625 318.317721 99.393765 321.843383 99.393765 325.519098 
C 99.393765 329.194813 100.863625 332.720475 103.479625 335.319598 
C 106.095625 337.918721 109.644181 339.379098 113.343765 339.379098 
z
" clip-path="url(#p2baf502ccf)" style="fill: #c0504d; stroke: #366092; stroke-linejoin: miter"/>
   </g>
   <g id="patch_4">
    <path d="M 221.4 339.379098 
C 225.099583 339.379098 228.648139 337.918721 231.26414 335.319598 
C 233.88014 332.720475 235.35 329.194813 235.35 325.519098 
C 235.35 321.843383 233.88014 318.317721 231.26414 315.718598 
C 228.648139 313.119475 225.099583 311.659098 221.4 311.659098 
C 217.700417 311.659098 214.151861 313.119475 211.53586 315.718598 
C 208.91986 318.317721 207.45 321.843383 207.45 325.519098 
C 207.45 329.194813 208.91986 332.720475 211.53586 335.319598 
C 214.151861 337.918721 217.700417 339.379098 221.4 339.379098 
z
" clip-path="url(#p2baf502ccf)" style="fill: #c0504d; stroke: #366092; stroke-linejoin: miter"/>
   </g>
   <g id="patch_5">
    <path d="M 329.456235 339.379098 
C 333.155819 339.379098 336.704375 337.918721 339.320375 335.319598 
C 341.936375 332.720475 343.406235 329.194813 343.406235 325.519098 
C 343.406235 321.843383 341.936375 318.317721 339.320375 315.718598 
C 336.704375 313.119475 333.155819 311.659098 329.456235 311.659098 
C 325.756652 311.659098 322.208096 313.119475 319.592096 315.718598 
C 316.976095 318.317721 315.506235 321.843383 315.506235 325.519098 
C 315.506235 329.194813 316.976095 332.720475 319.592096 335.319598 
C 322.208096 337.918721 325.756652 339.379098 329.456235 339.379098 
z
" clip-path="url(#p2baf502ccf)" style="fill: #c0504d; stroke: #366092; stroke-linejoin: miter"/>
   </g>
   <g id="patch_6">
    <path d="M 113.343765 232.02 
C 117.043348 232.02 120.591904 230.559623 123.207904 227.9605 
C 125.823905 225.361377 127.293765 221.835715 127.293765 218.16 
C 127.293765 214.484285 125.823905 210.958623 123.207904 208.3595 
C 120.591904 205.760377 117.043348 204.3 113.343765 204.3 
C 109.644181 204.3 106.095625 205.760377 103.479625 208.3595 
C 100.863625 210.958623 99.393765 214.484285 99.393765 218.16 
C 99.393765 221.835715 100.863625 225.361377 103.479625 227.9605 
C 106.095625 230.559623 109.644181 232.02 113.343765 232.02 
z
" clip-path="url(#p2baf502ccf)" style="fill: #c0504d; stroke: #366092; stroke-linejoin: miter"/>
   </g>
   <g id="patch_7">
    <path d="M 221.4 232.02 
C 225.099583 232.02 228.648139 230.559623 231.26414 227.9605 
C 233.88014 225.361377 235.35 221.835715 235.35 218.16 
C 235.35 214.484285 233.88014 210.958623 231.26414 208.3595 
C 228.648139 205.760377 225.099583 204.3 221.4 204.3 
C 217.700417 204.3 214.151861 205.760377 211.53586 208.3595 
C 208.91986 210.958623 207.45 214.484285 207.45 218.16 
C 207.45 221.835715 208.91986 225.361377 211.53586 227.9605 
C 214.151861 230.559623 217.700417 232.02 221.4 232.02 
z
" clip-path="url(#p2baf502ccf)" style="fill: #c0504d; stroke: #366092; stroke-linejoin: miter"/>
   </g>
   <g id="patch_8">
    <path d="M 329.456235 232.02 
C 333.155819 232.02 336.704375 230.559623 339.320375 227.9605 
C 341.936375 225.361377 343.406235 221.835715 343.406235 218.16 
C 343.406235 214.484285 341.936375 210.958623 339.320375 208.3595 
C 336.704375 205.760377 333.155819 204.3 329.456235 204.3 
C 325.756652 204.3 322.208096 205.760377 319.592096 208.3595 
C 316.976095 210.958623 315.506235 214.484285 315.506235 218.16 
C 315.506235 221.835715 316.976095 225.361377 319.592096 227.9605 
C 322.208096 230.559623 325.756652 232.02 329.456235 232.02 
z
" clip-path="url(#p2baf502ccf)" style="fill: #c0504d; stroke: #366092; stroke-linejoin: miter"/>
   </g>
   <g id="patch_9">
    <path d="M 113.343765 124.660902 
C 117.043348 124.660902 120.591904 123.200525 123.207904 120.601402 
C 125.823905 118.002279 127.293765 114.476617 127.293765 110.800902 
C 127.293765 107.125187 125.823905 103.599525 123.207904 101.000402 
C 120.591904 98.401279 117.043348 96.940902 113.343765 96.940902 
C 109.644181 96.940902 106.095625 98.401279 103.479625 101.000402 
C 100.863625 103.599525 99.393765 107.125187 99.393765 110.800902 
C 99.393765 114.476617 100.863625 118.002279 103.479625 120.601402 
C 106.095625 123.200525 109.644181 124.660902 113.343765 124.660902 
z
" clip-path="url(#p2baf502ccf)" style="fill: #c0504d; stroke: #366092; stroke-linejoin: miter"/>
   </g>
   <g id="patch_10">
    <path d="M 221.4 124.660902 
C 225.099583 124.660902 228.648139 123.200525 231.26414 120.601402 
C 233.88014 118.002279 235.35 114.476617 235.35 110.800902 
C 235.35 107.125187 233.88014 103.599525 231.26414 101.000402 
C 228.648139 98.401279 225.099583 96.940902 221.4 96.940902 
C 217.700417 96.940902 214.151861 98.401279 211.53586 101.000402 
C 208.91986 103.599525 207.45 107.125187 207.45 110.800902 
C 207.45 114.476617 208.91986 118.002279 211.53586 120.601402 
C 214.151861 123.200525 217.700417 124.660902 221.4 124.660902 
z
" clip-path="url(#p2baf502ccf)" style="fill: #c0504d; stroke: #366092; stroke-linejoin: miter"/>
   </g>
   <g id="patch_11">
    <path d="M 329.456235 124.660902 
C 333.155819 124.660902 336.704375 123.200525 339.320375 120.601402 
C 341.936375 118.002279 343.406235 114.476617 343.406235 110.800902 
C 343.406235 107.125187 341.936375 103.599525 339.320375 101.000402 
C 336.704375 98.401279 333.155819 96.940902 329.456235 96.940902 
C 325.756652 96.940902 322.208096 98.401279 319.592096 101.000402 
C 316.976095 103.599525 315.506235 107.125187 315.506235 110.800902 
C 315.506235 114.476617 316.976095 118.002279 319.592096 120.601402 
C 322.208096 123.200525 325.756652 124.660902 329.456235 124.660902 
z
" clip-path="url(#p2baf502ccf)" style="fill: #c0504d; stroke: #366092; stroke-linejoin: miter"/>
   </g>
  </g>
 </g>
 <defs>
  <clipPath id="p2baf502ccf">
   <rect x="54" y="51.84" width="334.8" height="332.64"/>
  </clipPath>
 </defs>
</svg>
