<?xml version="1.0" encoding="utf-8" standalone="no"?>
<!DOCTYPE svg PUBLIC "-//W3C//DTD SVG 1.1//EN"
  "http://www.w3.org/Graphics/SVG/1.1/DTD/svg11.dtd">
<svg xmlns:xlink="http://www.w3.org/1999/xlink" width="432pt" height="432pt" viewBox="0 0 432 432" xmlns="http://www.w3.org/2000/svg" version="1.1">
 <metadata>
  <rdf:RDF xmlns:dc="http://purl.org/dc/elements/1.1/" xmlns:cc="http://creativecommons.org/ns#" xmlns:rdf="http://www.w3.org/1999/02/22-rdf-syntax-ns#">
   <cc:Work>
    <dc:type rdf:resource="http://purl.org/dc/dcmitype/StillImage"/>
    <dc:date>2025-03-02T17:37:35.824133</dc:date>
    <dc:format>image/svg+xml</dc:format>
    <dc:creator>
     <cc:Agent>
      <dc:title>Matplotlib v3.10.0, https://matplotlib.org/</dc:title>
     </cc:Agent>
    </dc:creator>
   </cc:Work>
  </rdf:RDF>
 </metadata>
 <defs>
  <style type="text/css">*{stroke-linejoin: round; stroke-linecap: butt}</style>
 </defs>
 <g id="figure_1">
  <g id="patch_1">
   <path d="M 0 432 
L 432 432 
L 432 0 
L 0 0 
z
" style="fill: #ffffff"/>
  </g>
  <g id="axes_1">
   <g id="patch_2">
    <path d="M 81.9 356.76 
L 360.9 356.76 
L 360.9 79.56 
L 81.9 79.56 
L 81.9 356.76 
z
" clip-path="url(#pf1ca927da7)" style="fill: none; stroke: #000000; stroke-width: 3; stroke-linejoin: miter"/>
   </g>
   <g id="patch_3">
    <path d="M 81.9 370.62 
C 85.599583 370.62 89.148139 369.159623 91.76414 366.5605 
C 94.38014 363.961377 95.85 360.435715 95.85 356.76 
C 95.85 353.084285 94.38014 349.558623 91.76414 346.9595 
C 89.148139 344.360377 85.599583 342.9 81.9 342.9 
C 78.200417 342.9 74.651861 344.360377 72.03586 346.9595 
C 69.41986 349.558623 67.95 353.084285 67.95 356.76 
C 67.95 360.435715 69.41986 363.961377 72.03586 366.5605 
C 74.651861 369.159623 78.200417 370.62 81.9 370.62 
z
" clip-path="url(#pf1ca927da7)" style="fill: #c0504d; stroke: #366092; stroke-linejoin: miter"/>
   </g>
   <g id="patch_4">
    <path d="M 114.674782 370.62 
C 118.374366 370.62 121.922922 369.159623 124.538922 366.5605 
C 127.154922 363.961377 128.624782 360.435715 128.624782 356.76 
C 128.624782 353.084285 127.154922 349.558623 124.538922 346.9595 
C 121.922922 344.360377 118.374366 342.9 114.674782 342.9 
C 110.975199 342.9 107.426643 344.360377 104.810643 346.9595 
C 102.194642 349.558623 100.724782 353.084285 100.724782 356.76 
C 100.724782 360.435715 102.194642 363.961377 104.810643 366.5605 
C 107.426643 369.159623 110.975199 370.62 114.674782 370.62 
z
" clip-path="url(#pf1ca927da7)" style="fill: #c0504d; stroke: #366092; stroke-linejoin: miter"/>
   </g>
   <g id="patch_5">
    <path d="M 181.610203 370.62 
C 185.309787 370.62 188.858343 369.159623 191.474343 366.5605 
C 194.090343 363.961377 195.560203 360.435715 195.560203 356.76 
C 195.560203 353.084285 194.090343 349.558623 191.474343 346.9595 
C 188.858343 344.360377 185.309787 342.9 181.610203 342.9 
C 177.91062 342.9 174.362064 344.360377 171.746064 346.9595 
C 169.130063 349.558623 167.660203 353.084285 167.660203 356.76 
C 167.660203 360.435715 169.130063 363.961377 171.746064 366.5605 
C 174.362064 369.159623 177.91062 370.62 181.610203 370.62 
z
" clip-path="url(#pf1ca927da7)" style="fill: #c0504d; stroke: #366092; stroke-linejoin: miter"/>
   </g>
   <g id="patch_6">
    <path d="M 261.189797 370.62 
C 264.88938 370.62 268.437936 369.159623 271.053936 366.5605 
C 273.669937 363.961377 275.139797 360.435715 275.139797 356.76 
C 275.139797 353.084285 273.669937 349.558623 271.053936 346.9595 
C 268.437936 344.360377 264.88938 342.9 261.189797 342.9 
C 257.490213 342.9 253.941657 344.360377 251.325657 346.9595 
C 248.709657 349.558623 247.239797 353.084285 247.239797 356.76 
C 247.239797 360.435715 248.709657 363.961377 251.325657 366.5605 
C 253.941657 369.159623 257.490213 370.62 261.189797 370.62 
z
" clip-path="url(#pf1ca927da7)" style="fill: #c0504d; stroke: #366092; stroke-linejoin: miter"/>
   </g>
   <g id="patch_7">
    <path d="M 328.125218 370.62 
C 331.824801 370.62 335.373357 369.159623 337.989357 366.5605 
C 340.605358 363.961377 342.075218 360.435715 342.075218 356.76 
C 342.075218 353.084285 340.605358 349.558623 337.989357 346.9595 
C 335.373357 344.360377 331.824801 342.9 328.125218 342.9 
C 324.425634 342.9 320.877078 344.360377 318.261078 346.9595 
C 315.645078 349.558623 314.175218 353.084285 314.175218 356.76 
C 314.175218 360.435715 315.645078 363.961377 318.261078 366.5605 
C 320.877078 369.159623 324.425634 370.62 328.125218 370.62 
z
" clip-path="url(#pf1ca927da7)" style="fill: #c0504d; stroke: #366092; stroke-linejoin: miter"/>
   </g>
   <g id="patch_8">
    <path d="M 360.9 370.62 
C 364.599583 370.62 368.148139 369.159623 370.76414 366.5605 
C 373.38014 363.961377 374.85 360.435715 374.85 356.76 
C 374.85 353.084285 373.38014 349.558623 370.76414 346.9595 
C 368.148139 344.360377 364.599583 342.9 360.9 342.9 
C 357.200417 342.9 353.651861 344.360377 351.03586 346.9595 
C 348.41986 349.558623 346.95 353.084285 346.95 356.76 
C 346.95 360.435715 348.41986 363.961377 351.03586 366.5605 
C 353.651861 369.159623 357.200417 370.62 360.9 370.62 
z
" clip-path="url(#pf1ca927da7)" style="fill: #c0504d; stroke: #366092; stroke-linejoin: miter"/>
   </g>
   <g id="patch_9">
    <path d="M 81.9 338.056668 
C 85.599583 338.056668 89.148139 336.596291 91.76414 333.997168 
C 94.38014 331.398045 95.85 327.872383 95.85 324.196668 
C 95.85 320.520953 94.38014 316.995291 91.76414 314.396168 
C 89.148139 311.797045 85.599583 310.336668 81.9 310.336668 
C 78.200417 310.336668 74.651861 311.797045 72.03586 314.396168 
C 69.41986 316.995291 67.95 320.520953 67.95 324.196668 
C 67.95 327.872383 69.41986 331.398045 72.03586 333.997168 
C 74.651861 336.596291 78.200417 338.056668 81.9 338.056668 
z
" clip-path="url(#pf1ca927da7)" style="fill: #c0504d; stroke: #366092; stroke-linejoin: miter"/>
   </g>
   <g id="patch_10">
    <path d="M 114.674782 338.056668 
C 118.374366 338.056668 121.922922 336.596291 124.538922 333.997168 
C 127.154922 331.398045 128.624782 327.872383 128.624782 324.196668 
C 128.624782 320.520953 127.154922 316.995291 124.538922 314.396168 
C 121.922922 311.797045 118.374366 310.336668 114.674782 310.336668 
C 110.975199 310.336668 107.426643 311.797045 104.810643 314.396168 
C 102.194642 316.995291 100.724782 320.520953 100.724782 324.196668 
C 100.724782 327.872383 102.194642 331.398045 104.810643 333.997168 
C 107.426643 336.596291 110.975199 338.056668 114.674782 338.056668 
z
" clip-path="url(#pf1ca927da7)" style="fill: #c0504d; stroke: #366092; stroke-linejoin: miter"/>
   </g>
   <g id="patch_11">
    <path d="M 181.610203 338.056668 
C 185.309787 338.056668 188.858343 336.596291 191.474343 333.997168 
C 194.090343 331.398045 195.560203 327.872383 195.560203 324.196668 
C 195.560203 320.520953 194.090343 316.995291 191.474343 314.396168 
C 188.858343 311.797045 185.309787 310.336668 181.610203 310.336668 
C 177.91062 310.336668 174.362064 311.797045 171.746064 314.396168 
C 169.130063 316.995291 167.660203 320.520953 167.660203 324.196668 
C 167.660203 327.872383 169.130063 331.398045 171.746064 333.997168 
C 174.362064 336.596291 177.91062 338.056668 181.610203 338.056668 
z
" clip-path="url(#pf1ca927da7)" style="fill: #c0504d; stroke: #366092; stroke-linejoin: miter"/>
   </g>
   <g id="patch_12">
    <path d="M 261.189797 338.056668 
C 264.88938 338.056668 268.437936 336.596291 271.053936 333.997168 
C 273.669937 331.398045 275.139797 327.872383 275.139797 324.196668 
C 275.139797 320.520953 273.669937 316.995291 271.053936 314.396168 
C 268.437936 311.797045 264.88938 310.336668 261.189797 310.336668 
C 257.490213 310.336668 253.941657 311.797045 251.325657 314.396168 
C 248.709657 316.995291 247.239797 320.520953 247.239797 324.196668 
C 247.239797 327.872383 248.709657 331.398045 251.325657 333.997168 
C 253.941657 336.596291 257.490213 338.056668 261.189797 338.056668 
z
" clip-path="url(#pf1ca927da7)" style="fill: #c0504d; stroke: #366092; stroke-linejoin: miter"/>
   </g>
   <g id="patch_13">
    <path d="M 328.125218 338.056668 
C 331.824801 338.056668 335.373357 336.596291 337.989357 333.997168 
C 340.605358 331.398045 342.075218 327.872383 342.075218 324.196668 
C 342.075218 320.520953 340.605358 316.995291 337.989357 314.396168 
C 335.373357 311.797045 331.824801 310.336668 328.125218 310.336668 
C 324.425634 310.336668 320.877078 311.797045 318.261078 314.396168 
C 315.645078 316.995291 314.175218 320.520953 314.175218 324.196668 
C 314.175218 327.872383 315.645078 331.398045 318.261078 333.997168 
C 320.877078 336.596291 324.425634 338.056668 328.125218 338.056668 
z
" clip-path="url(#pf1ca927da7)" style="fill: #c0504d; stroke: #366092; stroke-linejoin: miter"/>
   </g>
   <g id="patch_14">
    <path d="M 360.9 338.056668 
C 364.599583 338.056668 368.148139 336.596291 370.76414 333.997168 
C 373.38014 331.398045 374.85 327.872383 374.85 324.196668 
C 374.85 320.520953 373.38014 316.995291 370.76414 314.396168 
C 368.148139 311.797045 364.599583 310.336668 360.9 310.336668 
C 357.200417 310.336668 353.651861 311.797045 351.03586 314.396168 
C 348.41986 316.995291 346.95 320.520953 346.95 324.196668 
C 346.95 327.872383 348.41986 331.398045 351.03586 333.997168 
C 353.651861 336.596291 357.200417 338.056668 360.9 338.056668 
z
" clip-path="url(#pf1ca927da7)" style="fill: #c0504d; stroke: #366092; stroke-linejoin: miter"/>
   </g>
   <g id="patch_15">
    <path d="M 81.9 271.553088 
C 85.599583 271.553088 89.148139 270.092711 91.76414 267.493588 
C 94.38014 264.894465 95.85 261.368803 95.85 257.693088 
C 95.85 254.017373 94.38014 250.491711 91.76414 247.892588 
C 89.148139 245.293465 85.599583 243.833088 81.9 243.833088 
C 78.200417 243.833088 74.651861 245.293465 72.03586 247.892588 
C 69.41986 250.491711 67.95 254.017373 67.95 257.693088 
C 67.95 261.368803 69.41986 264.894465 72.03586 267.493588 
C 74.651861 270.092711 78.200417 271.553088 81.9 271.553088 
z
" clip-path="url(#pf1ca927da7)" style="fill: #c0504d; stroke: #366092; stroke-linejoin: miter"/>
   </g>
   <g id="patch_16">
    <path d="M 114.674782 271.553088 
C 118.374366 271.553088 121.922922 270.092711 124.538922 267.493588 
C 127.154922 264.894465 128.624782 261.368803 128.624782 257.693088 
C 128.624782 254.017373 127.154922 250.491711 124.538922 247.892588 
C 121.922922 245.293465 118.374366 243.833088 114.674782 243.833088 
C 110.975199 243.833088 107.426643 245.293465 104.810643 247.892588 
C 102.194642 250.491711 100.724782 254.017373 100.724782 257.693088 
C 100.724782 261.368803 102.194642 264.894465 104.810643 267.493588 
C 107.426643 270.092711 110.975199 271.553088 114.674782 271.553088 
z
" clip-path="url(#pf1ca927da7)" style="fill: #c0504d; stroke: #366092; stroke-linejoin: miter"/>
   </g>
   <g id="patch_17">
    <path d="M 181.610203 271.553088 
C 185.309787 271.553088 188.858343 270.092711 191.474343 267.493588 
C 194.090343 264.894465 195.560203 261.368803 195.560203 257.693088 
C 195.560203 254.017373 194.090343 250.491711 191.474343 247.892588 
C 188.858343 245.293465 185.309787 243.833088 181.610203 243.833088 
C 177.91062 243.833088 174.362064 245.293465 171.746064 247.892588 
C 169.130063 250.491711 167.660203 254.017373 167.660203 257.693088 
C 167.660203 261.368803 169.130063 264.894465 171.746064 267.493588 
C 174.362064 270.092711 177.91062 271.553088 181.610203 271.553088 
z
" clip-path="url(#pf1ca927da7)" style="fill: #c0504d; stroke: #366092; stroke-linejoin: miter"/>
   </g>
   <g id="patch_18">
    <path d="M 261.189797 271.553088 
C 264.88938 271.553088 268.437936 270.092711 271.053936 267.493588 
C 273.669937 264.894465 275.139797 261.368803 275.139797 257.693088 
C 275.139797 254.017373 273.669937 250.491711 271.053936 247.892588 
C 268.437936 245.293465 264.88938 243.833088 261.189797 243.833088 
C 257.490213 243.833088 253.941657 245.293465 251.325657 247.892588 
C 248.709657 250.491711 247.239797 254.017373 247.239797 257.693088 
C 247.239797 261.368803 248.709657 264.894465 251.325657 267.493588 
C 253.941657 270.092711 257.490213 271.553088 261.189797 271.553088 
z
" clip-path="url(#pf1ca927da7)" style="fill: #c0504d; stroke: #366092; stroke-linejoin: miter"/>
   </g>
   <g id="patch_19">
    <path d="M 328.125218 271.553088 
C 331.824801 271.553088 335.373357 270.092711 337.989357 267.493588 
C 340.605358 264.894465 342.075218 261.368803 342.075218 257.693088 
C 342.075218 254.017373 340.605358 250.491711 337.989357 247.892588 
C 335.373357 245.293465 331.824801 243.833088 328.125218 243.833088 
C 324.425634 243.833088 320.877078 245.293465 318.261078 247.892588 
C 315.645078 250.491711 314.175218 254.017373 314.175218 257.693088 
C 314.175218 261.368803 315.645078 264.894465 318.261078 267.493588 
C 320.877078 270.092711 324.425634 271.553088 328.125218 271.553088 
z
" clip-path="url(#pf1ca927da7)" style="fill: #c0504d; stroke: #366092; stroke-linejoin: miter"/>
   </g>
   <g id="patch_20">
    <path d="M 360.9 271.553088 
C 364.599583 271.553088 368.148139 270.092711 370.76414 267.493588 
C 373.38014 264.894465 374.85 261.368803 374.85 257.693088 
C 374.85 254.017373 373.38014 250.491711 370.76414 247.892588 
C 368.148139 245.293465 364.599583 243.833088 360.9 243.833088 
C 357.200417 243.833088 353.651861 245.293465 351.03586 247.892588 
C 348.41986 250.491711 346.95 254.017373 346.95 257.693088 
C 346.95 261.368803 348.41986 264.894465 351.03586 267.493588 
C 353.651861 270.092711 357.200417 271.553088 360.9 271.553088 
z
" clip-path="url(#pf1ca927da7)" style="fill: #c0504d; stroke: #366092; stroke-linejoin: miter"/>
   </g>
   <g id="patch_21">
    <path d="M 81.9 192.486912 
C 85.599583 192.486912 89.148139 191.026535 91.76414 188.427412 
C 94.38014 185.828289 95.85 182.302627 95.85 178.626912 
C 95.85 174.951197 94.38014 171.425535 91.76414 168.826412 
C 89.148139 166.227289 85.599583 164.766912 81.9 164.766912 
C 78.200417 164.766912 74.651861 166.227289 72.03586 168.826412 
C 69.41986 171.425535 67.95 174.951197 67.95 178.626912 
C 67.95 182.302627 69.41986 185.828289 72.03586 188.427412 
C 74.651861 191.026535 78.200417 192.486912 81.9 192.486912 
z
" clip-path="url(#pf1ca927da7)" style="fill: #c0504d; stroke: #366092; stroke-linejoin: miter"/>
   </g>
   <g id="patch_22">
    <path d="M 114.674782 192.486912 
C 118.374366 192.486912 121.922922 191.026535 124.538922 188.427412 
C 127.154922 185.828289 128.624782 182.302627 128.624782 178.626912 
C 128.624782 174.951197 127.154922 171.425535 124.538922 168.826412 
C 121.922922 166.227289 118.374366 164.766912 114.674782 164.766912 
C 110.975199 164.766912 107.426643 166.227289 104.810643 168.826412 
C 102.194642 171.425535 100.724782 174.951197 100.724782 178.626912 
C 100.724782 182.302627 102.194642 185.828289 104.810643 188.427412 
C 107.426643 191.026535 110.975199 192.486912 114.674782 192.486912 
z
" clip-path="url(#pf1ca927da7)" style="fill: #c0504d; stroke: #366092; stroke-linejoin: miter"/>
   </g>
   <g id="patch_23">
    <path d="M 181.610203 192.486912 
C 185.309787 192.486912 188.858343 191.026535 191.474343 188.427412 
C 194.090343 185.828289 195.560203 182.302627 195.560203 178.626912 
C 195.560203 174.951197 194.090343 171.425535 191.474343 168.826412 
C 188.858343 166.227289 185.309787 164.766912 181.610203 164.766912 
C 177.91062 164.766912 174.362064 166.227289 171.746064 168.826412 
C 169.130063 171.425535 167.660203 174.951197 167.660203 178.626912 
C 167.660203 182.302627 169.130063 185.828289 171.746064 188.427412 
C 174.362064 191.026535 177.91062 192.486912 181.610203 192.486912 
z
" clip-path="url(#pf1ca927da7)" style="fill: #c0504d; stroke: #366092; stroke-linejoin: miter"/>
   </g>
   <g id="patch_24">
    <path d="M 261.189797 192.486912 
C 264.88938 192.486912 268.437936 191.026535 271.053936 188.427412 
C 273.669937 185.828289 275.139797 182.302627 275.139797 178.626912 
C 275.139797 174.951197 273.669937 171.425535 271.053936 168.826412 
C 268.437936 166.227289 264.88938 164.766912 261.189797 164.766912 
C 257.490213 164.766912 253.941657 166.227289 251.325657 168.826412 
C 248.709657 171.425535 247.239797 174.951197 247.239797 178.626912 
C 247.239797 182.302627 248.709657 185.828289 251.325657 188.427412 
C 253.941657 191.026535 257.490213 192.486912 261.189797 192.486912 
z
" clip-path="url(#pf1ca927da7)" style="fill: #c0504d; stroke: #366092; stroke-linejoin: miter"/>
   </g>
   <g id="patch_25">
    <path d="M 328.125218 192.486912 
C 331.824801 192.486912 335.373357 191.026535 337.989357 188.427412 
C 340.605358 185.828289 342.075218 182.302627 342.075218 178.626912 
C 342.075218 174.951197 340.605358 171.425535 337.989357 168.826412 
C 335.373357 166.227289 331.824801 164.766912 328.125218 164.766912 
C 324.425634 164.766912 320.877078 166.227289 318.261078 168.826412 
C 315.645078 171.425535 314.175218 174.951197 314.175218 178.626912 
C 314.175218 182.302627 315.645078 185.828289 318.261078 188.427412 
C 320.877078 191.026535 324.425634 192.486912 328.125218 192.486912 
z
" clip-path="url(#pf1ca927da7)" style="fill: #c0504d; stroke: #366092; stroke-linejoin: miter"/>
   </g>
   <g id="patch_26">
    <path d="M 360.9 192.486912 
C 364.599583 192.486912 368.148139 191.026535 370.76414 188.427412 
C 373.38014 185.828289 374.85 182.302627 374.85 178.626912 
C 374.85 174.951197 373.38014 171.425535 370.76414 168.826412 
C 368.148139 166.227289 364.599583 164.766912 360.9 164.766912 
C 357.200417 164.766912 353.651861 166.227289 351.03586 168.826412 
C 348.41986 171.425535 346.95 174.951197 346.95 178.626912 
C 346.95 182.302627 348.41986 185.828289 351.03586 188.427412 
C 353.651861 191.026535 357.200417 192.486912 360.9 192.486912 
z
" clip-path="url(#pf1ca927da7)" style="fill: #c0504d; stroke: #366092; stroke-linejoin: miter"/>
   </g>
   <g id="patch_27">
    <path d="M 81.9 125.983332 
C 85.599583 125.983332 89.148139 124.522955 91.76414 121.923832 
C 94.38014 119.324709 95.85 115.799047 95.85 112.123332 
C 95.85 108.447617 94.38014 104.921955 91.76414 102.322832 
C 89.148139 99.723709 85.599583 98.263332 81.9 98.263332 
C 78.200417 98.263332 74.651861 99.723709 72.03586 102.322832 
C 69.41986 104.921955 67.95 108.447617 67.95 112.123332 
C 67.95 115.799047 69.41986 119.324709 72.03586 121.923832 
C 74.651861 124.522955 78.200417 125.983332 81.9 125.983332 
z
" clip-path="url(#pf1ca927da7)" style="fill: #c0504d; stroke: #366092; stroke-linejoin: miter"/>
   </g>
   <g id="patch_28">
    <path d="M 114.674782 125.983332 
C 118.374366 125.983332 121.922922 124.522955 124.538922 121.923832 
C 127.154922 119.324709 128.624782 115.799047 128.624782 112.123332 
C 128.624782 108.447617 127.154922 104.921955 124.538922 102.322832 
C 121.922922 99.723709 118.374366 98.263332 114.674782 98.263332 
C 110.975199 98.263332 107.426643 99.723709 104.810643 102.322832 
C 102.194642 104.921955 100.724782 108.447617 100.724782 112.123332 
C 100.724782 115.799047 102.194642 119.324709 104.810643 121.923832 
C 107.426643 124.522955 110.975199 125.983332 114.674782 125.983332 
z
" clip-path="url(#pf1ca927da7)" style="fill: #c0504d; stroke: #366092; stroke-linejoin: miter"/>
   </g>
   <g id="patch_29">
    <path d="M 181.610203 125.983332 
C 185.309787 125.983332 188.858343 124.522955 191.474343 121.923832 
C 194.090343 119.324709 195.560203 115.799047 195.560203 112.123332 
C 195.560203 108.447617 194.090343 104.921955 191.474343 102.322832 
C 188.858343 99.723709 185.309787 98.263332 181.610203 98.263332 
C 177.91062 98.263332 174.362064 99.723709 171.746064 102.322832 
C 169.130063 104.921955 167.660203 108.447617 167.660203 112.123332 
C 167.660203 115.799047 169.130063 119.324709 171.746064 121.923832 
C 174.362064 124.522955 177.91062 125.983332 181.610203 125.983332 
z
" clip-path="url(#pf1ca927da7)" style="fill: #c0504d; stroke: #366092; stroke-linejoin: miter"/>
   </g>
   <g id="patch_30">
    <path d="M 261.189797 125.983332 
C 264.88938 125.983332 268.437936 124.522955 271.053936 121.923832 
C 273.669937 119.324709 275.139797 115.799047 275.139797 112.123332 
C 275.139797 108.447617 273.669937 104.921955 271.053936 102.322832 
C 268.437936 99.723709 264.88938 98.263332 261.189797 98.263332 
C 257.490213 98.263332 253.941657 99.723709 251.325657 102.322832 
C 248.709657 104.921955 247.239797 108.447617 247.239797 112.123332 
C 247.239797 115.799047 248.709657 119.324709 251.325657 121.923832 
C 253.941657 124.522955 257.490213 125.983332 261.189797 125.983332 
z
" clip-path="url(#pf1ca927da7)" style="fill: #c0504d; stroke: #366092; stroke-linejoin: miter"/>
   </g>
   <g id="patch_31">
    <path d="M 328.125218 125.983332 
C 331.824801 125.983332 335.373357 124.522955 337.989357 121.923832 
C 340.605358 119.324709 342.075218 115.799047 342.075218 112.123332 
C 342.075218 108.447617 340.605358 104.921955 337.989357 102.322832 
C 335.373357 99.723709 331.824801 98.263332 328.125218 98.263332 
C 324.425634 98.263332 320.877078 99.723709 318.261078 102.322832 
C 315.645078 104.921955 314.175218 108.447617 314.175218 112.123332 
C 314.175218 115.799047 315.645078 119.324709 318.261078 121.923832 
C 320.877078 124.522955 324.425634 125.983332 328.125218 125.983332 
z
" clip-path="url(#pf1ca927da7)" style="fill: #c0504d; stroke: #366092; stroke-linejoin: miter"/>
   </g>
   <g id="patch_32">
    <path d="M 360.9 125.983332 
C 364.599583 125.983332 368.148139 124.522955 370.76414 121.923832 
C 373.38014 119.324709 374.85 115.799047 374.85 112.123332 
C 374.85 108.447617 373.38014 104.921955 370.76414 102.322832 
C 368.148139 99.723709 364.599583 98.263332 360.9 98.263332 
C 357.200417 98.263332 353.651861 99.723709 351.03586 102.322832 
C 348.41986 104.921955 346.95 108.447617 346.95 112.123332 
C 346.95 115.799047 348.41986 119.324709 351.03586 121.923832 
C 353.651861 124.522955 357.200417 125.983332 360.9 125.983332 
z
" clip-path="url(#pf1ca927da7)" style="fill: #c0504d; stroke: #366092; stroke-linejoin: miter"/>
   </g>
   <g id="patch_33">
    <path d="M 81.9 93.42 
C 85.599583 93.42 89.148139 91.959623 91.76414 89.3605 
C 94.38014 86.761377 95.85 83.235715 95.85 79.56 
C 95.85 75.884285 94.38014 72.358623 91.76414 69.7595 
C 89.148139 67.160377 85.599583 65.7 81.9 65.7 
C 78.200417 65.7 74.651861 67.160377 72.03586 69.7595 
C 69.41986 72.358623 67.95 75.884285 67.95 79.56 
C 67.95 83.235715 69.41986 86.761377 72.03586 89.3605 
C 74.651861 91.959623 78.200417 93.42 81.9 93.42 
z
" clip-path="url(#pf1ca927da7)" style="fill: #c0504d; stroke: #366092; stroke-linejoin: miter"/>
   </g>
   <g id="patch_34">
    <path d="M 114.674782 93.42 
C 118.374366 93.42 121.922922 91.959623 124.538922 89.3605 
C 127.154922 86.761377 128.624782 83.235715 128.624782 79.56 
C 128.624782 75.884285 127.154922 72.358623 124.538922 69.7595 
C 121.922922 67.160377 118.374366 65.7 114.674782 65.7 
C 110.975199 65.7 107.426643 67.160377 104.810643 69.7595 
C 102.194642 72.358623 100.724782 75.884285 100.724782 79.56 
C 100.724782 83.235715 102.194642 86.761377 104.810643 89.3605 
C 107.426643 91.959623 110.975199 93.42 114.674782 93.42 
z
" clip-path="url(#pf1ca927da7)" style="fill: #c0504d; stroke: #366092; stroke-linejoin: miter"/>
   </g>
   <g id="patch_35">
    <path d="M 181.610203 93.42 
C 185.309787 93.42 188.858343 91.959623 191.474343 89.3605 
C 194.090343 86.761377 195.560203 83.235715 195.560203 79.56 
C 195.560203 75.884285 194.090343 72.358623 191.474343 69.7595 
C 188.858343 67.160377 185.309787 65.7 181.610203 65.7 
C 177.91062 65.7 174.362064 67.160377 171.746064 69.7595 
C 169.130063 72.358623 167.660203 75.884285 167.660203 79.56 
C 167.660203 83.235715 169.130063 86.761377 171.746064 89.3605 
C 174.362064 91.959623 177.91062 93.42 181.610203 93.42 
z
" clip-path="url(#pf1ca927da7)" style="fill: #c0504d; stroke: #366092; stroke-linejoin: miter"/>
   </g>
   <g id="patch_36">
    <path d="M 261.189797 93.42 
C 264.88938 93.42 268.437936 91.959623 271.053936 89.3605 
C 273.669937 86.761377 275.139797 83.235715 275.139797 79.56 
C 275.139797 75.884285 273.669937 72.358623 271.053936 69.7595 
C 268.437936 67.160377 264.88938 65.7 261.189797 65.7 
C 257.490213 65.7 253.941657 67.160377 251.325657 69.7595 
C 248.709657 72.358623 247.239797 75.884285 247.239797 79.56 
C 247.239797 83.235715 248.709657 86.761377 251.325657 89.3605 
C 253.941657 91.959623 257.490213 93.42 261.189797 93.42 
z
" clip-path="url(#pf1ca927da7)" style="fill: #c0504d; stroke: #366092; stroke-linejoin: miter"/>
   </g>
   <g id="patch_37">
    <path d="M 328.125218 93.42 
C 331.824801 93.42 335.373357 91.959623 337.989357 89.3605 
C 340.605358 86.761377 342.075218 83.235715 342.075218 79.56 
C 342.075218 75.884285 340.605358 72.358623 337.989357 69.7595 
C 335.373357 67.160377 331.824801 65.7 328.125218 65.7 
C 324.425634 65.7 320.877078 67.160377 318.261078 69.7595 
C 315.645078 72.358623 314.175218 75.884285 314.175218 79.56 
C 314.175218 83.235715 315.645078 86.761377 318.261078 89.3605 
C 320.877078 91.959623 324.425634 93.42 328.125218 93.42 
z
" clip-path="url(#pf1ca927da7)" style="fill: #c0504d; stroke: #366092; stroke-linejoin: miter"/>
   </g>
   <g id="patch_38">
    <path d="M 360.9 93.42 
C 364.599583 93.42 368.148139 91.959623 370.76414 89.3605 
C 373.38014 86.761377 374.85 83.235715 374.85 79.56 
C 374.85 75.884285 373.38014 72.358623 370.76414 69.7595 
C 368.148139 67.160377 364.599583 65.7 360.9 65.7 
C 357.200417 65.7 353.651861 67.160377 351.03586 69.7595 
C 348.41986 72.358623 346.95 75.884285 346.95 79.56 
C 346.95 83.235715 348.41986 86.761377 351.03586 89.3605 
C 353.651861 91.959623 357.200417 93.42 360.9 93.42 
z
" clip-path="url(#pf1ca927da7)" style="fill: #c0504d; stroke: #366092; stroke-linejoin: miter"/>
   </g>
  </g>
 </g>
 <defs>
  <clipPath id="pf1ca927da7">
   <rect x="54" y="51.84" width="334.8" height="332.64"/>
  </clipPath>
 </defs>
</svg>
