<?xml version="1.0" encoding="utf-8" standalone="no"?>
<!DOCTYPE svg PUBLIC "-//W3C//DTD SVG 1.1//EN"
  "http://www.w3.org/Graphics/SVG/1.1/DTD/svg11.dtd">
<svg xmlns:xlink="http://www.w3.org/1999/xlink" width="432pt" height="432pt" viewBox="0 0 432 432" xmlns="http://www.w3.org/2000/svg" version="1.1">
 <metadata>
  <rdf:RDF xmlns:dc="http://purl.org/dc/elements/1.1/" xmlns:cc="http://creativecommons.org/ns#" xmlns:rdf="http://www.w3.org/1999/02/22-rdf-syntax-ns#">
   <cc:Work>
    <dc:type rdf:resource="http://purl.org/dc/dcmitype/StillImage"/>
    <dc:date>2025-03-02T17:55:03.863457</dc:date>
    <dc:format>image/svg+xml</dc:format>
    <dc:creator>
     <cc:Agent>
      <dc:title>Matplotlib v3.10.0, https://matplotlib.org/</dc:title>
     </cc:Agent>
    </dc:creator>
   </cc:Work>
  </rdf:RDF>
 </metadata>
 <defs>
  <style type="text/css">*{stroke-linejoin: round; stroke-linecap: butt}</style>
 </defs>
 <g id="figure_1">
  <g id="patch_1">
   <path d="M 0 432 
L 432 432 
L 432 0 
L 0 0 
z
" style="fill: #ffffff"/>
  </g>
  <g id="axes_1">
   <g id="patch_2">
    <path d="M 81.9 356.76 
L 360.9 356.76 
L 360.9 79.56 
L 81.9 79.56 
L 81.9 356.76 
z
" clip-path="url(#pefc51b1407)" style="fill: none; stroke: #000000; stroke-width: 3; stroke-linejoin: miter"/>
   </g>
   <g id="patch_3">
    <path d="M 81.9 370.62 
C 85.599583 370.62 89.148139 369.159623 91.76414 366.5605 
C 94.38014 363.961377 95.85 360.435715 95.85 356.76 
C 95.85 353.084285 94.38014 349.558623 91.76414 346.9595 
C 89.148139 344.360377 85.599583 342.9 81.9 342.9 
C 78.200417 342.9 74.651861 344.360377 72.03586 346.9595 
C 69.41986 349.558623 67.95 353.084285 67.95 356.76 
C 67.95 360.435715 69.41986 363.961377 72.03586 366.5605 
C 74.651861 369.159623 78.200417 370.62 81.9 370.62 
z
" clip-path="url(#pefc51b1407)" style="fill: #c0504d; stroke: #366092; stroke-linejoin: miter"/>
   </g>
   <g id="patch_4">
    <path d="M 360.9 370.62 
C 364.599583 370.62 368.148139 369.159623 370.76414 366.5605 
C 373.38014 363.961377 374.85 360.435715 374.85 356.76 
C 374.85 353.084285 373.38014 349.558623 370.76414 346.9595 
C 368.148139 344.360377 364.599583 342.9 360.9 342.9 
C 357.200417 342.9 353.651861 344.360377 351.03586 346.9595 
C 348.41986 349.558623 346.95 353.084285 346.95 356.76 
C 346.95 360.435715 348.41986 363.961377 351.03586 366.5605 
C 353.651861 369.159623 357.200417 370.62 360.9 370.62 
z
" clip-path="url(#pefc51b1407)" style="fill: #c0504d; stroke: #366092; stroke-linejoin: miter"/>
   </g>
   <g id="patch_5">
    <path d="M 360.9 93.42 
C 364.599583 93.42 368.148139 91.959623 370.76414 89.3605 
C 373.38014 86.761377 374.85 83.235715 374.85 79.56 
C 374.85 75.884285 373.38014 72.358623 370.76414 69.7595 
C 368.148139 67.160377 364.599583 65.7 360.9 65.7 
C 357.200417 65.7 353.651861 67.160377 351.03586 69.7595 
C 348.41986 72.358623 346.95 75.884285 346.95 79.56 
C 346.95 83.235715 348.41986 86.761377 351.03586 89.3605 
C 353.651861 91.959623 357.200417 93.42 360.9 93.42 
z
" clip-path="url(#pefc51b1407)" style="fill: #c0504d; stroke: #366092; stroke-linejoin: miter"/>
   </g>
   <g id="patch_6">
    <path d="M 81.9 93.42 
C 85.599583 93.42 89.148139 91.959623 91.76414 89.3605 
C 94.38014 86.761377 95.85 83.235715 95.85 79.56 
C 95.85 75.884285 94.38014 72.358623 91.76414 69.7595 
C 89.148139 67.160377 85.599583 65.7 81.9 65.7 
C 78.200417 65.7 74.651861 67.160377 72.03586 69.7595 
C 69.41986 72.358623 67.95 75.884285 67.95 79.56 
C 67.95 83.235715 69.41986 86.761377 72.03586 89.3605 
C 74.651861 91.959623 78.200417 93.42 81.9 93.42 
z
" clip-path="url(#pefc51b1407)" style="fill: #c0504d; stroke: #366092; stroke-linejoin: miter"/>
   </g>
   <g id="patch_7">
    <path d="M 221.4 370.62 
C 225.099583 370.62 228.648139 369.159623 231.26414 366.5605 
C 233.88014 363.961377 235.35 360.435715 235.35 356.76 
C 235.35 353.084285 233.88014 349.558623 231.26414 346.9595 
C 228.648139 344.360377 225.099583 342.9 221.4 342.9 
C 217.700417 342.9 214.151861 344.360377 211.53586 346.9595 
C 208.91986 349.558623 207.45 353.084285 207.45 356.76 
C 207.45 360.435715 208.91986 363.961377 211.53586 366.5605 
C 214.151861 369.159623 217.700417 370.62 221.4 370.62 
z
" clip-path="url(#pefc51b1407)" style="fill: #c0504d; stroke: #366092; stroke-linejoin: miter"/>
   </g>
   <g id="patch_8">
    <path d="M 360.9 232.02 
C 364.599583 232.02 368.148139 230.559623 370.76414 227.9605 
C 373.38014 225.361377 374.85 221.835715 374.85 218.16 
C 374.85 214.484285 373.38014 210.958623 370.76414 208.3595 
C 368.148139 205.760377 364.599583 204.3 360.9 204.3 
C 357.200417 204.3 353.651861 205.760377 351.03586 208.3595 
C 348.41986 210.958623 346.95 214.484285 346.95 218.16 
C 346.95 221.835715 348.41986 225.361377 351.03586 227.9605 
C 353.651861 230.559623 357.200417 232.02 360.9 232.02 
z
" clip-path="url(#pefc51b1407)" style="fill: #c0504d; stroke: #366092; stroke-linejoin: miter"/>
   </g>
   <g id="patch_9">
    <path d="M 221.4 93.42 
C 225.099583 93.42 228.648139 91.959623 231.26414 89.3605 
C 233.88014 86.761377 235.35 83.235715 235.35 79.56 
C 235.35 75.884285 233.88014 72.358623 231.26414 69.7595 
C 228.648139 67.160377 225.099583 65.7 221.4 65.7 
C 217.700417 65.7 214.151861 67.160377 211.53586 69.7595 
C 208.91986 72.358623 207.45 75.884285 207.45 79.56 
C 207.45 83.235715 208.91986 86.761377 211.53586 89.3605 
C 214.151861 91.959623 217.700417 93.42 221.4 93.42 
z
" clip-path="url(#pefc51b1407)" style="fill: #c0504d; stroke: #366092; stroke-linejoin: miter"/>
   </g>
   <g id="patch_10">
    <path d="M 81.9 232.02 
C 85.599583 232.02 89.148139 230.559623 91.76414 227.9605 
C 94.38014 225.361377 95.85 221.835715 95.85 218.16 
C 95.85 214.484285 94.38014 210.958623 91.76414 208.3595 
C 89.148139 205.760377 85.599583 204.3 81.9 204.3 
C 78.200417 204.3 74.651861 205.760377 72.03586 208.3595 
C 69.41986 210.958623 67.95 214.484285 67.95 218.16 
C 67.95 221.835715 69.41986 225.361377 72.03586 227.9605 
C 74.651861 230.559623 78.200417 232.02 81.9 232.02 
z
" clip-path="url(#pefc51b1407)" style="fill: #c0504d; stroke: #366092; stroke-linejoin: miter"/>
   </g>
   <g id="patch_11">
    <path d="M 221.4 232.02 
C 225.099583 232.02 228.648139 230.559623 231.26414 227.9605 
C 233.88014 225.361377 235.35 221.835715 235.35 218.16 
C 235.35 214.484285 233.88014 210.958623 231.26414 208.3595 
C 228.648139 205.760377 225.099583 204.3 221.4 204.3 
C 217.700417 204.3 214.151861 205.760377 211.53586 208.3595 
C 208.91986 210.958623 207.45 214.484285 207.45 218.16 
C 207.45 221.835715 208.91986 225.361377 211.53586 227.9605 
C 214.151861 230.559623 217.700417 232.02 221.4 232.02 
z
" clip-path="url(#pefc51b1407)" style="fill: #c0504d; stroke: #366092; stroke-linejoin: miter"/>
   </g>
  </g>
 </g>
 <defs>
  <clipPath id="pefc51b1407">
   <rect x="54" y="51.84" width="334.8" height="332.64"/>
  </clipPath>
 </defs>
</svg>
