<?xml version="1.0" encoding="utf-8" standalone="no"?>
<!DOCTYPE svg PUBLIC "-//W3C//DTD SVG 1.1//EN"
  "http://www.w3.org/Graphics/SVG/1.1/DTD/svg11.dtd">
<svg xmlns:xlink="http://www.w3.org/1999/xlink" width="432pt" height="432pt" viewBox="0 0 432 432" xmlns="http://www.w3.org/2000/svg" version="1.1">
 <metadata>
  <rdf:RDF xmlns:dc="http://purl.org/dc/elements/1.1/" xmlns:cc="http://creativecommons.org/ns#" xmlns:rdf="http://www.w3.org/1999/02/22-rdf-syntax-ns#">
   <cc:Work>
    <dc:type rdf:resource="http://purl.org/dc/dcmitype/StillImage"/>
    <dc:date>2025-03-02T17:55:04.278473</dc:date>
    <dc:format>image/svg+xml</dc:format>
    <dc:creator>
     <cc:Agent>
      <dc:title>Matplotlib v3.10.0, https://matplotlib.org/</dc:title>
     </cc:Agent>
    </dc:creator>
   </cc:Work>
  </rdf:RDF>
 </metadata>
 <defs>
  <style type="text/css">*{stroke-linejoin: round; stroke-linecap: butt}</style>
 </defs>
 <g id="figure_1">
  <g id="patch_1">
   <path d="M 0 432 
L 432 432 
L 432 0 
L 0 0 
z
" style="fill: #ffffff"/>
  </g>
  <g id="axes_1">
   <g id="patch_2">
    <path d="M 81.9 356.76 
L 360.9 356.76 
L 360.9 79.56 
L 81.9 79.56 
L 81.9 356.76 
z
" clip-path="url(#p1ffc9fbdae)" style="fill: none; stroke: #000000; stroke-width: 3; stroke-linejoin: miter"/>
   </g>
   <g id="patch_3">
    <path d="M 81.9 370.62 
C 85.599583 370.62 89.148139 369.159623 91.76414 366.5605 
C 94.38014 363.961377 95.85 360.435715 95.85 356.76 
C 95.85 353.084285 94.38014 349.558623 91.76414 346.9595 
C 89.148139 344.360377 85.599583 342.9 81.9 342.9 
C 78.200417 342.9 74.651861 344.360377 72.03586 346.9595 
C 69.41986 349.558623 67.95 353.084285 67.95 356.76 
C 67.95 360.435715 69.41986 363.961377 72.03586 366.5605 
C 74.651861 369.159623 78.200417 370.62 81.9 370.62 
z
" clip-path="url(#p1ffc9fbdae)" style="fill: #c0504d; stroke: #366092; stroke-linejoin: miter"/>
   </g>
   <g id="patch_4">
    <path d="M 360.9 370.62 
C 364.599583 370.62 368.148139 369.159623 370.76414 366.5605 
C 373.38014 363.961377 374.85 360.435715 374.85 356.76 
C 374.85 353.084285 373.38014 349.558623 370.76414 346.9595 
C 368.148139 344.360377 364.599583 342.9 360.9 342.9 
C 357.200417 342.9 353.651861 344.360377 351.03586 346.9595 
C 348.41986 349.558623 346.95 353.084285 346.95 356.76 
C 346.95 360.435715 348.41986 363.961377 351.03586 366.5605 
C 353.651861 369.159623 357.200417 370.62 360.9 370.62 
z
" clip-path="url(#p1ffc9fbdae)" style="fill: #c0504d; stroke: #366092; stroke-linejoin: miter"/>
   </g>
   <g id="patch_5">
    <path d="M 360.9 93.42 
C 364.599583 93.42 368.148139 91.959623 370.76414 89.3605 
C 373.38014 86.761377 374.85 83.235715 374.85 79.56 
C 374.85 75.884285 373.38014 72.358623 370.76414 69.7595 
C 368.148139 67.160377 364.599583 65.7 360.9 65.7 
C 357.200417 65.7 353.651861 67.160377 351.03586 69.7595 
C 348.41986 72.358623 346.95 75.884285 346.95 79.56 
C 346.95 83.235715 348.41986 86.761377 351.03586 89.3605 
C 353.651861 91.959623 357.200417 93.42 360.9 93.42 
z
" clip-path="url(#p1ffc9fbdae)" style="fill: #c0504d; stroke: #366092; stroke-linejoin: miter"/>
   </g>
   <g id="patch_6">
    <path d="M 81.9 93.42 
C 85.599583 93.42 89.148139 91.959623 91.76414 89.3605 
C 94.38014 86.761377 95.85 83.235715 95.85 79.56 
C 95.85 75.884285 94.38014 72.358623 91.76414 69.7595 
C 89.148139 67.160377 85.599583 65.7 81.9 65.7 
C 78.200417 65.7 74.651861 67.160377 72.03586 69.7595 
C 69.41986 72.358623 67.95 75.884285 67.95 79.56 
C 67.95 83.235715 69.41986 86.761377 72.03586 89.3605 
C 74.651861 91.959623 78.200417 93.42 81.9 93.42 
z
" clip-path="url(#p1ffc9fbdae)" style="fill: #c0504d; stroke: #366092; stroke-linejoin: miter"/>
   </g>
   <g id="patch_7">
    <path d="M 151.65 370.62 
C 155.349583 370.62 158.898139 369.159623 161.51414 366.5605 
C 164.13014 363.961377 165.6 360.435715 165.6 356.76 
C 165.6 353.084285 164.13014 349.558623 161.51414 346.9595 
C 158.898139 344.360377 155.349583 342.9 151.65 342.9 
C 147.950417 342.9 144.401861 344.360377 141.78586 346.9595 
C 139.16986 349.558623 137.7 353.084285 137.7 356.76 
C 137.7 360.435715 139.16986 363.961377 141.78586 366.5605 
C 144.401861 369.159623 147.950417 370.62 151.65 370.62 
z
" clip-path="url(#p1ffc9fbdae)" style="fill: #c0504d; stroke: #366092; stroke-linejoin: miter"/>
   </g>
   <g id="patch_8">
    <path d="M 221.4 370.62 
C 225.099583 370.62 228.648139 369.159623 231.26414 366.5605 
C 233.88014 363.961377 235.35 360.435715 235.35 356.76 
C 235.35 353.084285 233.88014 349.558623 231.26414 346.9595 
C 228.648139 344.360377 225.099583 342.9 221.4 342.9 
C 217.700417 342.9 214.151861 344.360377 211.53586 346.9595 
C 208.91986 349.558623 207.45 353.084285 207.45 356.76 
C 207.45 360.435715 208.91986 363.961377 211.53586 366.5605 
C 214.151861 369.159623 217.700417 370.62 221.4 370.62 
z
" clip-path="url(#p1ffc9fbdae)" style="fill: #c0504d; stroke: #366092; stroke-linejoin: miter"/>
   </g>
   <g id="patch_9">
    <path d="M 291.15 370.62 
C 294.849583 370.62 298.398139 369.159623 301.01414 366.5605 
C 303.63014 363.961377 305.1 360.435715 305.1 356.76 
C 305.1 353.084285 303.63014 349.558623 301.01414 346.9595 
C 298.398139 344.360377 294.849583 342.9 291.15 342.9 
C 287.450417 342.9 283.901861 344.360377 281.28586 346.9595 
C 278.66986 349.558623 277.2 353.084285 277.2 356.76 
C 277.2 360.435715 278.66986 363.961377 281.28586 366.5605 
C 283.901861 369.159623 287.450417 370.62 291.15 370.62 
z
" clip-path="url(#p1ffc9fbdae)" style="fill: #c0504d; stroke: #366092; stroke-linejoin: miter"/>
   </g>
   <g id="patch_10">
    <path d="M 360.9 301.32 
C 364.599583 301.32 368.148139 299.859623 370.76414 297.2605 
C 373.38014 294.661377 374.85 291.135715 374.85 287.46 
C 374.85 283.784285 373.38014 280.258623 370.76414 277.6595 
C 368.148139 275.060377 364.599583 273.6 360.9 273.6 
C 357.200417 273.6 353.651861 275.060377 351.03586 277.6595 
C 348.41986 280.258623 346.95 283.784285 346.95 287.46 
C 346.95 291.135715 348.41986 294.661377 351.03586 297.2605 
C 353.651861 299.859623 357.200417 301.32 360.9 301.32 
z
" clip-path="url(#p1ffc9fbdae)" style="fill: #c0504d; stroke: #366092; stroke-linejoin: miter"/>
   </g>
   <g id="patch_11">
    <path d="M 360.9 232.02 
C 364.599583 232.02 368.148139 230.559623 370.76414 227.9605 
C 373.38014 225.361377 374.85 221.835715 374.85 218.16 
C 374.85 214.484285 373.38014 210.958623 370.76414 208.3595 
C 368.148139 205.760377 364.599583 204.3 360.9 204.3 
C 357.200417 204.3 353.651861 205.760377 351.03586 208.3595 
C 348.41986 210.958623 346.95 214.484285 346.95 218.16 
C 346.95 221.835715 348.41986 225.361377 351.03586 227.9605 
C 353.651861 230.559623 357.200417 232.02 360.9 232.02 
z
" clip-path="url(#p1ffc9fbdae)" style="fill: #c0504d; stroke: #366092; stroke-linejoin: miter"/>
   </g>
   <g id="patch_12">
    <path d="M 360.9 162.72 
C 364.599583 162.72 368.148139 161.259623 370.76414 158.6605 
C 373.38014 156.061377 374.85 152.535715 374.85 148.86 
C 374.85 145.184285 373.38014 141.658623 370.76414 139.0595 
C 368.148139 136.460377 364.599583 135 360.9 135 
C 357.200417 135 353.651861 136.460377 351.03586 139.0595 
C 348.41986 141.658623 346.95 145.184285 346.95 148.86 
C 346.95 152.535715 348.41986 156.061377 351.03586 158.6605 
C 353.651861 161.259623 357.200417 162.72 360.9 162.72 
z
" clip-path="url(#p1ffc9fbdae)" style="fill: #c0504d; stroke: #366092; stroke-linejoin: miter"/>
   </g>
   <g id="patch_13">
    <path d="M 291.15 93.42 
C 294.849583 93.42 298.398139 91.959623 301.01414 89.3605 
C 303.63014 86.761377 305.1 83.235715 305.1 79.56 
C 305.1 75.884285 303.63014 72.358623 301.01414 69.7595 
C 298.398139 67.160377 294.849583 65.7 291.15 65.7 
C 287.450417 65.7 283.901861 67.160377 281.28586 69.7595 
C 278.66986 72.358623 277.2 75.884285 277.2 79.56 
C 277.2 83.235715 278.66986 86.761377 281.28586 89.3605 
C 283.901861 91.959623 287.450417 93.42 291.15 93.42 
z
" clip-path="url(#p1ffc9fbdae)" style="fill: #c0504d; stroke: #366092; stroke-linejoin: miter"/>
   </g>
   <g id="patch_14">
    <path d="M 221.4 93.42 
C 225.099583 93.42 228.648139 91.959623 231.26414 89.3605 
C 233.88014 86.761377 235.35 83.235715 235.35 79.56 
C 235.35 75.884285 233.88014 72.358623 231.26414 69.7595 
C 228.648139 67.160377 225.099583 65.7 221.4 65.7 
C 217.700417 65.7 214.151861 67.160377 211.53586 69.7595 
C 208.91986 72.358623 207.45 75.884285 207.45 79.56 
C 207.45 83.235715 208.91986 86.761377 211.53586 89.3605 
C 214.151861 91.959623 217.700417 93.42 221.4 93.42 
z
" clip-path="url(#p1ffc9fbdae)" style="fill: #c0504d; stroke: #366092; stroke-linejoin: miter"/>
   </g>
   <g id="patch_15">
    <path d="M 151.65 93.42 
C 155.349583 93.42 158.898139 91.959623 161.51414 89.3605 
C 164.13014 86.761377 165.6 83.235715 165.6 79.56 
C 165.6 75.884285 164.13014 72.358623 161.51414 69.7595 
C 158.898139 67.160377 155.349583 65.7 151.65 65.7 
C 147.950417 65.7 144.401861 67.160377 141.78586 69.7595 
C 139.16986 72.358623 137.7 75.884285 137.7 79.56 
C 137.7 83.235715 139.16986 86.761377 141.78586 89.3605 
C 144.401861 91.959623 147.950417 93.42 151.65 93.42 
z
" clip-path="url(#p1ffc9fbdae)" style="fill: #c0504d; stroke: #366092; stroke-linejoin: miter"/>
   </g>
   <g id="patch_16">
    <path d="M 81.9 162.72 
C 85.599583 162.72 89.148139 161.259623 91.76414 158.6605 
C 94.38014 156.061377 95.85 152.535715 95.85 148.86 
C 95.85 145.184285 94.38014 141.658623 91.76414 139.0595 
C 89.148139 136.460377 85.599583 135 81.9 135 
C 78.200417 135 74.651861 136.460377 72.03586 139.0595 
C 69.41986 141.658623 67.95 145.184285 67.95 148.86 
C 67.95 152.535715 69.41986 156.061377 72.03586 158.6605 
C 74.651861 161.259623 78.200417 162.72 81.9 162.72 
z
" clip-path="url(#p1ffc9fbdae)" style="fill: #c0504d; stroke: #366092; stroke-linejoin: miter"/>
   </g>
   <g id="patch_17">
    <path d="M 81.9 232.02 
C 85.599583 232.02 89.148139 230.559623 91.76414 227.9605 
C 94.38014 225.361377 95.85 221.835715 95.85 218.16 
C 95.85 214.484285 94.38014 210.958623 91.76414 208.3595 
C 89.148139 205.760377 85.599583 204.3 81.9 204.3 
C 78.200417 204.3 74.651861 205.760377 72.03586 208.3595 
C 69.41986 210.958623 67.95 214.484285 67.95 218.16 
C 67.95 221.835715 69.41986 225.361377 72.03586 227.9605 
C 74.651861 230.559623 78.200417 232.02 81.9 232.02 
z
" clip-path="url(#p1ffc9fbdae)" style="fill: #c0504d; stroke: #366092; stroke-linejoin: miter"/>
   </g>
   <g id="patch_18">
    <path d="M 81.9 301.32 
C 85.599583 301.32 89.148139 299.859623 91.76414 297.2605 
C 94.38014 294.661377 95.85 291.135715 95.85 287.46 
C 95.85 283.784285 94.38014 280.258623 91.76414 277.6595 
C 89.148139 275.060377 85.599583 273.6 81.9 273.6 
C 78.200417 273.6 74.651861 275.060377 72.03586 277.6595 
C 69.41986 280.258623 67.95 283.784285 67.95 287.46 
C 67.95 291.135715 69.41986 294.661377 72.03586 297.2605 
C 74.651861 299.859623 78.200417 301.32 81.9 301.32 
z
" clip-path="url(#p1ffc9fbdae)" style="fill: #c0504d; stroke: #366092; stroke-linejoin: miter"/>
   </g>
   <g id="patch_19">
    <path d="M 151.65 301.32 
C 155.349583 301.32 158.898139 299.859623 161.51414 297.2605 
C 164.13014 294.661377 165.6 291.135715 165.6 287.46 
C 165.6 283.784285 164.13014 280.258623 161.51414 277.6595 
C 158.898139 275.060377 155.349583 273.6 151.65 273.6 
C 147.950417 273.6 144.401861 275.060377 141.78586 277.6595 
C 139.16986 280.258623 137.7 283.784285 137.7 287.46 
C 137.7 291.135715 139.16986 294.661377 141.78586 297.2605 
C 144.401861 299.859623 147.950417 301.32 151.65 301.32 
z
" clip-path="url(#p1ffc9fbdae)" style="fill: #c0504d; stroke: #366092; stroke-linejoin: miter"/>
   </g>
   <g id="patch_20">
    <path d="M 221.4 301.32 
C 225.099583 301.32 228.648139 299.859623 231.26414 297.2605 
C 233.88014 294.661377 235.35 291.135715 235.35 287.46 
C 235.35 283.784285 233.88014 280.258623 231.26414 277.6595 
C 228.648139 275.060377 225.099583 273.6 221.4 273.6 
C 217.700417 273.6 214.151861 275.060377 211.53586 277.6595 
C 208.91986 280.258623 207.45 283.784285 207.45 287.46 
C 207.45 291.135715 208.91986 294.661377 211.53586 297.2605 
C 214.151861 299.859623 217.700417 301.32 221.4 301.32 
z
" clip-path="url(#p1ffc9fbdae)" style="fill: #c0504d; stroke: #366092; stroke-linejoin: miter"/>
   </g>
   <g id="patch_21">
    <path d="M 291.15 301.32 
C 294.849583 301.32 298.398139 299.859623 301.01414 297.2605 
C 303.63014 294.661377 305.1 291.135715 305.1 287.46 
C 305.1 283.784285 303.63014 280.258623 301.01414 277.6595 
C 298.398139 275.060377 294.849583 273.6 291.15 273.6 
C 287.450417 273.6 283.901861 275.060377 281.28586 277.6595 
C 278.66986 280.258623 277.2 283.784285 277.2 287.46 
C 277.2 291.135715 278.66986 294.661377 281.28586 297.2605 
C 283.901861 299.859623 287.450417 301.32 291.15 301.32 
z
" clip-path="url(#p1ffc9fbdae)" style="fill: #c0504d; stroke: #366092; stroke-linejoin: miter"/>
   </g>
   <g id="patch_22">
    <path d="M 151.65 232.02 
C 155.349583 232.02 158.898139 230.559623 161.51414 227.9605 
C 164.13014 225.361377 165.6 221.835715 165.6 218.16 
C 165.6 214.484285 164.13014 210.958623 161.51414 208.3595 
C 158.898139 205.760377 155.349583 204.3 151.65 204.3 
C 147.950417 204.3 144.401861 205.760377 141.78586 208.3595 
C 139.16986 210.958623 137.7 214.484285 137.7 218.16 
C 137.7 221.835715 139.16986 225.361377 141.78586 227.9605 
C 144.401861 230.559623 147.950417 232.02 151.65 232.02 
z
" clip-path="url(#p1ffc9fbdae)" style="fill: #c0504d; stroke: #366092; stroke-linejoin: miter"/>
   </g>
   <g id="patch_23">
    <path d="M 221.4 232.02 
C 225.099583 232.02 228.648139 230.559623 231.26414 227.9605 
C 233.88014 225.361377 235.35 221.835715 235.35 218.16 
C 235.35 214.484285 233.88014 210.958623 231.26414 208.3595 
C 228.648139 205.760377 225.099583 204.3 221.4 204.3 
C 217.700417 204.3 214.151861 205.760377 211.53586 208.3595 
C 208.91986 210.958623 207.45 214.484285 207.45 218.16 
C 207.45 221.835715 208.91986 225.361377 211.53586 227.9605 
C 214.151861 230.559623 217.700417 232.02 221.4 232.02 
z
" clip-path="url(#p1ffc9fbdae)" style="fill: #c0504d; stroke: #366092; stroke-linejoin: miter"/>
   </g>
   <g id="patch_24">
    <path d="M 291.15 232.02 
C 294.849583 232.02 298.398139 230.559623 301.01414 227.9605 
C 303.63014 225.361377 305.1 221.835715 305.1 218.16 
C 305.1 214.484285 303.63014 210.958623 301.01414 208.3595 
C 298.398139 205.760377 294.849583 204.3 291.15 204.3 
C 287.450417 204.3 283.901861 205.760377 281.28586 208.3595 
C 278.66986 210.958623 277.2 214.484285 277.2 218.16 
C 277.2 221.835715 278.66986 225.361377 281.28586 227.9605 
C 283.901861 230.559623 287.450417 232.02 291.15 232.02 
z
" clip-path="url(#p1ffc9fbdae)" style="fill: #c0504d; stroke: #366092; stroke-linejoin: miter"/>
   </g>
   <g id="patch_25">
    <path d="M 151.65 162.72 
C 155.349583 162.72 158.898139 161.259623 161.51414 158.6605 
C 164.13014 156.061377 165.6 152.535715 165.6 148.86 
C 165.6 145.184285 164.13014 141.658623 161.51414 139.0595 
C 158.898139 136.460377 155.349583 135 151.65 135 
C 147.950417 135 144.401861 136.460377 141.78586 139.0595 
C 139.16986 141.658623 137.7 145.184285 137.7 148.86 
C 137.7 152.535715 139.16986 156.061377 141.78586 158.6605 
C 144.401861 161.259623 147.950417 162.72 151.65 162.72 
z
" clip-path="url(#p1ffc9fbdae)" style="fill: #c0504d; stroke: #366092; stroke-linejoin: miter"/>
   </g>
   <g id="patch_26">
    <path d="M 221.4 162.72 
C 225.099583 162.72 228.648139 161.259623 231.26414 158.6605 
C 233.88014 156.061377 235.35 152.535715 235.35 148.86 
C 235.35 145.184285 233.88014 141.658623 231.26414 139.0595 
C 228.648139 136.460377 225.099583 135 221.4 135 
C 217.700417 135 214.151861 136.460377 211.53586 139.0595 
C 208.91986 141.658623 207.45 145.184285 207.45 148.86 
C 207.45 152.535715 208.91986 156.061377 211.53586 158.6605 
C 214.151861 161.259623 217.700417 162.72 221.4 162.72 
z
" clip-path="url(#p1ffc9fbdae)" style="fill: #c0504d; stroke: #366092; stroke-linejoin: miter"/>
   </g>
   <g id="patch_27">
    <path d="M 291.15 162.72 
C 294.849583 162.72 298.398139 161.259623 301.01414 158.6605 
C 303.63014 156.061377 305.1 152.535715 305.1 148.86 
C 305.1 145.184285 303.63014 141.658623 301.01414 139.0595 
C 298.398139 136.460377 294.849583 135 291.15 135 
C 287.450417 135 283.901861 136.460377 281.28586 139.0595 
C 278.66986 141.658623 277.2 145.184285 277.2 148.86 
C 277.2 152.535715 278.66986 156.061377 281.28586 158.6605 
C 283.901861 161.259623 287.450417 162.72 291.15 162.72 
z
" clip-path="url(#p1ffc9fbdae)" style="fill: #c0504d; stroke: #366092; stroke-linejoin: miter"/>
   </g>
  </g>
 </g>
 <defs>
  <clipPath id="p1ffc9fbdae">
   <rect x="54" y="51.84" width="334.8" height="332.64"/>
  </clipPath>
 </defs>
</svg>
