<?xml version="1.0" encoding="utf-8" standalone="no"?>
<!DOCTYPE svg PUBLIC "-//W3C//DTD SVG 1.1//EN"
  "http://www.w3.org/Graphics/SVG/1.1/DTD/svg11.dtd">
<svg xmlns:xlink="http://www.w3.org/1999/xlink" width="432pt" height="432pt" viewBox="0 0 432 432" xmlns="http://www.w3.org/2000/svg" version="1.1">
 <metadata>
  <rdf:RDF xmlns:dc="http://purl.org/dc/elements/1.1/" xmlns:cc="http://creativecommons.org/ns#" xmlns:rdf="http://www.w3.org/1999/02/22-rdf-syntax-ns#">
   <cc:Work>
    <dc:type rdf:resource="http://purl.org/dc/dcmitype/StillImage"/>
    <dc:date>2025-03-02T17:55:04.119939</dc:date>
    <dc:format>image/svg+xml</dc:format>
    <dc:creator>
     <cc:Agent>
      <dc:title>Matplotlib v3.10.0, https://matplotlib.org/</dc:title>
     </cc:Agent>
    </dc:creator>
   </cc:Work>
  </rdf:RDF>
 </metadata>
 <defs>
  <style type="text/css">*{stroke-linejoin: round; stroke-linecap: butt}</style>
 </defs>
 <g id="figure_1">
  <g id="patch_1">
   <path d="M 0 432 
L 432 432 
L 432 0 
L 0 0 
z
" style="fill: #ffffff"/>
  </g>
  <g id="axes_1">
   <g id="patch_2">
    <path d="M 81.9 356.76 
L 360.9 356.76 
L 360.9 79.56 
L 81.9 79.56 
L 81.9 356.76 
z
" clip-path="url(#pa9a222ec22)" style="fill: none; stroke: #000000; stroke-width: 3; stroke-linejoin: miter"/>
   </g>
   <g id="patch_3">
    <path d="M 81.9 370.62 
C 85.599583 370.62 89.148139 369.159623 91.76414 366.5605 
C 94.38014 363.961377 95.85 360.435715 95.85 356.76 
C 95.85 353.084285 94.38014 349.558623 91.76414 346.9595 
C 89.148139 344.360377 85.599583 342.9 81.9 342.9 
C 78.200417 342.9 74.651861 344.360377 72.03586 346.9595 
C 69.41986 349.558623 67.95 353.084285 67.95 356.76 
C 67.95 360.435715 69.41986 363.961377 72.03586 366.5605 
C 74.651861 369.159623 78.200417 370.62 81.9 370.62 
z
" clip-path="url(#pa9a222ec22)" style="fill: #c0504d; stroke: #366092; stroke-linejoin: miter"/>
   </g>
   <g id="patch_4">
    <path d="M 360.9 370.62 
C 364.599583 370.62 368.148139 369.159623 370.76414 366.5605 
C 373.38014 363.961377 374.85 360.435715 374.85 356.76 
C 374.85 353.084285 373.38014 349.558623 370.76414 346.9595 
C 368.148139 344.360377 364.599583 342.9 360.9 342.9 
C 357.200417 342.9 353.651861 344.360377 351.03586 346.9595 
C 348.41986 349.558623 346.95 353.084285 346.95 356.76 
C 346.95 360.435715 348.41986 363.961377 351.03586 366.5605 
C 353.651861 369.159623 357.200417 370.62 360.9 370.62 
z
" clip-path="url(#pa9a222ec22)" style="fill: #c0504d; stroke: #366092; stroke-linejoin: miter"/>
   </g>
   <g id="patch_5">
    <path d="M 360.9 93.42 
C 364.599583 93.42 368.148139 91.959623 370.76414 89.3605 
C 373.38014 86.761377 374.85 83.235715 374.85 79.56 
C 374.85 75.884285 373.38014 72.358623 370.76414 69.7595 
C 368.148139 67.160377 364.599583 65.7 360.9 65.7 
C 357.200417 65.7 353.651861 67.160377 351.03586 69.7595 
C 348.41986 72.358623 346.95 75.884285 346.95 79.56 
C 346.95 83.235715 348.41986 86.761377 351.03586 89.3605 
C 353.651861 91.959623 357.200417 93.42 360.9 93.42 
z
" clip-path="url(#pa9a222ec22)" style="fill: #c0504d; stroke: #366092; stroke-linejoin: miter"/>
   </g>
   <g id="patch_6">
    <path d="M 81.9 93.42 
C 85.599583 93.42 89.148139 91.959623 91.76414 89.3605 
C 94.38014 86.761377 95.85 83.235715 95.85 79.56 
C 95.85 75.884285 94.38014 72.358623 91.76414 69.7595 
C 89.148139 67.160377 85.599583 65.7 81.9 65.7 
C 78.200417 65.7 74.651861 67.160377 72.03586 69.7595 
C 69.41986 72.358623 67.95 75.884285 67.95 79.56 
C 67.95 83.235715 69.41986 86.761377 72.03586 89.3605 
C 74.651861 91.959623 78.200417 93.42 81.9 93.42 
z
" clip-path="url(#pa9a222ec22)" style="fill: #c0504d; stroke: #366092; stroke-linejoin: miter"/>
   </g>
  </g>
 </g>
 <defs>
  <clipPath id="pa9a222ec22">
   <rect x="54" y="51.84" width="334.8" height="332.64"/>
  </clipPath>
 </defs>
</svg>
