<?xml version="1.0" encoding="utf-8" standalone="no"?>
<!DOCTYPE svg PUBLIC "-//W3C//DTD SVG 1.1//EN"
  "http://www.w3.org/Graphics/SVG/1.1/DTD/svg11.dtd">
<svg xmlns:xlink="http://www.w3.org/1999/xlink" width="432pt" height="432pt" viewBox="0 0 432 432" xmlns="http://www.w3.org/2000/svg" version="1.1">
 <metadata>
  <rdf:RDF xmlns:dc="http://purl.org/dc/elements/1.1/" xmlns:cc="http://creativecommons.org/ns#" xmlns:rdf="http://www.w3.org/1999/02/22-rdf-syntax-ns#">
   <cc:Work>
    <dc:type rdf:resource="http://purl.org/dc/dcmitype/StillImage"/>
    <dc:date>2025-03-02T17:55:04.709670</dc:date>
    <dc:format>image/svg+xml</dc:format>
    <dc:creator>
     <cc:Agent>
      <dc:title>Matplotlib v3.10.0, https://matplotlib.org/</dc:title>
     </cc:Agent>
    </dc:creator>
   </cc:Work>
  </rdf:RDF>
 </metadata>
 <defs>
  <style type="text/css">*{stroke-linejoin: round; stroke-linecap: butt}</style>
 </defs>
 <g id="figure_1">
  <g id="patch_1">
   <path d="M 0 432 
L 432 432 
L 432 0 
L 0 0 
z
" style="fill: #ffffff"/>
  </g>
  <g id="axes_1">
   <g id="patch_2">
    <path d="M 81.9 356.76 
L 360.9 356.76 
L 360.9 79.56 
L 81.9 79.56 
L 81.9 356.76 
z
" clip-path="url(#p3a76386514)" style="fill: none; stroke: #000000; stroke-width: 3; stroke-linejoin: miter"/>
   </g>
   <g id="patch_3">
    <path d="M 140.859637 312.040747 
C 144.559221 312.040747 148.107777 310.58037 150.723777 307.981247 
C 153.339777 305.382124 154.809637 301.856462 154.809637 298.180747 
C 154.809637 294.505032 153.339777 290.97937 150.723777 288.380247 
C 148.107777 285.781124 144.559221 284.320747 140.859637 284.320747 
C 137.160054 284.320747 133.611498 285.781124 130.995498 288.380247 
C 128.379497 290.97937 126.909637 294.505032 126.909637 298.180747 
C 126.909637 301.856462 128.379497 305.382124 130.995498 307.981247 
C 133.611498 310.58037 137.160054 312.040747 140.859637 312.040747 
z
" clip-path="url(#p3a76386514)" style="fill: #c0504d; stroke: #366092; stroke-linejoin: miter"/>
   </g>
   <g id="patch_4">
    <path d="M 301.940363 312.040747 
C 305.639946 312.040747 309.188502 310.58037 311.804502 307.981247 
C 314.420503 305.382124 315.890363 301.856462 315.890363 298.180747 
C 315.890363 294.505032 314.420503 290.97937 311.804502 288.380247 
C 309.188502 285.781124 305.639946 284.320747 301.940363 284.320747 
C 298.240779 284.320747 294.692223 285.781124 292.076223 288.380247 
C 289.460223 290.97937 287.990363 294.505032 287.990363 298.180747 
C 287.990363 301.856462 289.460223 305.382124 292.076223 307.981247 
C 294.692223 310.58037 298.240779 312.040747 301.940363 312.040747 
z
" clip-path="url(#p3a76386514)" style="fill: #c0504d; stroke: #366092; stroke-linejoin: miter"/>
   </g>
   <g id="patch_5">
    <path d="M 140.859637 151.999253 
C 144.559221 151.999253 148.107777 150.538876 150.723777 147.939753 
C 153.339777 145.34063 154.809637 141.814968 154.809637 138.139253 
C 154.809637 134.463538 153.339777 130.937876 150.723777 128.338753 
C 148.107777 125.73963 144.559221 124.279253 140.859637 124.279253 
C 137.160054 124.279253 133.611498 125.73963 130.995498 128.338753 
C 128.379497 130.937876 126.909637 134.463538 126.909637 138.139253 
C 126.909637 141.814968 128.379497 145.34063 130.995498 147.939753 
C 133.611498 150.538876 137.160054 151.999253 140.859637 151.999253 
z
" clip-path="url(#p3a76386514)" style="fill: #c0504d; stroke: #366092; stroke-linejoin: miter"/>
   </g>
   <g id="patch_6">
    <path d="M 301.940363 151.999253 
C 305.639946 151.999253 309.188502 150.538876 311.804502 147.939753 
C 314.420503 145.34063 315.890363 141.814968 315.890363 138.139253 
C 315.890363 134.463538 314.420503 130.937876 311.804502 128.338753 
C 309.188502 125.73963 305.639946 124.279253 301.940363 124.279253 
C 298.240779 124.279253 294.692223 125.73963 292.076223 128.338753 
C 289.460223 130.937876 287.990363 134.463538 287.990363 138.139253 
C 287.990363 141.814968 289.460223 145.34063 292.076223 147.939753 
C 294.692223 150.538876 298.240779 151.999253 301.940363 151.999253 
z
" clip-path="url(#p3a76386514)" style="fill: #c0504d; stroke: #366092; stroke-linejoin: miter"/>
   </g>
  </g>
 </g>
 <defs>
  <clipPath id="p3a76386514">
   <rect x="54" y="51.84" width="334.8" height="332.64"/>
  </clipPath>
 </defs>
</svg>
