<?xml version="1.0" encoding="utf-8" standalone="no"?>
<!DOCTYPE svg PUBLIC "-//W3C//DTD SVG 1.1//EN"
  "http://www.w3.org/Graphics/SVG/1.1/DTD/svg11.dtd">
<svg xmlns:xlink="http://www.w3.org/1999/xlink" width="432pt" height="432pt" viewBox="0 0 432 432" xmlns="http://www.w3.org/2000/svg" version="1.1">
 <metadata>
  <rdf:RDF xmlns:dc="http://purl.org/dc/elements/1.1/" xmlns:cc="http://creativecommons.org/ns#" xmlns:rdf="http://www.w3.org/1999/02/22-rdf-syntax-ns#">
   <cc:Work>
    <dc:type rdf:resource="http://purl.org/dc/dcmitype/StillImage"/>
    <dc:date>2025-03-02T17:55:04.839562</dc:date>
    <dc:format>image/svg+xml</dc:format>
    <dc:creator>
     <cc:Agent>
      <dc:title>Matplotlib v3.10.0, https://matplotlib.org/</dc:title>
     </cc:Agent>
    </dc:creator>
   </cc:Work>
  </rdf:RDF>
 </metadata>
 <defs>
  <style type="text/css">*{stroke-linejoin: round; stroke-linecap: butt}</style>
 </defs>
 <g id="figure_1">
  <g id="patch_1">
   <path d="M 0 432 
L 432 432 
L 432 0 
L 0 0 
z
" style="fill: #ffffff"/>
  </g>
  <g id="axes_1">
   <g id="patch_2">
    <path d="M 81.9 356.76 
L 360.9 356.76 
L 360.9 79.56 
L 81.9 79.56 
L 81.9 356.76 
z
" clip-path="url(#p6f70206876)" style="fill: none; stroke: #000000; stroke-width: 3; stroke-linejoin: miter"/>
   </g>
   <g id="patch_3">
    <path d="M 94.987911 357.616527 
C 98.687495 357.616527 102.236051 356.15615 104.852051 353.557027 
C 107.468051 350.957904 108.937911 347.432242 108.937911 343.756527 
C 108.937911 340.080812 107.468051 336.55515 104.852051 333.956027 
C 102.236051 331.356904 98.687495 329.896527 94.987911 329.896527 
C 91.288328 329.896527 87.739772 331.356904 85.123772 333.956027 
C 82.507771 336.55515 81.037911 340.080812 81.037911 343.756527 
C 81.037911 347.432242 82.507771 350.957904 85.123772 353.557027 
C 87.739772 356.15615 91.288328 357.616527 94.987911 357.616527 
z
" clip-path="url(#p6f70206876)" style="fill: #c0504d; stroke: #366092; stroke-linejoin: miter"/>
   </g>
   <g id="patch_4">
    <path d="M 146.283531 357.616527 
C 149.983114 357.616527 153.53167 356.15615 156.147671 353.557027 
C 158.763671 350.957904 160.233531 347.432242 160.233531 343.756527 
C 160.233531 340.080812 158.763671 336.55515 156.147671 333.956027 
C 153.53167 331.356904 149.983114 329.896527 146.283531 329.896527 
C 142.583948 329.896527 139.035392 331.356904 136.419392 333.956027 
C 133.803391 336.55515 132.333531 340.080812 132.333531 343.756527 
C 132.333531 347.432242 133.803391 350.957904 136.419392 353.557027 
C 139.035392 356.15615 142.583948 357.616527 146.283531 357.616527 
z
" clip-path="url(#p6f70206876)" style="fill: #c0504d; stroke: #366092; stroke-linejoin: miter"/>
   </g>
   <g id="patch_5">
    <path d="M 221.4 357.616527 
C 225.099583 357.616527 228.648139 356.15615 231.26414 353.557027 
C 233.88014 350.957904 235.35 347.432242 235.35 343.756527 
C 235.35 340.080812 233.88014 336.55515 231.26414 333.956027 
C 228.648139 331.356904 225.099583 329.896527 221.4 329.896527 
C 217.700417 329.896527 214.151861 331.356904 211.53586 333.956027 
C 208.91986 336.55515 207.45 340.080812 207.45 343.756527 
C 207.45 347.432242 208.91986 350.957904 211.53586 353.557027 
C 214.151861 356.15615 217.700417 357.616527 221.4 357.616527 
z
" clip-path="url(#p6f70206876)" style="fill: #c0504d; stroke: #366092; stroke-linejoin: miter"/>
   </g>
   <g id="patch_6">
    <path d="M 296.516469 357.616527 
C 300.216052 357.616527 303.764608 356.15615 306.380608 353.557027 
C 308.996609 350.957904 310.466469 347.432242 310.466469 343.756527 
C 310.466469 340.080812 308.996609 336.55515 306.380608 333.956027 
C 303.764608 331.356904 300.216052 329.896527 296.516469 329.896527 
C 292.816886 329.896527 289.26833 331.356904 286.652329 333.956027 
C 284.036329 336.55515 282.566469 340.080812 282.566469 343.756527 
C 282.566469 347.432242 284.036329 350.957904 286.652329 353.557027 
C 289.26833 356.15615 292.816886 357.616527 296.516469 357.616527 
z
" clip-path="url(#p6f70206876)" style="fill: #c0504d; stroke: #366092; stroke-linejoin: miter"/>
   </g>
   <g id="patch_7">
    <path d="M 347.812089 357.616527 
C 351.511672 357.616527 355.060228 356.15615 357.676228 353.557027 
C 360.292229 350.957904 361.762089 347.432242 361.762089 343.756527 
C 361.762089 340.080812 360.292229 336.55515 357.676228 333.956027 
C 355.060228 331.356904 351.511672 329.896527 347.812089 329.896527 
C 344.112505 329.896527 340.563949 331.356904 337.947949 333.956027 
C 335.331949 336.55515 333.862089 340.080812 333.862089 343.756527 
C 333.862089 347.432242 335.331949 350.957904 337.947949 353.557027 
C 340.563949 356.15615 344.112505 357.616527 347.812089 357.616527 
z
" clip-path="url(#p6f70206876)" style="fill: #c0504d; stroke: #366092; stroke-linejoin: miter"/>
   </g>
   <g id="patch_8">
    <path d="M 94.987911 306.651846 
C 98.687495 306.651846 102.236051 305.191469 104.852051 302.592346 
C 107.468051 299.993223 108.937911 296.467561 108.937911 292.791846 
C 108.937911 289.116131 107.468051 285.590469 104.852051 282.991346 
C 102.236051 280.392223 98.687495 278.931846 94.987911 278.931846 
C 91.288328 278.931846 87.739772 280.392223 85.123772 282.991346 
C 82.507771 285.590469 81.037911 289.116131 81.037911 292.791846 
C 81.037911 296.467561 82.507771 299.993223 85.123772 302.592346 
C 87.739772 305.191469 91.288328 306.651846 94.987911 306.651846 
z
" clip-path="url(#p6f70206876)" style="fill: #c0504d; stroke: #366092; stroke-linejoin: miter"/>
   </g>
   <g id="patch_9">
    <path d="M 146.283531 306.651846 
C 149.983114 306.651846 153.53167 305.191469 156.147671 302.592346 
C 158.763671 299.993223 160.233531 296.467561 160.233531 292.791846 
C 160.233531 289.116131 158.763671 285.590469 156.147671 282.991346 
C 153.53167 280.392223 149.983114 278.931846 146.283531 278.931846 
C 142.583948 278.931846 139.035392 280.392223 136.419392 282.991346 
C 133.803391 285.590469 132.333531 289.116131 132.333531 292.791846 
C 132.333531 296.467561 133.803391 299.993223 136.419392 302.592346 
C 139.035392 305.191469 142.583948 306.651846 146.283531 306.651846 
z
" clip-path="url(#p6f70206876)" style="fill: #c0504d; stroke: #366092; stroke-linejoin: miter"/>
   </g>
   <g id="patch_10">
    <path d="M 221.4 306.651846 
C 225.099583 306.651846 228.648139 305.191469 231.26414 302.592346 
C 233.88014 299.993223 235.35 296.467561 235.35 292.791846 
C 235.35 289.116131 233.88014 285.590469 231.26414 282.991346 
C 228.648139 280.392223 225.099583 278.931846 221.4 278.931846 
C 217.700417 278.931846 214.151861 280.392223 211.53586 282.991346 
C 208.91986 285.590469 207.45 289.116131 207.45 292.791846 
C 207.45 296.467561 208.91986 299.993223 211.53586 302.592346 
C 214.151861 305.191469 217.700417 306.651846 221.4 306.651846 
z
" clip-path="url(#p6f70206876)" style="fill: #c0504d; stroke: #366092; stroke-linejoin: miter"/>
   </g>
   <g id="patch_11">
    <path d="M 296.516469 306.651846 
C 300.216052 306.651846 303.764608 305.191469 306.380608 302.592346 
C 308.996609 299.993223 310.466469 296.467561 310.466469 292.791846 
C 310.466469 289.116131 308.996609 285.590469 306.380608 282.991346 
C 303.764608 280.392223 300.216052 278.931846 296.516469 278.931846 
C 292.816886 278.931846 289.26833 280.392223 286.652329 282.991346 
C 284.036329 285.590469 282.566469 289.116131 282.566469 292.791846 
C 282.566469 296.467561 284.036329 299.993223 286.652329 302.592346 
C 289.26833 305.191469 292.816886 306.651846 296.516469 306.651846 
z
" clip-path="url(#p6f70206876)" style="fill: #c0504d; stroke: #366092; stroke-linejoin: miter"/>
   </g>
   <g id="patch_12">
    <path d="M 347.812089 306.651846 
C 351.511672 306.651846 355.060228 305.191469 357.676228 302.592346 
C 360.292229 299.993223 361.762089 296.467561 361.762089 292.791846 
C 361.762089 289.116131 360.292229 285.590469 357.676228 282.991346 
C 355.060228 280.392223 351.511672 278.931846 347.812089 278.931846 
C 344.112505 278.931846 340.563949 280.392223 337.947949 282.991346 
C 335.331949 285.590469 333.862089 289.116131 333.862089 292.791846 
C 333.862089 296.467561 335.331949 299.993223 337.947949 302.592346 
C 340.563949 305.191469 344.112505 306.651846 347.812089 306.651846 
z
" clip-path="url(#p6f70206876)" style="fill: #c0504d; stroke: #366092; stroke-linejoin: miter"/>
   </g>
   <g id="patch_13">
    <path d="M 94.987911 232.02 
C 98.687495 232.02 102.236051 230.559623 104.852051 227.9605 
C 107.468051 225.361377 108.937911 221.835715 108.937911 218.16 
C 108.937911 214.484285 107.468051 210.958623 104.852051 208.3595 
C 102.236051 205.760377 98.687495 204.3 94.987911 204.3 
C 91.288328 204.3 87.739772 205.760377 85.123772 208.3595 
C 82.507771 210.958623 81.037911 214.484285 81.037911 218.16 
C 81.037911 221.835715 82.507771 225.361377 85.123772 227.9605 
C 87.739772 230.559623 91.288328 232.02 94.987911 232.02 
z
" clip-path="url(#p6f70206876)" style="fill: #c0504d; stroke: #366092; stroke-linejoin: miter"/>
   </g>
   <g id="patch_14">
    <path d="M 146.283531 232.02 
C 149.983114 232.02 153.53167 230.559623 156.147671 227.9605 
C 158.763671 225.361377 160.233531 221.835715 160.233531 218.16 
C 160.233531 214.484285 158.763671 210.958623 156.147671 208.3595 
C 153.53167 205.760377 149.983114 204.3 146.283531 204.3 
C 142.583948 204.3 139.035392 205.760377 136.419392 208.3595 
C 133.803391 210.958623 132.333531 214.484285 132.333531 218.16 
C 132.333531 221.835715 133.803391 225.361377 136.419392 227.9605 
C 139.035392 230.559623 142.583948 232.02 146.283531 232.02 
z
" clip-path="url(#p6f70206876)" style="fill: #c0504d; stroke: #366092; stroke-linejoin: miter"/>
   </g>
   <g id="patch_15">
    <path d="M 221.4 232.02 
C 225.099583 232.02 228.648139 230.559623 231.26414 227.9605 
C 233.88014 225.361377 235.35 221.835715 235.35 218.16 
C 235.35 214.484285 233.88014 210.958623 231.26414 208.3595 
C 228.648139 205.760377 225.099583 204.3 221.4 204.3 
C 217.700417 204.3 214.151861 205.760377 211.53586 208.3595 
C 208.91986 210.958623 207.45 214.484285 207.45 218.16 
C 207.45 221.835715 208.91986 225.361377 211.53586 227.9605 
C 214.151861 230.559623 217.700417 232.02 221.4 232.02 
z
" clip-path="url(#p6f70206876)" style="fill: #c0504d; stroke: #366092; stroke-linejoin: miter"/>
   </g>
   <g id="patch_16">
    <path d="M 296.516469 232.02 
C 300.216052 232.02 303.764608 230.559623 306.380608 227.9605 
C 308.996609 225.361377 310.466469 221.835715 310.466469 218.16 
C 310.466469 214.484285 308.996609 210.958623 306.380608 208.3595 
C 303.764608 205.760377 300.216052 204.3 296.516469 204.3 
C 292.816886 204.3 289.26833 205.760377 286.652329 208.3595 
C 284.036329 210.958623 282.566469 214.484285 282.566469 218.16 
C 282.566469 221.835715 284.036329 225.361377 286.652329 227.9605 
C 289.26833 230.559623 292.816886 232.02 296.516469 232.02 
z
" clip-path="url(#p6f70206876)" style="fill: #c0504d; stroke: #366092; stroke-linejoin: miter"/>
   </g>
   <g id="patch_17">
    <path d="M 347.812089 232.02 
C 351.511672 232.02 355.060228 230.559623 357.676228 227.9605 
C 360.292229 225.361377 361.762089 221.835715 361.762089 218.16 
C 361.762089 214.484285 360.292229 210.958623 357.676228 208.3595 
C 355.060228 205.760377 351.511672 204.3 347.812089 204.3 
C 344.112505 204.3 340.563949 205.760377 337.947949 208.3595 
C 335.331949 210.958623 333.862089 214.484285 333.862089 218.16 
C 333.862089 221.835715 335.331949 225.361377 337.947949 227.9605 
C 340.563949 230.559623 344.112505 232.02 347.812089 232.02 
z
" clip-path="url(#p6f70206876)" style="fill: #c0504d; stroke: #366092; stroke-linejoin: miter"/>
   </g>
   <g id="patch_18">
    <path d="M 94.987911 157.388154 
C 98.687495 157.388154 102.236051 155.927777 104.852051 153.328654 
C 107.468051 150.729531 108.937911 147.203869 108.937911 143.528154 
C 108.937911 139.852439 107.468051 136.326777 104.852051 133.727654 
C 102.236051 131.128531 98.687495 129.668154 94.987911 129.668154 
C 91.288328 129.668154 87.739772 131.128531 85.123772 133.727654 
C 82.507771 136.326777 81.037911 139.852439 81.037911 143.528154 
C 81.037911 147.203869 82.507771 150.729531 85.123772 153.328654 
C 87.739772 155.927777 91.288328 157.388154 94.987911 157.388154 
z
" clip-path="url(#p6f70206876)" style="fill: #c0504d; stroke: #366092; stroke-linejoin: miter"/>
   </g>
   <g id="patch_19">
    <path d="M 146.283531 157.388154 
C 149.983114 157.388154 153.53167 155.927777 156.147671 153.328654 
C 158.763671 150.729531 160.233531 147.203869 160.233531 143.528154 
C 160.233531 139.852439 158.763671 136.326777 156.147671 133.727654 
C 153.53167 131.128531 149.983114 129.668154 146.283531 129.668154 
C 142.583948 129.668154 139.035392 131.128531 136.419392 133.727654 
C 133.803391 136.326777 132.333531 139.852439 132.333531 143.528154 
C 132.333531 147.203869 133.803391 150.729531 136.419392 153.328654 
C 139.035392 155.927777 142.583948 157.388154 146.283531 157.388154 
z
" clip-path="url(#p6f70206876)" style="fill: #c0504d; stroke: #366092; stroke-linejoin: miter"/>
   </g>
   <g id="patch_20">
    <path d="M 221.4 157.388154 
C 225.099583 157.388154 228.648139 155.927777 231.26414 153.328654 
C 233.88014 150.729531 235.35 147.203869 235.35 143.528154 
C 235.35 139.852439 233.88014 136.326777 231.26414 133.727654 
C 228.648139 131.128531 225.099583 129.668154 221.4 129.668154 
C 217.700417 129.668154 214.151861 131.128531 211.53586 133.727654 
C 208.91986 136.326777 207.45 139.852439 207.45 143.528154 
C 207.45 147.203869 208.91986 150.729531 211.53586 153.328654 
C 214.151861 155.927777 217.700417 157.388154 221.4 157.388154 
z
" clip-path="url(#p6f70206876)" style="fill: #c0504d; stroke: #366092; stroke-linejoin: miter"/>
   </g>
   <g id="patch_21">
    <path d="M 296.516469 157.388154 
C 300.216052 157.388154 303.764608 155.927777 306.380608 153.328654 
C 308.996609 150.729531 310.466469 147.203869 310.466469 143.528154 
C 310.466469 139.852439 308.996609 136.326777 306.380608 133.727654 
C 303.764608 131.128531 300.216052 129.668154 296.516469 129.668154 
C 292.816886 129.668154 289.26833 131.128531 286.652329 133.727654 
C 284.036329 136.326777 282.566469 139.852439 282.566469 143.528154 
C 282.566469 147.203869 284.036329 150.729531 286.652329 153.328654 
C 289.26833 155.927777 292.816886 157.388154 296.516469 157.388154 
z
" clip-path="url(#p6f70206876)" style="fill: #c0504d; stroke: #366092; stroke-linejoin: miter"/>
   </g>
   <g id="patch_22">
    <path d="M 347.812089 157.388154 
C 351.511672 157.388154 355.060228 155.927777 357.676228 153.328654 
C 360.292229 150.729531 361.762089 147.203869 361.762089 143.528154 
C 361.762089 139.852439 360.292229 136.326777 357.676228 133.727654 
C 355.060228 131.128531 351.511672 129.668154 347.812089 129.668154 
C 344.112505 129.668154 340.563949 131.128531 337.947949 133.727654 
C 335.331949 136.326777 333.862089 139.852439 333.862089 143.528154 
C 333.862089 147.203869 335.331949 150.729531 337.947949 153.328654 
C 340.563949 155.927777 344.112505 157.388154 347.812089 157.388154 
z
" clip-path="url(#p6f70206876)" style="fill: #c0504d; stroke: #366092; stroke-linejoin: miter"/>
   </g>
   <g id="patch_23">
    <path d="M 94.987911 106.423473 
C 98.687495 106.423473 102.236051 104.963096 104.852051 102.363973 
C 107.468051 99.76485 108.937911 96.239188 108.937911 92.563473 
C 108.937911 88.887758 107.468051 85.362096 104.852051 82.762973 
C 102.236051 80.16385 98.687495 78.703473 94.987911 78.703473 
C 91.288328 78.703473 87.739772 80.16385 85.123772 82.762973 
C 82.507771 85.362096 81.037911 88.887758 81.037911 92.563473 
C 81.037911 96.239188 82.507771 99.76485 85.123772 102.363973 
C 87.739772 104.963096 91.288328 106.423473 94.987911 106.423473 
z
" clip-path="url(#p6f70206876)" style="fill: #c0504d; stroke: #366092; stroke-linejoin: miter"/>
   </g>
   <g id="patch_24">
    <path d="M 146.283531 106.423473 
C 149.983114 106.423473 153.53167 104.963096 156.147671 102.363973 
C 158.763671 99.76485 160.233531 96.239188 160.233531 92.563473 
C 160.233531 88.887758 158.763671 85.362096 156.147671 82.762973 
C 153.53167 80.16385 149.983114 78.703473 146.283531 78.703473 
C 142.583948 78.703473 139.035392 80.16385 136.419392 82.762973 
C 133.803391 85.362096 132.333531 88.887758 132.333531 92.563473 
C 132.333531 96.239188 133.803391 99.76485 136.419392 102.363973 
C 139.035392 104.963096 142.583948 106.423473 146.283531 106.423473 
z
" clip-path="url(#p6f70206876)" style="fill: #c0504d; stroke: #366092; stroke-linejoin: miter"/>
   </g>
   <g id="patch_25">
    <path d="M 221.4 106.423473 
C 225.099583 106.423473 228.648139 104.963096 231.26414 102.363973 
C 233.88014 99.76485 235.35 96.239188 235.35 92.563473 
C 235.35 88.887758 233.88014 85.362096 231.26414 82.762973 
C 228.648139 80.16385 225.099583 78.703473 221.4 78.703473 
C 217.700417 78.703473 214.151861 80.16385 211.53586 82.762973 
C 208.91986 85.362096 207.45 88.887758 207.45 92.563473 
C 207.45 96.239188 208.91986 99.76485 211.53586 102.363973 
C 214.151861 104.963096 217.700417 106.423473 221.4 106.423473 
z
" clip-path="url(#p6f70206876)" style="fill: #c0504d; stroke: #366092; stroke-linejoin: miter"/>
   </g>
   <g id="patch_26">
    <path d="M 296.516469 106.423473 
C 300.216052 106.423473 303.764608 104.963096 306.380608 102.363973 
C 308.996609 99.76485 310.466469 96.239188 310.466469 92.563473 
C 310.466469 88.887758 308.996609 85.362096 306.380608 82.762973 
C 303.764608 80.16385 300.216052 78.703473 296.516469 78.703473 
C 292.816886 78.703473 289.26833 80.16385 286.652329 82.762973 
C 284.036329 85.362096 282.566469 88.887758 282.566469 92.563473 
C 282.566469 96.239188 284.036329 99.76485 286.652329 102.363973 
C 289.26833 104.963096 292.816886 106.423473 296.516469 106.423473 
z
" clip-path="url(#p6f70206876)" style="fill: #c0504d; stroke: #366092; stroke-linejoin: miter"/>
   </g>
   <g id="patch_27">
    <path d="M 347.812089 106.423473 
C 351.511672 106.423473 355.060228 104.963096 357.676228 102.363973 
C 360.292229 99.76485 361.762089 96.239188 361.762089 92.563473 
C 361.762089 88.887758 360.292229 85.362096 357.676228 82.762973 
C 355.060228 80.16385 351.511672 78.703473 347.812089 78.703473 
C 344.112505 78.703473 340.563949 80.16385 337.947949 82.762973 
C 335.331949 85.362096 333.862089 88.887758 333.862089 92.563473 
C 333.862089 96.239188 335.331949 99.76485 337.947949 102.363973 
C 340.563949 104.963096 344.112505 106.423473 347.812089 106.423473 
z
" clip-path="url(#p6f70206876)" style="fill: #c0504d; stroke: #366092; stroke-linejoin: miter"/>
   </g>
  </g>
 </g>
 <defs>
  <clipPath id="p6f70206876">
   <rect x="54" y="51.84" width="334.8" height="332.64"/>
  </clipPath>
 </defs>
</svg>
