<?xml version="1.0" encoding="utf-8" standalone="no"?>
<!DOCTYPE svg PUBLIC "-//W3C//DTD SVG 1.1//EN"
  "http://www.w3.org/Graphics/SVG/1.1/DTD/svg11.dtd">
<svg xmlns:xlink="http://www.w3.org/1999/xlink" width="432pt" height="432pt" viewBox="0 0 432 432" xmlns="http://www.w3.org/2000/svg" version="1.1">
 <metadata>
  <rdf:RDF xmlns:dc="http://purl.org/dc/elements/1.1/" xmlns:cc="http://creativecommons.org/ns#" xmlns:rdf="http://www.w3.org/1999/02/22-rdf-syntax-ns#">
   <cc:Work>
    <dc:type rdf:resource="http://purl.org/dc/dcmitype/StillImage"/>
    <dc:date>2025-03-02T17:55:04.941817</dc:date>
    <dc:format>image/svg+xml</dc:format>
    <dc:creator>
     <cc:Agent>
      <dc:title>Matplotlib v3.10.0, https://matplotlib.org/</dc:title>
     </cc:Agent>
    </dc:creator>
   </cc:Work>
  </rdf:RDF>
 </metadata>
 <defs>
  <style type="text/css">*{stroke-linejoin: round; stroke-linecap: butt}</style>
 </defs>
 <g id="figure_1">
  <g id="patch_1">
   <path d="M 0 432 
L 432 432 
L 432 0 
L 0 0 
z
" style="fill: #ffffff"/>
  </g>
  <g id="axes_1">
   <g id="patch_2">
    <path d="M 81.9 356.76 
L 360.9 356.76 
L 360.9 79.56 
L 81.9 79.56 
L 81.9 356.76 
z
" clip-path="url(#p9e94185546)" style="fill: none; stroke: #000000; stroke-width: 3; stroke-linejoin: miter"/>
   </g>
   <g id="patch_3">
    <path d="M 91.320503 361.260275 
C 95.020086 361.260275 98.568642 359.799898 101.184642 357.200775 
C 103.800643 354.601652 105.270503 351.07599 105.270503 347.400275 
C 105.270503 343.72456 103.800643 340.198898 101.184642 337.599775 
C 98.568642 335.000652 95.020086 333.540275 91.320503 333.540275 
C 87.62092 333.540275 84.072364 335.000652 81.456363 337.599775 
C 78.840363 340.198898 77.370503 343.72456 77.370503 347.400275 
C 77.370503 351.07599 78.840363 354.601652 81.456363 357.200775 
C 84.072364 359.799898 87.62092 361.260275 91.320503 361.260275 
z
" clip-path="url(#p9e94185546)" style="fill: #c0504d; stroke: #366092; stroke-linejoin: miter"/>
   </g>
   <g id="patch_4">
    <path d="M 129.161291 361.260275 
C 132.860874 361.260275 136.40943 359.799898 139.02543 357.200775 
C 141.641431 354.601652 143.111291 351.07599 143.111291 347.400275 
C 143.111291 343.72456 141.641431 340.198898 139.02543 337.599775 
C 136.40943 335.000652 132.860874 333.540275 129.161291 333.540275 
C 125.461707 333.540275 121.913151 335.000652 119.297151 337.599775 
C 116.681151 340.198898 115.211291 343.72456 115.211291 347.400275 
C 115.211291 351.07599 116.681151 354.601652 119.297151 357.200775 
C 121.913151 359.799898 125.461707 361.260275 129.161291 361.260275 
z
" clip-path="url(#p9e94185546)" style="fill: #c0504d; stroke: #366092; stroke-linejoin: miter"/>
   </g>
   <g id="patch_5">
    <path d="M 188.112624 361.260275 
C 191.812207 361.260275 195.360763 359.799898 197.976763 357.200775 
C 200.592764 354.601652 202.062624 351.07599 202.062624 347.400275 
C 202.062624 343.72456 200.592764 340.198898 197.976763 337.599775 
C 195.360763 335.000652 191.812207 333.540275 188.112624 333.540275 
C 184.41304 333.540275 180.864484 335.000652 178.248484 337.599775 
C 175.632484 340.198898 174.162624 343.72456 174.162624 347.400275 
C 174.162624 351.07599 175.632484 354.601652 178.248484 357.200775 
C 180.864484 359.799898 184.41304 361.260275 188.112624 361.260275 
z
" clip-path="url(#p9e94185546)" style="fill: #c0504d; stroke: #366092; stroke-linejoin: miter"/>
   </g>
   <g id="patch_6">
    <path d="M 254.687376 361.260275 
C 258.38696 361.260275 261.935516 359.799898 264.551516 357.200775 
C 267.167516 354.601652 268.637376 351.07599 268.637376 347.400275 
C 268.637376 343.72456 267.167516 340.198898 264.551516 337.599775 
C 261.935516 335.000652 258.38696 333.540275 254.687376 333.540275 
C 250.987793 333.540275 247.439237 335.000652 244.823237 337.599775 
C 242.207236 340.198898 240.737376 343.72456 240.737376 347.400275 
C 240.737376 351.07599 242.207236 354.601652 244.823237 357.200775 
C 247.439237 359.799898 250.987793 361.260275 254.687376 361.260275 
z
" clip-path="url(#p9e94185546)" style="fill: #c0504d; stroke: #366092; stroke-linejoin: miter"/>
   </g>
   <g id="patch_7">
    <path d="M 313.638709 361.260275 
C 317.338293 361.260275 320.886849 359.799898 323.502849 357.200775 
C 326.118849 354.601652 327.588709 351.07599 327.588709 347.400275 
C 327.588709 343.72456 326.118849 340.198898 323.502849 337.599775 
C 320.886849 335.000652 317.338293 333.540275 313.638709 333.540275 
C 309.939126 333.540275 306.39057 335.000652 303.77457 337.599775 
C 301.158569 340.198898 299.688709 343.72456 299.688709 347.400275 
C 299.688709 351.07599 301.158569 354.601652 303.77457 357.200775 
C 306.39057 359.799898 309.939126 361.260275 313.638709 361.260275 
z
" clip-path="url(#p9e94185546)" style="fill: #c0504d; stroke: #366092; stroke-linejoin: miter"/>
   </g>
   <g id="patch_8">
    <path d="M 351.479497 361.260275 
C 355.17908 361.260275 358.727636 359.799898 361.343637 357.200775 
C 363.959637 354.601652 365.429497 351.07599 365.429497 347.400275 
C 365.429497 343.72456 363.959637 340.198898 361.343637 337.599775 
C 358.727636 335.000652 355.17908 333.540275 351.479497 333.540275 
C 347.779914 333.540275 344.231358 335.000652 341.615358 337.599775 
C 338.999357 340.198898 337.529497 343.72456 337.529497 347.400275 
C 337.529497 351.07599 338.999357 354.601652 341.615358 357.200775 
C 344.231358 359.799898 347.779914 361.260275 351.479497 361.260275 
z
" clip-path="url(#p9e94185546)" style="fill: #c0504d; stroke: #366092; stroke-linejoin: miter"/>
   </g>
   <g id="patch_9">
    <path d="M 91.320503 323.663621 
C 95.020086 323.663621 98.568642 322.203244 101.184642 319.604121 
C 103.800643 317.004998 105.270503 313.479336 105.270503 309.803621 
C 105.270503 306.127906 103.800643 302.602244 101.184642 300.003121 
C 98.568642 297.403998 95.020086 295.943621 91.320503 295.943621 
C 87.62092 295.943621 84.072364 297.403998 81.456363 300.003121 
C 78.840363 302.602244 77.370503 306.127906 77.370503 309.803621 
C 77.370503 313.479336 78.840363 317.004998 81.456363 319.604121 
C 84.072364 322.203244 87.62092 323.663621 91.320503 323.663621 
z
" clip-path="url(#p9e94185546)" style="fill: #c0504d; stroke: #366092; stroke-linejoin: miter"/>
   </g>
   <g id="patch_10">
    <path d="M 129.161291 323.663621 
C 132.860874 323.663621 136.40943 322.203244 139.02543 319.604121 
C 141.641431 317.004998 143.111291 313.479336 143.111291 309.803621 
C 143.111291 306.127906 141.641431 302.602244 139.02543 300.003121 
C 136.40943 297.403998 132.860874 295.943621 129.161291 295.943621 
C 125.461707 295.943621 121.913151 297.403998 119.297151 300.003121 
C 116.681151 302.602244 115.211291 306.127906 115.211291 309.803621 
C 115.211291 313.479336 116.681151 317.004998 119.297151 319.604121 
C 121.913151 322.203244 125.461707 323.663621 129.161291 323.663621 
z
" clip-path="url(#p9e94185546)" style="fill: #c0504d; stroke: #366092; stroke-linejoin: miter"/>
   </g>
   <g id="patch_11">
    <path d="M 188.112624 323.663621 
C 191.812207 323.663621 195.360763 322.203244 197.976763 319.604121 
C 200.592764 317.004998 202.062624 313.479336 202.062624 309.803621 
C 202.062624 306.127906 200.592764 302.602244 197.976763 300.003121 
C 195.360763 297.403998 191.812207 295.943621 188.112624 295.943621 
C 184.41304 295.943621 180.864484 297.403998 178.248484 300.003121 
C 175.632484 302.602244 174.162624 306.127906 174.162624 309.803621 
C 174.162624 313.479336 175.632484 317.004998 178.248484 319.604121 
C 180.864484 322.203244 184.41304 323.663621 188.112624 323.663621 
z
" clip-path="url(#p9e94185546)" style="fill: #c0504d; stroke: #366092; stroke-linejoin: miter"/>
   </g>
   <g id="patch_12">
    <path d="M 254.687376 323.663621 
C 258.38696 323.663621 261.935516 322.203244 264.551516 319.604121 
C 267.167516 317.004998 268.637376 313.479336 268.637376 309.803621 
C 268.637376 306.127906 267.167516 302.602244 264.551516 300.003121 
C 261.935516 297.403998 258.38696 295.943621 254.687376 295.943621 
C 250.987793 295.943621 247.439237 297.403998 244.823237 300.003121 
C 242.207236 302.602244 240.737376 306.127906 240.737376 309.803621 
C 240.737376 313.479336 242.207236 317.004998 244.823237 319.604121 
C 247.439237 322.203244 250.987793 323.663621 254.687376 323.663621 
z
" clip-path="url(#p9e94185546)" style="fill: #c0504d; stroke: #366092; stroke-linejoin: miter"/>
   </g>
   <g id="patch_13">
    <path d="M 313.638709 323.663621 
C 317.338293 323.663621 320.886849 322.203244 323.502849 319.604121 
C 326.118849 317.004998 327.588709 313.479336 327.588709 309.803621 
C 327.588709 306.127906 326.118849 302.602244 323.502849 300.003121 
C 320.886849 297.403998 317.338293 295.943621 313.638709 295.943621 
C 309.939126 295.943621 306.39057 297.403998 303.77457 300.003121 
C 301.158569 302.602244 299.688709 306.127906 299.688709 309.803621 
C 299.688709 313.479336 301.158569 317.004998 303.77457 319.604121 
C 306.39057 322.203244 309.939126 323.663621 313.638709 323.663621 
z
" clip-path="url(#p9e94185546)" style="fill: #c0504d; stroke: #366092; stroke-linejoin: miter"/>
   </g>
   <g id="patch_14">
    <path d="M 351.479497 323.663621 
C 355.17908 323.663621 358.727636 322.203244 361.343637 319.604121 
C 363.959637 317.004998 365.429497 313.479336 365.429497 309.803621 
C 365.429497 306.127906 363.959637 302.602244 361.343637 300.003121 
C 358.727636 297.403998 355.17908 295.943621 351.479497 295.943621 
C 347.779914 295.943621 344.231358 297.403998 341.615358 300.003121 
C 338.999357 302.602244 337.529497 306.127906 337.529497 309.803621 
C 337.529497 313.479336 338.999357 317.004998 341.615358 319.604121 
C 344.231358 322.203244 347.779914 323.663621 351.479497 323.663621 
z
" clip-path="url(#p9e94185546)" style="fill: #c0504d; stroke: #366092; stroke-linejoin: miter"/>
   </g>
   <g id="patch_15">
    <path d="M 91.320503 265.092619 
C 95.020086 265.092619 98.568642 263.632242 101.184642 261.033119 
C 103.800643 258.433996 105.270503 254.908334 105.270503 251.232619 
C 105.270503 247.556904 103.800643 244.031242 101.184642 241.432119 
C 98.568642 238.832996 95.020086 237.372619 91.320503 237.372619 
C 87.62092 237.372619 84.072364 238.832996 81.456363 241.432119 
C 78.840363 244.031242 77.370503 247.556904 77.370503 251.232619 
C 77.370503 254.908334 78.840363 258.433996 81.456363 261.033119 
C 84.072364 263.632242 87.62092 265.092619 91.320503 265.092619 
z
" clip-path="url(#p9e94185546)" style="fill: #c0504d; stroke: #366092; stroke-linejoin: miter"/>
   </g>
   <g id="patch_16">
    <path d="M 129.161291 265.092619 
C 132.860874 265.092619 136.40943 263.632242 139.02543 261.033119 
C 141.641431 258.433996 143.111291 254.908334 143.111291 251.232619 
C 143.111291 247.556904 141.641431 244.031242 139.02543 241.432119 
C 136.40943 238.832996 132.860874 237.372619 129.161291 237.372619 
C 125.461707 237.372619 121.913151 238.832996 119.297151 241.432119 
C 116.681151 244.031242 115.211291 247.556904 115.211291 251.232619 
C 115.211291 254.908334 116.681151 258.433996 119.297151 261.033119 
C 121.913151 263.632242 125.461707 265.092619 129.161291 265.092619 
z
" clip-path="url(#p9e94185546)" style="fill: #c0504d; stroke: #366092; stroke-linejoin: miter"/>
   </g>
   <g id="patch_17">
    <path d="M 188.112624 265.092619 
C 191.812207 265.092619 195.360763 263.632242 197.976763 261.033119 
C 200.592764 258.433996 202.062624 254.908334 202.062624 251.232619 
C 202.062624 247.556904 200.592764 244.031242 197.976763 241.432119 
C 195.360763 238.832996 191.812207 237.372619 188.112624 237.372619 
C 184.41304 237.372619 180.864484 238.832996 178.248484 241.432119 
C 175.632484 244.031242 174.162624 247.556904 174.162624 251.232619 
C 174.162624 254.908334 175.632484 258.433996 178.248484 261.033119 
C 180.864484 263.632242 184.41304 265.092619 188.112624 265.092619 
z
" clip-path="url(#p9e94185546)" style="fill: #c0504d; stroke: #366092; stroke-linejoin: miter"/>
   </g>
   <g id="patch_18">
    <path d="M 254.687376 265.092619 
C 258.38696 265.092619 261.935516 263.632242 264.551516 261.033119 
C 267.167516 258.433996 268.637376 254.908334 268.637376 251.232619 
C 268.637376 247.556904 267.167516 244.031242 264.551516 241.432119 
C 261.935516 238.832996 258.38696 237.372619 254.687376 237.372619 
C 250.987793 237.372619 247.439237 238.832996 244.823237 241.432119 
C 242.207236 244.031242 240.737376 247.556904 240.737376 251.232619 
C 240.737376 254.908334 242.207236 258.433996 244.823237 261.033119 
C 247.439237 263.632242 250.987793 265.092619 254.687376 265.092619 
z
" clip-path="url(#p9e94185546)" style="fill: #c0504d; stroke: #366092; stroke-linejoin: miter"/>
   </g>
   <g id="patch_19">
    <path d="M 313.638709 265.092619 
C 317.338293 265.092619 320.886849 263.632242 323.502849 261.033119 
C 326.118849 258.433996 327.588709 254.908334 327.588709 251.232619 
C 327.588709 247.556904 326.118849 244.031242 323.502849 241.432119 
C 320.886849 238.832996 317.338293 237.372619 313.638709 237.372619 
C 309.939126 237.372619 306.39057 238.832996 303.77457 241.432119 
C 301.158569 244.031242 299.688709 247.556904 299.688709 251.232619 
C 299.688709 254.908334 301.158569 258.433996 303.77457 261.033119 
C 306.39057 263.632242 309.939126 265.092619 313.638709 265.092619 
z
" clip-path="url(#p9e94185546)" style="fill: #c0504d; stroke: #366092; stroke-linejoin: miter"/>
   </g>
   <g id="patch_20">
    <path d="M 351.479497 265.092619 
C 355.17908 265.092619 358.727636 263.632242 361.343637 261.033119 
C 363.959637 258.433996 365.429497 254.908334 365.429497 251.232619 
C 365.429497 247.556904 363.959637 244.031242 361.343637 241.432119 
C 358.727636 238.832996 355.17908 237.372619 351.479497 237.372619 
C 347.779914 237.372619 344.231358 238.832996 341.615358 241.432119 
C 338.999357 244.031242 337.529497 247.556904 337.529497 251.232619 
C 337.529497 254.908334 338.999357 258.433996 341.615358 261.033119 
C 344.231358 263.632242 347.779914 265.092619 351.479497 265.092619 
z
" clip-path="url(#p9e94185546)" style="fill: #c0504d; stroke: #366092; stroke-linejoin: miter"/>
   </g>
   <g id="patch_21">
    <path d="M 91.320503 198.947381 
C 95.020086 198.947381 98.568642 197.487004 101.184642 194.887881 
C 103.800643 192.288758 105.270503 188.763096 105.270503 185.087381 
C 105.270503 181.411666 103.800643 177.886004 101.184642 175.286881 
C 98.568642 172.687758 95.020086 171.227381 91.320503 171.227381 
C 87.62092 171.227381 84.072364 172.687758 81.456363 175.286881 
C 78.840363 177.886004 77.370503 181.411666 77.370503 185.087381 
C 77.370503 188.763096 78.840363 192.288758 81.456363 194.887881 
C 84.072364 197.487004 87.62092 198.947381 91.320503 198.947381 
z
" clip-path="url(#p9e94185546)" style="fill: #c0504d; stroke: #366092; stroke-linejoin: miter"/>
   </g>
   <g id="patch_22">
    <path d="M 129.161291 198.947381 
C 132.860874 198.947381 136.40943 197.487004 139.02543 194.887881 
C 141.641431 192.288758 143.111291 188.763096 143.111291 185.087381 
C 143.111291 181.411666 141.641431 177.886004 139.02543 175.286881 
C 136.40943 172.687758 132.860874 171.227381 129.161291 171.227381 
C 125.461707 171.227381 121.913151 172.687758 119.297151 175.286881 
C 116.681151 177.886004 115.211291 181.411666 115.211291 185.087381 
C 115.211291 188.763096 116.681151 192.288758 119.297151 194.887881 
C 121.913151 197.487004 125.461707 198.947381 129.161291 198.947381 
z
" clip-path="url(#p9e94185546)" style="fill: #c0504d; stroke: #366092; stroke-linejoin: miter"/>
   </g>
   <g id="patch_23">
    <path d="M 188.112624 198.947381 
C 191.812207 198.947381 195.360763 197.487004 197.976763 194.887881 
C 200.592764 192.288758 202.062624 188.763096 202.062624 185.087381 
C 202.062624 181.411666 200.592764 177.886004 197.976763 175.286881 
C 195.360763 172.687758 191.812207 171.227381 188.112624 171.227381 
C 184.41304 171.227381 180.864484 172.687758 178.248484 175.286881 
C 175.632484 177.886004 174.162624 181.411666 174.162624 185.087381 
C 174.162624 188.763096 175.632484 192.288758 178.248484 194.887881 
C 180.864484 197.487004 184.41304 198.947381 188.112624 198.947381 
z
" clip-path="url(#p9e94185546)" style="fill: #c0504d; stroke: #366092; stroke-linejoin: miter"/>
   </g>
   <g id="patch_24">
    <path d="M 254.687376 198.947381 
C 258.38696 198.947381 261.935516 197.487004 264.551516 194.887881 
C 267.167516 192.288758 268.637376 188.763096 268.637376 185.087381 
C 268.637376 181.411666 267.167516 177.886004 264.551516 175.286881 
C 261.935516 172.687758 258.38696 171.227381 254.687376 171.227381 
C 250.987793 171.227381 247.439237 172.687758 244.823237 175.286881 
C 242.207236 177.886004 240.737376 181.411666 240.737376 185.087381 
C 240.737376 188.763096 242.207236 192.288758 244.823237 194.887881 
C 247.439237 197.487004 250.987793 198.947381 254.687376 198.947381 
z
" clip-path="url(#p9e94185546)" style="fill: #c0504d; stroke: #366092; stroke-linejoin: miter"/>
   </g>
   <g id="patch_25">
    <path d="M 313.638709 198.947381 
C 317.338293 198.947381 320.886849 197.487004 323.502849 194.887881 
C 326.118849 192.288758 327.588709 188.763096 327.588709 185.087381 
C 327.588709 181.411666 326.118849 177.886004 323.502849 175.286881 
C 320.886849 172.687758 317.338293 171.227381 313.638709 171.227381 
C 309.939126 171.227381 306.39057 172.687758 303.77457 175.286881 
C 301.158569 177.886004 299.688709 181.411666 299.688709 185.087381 
C 299.688709 188.763096 301.158569 192.288758 303.77457 194.887881 
C 306.39057 197.487004 309.939126 198.947381 313.638709 198.947381 
z
" clip-path="url(#p9e94185546)" style="fill: #c0504d; stroke: #366092; stroke-linejoin: miter"/>
   </g>
   <g id="patch_26">
    <path d="M 351.479497 198.947381 
C 355.17908 198.947381 358.727636 197.487004 361.343637 194.887881 
C 363.959637 192.288758 365.429497 188.763096 365.429497 185.087381 
C 365.429497 181.411666 363.959637 177.886004 361.343637 175.286881 
C 358.727636 172.687758 355.17908 171.227381 351.479497 171.227381 
C 347.779914 171.227381 344.231358 172.687758 341.615358 175.286881 
C 338.999357 177.886004 337.529497 181.411666 337.529497 185.087381 
C 337.529497 188.763096 338.999357 192.288758 341.615358 194.887881 
C 344.231358 197.487004 347.779914 198.947381 351.479497 198.947381 
z
" clip-path="url(#p9e94185546)" style="fill: #c0504d; stroke: #366092; stroke-linejoin: miter"/>
   </g>
   <g id="patch_27">
    <path d="M 91.320503 140.376379 
C 95.020086 140.376379 98.568642 138.916002 101.184642 136.316879 
C 103.800643 133.717756 105.270503 130.192094 105.270503 126.516379 
C 105.270503 122.840664 103.800643 119.315002 101.184642 116.715879 
C 98.568642 114.116756 95.020086 112.656379 91.320503 112.656379 
C 87.62092 112.656379 84.072364 114.116756 81.456363 116.715879 
C 78.840363 119.315002 77.370503 122.840664 77.370503 126.516379 
C 77.370503 130.192094 78.840363 133.717756 81.456363 136.316879 
C 84.072364 138.916002 87.62092 140.376379 91.320503 140.376379 
z
" clip-path="url(#p9e94185546)" style="fill: #c0504d; stroke: #366092; stroke-linejoin: miter"/>
   </g>
   <g id="patch_28">
    <path d="M 129.161291 140.376379 
C 132.860874 140.376379 136.40943 138.916002 139.02543 136.316879 
C 141.641431 133.717756 143.111291 130.192094 143.111291 126.516379 
C 143.111291 122.840664 141.641431 119.315002 139.02543 116.715879 
C 136.40943 114.116756 132.860874 112.656379 129.161291 112.656379 
C 125.461707 112.656379 121.913151 114.116756 119.297151 116.715879 
C 116.681151 119.315002 115.211291 122.840664 115.211291 126.516379 
C 115.211291 130.192094 116.681151 133.717756 119.297151 136.316879 
C 121.913151 138.916002 125.461707 140.376379 129.161291 140.376379 
z
" clip-path="url(#p9e94185546)" style="fill: #c0504d; stroke: #366092; stroke-linejoin: miter"/>
   </g>
   <g id="patch_29">
    <path d="M 188.112624 140.376379 
C 191.812207 140.376379 195.360763 138.916002 197.976763 136.316879 
C 200.592764 133.717756 202.062624 130.192094 202.062624 126.516379 
C 202.062624 122.840664 200.592764 119.315002 197.976763 116.715879 
C 195.360763 114.116756 191.812207 112.656379 188.112624 112.656379 
C 184.41304 112.656379 180.864484 114.116756 178.248484 116.715879 
C 175.632484 119.315002 174.162624 122.840664 174.162624 126.516379 
C 174.162624 130.192094 175.632484 133.717756 178.248484 136.316879 
C 180.864484 138.916002 184.41304 140.376379 188.112624 140.376379 
z
" clip-path="url(#p9e94185546)" style="fill: #c0504d; stroke: #366092; stroke-linejoin: miter"/>
   </g>
   <g id="patch_30">
    <path d="M 254.687376 140.376379 
C 258.38696 140.376379 261.935516 138.916002 264.551516 136.316879 
C 267.167516 133.717756 268.637376 130.192094 268.637376 126.516379 
C 268.637376 122.840664 267.167516 119.315002 264.551516 116.715879 
C 261.935516 114.116756 258.38696 112.656379 254.687376 112.656379 
C 250.987793 112.656379 247.439237 114.116756 244.823237 116.715879 
C 242.207236 119.315002 240.737376 122.840664 240.737376 126.516379 
C 240.737376 130.192094 242.207236 133.717756 244.823237 136.316879 
C 247.439237 138.916002 250.987793 140.376379 254.687376 140.376379 
z
" clip-path="url(#p9e94185546)" style="fill: #c0504d; stroke: #366092; stroke-linejoin: miter"/>
   </g>
   <g id="patch_31">
    <path d="M 313.638709 140.376379 
C 317.338293 140.376379 320.886849 138.916002 323.502849 136.316879 
C 326.118849 133.717756 327.588709 130.192094 327.588709 126.516379 
C 327.588709 122.840664 326.118849 119.315002 323.502849 116.715879 
C 320.886849 114.116756 317.338293 112.656379 313.638709 112.656379 
C 309.939126 112.656379 306.39057 114.116756 303.77457 116.715879 
C 301.158569 119.315002 299.688709 122.840664 299.688709 126.516379 
C 299.688709 130.192094 301.158569 133.717756 303.77457 136.316879 
C 306.39057 138.916002 309.939126 140.376379 313.638709 140.376379 
z
" clip-path="url(#p9e94185546)" style="fill: #c0504d; stroke: #366092; stroke-linejoin: miter"/>
   </g>
   <g id="patch_32">
    <path d="M 351.479497 140.376379 
C 355.17908 140.376379 358.727636 138.916002 361.343637 136.316879 
C 363.959637 133.717756 365.429497 130.192094 365.429497 126.516379 
C 365.429497 122.840664 363.959637 119.315002 361.343637 116.715879 
C 358.727636 114.116756 355.17908 112.656379 351.479497 112.656379 
C 347.779914 112.656379 344.231358 114.116756 341.615358 116.715879 
C 338.999357 119.315002 337.529497 122.840664 337.529497 126.516379 
C 337.529497 130.192094 338.999357 133.717756 341.615358 136.316879 
C 344.231358 138.916002 347.779914 140.376379 351.479497 140.376379 
z
" clip-path="url(#p9e94185546)" style="fill: #c0504d; stroke: #366092; stroke-linejoin: miter"/>
   </g>
   <g id="patch_33">
    <path d="M 91.320503 102.779725 
C 95.020086 102.779725 98.568642 101.319348 101.184642 98.720225 
C 103.800643 96.121102 105.270503 92.59544 105.270503 88.919725 
C 105.270503 85.24401 103.800643 81.718348 101.184642 79.119225 
C 98.568642 76.520102 95.020086 75.059725 91.320503 75.059725 
C 87.62092 75.059725 84.072364 76.520102 81.456363 79.119225 
C 78.840363 81.718348 77.370503 85.24401 77.370503 88.919725 
C 77.370503 92.59544 78.840363 96.121102 81.456363 98.720225 
C 84.072364 101.319348 87.62092 102.779725 91.320503 102.779725 
z
" clip-path="url(#p9e94185546)" style="fill: #c0504d; stroke: #366092; stroke-linejoin: miter"/>
   </g>
   <g id="patch_34">
    <path d="M 129.161291 102.779725 
C 132.860874 102.779725 136.40943 101.319348 139.02543 98.720225 
C 141.641431 96.121102 143.111291 92.59544 143.111291 88.919725 
C 143.111291 85.24401 141.641431 81.718348 139.02543 79.119225 
C 136.40943 76.520102 132.860874 75.059725 129.161291 75.059725 
C 125.461707 75.059725 121.913151 76.520102 119.297151 79.119225 
C 116.681151 81.718348 115.211291 85.24401 115.211291 88.919725 
C 115.211291 92.59544 116.681151 96.121102 119.297151 98.720225 
C 121.913151 101.319348 125.461707 102.779725 129.161291 102.779725 
z
" clip-path="url(#p9e94185546)" style="fill: #c0504d; stroke: #366092; stroke-linejoin: miter"/>
   </g>
   <g id="patch_35">
    <path d="M 188.112624 102.779725 
C 191.812207 102.779725 195.360763 101.319348 197.976763 98.720225 
C 200.592764 96.121102 202.062624 92.59544 202.062624 88.919725 
C 202.062624 85.24401 200.592764 81.718348 197.976763 79.119225 
C 195.360763 76.520102 191.812207 75.059725 188.112624 75.059725 
C 184.41304 75.059725 180.864484 76.520102 178.248484 79.119225 
C 175.632484 81.718348 174.162624 85.24401 174.162624 88.919725 
C 174.162624 92.59544 175.632484 96.121102 178.248484 98.720225 
C 180.864484 101.319348 184.41304 102.779725 188.112624 102.779725 
z
" clip-path="url(#p9e94185546)" style="fill: #c0504d; stroke: #366092; stroke-linejoin: miter"/>
   </g>
   <g id="patch_36">
    <path d="M 254.687376 102.779725 
C 258.38696 102.779725 261.935516 101.319348 264.551516 98.720225 
C 267.167516 96.121102 268.637376 92.59544 268.637376 88.919725 
C 268.637376 85.24401 267.167516 81.718348 264.551516 79.119225 
C 261.935516 76.520102 258.38696 75.059725 254.687376 75.059725 
C 250.987793 75.059725 247.439237 76.520102 244.823237 79.119225 
C 242.207236 81.718348 240.737376 85.24401 240.737376 88.919725 
C 240.737376 92.59544 242.207236 96.121102 244.823237 98.720225 
C 247.439237 101.319348 250.987793 102.779725 254.687376 102.779725 
z
" clip-path="url(#p9e94185546)" style="fill: #c0504d; stroke: #366092; stroke-linejoin: miter"/>
   </g>
   <g id="patch_37">
    <path d="M 313.638709 102.779725 
C 317.338293 102.779725 320.886849 101.319348 323.502849 98.720225 
C 326.118849 96.121102 327.588709 92.59544 327.588709 88.919725 
C 327.588709 85.24401 326.118849 81.718348 323.502849 79.119225 
C 320.886849 76.520102 317.338293 75.059725 313.638709 75.059725 
C 309.939126 75.059725 306.39057 76.520102 303.77457 79.119225 
C 301.158569 81.718348 299.688709 85.24401 299.688709 88.919725 
C 299.688709 92.59544 301.158569 96.121102 303.77457 98.720225 
C 306.39057 101.319348 309.939126 102.779725 313.638709 102.779725 
z
" clip-path="url(#p9e94185546)" style="fill: #c0504d; stroke: #366092; stroke-linejoin: miter"/>
   </g>
   <g id="patch_38">
    <path d="M 351.479497 102.779725 
C 355.17908 102.779725 358.727636 101.319348 361.343637 98.720225 
C 363.959637 96.121102 365.429497 92.59544 365.429497 88.919725 
C 365.429497 85.24401 363.959637 81.718348 361.343637 79.119225 
C 358.727636 76.520102 355.17908 75.059725 351.479497 75.059725 
C 347.779914 75.059725 344.231358 76.520102 341.615358 79.119225 
C 338.999357 81.718348 337.529497 85.24401 337.529497 88.919725 
C 337.529497 92.59544 338.999357 96.121102 341.615358 98.720225 
C 344.231358 101.319348 347.779914 102.779725 351.479497 102.779725 
z
" clip-path="url(#p9e94185546)" style="fill: #c0504d; stroke: #366092; stroke-linejoin: miter"/>
   </g>
  </g>
 </g>
 <defs>
  <clipPath id="p9e94185546">
   <rect x="54" y="51.84" width="334.8" height="332.64"/>
  </clipPath>
 </defs>
</svg>
