<?xml version="1.0" encoding="utf-8" standalone="no"?>
<!DOCTYPE svg PUBLIC "-//W3C//DTD SVG 1.1//EN"
  "http://www.w3.org/Graphics/SVG/1.1/DTD/svg11.dtd">
<svg xmlns:xlink="http://www.w3.org/1999/xlink" width="432pt" height="432pt" viewBox="0 0 432 432" xmlns="http://www.w3.org/2000/svg" version="1.1">
 <metadata>
  <rdf:RDF xmlns:dc="http://purl.org/dc/elements/1.1/" xmlns:cc="http://creativecommons.org/ns#" xmlns:rdf="http://www.w3.org/1999/02/22-rdf-syntax-ns#">
   <cc:Work>
    <dc:type rdf:resource="http://purl.org/dc/dcmitype/StillImage"/>
    <dc:date>2025-03-02T17:55:04.502234</dc:date>
    <dc:format>image/svg+xml</dc:format>
    <dc:creator>
     <cc:Agent>
      <dc:title>Matplotlib v3.10.0, https://matplotlib.org/</dc:title>
     </cc:Agent>
    </dc:creator>
   </cc:Work>
  </rdf:RDF>
 </metadata>
 <defs>
  <style type="text/css">*{stroke-linejoin: round; stroke-linecap: butt}</style>
 </defs>
 <g id="figure_1">
  <g id="patch_1">
   <path d="M 0 432 
L 432 432 
L 432 0 
L 0 0 
z
" style="fill: #ffffff"/>
  </g>
  <g id="axes_1">
   <g id="patch_2">
    <path d="M 81.9 356.76 
L 360.9 356.76 
L 360.9 79.56 
L 81.9 79.56 
L 81.9 356.76 
z
" clip-path="url(#p2961916497)" style="fill: none; stroke: #000000; stroke-width: 3; stroke-linejoin: miter"/>
   </g>
   <g id="patch_3">
    <path d="M 81.9 370.62 
C 85.599583 370.62 89.148139 369.159623 91.76414 366.5605 
C 94.38014 363.961377 95.85 360.435715 95.85 356.76 
C 95.85 353.084285 94.38014 349.558623 91.76414 346.9595 
C 89.148139 344.360377 85.599583 342.9 81.9 342.9 
C 78.200417 342.9 74.651861 344.360377 72.03586 346.9595 
C 69.41986 349.558623 67.95 353.084285 67.95 356.76 
C 67.95 360.435715 69.41986 363.961377 72.03586 366.5605 
C 74.651861 369.159623 78.200417 370.62 81.9 370.62 
z
" clip-path="url(#p2961916497)" style="fill: #c0504d; stroke: #366092; stroke-linejoin: miter"/>
   </g>
   <g id="patch_4">
    <path d="M 159.013703 370.62 
C 162.713287 370.62 166.261843 369.159623 168.877843 366.5605 
C 171.493843 363.961377 172.963703 360.435715 172.963703 356.76 
C 172.963703 353.084285 171.493843 349.558623 168.877843 346.9595 
C 166.261843 344.360377 162.713287 342.9 159.013703 342.9 
C 155.31412 342.9 151.765564 344.360377 149.149564 346.9595 
C 146.533563 349.558623 145.063703 353.084285 145.063703 356.76 
C 145.063703 360.435715 146.533563 363.961377 149.149564 366.5605 
C 151.765564 369.159623 155.31412 370.62 159.013703 370.62 
z
" clip-path="url(#p2961916497)" style="fill: #c0504d; stroke: #366092; stroke-linejoin: miter"/>
   </g>
   <g id="patch_5">
    <path d="M 283.786297 370.62 
C 287.48588 370.62 291.034436 369.159623 293.650436 366.5605 
C 296.266437 363.961377 297.736297 360.435715 297.736297 356.76 
C 297.736297 353.084285 296.266437 349.558623 293.650436 346.9595 
C 291.034436 344.360377 287.48588 342.9 283.786297 342.9 
C 280.086713 342.9 276.538157 344.360377 273.922157 346.9595 
C 271.306157 349.558623 269.836297 353.084285 269.836297 356.76 
C 269.836297 360.435715 271.306157 363.961377 273.922157 366.5605 
C 276.538157 369.159623 280.086713 370.62 283.786297 370.62 
z
" clip-path="url(#p2961916497)" style="fill: #c0504d; stroke: #366092; stroke-linejoin: miter"/>
   </g>
   <g id="patch_6">
    <path d="M 360.9 370.62 
C 364.599583 370.62 368.148139 369.159623 370.76414 366.5605 
C 373.38014 363.961377 374.85 360.435715 374.85 356.76 
C 374.85 353.084285 373.38014 349.558623 370.76414 346.9595 
C 368.148139 344.360377 364.599583 342.9 360.9 342.9 
C 357.200417 342.9 353.651861 344.360377 351.03586 346.9595 
C 348.41986 349.558623 346.95 353.084285 346.95 356.76 
C 346.95 360.435715 348.41986 363.961377 351.03586 366.5605 
C 353.651861 369.159623 357.200417 370.62 360.9 370.62 
z
" clip-path="url(#p2961916497)" style="fill: #c0504d; stroke: #366092; stroke-linejoin: miter"/>
   </g>
   <g id="patch_7">
    <path d="M 81.9 294.003804 
C 85.599583 294.003804 89.148139 292.543427 91.76414 289.944304 
C 94.38014 287.345181 95.85 283.819519 95.85 280.143804 
C 95.85 276.468089 94.38014 272.942427 91.76414 270.343304 
C 89.148139 267.744181 85.599583 266.283804 81.9 266.283804 
C 78.200417 266.283804 74.651861 267.744181 72.03586 270.343304 
C 69.41986 272.942427 67.95 276.468089 67.95 280.143804 
C 67.95 283.819519 69.41986 287.345181 72.03586 289.944304 
C 74.651861 292.543427 78.200417 294.003804 81.9 294.003804 
z
" clip-path="url(#p2961916497)" style="fill: #c0504d; stroke: #366092; stroke-linejoin: miter"/>
   </g>
   <g id="patch_8">
    <path d="M 159.013703 294.003804 
C 162.713287 294.003804 166.261843 292.543427 168.877843 289.944304 
C 171.493843 287.345181 172.963703 283.819519 172.963703 280.143804 
C 172.963703 276.468089 171.493843 272.942427 168.877843 270.343304 
C 166.261843 267.744181 162.713287 266.283804 159.013703 266.283804 
C 155.31412 266.283804 151.765564 267.744181 149.149564 270.343304 
C 146.533563 272.942427 145.063703 276.468089 145.063703 280.143804 
C 145.063703 283.819519 146.533563 287.345181 149.149564 289.944304 
C 151.765564 292.543427 155.31412 294.003804 159.013703 294.003804 
z
" clip-path="url(#p2961916497)" style="fill: #c0504d; stroke: #366092; stroke-linejoin: miter"/>
   </g>
   <g id="patch_9">
    <path d="M 283.786297 294.003804 
C 287.48588 294.003804 291.034436 292.543427 293.650436 289.944304 
C 296.266437 287.345181 297.736297 283.819519 297.736297 280.143804 
C 297.736297 276.468089 296.266437 272.942427 293.650436 270.343304 
C 291.034436 267.744181 287.48588 266.283804 283.786297 266.283804 
C 280.086713 266.283804 276.538157 267.744181 273.922157 270.343304 
C 271.306157 272.942427 269.836297 276.468089 269.836297 280.143804 
C 269.836297 283.819519 271.306157 287.345181 273.922157 289.944304 
C 276.538157 292.543427 280.086713 294.003804 283.786297 294.003804 
z
" clip-path="url(#p2961916497)" style="fill: #c0504d; stroke: #366092; stroke-linejoin: miter"/>
   </g>
   <g id="patch_10">
    <path d="M 360.9 294.003804 
C 364.599583 294.003804 368.148139 292.543427 370.76414 289.944304 
C 373.38014 287.345181 374.85 283.819519 374.85 280.143804 
C 374.85 276.468089 373.38014 272.942427 370.76414 270.343304 
C 368.148139 267.744181 364.599583 266.283804 360.9 266.283804 
C 357.200417 266.283804 353.651861 267.744181 351.03586 270.343304 
C 348.41986 272.942427 346.95 276.468089 346.95 280.143804 
C 346.95 283.819519 348.41986 287.345181 351.03586 289.944304 
C 353.651861 292.543427 357.200417 294.003804 360.9 294.003804 
z
" clip-path="url(#p2961916497)" style="fill: #c0504d; stroke: #366092; stroke-linejoin: miter"/>
   </g>
   <g id="patch_11">
    <path d="M 81.9 170.036196 
C 85.599583 170.036196 89.148139 168.575819 91.76414 165.976696 
C 94.38014 163.377573 95.85 159.851911 95.85 156.176196 
C 95.85 152.500481 94.38014 148.974819 91.76414 146.375696 
C 89.148139 143.776573 85.599583 142.316196 81.9 142.316196 
C 78.200417 142.316196 74.651861 143.776573 72.03586 146.375696 
C 69.41986 148.974819 67.95 152.500481 67.95 156.176196 
C 67.95 159.851911 69.41986 163.377573 72.03586 165.976696 
C 74.651861 168.575819 78.200417 170.036196 81.9 170.036196 
z
" clip-path="url(#p2961916497)" style="fill: #c0504d; stroke: #366092; stroke-linejoin: miter"/>
   </g>
   <g id="patch_12">
    <path d="M 159.013703 170.036196 
C 162.713287 170.036196 166.261843 168.575819 168.877843 165.976696 
C 171.493843 163.377573 172.963703 159.851911 172.963703 156.176196 
C 172.963703 152.500481 171.493843 148.974819 168.877843 146.375696 
C 166.261843 143.776573 162.713287 142.316196 159.013703 142.316196 
C 155.31412 142.316196 151.765564 143.776573 149.149564 146.375696 
C 146.533563 148.974819 145.063703 152.500481 145.063703 156.176196 
C 145.063703 159.851911 146.533563 163.377573 149.149564 165.976696 
C 151.765564 168.575819 155.31412 170.036196 159.013703 170.036196 
z
" clip-path="url(#p2961916497)" style="fill: #c0504d; stroke: #366092; stroke-linejoin: miter"/>
   </g>
   <g id="patch_13">
    <path d="M 283.786297 170.036196 
C 287.48588 170.036196 291.034436 168.575819 293.650436 165.976696 
C 296.266437 163.377573 297.736297 159.851911 297.736297 156.176196 
C 297.736297 152.500481 296.266437 148.974819 293.650436 146.375696 
C 291.034436 143.776573 287.48588 142.316196 283.786297 142.316196 
C 280.086713 142.316196 276.538157 143.776573 273.922157 146.375696 
C 271.306157 148.974819 269.836297 152.500481 269.836297 156.176196 
C 269.836297 159.851911 271.306157 163.377573 273.922157 165.976696 
C 276.538157 168.575819 280.086713 170.036196 283.786297 170.036196 
z
" clip-path="url(#p2961916497)" style="fill: #c0504d; stroke: #366092; stroke-linejoin: miter"/>
   </g>
   <g id="patch_14">
    <path d="M 360.9 170.036196 
C 364.599583 170.036196 368.148139 168.575819 370.76414 165.976696 
C 373.38014 163.377573 374.85 159.851911 374.85 156.176196 
C 374.85 152.500481 373.38014 148.974819 370.76414 146.375696 
C 368.148139 143.776573 364.599583 142.316196 360.9 142.316196 
C 357.200417 142.316196 353.651861 143.776573 351.03586 146.375696 
C 348.41986 148.974819 346.95 152.500481 346.95 156.176196 
C 346.95 159.851911 348.41986 163.377573 351.03586 165.976696 
C 353.651861 168.575819 357.200417 170.036196 360.9 170.036196 
z
" clip-path="url(#p2961916497)" style="fill: #c0504d; stroke: #366092; stroke-linejoin: miter"/>
   </g>
   <g id="patch_15">
    <path d="M 81.9 93.42 
C 85.599583 93.42 89.148139 91.959623 91.76414 89.3605 
C 94.38014 86.761377 95.85 83.235715 95.85 79.56 
C 95.85 75.884285 94.38014 72.358623 91.76414 69.7595 
C 89.148139 67.160377 85.599583 65.7 81.9 65.7 
C 78.200417 65.7 74.651861 67.160377 72.03586 69.7595 
C 69.41986 72.358623 67.95 75.884285 67.95 79.56 
C 67.95 83.235715 69.41986 86.761377 72.03586 89.3605 
C 74.651861 91.959623 78.200417 93.42 81.9 93.42 
z
" clip-path="url(#p2961916497)" style="fill: #c0504d; stroke: #366092; stroke-linejoin: miter"/>
   </g>
   <g id="patch_16">
    <path d="M 159.013703 93.42 
C 162.713287 93.42 166.261843 91.959623 168.877843 89.3605 
C 171.493843 86.761377 172.963703 83.235715 172.963703 79.56 
C 172.963703 75.884285 171.493843 72.358623 168.877843 69.7595 
C 166.261843 67.160377 162.713287 65.7 159.013703 65.7 
C 155.31412 65.7 151.765564 67.160377 149.149564 69.7595 
C 146.533563 72.358623 145.063703 75.884285 145.063703 79.56 
C 145.063703 83.235715 146.533563 86.761377 149.149564 89.3605 
C 151.765564 91.959623 155.31412 93.42 159.013703 93.42 
z
" clip-path="url(#p2961916497)" style="fill: #c0504d; stroke: #366092; stroke-linejoin: miter"/>
   </g>
   <g id="patch_17">
    <path d="M 283.786297 93.42 
C 287.48588 93.42 291.034436 91.959623 293.650436 89.3605 
C 296.266437 86.761377 297.736297 83.235715 297.736297 79.56 
C 297.736297 75.884285 296.266437 72.358623 293.650436 69.7595 
C 291.034436 67.160377 287.48588 65.7 283.786297 65.7 
C 280.086713 65.7 276.538157 67.160377 273.922157 69.7595 
C 271.306157 72.358623 269.836297 75.884285 269.836297 79.56 
C 269.836297 83.235715 271.306157 86.761377 273.922157 89.3605 
C 276.538157 91.959623 280.086713 93.42 283.786297 93.42 
z
" clip-path="url(#p2961916497)" style="fill: #c0504d; stroke: #366092; stroke-linejoin: miter"/>
   </g>
   <g id="patch_18">
    <path d="M 360.9 93.42 
C 364.599583 93.42 368.148139 91.959623 370.76414 89.3605 
C 373.38014 86.761377 374.85 83.235715 374.85 79.56 
C 374.85 75.884285 373.38014 72.358623 370.76414 69.7595 
C 368.148139 67.160377 364.599583 65.7 360.9 65.7 
C 357.200417 65.7 353.651861 67.160377 351.03586 69.7595 
C 348.41986 72.358623 346.95 75.884285 346.95 79.56 
C 346.95 83.235715 348.41986 86.761377 351.03586 89.3605 
C 353.651861 91.959623 357.200417 93.42 360.9 93.42 
z
" clip-path="url(#p2961916497)" style="fill: #c0504d; stroke: #366092; stroke-linejoin: miter"/>
   </g>
  </g>
 </g>
 <defs>
  <clipPath id="p2961916497">
   <rect x="54" y="51.84" width="334.8" height="332.64"/>
  </clipPath>
 </defs>
</svg>
