<?xml version="1.0" encoding="utf-8" standalone="no"?>
<!DOCTYPE svg PUBLIC "-//W3C//DTD SVG 1.1//EN"
  "http://www.w3.org/Graphics/SVG/1.1/DTD/svg11.dtd">
<svg xmlns:xlink="http://www.w3.org/1999/xlink" width="432pt" height="432pt" viewBox="0 0 432 432" xmlns="http://www.w3.org/2000/svg" version="1.1">
 <metadata>
  <rdf:RDF xmlns:dc="http://purl.org/dc/elements/1.1/" xmlns:cc="http://creativecommons.org/ns#" xmlns:rdf="http://www.w3.org/1999/02/22-rdf-syntax-ns#">
   <cc:Work>
    <dc:type rdf:resource="http://purl.org/dc/dcmitype/StillImage"/>
    <dc:date>2025-03-02T17:55:05.227445</dc:date>
    <dc:format>image/svg+xml</dc:format>
    <dc:creator>
     <cc:Agent>
      <dc:title>Matplotlib v3.10.0, https://matplotlib.org/</dc:title>
     </cc:Agent>
    </dc:creator>
   </cc:Work>
  </rdf:RDF>
 </metadata>
 <defs>
  <style type="text/css">*{stroke-linejoin: round; stroke-linecap: butt}</style>
 </defs>
 <g id="figure_1">
  <g id="patch_1">
   <path d="M 0 432 
L 432 432 
L 432 0 
L 0 0 
z
" style="fill: #ffffff"/>
  </g>
  <g id="axes_1">
   <g id="patch_2">
    <path d="M 81.9 356.76 
L 360.9 356.76 
L 360.9 79.56 
L 81.9 79.56 
L 81.9 356.76 
z
" clip-path="url(#p73518cb57f)" style="fill: none; stroke: #000000; stroke-width: 3; stroke-linejoin: miter"/>
   </g>
   <g id="patch_3">
    <path d="M 81.9 370.62 
C 85.599583 370.62 89.148139 369.159623 91.76414 366.5605 
C 94.38014 363.961377 95.85 360.435715 95.85 356.76 
C 95.85 353.084285 94.38014 349.558623 91.76414 346.9595 
C 89.148139 344.360377 85.599583 342.9 81.9 342.9 
C 78.200417 342.9 74.651861 344.360377 72.03586 346.9595 
C 69.41986 349.558623 67.95 353.084285 67.95 356.76 
C 67.95 360.435715 69.41986 363.961377 72.03586 366.5605 
C 74.651861 369.159623 78.200417 370.62 81.9 370.62 
z
" clip-path="url(#p73518cb57f)" style="fill: #c0504d; stroke: #366092; stroke-linejoin: miter"/>
   </g>
   <g id="patch_4">
    <path d="M 137.7 370.62 
C 141.399583 370.62 144.948139 369.159623 147.56414 366.5605 
C 150.18014 363.961377 151.65 360.435715 151.65 356.76 
C 151.65 353.084285 150.18014 349.558623 147.56414 346.9595 
C 144.948139 344.360377 141.399583 342.9 137.7 342.9 
C 134.000417 342.9 130.451861 344.360377 127.83586 346.9595 
C 125.21986 349.558623 123.75 353.084285 123.75 356.76 
C 123.75 360.435715 125.21986 363.961377 127.83586 366.5605 
C 130.451861 369.159623 134.000417 370.62 137.7 370.62 
z
" clip-path="url(#p73518cb57f)" style="fill: #c0504d; stroke: #366092; stroke-linejoin: miter"/>
   </g>
   <g id="patch_5">
    <path d="M 193.5 370.62 
C 197.199583 370.62 200.748139 369.159623 203.36414 366.5605 
C 205.98014 363.961377 207.45 360.435715 207.45 356.76 
C 207.45 353.084285 205.98014 349.558623 203.36414 346.9595 
C 200.748139 344.360377 197.199583 342.9 193.5 342.9 
C 189.800417 342.9 186.251861 344.360377 183.63586 346.9595 
C 181.01986 349.558623 179.55 353.084285 179.55 356.76 
C 179.55 360.435715 181.01986 363.961377 183.63586 366.5605 
C 186.251861 369.159623 189.800417 370.62 193.5 370.62 
z
" clip-path="url(#p73518cb57f)" style="fill: #c0504d; stroke: #366092; stroke-linejoin: miter"/>
   </g>
   <g id="patch_6">
    <path d="M 249.3 370.62 
C 252.999583 370.62 256.548139 369.159623 259.16414 366.5605 
C 261.78014 363.961377 263.25 360.435715 263.25 356.76 
C 263.25 353.084285 261.78014 349.558623 259.16414 346.9595 
C 256.548139 344.360377 252.999583 342.9 249.3 342.9 
C 245.600417 342.9 242.051861 344.360377 239.43586 346.9595 
C 236.81986 349.558623 235.35 353.084285 235.35 356.76 
C 235.35 360.435715 236.81986 363.961377 239.43586 366.5605 
C 242.051861 369.159623 245.600417 370.62 249.3 370.62 
z
" clip-path="url(#p73518cb57f)" style="fill: #c0504d; stroke: #366092; stroke-linejoin: miter"/>
   </g>
   <g id="patch_7">
    <path d="M 305.1 370.62 
C 308.799583 370.62 312.348139 369.159623 314.96414 366.5605 
C 317.58014 363.961377 319.05 360.435715 319.05 356.76 
C 319.05 353.084285 317.58014 349.558623 314.96414 346.9595 
C 312.348139 344.360377 308.799583 342.9 305.1 342.9 
C 301.400417 342.9 297.851861 344.360377 295.23586 346.9595 
C 292.61986 349.558623 291.15 353.084285 291.15 356.76 
C 291.15 360.435715 292.61986 363.961377 295.23586 366.5605 
C 297.851861 369.159623 301.400417 370.62 305.1 370.62 
z
" clip-path="url(#p73518cb57f)" style="fill: #c0504d; stroke: #366092; stroke-linejoin: miter"/>
   </g>
   <g id="patch_8">
    <path d="M 360.9 370.62 
C 364.599583 370.62 368.148139 369.159623 370.76414 366.5605 
C 373.38014 363.961377 374.85 360.435715 374.85 356.76 
C 374.85 353.084285 373.38014 349.558623 370.76414 346.9595 
C 368.148139 344.360377 364.599583 342.9 360.9 342.9 
C 357.200417 342.9 353.651861 344.360377 351.03586 346.9595 
C 348.41986 349.558623 346.95 353.084285 346.95 356.76 
C 346.95 360.435715 348.41986 363.961377 351.03586 366.5605 
C 353.651861 369.159623 357.200417 370.62 360.9 370.62 
z
" clip-path="url(#p73518cb57f)" style="fill: #c0504d; stroke: #366092; stroke-linejoin: miter"/>
   </g>
   <g id="patch_9">
    <path d="M 81.9 315.18 
C 85.599583 315.18 89.148139 313.719623 91.76414 311.1205 
C 94.38014 308.521377 95.85 304.995715 95.85 301.32 
C 95.85 297.644285 94.38014 294.118623 91.76414 291.5195 
C 89.148139 288.920377 85.599583 287.46 81.9 287.46 
C 78.200417 287.46 74.651861 288.920377 72.03586 291.5195 
C 69.41986 294.118623 67.95 297.644285 67.95 301.32 
C 67.95 304.995715 69.41986 308.521377 72.03586 311.1205 
C 74.651861 313.719623 78.200417 315.18 81.9 315.18 
z
" clip-path="url(#p73518cb57f)" style="fill: #c0504d; stroke: #366092; stroke-linejoin: miter"/>
   </g>
   <g id="patch_10">
    <path d="M 137.7 315.18 
C 141.399583 315.18 144.948139 313.719623 147.56414 311.1205 
C 150.18014 308.521377 151.65 304.995715 151.65 301.32 
C 151.65 297.644285 150.18014 294.118623 147.56414 291.5195 
C 144.948139 288.920377 141.399583 287.46 137.7 287.46 
C 134.000417 287.46 130.451861 288.920377 127.83586 291.5195 
C 125.21986 294.118623 123.75 297.644285 123.75 301.32 
C 123.75 304.995715 125.21986 308.521377 127.83586 311.1205 
C 130.451861 313.719623 134.000417 315.18 137.7 315.18 
z
" clip-path="url(#p73518cb57f)" style="fill: #c0504d; stroke: #366092; stroke-linejoin: miter"/>
   </g>
   <g id="patch_11">
    <path d="M 193.5 315.18 
C 197.199583 315.18 200.748139 313.719623 203.36414 311.1205 
C 205.98014 308.521377 207.45 304.995715 207.45 301.32 
C 207.45 297.644285 205.98014 294.118623 203.36414 291.5195 
C 200.748139 288.920377 197.199583 287.46 193.5 287.46 
C 189.800417 287.46 186.251861 288.920377 183.63586 291.5195 
C 181.01986 294.118623 179.55 297.644285 179.55 301.32 
C 179.55 304.995715 181.01986 308.521377 183.63586 311.1205 
C 186.251861 313.719623 189.800417 315.18 193.5 315.18 
z
" clip-path="url(#p73518cb57f)" style="fill: #c0504d; stroke: #366092; stroke-linejoin: miter"/>
   </g>
   <g id="patch_12">
    <path d="M 249.3 315.18 
C 252.999583 315.18 256.548139 313.719623 259.16414 311.1205 
C 261.78014 308.521377 263.25 304.995715 263.25 301.32 
C 263.25 297.644285 261.78014 294.118623 259.16414 291.5195 
C 256.548139 288.920377 252.999583 287.46 249.3 287.46 
C 245.600417 287.46 242.051861 288.920377 239.43586 291.5195 
C 236.81986 294.118623 235.35 297.644285 235.35 301.32 
C 235.35 304.995715 236.81986 308.521377 239.43586 311.1205 
C 242.051861 313.719623 245.600417 315.18 249.3 315.18 
z
" clip-path="url(#p73518cb57f)" style="fill: #c0504d; stroke: #366092; stroke-linejoin: miter"/>
   </g>
   <g id="patch_13">
    <path d="M 305.1 315.18 
C 308.799583 315.18 312.348139 313.719623 314.96414 311.1205 
C 317.58014 308.521377 319.05 304.995715 319.05 301.32 
C 319.05 297.644285 317.58014 294.118623 314.96414 291.5195 
C 312.348139 288.920377 308.799583 287.46 305.1 287.46 
C 301.400417 287.46 297.851861 288.920377 295.23586 291.5195 
C 292.61986 294.118623 291.15 297.644285 291.15 301.32 
C 291.15 304.995715 292.61986 308.521377 295.23586 311.1205 
C 297.851861 313.719623 301.400417 315.18 305.1 315.18 
z
" clip-path="url(#p73518cb57f)" style="fill: #c0504d; stroke: #366092; stroke-linejoin: miter"/>
   </g>
   <g id="patch_14">
    <path d="M 360.9 315.18 
C 364.599583 315.18 368.148139 313.719623 370.76414 311.1205 
C 373.38014 308.521377 374.85 304.995715 374.85 301.32 
C 374.85 297.644285 373.38014 294.118623 370.76414 291.5195 
C 368.148139 288.920377 364.599583 287.46 360.9 287.46 
C 357.200417 287.46 353.651861 288.920377 351.03586 291.5195 
C 348.41986 294.118623 346.95 297.644285 346.95 301.32 
C 346.95 304.995715 348.41986 308.521377 351.03586 311.1205 
C 353.651861 313.719623 357.200417 315.18 360.9 315.18 
z
" clip-path="url(#p73518cb57f)" style="fill: #c0504d; stroke: #366092; stroke-linejoin: miter"/>
   </g>
   <g id="patch_15">
    <path d="M 81.9 259.74 
C 85.599583 259.74 89.148139 258.279623 91.76414 255.6805 
C 94.38014 253.081377 95.85 249.555715 95.85 245.88 
C 95.85 242.204285 94.38014 238.678623 91.76414 236.0795 
C 89.148139 233.480377 85.599583 232.02 81.9 232.02 
C 78.200417 232.02 74.651861 233.480377 72.03586 236.0795 
C 69.41986 238.678623 67.95 242.204285 67.95 245.88 
C 67.95 249.555715 69.41986 253.081377 72.03586 255.6805 
C 74.651861 258.279623 78.200417 259.74 81.9 259.74 
z
" clip-path="url(#p73518cb57f)" style="fill: #c0504d; stroke: #366092; stroke-linejoin: miter"/>
   </g>
   <g id="patch_16">
    <path d="M 137.7 259.74 
C 141.399583 259.74 144.948139 258.279623 147.56414 255.6805 
C 150.18014 253.081377 151.65 249.555715 151.65 245.88 
C 151.65 242.204285 150.18014 238.678623 147.56414 236.0795 
C 144.948139 233.480377 141.399583 232.02 137.7 232.02 
C 134.000417 232.02 130.451861 233.480377 127.83586 236.0795 
C 125.21986 238.678623 123.75 242.204285 123.75 245.88 
C 123.75 249.555715 125.21986 253.081377 127.83586 255.6805 
C 130.451861 258.279623 134.000417 259.74 137.7 259.74 
z
" clip-path="url(#p73518cb57f)" style="fill: #c0504d; stroke: #366092; stroke-linejoin: miter"/>
   </g>
   <g id="patch_17">
    <path d="M 193.5 259.74 
C 197.199583 259.74 200.748139 258.279623 203.36414 255.6805 
C 205.98014 253.081377 207.45 249.555715 207.45 245.88 
C 207.45 242.204285 205.98014 238.678623 203.36414 236.0795 
C 200.748139 233.480377 197.199583 232.02 193.5 232.02 
C 189.800417 232.02 186.251861 233.480377 183.63586 236.0795 
C 181.01986 238.678623 179.55 242.204285 179.55 245.88 
C 179.55 249.555715 181.01986 253.081377 183.63586 255.6805 
C 186.251861 258.279623 189.800417 259.74 193.5 259.74 
z
" clip-path="url(#p73518cb57f)" style="fill: #c0504d; stroke: #366092; stroke-linejoin: miter"/>
   </g>
   <g id="patch_18">
    <path d="M 249.3 259.74 
C 252.999583 259.74 256.548139 258.279623 259.16414 255.6805 
C 261.78014 253.081377 263.25 249.555715 263.25 245.88 
C 263.25 242.204285 261.78014 238.678623 259.16414 236.0795 
C 256.548139 233.480377 252.999583 232.02 249.3 232.02 
C 245.600417 232.02 242.051861 233.480377 239.43586 236.0795 
C 236.81986 238.678623 235.35 242.204285 235.35 245.88 
C 235.35 249.555715 236.81986 253.081377 239.43586 255.6805 
C 242.051861 258.279623 245.600417 259.74 249.3 259.74 
z
" clip-path="url(#p73518cb57f)" style="fill: #c0504d; stroke: #366092; stroke-linejoin: miter"/>
   </g>
   <g id="patch_19">
    <path d="M 305.1 259.74 
C 308.799583 259.74 312.348139 258.279623 314.96414 255.6805 
C 317.58014 253.081377 319.05 249.555715 319.05 245.88 
C 319.05 242.204285 317.58014 238.678623 314.96414 236.0795 
C 312.348139 233.480377 308.799583 232.02 305.1 232.02 
C 301.400417 232.02 297.851861 233.480377 295.23586 236.0795 
C 292.61986 238.678623 291.15 242.204285 291.15 245.88 
C 291.15 249.555715 292.61986 253.081377 295.23586 255.6805 
C 297.851861 258.279623 301.400417 259.74 305.1 259.74 
z
" clip-path="url(#p73518cb57f)" style="fill: #c0504d; stroke: #366092; stroke-linejoin: miter"/>
   </g>
   <g id="patch_20">
    <path d="M 360.9 259.74 
C 364.599583 259.74 368.148139 258.279623 370.76414 255.6805 
C 373.38014 253.081377 374.85 249.555715 374.85 245.88 
C 374.85 242.204285 373.38014 238.678623 370.76414 236.0795 
C 368.148139 233.480377 364.599583 232.02 360.9 232.02 
C 357.200417 232.02 353.651861 233.480377 351.03586 236.0795 
C 348.41986 238.678623 346.95 242.204285 346.95 245.88 
C 346.95 249.555715 348.41986 253.081377 351.03586 255.6805 
C 353.651861 258.279623 357.200417 259.74 360.9 259.74 
z
" clip-path="url(#p73518cb57f)" style="fill: #c0504d; stroke: #366092; stroke-linejoin: miter"/>
   </g>
   <g id="patch_21">
    <path d="M 81.9 204.3 
C 85.599583 204.3 89.148139 202.839623 91.76414 200.2405 
C 94.38014 197.641377 95.85 194.115715 95.85 190.44 
C 95.85 186.764285 94.38014 183.238623 91.76414 180.6395 
C 89.148139 178.040377 85.599583 176.58 81.9 176.58 
C 78.200417 176.58 74.651861 178.040377 72.03586 180.6395 
C 69.41986 183.238623 67.95 186.764285 67.95 190.44 
C 67.95 194.115715 69.41986 197.641377 72.03586 200.2405 
C 74.651861 202.839623 78.200417 204.3 81.9 204.3 
z
" clip-path="url(#p73518cb57f)" style="fill: #c0504d; stroke: #366092; stroke-linejoin: miter"/>
   </g>
   <g id="patch_22">
    <path d="M 137.7 204.3 
C 141.399583 204.3 144.948139 202.839623 147.56414 200.2405 
C 150.18014 197.641377 151.65 194.115715 151.65 190.44 
C 151.65 186.764285 150.18014 183.238623 147.56414 180.6395 
C 144.948139 178.040377 141.399583 176.58 137.7 176.58 
C 134.000417 176.58 130.451861 178.040377 127.83586 180.6395 
C 125.21986 183.238623 123.75 186.764285 123.75 190.44 
C 123.75 194.115715 125.21986 197.641377 127.83586 200.2405 
C 130.451861 202.839623 134.000417 204.3 137.7 204.3 
z
" clip-path="url(#p73518cb57f)" style="fill: #c0504d; stroke: #366092; stroke-linejoin: miter"/>
   </g>
   <g id="patch_23">
    <path d="M 193.5 204.3 
C 197.199583 204.3 200.748139 202.839623 203.36414 200.2405 
C 205.98014 197.641377 207.45 194.115715 207.45 190.44 
C 207.45 186.764285 205.98014 183.238623 203.36414 180.6395 
C 200.748139 178.040377 197.199583 176.58 193.5 176.58 
C 189.800417 176.58 186.251861 178.040377 183.63586 180.6395 
C 181.01986 183.238623 179.55 186.764285 179.55 190.44 
C 179.55 194.115715 181.01986 197.641377 183.63586 200.2405 
C 186.251861 202.839623 189.800417 204.3 193.5 204.3 
z
" clip-path="url(#p73518cb57f)" style="fill: #c0504d; stroke: #366092; stroke-linejoin: miter"/>
   </g>
   <g id="patch_24">
    <path d="M 249.3 204.3 
C 252.999583 204.3 256.548139 202.839623 259.16414 200.2405 
C 261.78014 197.641377 263.25 194.115715 263.25 190.44 
C 263.25 186.764285 261.78014 183.238623 259.16414 180.6395 
C 256.548139 178.040377 252.999583 176.58 249.3 176.58 
C 245.600417 176.58 242.051861 178.040377 239.43586 180.6395 
C 236.81986 183.238623 235.35 186.764285 235.35 190.44 
C 235.35 194.115715 236.81986 197.641377 239.43586 200.2405 
C 242.051861 202.839623 245.600417 204.3 249.3 204.3 
z
" clip-path="url(#p73518cb57f)" style="fill: #c0504d; stroke: #366092; stroke-linejoin: miter"/>
   </g>
   <g id="patch_25">
    <path d="M 305.1 204.3 
C 308.799583 204.3 312.348139 202.839623 314.96414 200.2405 
C 317.58014 197.641377 319.05 194.115715 319.05 190.44 
C 319.05 186.764285 317.58014 183.238623 314.96414 180.6395 
C 312.348139 178.040377 308.799583 176.58 305.1 176.58 
C 301.400417 176.58 297.851861 178.040377 295.23586 180.6395 
C 292.61986 183.238623 291.15 186.764285 291.15 190.44 
C 291.15 194.115715 292.61986 197.641377 295.23586 200.2405 
C 297.851861 202.839623 301.400417 204.3 305.1 204.3 
z
" clip-path="url(#p73518cb57f)" style="fill: #c0504d; stroke: #366092; stroke-linejoin: miter"/>
   </g>
   <g id="patch_26">
    <path d="M 360.9 204.3 
C 364.599583 204.3 368.148139 202.839623 370.76414 200.2405 
C 373.38014 197.641377 374.85 194.115715 374.85 190.44 
C 374.85 186.764285 373.38014 183.238623 370.76414 180.6395 
C 368.148139 178.040377 364.599583 176.58 360.9 176.58 
C 357.200417 176.58 353.651861 178.040377 351.03586 180.6395 
C 348.41986 183.238623 346.95 186.764285 346.95 190.44 
C 346.95 194.115715 348.41986 197.641377 351.03586 200.2405 
C 353.651861 202.839623 357.200417 204.3 360.9 204.3 
z
" clip-path="url(#p73518cb57f)" style="fill: #c0504d; stroke: #366092; stroke-linejoin: miter"/>
   </g>
   <g id="patch_27">
    <path d="M 81.9 148.86 
C 85.599583 148.86 89.148139 147.399623 91.76414 144.8005 
C 94.38014 142.201377 95.85 138.675715 95.85 135 
C 95.85 131.324285 94.38014 127.798623 91.76414 125.1995 
C 89.148139 122.600377 85.599583 121.14 81.9 121.14 
C 78.200417 121.14 74.651861 122.600377 72.03586 125.1995 
C 69.41986 127.798623 67.95 131.324285 67.95 135 
C 67.95 138.675715 69.41986 142.201377 72.03586 144.8005 
C 74.651861 147.399623 78.200417 148.86 81.9 148.86 
z
" clip-path="url(#p73518cb57f)" style="fill: #c0504d; stroke: #366092; stroke-linejoin: miter"/>
   </g>
   <g id="patch_28">
    <path d="M 137.7 148.86 
C 141.399583 148.86 144.948139 147.399623 147.56414 144.8005 
C 150.18014 142.201377 151.65 138.675715 151.65 135 
C 151.65 131.324285 150.18014 127.798623 147.56414 125.1995 
C 144.948139 122.600377 141.399583 121.14 137.7 121.14 
C 134.000417 121.14 130.451861 122.600377 127.83586 125.1995 
C 125.21986 127.798623 123.75 131.324285 123.75 135 
C 123.75 138.675715 125.21986 142.201377 127.83586 144.8005 
C 130.451861 147.399623 134.000417 148.86 137.7 148.86 
z
" clip-path="url(#p73518cb57f)" style="fill: #c0504d; stroke: #366092; stroke-linejoin: miter"/>
   </g>
   <g id="patch_29">
    <path d="M 193.5 148.86 
C 197.199583 148.86 200.748139 147.399623 203.36414 144.8005 
C 205.98014 142.201377 207.45 138.675715 207.45 135 
C 207.45 131.324285 205.98014 127.798623 203.36414 125.1995 
C 200.748139 122.600377 197.199583 121.14 193.5 121.14 
C 189.800417 121.14 186.251861 122.600377 183.63586 125.1995 
C 181.01986 127.798623 179.55 131.324285 179.55 135 
C 179.55 138.675715 181.01986 142.201377 183.63586 144.8005 
C 186.251861 147.399623 189.800417 148.86 193.5 148.86 
z
" clip-path="url(#p73518cb57f)" style="fill: #c0504d; stroke: #366092; stroke-linejoin: miter"/>
   </g>
   <g id="patch_30">
    <path d="M 249.3 148.86 
C 252.999583 148.86 256.548139 147.399623 259.16414 144.8005 
C 261.78014 142.201377 263.25 138.675715 263.25 135 
C 263.25 131.324285 261.78014 127.798623 259.16414 125.1995 
C 256.548139 122.600377 252.999583 121.14 249.3 121.14 
C 245.600417 121.14 242.051861 122.600377 239.43586 125.1995 
C 236.81986 127.798623 235.35 131.324285 235.35 135 
C 235.35 138.675715 236.81986 142.201377 239.43586 144.8005 
C 242.051861 147.399623 245.600417 148.86 249.3 148.86 
z
" clip-path="url(#p73518cb57f)" style="fill: #c0504d; stroke: #366092; stroke-linejoin: miter"/>
   </g>
   <g id="patch_31">
    <path d="M 305.1 148.86 
C 308.799583 148.86 312.348139 147.399623 314.96414 144.8005 
C 317.58014 142.201377 319.05 138.675715 319.05 135 
C 319.05 131.324285 317.58014 127.798623 314.96414 125.1995 
C 312.348139 122.600377 308.799583 121.14 305.1 121.14 
C 301.400417 121.14 297.851861 122.600377 295.23586 125.1995 
C 292.61986 127.798623 291.15 131.324285 291.15 135 
C 291.15 138.675715 292.61986 142.201377 295.23586 144.8005 
C 297.851861 147.399623 301.400417 148.86 305.1 148.86 
z
" clip-path="url(#p73518cb57f)" style="fill: #c0504d; stroke: #366092; stroke-linejoin: miter"/>
   </g>
   <g id="patch_32">
    <path d="M 360.9 148.86 
C 364.599583 148.86 368.148139 147.399623 370.76414 144.8005 
C 373.38014 142.201377 374.85 138.675715 374.85 135 
C 374.85 131.324285 373.38014 127.798623 370.76414 125.1995 
C 368.148139 122.600377 364.599583 121.14 360.9 121.14 
C 357.200417 121.14 353.651861 122.600377 351.03586 125.1995 
C 348.41986 127.798623 346.95 131.324285 346.95 135 
C 346.95 138.675715 348.41986 142.201377 351.03586 144.8005 
C 353.651861 147.399623 357.200417 148.86 360.9 148.86 
z
" clip-path="url(#p73518cb57f)" style="fill: #c0504d; stroke: #366092; stroke-linejoin: miter"/>
   </g>
   <g id="patch_33">
    <path d="M 81.9 93.42 
C 85.599583 93.42 89.148139 91.959623 91.76414 89.3605 
C 94.38014 86.761377 95.85 83.235715 95.85 79.56 
C 95.85 75.884285 94.38014 72.358623 91.76414 69.7595 
C 89.148139 67.160377 85.599583 65.7 81.9 65.7 
C 78.200417 65.7 74.651861 67.160377 72.03586 69.7595 
C 69.41986 72.358623 67.95 75.884285 67.95 79.56 
C 67.95 83.235715 69.41986 86.761377 72.03586 89.3605 
C 74.651861 91.959623 78.200417 93.42 81.9 93.42 
z
" clip-path="url(#p73518cb57f)" style="fill: #c0504d; stroke: #366092; stroke-linejoin: miter"/>
   </g>
   <g id="patch_34">
    <path d="M 137.7 93.42 
C 141.399583 93.42 144.948139 91.959623 147.56414 89.3605 
C 150.18014 86.761377 151.65 83.235715 151.65 79.56 
C 151.65 75.884285 150.18014 72.358623 147.56414 69.7595 
C 144.948139 67.160377 141.399583 65.7 137.7 65.7 
C 134.000417 65.7 130.451861 67.160377 127.83586 69.7595 
C 125.21986 72.358623 123.75 75.884285 123.75 79.56 
C 123.75 83.235715 125.21986 86.761377 127.83586 89.3605 
C 130.451861 91.959623 134.000417 93.42 137.7 93.42 
z
" clip-path="url(#p73518cb57f)" style="fill: #c0504d; stroke: #366092; stroke-linejoin: miter"/>
   </g>
   <g id="patch_35">
    <path d="M 193.5 93.42 
C 197.199583 93.42 200.748139 91.959623 203.36414 89.3605 
C 205.98014 86.761377 207.45 83.235715 207.45 79.56 
C 207.45 75.884285 205.98014 72.358623 203.36414 69.7595 
C 200.748139 67.160377 197.199583 65.7 193.5 65.7 
C 189.800417 65.7 186.251861 67.160377 183.63586 69.7595 
C 181.01986 72.358623 179.55 75.884285 179.55 79.56 
C 179.55 83.235715 181.01986 86.761377 183.63586 89.3605 
C 186.251861 91.959623 189.800417 93.42 193.5 93.42 
z
" clip-path="url(#p73518cb57f)" style="fill: #c0504d; stroke: #366092; stroke-linejoin: miter"/>
   </g>
   <g id="patch_36">
    <path d="M 249.3 93.42 
C 252.999583 93.42 256.548139 91.959623 259.16414 89.3605 
C 261.78014 86.761377 263.25 83.235715 263.25 79.56 
C 263.25 75.884285 261.78014 72.358623 259.16414 69.7595 
C 256.548139 67.160377 252.999583 65.7 249.3 65.7 
C 245.600417 65.7 242.051861 67.160377 239.43586 69.7595 
C 236.81986 72.358623 235.35 75.884285 235.35 79.56 
C 235.35 83.235715 236.81986 86.761377 239.43586 89.3605 
C 242.051861 91.959623 245.600417 93.42 249.3 93.42 
z
" clip-path="url(#p73518cb57f)" style="fill: #c0504d; stroke: #366092; stroke-linejoin: miter"/>
   </g>
   <g id="patch_37">
    <path d="M 305.1 93.42 
C 308.799583 93.42 312.348139 91.959623 314.96414 89.3605 
C 317.58014 86.761377 319.05 83.235715 319.05 79.56 
C 319.05 75.884285 317.58014 72.358623 314.96414 69.7595 
C 312.348139 67.160377 308.799583 65.7 305.1 65.7 
C 301.400417 65.7 297.851861 67.160377 295.23586 69.7595 
C 292.61986 72.358623 291.15 75.884285 291.15 79.56 
C 291.15 83.235715 292.61986 86.761377 295.23586 89.3605 
C 297.851861 91.959623 301.400417 93.42 305.1 93.42 
z
" clip-path="url(#p73518cb57f)" style="fill: #c0504d; stroke: #366092; stroke-linejoin: miter"/>
   </g>
   <g id="patch_38">
    <path d="M 360.9 93.42 
C 364.599583 93.42 368.148139 91.959623 370.76414 89.3605 
C 373.38014 86.761377 374.85 83.235715 374.85 79.56 
C 374.85 75.884285 373.38014 72.358623 370.76414 69.7595 
C 368.148139 67.160377 364.599583 65.7 360.9 65.7 
C 357.200417 65.7 353.651861 67.160377 351.03586 69.7595 
C 348.41986 72.358623 346.95 75.884285 346.95 79.56 
C 346.95 83.235715 348.41986 86.761377 351.03586 89.3605 
C 353.651861 91.959623 357.200417 93.42 360.9 93.42 
z
" clip-path="url(#p73518cb57f)" style="fill: #c0504d; stroke: #366092; stroke-linejoin: miter"/>
   </g>
  </g>
 </g>
 <defs>
  <clipPath id="p73518cb57f">
   <rect x="54" y="51.84" width="334.8" height="332.64"/>
  </clipPath>
 </defs>
</svg>
