<?xml version="1.0" encoding="utf-8" standalone="no"?>
<!DOCTYPE svg PUBLIC "-//W3C//DTD SVG 1.1//EN"
  "http://www.w3.org/Graphics/SVG/1.1/DTD/svg11.dtd">
<svg xmlns:xlink="http://www.w3.org/1999/xlink" width="432pt" height="432pt" viewBox="0 0 432 432" xmlns="http://www.w3.org/2000/svg" version="1.1">
 <metadata>
  <rdf:RDF xmlns:dc="http://purl.org/dc/elements/1.1/" xmlns:cc="http://creativecommons.org/ns#" xmlns:rdf="http://www.w3.org/1999/02/22-rdf-syntax-ns#">
   <cc:Work>
    <dc:type rdf:resource="http://purl.org/dc/dcmitype/StillImage"/>
    <dc:date>2025-03-02T17:37:36.837027</dc:date>
    <dc:format>image/svg+xml</dc:format>
    <dc:creator>
     <cc:Agent>
      <dc:title>Matplotlib v3.10.0, https://matplotlib.org/</dc:title>
     </cc:Agent>
    </dc:creator>
   </cc:Work>
  </rdf:RDF>
 </metadata>
 <defs>
  <style type="text/css">*{stroke-linejoin: round; stroke-linecap: butt}</style>
 </defs>
 <g id="figure_1">
  <g id="patch_1">
   <path d="M 0 432 
L 432 432 
L 432 0 
L 0 0 
z
" style="fill: #ffffff"/>
  </g>
  <g id="axes_1">
   <g id="patch_2">
    <path d="M 81.9 356.76 
L 360.9 356.76 
L 360.9 79.56 
L 81.9 79.56 
L 81.9 356.76 
z
" clip-path="url(#pe811dc0b19)" style="fill: none; stroke: #969696; stroke-width: 1.5; stroke-linejoin: miter"/>
   </g>
   <g id="patch_3">
    <path d="M 314.4 329.6175 
C 319.486927 329.6175 324.366191 327.609482 327.963192 324.035687 
C 331.560192 320.461893 333.58125 315.614108 333.58125 310.56 
C 333.58125 305.505892 331.560192 300.658107 327.963192 297.084313 
C 324.366191 293.510518 319.486927 291.5025 314.4 291.5025 
C 309.313073 291.5025 304.433809 293.510518 300.836808 297.084313 
C 297.239808 300.658107 295.21875 305.505892 295.21875 310.56 
C 295.21875 315.614108 297.239808 320.461893 300.836808 324.035687 
C 304.433809 327.609482 309.313073 329.6175 314.4 329.6175 
z
" clip-path="url(#pe811dc0b19)" style="fill: #0871b7; fill-opacity: 0.752941; stroke: #231f20; stroke-linejoin: miter"/>
   </g>
   <g id="patch_4">
    <path d="M 128.4 144.8175 
C 133.486927 144.8175 138.366191 142.809482 141.963192 139.235687 
C 145.560192 135.661893 147.58125 130.814108 147.58125 125.76 
C 147.58125 120.705892 145.560192 115.858107 141.963192 112.284313 
C 138.366191 108.710518 133.486927 106.7025 128.4 106.7025 
C 123.313073 106.7025 118.433809 108.710518 114.836808 112.284313 
C 111.239808 115.858107 109.21875 120.705892 109.21875 125.76 
C 109.21875 130.814108 111.239808 135.661893 114.836808 139.235687 
C 118.433809 142.809482 123.313073 144.8175 128.4 144.8175 
z
" clip-path="url(#pe811dc0b19)" style="fill: #0871b7; fill-opacity: 0.752941; stroke: #231f20; stroke-linejoin: miter"/>
   </g>
   <g id="patch_5">
    <path d="M 314.4 144.8175 
C 319.486927 144.8175 324.366191 142.809482 327.963192 139.235687 
C 331.560192 135.661893 333.58125 130.814108 333.58125 125.76 
C 333.58125 120.705892 331.560192 115.858107 327.963192 112.284313 
C 324.366191 108.710518 319.486927 106.7025 314.4 106.7025 
C 309.313073 106.7025 304.433809 108.710518 300.836808 112.284313 
C 297.239808 115.858107 295.21875 120.705892 295.21875 125.76 
C 295.21875 130.814108 297.239808 135.661893 300.836808 139.235687 
C 304.433809 142.809482 309.313073 144.8175 314.4 144.8175 
z
" clip-path="url(#pe811dc0b19)" style="fill: #0871b7; fill-opacity: 0.752941; stroke: #231f20; stroke-linejoin: miter"/>
   </g>
   <g id="patch_6">
    <path d="M 128.4 329.6175 
C 133.486927 329.6175 138.366191 327.609482 141.963192 324.035687 
C 145.560192 320.461893 147.58125 315.614108 147.58125 310.56 
C 147.58125 305.505892 145.560192 300.658107 141.963192 297.084313 
C 138.366191 293.510518 133.486927 291.5025 128.4 291.5025 
C 123.313073 291.5025 118.433809 293.510518 114.836808 297.084313 
C 111.239808 300.658107 109.21875 305.505892 109.21875 310.56 
C 109.21875 315.614108 111.239808 320.461893 114.836808 324.035687 
C 118.433809 327.609482 123.313073 329.6175 128.4 329.6175 
z
" clip-path="url(#pe811dc0b19)" style="fill: #0871b7; fill-opacity: 0.752941; stroke: #231f20; stroke-linejoin: miter"/>
   </g>
   <g id="patch_7">
    <path d="M 314.4 285.85976 
C 320.138828 285.85976 325.64338 283.594409 329.701344 279.562626 
C 333.759308 275.530842 336.039368 270.061803 336.039368 264.36 
C 336.039368 258.658197 333.759308 253.189158 329.701344 249.157374 
C 325.64338 245.125591 320.138828 242.86024 314.4 242.86024 
C 308.661172 242.86024 303.15662 245.125591 299.098656 249.157374 
C 295.040692 253.189158 292.760632 258.658197 292.760632 264.36 
C 292.760632 270.061803 295.040692 275.530842 299.098656 279.562626 
C 303.15662 283.594409 308.661172 285.85976 314.4 285.85976 
z
" clip-path="url(#pe811dc0b19)" style="fill: #b74e08; fill-opacity: 0.752941; stroke: #231f20; stroke-linejoin: miter"/>
   </g>
   <g id="patch_8">
    <path d="M 174.9 147.25976 
C 180.638828 147.25976 186.14338 144.994409 190.201344 140.962626 
C 194.259308 136.930842 196.539368 131.461803 196.539368 125.76 
C 196.539368 120.058197 194.259308 114.589158 190.201344 110.557374 
C 186.14338 106.525591 180.638828 104.26024 174.9 104.26024 
C 169.161172 104.26024 163.65662 106.525591 159.598656 110.557374 
C 155.540692 114.589158 153.260632 120.058197 153.260632 125.76 
C 153.260632 131.461803 155.540692 136.930842 159.598656 140.962626 
C 163.65662 144.994409 169.161172 147.25976 174.9 147.25976 
z
" clip-path="url(#pe811dc0b19)" style="fill: #b74e08; fill-opacity: 0.752941; stroke: #231f20; stroke-linejoin: miter"/>
   </g>
   <g id="patch_9">
    <path d="M 314.4 193.45976 
C 320.138828 193.45976 325.64338 191.194409 329.701344 187.162626 
C 333.759308 183.130842 336.039368 177.661803 336.039368 171.96 
C 336.039368 166.258197 333.759308 160.789158 329.701344 156.757374 
C 325.64338 152.725591 320.138828 150.46024 314.4 150.46024 
C 308.661172 150.46024 303.15662 152.725591 299.098656 156.757374 
C 295.040692 160.789158 292.760632 166.258197 292.760632 171.96 
C 292.760632 177.661803 295.040692 183.130842 299.098656 187.162626 
C 303.15662 191.194409 308.661172 193.45976 314.4 193.45976 
z
" clip-path="url(#pe811dc0b19)" style="fill: #b74e08; fill-opacity: 0.752941; stroke: #231f20; stroke-linejoin: miter"/>
   </g>
   <g id="patch_10">
    <path d="M 267.9 147.25976 
C 273.638828 147.25976 279.14338 144.994409 283.201344 140.962626 
C 287.259308 136.930842 289.539368 131.461803 289.539368 125.76 
C 289.539368 120.058197 287.259308 114.589158 283.201344 110.557374 
C 279.14338 106.525591 273.638828 104.26024 267.9 104.26024 
C 262.161172 104.26024 256.65662 106.525591 252.598656 110.557374 
C 248.540692 114.589158 246.260632 120.058197 246.260632 125.76 
C 246.260632 131.461803 248.540692 136.930842 252.598656 140.962626 
C 256.65662 144.994409 262.161172 147.25976 267.9 147.25976 
z
" clip-path="url(#pe811dc0b19)" style="fill: #b74e08; fill-opacity: 0.752941; stroke: #231f20; stroke-linejoin: miter"/>
   </g>
   <g id="patch_11">
    <path d="M 267.9 332.05976 
C 273.638828 332.05976 279.14338 329.794409 283.201344 325.762626 
C 287.259308 321.730842 289.539368 316.261803 289.539368 310.56 
C 289.539368 304.858197 287.259308 299.389158 283.201344 295.357374 
C 279.14338 291.325591 273.638828 289.06024 267.9 289.06024 
C 262.161172 289.06024 256.65662 291.325591 252.598656 295.357374 
C 248.540692 299.389158 246.260632 304.858197 246.260632 310.56 
C 246.260632 316.261803 248.540692 321.730842 252.598656 325.762626 
C 256.65662 329.794409 262.161172 332.05976 267.9 332.05976 
z
" clip-path="url(#pe811dc0b19)" style="fill: #b74e08; fill-opacity: 0.752941; stroke: #231f20; stroke-linejoin: miter"/>
   </g>
   <g id="patch_12">
    <path d="M 128.4 193.45976 
C 134.138828 193.45976 139.64338 191.194409 143.701344 187.162626 
C 147.759308 183.130842 150.039368 177.661803 150.039368 171.96 
C 150.039368 166.258197 147.759308 160.789158 143.701344 156.757374 
C 139.64338 152.725591 134.138828 150.46024 128.4 150.46024 
C 122.661172 150.46024 117.15662 152.725591 113.098656 156.757374 
C 109.040692 160.789158 106.760632 166.258197 106.760632 171.96 
C 106.760632 177.661803 109.040692 183.130842 113.098656 187.162626 
C 117.15662 191.194409 122.661172 193.45976 128.4 193.45976 
z
" clip-path="url(#pe811dc0b19)" style="fill: #b74e08; fill-opacity: 0.752941; stroke: #231f20; stroke-linejoin: miter"/>
   </g>
   <g id="patch_13">
    <path d="M 174.9 332.05976 
C 180.638828 332.05976 186.14338 329.794409 190.201344 325.762626 
C 194.259308 321.730842 196.539368 316.261803 196.539368 310.56 
C 196.539368 304.858197 194.259308 299.389158 190.201344 295.357374 
C 186.14338 291.325591 180.638828 289.06024 174.9 289.06024 
C 169.161172 289.06024 163.65662 291.325591 159.598656 295.357374 
C 155.540692 299.389158 153.260632 304.858197 153.260632 310.56 
C 153.260632 316.261803 155.540692 321.730842 159.598656 325.762626 
C 163.65662 329.794409 169.161172 332.05976 174.9 332.05976 
z
" clip-path="url(#pe811dc0b19)" style="fill: #b74e08; fill-opacity: 0.752941; stroke: #231f20; stroke-linejoin: miter"/>
   </g>
   <g id="patch_14">
    <path d="M 128.4 285.85976 
C 134.138828 285.85976 139.64338 283.594409 143.701344 279.562626 
C 147.759308 275.530842 150.039368 270.061803 150.039368 264.36 
C 150.039368 258.658197 147.759308 253.189158 143.701344 249.157374 
C 139.64338 245.125591 134.138828 242.86024 128.4 242.86024 
C 122.661172 242.86024 117.15662 245.125591 113.098656 249.157374 
C 109.040692 253.189158 106.760632 258.658197 106.760632 264.36 
C 106.760632 270.061803 109.040692 275.530842 113.098656 279.562626 
C 117.15662 283.594409 122.661172 285.85976 128.4 285.85976 
z
" clip-path="url(#pe811dc0b19)" style="fill: #b74e08; fill-opacity: 0.752941; stroke: #231f20; stroke-linejoin: miter"/>
   </g>
   <g id="patch_15">
    <path d="M 221.4 339.859234 
C 229.220704 339.859234 236.722145 336.772081 242.252217 331.277687 
C 247.78229 325.783292 250.889488 318.330248 250.889488 310.56 
C 250.889488 302.789752 247.78229 295.336708 242.252217 289.842313 
C 236.722145 284.347919 229.220704 281.260766 221.4 281.260766 
C 213.579296 281.260766 206.077855 284.347919 200.547783 289.842313 
C 195.01771 295.336708 191.910512 302.789752 191.910512 310.56 
C 191.910512 318.330248 195.01771 325.783292 200.547783 331.277687 
C 206.077855 336.772081 213.579296 339.859234 221.4 339.859234 
z
" clip-path="url(#pe811dc0b19)" style="fill: #0871b7; fill-opacity: 0.752941; stroke: #231f20; stroke-linejoin: miter"/>
   </g>
   <g id="patch_16">
    <path d="M 128.4 247.459234 
C 136.220704 247.459234 143.722145 244.372081 149.252217 238.877687 
C 154.78229 233.383292 157.889488 225.930248 157.889488 218.16 
C 157.889488 210.389752 154.78229 202.936708 149.252217 197.442313 
C 143.722145 191.947919 136.220704 188.860766 128.4 188.860766 
C 120.579296 188.860766 113.077855 191.947919 107.547783 197.442313 
C 102.01771 202.936708 98.910512 210.389752 98.910512 218.16 
C 98.910512 225.930248 102.01771 233.383292 107.547783 238.877687 
C 113.077855 244.372081 120.579296 247.459234 128.4 247.459234 
z
" clip-path="url(#pe811dc0b19)" style="fill: #0871b7; fill-opacity: 0.752941; stroke: #231f20; stroke-linejoin: miter"/>
   </g>
   <g id="patch_17">
    <path d="M 314.4 247.459234 
C 322.220704 247.459234 329.722145 244.372081 335.252217 238.877687 
C 340.78229 233.383292 343.889488 225.930248 343.889488 218.16 
C 343.889488 210.389752 340.78229 202.936708 335.252217 197.442313 
C 329.722145 191.947919 322.220704 188.860766 314.4 188.860766 
C 306.579296 188.860766 299.077855 191.947919 293.547783 197.442313 
C 288.01771 202.936708 284.910512 210.389752 284.910512 218.16 
C 284.910512 225.930248 288.01771 233.383292 293.547783 238.877687 
C 299.077855 244.372081 306.579296 247.459234 314.4 247.459234 
z
" clip-path="url(#pe811dc0b19)" style="fill: #0871b7; fill-opacity: 0.752941; stroke: #231f20; stroke-linejoin: miter"/>
   </g>
   <g id="patch_18">
    <path d="M 221.4 155.059234 
C 229.220704 155.059234 236.722145 151.972081 242.252217 146.477687 
C 247.78229 140.983292 250.889488 133.530248 250.889488 125.76 
C 250.889488 117.989752 247.78229 110.536708 242.252217 105.042313 
C 236.722145 99.547919 229.220704 96.460766 221.4 96.460766 
C 213.579296 96.460766 206.077855 99.547919 200.547783 105.042313 
C 195.01771 110.536708 191.910512 117.989752 191.910512 125.76 
C 191.910512 133.530248 195.01771 140.983292 200.547783 146.477687 
C 206.077855 151.972081 213.579296 155.059234 221.4 155.059234 
z
" clip-path="url(#pe811dc0b19)" style="fill: #0871b7; fill-opacity: 0.752941; stroke: #231f20; stroke-linejoin: miter"/>
   </g>
   <g id="patch_19">
    <path d="M 267.9 288.615 
C 274.374271 288.615 280.584244 286.05934 285.162244 281.510875 
C 289.740245 276.96241 292.3125 270.792501 292.3125 264.36 
C 292.3125 257.927499 289.740245 251.75759 285.162244 247.209125 
C 280.584244 242.66066 274.374271 240.105 267.9 240.105 
C 261.425729 240.105 255.215756 242.66066 250.637756 247.209125 
C 246.059755 251.75759 243.4875 257.927499 243.4875 264.36 
C 243.4875 270.792501 246.059755 276.96241 250.637756 281.510875 
C 255.215756 286.05934 261.425729 288.615 267.9 288.615 
z
" clip-path="url(#pe811dc0b19)" style="fill: #0871b7; fill-opacity: 0.752941; stroke: #231f20; stroke-linejoin: miter"/>
   </g>
   <g id="patch_20">
    <path d="M 174.9 196.215 
C 181.374271 196.215 187.584244 193.65934 192.162244 189.110875 
C 196.740245 184.56241 199.3125 178.392501 199.3125 171.96 
C 199.3125 165.527499 196.740245 159.35759 192.162244 154.809125 
C 187.584244 150.26066 181.374271 147.705 174.9 147.705 
C 168.425729 147.705 162.215756 150.26066 157.637756 154.809125 
C 153.059755 159.35759 150.4875 165.527499 150.4875 171.96 
C 150.4875 178.392501 153.059755 184.56241 157.637756 189.110875 
C 162.215756 193.65934 168.425729 196.215 174.9 196.215 
z
" clip-path="url(#pe811dc0b19)" style="fill: #0871b7; fill-opacity: 0.752941; stroke: #231f20; stroke-linejoin: miter"/>
   </g>
   <g id="patch_21">
    <path d="M 174.9 288.615 
C 181.374271 288.615 187.584244 286.05934 192.162244 281.510875 
C 196.740245 276.96241 199.3125 270.792501 199.3125 264.36 
C 199.3125 257.927499 196.740245 251.75759 192.162244 247.209125 
C 187.584244 242.66066 181.374271 240.105 174.9 240.105 
C 168.425729 240.105 162.215756 242.66066 157.637756 247.209125 
C 153.059755 251.75759 150.4875 257.927499 150.4875 264.36 
C 150.4875 270.792501 153.059755 276.96241 157.637756 281.510875 
C 162.215756 286.05934 168.425729 288.615 174.9 288.615 
z
" clip-path="url(#pe811dc0b19)" style="fill: #0871b7; fill-opacity: 0.752941; stroke: #231f20; stroke-linejoin: miter"/>
   </g>
   <g id="patch_22">
    <path d="M 267.9 196.215 
C 274.374271 196.215 280.584244 193.65934 285.162244 189.110875 
C 289.740245 184.56241 292.3125 178.392501 292.3125 171.96 
C 292.3125 165.527499 289.740245 159.35759 285.162244 154.809125 
C 280.584244 150.26066 274.374271 147.705 267.9 147.705 
C 261.425729 147.705 255.215756 150.26066 250.637756 154.809125 
C 246.059755 159.35759 243.4875 165.527499 243.4875 171.96 
C 243.4875 178.392501 246.059755 184.56241 250.637756 189.110875 
C 255.215756 193.65934 261.425729 196.215 267.9 196.215 
z
" clip-path="url(#pe811dc0b19)" style="fill: #0871b7; fill-opacity: 0.752941; stroke: #231f20; stroke-linejoin: miter"/>
   </g>
   <g id="patch_23">
    <path d="M 221.4 297.413993 
C 230.222944 297.413993 238.68571 293.931216 244.924474 287.732703 
C 251.163237 281.53419 254.66863 273.126021 254.66863 264.36 
C 254.66863 255.593979 251.163237 247.18581 244.924474 240.987297 
C 238.68571 234.788784 230.222944 231.306007 221.4 231.306007 
C 212.577056 231.306007 204.11429 234.788784 197.875526 240.987297 
C 191.636763 247.18581 188.13137 255.593979 188.13137 264.36 
C 188.13137 273.126021 191.636763 281.53419 197.875526 287.732703 
C 204.11429 293.931216 212.577056 297.413993 221.4 297.413993 
z
" clip-path="url(#pe811dc0b19)" style="fill: #b74e08; fill-opacity: 0.752941; stroke: #231f20; stroke-linejoin: miter"/>
   </g>
   <g id="patch_24">
    <path d="M 174.9 251.213993 
C 183.722944 251.213993 192.18571 247.731216 198.424474 241.532703 
C 204.663237 235.33419 208.16863 226.926021 208.16863 218.16 
C 208.16863 209.393979 204.663237 200.98581 198.424474 194.787297 
C 192.18571 188.588784 183.722944 185.106007 174.9 185.106007 
C 166.077056 185.106007 157.61429 188.588784 151.375526 194.787297 
C 145.136763 200.98581 141.63137 209.393979 141.63137 218.16 
C 141.63137 226.926021 145.136763 235.33419 151.375526 241.532703 
C 157.61429 247.731216 166.077056 251.213993 174.9 251.213993 
z
" clip-path="url(#pe811dc0b19)" style="fill: #b74e08; fill-opacity: 0.752941; stroke: #231f20; stroke-linejoin: miter"/>
   </g>
   <g id="patch_25">
    <path d="M 267.9 251.213993 
C 276.722944 251.213993 285.18571 247.731216 291.424474 241.532703 
C 297.663237 235.33419 301.16863 226.926021 301.16863 218.16 
C 301.16863 209.393979 297.663237 200.98581 291.424474 194.787297 
C 285.18571 188.588784 276.722944 185.106007 267.9 185.106007 
C 259.077056 185.106007 250.61429 188.588784 244.375526 194.787297 
C 238.136763 200.98581 234.63137 209.393979 234.63137 218.16 
C 234.63137 226.926021 238.136763 235.33419 244.375526 241.532703 
C 250.61429 247.731216 259.077056 251.213993 267.9 251.213993 
z
" clip-path="url(#pe811dc0b19)" style="fill: #b74e08; fill-opacity: 0.752941; stroke: #231f20; stroke-linejoin: miter"/>
   </g>
   <g id="patch_26">
    <path d="M 221.4 205.013993 
C 230.222944 205.013993 238.68571 201.531216 244.924474 195.332703 
C 251.163237 189.13419 254.66863 180.726021 254.66863 171.96 
C 254.66863 163.193979 251.163237 154.78581 244.924474 148.587297 
C 238.68571 142.388784 230.222944 138.906007 221.4 138.906007 
C 212.577056 138.906007 204.11429 142.388784 197.875526 148.587297 
C 191.636763 154.78581 188.13137 163.193979 188.13137 171.96 
C 188.13137 180.726021 191.636763 189.13419 197.875526 195.332703 
C 204.11429 201.531216 212.577056 205.013993 221.4 205.013993 
z
" clip-path="url(#pe811dc0b19)" style="fill: #b74e08; fill-opacity: 0.752941; stroke: #231f20; stroke-linejoin: miter"/>
   </g>
   <g id="patch_27">
    <path d="M 221.4 263.205 
C 233.423646 263.205 244.956452 258.458775 253.458454 250.011625 
C 261.960455 241.564475 266.7375 230.106074 266.7375 218.16 
C 266.7375 206.213926 261.960455 194.755525 253.458454 186.308375 
C 244.956452 177.861225 233.423646 173.115 221.4 173.115 
C 209.376354 173.115 197.843548 177.861225 189.341546 186.308375 
C 180.839545 194.755525 176.0625 206.213926 176.0625 218.16 
C 176.0625 230.106074 180.839545 241.564475 189.341546 250.011625 
C 197.843548 258.458775 209.376354 263.205 221.4 263.205 
z
" clip-path="url(#pe811dc0b19)" style="fill: #0871b7; fill-opacity: 0.752941; stroke: #231f20; stroke-linejoin: miter"/>
   </g>
  </g>
 </g>
 <defs>
  <clipPath id="pe811dc0b19">
   <rect x="54" y="51.84" width="334.8" height="332.64"/>
  </clipPath>
 </defs>
</svg>
