<?xml version="1.0" encoding="utf-8" standalone="no"?>
<!DOCTYPE svg PUBLIC "-//W3C//DTD SVG 1.1//EN"
  "http://www.w3.org/Graphics/SVG/1.1/DTD/svg11.dtd">
<svg xmlns:xlink="http://www.w3.org/1999/xlink" width="432pt" height="432pt" viewBox="0 0 432 432" xmlns="http://www.w3.org/2000/svg" version="1.1">
 <metadata>
  <rdf:RDF xmlns:dc="http://purl.org/dc/elements/1.1/" xmlns:cc="http://creativecommons.org/ns#" xmlns:rdf="http://www.w3.org/1999/02/22-rdf-syntax-ns#">
   <cc:Work>
    <dc:type rdf:resource="http://purl.org/dc/dcmitype/StillImage"/>
    <dc:date>2025-03-02T17:37:36.912903</dc:date>
    <dc:format>image/svg+xml</dc:format>
    <dc:creator>
     <cc:Agent>
      <dc:title>Matplotlib v3.10.0, https://matplotlib.org/</dc:title>
     </cc:Agent>
    </dc:creator>
   </cc:Work>
  </rdf:RDF>
 </metadata>
 <defs>
  <style type="text/css">*{stroke-linejoin: round; stroke-linecap: butt}</style>
 </defs>
 <g id="figure_1">
  <g id="patch_1">
   <path d="M 0 432 
L 432 432 
L 432 0 
L 0 0 
z
" style="fill: #ffffff"/>
  </g>
  <g id="axes_1">
   <g id="patch_2">
    <path d="M 81.9 356.76 
L 360.9 356.76 
L 360.9 79.56 
L 81.9 79.56 
L 81.9 356.76 
z
" clip-path="url(#p4fd18d7cb5)" style="fill: none; stroke: #969696; stroke-width: 1.5; stroke-linejoin: miter"/>
   </g>
   <g id="patch_3">
    <path d="M 116.775 338.976667 
C 121.277138 338.976667 125.595487 337.199488 128.778979 334.036534 
C 131.962472 330.87358 133.75119 326.583092 133.75119 322.11 
C 133.75119 317.636908 131.962472 313.34642 128.778979 310.183466 
C 125.595487 307.020512 121.277138 305.243333 116.775 305.243333 
C 112.272862 305.243333 107.954513 307.020512 104.771021 310.183466 
C 101.587528 313.34642 99.79881 317.636908 99.79881 322.11 
C 99.79881 326.583092 101.587528 330.87358 104.771021 334.036534 
C 107.954513 337.199488 112.272862 338.976667 116.775 338.976667 
z
" clip-path="url(#p4fd18d7cb5)" style="fill: #0871b7; fill-opacity: 0.752941; stroke: #231f20; stroke-linejoin: miter"/>
   </g>
   <g id="patch_4">
    <path d="M 326.025 338.976667 
C 330.527138 338.976667 334.845487 337.199488 338.028979 334.036534 
C 341.212472 330.87358 343.00119 326.583092 343.00119 322.11 
C 343.00119 317.636908 341.212472 313.34642 338.028979 310.183466 
C 334.845487 307.020512 330.527138 305.243333 326.025 305.243333 
C 321.522862 305.243333 317.204513 307.020512 314.021021 310.183466 
C 310.837528 313.34642 309.04881 317.636908 309.04881 322.11 
C 309.04881 326.583092 310.837528 330.87358 314.021021 334.036534 
C 317.204513 337.199488 321.522862 338.976667 326.025 338.976667 
z
" clip-path="url(#p4fd18d7cb5)" style="fill: #0871b7; fill-opacity: 0.752941; stroke: #231f20; stroke-linejoin: miter"/>
   </g>
   <g id="patch_5">
    <path d="M 116.775 131.076667 
C 121.277138 131.076667 125.595487 129.299488 128.778979 126.136534 
C 131.962472 122.97358 133.75119 118.683092 133.75119 114.21 
C 133.75119 109.736908 131.962472 105.44642 128.778979 102.283466 
C 125.595487 99.120512 121.277138 97.343333 116.775 97.343333 
C 112.272862 97.343333 107.954513 99.120512 104.771021 102.283466 
C 101.587528 105.44642 99.79881 109.736908 99.79881 114.21 
C 99.79881 118.683092 101.587528 122.97358 104.771021 126.136534 
C 107.954513 129.299488 112.272862 131.076667 116.775 131.076667 
z
" clip-path="url(#p4fd18d7cb5)" style="fill: #0871b7; fill-opacity: 0.752941; stroke: #231f20; stroke-linejoin: miter"/>
   </g>
   <g id="patch_6">
    <path d="M 326.025 131.076667 
C 330.527138 131.076667 334.845487 129.299488 338.028979 126.136534 
C 341.212472 122.97358 343.00119 118.683092 343.00119 114.21 
C 343.00119 109.736908 341.212472 105.44642 338.028979 102.283466 
C 334.845487 99.120512 330.527138 97.343333 326.025 97.343333 
C 321.522862 97.343333 317.204513 99.120512 314.021021 102.283466 
C 310.837528 105.44642 309.04881 109.736908 309.04881 114.21 
C 309.04881 118.683092 310.837528 122.97358 314.021021 126.136534 
C 317.204513 129.299488 321.522862 131.076667 326.025 131.076667 
z
" clip-path="url(#p4fd18d7cb5)" style="fill: #0871b7; fill-opacity: 0.752941; stroke: #231f20; stroke-linejoin: miter"/>
   </g>
   <g id="patch_7">
    <path d="M 151.65 346.399833 
C 158.133569 346.399833 164.35246 343.840503 168.937035 339.285506 
C 173.52161 334.730508 176.097559 328.551739 176.097559 322.11 
C 176.097559 315.668261 173.52161 309.489492 168.937035 304.934494 
C 164.35246 300.379497 158.133569 297.820167 151.65 297.820167 
C 145.166431 297.820167 138.94754 300.379497 134.362965 304.934494 
C 129.77839 309.489492 127.202441 315.668261 127.202441 322.11 
C 127.202441 328.551739 129.77839 334.730508 134.362965 339.285506 
C 138.94754 343.840503 145.166431 346.399833 151.65 346.399833 
z
" clip-path="url(#p4fd18d7cb5)" style="fill: #b74e08; fill-opacity: 0.752941; stroke: #231f20; stroke-linejoin: miter"/>
   </g>
   <g id="patch_8">
    <path d="M 291.15 346.399833 
C 297.633569 346.399833 303.85246 343.840503 308.437035 339.285506 
C 313.02161 334.730508 315.597559 328.551739 315.597559 322.11 
C 315.597559 315.668261 313.02161 309.489492 308.437035 304.934494 
C 303.85246 300.379497 297.633569 297.820167 291.15 297.820167 
C 284.666431 297.820167 278.44754 300.379497 273.862965 304.934494 
C 269.27839 309.489492 266.702441 315.668261 266.702441 322.11 
C 266.702441 328.551739 269.27839 334.730508 273.862965 339.285506 
C 278.44754 343.840503 284.666431 346.399833 291.15 346.399833 
z
" clip-path="url(#p4fd18d7cb5)" style="fill: #b74e08; fill-opacity: 0.752941; stroke: #231f20; stroke-linejoin: miter"/>
   </g>
   <g id="patch_9">
    <path d="M 116.775 311.749833 
C 123.258569 311.749833 129.47746 309.190503 134.062035 304.635506 
C 138.64661 300.080508 141.222559 293.901739 141.222559 287.46 
C 141.222559 281.018261 138.64661 274.839492 134.062035 270.284494 
C 129.47746 265.729497 123.258569 263.170167 116.775 263.170167 
C 110.291431 263.170167 104.07254 265.729497 99.487965 270.284494 
C 94.90339 274.839492 92.327441 281.018261 92.327441 287.46 
C 92.327441 293.901739 94.90339 300.080508 99.487965 304.635506 
C 104.07254 309.190503 110.291431 311.749833 116.775 311.749833 
z
" clip-path="url(#p4fd18d7cb5)" style="fill: #b74e08; fill-opacity: 0.752941; stroke: #231f20; stroke-linejoin: miter"/>
   </g>
   <g id="patch_10">
    <path d="M 326.025 311.749833 
C 332.508569 311.749833 338.72746 309.190503 343.312035 304.635506 
C 347.89661 300.080508 350.472559 293.901739 350.472559 287.46 
C 350.472559 281.018261 347.89661 274.839492 343.312035 270.284494 
C 338.72746 265.729497 332.508569 263.170167 326.025 263.170167 
C 319.541431 263.170167 313.32254 265.729497 308.737965 270.284494 
C 304.15339 274.839492 301.577441 281.018261 301.577441 287.46 
C 301.577441 293.901739 304.15339 300.080508 308.737965 304.635506 
C 313.32254 309.190503 319.541431 311.749833 326.025 311.749833 
z
" clip-path="url(#p4fd18d7cb5)" style="fill: #b74e08; fill-opacity: 0.752941; stroke: #231f20; stroke-linejoin: miter"/>
   </g>
   <g id="patch_11">
    <path d="M 116.775 173.149833 
C 123.258569 173.149833 129.47746 170.590503 134.062035 166.035506 
C 138.64661 161.480508 141.222559 155.301739 141.222559 148.86 
C 141.222559 142.418261 138.64661 136.239492 134.062035 131.684494 
C 129.47746 127.129497 123.258569 124.570167 116.775 124.570167 
C 110.291431 124.570167 104.07254 127.129497 99.487965 131.684494 
C 94.90339 136.239492 92.327441 142.418261 92.327441 148.86 
C 92.327441 155.301739 94.90339 161.480508 99.487965 166.035506 
C 104.07254 170.590503 110.291431 173.149833 116.775 173.149833 
z
" clip-path="url(#p4fd18d7cb5)" style="fill: #b74e08; fill-opacity: 0.752941; stroke: #231f20; stroke-linejoin: miter"/>
   </g>
   <g id="patch_12">
    <path d="M 326.025 173.149833 
C 332.508569 173.149833 338.72746 170.590503 343.312035 166.035506 
C 347.89661 161.480508 350.472559 155.301739 350.472559 148.86 
C 350.472559 142.418261 347.89661 136.239492 343.312035 131.684494 
C 338.72746 127.129497 332.508569 124.570167 326.025 124.570167 
C 319.541431 124.570167 313.32254 127.129497 308.737965 131.684494 
C 304.15339 136.239492 301.577441 142.418261 301.577441 148.86 
C 301.577441 155.301739 304.15339 161.480508 308.737965 166.035506 
C 313.32254 170.590503 319.541431 173.149833 326.025 173.149833 
z
" clip-path="url(#p4fd18d7cb5)" style="fill: #b74e08; fill-opacity: 0.752941; stroke: #231f20; stroke-linejoin: miter"/>
   </g>
   <g id="patch_13">
    <path d="M 151.65 138.499833 
C 158.133569 138.499833 164.35246 135.940503 168.937035 131.385506 
C 173.52161 126.830508 176.097559 120.651739 176.097559 114.21 
C 176.097559 107.768261 173.52161 101.589492 168.937035 97.034494 
C 164.35246 92.479497 158.133569 89.920167 151.65 89.920167 
C 145.166431 89.920167 138.94754 92.479497 134.362965 97.034494 
C 129.77839 101.589492 127.202441 107.768261 127.202441 114.21 
C 127.202441 120.651739 129.77839 126.830508 134.362965 131.385506 
C 138.94754 135.940503 145.166431 138.499833 151.65 138.499833 
z
" clip-path="url(#p4fd18d7cb5)" style="fill: #b74e08; fill-opacity: 0.752941; stroke: #231f20; stroke-linejoin: miter"/>
   </g>
   <g id="patch_14">
    <path d="M 291.15 138.499833 
C 297.633569 138.499833 303.85246 135.940503 308.437035 131.385506 
C 313.02161 126.830508 315.597559 120.651739 315.597559 114.21 
C 315.597559 107.768261 313.02161 101.589492 308.437035 97.034494 
C 303.85246 92.479497 297.633569 89.920167 291.15 89.920167 
C 284.666431 89.920167 278.44754 92.479497 273.862965 97.034494 
C 269.27839 101.589492 266.702441 107.768261 266.702441 114.21 
C 266.702441 120.651739 269.27839 126.830508 273.862965 131.385506 
C 278.44754 135.940503 284.666431 138.499833 291.15 138.499833 
z
" clip-path="url(#p4fd18d7cb5)" style="fill: #b74e08; fill-opacity: 0.752941; stroke: #231f20; stroke-linejoin: miter"/>
   </g>
   <g id="patch_15">
    <path d="M 186.525 358.962463 
C 196.361851 358.962463 205.797134 355.079455 212.752838 348.168626 
C 219.708542 341.257798 223.616764 331.883387 223.616764 322.11 
C 223.616764 312.336613 219.708542 302.962202 212.752838 296.051374 
C 205.797134 289.140545 196.361851 285.257537 186.525 285.257537 
C 176.688149 285.257537 167.252866 289.140545 160.297162 296.051374 
C 153.341458 302.962202 149.433236 312.336613 149.433236 322.11 
C 149.433236 331.883387 153.341458 341.257798 160.297162 348.168626 
C 167.252866 355.079455 176.688149 358.962463 186.525 358.962463 
z
" clip-path="url(#p4fd18d7cb5)" style="fill: #0871b7; fill-opacity: 0.752941; stroke: #231f20; stroke-linejoin: miter"/>
   </g>
   <g id="patch_16">
    <path d="M 256.275 358.962463 
C 266.111851 358.962463 275.547134 355.079455 282.502838 348.168626 
C 289.458542 341.257798 293.366764 331.883387 293.366764 322.11 
C 293.366764 312.336613 289.458542 302.962202 282.502838 296.051374 
C 275.547134 289.140545 266.111851 285.257537 256.275 285.257537 
C 246.438149 285.257537 237.002866 289.140545 230.047162 296.051374 
C 223.091458 302.962202 219.183236 312.336613 219.183236 322.11 
C 219.183236 331.883387 223.091458 341.257798 230.047162 348.168626 
C 237.002866 355.079455 246.438149 358.962463 256.275 358.962463 
z
" clip-path="url(#p4fd18d7cb5)" style="fill: #0871b7; fill-opacity: 0.752941; stroke: #231f20; stroke-linejoin: miter"/>
   </g>
   <g id="patch_17">
    <path d="M 116.775 289.662463 
C 126.611851 289.662463 136.047134 285.779455 143.002838 278.868626 
C 149.958542 271.957798 153.866764 262.583387 153.866764 252.81 
C 153.866764 243.036613 149.958542 233.662202 143.002838 226.751374 
C 136.047134 219.840545 126.611851 215.957537 116.775 215.957537 
C 106.938149 215.957537 97.502866 219.840545 90.547162 226.751374 
C 83.591458 233.662202 79.683236 243.036613 79.683236 252.81 
C 79.683236 262.583387 83.591458 271.957798 90.547162 278.868626 
C 97.502866 285.779455 106.938149 289.662463 116.775 289.662463 
z
" clip-path="url(#p4fd18d7cb5)" style="fill: #0871b7; fill-opacity: 0.752941; stroke: #231f20; stroke-linejoin: miter"/>
   </g>
   <g id="patch_18">
    <path d="M 326.025 289.662463 
C 335.861851 289.662463 345.297134 285.779455 352.252838 278.868626 
C 359.208542 271.957798 363.116764 262.583387 363.116764 252.81 
C 363.116764 243.036613 359.208542 233.662202 352.252838 226.751374 
C 345.297134 219.840545 335.861851 215.957537 326.025 215.957537 
C 316.188149 215.957537 306.752866 219.840545 299.797162 226.751374 
C 292.841458 233.662202 288.933236 243.036613 288.933236 252.81 
C 288.933236 262.583387 292.841458 271.957798 299.797162 278.868626 
C 306.752866 285.779455 316.188149 289.662463 326.025 289.662463 
z
" clip-path="url(#p4fd18d7cb5)" style="fill: #0871b7; fill-opacity: 0.752941; stroke: #231f20; stroke-linejoin: miter"/>
   </g>
   <g id="patch_19">
    <path d="M 116.775 220.362463 
C 126.611851 220.362463 136.047134 216.479455 143.002838 209.568626 
C 149.958542 202.657798 153.866764 193.283387 153.866764 183.51 
C 153.866764 173.736613 149.958542 164.362202 143.002838 157.451374 
C 136.047134 150.540545 126.611851 146.657537 116.775 146.657537 
C 106.938149 146.657537 97.502866 150.540545 90.547162 157.451374 
C 83.591458 164.362202 79.683236 173.736613 79.683236 183.51 
C 79.683236 193.283387 83.591458 202.657798 90.547162 209.568626 
C 97.502866 216.479455 106.938149 220.362463 116.775 220.362463 
z
" clip-path="url(#p4fd18d7cb5)" style="fill: #0871b7; fill-opacity: 0.752941; stroke: #231f20; stroke-linejoin: miter"/>
   </g>
   <g id="patch_20">
    <path d="M 326.025 220.362463 
C 335.861851 220.362463 345.297134 216.479455 352.252838 209.568626 
C 359.208542 202.657798 363.116764 193.283387 363.116764 183.51 
C 363.116764 173.736613 359.208542 164.362202 352.252838 157.451374 
C 345.297134 150.540545 335.861851 146.657537 326.025 146.657537 
C 316.188149 146.657537 306.752866 150.540545 299.797162 157.451374 
C 292.841458 164.362202 288.933236 173.736613 288.933236 183.51 
C 288.933236 193.283387 292.841458 202.657798 299.797162 209.568626 
C 306.752866 216.479455 316.188149 220.362463 326.025 220.362463 
z
" clip-path="url(#p4fd18d7cb5)" style="fill: #0871b7; fill-opacity: 0.752941; stroke: #231f20; stroke-linejoin: miter"/>
   </g>
   <g id="patch_21">
    <path d="M 186.525 151.062463 
C 196.361851 151.062463 205.797134 147.179455 212.752838 140.268626 
C 219.708542 133.357798 223.616764 123.983387 223.616764 114.21 
C 223.616764 104.436613 219.708542 95.062202 212.752838 88.151374 
C 205.797134 81.240545 196.361851 77.357537 186.525 77.357537 
C 176.688149 77.357537 167.252866 81.240545 160.297162 88.151374 
C 153.341458 95.062202 149.433236 104.436613 149.433236 114.21 
C 149.433236 123.983387 153.341458 133.357798 160.297162 140.268626 
C 167.252866 147.179455 176.688149 151.062463 186.525 151.062463 
z
" clip-path="url(#p4fd18d7cb5)" style="fill: #0871b7; fill-opacity: 0.752941; stroke: #231f20; stroke-linejoin: miter"/>
   </g>
   <g id="patch_22">
    <path d="M 256.275 151.062463 
C 266.111851 151.062463 275.547134 147.179455 282.502838 140.268626 
C 289.458542 133.357798 293.366764 123.983387 293.366764 114.21 
C 293.366764 104.436613 289.458542 95.062202 282.502838 88.151374 
C 275.547134 81.240545 266.111851 77.357537 256.275 77.357537 
C 246.438149 77.357537 237.002866 81.240545 230.047162 88.151374 
C 223.091458 95.062202 219.183236 104.436613 219.183236 114.21 
C 219.183236 123.983387 223.091458 133.357798 230.047162 140.268626 
C 237.002866 147.179455 246.438149 151.062463 256.275 151.062463 
z
" clip-path="url(#p4fd18d7cb5)" style="fill: #0871b7; fill-opacity: 0.752941; stroke: #231f20; stroke-linejoin: miter"/>
   </g>
   <g id="patch_23">
    <path d="M 221.4 361.106857 
C 231.809244 361.106857 241.793553 356.997903 249.154 349.684942 
C 256.514447 342.371982 260.650084 332.452087 260.650084 322.11 
C 260.650084 311.767913 256.514447 301.848018 249.154 294.535058 
C 241.793553 287.222097 231.809244 283.113143 221.4 283.113143 
C 210.990756 283.113143 201.006447 287.222097 193.646 294.535058 
C 186.285553 301.848018 182.149916 311.767913 182.149916 322.11 
C 182.149916 332.452087 186.285553 342.371982 193.646 349.684942 
C 201.006447 356.997903 210.990756 361.106857 221.4 361.106857 
z
" clip-path="url(#p4fd18d7cb5)" style="fill: #b74e08; fill-opacity: 0.752941; stroke: #231f20; stroke-linejoin: miter"/>
   </g>
   <g id="patch_24">
    <path d="M 116.775 257.156857 
C 127.184244 257.156857 137.168553 253.047903 144.529 245.734942 
C 151.889447 238.421982 156.025084 228.502087 156.025084 218.16 
C 156.025084 207.817913 151.889447 197.898018 144.529 190.585058 
C 137.168553 183.272097 127.184244 179.163143 116.775 179.163143 
C 106.365756 179.163143 96.381447 183.272097 89.021 190.585058 
C 81.660553 197.898018 77.524916 207.817913 77.524916 218.16 
C 77.524916 228.502087 81.660553 238.421982 89.021 245.734942 
C 96.381447 253.047903 106.365756 257.156857 116.775 257.156857 
z
" clip-path="url(#p4fd18d7cb5)" style="fill: #b74e08; fill-opacity: 0.752941; stroke: #231f20; stroke-linejoin: miter"/>
   </g>
   <g id="patch_25">
    <path d="M 326.025 257.156857 
C 336.434244 257.156857 346.418553 253.047903 353.779 245.734942 
C 361.139447 238.421982 365.275084 228.502087 365.275084 218.16 
C 365.275084 207.817913 361.139447 197.898018 353.779 190.585058 
C 346.418553 183.272097 336.434244 179.163143 326.025 179.163143 
C 315.615756 179.163143 305.631447 183.272097 298.271 190.585058 
C 290.910553 197.898018 286.774916 207.817913 286.774916 218.16 
C 286.774916 228.502087 290.910553 238.421982 298.271 245.734942 
C 305.631447 253.047903 315.615756 257.156857 326.025 257.156857 
z
" clip-path="url(#p4fd18d7cb5)" style="fill: #b74e08; fill-opacity: 0.752941; stroke: #231f20; stroke-linejoin: miter"/>
   </g>
   <g id="patch_26">
    <path d="M 221.4 153.206857 
C 231.809244 153.206857 241.793553 149.097903 249.154 141.784942 
C 256.514447 134.471982 260.650084 124.552087 260.650084 114.21 
C 260.650084 103.867913 256.514447 93.948018 249.154 86.635058 
C 241.793553 79.322097 231.809244 75.213143 221.4 75.213143 
C 210.990756 75.213143 201.006447 79.322097 193.646 86.635058 
C 186.285553 93.948018 182.149916 103.867913 182.149916 114.21 
C 182.149916 124.552087 186.285553 134.471982 193.646 141.784942 
C 201.006447 149.097903 210.990756 153.206857 221.4 153.206857 
z
" clip-path="url(#p4fd18d7cb5)" style="fill: #b74e08; fill-opacity: 0.752941; stroke: #231f20; stroke-linejoin: miter"/>
   </g>
   <g id="patch_27">
    <path d="M 151.65 322.44 
C 160.987043 322.44 169.942923 318.754287 176.545209 312.194595 
C 183.147496 305.634904 186.857143 296.736804 186.857143 287.46 
C 186.857143 278.183196 183.147496 269.285096 176.545209 262.725405 
C 169.942923 256.165713 160.987043 252.48 151.65 252.48 
C 142.312957 252.48 133.357077 256.165713 126.754791 262.725405 
C 120.152504 269.285096 116.442857 278.183196 116.442857 287.46 
C 116.442857 296.736804 120.152504 305.634904 126.754791 312.194595 
C 133.357077 318.754287 142.312957 322.44 151.65 322.44 
z
" clip-path="url(#p4fd18d7cb5)" style="fill: #0871b7; fill-opacity: 0.752941; stroke: #231f20; stroke-linejoin: miter"/>
   </g>
   <g id="patch_28">
    <path d="M 291.15 322.44 
C 300.487043 322.44 309.442923 318.754287 316.045209 312.194595 
C 322.647496 305.634904 326.357143 296.736804 326.357143 287.46 
C 326.357143 278.183196 322.647496 269.285096 316.045209 262.725405 
C 309.442923 256.165713 300.487043 252.48 291.15 252.48 
C 281.812957 252.48 272.857077 256.165713 266.254791 262.725405 
C 259.652504 269.285096 255.942857 278.183196 255.942857 287.46 
C 255.942857 296.736804 259.652504 305.634904 266.254791 312.194595 
C 272.857077 318.754287 281.812957 322.44 291.15 322.44 
z
" clip-path="url(#p4fd18d7cb5)" style="fill: #0871b7; fill-opacity: 0.752941; stroke: #231f20; stroke-linejoin: miter"/>
   </g>
   <g id="patch_29">
    <path d="M 151.65 183.84 
C 160.987043 183.84 169.942923 180.154287 176.545209 173.594595 
C 183.147496 167.034904 186.857143 158.136804 186.857143 148.86 
C 186.857143 139.583196 183.147496 130.685096 176.545209 124.125405 
C 169.942923 117.565713 160.987043 113.88 151.65 113.88 
C 142.312957 113.88 133.357077 117.565713 126.754791 124.125405 
C 120.152504 130.685096 116.442857 139.583196 116.442857 148.86 
C 116.442857 158.136804 120.152504 167.034904 126.754791 173.594595 
C 133.357077 180.154287 142.312957 183.84 151.65 183.84 
z
" clip-path="url(#p4fd18d7cb5)" style="fill: #0871b7; fill-opacity: 0.752941; stroke: #231f20; stroke-linejoin: miter"/>
   </g>
   <g id="patch_30">
    <path d="M 291.15 183.84 
C 300.487043 183.84 309.442923 180.154287 316.045209 173.594595 
C 322.647496 167.034904 326.357143 158.136804 326.357143 148.86 
C 326.357143 139.583196 322.647496 130.685096 316.045209 124.125405 
C 309.442923 117.565713 300.487043 113.88 291.15 113.88 
C 281.812957 113.88 272.857077 117.565713 266.254791 124.125405 
C 259.652504 130.685096 255.942857 139.583196 255.942857 148.86 
C 255.942857 158.136804 259.652504 167.034904 266.254791 173.594595 
C 272.857077 180.154287 281.812957 183.84 291.15 183.84 
z
" clip-path="url(#p4fd18d7cb5)" style="fill: #0871b7; fill-opacity: 0.752941; stroke: #231f20; stroke-linejoin: miter"/>
   </g>
   <g id="patch_31">
    <path d="M 186.525 340.531552 
C 200.691134 340.531552 214.278968 334.939598 224.295938 324.987254 
C 234.312907 315.03491 239.941172 301.53474 239.941172 287.46 
C 239.941172 273.38526 234.312907 259.88509 224.295938 249.932746 
C 214.278968 239.980402 200.691134 234.388448 186.525 234.388448 
C 172.358866 234.388448 158.771032 239.980402 148.754062 249.932746 
C 138.737093 259.88509 133.108828 273.38526 133.108828 287.46 
C 133.108828 301.53474 138.737093 315.03491 148.754062 324.987254 
C 158.771032 334.939598 172.358866 340.531552 186.525 340.531552 
z
" clip-path="url(#p4fd18d7cb5)" style="fill: #b74e08; fill-opacity: 0.752941; stroke: #231f20; stroke-linejoin: miter"/>
   </g>
   <g id="patch_32">
    <path d="M 256.275 340.531552 
C 270.441134 340.531552 284.028968 334.939598 294.045938 324.987254 
C 304.062907 315.03491 309.691172 301.53474 309.691172 287.46 
C 309.691172 273.38526 304.062907 259.88509 294.045938 249.932746 
C 284.028968 239.980402 270.441134 234.388448 256.275 234.388448 
C 242.108866 234.388448 228.521032 239.980402 218.504062 249.932746 
C 208.487093 259.88509 202.858828 273.38526 202.858828 287.46 
C 202.858828 301.53474 208.487093 315.03491 218.504062 324.987254 
C 228.521032 334.939598 242.108866 340.531552 256.275 340.531552 
z
" clip-path="url(#p4fd18d7cb5)" style="fill: #b74e08; fill-opacity: 0.752941; stroke: #231f20; stroke-linejoin: miter"/>
   </g>
   <g id="patch_33">
    <path d="M 151.65 305.881552 
C 165.816134 305.881552 179.403968 300.289598 189.420938 290.337254 
C 199.437907 280.38491 205.066172 266.88474 205.066172 252.81 
C 205.066172 238.73526 199.437907 225.23509 189.420938 215.282746 
C 179.403968 205.330402 165.816134 199.738448 151.65 199.738448 
C 137.483866 199.738448 123.896032 205.330402 113.879062 215.282746 
C 103.862093 225.23509 98.233828 238.73526 98.233828 252.81 
C 98.233828 266.88474 103.862093 280.38491 113.879062 290.337254 
C 123.896032 300.289598 137.483866 305.881552 151.65 305.881552 
z
" clip-path="url(#p4fd18d7cb5)" style="fill: #b74e08; fill-opacity: 0.752941; stroke: #231f20; stroke-linejoin: miter"/>
   </g>
   <g id="patch_34">
    <path d="M 291.15 305.881552 
C 305.316134 305.881552 318.903968 300.289598 328.920938 290.337254 
C 338.937907 280.38491 344.566172 266.88474 344.566172 252.81 
C 344.566172 238.73526 338.937907 225.23509 328.920938 215.282746 
C 318.903968 205.330402 305.316134 199.738448 291.15 199.738448 
C 276.983866 199.738448 263.396032 205.330402 253.379062 215.282746 
C 243.362093 225.23509 237.733828 238.73526 237.733828 252.81 
C 237.733828 266.88474 243.362093 280.38491 253.379062 290.337254 
C 263.396032 300.289598 276.983866 305.881552 291.15 305.881552 
z
" clip-path="url(#p4fd18d7cb5)" style="fill: #b74e08; fill-opacity: 0.752941; stroke: #231f20; stroke-linejoin: miter"/>
   </g>
   <g id="patch_35">
    <path d="M 151.65 236.581552 
C 165.816134 236.581552 179.403968 230.989598 189.420938 221.037254 
C 199.437907 211.08491 205.066172 197.58474 205.066172 183.51 
C 205.066172 169.43526 199.437907 155.93509 189.420938 145.982746 
C 179.403968 136.030402 165.816134 130.438448 151.65 130.438448 
C 137.483866 130.438448 123.896032 136.030402 113.879062 145.982746 
C 103.862093 155.93509 98.233828 169.43526 98.233828 183.51 
C 98.233828 197.58474 103.862093 211.08491 113.879062 221.037254 
C 123.896032 230.989598 137.483866 236.581552 151.65 236.581552 
z
" clip-path="url(#p4fd18d7cb5)" style="fill: #b74e08; fill-opacity: 0.752941; stroke: #231f20; stroke-linejoin: miter"/>
   </g>
   <g id="patch_36">
    <path d="M 291.15 236.581552 
C 305.316134 236.581552 318.903968 230.989598 328.920938 221.037254 
C 338.937907 211.08491 344.566172 197.58474 344.566172 183.51 
C 344.566172 169.43526 338.937907 155.93509 328.920938 145.982746 
C 318.903968 136.030402 305.316134 130.438448 291.15 130.438448 
C 276.983866 130.438448 263.396032 136.030402 253.379062 145.982746 
C 243.362093 155.93509 237.733828 169.43526 237.733828 183.51 
C 237.733828 197.58474 243.362093 211.08491 253.379062 221.037254 
C 263.396032 230.989598 276.983866 236.581552 291.15 236.581552 
z
" clip-path="url(#p4fd18d7cb5)" style="fill: #b74e08; fill-opacity: 0.752941; stroke: #231f20; stroke-linejoin: miter"/>
   </g>
   <g id="patch_37">
    <path d="M 186.525 201.931552 
C 200.691134 201.931552 214.278968 196.339598 224.295938 186.387254 
C 234.312907 176.43491 239.941172 162.93474 239.941172 148.86 
C 239.941172 134.78526 234.312907 121.28509 224.295938 111.332746 
C 214.278968 101.380402 200.691134 95.788448 186.525 95.788448 
C 172.358866 95.788448 158.771032 101.380402 148.754062 111.332746 
C 138.737093 121.28509 133.108828 134.78526 133.108828 148.86 
C 133.108828 162.93474 138.737093 176.43491 148.754062 186.387254 
C 158.771032 196.339598 172.358866 201.931552 186.525 201.931552 
z
" clip-path="url(#p4fd18d7cb5)" style="fill: #b74e08; fill-opacity: 0.752941; stroke: #231f20; stroke-linejoin: miter"/>
   </g>
   <g id="patch_38">
    <path d="M 256.275 201.931552 
C 270.441134 201.931552 284.028968 196.339598 294.045938 186.387254 
C 304.062907 176.43491 309.691172 162.93474 309.691172 148.86 
C 309.691172 134.78526 304.062907 121.28509 294.045938 111.332746 
C 284.028968 101.380402 270.441134 95.788448 256.275 95.788448 
C 242.108866 95.788448 228.521032 101.380402 218.504062 111.332746 
C 208.487093 121.28509 202.858828 134.78526 202.858828 148.86 
C 202.858828 162.93474 208.487093 176.43491 218.504062 186.387254 
C 228.521032 196.339598 242.108866 201.931552 256.275 201.931552 
z
" clip-path="url(#p4fd18d7cb5)" style="fill: #b74e08; fill-opacity: 0.752941; stroke: #231f20; stroke-linejoin: miter"/>
   </g>
   <g id="patch_39">
    <path d="M 221.4 343.619713 
C 236.390443 343.619713 250.768934 337.702372 261.368777 327.170914 
C 271.968621 316.639457 277.924387 302.35373 277.924387 287.46 
C 277.924387 272.56627 271.968621 258.280543 261.368777 247.749086 
C 250.768934 237.217628 236.390443 231.300287 221.4 231.300287 
C 206.409557 231.300287 192.031066 237.217628 181.431223 247.749086 
C 170.831379 258.280543 164.875613 272.56627 164.875613 287.46 
C 164.875613 302.35373 170.831379 316.639457 181.431223 327.170914 
C 192.031066 337.702372 206.409557 343.619713 221.4 343.619713 
z
" clip-path="url(#p4fd18d7cb5)" style="fill: #0871b7; fill-opacity: 0.752941; stroke: #231f20; stroke-linejoin: miter"/>
   </g>
   <g id="patch_40">
    <path d="M 151.65 274.319713 
C 166.640443 274.319713 181.018934 268.402372 191.618777 257.870914 
C 202.218621 247.339457 208.174387 233.05373 208.174387 218.16 
C 208.174387 203.26627 202.218621 188.980543 191.618777 178.449086 
C 181.018934 167.917628 166.640443 162.000287 151.65 162.000287 
C 136.659557 162.000287 122.281066 167.917628 111.681223 178.449086 
C 101.081379 188.980543 95.125613 203.26627 95.125613 218.16 
C 95.125613 233.05373 101.081379 247.339457 111.681223 257.870914 
C 122.281066 268.402372 136.659557 274.319713 151.65 274.319713 
z
" clip-path="url(#p4fd18d7cb5)" style="fill: #0871b7; fill-opacity: 0.752941; stroke: #231f20; stroke-linejoin: miter"/>
   </g>
   <g id="patch_41">
    <path d="M 291.15 274.319713 
C 306.140443 274.319713 320.518934 268.402372 331.118777 257.870914 
C 341.718621 247.339457 347.674387 233.05373 347.674387 218.16 
C 347.674387 203.26627 341.718621 188.980543 331.118777 178.449086 
C 320.518934 167.917628 306.140443 162.000287 291.15 162.000287 
C 276.159557 162.000287 261.781066 167.917628 251.181223 178.449086 
C 240.581379 188.980543 234.625613 203.26627 234.625613 218.16 
C 234.625613 233.05373 240.581379 247.339457 251.181223 257.870914 
C 261.781066 268.402372 276.159557 274.319713 291.15 274.319713 
z
" clip-path="url(#p4fd18d7cb5)" style="fill: #0871b7; fill-opacity: 0.752941; stroke: #231f20; stroke-linejoin: miter"/>
   </g>
   <g id="patch_42">
    <path d="M 221.4 205.019713 
C 236.390443 205.019713 250.768934 199.102372 261.368777 188.570914 
C 271.968621 178.039457 277.924387 163.75373 277.924387 148.86 
C 277.924387 133.96627 271.968621 119.680543 261.368777 109.149086 
C 250.768934 98.617628 236.390443 92.700287 221.4 92.700287 
C 206.409557 92.700287 192.031066 98.617628 181.431223 109.149086 
C 170.831379 119.680543 164.875613 133.96627 164.875613 148.86 
C 164.875613 163.75373 170.831379 178.039457 181.431223 188.570914 
C 192.031066 199.102372 206.409557 205.019713 221.4 205.019713 
z
" clip-path="url(#p4fd18d7cb5)" style="fill: #0871b7; fill-opacity: 0.752941; stroke: #231f20; stroke-linejoin: miter"/>
   </g>
   <g id="patch_43">
    <path d="M 186.525 333.33 
C 208.017817 333.33 228.633237 324.845905 243.830954 309.746238 
C 259.02867 294.646571 267.567857 274.164154 267.567857 252.81 
C 267.567857 231.455846 259.02867 210.973429 243.830954 195.873762 
C 228.633237 180.774095 208.017817 172.29 186.525 172.29 
C 165.032183 172.29 144.416763 180.774095 129.219046 195.873762 
C 114.02133 210.973429 105.482143 231.455846 105.482143 252.81 
C 105.482143 274.164154 114.02133 294.646571 129.219046 309.746238 
C 144.416763 324.845905 165.032183 333.33 186.525 333.33 
z
" clip-path="url(#p4fd18d7cb5)" style="fill: #0871b7; fill-opacity: 0.752941; stroke: #231f20; stroke-linejoin: miter"/>
   </g>
   <g id="patch_44">
    <path d="M 256.275 333.33 
C 277.767817 333.33 298.383237 324.845905 313.580954 309.746238 
C 328.77867 294.646571 337.317857 274.164154 337.317857 252.81 
C 337.317857 231.455846 328.77867 210.973429 313.580954 195.873762 
C 298.383237 180.774095 277.767817 172.29 256.275 172.29 
C 234.782183 172.29 214.166763 180.774095 198.969046 195.873762 
C 183.77133 210.973429 175.232143 231.455846 175.232143 252.81 
C 175.232143 274.164154 183.77133 294.646571 198.969046 309.746238 
C 214.166763 324.845905 234.782183 333.33 256.275 333.33 
z
" clip-path="url(#p4fd18d7cb5)" style="fill: #0871b7; fill-opacity: 0.752941; stroke: #231f20; stroke-linejoin: miter"/>
   </g>
   <g id="patch_45">
    <path d="M 186.525 264.03 
C 208.017817 264.03 228.633237 255.545905 243.830954 240.446238 
C 259.02867 225.346571 267.567857 204.864154 267.567857 183.51 
C 267.567857 162.155846 259.02867 141.673429 243.830954 126.573762 
C 228.633237 111.474095 208.017817 102.99 186.525 102.99 
C 165.032183 102.99 144.416763 111.474095 129.219046 126.573762 
C 114.02133 141.673429 105.482143 162.155846 105.482143 183.51 
C 105.482143 204.864154 114.02133 225.346571 129.219046 240.446238 
C 144.416763 255.545905 165.032183 264.03 186.525 264.03 
z
" clip-path="url(#p4fd18d7cb5)" style="fill: #0871b7; fill-opacity: 0.752941; stroke: #231f20; stroke-linejoin: miter"/>
   </g>
   <g id="patch_46">
    <path d="M 256.275 264.03 
C 277.767817 264.03 298.383237 255.545905 313.580954 240.446238 
C 328.77867 225.346571 337.317857 204.864154 337.317857 183.51 
C 337.317857 162.155846 328.77867 141.673429 313.580954 126.573762 
C 298.383237 111.474095 277.767817 102.99 256.275 102.99 
C 234.782183 102.99 214.166763 111.474095 198.969046 126.573762 
C 183.77133 141.673429 175.232143 162.155846 175.232143 183.51 
C 175.232143 204.864154 183.77133 225.346571 198.969046 240.446238 
C 214.166763 255.545905 234.782183 264.03 256.275 264.03 
z
" clip-path="url(#p4fd18d7cb5)" style="fill: #0871b7; fill-opacity: 0.752941; stroke: #231f20; stroke-linejoin: miter"/>
   </g>
   <g id="patch_47">
    <path d="M 221.4 338.01535 
C 244.143455 338.01535 265.958458 329.037576 282.04051 313.05928 
C 298.122561 297.080985 307.158631 275.406723 307.158631 252.81 
C 307.158631 230.213277 298.122561 208.539015 282.04051 192.56072 
C 265.958458 176.582424 244.143455 167.60465 221.4 167.60465 
C 198.656545 167.60465 176.841542 176.582424 160.75949 192.56072 
C 144.677439 208.539015 135.641369 230.213277 135.641369 252.81 
C 135.641369 275.406723 144.677439 297.080985 160.75949 313.05928 
C 176.841542 329.037576 198.656545 338.01535 221.4 338.01535 
z
" clip-path="url(#p4fd18d7cb5)" style="fill: #b74e08; fill-opacity: 0.752941; stroke: #231f20; stroke-linejoin: miter"/>
   </g>
   <g id="patch_48">
    <path d="M 186.525 303.36535 
C 209.268455 303.36535 231.083458 294.387576 247.16551 278.40928 
C 263.247561 262.430985 272.283631 240.756723 272.283631 218.16 
C 272.283631 195.563277 263.247561 173.889015 247.16551 157.91072 
C 231.083458 141.932424 209.268455 132.95465 186.525 132.95465 
C 163.781545 132.95465 141.966542 141.932424 125.88449 157.91072 
C 109.802439 173.889015 100.766369 195.563277 100.766369 218.16 
C 100.766369 240.756723 109.802439 262.430985 125.88449 278.40928 
C 141.966542 294.387576 163.781545 303.36535 186.525 303.36535 
z
" clip-path="url(#p4fd18d7cb5)" style="fill: #b74e08; fill-opacity: 0.752941; stroke: #231f20; stroke-linejoin: miter"/>
   </g>
   <g id="patch_49">
    <path d="M 256.275 303.36535 
C 279.018455 303.36535 300.833458 294.387576 316.91551 278.40928 
C 332.997561 262.430985 342.033631 240.756723 342.033631 218.16 
C 342.033631 195.563277 332.997561 173.889015 316.91551 157.91072 
C 300.833458 141.932424 279.018455 132.95465 256.275 132.95465 
C 233.531545 132.95465 211.716542 141.932424 195.63449 157.91072 
C 179.552439 173.889015 170.516369 195.563277 170.516369 218.16 
C 170.516369 240.756723 179.552439 262.430985 195.63449 278.40928 
C 211.716542 294.387576 233.531545 303.36535 256.275 303.36535 
z
" clip-path="url(#p4fd18d7cb5)" style="fill: #b74e08; fill-opacity: 0.752941; stroke: #231f20; stroke-linejoin: miter"/>
   </g>
   <g id="patch_50">
    <path d="M 221.4 268.71535 
C 244.143455 268.71535 265.958458 259.737576 282.04051 243.75928 
C 298.122561 227.780985 307.158631 206.106723 307.158631 183.51 
C 307.158631 160.913277 298.122561 139.239015 282.04051 123.26072 
C 265.958458 107.282424 244.143455 98.30465 221.4 98.30465 
C 198.656545 98.30465 176.841542 107.282424 160.75949 123.26072 
C 144.677439 139.239015 135.641369 160.913277 135.641369 183.51 
C 135.641369 206.106723 144.677439 227.780985 160.75949 243.75928 
C 176.841542 259.737576 198.656545 268.71535 221.4 268.71535 
z
" clip-path="url(#p4fd18d7cb5)" style="fill: #b74e08; fill-opacity: 0.752941; stroke: #231f20; stroke-linejoin: miter"/>
   </g>
   <g id="patch_51">
    <path d="M 221.4 308.323333 
C 245.466866 308.323333 268.551255 298.823156 285.569099 281.915104 
C 302.586942 265.007053 312.14881 242.071596 312.14881 218.16 
C 312.14881 194.248404 302.586942 171.312947 285.569099 154.404896 
C 268.551255 137.496844 245.466866 127.996667 221.4 127.996667 
C 197.333134 127.996667 174.248745 137.496844 157.230901 154.404896 
C 140.213058 171.312947 130.65119 194.248404 130.65119 218.16 
C 130.65119 242.071596 140.213058 265.007053 157.230901 281.915104 
C 174.248745 298.823156 197.333134 308.323333 221.4 308.323333 
z
" clip-path="url(#p4fd18d7cb5)" style="fill: #0871b7; fill-opacity: 0.752941; stroke: #231f20; stroke-linejoin: miter"/>
   </g>
  </g>
 </g>
 <defs>
  <clipPath id="p4fd18d7cb5">
   <rect x="54" y="51.84" width="334.8" height="332.64"/>
  </clipPath>
 </defs>
</svg>
