<?xml version="1.0" encoding="utf-8" standalone="no"?>
<!DOCTYPE svg PUBLIC "-//W3C//DTD SVG 1.1//EN"
  "http://www.w3.org/Graphics/SVG/1.1/DTD/svg11.dtd">
<svg xmlns:xlink="http://www.w3.org/1999/xlink" width="432pt" height="432pt" viewBox="0 0 432 432" xmlns="http://www.w3.org/2000/svg" version="1.1">
 <metadata>
  <rdf:RDF xmlns:dc="http://purl.org/dc/elements/1.1/" xmlns:cc="http://creativecommons.org/ns#" xmlns:rdf="http://www.w3.org/1999/02/22-rdf-syntax-ns#">
   <cc:Work>
    <dc:type rdf:resource="http://purl.org/dc/dcmitype/StillImage"/>
    <dc:date>2025-03-02T17:37:36.538466</dc:date>
    <dc:format>image/svg+xml</dc:format>
    <dc:creator>
     <cc:Agent>
      <dc:title>Matplotlib v3.10.0, https://matplotlib.org/</dc:title>
     </cc:Agent>
    </dc:creator>
   </cc:Work>
  </rdf:RDF>
 </metadata>
 <defs>
  <style type="text/css">*{stroke-linejoin: round; stroke-linecap: butt}</style>
 </defs>
 <g id="figure_1">
  <g id="patch_1">
   <path d="M 0 432 
L 432 432 
L 432 0 
L 0 0 
z
" style="fill: #ffffff"/>
  </g>
  <g id="axes_1">
   <g id="patch_2">
    <path d="M 81.9 356.76 
L 360.9 356.76 
L 360.9 79.56 
L 81.9 79.56 
L 81.9 356.76 
z
" clip-path="url(#p70dd1da862)" style="fill: none; stroke: #969696; stroke-width: 1.5; stroke-linejoin: miter"/>
   </g>
   <g id="patch_3">
    <path d="M 81.9 362.535 
C 83.441493 362.535 84.920058 361.92651 86.010058 360.843542 
C 87.100058 359.760574 87.7125 358.291548 87.7125 356.76 
C 87.7125 355.228452 87.100058 353.759426 86.010058 352.676458 
C 84.920058 351.59349 83.441493 350.985 81.9 350.985 
C 80.358507 350.985 78.879942 351.59349 77.789942 352.676458 
C 76.699942 353.759426 76.0875 355.228452 76.0875 356.76 
C 76.0875 358.291548 76.699942 359.760574 77.789942 360.843542 
C 78.879942 361.92651 80.358507 362.535 81.9 362.535 
z
" clip-path="url(#p70dd1da862)" style="fill: #0871b7; fill-opacity: 0.752941; stroke: #231f20; stroke-linejoin: miter"/>
   </g>
   <g id="patch_4">
    <path d="M 360.9 362.535 
C 362.441493 362.535 363.920058 361.92651 365.010058 360.843542 
C 366.100058 359.760574 366.7125 358.291548 366.7125 356.76 
C 366.7125 355.228452 366.100058 353.759426 365.010058 352.676458 
C 363.920058 351.59349 362.441493 350.985 360.9 350.985 
C 359.358507 350.985 357.879942 351.59349 356.789942 352.676458 
C 355.699942 353.759426 355.0875 355.228452 355.0875 356.76 
C 355.0875 358.291548 355.699942 359.760574 356.789942 360.843542 
C 357.879942 361.92651 359.358507 362.535 360.9 362.535 
z
" clip-path="url(#p70dd1da862)" style="fill: #0871b7; fill-opacity: 0.752941; stroke: #231f20; stroke-linejoin: miter"/>
   </g>
   <g id="patch_5">
    <path d="M 81.9 85.335 
C 83.441493 85.335 84.920058 84.72651 86.010058 83.643542 
C 87.100058 82.560574 87.7125 81.091548 87.7125 79.56 
C 87.7125 78.028452 87.100058 76.559426 86.010058 75.476458 
C 84.920058 74.39349 83.441493 73.785 81.9 73.785 
C 80.358507 73.785 78.879942 74.39349 77.789942 75.476458 
C 76.699942 76.559426 76.0875 78.028452 76.0875 79.56 
C 76.0875 81.091548 76.699942 82.560574 77.789942 83.643542 
C 78.879942 84.72651 80.358507 85.335 81.9 85.335 
z
" clip-path="url(#p70dd1da862)" style="fill: #0871b7; fill-opacity: 0.752941; stroke: #231f20; stroke-linejoin: miter"/>
   </g>
   <g id="patch_6">
    <path d="M 360.9 85.335 
C 362.441493 85.335 363.920058 84.72651 365.010058 83.643542 
C 366.100058 82.560574 366.7125 81.091548 366.7125 79.56 
C 366.7125 78.028452 366.100058 76.559426 365.010058 75.476458 
C 363.920058 74.39349 362.441493 73.785 360.9 73.785 
C 359.358507 73.785 357.879942 74.39349 356.789942 75.476458 
C 355.699942 76.559426 355.0875 78.028452 355.0875 79.56 
C 355.0875 81.091548 355.699942 82.560574 356.789942 83.643542 
C 357.879942 84.72651 359.358507 85.335 360.9 85.335 
z
" clip-path="url(#p70dd1da862)" style="fill: #0871b7; fill-opacity: 0.752941; stroke: #231f20; stroke-linejoin: miter"/>
   </g>
   <g id="patch_7">
    <path d="M 221.4 368.31 
C 224.482986 368.31 227.440116 367.093019 229.620116 364.927083 
C 231.800117 362.761148 233.025 359.823096 233.025 356.76 
C 233.025 353.696904 231.800117 350.758852 229.620116 348.592917 
C 227.440116 346.426981 224.482986 345.21 221.4 345.21 
C 218.317014 345.21 215.359884 346.426981 213.179884 348.592917 
C 210.999883 350.758852 209.775 353.696904 209.775 356.76 
C 209.775 359.823096 210.999883 362.761148 213.179884 364.927083 
C 215.359884 367.093019 218.317014 368.31 221.4 368.31 
z
" clip-path="url(#p70dd1da862)" style="fill: #0871b7; fill-opacity: 0.752941; stroke: #231f20; stroke-linejoin: miter"/>
   </g>
   <g id="patch_8">
    <path d="M 81.9 229.71 
C 84.982986 229.71 87.940116 228.493019 90.120116 226.327083 
C 92.300117 224.161148 93.525 221.223096 93.525 218.16 
C 93.525 215.096904 92.300117 212.158852 90.120116 209.992917 
C 87.940116 207.826981 84.982986 206.61 81.9 206.61 
C 78.817014 206.61 75.859884 207.826981 73.679884 209.992917 
C 71.499883 212.158852 70.275 215.096904 70.275 218.16 
C 70.275 221.223096 71.499883 224.161148 73.679884 226.327083 
C 75.859884 228.493019 78.817014 229.71 81.9 229.71 
z
" clip-path="url(#p70dd1da862)" style="fill: #0871b7; fill-opacity: 0.752941; stroke: #231f20; stroke-linejoin: miter"/>
   </g>
   <g id="patch_9">
    <path d="M 360.9 229.71 
C 363.982986 229.71 366.940116 228.493019 369.120116 226.327083 
C 371.300117 224.161148 372.525 221.223096 372.525 218.16 
C 372.525 215.096904 371.300117 212.158852 369.120116 209.992917 
C 366.940116 207.826981 363.982986 206.61 360.9 206.61 
C 357.817014 206.61 354.859884 207.826981 352.679884 209.992917 
C 350.499883 212.158852 349.275 215.096904 349.275 218.16 
C 349.275 221.223096 350.499883 224.161148 352.679884 226.327083 
C 354.859884 228.493019 357.817014 229.71 360.9 229.71 
z
" clip-path="url(#p70dd1da862)" style="fill: #0871b7; fill-opacity: 0.752941; stroke: #231f20; stroke-linejoin: miter"/>
   </g>
   <g id="patch_10">
    <path d="M 221.4 91.11 
C 224.482986 91.11 227.440116 89.893019 229.620116 87.727083 
C 231.800117 85.561148 233.025 82.623096 233.025 79.56 
C 233.025 76.496904 231.800117 73.558852 229.620116 71.392917 
C 227.440116 69.226981 224.482986 68.01 221.4 68.01 
C 218.317014 68.01 215.359884 69.226981 213.179884 71.392917 
C 210.999883 73.558852 209.775 76.496904 209.775 79.56 
C 209.775 82.623096 210.999883 85.561148 213.179884 87.727083 
C 215.359884 89.893019 218.317014 91.11 221.4 91.11 
z
" clip-path="url(#p70dd1da862)" style="fill: #0871b7; fill-opacity: 0.752941; stroke: #231f20; stroke-linejoin: miter"/>
   </g>
   <g id="patch_11">
    <path d="M 221.4 241.26 
C 227.565972 241.26 233.480232 238.826038 237.840233 234.494167 
C 242.200233 230.162295 244.65 224.286192 244.65 218.16 
C 244.65 212.033808 242.200233 206.157705 237.840233 201.825833 
C 233.480232 197.493962 227.565972 195.06 221.4 195.06 
C 215.234028 195.06 209.319768 197.493962 204.959767 201.825833 
C 200.599767 206.157705 198.15 212.033808 198.15 218.16 
C 198.15 224.286192 200.599767 230.162295 204.959767 234.494167 
C 209.319768 238.826038 215.234028 241.26 221.4 241.26 
z
" clip-path="url(#p70dd1da862)" style="fill: #0871b7; fill-opacity: 0.752941; stroke: #231f20; stroke-linejoin: miter"/>
   </g>
  </g>
 </g>
 <defs>
  <clipPath id="p70dd1da862">
   <rect x="54" y="51.84" width="334.8" height="332.64"/>
  </clipPath>
 </defs>
</svg>
