<?xml version="1.0" encoding="utf-8" standalone="no"?>
<!DOCTYPE svg PUBLIC "-//W3C//DTD SVG 1.1//EN"
  "http://www.w3.org/Graphics/SVG/1.1/DTD/svg11.dtd">
<svg xmlns:xlink="http://www.w3.org/1999/xlink" width="432pt" height="432pt" viewBox="0 0 432 432" xmlns="http://www.w3.org/2000/svg" version="1.1">
 <metadata>
  <rdf:RDF xmlns:dc="http://purl.org/dc/elements/1.1/" xmlns:cc="http://creativecommons.org/ns#" xmlns:rdf="http://www.w3.org/1999/02/22-rdf-syntax-ns#">
   <cc:Work>
    <dc:type rdf:resource="http://purl.org/dc/dcmitype/StillImage"/>
    <dc:date>2025-03-02T17:37:36.567898</dc:date>
    <dc:format>image/svg+xml</dc:format>
    <dc:creator>
     <cc:Agent>
      <dc:title>Matplotlib v3.10.0, https://matplotlib.org/</dc:title>
     </cc:Agent>
    </dc:creator>
   </cc:Work>
  </rdf:RDF>
 </metadata>
 <defs>
  <style type="text/css">*{stroke-linejoin: round; stroke-linecap: butt}</style>
 </defs>
 <g id="figure_1">
  <g id="patch_1">
   <path d="M 0 432 
L 432 432 
L 432 0 
L 0 0 
z
" style="fill: #ffffff"/>
  </g>
  <g id="axes_1">
   <g id="patch_2">
    <path d="M 81.9 356.76 
L 360.9 356.76 
L 360.9 79.56 
L 81.9 79.56 
L 81.9 356.76 
z
" clip-path="url(#p186c977f73)" style="fill: none; stroke: #969696; stroke-width: 1.5; stroke-linejoin: miter"/>
   </g>
   <g id="patch_3">
    <path d="M 81.9 359.6475 
C 82.670747 359.6475 83.410029 359.343255 83.955029 358.801771 
C 84.500029 358.260287 84.80625 357.525774 84.80625 356.76 
C 84.80625 355.994226 84.500029 355.259713 83.955029 354.718229 
C 83.410029 354.176745 82.670747 353.8725 81.9 353.8725 
C 81.129253 353.8725 80.389971 354.176745 79.844971 354.718229 
C 79.299971 355.259713 78.99375 355.994226 78.99375 356.76 
C 78.99375 357.525774 79.299971 358.260287 79.844971 358.801771 
C 80.389971 359.343255 81.129253 359.6475 81.9 359.6475 
z
" clip-path="url(#p186c977f73)" style="fill: #0871b7; fill-opacity: 0.752941; stroke: #231f20; stroke-linejoin: miter"/>
   </g>
   <g id="patch_4">
    <path d="M 360.9 359.6475 
C 361.670747 359.6475 362.410029 359.343255 362.955029 358.801771 
C 363.500029 358.260287 363.80625 357.525774 363.80625 356.76 
C 363.80625 355.994226 363.500029 355.259713 362.955029 354.718229 
C 362.410029 354.176745 361.670747 353.8725 360.9 353.8725 
C 360.129253 353.8725 359.389971 354.176745 358.844971 354.718229 
C 358.299971 355.259713 357.99375 355.994226 357.99375 356.76 
C 357.99375 357.525774 358.299971 358.260287 358.844971 358.801771 
C 359.389971 359.343255 360.129253 359.6475 360.9 359.6475 
z
" clip-path="url(#p186c977f73)" style="fill: #0871b7; fill-opacity: 0.752941; stroke: #231f20; stroke-linejoin: miter"/>
   </g>
   <g id="patch_5">
    <path d="M 81.9 82.4475 
C 82.670747 82.4475 83.410029 82.143255 83.955029 81.601771 
C 84.500029 81.060287 84.80625 80.325774 84.80625 79.56 
C 84.80625 78.794226 84.500029 78.059713 83.955029 77.518229 
C 83.410029 76.976745 82.670747 76.6725 81.9 76.6725 
C 81.129253 76.6725 80.389971 76.976745 79.844971 77.518229 
C 79.299971 78.059713 78.99375 78.794226 78.99375 79.56 
C 78.99375 80.325774 79.299971 81.060287 79.844971 81.601771 
C 80.389971 82.143255 81.129253 82.4475 81.9 82.4475 
z
" clip-path="url(#p186c977f73)" style="fill: #0871b7; fill-opacity: 0.752941; stroke: #231f20; stroke-linejoin: miter"/>
   </g>
   <g id="patch_6">
    <path d="M 360.9 82.4475 
C 361.670747 82.4475 362.410029 82.143255 362.955029 81.601771 
C 363.500029 81.060287 363.80625 80.325774 363.80625 79.56 
C 363.80625 78.794226 363.500029 78.059713 362.955029 77.518229 
C 362.410029 76.976745 361.670747 76.6725 360.9 76.6725 
C 360.129253 76.6725 359.389971 76.976745 358.844971 77.518229 
C 358.299971 78.059713 357.99375 78.794226 357.99375 79.56 
C 357.99375 80.325774 358.299971 81.060287 358.844971 81.601771 
C 359.389971 82.143255 360.129253 82.4475 360.9 82.4475 
z
" clip-path="url(#p186c977f73)" style="fill: #0871b7; fill-opacity: 0.752941; stroke: #231f20; stroke-linejoin: miter"/>
   </g>
   <g id="patch_7">
    <path d="M 159.013703 363.216646 
C 160.737145 363.216646 162.390231 362.536333 163.608888 361.325538 
C 164.827545 360.114743 165.512276 358.472323 165.512276 356.76 
C 165.512276 355.047677 164.827545 353.405257 163.608888 352.194462 
C 162.390231 350.983667 160.737145 350.303354 159.013703 350.303354 
C 157.290262 350.303354 155.637176 350.983667 154.418519 352.194462 
C 153.199861 353.405257 152.515131 355.047677 152.515131 356.76 
C 152.515131 358.472323 153.199861 360.114743 154.418519 361.325538 
C 155.637176 362.536333 157.290262 363.216646 159.013703 363.216646 
z
" clip-path="url(#p186c977f73)" style="fill: #0871b7; fill-opacity: 0.752941; stroke: #231f20; stroke-linejoin: miter"/>
   </g>
   <g id="patch_8">
    <path d="M 283.786297 363.216646 
C 285.509738 363.216646 287.162824 362.536333 288.381481 361.325538 
C 289.600139 360.114743 290.284869 358.472323 290.284869 356.76 
C 290.284869 355.047677 289.600139 353.405257 288.381481 352.194462 
C 287.162824 350.983667 285.509738 350.303354 283.786297 350.303354 
C 282.062855 350.303354 280.409769 350.983667 279.191112 352.194462 
C 277.972455 353.405257 277.287724 355.047677 277.287724 356.76 
C 277.287724 358.472323 277.972455 360.114743 279.191112 361.325538 
C 280.409769 362.536333 282.062855 363.216646 283.786297 363.216646 
z
" clip-path="url(#p186c977f73)" style="fill: #0871b7; fill-opacity: 0.752941; stroke: #231f20; stroke-linejoin: miter"/>
   </g>
   <g id="patch_9">
    <path d="M 81.9 286.600451 
C 83.623442 286.600451 85.276527 285.920138 86.495185 284.709343 
C 87.713842 283.498548 88.398573 281.856127 88.398573 280.143804 
C 88.398573 278.431482 87.713842 276.789061 86.495185 275.578266 
C 85.276527 274.367471 83.623442 273.687158 81.9 273.687158 
C 80.176558 273.687158 78.523473 274.367471 77.304815 275.578266 
C 76.086158 276.789061 75.401427 278.431482 75.401427 280.143804 
C 75.401427 281.856127 76.086158 283.498548 77.304815 284.709343 
C 78.523473 285.920138 80.176558 286.600451 81.9 286.600451 
z
" clip-path="url(#p186c977f73)" style="fill: #0871b7; fill-opacity: 0.752941; stroke: #231f20; stroke-linejoin: miter"/>
   </g>
   <g id="patch_10">
    <path d="M 360.9 286.600451 
C 362.623442 286.600451 364.276527 285.920138 365.495185 284.709343 
C 366.713842 283.498548 367.398573 281.856127 367.398573 280.143804 
C 367.398573 278.431482 366.713842 276.789061 365.495185 275.578266 
C 364.276527 274.367471 362.623442 273.687158 360.9 273.687158 
C 359.176558 273.687158 357.523473 274.367471 356.304815 275.578266 
C 355.086158 276.789061 354.401427 278.431482 354.401427 280.143804 
C 354.401427 281.856127 355.086158 283.498548 356.304815 284.709343 
C 357.523473 285.920138 359.176558 286.600451 360.9 286.600451 
z
" clip-path="url(#p186c977f73)" style="fill: #0871b7; fill-opacity: 0.752941; stroke: #231f20; stroke-linejoin: miter"/>
   </g>
   <g id="patch_11">
    <path d="M 81.9 162.632842 
C 83.623442 162.632842 85.276527 161.952529 86.495185 160.741734 
C 87.713842 159.530939 88.398573 157.888518 88.398573 156.176196 
C 88.398573 154.463873 87.713842 152.821452 86.495185 151.610657 
C 85.276527 150.399862 83.623442 149.719549 81.9 149.719549 
C 80.176558 149.719549 78.523473 150.399862 77.304815 151.610657 
C 76.086158 152.821452 75.401427 154.463873 75.401427 156.176196 
C 75.401427 157.888518 76.086158 159.530939 77.304815 160.741734 
C 78.523473 161.952529 80.176558 162.632842 81.9 162.632842 
z
" clip-path="url(#p186c977f73)" style="fill: #0871b7; fill-opacity: 0.752941; stroke: #231f20; stroke-linejoin: miter"/>
   </g>
   <g id="patch_12">
    <path d="M 360.9 162.632842 
C 362.623442 162.632842 364.276527 161.952529 365.495185 160.741734 
C 366.713842 159.530939 367.398573 157.888518 367.398573 156.176196 
C 367.398573 154.463873 366.713842 152.821452 365.495185 151.610657 
C 364.276527 150.399862 362.623442 149.719549 360.9 149.719549 
C 359.176558 149.719549 357.523473 150.399862 356.304815 151.610657 
C 355.086158 152.821452 354.401427 154.463873 354.401427 156.176196 
C 354.401427 157.888518 355.086158 159.530939 356.304815 160.741734 
C 357.523473 161.952529 359.176558 162.632842 360.9 162.632842 
z
" clip-path="url(#p186c977f73)" style="fill: #0871b7; fill-opacity: 0.752941; stroke: #231f20; stroke-linejoin: miter"/>
   </g>
   <g id="patch_13">
    <path d="M 159.013703 86.016646 
C 160.737145 86.016646 162.390231 85.336333 163.608888 84.125538 
C 164.827545 82.914743 165.512276 81.272323 165.512276 79.56 
C 165.512276 77.847677 164.827545 76.205257 163.608888 74.994462 
C 162.390231 73.783667 160.737145 73.103354 159.013703 73.103354 
C 157.290262 73.103354 155.637176 73.783667 154.418519 74.994462 
C 153.199861 76.205257 152.515131 77.847677 152.515131 79.56 
C 152.515131 81.272323 153.199861 82.914743 154.418519 84.125538 
C 155.637176 85.336333 157.290262 86.016646 159.013703 86.016646 
z
" clip-path="url(#p186c977f73)" style="fill: #0871b7; fill-opacity: 0.752941; stroke: #231f20; stroke-linejoin: miter"/>
   </g>
   <g id="patch_14">
    <path d="M 283.786297 86.016646 
C 285.509738 86.016646 287.162824 85.336333 288.381481 84.125538 
C 289.600139 82.914743 290.284869 81.272323 290.284869 79.56 
C 290.284869 77.847677 289.600139 76.205257 288.381481 74.994462 
C 287.162824 73.783667 285.509738 73.103354 283.786297 73.103354 
C 282.062855 73.103354 280.409769 73.783667 279.191112 74.994462 
C 277.972455 76.205257 277.287724 77.847677 277.287724 79.56 
C 277.287724 81.272323 277.972455 82.914743 279.191112 84.125538 
C 280.409769 85.336333 282.062855 86.016646 283.786297 86.016646 
z
" clip-path="url(#p186c977f73)" style="fill: #0871b7; fill-opacity: 0.752941; stroke: #231f20; stroke-linejoin: miter"/>
   </g>
   <g id="patch_15">
    <path d="M 159.013703 294.581304 
C 162.867436 294.581304 166.563848 293.060078 169.288849 290.352658 
C 172.013849 287.645239 173.544953 283.972674 173.544953 280.143804 
C 173.544953 276.314935 172.013849 272.64237 169.288849 269.93495 
C 166.563848 267.22753 162.867436 265.706304 159.013703 265.706304 
C 155.159971 265.706304 151.463558 267.22753 148.738558 269.93495 
C 146.013558 272.64237 144.482453 276.314935 144.482453 280.143804 
C 144.482453 283.972674 146.013558 287.645239 148.738558 290.352658 
C 151.463558 293.060078 155.159971 294.581304 159.013703 294.581304 
z
" clip-path="url(#p186c977f73)" style="fill: #0871b7; fill-opacity: 0.752941; stroke: #231f20; stroke-linejoin: miter"/>
   </g>
   <g id="patch_16">
    <path d="M 283.786297 294.581304 
C 287.640029 294.581304 291.336442 293.060078 294.061442 290.352658 
C 296.786442 287.645239 298.317547 283.972674 298.317547 280.143804 
C 298.317547 276.314935 296.786442 272.64237 294.061442 269.93495 
C 291.336442 267.22753 287.640029 265.706304 283.786297 265.706304 
C 279.932564 265.706304 276.236152 267.22753 273.511151 269.93495 
C 270.786151 272.64237 269.255047 276.314935 269.255047 280.143804 
C 269.255047 283.972674 270.786151 287.645239 273.511151 290.352658 
C 276.236152 293.060078 279.932564 294.581304 283.786297 294.581304 
z
" clip-path="url(#p186c977f73)" style="fill: #0871b7; fill-opacity: 0.752941; stroke: #231f20; stroke-linejoin: miter"/>
   </g>
   <g id="patch_17">
    <path d="M 159.013703 170.613696 
C 162.867436 170.613696 166.563848 169.09247 169.288849 166.38505 
C 172.013849 163.67763 173.544953 160.005065 173.544953 156.176196 
C 173.544953 152.347326 172.013849 148.674761 169.288849 145.967342 
C 166.563848 143.259922 162.867436 141.738696 159.013703 141.738696 
C 155.159971 141.738696 151.463558 143.259922 148.738558 145.967342 
C 146.013558 148.674761 144.482453 152.347326 144.482453 156.176196 
C 144.482453 160.005065 146.013558 163.67763 148.738558 166.38505 
C 151.463558 169.09247 155.159971 170.613696 159.013703 170.613696 
z
" clip-path="url(#p186c977f73)" style="fill: #0871b7; fill-opacity: 0.752941; stroke: #231f20; stroke-linejoin: miter"/>
   </g>
   <g id="patch_18">
    <path d="M 283.786297 170.613696 
C 287.640029 170.613696 291.336442 169.09247 294.061442 166.38505 
C 296.786442 163.67763 298.317547 160.005065 298.317547 156.176196 
C 298.317547 152.347326 296.786442 148.674761 294.061442 145.967342 
C 291.336442 143.259922 287.640029 141.738696 283.786297 141.738696 
C 279.932564 141.738696 276.236152 143.259922 273.511151 145.967342 
C 270.786151 148.674761 269.255047 152.347326 269.255047 156.176196 
C 269.255047 160.005065 270.786151 163.67763 273.511151 166.38505 
C 276.236152 169.09247 279.932564 170.613696 283.786297 170.613696 
z
" clip-path="url(#p186c977f73)" style="fill: #0871b7; fill-opacity: 0.752941; stroke: #231f20; stroke-linejoin: miter"/>
   </g>
  </g>
 </g>
 <defs>
  <clipPath id="p186c977f73">
   <rect x="54" y="51.84" width="334.8" height="332.64"/>
  </clipPath>
 </defs>
</svg>
