<?xml version="1.0" encoding="utf-8" standalone="no"?>
<!DOCTYPE svg PUBLIC "-//W3C//DTD SVG 1.1//EN"
  "http://www.w3.org/Graphics/SVG/1.1/DTD/svg11.dtd">
<svg xmlns:xlink="http://www.w3.org/1999/xlink" width="432pt" height="432pt" viewBox="0 0 432 432" xmlns="http://www.w3.org/2000/svg" version="1.1">
 <metadata>
  <rdf:RDF xmlns:dc="http://purl.org/dc/elements/1.1/" xmlns:cc="http://creativecommons.org/ns#" xmlns:rdf="http://www.w3.org/1999/02/22-rdf-syntax-ns#">
   <cc:Work>
    <dc:type rdf:resource="http://purl.org/dc/dcmitype/StillImage"/>
    <dc:date>2025-03-02T17:37:38.069046</dc:date>
    <dc:format>image/svg+xml</dc:format>
    <dc:creator>
     <cc:Agent>
      <dc:title>Matplotlib v3.10.0, https://matplotlib.org/</dc:title>
     </cc:Agent>
    </dc:creator>
   </cc:Work>
  </rdf:RDF>
 </metadata>
 <defs>
  <style type="text/css">*{stroke-linejoin: round; stroke-linecap: butt}</style>
 </defs>
 <g id="figure_1">
  <g id="patch_1">
   <path d="M 0 432 
L 432 432 
L 432 0 
L 0 0 
z
" style="fill: #ffffff"/>
  </g>
  <g id="axes_1">
   <g id="patch_2">
    <path d="M 81.9 356.76 
L 360.9 356.76 
L 360.9 79.56 
L 81.9 79.56 
L 81.9 356.76 
z
" clip-path="url(#p159ebbfd0e)" style="fill: none; stroke: #969696; stroke-width: 1.5; stroke-linejoin: miter"/>
   </g>
   <g id="patch_3">
    <path d="M 81.9 358.45125 
C 82.351437 358.45125 82.784446 358.273049 83.10366 357.955894 
C 83.422874 357.638739 83.602232 357.208525 83.602232 356.76 
C 83.602232 356.311475 83.422874 355.881261 83.10366 355.564106 
C 82.784446 355.246951 82.351437 355.06875 81.9 355.06875 
C 81.448563 355.06875 81.015554 355.246951 80.69634 355.564106 
C 80.377126 355.881261 80.197768 356.311475 80.197768 356.76 
C 80.197768 357.208525 80.377126 357.638739 80.69634 357.955894 
C 81.015554 358.273049 81.448563 358.45125 81.9 358.45125 
z
" clip-path="url(#p159ebbfd0e)" style="fill: #0871b7; fill-opacity: 0.752941; stroke: #231f20; stroke-linejoin: miter"/>
   </g>
   <g id="patch_4">
    <path d="M 360.9 358.45125 
C 361.351437 358.45125 361.784446 358.273049 362.10366 357.955894 
C 362.422874 357.638739 362.602232 357.208525 362.602232 356.76 
C 362.602232 356.311475 362.422874 355.881261 362.10366 355.564106 
C 361.784446 355.246951 361.351437 355.06875 360.9 355.06875 
C 360.448563 355.06875 360.015554 355.246951 359.69634 355.564106 
C 359.377126 355.881261 359.197768 356.311475 359.197768 356.76 
C 359.197768 357.208525 359.377126 357.638739 359.69634 357.955894 
C 360.015554 358.273049 360.448563 358.45125 360.9 358.45125 
z
" clip-path="url(#p159ebbfd0e)" style="fill: #0871b7; fill-opacity: 0.752941; stroke: #231f20; stroke-linejoin: miter"/>
   </g>
   <g id="patch_5">
    <path d="M 81.9 81.25125 
C 82.351437 81.25125 82.784446 81.073049 83.10366 80.755894 
C 83.422874 80.438739 83.602232 80.008525 83.602232 79.56 
C 83.602232 79.111475 83.422874 78.681261 83.10366 78.364106 
C 82.784446 78.046951 82.351437 77.86875 81.9 77.86875 
C 81.448563 77.86875 81.015554 78.046951 80.69634 78.364106 
C 80.377126 78.681261 80.197768 79.111475 80.197768 79.56 
C 80.197768 80.008525 80.377126 80.438739 80.69634 80.755894 
C 81.015554 81.073049 81.448563 81.25125 81.9 81.25125 
z
" clip-path="url(#p159ebbfd0e)" style="fill: #0871b7; fill-opacity: 0.752941; stroke: #231f20; stroke-linejoin: miter"/>
   </g>
   <g id="patch_6">
    <path d="M 360.9 81.25125 
C 361.351437 81.25125 361.784446 81.073049 362.10366 80.755894 
C 362.422874 80.438739 362.602232 80.008525 362.602232 79.56 
C 362.602232 79.111475 362.422874 78.681261 362.10366 78.364106 
C 361.784446 78.046951 361.351437 77.86875 360.9 77.86875 
C 360.448563 77.86875 360.015554 78.046951 359.69634 78.364106 
C 359.377126 78.681261 359.197768 79.111475 359.197768 79.56 
C 359.197768 80.008525 359.377126 80.438739 359.69634 80.755894 
C 360.015554 81.073049 360.448563 81.25125 360.9 81.25125 
z
" clip-path="url(#p159ebbfd0e)" style="fill: #0871b7; fill-opacity: 0.752941; stroke: #231f20; stroke-linejoin: miter"/>
   </g>
   <g id="patch_7">
    <path d="M 128.4 360.641886 
C 129.436173 360.641886 130.430047 360.232866 131.162732 359.504908 
C 131.895417 358.77695 132.307093 357.789488 132.307093 356.76 
C 132.307093 355.730512 131.895417 354.74305 131.162732 354.015092 
C 130.430047 353.287134 129.436173 352.878114 128.4 352.878114 
C 127.363827 352.878114 126.369953 353.287134 125.637268 354.015092 
C 124.904583 354.74305 124.492907 355.730512 124.492907 356.76 
C 124.492907 357.789488 124.904583 358.77695 125.637268 359.504908 
C 126.369953 360.232866 127.363827 360.641886 128.4 360.641886 
z
" clip-path="url(#p159ebbfd0e)" style="fill: #0871b7; fill-opacity: 0.752941; stroke: #231f20; stroke-linejoin: miter"/>
   </g>
   <g id="patch_8">
    <path d="M 314.4 360.641886 
C 315.436173 360.641886 316.430047 360.232866 317.162732 359.504908 
C 317.895417 358.77695 318.307093 357.789488 318.307093 356.76 
C 318.307093 355.730512 317.895417 354.74305 317.162732 354.015092 
C 316.430047 353.287134 315.436173 352.878114 314.4 352.878114 
C 313.363827 352.878114 312.369953 353.287134 311.637268 354.015092 
C 310.904583 354.74305 310.492907 355.730512 310.492907 356.76 
C 310.492907 357.789488 310.904583 358.77695 311.637268 359.504908 
C 312.369953 360.232866 313.363827 360.641886 314.4 360.641886 
z
" clip-path="url(#p159ebbfd0e)" style="fill: #0871b7; fill-opacity: 0.752941; stroke: #231f20; stroke-linejoin: miter"/>
   </g>
   <g id="patch_9">
    <path d="M 81.9 314.441886 
C 82.936173 314.441886 83.930047 314.032866 84.662732 313.304908 
C 85.395417 312.57695 85.807093 311.589488 85.807093 310.56 
C 85.807093 309.530512 85.395417 308.54305 84.662732 307.815092 
C 83.930047 307.087134 82.936173 306.678114 81.9 306.678114 
C 80.863827 306.678114 79.869953 307.087134 79.137268 307.815092 
C 78.404583 308.54305 77.992907 309.530512 77.992907 310.56 
C 77.992907 311.589488 78.404583 312.57695 79.137268 313.304908 
C 79.869953 314.032866 80.863827 314.441886 81.9 314.441886 
z
" clip-path="url(#p159ebbfd0e)" style="fill: #0871b7; fill-opacity: 0.752941; stroke: #231f20; stroke-linejoin: miter"/>
   </g>
   <g id="patch_10">
    <path d="M 360.9 314.441886 
C 361.936173 314.441886 362.930047 314.032866 363.662732 313.304908 
C 364.395417 312.57695 364.807093 311.589488 364.807093 310.56 
C 364.807093 309.530512 364.395417 308.54305 363.662732 307.815092 
C 362.930047 307.087134 361.936173 306.678114 360.9 306.678114 
C 359.863827 306.678114 358.869953 307.087134 358.137268 307.815092 
C 357.404583 308.54305 356.992907 309.530512 356.992907 310.56 
C 356.992907 311.589488 357.404583 312.57695 358.137268 313.304908 
C 358.869953 314.032866 359.863827 314.441886 360.9 314.441886 
z
" clip-path="url(#p159ebbfd0e)" style="fill: #0871b7; fill-opacity: 0.752941; stroke: #231f20; stroke-linejoin: miter"/>
   </g>
   <g id="patch_11">
    <path d="M 81.9 129.641886 
C 82.936173 129.641886 83.930047 129.232866 84.662732 128.504908 
C 85.395417 127.77695 85.807093 126.789488 85.807093 125.76 
C 85.807093 124.730512 85.395417 123.74305 84.662732 123.015092 
C 83.930047 122.287134 82.936173 121.878114 81.9 121.878114 
C 80.863827 121.878114 79.869953 122.287134 79.137268 123.015092 
C 78.404583 123.74305 77.992907 124.730512 77.992907 125.76 
C 77.992907 126.789488 78.404583 127.77695 79.137268 128.504908 
C 79.869953 129.232866 80.863827 129.641886 81.9 129.641886 
z
" clip-path="url(#p159ebbfd0e)" style="fill: #0871b7; fill-opacity: 0.752941; stroke: #231f20; stroke-linejoin: miter"/>
   </g>
   <g id="patch_12">
    <path d="M 360.9 129.641886 
C 361.936173 129.641886 362.930047 129.232866 363.662732 128.504908 
C 364.395417 127.77695 364.807093 126.789488 364.807093 125.76 
C 364.807093 124.730512 364.395417 123.74305 363.662732 123.015092 
C 362.930047 122.287134 361.936173 121.878114 360.9 121.878114 
C 359.863827 121.878114 358.869953 122.287134 358.137268 123.015092 
C 357.404583 123.74305 356.992907 124.730512 356.992907 125.76 
C 356.992907 126.789488 357.404583 127.77695 358.137268 128.504908 
C 358.869953 129.232866 359.863827 129.641886 360.9 129.641886 
z
" clip-path="url(#p159ebbfd0e)" style="fill: #0871b7; fill-opacity: 0.752941; stroke: #231f20; stroke-linejoin: miter"/>
   </g>
   <g id="patch_13">
    <path d="M 128.4 83.441886 
C 129.436173 83.441886 130.430047 83.032866 131.162732 82.304908 
C 131.895417 81.57695 132.307093 80.589488 132.307093 79.56 
C 132.307093 78.530512 131.895417 77.54305 131.162732 76.815092 
C 130.430047 76.087134 129.436173 75.678114 128.4 75.678114 
C 127.363827 75.678114 126.369953 76.087134 125.637268 76.815092 
C 124.904583 77.54305 124.492907 78.530512 124.492907 79.56 
C 124.492907 80.589488 124.904583 81.57695 125.637268 82.304908 
C 126.369953 83.032866 127.363827 83.441886 128.4 83.441886 
z
" clip-path="url(#p159ebbfd0e)" style="fill: #0871b7; fill-opacity: 0.752941; stroke: #231f20; stroke-linejoin: miter"/>
   </g>
   <g id="patch_14">
    <path d="M 314.4 83.441886 
C 315.436173 83.441886 316.430047 83.032866 317.162732 82.304908 
C 317.895417 81.57695 318.307093 80.589488 318.307093 79.56 
C 318.307093 78.530512 317.895417 77.54305 317.162732 76.815092 
C 316.430047 76.087134 315.436173 75.678114 314.4 75.678114 
C 313.363827 75.678114 312.369953 76.087134 311.637268 76.815092 
C 310.904583 77.54305 310.492907 78.530512 310.492907 79.56 
C 310.492907 80.589488 310.904583 81.57695 311.637268 82.304908 
C 312.369953 83.032866 313.363827 83.441886 314.4 83.441886 
z
" clip-path="url(#p159ebbfd0e)" style="fill: #0871b7; fill-opacity: 0.752941; stroke: #231f20; stroke-linejoin: miter"/>
   </g>
   <g id="patch_15">
    <path d="M 174.9 358.132454 
C 175.266343 358.132454 175.61773 357.987843 175.876773 357.730471 
C 176.135817 357.473099 176.281366 357.123979 176.281366 356.76 
C 176.281366 356.396021 176.135817 356.046901 175.876773 355.789529 
C 175.61773 355.532157 175.266343 355.387546 174.9 355.387546 
C 174.533657 355.387546 174.18227 355.532157 173.923227 355.789529 
C 173.664183 356.046901 173.518634 356.396021 173.518634 356.76 
C 173.518634 357.123979 173.664183 357.473099 173.923227 357.730471 
C 174.18227 357.987843 174.533657 358.132454 174.9 358.132454 
z
" clip-path="url(#p159ebbfd0e)" style="fill: #0871b7; fill-opacity: 0.752941; stroke: #231f20; stroke-linejoin: miter"/>
   </g>
   <g id="patch_16">
    <path d="M 267.9 358.132454 
C 268.266343 358.132454 268.61773 357.987843 268.876773 357.730471 
C 269.135817 357.473099 269.281366 357.123979 269.281366 356.76 
C 269.281366 356.396021 269.135817 356.046901 268.876773 355.789529 
C 268.61773 355.532157 268.266343 355.387546 267.9 355.387546 
C 267.533657 355.387546 267.18227 355.532157 266.923227 355.789529 
C 266.664183 356.046901 266.518634 356.396021 266.518634 356.76 
C 266.518634 357.123979 266.664183 357.473099 266.923227 357.730471 
C 267.18227 357.987843 267.533657 358.132454 267.9 358.132454 
z
" clip-path="url(#p159ebbfd0e)" style="fill: #0871b7; fill-opacity: 0.752941; stroke: #231f20; stroke-linejoin: miter"/>
   </g>
   <g id="patch_17">
    <path d="M 81.9 265.732454 
C 82.266343 265.732454 82.61773 265.587843 82.876773 265.330471 
C 83.135817 265.073099 83.281366 264.723979 83.281366 264.36 
C 83.281366 263.996021 83.135817 263.646901 82.876773 263.389529 
C 82.61773 263.132157 82.266343 262.987546 81.9 262.987546 
C 81.533657 262.987546 81.18227 263.132157 80.923227 263.389529 
C 80.664183 263.646901 80.518634 263.996021 80.518634 264.36 
C 80.518634 264.723979 80.664183 265.073099 80.923227 265.330471 
C 81.18227 265.587843 81.533657 265.732454 81.9 265.732454 
z
" clip-path="url(#p159ebbfd0e)" style="fill: #0871b7; fill-opacity: 0.752941; stroke: #231f20; stroke-linejoin: miter"/>
   </g>
   <g id="patch_18">
    <path d="M 360.9 265.732454 
C 361.266343 265.732454 361.61773 265.587843 361.876773 265.330471 
C 362.135817 265.073099 362.281366 264.723979 362.281366 264.36 
C 362.281366 263.996021 362.135817 263.646901 361.876773 263.389529 
C 361.61773 263.132157 361.266343 262.987546 360.9 262.987546 
C 360.533657 262.987546 360.18227 263.132157 359.923227 263.389529 
C 359.664183 263.646901 359.518634 263.996021 359.518634 264.36 
C 359.518634 264.723979 359.664183 265.073099 359.923227 265.330471 
C 360.18227 265.587843 360.533657 265.732454 360.9 265.732454 
z
" clip-path="url(#p159ebbfd0e)" style="fill: #0871b7; fill-opacity: 0.752941; stroke: #231f20; stroke-linejoin: miter"/>
   </g>
   <g id="patch_19">
    <path d="M 81.9 173.332454 
C 82.266343 173.332454 82.61773 173.187843 82.876773 172.930471 
C 83.135817 172.673099 83.281366 172.323979 83.281366 171.96 
C 83.281366 171.596021 83.135817 171.246901 82.876773 170.989529 
C 82.61773 170.732157 82.266343 170.587546 81.9 170.587546 
C 81.533657 170.587546 81.18227 170.732157 80.923227 170.989529 
C 80.664183 171.246901 80.518634 171.596021 80.518634 171.96 
C 80.518634 172.323979 80.664183 172.673099 80.923227 172.930471 
C 81.18227 173.187843 81.533657 173.332454 81.9 173.332454 
z
" clip-path="url(#p159ebbfd0e)" style="fill: #0871b7; fill-opacity: 0.752941; stroke: #231f20; stroke-linejoin: miter"/>
   </g>
   <g id="patch_20">
    <path d="M 360.9 173.332454 
C 361.266343 173.332454 361.61773 173.187843 361.876773 172.930471 
C 362.135817 172.673099 362.281366 172.323979 362.281366 171.96 
C 362.281366 171.596021 362.135817 171.246901 361.876773 170.989529 
C 361.61773 170.732157 361.266343 170.587546 360.9 170.587546 
C 360.533657 170.587546 360.18227 170.732157 359.923227 170.989529 
C 359.664183 171.246901 359.518634 171.596021 359.518634 171.96 
C 359.518634 172.323979 359.664183 172.673099 359.923227 172.930471 
C 360.18227 173.187843 360.533657 173.332454 360.9 173.332454 
z
" clip-path="url(#p159ebbfd0e)" style="fill: #0871b7; fill-opacity: 0.752941; stroke: #231f20; stroke-linejoin: miter"/>
   </g>
   <g id="patch_21">
    <path d="M 174.9 80.932454 
C 175.266343 80.932454 175.61773 80.787843 175.876773 80.530471 
C 176.135817 80.273099 176.281366 79.923979 176.281366 79.56 
C 176.281366 79.196021 176.135817 78.846901 175.876773 78.589529 
C 175.61773 78.332157 175.266343 78.187546 174.9 78.187546 
C 174.533657 78.187546 174.18227 78.332157 173.923227 78.589529 
C 173.664183 78.846901 173.518634 79.196021 173.518634 79.56 
C 173.518634 79.923979 173.664183 80.273099 173.923227 80.530471 
C 174.18227 80.787843 174.533657 80.932454 174.9 80.932454 
z
" clip-path="url(#p159ebbfd0e)" style="fill: #0871b7; fill-opacity: 0.752941; stroke: #231f20; stroke-linejoin: miter"/>
   </g>
   <g id="patch_22">
    <path d="M 267.9 80.932454 
C 268.266343 80.932454 268.61773 80.787843 268.876773 80.530471 
C 269.135817 80.273099 269.281366 79.923979 269.281366 79.56 
C 269.281366 79.196021 269.135817 78.846901 268.876773 78.589529 
C 268.61773 78.332157 268.266343 78.187546 267.9 78.187546 
C 267.533657 78.187546 267.18227 78.332157 266.923227 78.589529 
C 266.664183 78.846901 266.518634 79.196021 266.518634 79.56 
C 266.518634 79.923979 266.664183 80.273099 266.923227 80.530471 
C 267.18227 80.787843 267.533657 80.932454 267.9 80.932454 
z
" clip-path="url(#p159ebbfd0e)" style="fill: #0871b7; fill-opacity: 0.752941; stroke: #231f20; stroke-linejoin: miter"/>
   </g>
   <g id="patch_23">
    <path d="M 221.4 361.116125 
C 222.56276 361.116125 223.678052 360.657136 224.500247 359.840246 
C 225.322442 359.023355 225.784412 357.915258 225.784412 356.76 
C 225.784412 355.604742 225.322442 354.496645 224.500247 353.679754 
C 223.678052 352.862864 222.56276 352.403875 221.4 352.403875 
C 220.23724 352.403875 219.121948 352.862864 218.299753 353.679754 
C 217.477558 354.496645 217.015588 355.604742 217.015588 356.76 
C 217.015588 357.915258 217.477558 359.023355 218.299753 359.840246 
C 219.121948 360.657136 220.23724 361.116125 221.4 361.116125 
z
" clip-path="url(#p159ebbfd0e)" style="fill: #0871b7; fill-opacity: 0.752941; stroke: #231f20; stroke-linejoin: miter"/>
   </g>
   <g id="patch_24">
    <path d="M 81.9 222.516125 
C 83.06276 222.516125 84.178052 222.057136 85.000247 221.240246 
C 85.822442 220.423355 86.284412 219.315258 86.284412 218.16 
C 86.284412 217.004742 85.822442 215.896645 85.000247 215.079754 
C 84.178052 214.262864 83.06276 213.803875 81.9 213.803875 
C 80.73724 213.803875 79.621948 214.262864 78.799753 215.079754 
C 77.977558 215.896645 77.515588 217.004742 77.515588 218.16 
C 77.515588 219.315258 77.977558 220.423355 78.799753 221.240246 
C 79.621948 222.057136 80.73724 222.516125 81.9 222.516125 
z
" clip-path="url(#p159ebbfd0e)" style="fill: #0871b7; fill-opacity: 0.752941; stroke: #231f20; stroke-linejoin: miter"/>
   </g>
   <g id="patch_25">
    <path d="M 360.9 222.516125 
C 362.06276 222.516125 363.178052 222.057136 364.000247 221.240246 
C 364.822442 220.423355 365.284412 219.315258 365.284412 218.16 
C 365.284412 217.004742 364.822442 215.896645 364.000247 215.079754 
C 363.178052 214.262864 362.06276 213.803875 360.9 213.803875 
C 359.73724 213.803875 358.621948 214.262864 357.799753 215.079754 
C 356.977558 215.896645 356.515588 217.004742 356.515588 218.16 
C 356.515588 219.315258 356.977558 220.423355 357.799753 221.240246 
C 358.621948 222.057136 359.73724 222.516125 360.9 222.516125 
z
" clip-path="url(#p159ebbfd0e)" style="fill: #0871b7; fill-opacity: 0.752941; stroke: #231f20; stroke-linejoin: miter"/>
   </g>
   <g id="patch_26">
    <path d="M 221.4 83.916125 
C 222.56276 83.916125 223.678052 83.457136 224.500247 82.640246 
C 225.322442 81.823355 225.784412 80.715258 225.784412 79.56 
C 225.784412 78.404742 225.322442 77.296645 224.500247 76.479754 
C 223.678052 75.662864 222.56276 75.203875 221.4 75.203875 
C 220.23724 75.203875 219.121948 75.662864 218.299753 76.479754 
C 217.477558 77.296645 217.015588 78.404742 217.015588 79.56 
C 217.015588 80.715258 217.477558 81.823355 218.299753 82.640246 
C 219.121948 83.457136 220.23724 83.916125 221.4 83.916125 
z
" clip-path="url(#p159ebbfd0e)" style="fill: #0871b7; fill-opacity: 0.752941; stroke: #231f20; stroke-linejoin: miter"/>
   </g>
   <g id="patch_27">
    <path d="M 314.4 319.47 
C 316.778304 319.47 319.059518 318.531186 320.741233 316.860321 
C 322.422947 315.189457 323.367857 312.92296 323.367857 310.56 
C 323.367857 308.19704 322.422947 305.930543 320.741233 304.259679 
C 319.059518 302.588814 316.778304 301.65 314.4 301.65 
C 312.021696 301.65 309.740482 302.588814 308.058767 304.259679 
C 306.377053 305.930543 305.432143 308.19704 305.432143 310.56 
C 305.432143 312.92296 306.377053 315.189457 308.058767 316.860321 
C 309.740482 318.531186 312.021696 319.47 314.4 319.47 
z
" clip-path="url(#p159ebbfd0e)" style="fill: #0871b7; fill-opacity: 0.752941; stroke: #231f20; stroke-linejoin: miter"/>
   </g>
   <g id="patch_28">
    <path d="M 128.4 134.67 
C 130.778304 134.67 133.059518 133.731186 134.741233 132.060321 
C 136.422947 130.389457 137.367857 128.12296 137.367857 125.76 
C 137.367857 123.39704 136.422947 121.130543 134.741233 119.459679 
C 133.059518 117.788814 130.778304 116.85 128.4 116.85 
C 126.021696 116.85 123.740482 117.788814 122.058767 119.459679 
C 120.377053 121.130543 119.432143 123.39704 119.432143 125.76 
C 119.432143 128.12296 120.377053 130.389457 122.058767 132.060321 
C 123.740482 133.731186 126.021696 134.67 128.4 134.67 
z
" clip-path="url(#p159ebbfd0e)" style="fill: #0871b7; fill-opacity: 0.752941; stroke: #231f20; stroke-linejoin: miter"/>
   </g>
   <g id="patch_29">
    <path d="M 314.4 134.67 
C 316.778304 134.67 319.059518 133.731186 320.741233 132.060321 
C 322.422947 130.389457 323.367857 128.12296 323.367857 125.76 
C 323.367857 123.39704 322.422947 121.130543 320.741233 119.459679 
C 319.059518 117.788814 316.778304 116.85 314.4 116.85 
C 312.021696 116.85 309.740482 117.788814 308.058767 119.459679 
C 306.377053 121.130543 305.432143 123.39704 305.432143 125.76 
C 305.432143 128.12296 306.377053 130.389457 308.058767 132.060321 
C 309.740482 133.731186 312.021696 134.67 314.4 134.67 
z
" clip-path="url(#p159ebbfd0e)" style="fill: #0871b7; fill-opacity: 0.752941; stroke: #231f20; stroke-linejoin: miter"/>
   </g>
   <g id="patch_30">
    <path d="M 128.4 319.47 
C 130.778304 319.47 133.059518 318.531186 134.741233 316.860321 
C 136.422947 315.189457 137.367857 312.92296 137.367857 310.56 
C 137.367857 308.19704 136.422947 305.930543 134.741233 304.259679 
C 133.059518 302.588814 130.778304 301.65 128.4 301.65 
C 126.021696 301.65 123.740482 302.588814 122.058767 304.259679 
C 120.377053 305.930543 119.432143 308.19704 119.432143 310.56 
C 119.432143 312.92296 120.377053 315.189457 122.058767 316.860321 
C 123.740482 318.531186 126.021696 319.47 128.4 319.47 
z
" clip-path="url(#p159ebbfd0e)" style="fill: #0871b7; fill-opacity: 0.752941; stroke: #231f20; stroke-linejoin: miter"/>
   </g>
   <g id="patch_31">
    <path d="M 314.4 267.510161 
C 315.240857 267.510161 316.047388 267.17824 316.641964 266.5875 
C 317.23654 265.99676 317.570616 265.195432 317.570616 264.36 
C 317.570616 263.524568 317.23654 262.72324 316.641964 262.1325 
C 316.047388 261.54176 315.240857 261.209839 314.4 261.209839 
C 313.559143 261.209839 312.752612 261.54176 312.158036 262.1325 
C 311.56346 262.72324 311.229384 263.524568 311.229384 264.36 
C 311.229384 265.195432 311.56346 265.99676 312.158036 266.5875 
C 312.752612 267.17824 313.559143 267.510161 314.4 267.510161 
z
" clip-path="url(#p159ebbfd0e)" style="fill: #0871b7; fill-opacity: 0.752941; stroke: #231f20; stroke-linejoin: miter"/>
   </g>
   <g id="patch_32">
    <path d="M 174.9 128.910161 
C 175.740857 128.910161 176.547388 128.57824 177.141964 127.9875 
C 177.73654 127.39676 178.070616 126.595432 178.070616 125.76 
C 178.070616 124.924568 177.73654 124.12324 177.141964 123.5325 
C 176.547388 122.94176 175.740857 122.609839 174.9 122.609839 
C 174.059143 122.609839 173.252612 122.94176 172.658036 123.5325 
C 172.06346 124.12324 171.729384 124.924568 171.729384 125.76 
C 171.729384 126.595432 172.06346 127.39676 172.658036 127.9875 
C 173.252612 128.57824 174.059143 128.910161 174.9 128.910161 
z
" clip-path="url(#p159ebbfd0e)" style="fill: #0871b7; fill-opacity: 0.752941; stroke: #231f20; stroke-linejoin: miter"/>
   </g>
   <g id="patch_33">
    <path d="M 314.4 175.110161 
C 315.240857 175.110161 316.047388 174.77824 316.641964 174.1875 
C 317.23654 173.59676 317.570616 172.795432 317.570616 171.96 
C 317.570616 171.124568 317.23654 170.32324 316.641964 169.7325 
C 316.047388 169.14176 315.240857 168.809839 314.4 168.809839 
C 313.559143 168.809839 312.752612 169.14176 312.158036 169.7325 
C 311.56346 170.32324 311.229384 171.124568 311.229384 171.96 
C 311.229384 172.795432 311.56346 173.59676 312.158036 174.1875 
C 312.752612 174.77824 313.559143 175.110161 314.4 175.110161 
z
" clip-path="url(#p159ebbfd0e)" style="fill: #0871b7; fill-opacity: 0.752941; stroke: #231f20; stroke-linejoin: miter"/>
   </g>
   <g id="patch_34">
    <path d="M 267.9 128.910161 
C 268.740857 128.910161 269.547388 128.57824 270.141964 127.9875 
C 270.73654 127.39676 271.070616 126.595432 271.070616 125.76 
C 271.070616 124.924568 270.73654 124.12324 270.141964 123.5325 
C 269.547388 122.94176 268.740857 122.609839 267.9 122.609839 
C 267.059143 122.609839 266.252612 122.94176 265.658036 123.5325 
C 265.06346 124.12324 264.729384 124.924568 264.729384 125.76 
C 264.729384 126.595432 265.06346 127.39676 265.658036 127.9875 
C 266.252612 128.57824 267.059143 128.910161 267.9 128.910161 
z
" clip-path="url(#p159ebbfd0e)" style="fill: #0871b7; fill-opacity: 0.752941; stroke: #231f20; stroke-linejoin: miter"/>
   </g>
   <g id="patch_35">
    <path d="M 267.9 313.710161 
C 268.740857 313.710161 269.547388 313.37824 270.141964 312.7875 
C 270.73654 312.19676 271.070616 311.395432 271.070616 310.56 
C 271.070616 309.724568 270.73654 308.92324 270.141964 308.3325 
C 269.547388 307.74176 268.740857 307.409839 267.9 307.409839 
C 267.059143 307.409839 266.252612 307.74176 265.658036 308.3325 
C 265.06346 308.92324 264.729384 309.724568 264.729384 310.56 
C 264.729384 311.395432 265.06346 312.19676 265.658036 312.7875 
C 266.252612 313.37824 267.059143 313.710161 267.9 313.710161 
z
" clip-path="url(#p159ebbfd0e)" style="fill: #0871b7; fill-opacity: 0.752941; stroke: #231f20; stroke-linejoin: miter"/>
   </g>
   <g id="patch_36">
    <path d="M 128.4 175.110161 
C 129.240857 175.110161 130.047388 174.77824 130.641964 174.1875 
C 131.23654 173.59676 131.570616 172.795432 131.570616 171.96 
C 131.570616 171.124568 131.23654 170.32324 130.641964 169.7325 
C 130.047388 169.14176 129.240857 168.809839 128.4 168.809839 
C 127.559143 168.809839 126.752612 169.14176 126.158036 169.7325 
C 125.56346 170.32324 125.229384 171.124568 125.229384 171.96 
C 125.229384 172.795432 125.56346 173.59676 126.158036 174.1875 
C 126.752612 174.77824 127.559143 175.110161 128.4 175.110161 
z
" clip-path="url(#p159ebbfd0e)" style="fill: #0871b7; fill-opacity: 0.752941; stroke: #231f20; stroke-linejoin: miter"/>
   </g>
   <g id="patch_37">
    <path d="M 174.9 313.710161 
C 175.740857 313.710161 176.547388 313.37824 177.141964 312.7875 
C 177.73654 312.19676 178.070616 311.395432 178.070616 310.56 
C 178.070616 309.724568 177.73654 308.92324 177.141964 308.3325 
C 176.547388 307.74176 175.740857 307.409839 174.9 307.409839 
C 174.059143 307.409839 173.252612 307.74176 172.658036 308.3325 
C 172.06346 308.92324 171.729384 309.724568 171.729384 310.56 
C 171.729384 311.395432 172.06346 312.19676 172.658036 312.7875 
C 173.252612 313.37824 174.059143 313.710161 174.9 313.710161 
z
" clip-path="url(#p159ebbfd0e)" style="fill: #0871b7; fill-opacity: 0.752941; stroke: #231f20; stroke-linejoin: miter"/>
   </g>
   <g id="patch_38">
    <path d="M 128.4 267.510161 
C 129.240857 267.510161 130.047388 267.17824 130.641964 266.5875 
C 131.23654 265.99676 131.570616 265.195432 131.570616 264.36 
C 131.570616 263.524568 131.23654 262.72324 130.641964 262.1325 
C 130.047388 261.54176 129.240857 261.209839 128.4 261.209839 
C 127.559143 261.209839 126.752612 261.54176 126.158036 262.1325 
C 125.56346 262.72324 125.229384 263.524568 125.229384 264.36 
C 125.229384 265.195432 125.56346 265.99676 126.158036 266.5875 
C 126.752612 267.17824 127.559143 267.510161 128.4 267.510161 
z
" clip-path="url(#p159ebbfd0e)" style="fill: #0871b7; fill-opacity: 0.752941; stroke: #231f20; stroke-linejoin: miter"/>
   </g>
   <g id="patch_39">
    <path d="M 221.4 320.55851 
C 224.068854 320.55851 226.628758 319.505004 228.515923 317.630014 
C 230.403088 315.755024 231.463435 313.211636 231.463435 310.56 
C 231.463435 307.908364 230.403088 305.364976 228.515923 303.489986 
C 226.628758 301.614996 224.068854 300.56149 221.4 300.56149 
C 218.731146 300.56149 216.171242 301.614996 214.284077 303.489986 
C 212.396912 305.364976 211.336565 307.908364 211.336565 310.56 
C 211.336565 313.211636 212.396912 315.755024 214.284077 317.630014 
C 216.171242 319.505004 218.731146 320.55851 221.4 320.55851 
z
" clip-path="url(#p159ebbfd0e)" style="fill: #0871b7; fill-opacity: 0.752941; stroke: #231f20; stroke-linejoin: miter"/>
   </g>
   <g id="patch_40">
    <path d="M 128.4 228.15851 
C 131.068854 228.15851 133.628758 227.105004 135.515923 225.230014 
C 137.403088 223.355024 138.463435 220.811636 138.463435 218.16 
C 138.463435 215.508364 137.403088 212.964976 135.515923 211.089986 
C 133.628758 209.214996 131.068854 208.16149 128.4 208.16149 
C 125.731146 208.16149 123.171242 209.214996 121.284077 211.089986 
C 119.396912 212.964976 118.336565 215.508364 118.336565 218.16 
C 118.336565 220.811636 119.396912 223.355024 121.284077 225.230014 
C 123.171242 227.105004 125.731146 228.15851 128.4 228.15851 
z
" clip-path="url(#p159ebbfd0e)" style="fill: #0871b7; fill-opacity: 0.752941; stroke: #231f20; stroke-linejoin: miter"/>
   </g>
   <g id="patch_41">
    <path d="M 314.4 228.15851 
C 317.068854 228.15851 319.628758 227.105004 321.515923 225.230014 
C 323.403088 223.355024 324.463435 220.811636 324.463435 218.16 
C 324.463435 215.508364 323.403088 212.964976 321.515923 211.089986 
C 319.628758 209.214996 317.068854 208.16149 314.4 208.16149 
C 311.731146 208.16149 309.171242 209.214996 307.284077 211.089986 
C 305.396912 212.964976 304.336565 215.508364 304.336565 218.16 
C 304.336565 220.811636 305.396912 223.355024 307.284077 225.230014 
C 309.171242 227.105004 311.731146 228.15851 314.4 228.15851 
z
" clip-path="url(#p159ebbfd0e)" style="fill: #0871b7; fill-opacity: 0.752941; stroke: #231f20; stroke-linejoin: miter"/>
   </g>
   <g id="patch_42">
    <path d="M 221.4 135.75851 
C 224.068854 135.75851 226.628758 134.705004 228.515923 132.830014 
C 230.403088 130.955024 231.463435 128.411636 231.463435 125.76 
C 231.463435 123.108364 230.403088 120.564976 228.515923 118.689986 
C 226.628758 116.814996 224.068854 115.76149 221.4 115.76149 
C 218.731146 115.76149 216.171242 116.814996 214.284077 118.689986 
C 212.396912 120.564976 211.336565 123.108364 211.336565 125.76 
C 211.336565 128.411636 212.396912 130.955024 214.284077 132.830014 
C 216.171242 134.705004 218.731146 135.75851 221.4 135.75851 
z
" clip-path="url(#p159ebbfd0e)" style="fill: #0871b7; fill-opacity: 0.752941; stroke: #231f20; stroke-linejoin: miter"/>
   </g>
   <g id="patch_43">
    <path d="M 267.9 265.47375 
C 268.197288 265.47375 268.48244 265.356398 268.692654 265.14754 
C 268.902868 264.938682 269.020982 264.65537 269.020982 264.36 
C 269.020982 264.06463 268.902868 263.781318 268.692654 263.57246 
C 268.48244 263.363602 268.197288 263.24625 267.9 263.24625 
C 267.602712 263.24625 267.31756 263.363602 267.107346 263.57246 
C 266.897132 263.781318 266.779018 264.06463 266.779018 264.36 
C 266.779018 264.65537 266.897132 264.938682 267.107346 265.14754 
C 267.31756 265.356398 267.602712 265.47375 267.9 265.47375 
z
" clip-path="url(#p159ebbfd0e)" style="fill: #0871b7; fill-opacity: 0.752941; stroke: #231f20; stroke-linejoin: miter"/>
   </g>
   <g id="patch_44">
    <path d="M 174.9 173.07375 
C 175.197288 173.07375 175.48244 172.956398 175.692654 172.74754 
C 175.902868 172.538682 176.020982 172.25537 176.020982 171.96 
C 176.020982 171.66463 175.902868 171.381318 175.692654 171.17246 
C 175.48244 170.963602 175.197288 170.84625 174.9 170.84625 
C 174.602712 170.84625 174.31756 170.963602 174.107346 171.17246 
C 173.897132 171.381318 173.779018 171.66463 173.779018 171.96 
C 173.779018 172.25537 173.897132 172.538682 174.107346 172.74754 
C 174.31756 172.956398 174.602712 173.07375 174.9 173.07375 
z
" clip-path="url(#p159ebbfd0e)" style="fill: #0871b7; fill-opacity: 0.752941; stroke: #231f20; stroke-linejoin: miter"/>
   </g>
   <g id="patch_45">
    <path d="M 174.9 265.47375 
C 175.197288 265.47375 175.48244 265.356398 175.692654 265.14754 
C 175.902868 264.938682 176.020982 264.65537 176.020982 264.36 
C 176.020982 264.06463 175.902868 263.781318 175.692654 263.57246 
C 175.48244 263.363602 175.197288 263.24625 174.9 263.24625 
C 174.602712 263.24625 174.31756 263.363602 174.107346 263.57246 
C 173.897132 263.781318 173.779018 264.06463 173.779018 264.36 
C 173.779018 264.65537 173.897132 264.938682 174.107346 265.14754 
C 174.31756 265.356398 174.602712 265.47375 174.9 265.47375 
z
" clip-path="url(#p159ebbfd0e)" style="fill: #0871b7; fill-opacity: 0.752941; stroke: #231f20; stroke-linejoin: miter"/>
   </g>
   <g id="patch_46">
    <path d="M 267.9 173.07375 
C 268.197288 173.07375 268.48244 172.956398 268.692654 172.74754 
C 268.902868 172.538682 269.020982 172.25537 269.020982 171.96 
C 269.020982 171.66463 268.902868 171.381318 268.692654 171.17246 
C 268.48244 170.963602 268.197288 170.84625 267.9 170.84625 
C 267.602712 170.84625 267.31756 170.963602 267.107346 171.17246 
C 266.897132 171.381318 266.779018 171.66463 266.779018 171.96 
C 266.779018 172.25537 266.897132 172.538682 267.107346 172.74754 
C 267.31756 172.956398 267.602712 173.07375 267.9 173.07375 
z
" clip-path="url(#p159ebbfd0e)" style="fill: #0871b7; fill-opacity: 0.752941; stroke: #231f20; stroke-linejoin: miter"/>
   </g>
   <g id="patch_47">
    <path d="M 221.4 267.895007 
C 222.343582 267.895007 223.248645 267.522536 223.915859 266.859627 
C 224.583072 266.196719 224.957962 265.297495 224.957962 264.36 
C 224.957962 263.422505 224.583072 262.523281 223.915859 261.860373 
C 223.248645 261.197464 222.343582 260.824993 221.4 260.824993 
C 220.456418 260.824993 219.551355 261.197464 218.884141 261.860373 
C 218.216928 262.523281 217.842038 263.422505 217.842038 264.36 
C 217.842038 265.297495 218.216928 266.196719 218.884141 266.859627 
C 219.551355 267.522536 220.456418 267.895007 221.4 267.895007 
z
" clip-path="url(#p159ebbfd0e)" style="fill: #0871b7; fill-opacity: 0.752941; stroke: #231f20; stroke-linejoin: miter"/>
   </g>
   <g id="patch_48">
    <path d="M 174.9 221.695007 
C 175.843582 221.695007 176.748645 221.322536 177.415859 220.659627 
C 178.083072 219.996719 178.457962 219.097495 178.457962 218.16 
C 178.457962 217.222505 178.083072 216.323281 177.415859 215.660373 
C 176.748645 214.997464 175.843582 214.624993 174.9 214.624993 
C 173.956418 214.624993 173.051355 214.997464 172.384141 215.660373 
C 171.716928 216.323281 171.342038 217.222505 171.342038 218.16 
C 171.342038 219.097495 171.716928 219.996719 172.384141 220.659627 
C 173.051355 221.322536 173.956418 221.695007 174.9 221.695007 
z
" clip-path="url(#p159ebbfd0e)" style="fill: #0871b7; fill-opacity: 0.752941; stroke: #231f20; stroke-linejoin: miter"/>
   </g>
   <g id="patch_49">
    <path d="M 267.9 221.695007 
C 268.843582 221.695007 269.748645 221.322536 270.415859 220.659627 
C 271.083072 219.996719 271.457962 219.097495 271.457962 218.16 
C 271.457962 217.222505 271.083072 216.323281 270.415859 215.660373 
C 269.748645 214.997464 268.843582 214.624993 267.9 214.624993 
C 266.956418 214.624993 266.051355 214.997464 265.384141 215.660373 
C 264.716928 216.323281 264.342038 217.222505 264.342038 218.16 
C 264.342038 219.097495 264.716928 219.996719 265.384141 220.659627 
C 266.051355 221.322536 266.956418 221.695007 267.9 221.695007 
z
" clip-path="url(#p159ebbfd0e)" style="fill: #0871b7; fill-opacity: 0.752941; stroke: #231f20; stroke-linejoin: miter"/>
   </g>
   <g id="patch_50">
    <path d="M 221.4 175.495007 
C 222.343582 175.495007 223.248645 175.122536 223.915859 174.459627 
C 224.583072 173.796719 224.957962 172.897495 224.957962 171.96 
C 224.957962 171.022505 224.583072 170.123281 223.915859 169.460373 
C 223.248645 168.797464 222.343582 168.424993 221.4 168.424993 
C 220.456418 168.424993 219.551355 168.797464 218.884141 169.460373 
C 218.216928 170.123281 217.842038 171.022505 217.842038 171.96 
C 217.842038 172.897495 218.216928 173.796719 218.884141 174.459627 
C 219.551355 175.122536 220.456418 175.495007 221.4 175.495007 
z
" clip-path="url(#p159ebbfd0e)" style="fill: #0871b7; fill-opacity: 0.752941; stroke: #231f20; stroke-linejoin: miter"/>
   </g>
   <g id="patch_51">
    <path d="M 221.4 229.38 
C 224.394901 229.38 227.267541 228.19779 229.385256 226.093738 
C 231.50297 223.989686 232.692857 221.135579 232.692857 218.16 
C 232.692857 215.184421 231.50297 212.330314 229.385256 210.226262 
C 227.267541 208.12221 224.394901 206.94 221.4 206.94 
C 218.405099 206.94 215.532459 208.12221 213.414744 210.226262 
C 211.29703 212.330314 210.107143 215.184421 210.107143 218.16 
C 210.107143 221.135579 211.29703 223.989686 213.414744 226.093738 
C 215.532459 228.19779 218.405099 229.38 221.4 229.38 
z
" clip-path="url(#p159ebbfd0e)" style="fill: #0871b7; fill-opacity: 0.752941; stroke: #231f20; stroke-linejoin: miter"/>
   </g>
  </g>
 </g>
 <defs>
  <clipPath id="p159ebbfd0e">
   <rect x="54" y="51.84" width="334.8" height="332.64"/>
  </clipPath>
 </defs>
</svg>
