<?xml version="1.0" encoding="utf-8" standalone="no"?>
<!DOCTYPE svg PUBLIC "-//W3C//DTD SVG 1.1//EN"
  "http://www.w3.org/Graphics/SVG/1.1/DTD/svg11.dtd">
<svg xmlns:xlink="http://www.w3.org/1999/xlink" width="432pt" height="432pt" viewBox="0 0 432 432" xmlns="http://www.w3.org/2000/svg" version="1.1">
 <metadata>
  <rdf:RDF xmlns:dc="http://purl.org/dc/elements/1.1/" xmlns:cc="http://creativecommons.org/ns#" xmlns:rdf="http://www.w3.org/1999/02/22-rdf-syntax-ns#">
   <cc:Work>
    <dc:type rdf:resource="http://purl.org/dc/dcmitype/StillImage"/>
    <dc:date>2025-03-02T17:37:36.767512</dc:date>
    <dc:format>image/svg+xml</dc:format>
    <dc:creator>
     <cc:Agent>
      <dc:title>Matplotlib v3.10.0, https://matplotlib.org/</dc:title>
     </cc:Agent>
    </dc:creator>
   </cc:Work>
  </rdf:RDF>
 </metadata>
 <defs>
  <style type="text/css">*{stroke-linejoin: round; stroke-linecap: butt}</style>
 </defs>
 <g id="figure_1">
  <g id="patch_1">
   <path d="M 0 432 
L 432 432 
L 432 0 
L 0 0 
z
" style="fill: #ffffff"/>
  </g>
  <g id="axes_1">
   <g id="patch_2">
    <path d="M 81.9 356.76 
L 360.9 356.76 
L 360.9 79.56 
L 81.9 79.56 
L 81.9 356.76 
z
" clip-path="url(#p4de4cbd934)" style="fill: none; stroke: #969696; stroke-width: 1.5; stroke-linejoin: miter"/>
   </g>
   <g id="patch_3">
    <path d="M 151.65 310.56 
C 157.815972 310.56 163.730232 308.126038 168.090233 303.794167 
C 172.450233 299.462295 174.9 293.586192 174.9 287.46 
C 174.9 281.333808 172.450233 275.457705 168.090233 271.125833 
C 163.730232 266.793962 157.815972 264.36 151.65 264.36 
C 145.484028 264.36 139.569768 266.793962 135.209767 271.125833 
C 130.849767 275.457705 128.4 281.333808 128.4 287.46 
C 128.4 293.586192 130.849767 299.462295 135.209767 303.794167 
C 139.569768 308.126038 145.484028 310.56 151.65 310.56 
z
" clip-path="url(#p4de4cbd934)" style="fill: #0871b7; fill-opacity: 0.752941; stroke: #231f20; stroke-linejoin: miter"/>
   </g>
   <g id="patch_4">
    <path d="M 291.15 310.56 
C 297.315972 310.56 303.230232 308.126038 307.590233 303.794167 
C 311.950233 299.462295 314.4 293.586192 314.4 287.46 
C 314.4 281.333808 311.950233 275.457705 307.590233 271.125833 
C 303.230232 266.793962 297.315972 264.36 291.15 264.36 
C 284.984028 264.36 279.069768 266.793962 274.709767 271.125833 
C 270.349767 275.457705 267.9 281.333808 267.9 287.46 
C 267.9 293.586192 270.349767 299.462295 274.709767 303.794167 
C 279.069768 308.126038 284.984028 310.56 291.15 310.56 
z
" clip-path="url(#p4de4cbd934)" style="fill: #0871b7; fill-opacity: 0.752941; stroke: #231f20; stroke-linejoin: miter"/>
   </g>
   <g id="patch_5">
    <path d="M 151.65 171.96 
C 157.815972 171.96 163.730232 169.526038 168.090233 165.194167 
C 172.450233 160.862295 174.9 154.986192 174.9 148.86 
C 174.9 142.733808 172.450233 136.857705 168.090233 132.525833 
C 163.730232 128.193962 157.815972 125.76 151.65 125.76 
C 145.484028 125.76 139.569768 128.193962 135.209767 132.525833 
C 130.849767 136.857705 128.4 142.733808 128.4 148.86 
C 128.4 154.986192 130.849767 160.862295 135.209767 165.194167 
C 139.569768 169.526038 145.484028 171.96 151.65 171.96 
z
" clip-path="url(#p4de4cbd934)" style="fill: #0871b7; fill-opacity: 0.752941; stroke: #231f20; stroke-linejoin: miter"/>
   </g>
   <g id="patch_6">
    <path d="M 291.15 171.96 
C 297.315972 171.96 303.230232 169.526038 307.590233 165.194167 
C 311.950233 160.862295 314.4 154.986192 314.4 148.86 
C 314.4 142.733808 311.950233 136.857705 307.590233 132.525833 
C 303.230232 128.193962 297.315972 125.76 291.15 125.76 
C 284.984028 125.76 279.069768 128.193962 274.709767 132.525833 
C 270.349767 136.857705 267.9 142.733808 267.9 148.86 
C 267.9 154.986192 270.349767 160.862295 274.709767 165.194167 
C 279.069768 169.526038 284.984028 171.96 291.15 171.96 
z
" clip-path="url(#p4de4cbd934)" style="fill: #0871b7; fill-opacity: 0.752941; stroke: #231f20; stroke-linejoin: miter"/>
   </g>
   <g id="patch_7">
    <path d="M 221.4 303.794167 
C 225.760001 303.794167 229.942014 302.073096 233.025 299.01 
C 236.107986 295.946904 237.840233 291.791872 237.840233 287.46 
C 237.840233 283.128128 236.107986 278.973096 233.025 275.91 
C 229.942014 272.846904 225.760001 271.125833 221.4 271.125833 
C 217.039999 271.125833 212.857986 272.846904 209.775 275.91 
C 206.692014 278.973096 204.959767 283.128128 204.959767 287.46 
C 204.959767 291.791872 206.692014 295.946904 209.775 299.01 
C 212.857986 302.073096 217.039999 303.794167 221.4 303.794167 
z
" clip-path="url(#p4de4cbd934)" style="fill: #b74e08; fill-opacity: 0.752941; stroke: #231f20; stroke-linejoin: miter"/>
   </g>
   <g id="patch_8">
    <path d="M 151.65 234.494167 
C 156.010001 234.494167 160.192014 232.773096 163.275 229.71 
C 166.357986 226.646904 168.090233 222.491872 168.090233 218.16 
C 168.090233 213.828128 166.357986 209.673096 163.275 206.61 
C 160.192014 203.546904 156.010001 201.825833 151.65 201.825833 
C 147.289999 201.825833 143.107986 203.546904 140.025 206.61 
C 136.942014 209.673096 135.209767 213.828128 135.209767 218.16 
C 135.209767 222.491872 136.942014 226.646904 140.025 229.71 
C 143.107986 232.773096 147.289999 234.494167 151.65 234.494167 
z
" clip-path="url(#p4de4cbd934)" style="fill: #b74e08; fill-opacity: 0.752941; stroke: #231f20; stroke-linejoin: miter"/>
   </g>
   <g id="patch_9">
    <path d="M 291.15 234.494167 
C 295.510001 234.494167 299.692014 232.773096 302.775 229.71 
C 305.857986 226.646904 307.590233 222.491872 307.590233 218.16 
C 307.590233 213.828128 305.857986 209.673096 302.775 206.61 
C 299.692014 203.546904 295.510001 201.825833 291.15 201.825833 
C 286.789999 201.825833 282.607986 203.546904 279.525 206.61 
C 276.442014 209.673096 274.709767 213.828128 274.709767 218.16 
C 274.709767 222.491872 276.442014 226.646904 279.525 229.71 
C 282.607986 232.773096 286.789999 234.494167 291.15 234.494167 
z
" clip-path="url(#p4de4cbd934)" style="fill: #b74e08; fill-opacity: 0.752941; stroke: #231f20; stroke-linejoin: miter"/>
   </g>
   <g id="patch_10">
    <path d="M 221.4 165.194167 
C 225.760001 165.194167 229.942014 163.473096 233.025 160.41 
C 236.107986 157.346904 237.840233 153.191872 237.840233 148.86 
C 237.840233 144.528128 236.107986 140.373096 233.025 137.31 
C 229.942014 134.246904 225.760001 132.525833 221.4 132.525833 
C 217.039999 132.525833 212.857986 134.246904 209.775 137.31 
C 206.692014 140.373096 204.959767 144.528128 204.959767 148.86 
C 204.959767 153.191872 206.692014 157.346904 209.775 160.41 
C 212.857986 163.473096 217.039999 165.194167 221.4 165.194167 
z
" clip-path="url(#p4de4cbd934)" style="fill: #b74e08; fill-opacity: 0.752941; stroke: #231f20; stroke-linejoin: miter"/>
   </g>
   <g id="patch_11">
    <path d="M 221.4 229.71 
C 224.482986 229.71 227.440116 228.493019 229.620116 226.327083 
C 231.800117 224.161148 233.025 221.223096 233.025 218.16 
C 233.025 215.096904 231.800117 212.158852 229.620116 209.992917 
C 227.440116 207.826981 224.482986 206.61 221.4 206.61 
C 218.317014 206.61 215.359884 207.826981 213.179884 209.992917 
C 210.999883 212.158852 209.775 215.096904 209.775 218.16 
C 209.775 221.223096 210.999883 224.161148 213.179884 226.327083 
C 215.359884 228.493019 218.317014 229.71 221.4 229.71 
z
" clip-path="url(#p4de4cbd934)" style="fill: #0871b7; fill-opacity: 0.752941; stroke: #231f20; stroke-linejoin: miter"/>
   </g>
  </g>
 </g>
 <defs>
  <clipPath id="p4de4cbd934">
   <rect x="54" y="51.84" width="334.8" height="332.64"/>
  </clipPath>
 </defs>
</svg>
