<?xml version="1.0" encoding="utf-8" standalone="no"?>
<!DOCTYPE svg PUBLIC "-//W3C//DTD SVG 1.1//EN"
  "http://www.w3.org/Graphics/SVG/1.1/DTD/svg11.dtd">
<svg xmlns:xlink="http://www.w3.org/1999/xlink" width="432pt" height="432pt" viewBox="0 0 432 432" xmlns="http://www.w3.org/2000/svg" version="1.1">
 <metadata>
  <rdf:RDF xmlns:dc="http://purl.org/dc/elements/1.1/" xmlns:cc="http://creativecommons.org/ns#" xmlns:rdf="http://www.w3.org/1999/02/22-rdf-syntax-ns#">
   <cc:Work>
    <dc:type rdf:resource="http://purl.org/dc/dcmitype/StillImage"/>
    <dc:date>2025-03-02T17:37:37.251886</dc:date>
    <dc:format>image/svg+xml</dc:format>
    <dc:creator>
     <cc:Agent>
      <dc:title>Matplotlib v3.10.0, https://matplotlib.org/</dc:title>
     </cc:Agent>
    </dc:creator>
   </cc:Work>
  </rdf:RDF>
 </metadata>
 <defs>
  <style type="text/css">*{stroke-linejoin: round; stroke-linecap: butt}</style>
 </defs>
 <g id="figure_1">
  <g id="patch_1">
   <path d="M 0 432 
L 432 432 
L 432 0 
L 0 0 
z
" style="fill: #ffffff"/>
  </g>
  <g id="axes_1">
   <g id="patch_2">
    <path d="M 81.9 356.76 
L 360.9 356.76 
L 360.9 79.56 
L 81.9 79.56 
L 81.9 356.76 
z
" clip-path="url(#p3fe8ec9226)" style="fill: none; stroke: #969696; stroke-width: 1.5; stroke-linejoin: miter"/>
   </g>
   <g id="patch_3">
    <path d="M 105.15 348.099 
C 109.004133 348.099 112.700929 346.577616 115.426213 343.869915 
C 118.151496 341.162214 119.68276 337.489268 119.68276 333.66 
C 119.68276 329.830732 118.151496 326.157786 115.426213 323.450085 
C 112.700929 320.742384 109.004133 319.221 105.15 319.221 
C 101.295867 319.221 97.599071 320.742384 94.873787 323.450085 
C 92.148504 326.157786 90.61724 329.830732 90.61724 333.66 
C 90.61724 337.489268 92.148504 341.162214 94.873787 343.869915 
C 97.599071 346.577616 101.295867 348.099 105.15 348.099 
z
" clip-path="url(#p3fe8ec9226)" style="fill: #0871b7; fill-opacity: 0.752941; stroke: #231f20; stroke-linejoin: miter"/>
   </g>
   <g id="patch_4">
    <path d="M 337.65 117.099 
C 341.504133 117.099 345.200929 115.577616 347.926213 112.869915 
C 350.651496 110.162214 352.18276 106.489268 352.18276 102.66 
C 352.18276 98.830732 350.651496 95.157786 347.926213 92.450085 
C 345.200929 89.742384 341.504133 88.221 337.65 88.221 
C 333.795867 88.221 330.099071 89.742384 327.373787 92.450085 
C 324.648504 95.157786 323.11724 98.830732 323.11724 102.66 
C 323.11724 106.489268 324.648504 110.162214 327.373787 112.869915 
C 330.099071 115.577616 333.795867 117.099 337.65 117.099 
z
" clip-path="url(#p3fe8ec9226)" style="fill: #0871b7; fill-opacity: 0.752941; stroke: #231f20; stroke-linejoin: miter"/>
   </g>
   <g id="patch_5">
    <path d="M 337.65 348.099 
C 341.504133 348.099 345.200929 346.577616 347.926213 343.869915 
C 350.651496 341.162214 352.18276 337.489268 352.18276 333.66 
C 352.18276 329.830732 350.651496 326.157786 347.926213 323.450085 
C 345.200929 320.742384 341.504133 319.221 337.65 319.221 
C 333.795867 319.221 330.099071 320.742384 327.373787 323.450085 
C 324.648504 326.157786 323.11724 329.830732 323.11724 333.66 
C 323.11724 337.489268 324.648504 341.162214 327.373787 343.869915 
C 330.099071 346.577616 333.795867 348.099 337.65 348.099 
z
" clip-path="url(#p3fe8ec9226)" style="fill: #0871b7; fill-opacity: 0.752941; stroke: #231f20; stroke-linejoin: miter"/>
   </g>
   <g id="patch_6">
    <path d="M 105.15 117.099 
C 109.004133 117.099 112.700929 115.577616 115.426213 112.869915 
C 118.151496 110.162214 119.68276 106.489268 119.68276 102.66 
C 119.68276 98.830732 118.151496 95.157786 115.426213 92.450085 
C 112.700929 89.742384 109.004133 88.221 105.15 88.221 
C 101.295867 88.221 97.599071 89.742384 94.873787 92.450085 
C 92.148504 95.157786 90.61724 98.830732 90.61724 102.66 
C 90.61724 106.489268 92.148504 110.162214 94.873787 112.869915 
C 97.599071 115.577616 101.295867 117.099 105.15 117.099 
z
" clip-path="url(#p3fe8ec9226)" style="fill: #0871b7; fill-opacity: 0.752941; stroke: #231f20; stroke-linejoin: miter"/>
   </g>
   <g id="patch_7">
    <path d="M 128.4 361.494263 
C 135.829666 361.494263 142.956033 358.56147 148.2096 353.341796 
C 153.463167 348.122123 156.415005 341.041733 156.415005 333.66 
C 156.415005 326.278267 153.463167 319.197877 148.2096 313.978204 
C 142.956033 308.75853 135.829666 305.825737 128.4 305.825737 
C 120.970334 305.825737 113.843967 308.75853 108.5904 313.978204 
C 103.336833 319.197877 100.384995 326.278267 100.384995 333.66 
C 100.384995 341.041733 103.336833 348.122123 108.5904 353.341796 
C 113.843967 358.56147 120.970334 361.494263 128.4 361.494263 
z
" clip-path="url(#p3fe8ec9226)" style="fill: #b74e08; fill-opacity: 0.752941; stroke: #231f20; stroke-linejoin: miter"/>
   </g>
   <g id="patch_8">
    <path d="M 314.4 361.494263 
C 321.829666 361.494263 328.956033 358.56147 334.2096 353.341796 
C 339.463167 348.122123 342.415005 341.041733 342.415005 333.66 
C 342.415005 326.278267 339.463167 319.197877 334.2096 313.978204 
C 328.956033 308.75853 321.829666 305.825737 314.4 305.825737 
C 306.970334 305.825737 299.843967 308.75853 294.5904 313.978204 
C 289.336833 319.197877 286.384995 326.278267 286.384995 333.66 
C 286.384995 341.041733 289.336833 348.122123 294.5904 353.341796 
C 299.843967 358.56147 306.970334 361.494263 314.4 361.494263 
z
" clip-path="url(#p3fe8ec9226)" style="fill: #b74e08; fill-opacity: 0.752941; stroke: #231f20; stroke-linejoin: miter"/>
   </g>
   <g id="patch_9">
    <path d="M 105.15 338.394263 
C 112.579666 338.394263 119.706033 335.46147 124.9596 330.241796 
C 130.213167 325.022123 133.165005 317.941733 133.165005 310.56 
C 133.165005 303.178267 130.213167 296.097877 124.9596 290.878204 
C 119.706033 285.65853 112.579666 282.725737 105.15 282.725737 
C 97.720334 282.725737 90.593967 285.65853 85.3404 290.878204 
C 80.086833 296.097877 77.134995 303.178267 77.134995 310.56 
C 77.134995 317.941733 80.086833 325.022123 85.3404 330.241796 
C 90.593967 335.46147 97.720334 338.394263 105.15 338.394263 
z
" clip-path="url(#p3fe8ec9226)" style="fill: #b74e08; fill-opacity: 0.752941; stroke: #231f20; stroke-linejoin: miter"/>
   </g>
   <g id="patch_10">
    <path d="M 337.65 338.394263 
C 345.079666 338.394263 352.206033 335.46147 357.4596 330.241796 
C 362.713167 325.022123 365.665005 317.941733 365.665005 310.56 
C 365.665005 303.178267 362.713167 296.097877 357.4596 290.878204 
C 352.206033 285.65853 345.079666 282.725737 337.65 282.725737 
C 330.220334 282.725737 323.093967 285.65853 317.8404 290.878204 
C 312.586833 296.097877 309.634995 303.178267 309.634995 310.56 
C 309.634995 317.941733 312.586833 325.022123 317.8404 330.241796 
C 323.093967 335.46147 330.220334 338.394263 337.65 338.394263 
z
" clip-path="url(#p3fe8ec9226)" style="fill: #b74e08; fill-opacity: 0.752941; stroke: #231f20; stroke-linejoin: miter"/>
   </g>
   <g id="patch_11">
    <path d="M 105.15 153.594263 
C 112.579666 153.594263 119.706033 150.66147 124.9596 145.441796 
C 130.213167 140.222123 133.165005 133.141733 133.165005 125.76 
C 133.165005 118.378267 130.213167 111.297877 124.9596 106.078204 
C 119.706033 100.85853 112.579666 97.925737 105.15 97.925737 
C 97.720334 97.925737 90.593967 100.85853 85.3404 106.078204 
C 80.086833 111.297877 77.134995 118.378267 77.134995 125.76 
C 77.134995 133.141733 80.086833 140.222123 85.3404 145.441796 
C 90.593967 150.66147 97.720334 153.594263 105.15 153.594263 
z
" clip-path="url(#p3fe8ec9226)" style="fill: #b74e08; fill-opacity: 0.752941; stroke: #231f20; stroke-linejoin: miter"/>
   </g>
   <g id="patch_12">
    <path d="M 128.4 130.494263 
C 135.829666 130.494263 142.956033 127.56147 148.2096 122.341796 
C 153.463167 117.122123 156.415005 110.041733 156.415005 102.66 
C 156.415005 95.278267 153.463167 88.197877 148.2096 82.978204 
C 142.956033 77.75853 135.829666 74.825737 128.4 74.825737 
C 120.970334 74.825737 113.843967 77.75853 108.5904 82.978204 
C 103.336833 88.197877 100.384995 95.278267 100.384995 102.66 
C 100.384995 110.041733 103.336833 117.122123 108.5904 122.341796 
C 113.843967 127.56147 120.970334 130.494263 128.4 130.494263 
z
" clip-path="url(#p3fe8ec9226)" style="fill: #b74e08; fill-opacity: 0.752941; stroke: #231f20; stroke-linejoin: miter"/>
   </g>
   <g id="patch_13">
    <path d="M 337.65 153.594263 
C 345.079666 153.594263 352.206033 150.66147 357.4596 145.441796 
C 362.713167 140.222123 365.665005 133.141733 365.665005 125.76 
C 365.665005 118.378267 362.713167 111.297877 357.4596 106.078204 
C 352.206033 100.85853 345.079666 97.925737 337.65 97.925737 
C 330.220334 97.925737 323.093967 100.85853 317.8404 106.078204 
C 312.586833 111.297877 309.634995 118.378267 309.634995 125.76 
C 309.634995 133.141733 312.586833 140.222123 317.8404 145.441796 
C 323.093967 150.66147 330.220334 153.594263 337.65 153.594263 
z
" clip-path="url(#p3fe8ec9226)" style="fill: #b74e08; fill-opacity: 0.752941; stroke: #231f20; stroke-linejoin: miter"/>
   </g>
   <g id="patch_14">
    <path d="M 314.4 130.494263 
C 321.829666 130.494263 328.956033 127.56147 334.2096 122.341796 
C 339.463167 117.122123 342.415005 110.041733 342.415005 102.66 
C 342.415005 95.278267 339.463167 88.197877 334.2096 82.978204 
C 328.956033 77.75853 321.829666 74.825737 314.4 74.825737 
C 306.970334 74.825737 299.843967 77.75853 294.5904 82.978204 
C 289.336833 88.197877 286.384995 95.278267 286.384995 102.66 
C 286.384995 110.041733 289.336833 117.122123 294.5904 122.341796 
C 299.843967 127.56147 306.970334 130.494263 314.4 130.494263 
z
" clip-path="url(#p3fe8ec9226)" style="fill: #b74e08; fill-opacity: 0.752941; stroke: #231f20; stroke-linejoin: miter"/>
   </g>
   <g id="patch_15">
    <path d="M 151.65 385.286076 
C 165.4303 385.286076 178.648051 379.846427 188.392195 370.165148 
C 198.136339 360.48387 203.61131 347.351395 203.61131 333.66 
C 203.61131 319.968605 198.136339 306.83613 188.392195 297.154852 
C 178.648051 287.473573 165.4303 282.033924 151.65 282.033924 
C 137.8697 282.033924 124.651949 287.473573 114.907805 297.154852 
C 105.163661 306.83613 99.68869 319.968605 99.68869 333.66 
C 99.68869 347.351395 105.163661 360.48387 114.907805 370.165148 
C 124.651949 379.846427 137.8697 385.286076 151.65 385.286076 
z
" clip-path="url(#p3fe8ec9226)" style="fill: #0871b7; fill-opacity: 0.752941; stroke: #231f20; stroke-linejoin: miter"/>
   </g>
   <g id="patch_16">
    <path d="M 291.15 385.286076 
C 304.9303 385.286076 318.148051 379.846427 327.892195 370.165148 
C 337.636339 360.48387 343.11131 347.351395 343.11131 333.66 
C 343.11131 319.968605 337.636339 306.83613 327.892195 297.154852 
C 318.148051 287.473573 304.9303 282.033924 291.15 282.033924 
C 277.3697 282.033924 264.151949 287.473573 254.407805 297.154852 
C 244.663661 306.83613 239.18869 319.968605 239.18869 333.66 
C 239.18869 347.351395 244.663661 360.48387 254.407805 370.165148 
C 264.151949 379.846427 277.3697 385.286076 291.15 385.286076 
z
" clip-path="url(#p3fe8ec9226)" style="fill: #0871b7; fill-opacity: 0.752941; stroke: #231f20; stroke-linejoin: miter"/>
   </g>
   <g id="patch_17">
    <path d="M 105.15 339.086076 
C 118.9303 339.086076 132.148051 333.646427 141.892195 323.965148 
C 151.636339 314.28387 157.11131 301.151395 157.11131 287.46 
C 157.11131 273.768605 151.636339 260.63613 141.892195 250.954852 
C 132.148051 241.273573 118.9303 235.833924 105.15 235.833924 
C 91.3697 235.833924 78.151949 241.273573 68.407805 250.954852 
C 58.663661 260.63613 53.18869 273.768605 53.18869 287.46 
C 53.18869 301.151395 58.663661 314.28387 68.407805 323.965148 
C 78.151949 333.646427 91.3697 339.086076 105.15 339.086076 
z
" clip-path="url(#p3fe8ec9226)" style="fill: #0871b7; fill-opacity: 0.752941; stroke: #231f20; stroke-linejoin: miter"/>
   </g>
   <g id="patch_18">
    <path d="M 105.15 200.486076 
C 118.9303 200.486076 132.148051 195.046427 141.892195 185.365148 
C 151.636339 175.68387 157.11131 162.551395 157.11131 148.86 
C 157.11131 135.168605 151.636339 122.03613 141.892195 112.354852 
C 132.148051 102.673573 118.9303 97.233924 105.15 97.233924 
C 91.3697 97.233924 78.151949 102.673573 68.407805 112.354852 
C 58.663661 122.03613 53.18869 135.168605 53.18869 148.86 
C 53.18869 162.551395 58.663661 175.68387 68.407805 185.365148 
C 78.151949 195.046427 91.3697 200.486076 105.15 200.486076 
z
" clip-path="url(#p3fe8ec9226)" style="fill: #0871b7; fill-opacity: 0.752941; stroke: #231f20; stroke-linejoin: miter"/>
   </g>
   <g id="patch_19">
    <path d="M 337.65 339.086076 
C 351.4303 339.086076 364.648051 333.646427 374.392195 323.965148 
C 384.136339 314.28387 389.61131 301.151395 389.61131 287.46 
C 389.61131 273.768605 384.136339 260.63613 374.392195 250.954852 
C 364.648051 241.273573 351.4303 235.833924 337.65 235.833924 
C 323.8697 235.833924 310.651949 241.273573 300.907805 250.954852 
C 291.163661 260.63613 285.68869 273.768605 285.68869 287.46 
C 285.68869 301.151395 291.163661 314.28387 300.907805 323.965148 
C 310.651949 333.646427 323.8697 339.086076 337.65 339.086076 
z
" clip-path="url(#p3fe8ec9226)" style="fill: #0871b7; fill-opacity: 0.752941; stroke: #231f20; stroke-linejoin: miter"/>
   </g>
   <g id="patch_20">
    <path d="M 337.65 200.486076 
C 351.4303 200.486076 364.648051 195.046427 374.392195 185.365148 
C 384.136339 175.68387 389.61131 162.551395 389.61131 148.86 
C 389.61131 135.168605 384.136339 122.03613 374.392195 112.354852 
C 364.648051 102.673573 351.4303 97.233924 337.65 97.233924 
C 323.8697 97.233924 310.651949 102.673573 300.907805 112.354852 
C 291.163661 122.03613 285.68869 135.168605 285.68869 148.86 
C 285.68869 162.551395 291.163661 175.68387 300.907805 185.365148 
C 310.651949 195.046427 323.8697 200.486076 337.65 200.486076 
z
" clip-path="url(#p3fe8ec9226)" style="fill: #0871b7; fill-opacity: 0.752941; stroke: #231f20; stroke-linejoin: miter"/>
   </g>
   <g id="patch_21">
    <path d="M 151.65 154.286076 
C 165.4303 154.286076 178.648051 148.846427 188.392195 139.165148 
C 198.136339 129.48387 203.61131 116.351395 203.61131 102.66 
C 203.61131 88.968605 198.136339 75.83613 188.392195 66.154852 
C 178.648051 56.473573 165.4303 51.033924 151.65 51.033924 
C 137.8697 51.033924 124.651949 56.473573 114.907805 66.154852 
C 105.163661 75.83613 99.68869 88.968605 99.68869 102.66 
C 99.68869 116.351395 105.163661 129.48387 114.907805 139.165148 
C 124.651949 148.846427 137.8697 154.286076 151.65 154.286076 
z
" clip-path="url(#p3fe8ec9226)" style="fill: #0871b7; fill-opacity: 0.752941; stroke: #231f20; stroke-linejoin: miter"/>
   </g>
   <g id="patch_22">
    <path d="M 291.15 154.286076 
C 304.9303 154.286076 318.148051 148.846427 327.892195 139.165148 
C 337.636339 129.48387 343.11131 116.351395 343.11131 102.66 
C 343.11131 88.968605 337.636339 75.83613 327.892195 66.154852 
C 318.148051 56.473573 304.9303 51.033924 291.15 51.033924 
C 277.3697 51.033924 264.151949 56.473573 254.407805 66.154852 
C 244.663661 75.83613 239.18869 88.968605 239.18869 102.66 
C 239.18869 116.351395 244.663661 129.48387 254.407805 139.165148 
C 264.151949 148.846427 277.3697 154.286076 291.15 154.286076 
z
" clip-path="url(#p3fe8ec9226)" style="fill: #0871b7; fill-opacity: 0.752941; stroke: #231f20; stroke-linejoin: miter"/>
   </g>
   <g id="patch_23">
    <path d="M 314.4 364.2165 
C 328.722272 364.2165 342.459869 358.562913 352.587244 348.500875 
C 362.71462 338.438837 368.404919 324.78987 368.404919 310.56 
C 368.404919 296.33013 362.71462 282.681163 352.587244 272.619125 
C 342.459869 262.557087 328.722272 256.9035 314.4 256.9035 
C 300.077728 256.9035 286.340131 262.557087 276.212756 272.619125 
C 266.08538 282.681163 260.395081 296.33013 260.395081 310.56 
C 260.395081 324.78987 266.08538 338.438837 276.212756 348.500875 
C 286.340131 358.562913 300.077728 364.2165 314.4 364.2165 
z
" clip-path="url(#p3fe8ec9226)" style="fill: #0871b7; fill-opacity: 0.752941; stroke: #231f20; stroke-linejoin: miter"/>
   </g>
   <g id="patch_24">
    <path d="M 128.4 179.4165 
C 142.722272 179.4165 156.459869 173.762913 166.587244 163.700875 
C 176.71462 153.638837 182.404919 139.98987 182.404919 125.76 
C 182.404919 111.53013 176.71462 97.881163 166.587244 87.819125 
C 156.459869 77.757087 142.722272 72.1035 128.4 72.1035 
C 114.077728 72.1035 100.340131 77.757087 90.212756 87.819125 
C 80.08538 97.881163 74.395081 111.53013 74.395081 125.76 
C 74.395081 139.98987 80.08538 153.638837 90.212756 163.700875 
C 100.340131 173.762913 114.077728 179.4165 128.4 179.4165 
z
" clip-path="url(#p3fe8ec9226)" style="fill: #0871b7; fill-opacity: 0.752941; stroke: #231f20; stroke-linejoin: miter"/>
   </g>
   <g id="patch_25">
    <path d="M 314.4 179.4165 
C 328.722272 179.4165 342.459869 173.762913 352.587244 163.700875 
C 362.71462 153.638837 368.404919 139.98987 368.404919 125.76 
C 368.404919 111.53013 362.71462 97.881163 352.587244 87.819125 
C 342.459869 77.757087 328.722272 72.1035 314.4 72.1035 
C 300.077728 72.1035 286.340131 77.757087 276.212756 87.819125 
C 266.08538 97.881163 260.395081 111.53013 260.395081 125.76 
C 260.395081 139.98987 266.08538 153.638837 276.212756 163.700875 
C 286.340131 173.762913 300.077728 179.4165 314.4 179.4165 
z
" clip-path="url(#p3fe8ec9226)" style="fill: #0871b7; fill-opacity: 0.752941; stroke: #231f20; stroke-linejoin: miter"/>
   </g>
   <g id="patch_26">
    <path d="M 128.4 364.2165 
C 142.722272 364.2165 156.459869 358.562913 166.587244 348.500875 
C 176.71462 338.438837 182.404919 324.78987 182.404919 310.56 
C 182.404919 296.33013 176.71462 282.681163 166.587244 272.619125 
C 156.459869 262.557087 142.722272 256.9035 128.4 256.9035 
C 114.077728 256.9035 100.340131 262.557087 90.212756 272.619125 
C 80.08538 282.681163 74.395081 296.33013 74.395081 310.56 
C 74.395081 324.78987 80.08538 338.438837 90.212756 348.500875 
C 100.340131 358.562913 114.077728 364.2165 128.4 364.2165 
z
" clip-path="url(#p3fe8ec9226)" style="fill: #0871b7; fill-opacity: 0.752941; stroke: #231f20; stroke-linejoin: miter"/>
   </g>
   <g id="patch_27">
    <path d="M 337.65 340.304817 
C 357.921585 340.304817 377.365628 332.302792 391.699804 318.061095 
C 406.033979 303.819398 414.087965 284.500801 414.087965 264.36 
C 414.087965 244.219199 406.033979 224.900602 391.699804 210.658905 
C 377.365628 196.417208 357.921585 188.415183 337.65 188.415183 
C 317.378415 188.415183 297.934372 196.417208 283.600196 210.658905 
C 269.266021 224.900602 261.212035 244.219199 261.212035 264.36 
C 261.212035 284.500801 269.266021 303.819398 283.600196 318.061095 
C 297.934372 332.302792 317.378415 340.304817 337.65 340.304817 
z
" clip-path="url(#p3fe8ec9226)" style="fill: #b74e08; fill-opacity: 0.752941; stroke: #231f20; stroke-linejoin: miter"/>
   </g>
   <g id="patch_28">
    <path d="M 174.9 178.604817 
C 195.171585 178.604817 214.615628 170.602792 228.949804 156.361095 
C 243.283979 142.119398 251.337965 122.800801 251.337965 102.66 
C 251.337965 82.519199 243.283979 63.200602 228.949804 48.958905 
C 214.615628 34.717208 195.171585 26.715183 174.9 26.715183 
C 154.628415 26.715183 135.184372 34.717208 120.850196 48.958905 
C 106.516021 63.200602 98.462035 82.519199 98.462035 102.66 
C 98.462035 122.800801 106.516021 142.119398 120.850196 156.361095 
C 135.184372 170.602792 154.628415 178.604817 174.9 178.604817 
z
" clip-path="url(#p3fe8ec9226)" style="fill: #b74e08; fill-opacity: 0.752941; stroke: #231f20; stroke-linejoin: miter"/>
   </g>
   <g id="patch_29">
    <path d="M 267.9 409.604817 
C 288.171585 409.604817 307.615628 401.602792 321.949804 387.361095 
C 336.283979 373.119398 344.337965 353.800801 344.337965 333.66 
C 344.337965 313.519199 336.283979 294.200602 321.949804 279.958905 
C 307.615628 265.717208 288.171585 257.715183 267.9 257.715183 
C 247.628415 257.715183 228.184372 265.717208 213.850196 279.958905 
C 199.516021 294.200602 191.462035 313.519199 191.462035 333.66 
C 191.462035 353.800801 199.516021 373.119398 213.850196 387.361095 
C 228.184372 401.602792 247.628415 409.604817 267.9 409.604817 
z
" clip-path="url(#p3fe8ec9226)" style="fill: #b74e08; fill-opacity: 0.752941; stroke: #231f20; stroke-linejoin: miter"/>
   </g>
   <g id="patch_30">
    <path d="M 105.15 247.904817 
C 125.421585 247.904817 144.865628 239.902792 159.199804 225.661095 
C 173.533979 211.419398 181.587965 192.100801 181.587965 171.96 
C 181.587965 151.819199 173.533979 132.500602 159.199804 118.258905 
C 144.865628 104.017208 125.421585 96.015183 105.15 96.015183 
C 84.878415 96.015183 65.434372 104.017208 51.100196 118.258905 
C 36.766021 132.500602 28.712035 151.819199 28.712035 171.96 
C 28.712035 192.100801 36.766021 211.419398 51.100196 225.661095 
C 65.434372 239.902792 84.878415 247.904817 105.15 247.904817 
z
" clip-path="url(#p3fe8ec9226)" style="fill: #b74e08; fill-opacity: 0.752941; stroke: #231f20; stroke-linejoin: miter"/>
   </g>
   <g id="patch_31">
    <path d="M 174.9 409.604817 
C 195.171585 409.604817 214.615628 401.602792 228.949804 387.361095 
C 243.283979 373.119398 251.337965 353.800801 251.337965 333.66 
C 251.337965 313.519199 243.283979 294.200602 228.949804 279.958905 
C 214.615628 265.717208 195.171585 257.715183 174.9 257.715183 
C 154.628415 257.715183 135.184372 265.717208 120.850196 279.958905 
C 106.516021 294.200602 98.462035 313.519199 98.462035 333.66 
C 98.462035 353.800801 106.516021 373.119398 120.850196 387.361095 
C 135.184372 401.602792 154.628415 409.604817 174.9 409.604817 
z
" clip-path="url(#p3fe8ec9226)" style="fill: #b74e08; fill-opacity: 0.752941; stroke: #231f20; stroke-linejoin: miter"/>
   </g>
   <g id="patch_32">
    <path d="M 105.15 340.304817 
C 125.421585 340.304817 144.865628 332.302792 159.199804 318.061095 
C 173.533979 303.819398 181.587965 284.500801 181.587965 264.36 
C 181.587965 244.219199 173.533979 224.900602 159.199804 210.658905 
C 144.865628 196.417208 125.421585 188.415183 105.15 188.415183 
C 84.878415 188.415183 65.434372 196.417208 51.100196 210.658905 
C 36.766021 224.900602 28.712035 244.219199 28.712035 264.36 
C 28.712035 284.500801 36.766021 303.819398 51.100196 318.061095 
C 65.434372 332.302792 84.878415 340.304817 105.15 340.304817 
z
" clip-path="url(#p3fe8ec9226)" style="fill: #b74e08; fill-opacity: 0.752941; stroke: #231f20; stroke-linejoin: miter"/>
   </g>
   <g id="patch_33">
    <path d="M 337.65 247.904817 
C 357.921585 247.904817 377.365628 239.902792 391.699804 225.661095 
C 406.033979 211.419398 414.087965 192.100801 414.087965 171.96 
C 414.087965 151.819199 406.033979 132.500602 391.699804 118.258905 
C 377.365628 104.017208 357.921585 96.015183 337.65 96.015183 
C 317.378415 96.015183 297.934372 104.017208 283.600196 118.258905 
C 269.266021 132.500602 261.212035 151.819199 261.212035 171.96 
C 261.212035 192.100801 269.266021 211.419398 283.600196 225.661095 
C 297.934372 239.902792 317.378415 247.904817 337.65 247.904817 
z
" clip-path="url(#p3fe8ec9226)" style="fill: #b74e08; fill-opacity: 0.752941; stroke: #231f20; stroke-linejoin: miter"/>
   </g>
   <g id="patch_34">
    <path d="M 267.9 178.604817 
C 288.171585 178.604817 307.615628 170.602792 321.949804 156.361095 
C 336.283979 142.119398 344.337965 122.800801 344.337965 102.66 
C 344.337965 82.519199 336.283979 63.200602 321.949804 48.958905 
C 307.615628 34.717208 288.171585 26.715183 267.9 26.715183 
C 247.628415 26.715183 228.184372 34.717208 213.850196 48.958905 
C 199.516021 63.200602 191.462035 82.519199 191.462035 102.66 
C 191.462035 122.800801 199.516021 142.119398 213.850196 156.361095 
C 228.184372 170.602792 247.628415 178.604817 267.9 178.604817 
z
" clip-path="url(#p3fe8ec9226)" style="fill: #b74e08; fill-opacity: 0.752941; stroke: #231f20; stroke-linejoin: miter"/>
   </g>
   <g id="patch_35">
    <path d="M 198.15 429.935049 
C 223.848236 429.935049 248.497399 419.790902 266.668797 401.73674 
C 284.840194 383.682577 295.050211 359.192441 295.050211 333.66 
C 295.050211 308.127559 284.840194 283.637423 266.668797 265.58326 
C 248.497399 247.529098 223.848236 237.384951 198.15 237.384951 
C 172.451764 237.384951 147.802601 247.529098 129.631203 265.58326 
C 111.459806 283.637423 101.249789 308.127559 101.249789 333.66 
C 101.249789 359.192441 111.459806 383.682577 129.631203 401.73674 
C 147.802601 419.790902 172.451764 429.935049 198.15 429.935049 
z
" clip-path="url(#p3fe8ec9226)" style="fill: #0871b7; fill-opacity: 0.752941; stroke: #231f20; stroke-linejoin: miter"/>
   </g>
   <g id="patch_36">
    <path d="M 244.65 429.935049 
C 270.348236 429.935049 294.997399 419.790902 313.168797 401.73674 
C 331.340194 383.682577 341.550211 359.192441 341.550211 333.66 
C 341.550211 308.127559 331.340194 283.637423 313.168797 265.58326 
C 294.997399 247.529098 270.348236 237.384951 244.65 237.384951 
C 218.951764 237.384951 194.302601 247.529098 176.131203 265.58326 
C 157.959806 283.637423 147.749789 308.127559 147.749789 333.66 
C 147.749789 359.192441 157.959806 383.682577 176.131203 401.73674 
C 194.302601 419.790902 218.951764 429.935049 244.65 429.935049 
z
" clip-path="url(#p3fe8ec9226)" style="fill: #0871b7; fill-opacity: 0.752941; stroke: #231f20; stroke-linejoin: miter"/>
   </g>
   <g id="patch_37">
    <path d="M 105.15 337.535049 
C 130.848236 337.535049 155.497399 327.390902 173.668797 309.33674 
C 191.840194 291.282577 202.050211 266.792441 202.050211 241.26 
C 202.050211 215.727559 191.840194 191.237423 173.668797 173.18326 
C 155.497399 155.129098 130.848236 144.984951 105.15 144.984951 
C 79.451764 144.984951 54.802601 155.129098 36.631203 173.18326 
C 18.459806 191.237423 8.249789 215.727559 8.249789 241.26 
C 8.249789 266.792441 18.459806 291.282577 36.631203 309.33674 
C 54.802601 327.390902 79.451764 337.535049 105.15 337.535049 
z
" clip-path="url(#p3fe8ec9226)" style="fill: #0871b7; fill-opacity: 0.752941; stroke: #231f20; stroke-linejoin: miter"/>
   </g>
   <g id="patch_38">
    <path d="M 105.15 291.335049 
C 130.848236 291.335049 155.497399 281.190902 173.668797 263.13674 
C 191.840194 245.082577 202.050211 220.592441 202.050211 195.06 
C 202.050211 169.527559 191.840194 145.037423 173.668797 126.98326 
C 155.497399 108.929098 130.848236 98.784951 105.15 98.784951 
C 79.451764 98.784951 54.802601 108.929098 36.631203 126.98326 
C 18.459806 145.037423 8.249789 169.527559 8.249789 195.06 
C 8.249789 220.592441 18.459806 245.082577 36.631203 263.13674 
C 54.802601 281.190902 79.451764 291.335049 105.15 291.335049 
z
" clip-path="url(#p3fe8ec9226)" style="fill: #0871b7; fill-opacity: 0.752941; stroke: #231f20; stroke-linejoin: miter"/>
   </g>
   <g id="patch_39">
    <path d="M 337.65 291.335049 
C 363.348236 291.335049 387.997399 281.190902 406.168797 263.13674 
C 424.340194 245.082577 434.550211 220.592441 434.550211 195.06 
C 434.550211 169.527559 424.340194 145.037423 406.168797 126.98326 
C 387.997399 108.929098 363.348236 98.784951 337.65 98.784951 
C 311.951764 98.784951 287.302601 108.929098 269.131203 126.98326 
C 250.959806 145.037423 240.749789 169.527559 240.749789 195.06 
C 240.749789 220.592441 250.959806 245.082577 269.131203 263.13674 
C 287.302601 281.190902 311.951764 291.335049 337.65 291.335049 
z
" clip-path="url(#p3fe8ec9226)" style="fill: #0871b7; fill-opacity: 0.752941; stroke: #231f20; stroke-linejoin: miter"/>
   </g>
   <g id="patch_40">
    <path d="M 244.65 198.935049 
C 270.348236 198.935049 294.997399 188.790902 313.168797 170.73674 
C 331.340194 152.682577 341.550211 128.192441 341.550211 102.66 
C 341.550211 77.127559 331.340194 52.637423 313.168797 34.58326 
C 294.997399 16.529098 270.348236 6.384951 244.65 6.384951 
C 218.951764 6.384951 194.302601 16.529098 176.131203 34.58326 
C 157.959806 52.637423 147.749789 77.127559 147.749789 102.66 
C 147.749789 128.192441 157.959806 152.682577 176.131203 170.73674 
C 194.302601 188.790902 218.951764 198.935049 244.65 198.935049 
z
" clip-path="url(#p3fe8ec9226)" style="fill: #0871b7; fill-opacity: 0.752941; stroke: #231f20; stroke-linejoin: miter"/>
   </g>
   <g id="patch_41">
    <path d="M 337.65 337.535049 
C 363.348236 337.535049 387.997399 327.390902 406.168797 309.33674 
C 424.340194 291.282577 434.550211 266.792441 434.550211 241.26 
C 434.550211 215.727559 424.340194 191.237423 406.168797 173.18326 
C 387.997399 155.129098 363.348236 144.984951 337.65 144.984951 
C 311.951764 144.984951 287.302601 155.129098 269.131203 173.18326 
C 250.959806 191.237423 240.749789 215.727559 240.749789 241.26 
C 240.749789 266.792441 250.959806 291.282577 269.131203 309.33674 
C 287.302601 327.390902 311.951764 337.535049 337.65 337.535049 
z
" clip-path="url(#p3fe8ec9226)" style="fill: #0871b7; fill-opacity: 0.752941; stroke: #231f20; stroke-linejoin: miter"/>
   </g>
   <g id="patch_42">
    <path d="M 198.15 198.935049 
C 223.848236 198.935049 248.497399 188.790902 266.668797 170.73674 
C 284.840194 152.682577 295.050211 128.192441 295.050211 102.66 
C 295.050211 77.127559 284.840194 52.637423 266.668797 34.58326 
C 248.497399 16.529098 223.848236 6.384951 198.15 6.384951 
C 172.451764 6.384951 147.802601 16.529098 129.631203 34.58326 
C 111.459806 52.637423 101.249789 77.127559 101.249789 102.66 
C 101.249789 128.192441 111.459806 152.682577 129.631203 170.73674 
C 147.802601 188.790902 172.451764 198.935049 198.15 198.935049 
z
" clip-path="url(#p3fe8ec9226)" style="fill: #0871b7; fill-opacity: 0.752941; stroke: #231f20; stroke-linejoin: miter"/>
   </g>
   <g id="patch_43">
    <path d="M 221.4 437.101813 
C 249.011226 437.101813 275.495286 426.202531 295.019371 406.804407 
C 314.543456 387.406284 325.513513 361.093089 325.513513 333.66 
C 325.513513 306.226911 314.543456 279.913716 295.019371 260.515593 
C 275.495286 241.117469 249.011226 230.218187 221.4 230.218187 
C 193.788774 230.218187 167.304714 241.117469 147.780629 260.515593 
C 128.256544 279.913716 117.286487 306.226911 117.286487 333.66 
C 117.286487 361.093089 128.256544 387.406284 147.780629 406.804407 
C 167.304714 426.202531 193.788774 437.101813 221.4 437.101813 
z
" clip-path="url(#p3fe8ec9226)" style="fill: #b74e08; fill-opacity: 0.752941; stroke: #231f20; stroke-linejoin: miter"/>
   </g>
   <g id="patch_44">
    <path d="M 151.65 410.080311 
C 178.214479 410.080311 203.694522 399.594224 222.478445 380.931487 
C 241.262368 362.26875 251.816547 336.953095 251.816547 310.56 
C 251.816547 284.166905 241.262368 258.85125 222.478445 240.188513 
C 203.694522 221.525776 178.214479 211.039689 151.65 211.039689 
C 125.085521 211.039689 99.605478 221.525776 80.821555 240.188513 
C 62.037632 258.85125 51.483453 284.166905 51.483453 310.56 
C 51.483453 336.953095 62.037632 362.26875 80.821555 380.931487 
C 99.605478 399.594224 125.085521 410.080311 151.65 410.080311 
z
" clip-path="url(#p3fe8ec9226)" style="fill: #b74e08; fill-opacity: 0.752941; stroke: #231f20; stroke-linejoin: miter"/>
   </g>
   <g id="patch_45">
    <path d="M 291.15 410.080311 
C 317.714479 410.080311 343.194522 399.594224 361.978445 380.931487 
C 380.762368 362.26875 391.316547 336.953095 391.316547 310.56 
C 391.316547 284.166905 380.762368 258.85125 361.978445 240.188513 
C 343.194522 221.525776 317.714479 211.039689 291.15 211.039689 
C 264.585521 211.039689 239.105478 221.525776 220.321555 240.188513 
C 201.537632 258.85125 190.983453 284.166905 190.983453 310.56 
C 190.983453 336.953095 201.537632 362.26875 220.321555 380.931487 
C 239.105478 399.594224 264.585521 410.080311 291.15 410.080311 
z
" clip-path="url(#p3fe8ec9226)" style="fill: #b74e08; fill-opacity: 0.752941; stroke: #231f20; stroke-linejoin: miter"/>
   </g>
   <g id="patch_46">
    <path d="M 128.4 386.980311 
C 154.964479 386.980311 180.444522 376.494224 199.228445 357.831487 
C 218.012368 339.16875 228.566547 313.853095 228.566547 287.46 
C 228.566547 261.066905 218.012368 235.75125 199.228445 217.088513 
C 180.444522 198.425776 154.964479 187.939689 128.4 187.939689 
C 101.835521 187.939689 76.355478 198.425776 57.571555 217.088513 
C 38.787632 235.75125 28.233453 261.066905 28.233453 287.46 
C 28.233453 313.853095 38.787632 339.16875 57.571555 357.831487 
C 76.355478 376.494224 101.835521 386.980311 128.4 386.980311 
z
" clip-path="url(#p3fe8ec9226)" style="fill: #b74e08; fill-opacity: 0.752941; stroke: #231f20; stroke-linejoin: miter"/>
   </g>
   <g id="patch_47">
    <path d="M 314.4 386.980311 
C 340.964479 386.980311 366.444522 376.494224 385.228445 357.831487 
C 404.012368 339.16875 414.566547 313.853095 414.566547 287.46 
C 414.566547 261.066905 404.012368 235.75125 385.228445 217.088513 
C 366.444522 198.425776 340.964479 187.939689 314.4 187.939689 
C 287.835521 187.939689 262.355478 198.425776 243.571555 217.088513 
C 224.787632 235.75125 214.233453 261.066905 214.233453 287.46 
C 214.233453 313.853095 224.787632 339.16875 243.571555 357.831487 
C 262.355478 376.494224 287.835521 386.980311 314.4 386.980311 
z
" clip-path="url(#p3fe8ec9226)" style="fill: #b74e08; fill-opacity: 0.752941; stroke: #231f20; stroke-linejoin: miter"/>
   </g>
   <g id="patch_48">
    <path d="M 105.15 321.601813 
C 132.761226 321.601813 159.245286 310.702531 178.769371 291.304407 
C 198.293456 271.906284 209.263513 245.593089 209.263513 218.16 
C 209.263513 190.726911 198.293456 164.413716 178.769371 145.015593 
C 159.245286 125.617469 132.761226 114.718187 105.15 114.718187 
C 77.538774 114.718187 51.054714 125.617469 31.530629 145.015593 
C 12.006544 164.413716 1.036487 190.726911 1.036487 218.16 
C 1.036487 245.593089 12.006544 271.906284 31.530629 291.304407 
C 51.054714 310.702531 77.538774 321.601813 105.15 321.601813 
z
" clip-path="url(#p3fe8ec9226)" style="fill: #b74e08; fill-opacity: 0.752941; stroke: #231f20; stroke-linejoin: miter"/>
   </g>
   <g id="patch_49">
    <path d="M 128.4 248.380311 
C 154.964479 248.380311 180.444522 237.894224 199.228445 219.231487 
C 218.012368 200.56875 228.566547 175.253095 228.566547 148.86 
C 228.566547 122.466905 218.012368 97.15125 199.228445 78.488513 
C 180.444522 59.825776 154.964479 49.339689 128.4 49.339689 
C 101.835521 49.339689 76.355478 59.825776 57.571555 78.488513 
C 38.787632 97.15125 28.233453 122.466905 28.233453 148.86 
C 28.233453 175.253095 38.787632 200.56875 57.571555 219.231487 
C 76.355478 237.894224 101.835521 248.380311 128.4 248.380311 
z
" clip-path="url(#p3fe8ec9226)" style="fill: #b74e08; fill-opacity: 0.752941; stroke: #231f20; stroke-linejoin: miter"/>
   </g>
   <g id="patch_50">
    <path d="M 314.4 248.380311 
C 340.964479 248.380311 366.444522 237.894224 385.228445 219.231487 
C 404.012368 200.56875 414.566547 175.253095 414.566547 148.86 
C 414.566547 122.466905 404.012368 97.15125 385.228445 78.488513 
C 366.444522 59.825776 340.964479 49.339689 314.4 49.339689 
C 287.835521 49.339689 262.355478 59.825776 243.571555 78.488513 
C 224.787632 97.15125 214.233453 122.466905 214.233453 148.86 
C 214.233453 175.253095 224.787632 200.56875 243.571555 219.231487 
C 262.355478 237.894224 287.835521 248.380311 314.4 248.380311 
z
" clip-path="url(#p3fe8ec9226)" style="fill: #b74e08; fill-opacity: 0.752941; stroke: #231f20; stroke-linejoin: miter"/>
   </g>
   <g id="patch_51">
    <path d="M 151.65 225.280311 
C 178.214479 225.280311 203.694522 214.794224 222.478445 196.131487 
C 241.262368 177.46875 251.816547 152.153095 251.816547 125.76 
C 251.816547 99.366905 241.262368 74.05125 222.478445 55.388513 
C 203.694522 36.725776 178.214479 26.239689 151.65 26.239689 
C 125.085521 26.239689 99.605478 36.725776 80.821555 55.388513 
C 62.037632 74.05125 51.483453 99.366905 51.483453 125.76 
C 51.483453 152.153095 62.037632 177.46875 80.821555 196.131487 
C 99.605478 214.794224 125.085521 225.280311 151.65 225.280311 
z
" clip-path="url(#p3fe8ec9226)" style="fill: #b74e08; fill-opacity: 0.752941; stroke: #231f20; stroke-linejoin: miter"/>
   </g>
   <g id="patch_52">
    <path d="M 291.15 225.280311 
C 317.714479 225.280311 343.194522 214.794224 361.978445 196.131487 
C 380.762368 177.46875 391.316547 152.153095 391.316547 125.76 
C 391.316547 99.366905 380.762368 74.05125 361.978445 55.388513 
C 343.194522 36.725776 317.714479 26.239689 291.15 26.239689 
C 264.585521 26.239689 239.105478 36.725776 220.321555 55.388513 
C 201.537632 74.05125 190.983453 99.366905 190.983453 125.76 
C 190.983453 152.153095 201.537632 177.46875 220.321555 196.131487 
C 239.105478 214.794224 264.585521 225.280311 291.15 225.280311 
z
" clip-path="url(#p3fe8ec9226)" style="fill: #b74e08; fill-opacity: 0.752941; stroke: #231f20; stroke-linejoin: miter"/>
   </g>
   <g id="patch_53">
    <path d="M 337.65 321.601813 
C 365.261226 321.601813 391.745286 310.702531 411.269371 291.304407 
C 430.793456 271.906284 441.763513 245.593089 441.763513 218.16 
C 441.763513 190.726911 430.793456 164.413716 411.269371 145.015593 
C 391.745286 125.617469 365.261226 114.718187 337.65 114.718187 
C 310.038774 114.718187 283.554714 125.617469 264.030629 145.015593 
C 244.506544 164.413716 233.536487 190.726911 233.536487 218.16 
C 233.536487 245.593089 244.506544 271.906284 264.030629 291.304407 
C 283.554714 310.702531 310.038774 321.601813 337.65 321.601813 
z
" clip-path="url(#p3fe8ec9226)" style="fill: #b74e08; fill-opacity: 0.752941; stroke: #231f20; stroke-linejoin: miter"/>
   </g>
   <g id="patch_54">
    <path d="M 221.4 206.101813 
C 249.011226 206.101813 275.495286 195.202531 295.019371 175.804407 
C 314.543456 156.406284 325.513513 130.093089 325.513513 102.66 
C 325.513513 75.226911 314.543456 48.913716 295.019371 29.515593 
C 275.495286 10.117469 249.011226 -0.781813 221.4 -0.781813 
C 193.788774 -0.781813 167.304714 10.117469 147.780629 29.515593 
C 128.256544 48.913716 117.286487 75.226911 117.286487 102.66 
C 117.286487 130.093089 128.256544 156.406284 147.780629 175.804407 
C 167.304714 195.202531 193.788774 206.101813 221.4 206.101813 
z
" clip-path="url(#p3fe8ec9226)" style="fill: #b74e08; fill-opacity: 0.752941; stroke: #231f20; stroke-linejoin: miter"/>
   </g>
   <g id="patch_55">
    <path d="M 314.4 410.759891 
C 353.47782 410.759891 390.960374 395.334275 418.592565 367.880355 
C 446.224757 340.426436 461.750539 303.185705 461.750539 264.36 
C 461.750539 225.534295 446.224757 188.293564 418.592565 160.839645 
C 390.960374 133.385725 353.47782 117.960109 314.4 117.960109 
C 275.32218 117.960109 237.839626 133.385725 210.207435 160.839645 
C 182.575243 188.293564 167.049461 225.534295 167.049461 264.36 
C 167.049461 303.185705 182.575243 340.426436 210.207435 367.880355 
C 237.839626 395.334275 275.32218 410.759891 314.4 410.759891 
z
" clip-path="url(#p3fe8ec9226)" style="fill: #0871b7; fill-opacity: 0.752941; stroke: #231f20; stroke-linejoin: miter"/>
   </g>
   <g id="patch_56">
    <path d="M 174.9 272.159891 
C 213.97782 272.159891 251.460374 256.734275 279.092565 229.280355 
C 306.724757 201.826436 322.250539 164.585705 322.250539 125.76 
C 322.250539 86.934295 306.724757 49.693564 279.092565 22.239645 
C 251.460374 -5.214275 213.97782 -20.639891 174.9 -20.639891 
C 135.82218 -20.639891 98.339626 -5.214275 70.707435 22.239645 
C 43.075243 49.693564 27.549461 86.934295 27.549461 125.76 
C 27.549461 164.585705 43.075243 201.826436 70.707435 229.280355 
C 98.339626 256.734275 135.82218 272.159891 174.9 272.159891 
z
" clip-path="url(#p3fe8ec9226)" style="fill: #0871b7; fill-opacity: 0.752941; stroke: #231f20; stroke-linejoin: miter"/>
   </g>
   <g id="patch_57">
    <path d="M 314.4 318.359891 
C 353.47782 318.359891 390.960374 302.934275 418.592565 275.480355 
C 446.224757 248.026436 461.750539 210.785705 461.750539 171.96 
C 461.750539 133.134295 446.224757 95.893564 418.592565 68.439645 
C 390.960374 40.985725 353.47782 25.560109 314.4 25.560109 
C 275.32218 25.560109 237.839626 40.985725 210.207435 68.439645 
C 182.575243 95.893564 167.049461 133.134295 167.049461 171.96 
C 167.049461 210.785705 182.575243 248.026436 210.207435 275.480355 
C 237.839626 302.934275 275.32218 318.359891 314.4 318.359891 
z
" clip-path="url(#p3fe8ec9226)" style="fill: #0871b7; fill-opacity: 0.752941; stroke: #231f20; stroke-linejoin: miter"/>
   </g>
   <g id="patch_58">
    <path d="M 267.9 272.159891 
C 306.97782 272.159891 344.460374 256.734275 372.092565 229.280355 
C 399.724757 201.826436 415.250539 164.585705 415.250539 125.76 
C 415.250539 86.934295 399.724757 49.693564 372.092565 22.239645 
C 344.460374 -5.214275 306.97782 -20.639891 267.9 -20.639891 
C 228.82218 -20.639891 191.339626 -5.214275 163.707435 22.239645 
C 136.075243 49.693564 120.549461 86.934295 120.549461 125.76 
C 120.549461 164.585705 136.075243 201.826436 163.707435 229.280355 
C 191.339626 256.734275 228.82218 272.159891 267.9 272.159891 
z
" clip-path="url(#p3fe8ec9226)" style="fill: #0871b7; fill-opacity: 0.752941; stroke: #231f20; stroke-linejoin: miter"/>
   </g>
   <g id="patch_59">
    <path d="M 267.9 456.959891 
C 306.97782 456.959891 344.460374 441.534275 372.092565 414.080355 
C 399.724757 386.626436 415.250539 349.385705 415.250539 310.56 
C 415.250539 271.734295 399.724757 234.493564 372.092565 207.039645 
C 344.460374 179.585725 306.97782 164.160109 267.9 164.160109 
C 228.82218 164.160109 191.339626 179.585725 163.707435 207.039645 
C 136.075243 234.493564 120.549461 271.734295 120.549461 310.56 
C 120.549461 349.385705 136.075243 386.626436 163.707435 414.080355 
C 191.339626 441.534275 228.82218 456.959891 267.9 456.959891 
z
" clip-path="url(#p3fe8ec9226)" style="fill: #0871b7; fill-opacity: 0.752941; stroke: #231f20; stroke-linejoin: miter"/>
   </g>
   <g id="patch_60">
    <path d="M 128.4 318.359891 
C 167.47782 318.359891 204.960374 302.934275 232.592565 275.480355 
C 260.224757 248.026436 275.750539 210.785705 275.750539 171.96 
C 275.750539 133.134295 260.224757 95.893564 232.592565 68.439645 
C 204.960374 40.985725 167.47782 25.560109 128.4 25.560109 
C 89.32218 25.560109 51.839626 40.985725 24.207435 68.439645 
C -3.424757 95.893564 -18.950539 133.134295 -18.950539 171.96 
C -18.950539 210.785705 -3.424757 248.026436 24.207435 275.480355 
C 51.839626 302.934275 89.32218 318.359891 128.4 318.359891 
z
" clip-path="url(#p3fe8ec9226)" style="fill: #0871b7; fill-opacity: 0.752941; stroke: #231f20; stroke-linejoin: miter"/>
   </g>
   <g id="patch_61">
    <path d="M 174.9 456.959891 
C 213.97782 456.959891 251.460374 441.534275 279.092565 414.080355 
C 306.724757 386.626436 322.250539 349.385705 322.250539 310.56 
C 322.250539 271.734295 306.724757 234.493564 279.092565 207.039645 
C 251.460374 179.585725 213.97782 164.160109 174.9 164.160109 
C 135.82218 164.160109 98.339626 179.585725 70.707435 207.039645 
C 43.075243 234.493564 27.549461 271.734295 27.549461 310.56 
C 27.549461 349.385705 43.075243 386.626436 70.707435 414.080355 
C 98.339626 441.534275 135.82218 456.959891 174.9 456.959891 
z
" clip-path="url(#p3fe8ec9226)" style="fill: #0871b7; fill-opacity: 0.752941; stroke: #231f20; stroke-linejoin: miter"/>
   </g>
   <g id="patch_62">
    <path d="M 128.4 410.759891 
C 167.47782 410.759891 204.960374 395.334275 232.592565 367.880355 
C 260.224757 340.426436 275.750539 303.185705 275.750539 264.36 
C 275.750539 225.534295 260.224757 188.293564 232.592565 160.839645 
C 204.960374 133.385725 167.47782 117.960109 128.4 117.960109 
C 89.32218 117.960109 51.839626 133.385725 24.207435 160.839645 
C -3.424757 188.293564 -18.950539 225.534295 -18.950539 264.36 
C -18.950539 303.185705 -3.424757 340.426436 24.207435 367.880355 
C 51.839626 395.334275 89.32218 410.759891 128.4 410.759891 
z
" clip-path="url(#p3fe8ec9226)" style="fill: #0871b7; fill-opacity: 0.752941; stroke: #231f20; stroke-linejoin: miter"/>
   </g>
   <g id="patch_63">
    <path d="M 151.65 472.047 
C 200.920922 472.047 248.180467 452.597749 283.02027 417.982719 
C 317.860072 383.36769 337.435617 336.413045 337.435617 287.46 
C 337.435617 238.506955 317.860072 191.55231 283.02027 156.937281 
C 248.180467 122.322251 200.920922 102.873 151.65 102.873 
C 102.379078 102.873 55.119533 122.322251 20.27973 156.937281 
C -14.560072 191.55231 -34.135617 238.506955 -34.135617 287.46 
C -34.135617 336.413045 -14.560072 383.36769 20.27973 417.982719 
C 55.119533 452.597749 102.379078 472.047 151.65 472.047 
z
" clip-path="url(#p3fe8ec9226)" style="fill: #0871b7; fill-opacity: 0.752941; stroke: #231f20; stroke-linejoin: miter"/>
   </g>
   <g id="patch_64">
    <path d="M 291.15 472.047 
C 340.420922 472.047 387.680467 452.597749 422.52027 417.982719 
C 457.360072 383.36769 476.935617 336.413045 476.935617 287.46 
C 476.935617 238.506955 457.360072 191.55231 422.52027 156.937281 
C 387.680467 122.322251 340.420922 102.873 291.15 102.873 
C 241.879078 102.873 194.619533 122.322251 159.77973 156.937281 
C 124.939928 191.55231 105.364383 238.506955 105.364383 287.46 
C 105.364383 336.413045 124.939928 383.36769 159.77973 417.982719 
C 194.619533 452.597749 241.879078 472.047 291.15 472.047 
z
" clip-path="url(#p3fe8ec9226)" style="fill: #0871b7; fill-opacity: 0.752941; stroke: #231f20; stroke-linejoin: miter"/>
   </g>
   <g id="patch_65">
    <path d="M 151.65 333.447 
C 200.920922 333.447 248.180467 313.997749 283.02027 279.382719 
C 317.860072 244.76769 337.435617 197.813045 337.435617 148.86 
C 337.435617 99.906955 317.860072 52.95231 283.02027 18.337281 
C 248.180467 -16.277749 200.920922 -35.727 151.65 -35.727 
C 102.379078 -35.727 55.119533 -16.277749 20.27973 18.337281 
C -14.560072 52.95231 -34.135617 99.906955 -34.135617 148.86 
C -34.135617 197.813045 -14.560072 244.76769 20.27973 279.382719 
C 55.119533 313.997749 102.379078 333.447 151.65 333.447 
z
" clip-path="url(#p3fe8ec9226)" style="fill: #0871b7; fill-opacity: 0.752941; stroke: #231f20; stroke-linejoin: miter"/>
   </g>
   <g id="patch_66">
    <path d="M 291.15 333.447 
C 340.420922 333.447 387.680467 313.997749 422.52027 279.382719 
C 457.360072 244.76769 476.935617 197.813045 476.935617 148.86 
C 476.935617 99.906955 457.360072 52.95231 422.52027 18.337281 
C 387.680467 -16.277749 340.420922 -35.727 291.15 -35.727 
C 241.879078 -35.727 194.619533 -16.277749 159.77973 18.337281 
C 124.939928 52.95231 105.364383 99.906955 105.364383 148.86 
C 105.364383 197.813045 124.939928 244.76769 159.77973 279.382719 
C 194.619533 313.997749 241.879078 333.447 291.15 333.447 
z
" clip-path="url(#p3fe8ec9226)" style="fill: #0871b7; fill-opacity: 0.752941; stroke: #231f20; stroke-linejoin: miter"/>
   </g>
   <g id="patch_67">
    <path d="M 244.65 496.150764 
C 294.188851 496.150764 341.705389 476.59575 376.734647 441.792488 
C 411.763905 406.989225 431.445899 359.779246 431.445899 310.56 
C 431.445899 261.340754 411.763905 214.130775 376.734647 179.327512 
C 341.705389 144.52425 294.188851 124.969236 244.65 124.969236 
C 195.111149 124.969236 147.594611 144.52425 112.565353 179.327512 
C 77.536095 214.130775 57.854101 261.340754 57.854101 310.56 
C 57.854101 359.779246 77.536095 406.989225 112.565353 441.792488 
C 147.594611 476.59575 195.111149 496.150764 244.65 496.150764 
z
" clip-path="url(#p3fe8ec9226)" style="fill: #b74e08; fill-opacity: 0.752941; stroke: #231f20; stroke-linejoin: miter"/>
   </g>
   <g id="patch_68">
    <path d="M 128.4 380.650764 
C 177.938851 380.650764 225.455389 361.09575 260.484647 326.292488 
C 295.513905 291.489225 315.195899 244.279246 315.195899 195.06 
C 315.195899 145.840754 295.513905 98.630775 260.484647 63.827512 
C 225.455389 29.02425 177.938851 9.469236 128.4 9.469236 
C 78.861149 9.469236 31.344611 29.02425 -3.684647 63.827512 
C -38.713905 98.630775 -58.395899 145.840754 -58.395899 195.06 
C -58.395899 244.279246 -38.713905 291.489225 -3.684647 326.292488 
C 31.344611 361.09575 78.861149 380.650764 128.4 380.650764 
z
" clip-path="url(#p3fe8ec9226)" style="fill: #b74e08; fill-opacity: 0.752941; stroke: #231f20; stroke-linejoin: miter"/>
   </g>
   <g id="patch_69">
    <path d="M 314.4 380.650764 
C 363.938851 380.650764 411.455389 361.09575 446.484647 326.292488 
C 481.513905 291.489225 501.195899 244.279246 501.195899 195.06 
C 501.195899 145.840754 481.513905 98.630775 446.484647 63.827512 
C 411.455389 29.02425 363.938851 9.469236 314.4 9.469236 
C 264.861149 9.469236 217.344611 29.02425 182.315353 63.827512 
C 147.286095 98.630775 127.604101 145.840754 127.604101 195.06 
C 127.604101 244.279246 147.286095 291.489225 182.315353 326.292488 
C 217.344611 361.09575 264.861149 380.650764 314.4 380.650764 
z
" clip-path="url(#p3fe8ec9226)" style="fill: #b74e08; fill-opacity: 0.752941; stroke: #231f20; stroke-linejoin: miter"/>
   </g>
   <g id="patch_70">
    <path d="M 244.65 311.350764 
C 294.188851 311.350764 341.705389 291.79575 376.734647 256.992488 
C 411.763905 222.189225 431.445899 174.979246 431.445899 125.76 
C 431.445899 76.540754 411.763905 29.330775 376.734647 -5.472488 
C 341.705389 -40.27575 294.188851 -59.830764 244.65 -59.830764 
C 195.111149 -59.830764 147.594611 -40.27575 112.565353 -5.472488 
C 77.536095 29.330775 57.854101 76.540754 57.854101 125.76 
C 57.854101 174.979246 77.536095 222.189225 112.565353 256.992488 
C 147.594611 291.79575 195.111149 311.350764 244.65 311.350764 
z
" clip-path="url(#p3fe8ec9226)" style="fill: #b74e08; fill-opacity: 0.752941; stroke: #231f20; stroke-linejoin: miter"/>
   </g>
   <g id="patch_71">
    <path d="M 198.15 496.150764 
C 247.688851 496.150764 295.205389 476.59575 330.234647 441.792488 
C 365.263905 406.989225 384.945899 359.779246 384.945899 310.56 
C 384.945899 261.340754 365.263905 214.130775 330.234647 179.327512 
C 295.205389 144.52425 247.688851 124.969236 198.15 124.969236 
C 148.611149 124.969236 101.094611 144.52425 66.065353 179.327512 
C 31.036095 214.130775 11.354101 261.340754 11.354101 310.56 
C 11.354101 359.779246 31.036095 406.989225 66.065353 441.792488 
C 101.094611 476.59575 148.611149 496.150764 198.15 496.150764 
z
" clip-path="url(#p3fe8ec9226)" style="fill: #b74e08; fill-opacity: 0.752941; stroke: #231f20; stroke-linejoin: miter"/>
   </g>
   <g id="patch_72">
    <path d="M 128.4 426.850764 
C 177.938851 426.850764 225.455389 407.29575 260.484647 372.492488 
C 295.513905 337.689225 315.195899 290.479246 315.195899 241.26 
C 315.195899 192.040754 295.513905 144.830775 260.484647 110.027512 
C 225.455389 75.22425 177.938851 55.669236 128.4 55.669236 
C 78.861149 55.669236 31.344611 75.22425 -3.684647 110.027512 
C -38.713905 144.830775 -58.395899 192.040754 -58.395899 241.26 
C -58.395899 290.479246 -38.713905 337.689225 -3.684647 372.492488 
C 31.344611 407.29575 78.861149 426.850764 128.4 426.850764 
z
" clip-path="url(#p3fe8ec9226)" style="fill: #b74e08; fill-opacity: 0.752941; stroke: #231f20; stroke-linejoin: miter"/>
   </g>
   <g id="patch_73">
    <path d="M 314.4 426.850764 
C 363.938851 426.850764 411.455389 407.29575 446.484647 372.492488 
C 481.513905 337.689225 501.195899 290.479246 501.195899 241.26 
C 501.195899 192.040754 481.513905 144.830775 446.484647 110.027512 
C 411.455389 75.22425 363.938851 55.669236 314.4 55.669236 
C 264.861149 55.669236 217.344611 75.22425 182.315353 110.027512 
C 147.286095 144.830775 127.604101 192.040754 127.604101 241.26 
C 127.604101 290.479246 147.286095 337.689225 182.315353 372.492488 
C 217.344611 407.29575 264.861149 426.850764 314.4 426.850764 
z
" clip-path="url(#p3fe8ec9226)" style="fill: #b74e08; fill-opacity: 0.752941; stroke: #231f20; stroke-linejoin: miter"/>
   </g>
   <g id="patch_74">
    <path d="M 198.15 311.350764 
C 247.688851 311.350764 295.205389 291.79575 330.234647 256.992488 
C 365.263905 222.189225 384.945899 174.979246 384.945899 125.76 
C 384.945899 76.540754 365.263905 29.330775 330.234647 -5.472488 
C 295.205389 -40.27575 247.688851 -59.830764 198.15 -59.830764 
C 148.611149 -59.830764 101.094611 -40.27575 66.065353 -5.472488 
C 31.036095 29.330775 11.354101 76.540754 11.354101 125.76 
C 11.354101 174.979246 31.036095 222.189225 66.065353 256.992488 
C 101.094611 291.79575 148.611149 311.350764 198.15 311.350764 
z
" clip-path="url(#p3fe8ec9226)" style="fill: #b74e08; fill-opacity: 0.752941; stroke: #231f20; stroke-linejoin: miter"/>
   </g>
   <g id="patch_75">
    <path d="M 221.4 509.966236 
C 274.626549 509.966236 325.680242 488.955537 363.317096 451.561502 
C 400.953949 414.167466 422.101081 363.443152 422.101081 310.56 
C 422.101081 257.676848 400.953949 206.952534 363.317096 169.558498 
C 325.680242 132.164463 274.626549 111.153764 221.4 111.153764 
C 168.173451 111.153764 117.119758 132.164463 79.482904 169.558498 
C 41.846051 206.952534 20.698919 257.676848 20.698919 310.56 
C 20.698919 363.443152 41.846051 414.167466 79.482904 451.561502 
C 117.119758 488.955537 168.173451 509.966236 221.4 509.966236 
z
" clip-path="url(#p3fe8ec9226)" style="fill: #0871b7; fill-opacity: 0.752941; stroke: #231f20; stroke-linejoin: miter"/>
   </g>
   <g id="patch_76">
    <path d="M 128.4 417.566236 
C 181.626549 417.566236 232.680242 396.555537 270.317096 359.161502 
C 307.953949 321.767466 329.101081 271.043152 329.101081 218.16 
C 329.101081 165.276848 307.953949 114.552534 270.317096 77.158498 
C 232.680242 39.764463 181.626549 18.753764 128.4 18.753764 
C 75.173451 18.753764 24.119758 39.764463 -13.517096 77.158498 
C -51.153949 114.552534 -72.301081 165.276848 -72.301081 218.16 
C -72.301081 271.043152 -51.153949 321.767466 -13.517096 359.161502 
C 24.119758 396.555537 75.173451 417.566236 128.4 417.566236 
z
" clip-path="url(#p3fe8ec9226)" style="fill: #0871b7; fill-opacity: 0.752941; stroke: #231f20; stroke-linejoin: miter"/>
   </g>
   <g id="patch_77">
    <path d="M 314.4 417.566236 
C 367.626549 417.566236 418.680242 396.555537 456.317096 359.161502 
C 493.953949 321.767466 515.101081 271.043152 515.101081 218.16 
C 515.101081 165.276848 493.953949 114.552534 456.317096 77.158498 
C 418.680242 39.764463 367.626549 18.753764 314.4 18.753764 
C 261.173451 18.753764 210.119758 39.764463 172.482904 77.158498 
C 134.846051 114.552534 113.698919 165.276848 113.698919 218.16 
C 113.698919 271.043152 134.846051 321.767466 172.482904 359.161502 
C 210.119758 396.555537 261.173451 417.566236 314.4 417.566236 
z
" clip-path="url(#p3fe8ec9226)" style="fill: #0871b7; fill-opacity: 0.752941; stroke: #231f20; stroke-linejoin: miter"/>
   </g>
   <g id="patch_78">
    <path d="M 221.4 325.166236 
C 274.626549 325.166236 325.680242 304.155537 363.317096 266.761502 
C 400.953949 229.367466 422.101081 178.643152 422.101081 125.76 
C 422.101081 72.876848 400.953949 22.152534 363.317096 -15.241502 
C 325.680242 -52.635537 274.626549 -73.646236 221.4 -73.646236 
C 168.173451 -73.646236 117.119758 -52.635537 79.482904 -15.241502 
C 41.846051 22.152534 20.698919 72.876848 20.698919 125.76 
C 20.698919 178.643152 41.846051 229.367466 79.482904 266.761502 
C 117.119758 304.155537 168.173451 325.166236 221.4 325.166236 
z
" clip-path="url(#p3fe8ec9226)" style="fill: #0871b7; fill-opacity: 0.752941; stroke: #231f20; stroke-linejoin: miter"/>
   </g>
   <g id="patch_79">
    <path d="M 174.9 558.997702 
C 247.380255 558.997702 316.901664 530.386776 368.152943 479.46615 
C 419.404223 428.545524 448.200933 359.47264 448.200933 287.46 
C 448.200933 215.44736 419.404223 146.374476 368.152943 95.45385 
C 316.901664 44.533224 247.380255 15.922298 174.9 15.922298 
C 102.419745 15.922298 32.898336 44.533224 -18.352943 95.45385 
C -69.604223 146.374476 -98.400933 215.44736 -98.400933 287.46 
C -98.400933 359.47264 -69.604223 428.545524 -18.352943 479.46615 
C 32.898336 530.386776 102.419745 558.997702 174.9 558.997702 
z
" clip-path="url(#p3fe8ec9226)" style="fill: #b74e08; fill-opacity: 0.752941; stroke: #231f20; stroke-linejoin: miter"/>
   </g>
   <g id="patch_80">
    <path d="M 151.65 535.897702 
C 224.130255 535.897702 293.651664 507.286776 344.902943 456.36615 
C 396.154223 405.445524 424.950933 336.37264 424.950933 264.36 
C 424.950933 192.34736 396.154223 123.274476 344.902943 72.35385 
C 293.651664 21.433224 224.130255 -7.177702 151.65 -7.177702 
C 79.169745 -7.177702 9.648336 21.433224 -41.602943 72.35385 
C -92.854223 123.274476 -121.650933 192.34736 -121.650933 264.36 
C -121.650933 336.37264 -92.854223 405.445524 -41.602943 456.36615 
C 9.648336 507.286776 79.169745 535.897702 151.65 535.897702 
z
" clip-path="url(#p3fe8ec9226)" style="fill: #b74e08; fill-opacity: 0.752941; stroke: #231f20; stroke-linejoin: miter"/>
   </g>
   <g id="patch_81">
    <path d="M 291.15 535.897702 
C 363.630255 535.897702 433.151664 507.286776 484.402943 456.36615 
C 535.654223 405.445524 564.450933 336.37264 564.450933 264.36 
C 564.450933 192.34736 535.654223 123.274476 484.402943 72.35385 
C 433.151664 21.433224 363.630255 -7.177702 291.15 -7.177702 
C 218.669745 -7.177702 149.148336 21.433224 97.897057 72.35385 
C 46.645777 123.274476 17.849067 192.34736 17.849067 264.36 
C 17.849067 336.37264 46.645777 405.445524 97.897057 456.36615 
C 149.148336 507.286776 218.669745 535.897702 291.15 535.897702 
z
" clip-path="url(#p3fe8ec9226)" style="fill: #b74e08; fill-opacity: 0.752941; stroke: #231f20; stroke-linejoin: miter"/>
   </g>
   <g id="patch_82">
    <path d="M 174.9 420.397702 
C 247.380255 420.397702 316.901664 391.786776 368.152943 340.86615 
C 419.404223 289.945524 448.200933 220.87264 448.200933 148.86 
C 448.200933 76.84736 419.404223 7.774476 368.152943 -43.14615 
C 316.901664 -94.066776 247.380255 -122.677702 174.9 -122.677702 
C 102.419745 -122.677702 32.898336 -94.066776 -18.352943 -43.14615 
C -69.604223 7.774476 -98.400933 76.84736 -98.400933 148.86 
C -98.400933 220.87264 -69.604223 289.945524 -18.352943 340.86615 
C 32.898336 391.786776 102.419745 420.397702 174.9 420.397702 
z
" clip-path="url(#p3fe8ec9226)" style="fill: #b74e08; fill-opacity: 0.752941; stroke: #231f20; stroke-linejoin: miter"/>
   </g>
   <g id="patch_83">
    <path d="M 267.9 558.997702 
C 340.380255 558.997702 409.901664 530.386776 461.152943 479.46615 
C 512.404223 428.545524 541.200933 359.47264 541.200933 287.46 
C 541.200933 215.44736 512.404223 146.374476 461.152943 95.45385 
C 409.901664 44.533224 340.380255 15.922298 267.9 15.922298 
C 195.419745 15.922298 125.898336 44.533224 74.647057 95.45385 
C 23.395777 146.374476 -5.400933 215.44736 -5.400933 287.46 
C -5.400933 359.47264 23.395777 428.545524 74.647057 479.46615 
C 125.898336 530.386776 195.419745 558.997702 267.9 558.997702 
z
" clip-path="url(#p3fe8ec9226)" style="fill: #b74e08; fill-opacity: 0.752941; stroke: #231f20; stroke-linejoin: miter"/>
   </g>
   <g id="patch_84">
    <path d="M 151.65 443.497702 
C 224.130255 443.497702 293.651664 414.886776 344.902943 363.96615 
C 396.154223 313.045524 424.950933 243.97264 424.950933 171.96 
C 424.950933 99.94736 396.154223 30.874476 344.902943 -20.04615 
C 293.651664 -70.966776 224.130255 -99.577702 151.65 -99.577702 
C 79.169745 -99.577702 9.648336 -70.966776 -41.602943 -20.04615 
C -92.854223 30.874476 -121.650933 99.94736 -121.650933 171.96 
C -121.650933 243.97264 -92.854223 313.045524 -41.602943 363.96615 
C 9.648336 414.886776 79.169745 443.497702 151.65 443.497702 
z
" clip-path="url(#p3fe8ec9226)" style="fill: #b74e08; fill-opacity: 0.752941; stroke: #231f20; stroke-linejoin: miter"/>
   </g>
   <g id="patch_85">
    <path d="M 291.15 443.497702 
C 363.630255 443.497702 433.151664 414.886776 484.402943 363.96615 
C 535.654223 313.045524 564.450933 243.97264 564.450933 171.96 
C 564.450933 99.94736 535.654223 30.874476 484.402943 -20.04615 
C 433.151664 -70.966776 363.630255 -99.577702 291.15 -99.577702 
C 218.669745 -99.577702 149.148336 -70.966776 97.897057 -20.04615 
C 46.645777 30.874476 17.849067 99.94736 17.849067 171.96 
C 17.849067 243.97264 46.645777 313.045524 97.897057 363.96615 
C 149.148336 414.886776 218.669745 443.497702 291.15 443.497702 
z
" clip-path="url(#p3fe8ec9226)" style="fill: #b74e08; fill-opacity: 0.752941; stroke: #231f20; stroke-linejoin: miter"/>
   </g>
   <g id="patch_86">
    <path d="M 267.9 420.397702 
C 340.380255 420.397702 409.901664 391.786776 461.152943 340.86615 
C 512.404223 289.945524 541.200933 220.87264 541.200933 148.86 
C 541.200933 76.84736 512.404223 7.774476 461.152943 -43.14615 
C 409.901664 -94.066776 340.380255 -122.677702 267.9 -122.677702 
C 195.419745 -122.677702 125.898336 -94.066776 74.647057 -43.14615 
C 23.395777 7.774476 -5.400933 76.84736 -5.400933 148.86 
C -5.400933 220.87264 23.395777 289.945524 74.647057 340.86615 
C 125.898336 391.786776 195.419745 420.397702 267.9 420.397702 
z
" clip-path="url(#p3fe8ec9226)" style="fill: #b74e08; fill-opacity: 0.752941; stroke: #231f20; stroke-linejoin: miter"/>
   </g>
   <g id="patch_87">
    <path d="M 198.15 631.687645 
C 290.033032 631.687645 378.165143 595.417648 443.136258 530.865702 
C 508.107373 466.313755 544.612889 378.750238 544.612889 287.46 
C 544.612889 196.169762 508.107373 108.606245 443.136258 44.054298 
C 378.165143 -20.497648 290.033032 -56.767645 198.15 -56.767645 
C 106.266968 -56.767645 18.134857 -20.497648 -46.836258 44.054298 
C -111.807373 108.606245 -148.312889 196.169762 -148.312889 287.46 
C -148.312889 378.750238 -111.807373 466.313755 -46.836258 530.865702 
C 18.134857 595.417648 106.266968 631.687645 198.15 631.687645 
z
" clip-path="url(#p3fe8ec9226)" style="fill: #0871b7; fill-opacity: 0.752941; stroke: #231f20; stroke-linejoin: miter"/>
   </g>
   <g id="patch_88">
    <path d="M 244.65 631.687645 
C 336.533032 631.687645 424.665143 595.417648 489.636258 530.865702 
C 554.607373 466.313755 591.112889 378.750238 591.112889 287.46 
C 591.112889 196.169762 554.607373 108.606245 489.636258 44.054298 
C 424.665143 -20.497648 336.533032 -56.767645 244.65 -56.767645 
C 152.766968 -56.767645 64.634857 -20.497648 -0.336258 44.054298 
C -65.307373 108.606245 -101.812889 196.169762 -101.812889 287.46 
C -101.812889 378.750238 -65.307373 466.313755 -0.336258 530.865702 
C 64.634857 595.417648 152.766968 631.687645 244.65 631.687645 
z
" clip-path="url(#p3fe8ec9226)" style="fill: #0871b7; fill-opacity: 0.752941; stroke: #231f20; stroke-linejoin: miter"/>
   </g>
   <g id="patch_89">
    <path d="M 151.65 585.487645 
C 243.533032 585.487645 331.665143 549.217648 396.636258 484.665702 
C 461.607373 420.113755 498.112889 332.550238 498.112889 241.26 
C 498.112889 149.969762 461.607373 62.406245 396.636258 -2.145702 
C 331.665143 -66.697648 243.533032 -102.967645 151.65 -102.967645 
C 59.766968 -102.967645 -28.365143 -66.697648 -93.336258 -2.145702 
C -158.307373 62.406245 -194.812889 149.969762 -194.812889 241.26 
C -194.812889 332.550238 -158.307373 420.113755 -93.336258 484.665702 
C -28.365143 549.217648 59.766968 585.487645 151.65 585.487645 
z
" clip-path="url(#p3fe8ec9226)" style="fill: #0871b7; fill-opacity: 0.752941; stroke: #231f20; stroke-linejoin: miter"/>
   </g>
   <g id="patch_90">
    <path d="M 291.15 585.487645 
C 383.033032 585.487645 471.165143 549.217648 536.136258 484.665702 
C 601.107373 420.113755 637.612889 332.550238 637.612889 241.26 
C 637.612889 149.969762 601.107373 62.406245 536.136258 -2.145702 
C 471.165143 -66.697648 383.033032 -102.967645 291.15 -102.967645 
C 199.266968 -102.967645 111.134857 -66.697648 46.163742 -2.145702 
C -18.807373 62.406245 -55.312889 149.969762 -55.312889 241.26 
C -55.312889 332.550238 -18.807373 420.113755 46.163742 484.665702 
C 111.134857 549.217648 199.266968 585.487645 291.15 585.487645 
z
" clip-path="url(#p3fe8ec9226)" style="fill: #0871b7; fill-opacity: 0.752941; stroke: #231f20; stroke-linejoin: miter"/>
   </g>
   <g id="patch_91">
    <path d="M 151.65 539.287645 
C 243.533032 539.287645 331.665143 503.017648 396.636258 438.465702 
C 461.607373 373.913755 498.112889 286.350238 498.112889 195.06 
C 498.112889 103.769762 461.607373 16.206245 396.636258 -48.345702 
C 331.665143 -112.897648 243.533032 -149.167645 151.65 -149.167645 
C 59.766968 -149.167645 -28.365143 -112.897648 -93.336258 -48.345702 
C -158.307373 16.206245 -194.812889 103.769762 -194.812889 195.06 
C -194.812889 286.350238 -158.307373 373.913755 -93.336258 438.465702 
C -28.365143 503.017648 59.766968 539.287645 151.65 539.287645 
z
" clip-path="url(#p3fe8ec9226)" style="fill: #0871b7; fill-opacity: 0.752941; stroke: #231f20; stroke-linejoin: miter"/>
   </g>
   <g id="patch_92">
    <path d="M 291.15 539.287645 
C 383.033032 539.287645 471.165143 503.017648 536.136258 438.465702 
C 601.107373 373.913755 637.612889 286.350238 637.612889 195.06 
C 637.612889 103.769762 601.107373 16.206245 536.136258 -48.345702 
C 471.165143 -112.897648 383.033032 -149.167645 291.15 -149.167645 
C 199.266968 -149.167645 111.134857 -112.897648 46.163742 -48.345702 
C -18.807373 16.206245 -55.312889 103.769762 -55.312889 195.06 
C -55.312889 286.350238 -18.807373 373.913755 46.163742 438.465702 
C 111.134857 503.017648 199.266968 539.287645 291.15 539.287645 
z
" clip-path="url(#p3fe8ec9226)" style="fill: #0871b7; fill-opacity: 0.752941; stroke: #231f20; stroke-linejoin: miter"/>
   </g>
   <g id="patch_93">
    <path d="M 198.15 493.087645 
C 290.033032 493.087645 378.165143 456.817648 443.136258 392.265702 
C 508.107373 327.713755 544.612889 240.150238 544.612889 148.86 
C 544.612889 57.569762 508.107373 -29.993755 443.136258 -94.545702 
C 378.165143 -159.097648 290.033032 -195.367645 198.15 -195.367645 
C 106.266968 -195.367645 18.134857 -159.097648 -46.836258 -94.545702 
C -111.807373 -29.993755 -148.312889 57.569762 -148.312889 148.86 
C -148.312889 240.150238 -111.807373 327.713755 -46.836258 392.265702 
C 18.134857 456.817648 106.266968 493.087645 198.15 493.087645 
z
" clip-path="url(#p3fe8ec9226)" style="fill: #0871b7; fill-opacity: 0.752941; stroke: #231f20; stroke-linejoin: miter"/>
   </g>
   <g id="patch_94">
    <path d="M 244.65 493.087645 
C 336.533032 493.087645 424.665143 456.817648 489.636258 392.265702 
C 554.607373 327.713755 591.112889 240.150238 591.112889 148.86 
C 591.112889 57.569762 554.607373 -29.993755 489.636258 -94.545702 
C 424.665143 -159.097648 336.533032 -195.367645 244.65 -195.367645 
C 152.766968 -195.367645 64.634857 -159.097648 -0.336258 -94.545702 
C -65.307373 -29.993755 -101.812889 57.569762 -101.812889 148.86 
C -101.812889 240.150238 -65.307373 327.713755 -0.336258 392.265702 
C 64.634857 456.817648 152.766968 493.087645 244.65 493.087645 
z
" clip-path="url(#p3fe8ec9226)" style="fill: #0871b7; fill-opacity: 0.752941; stroke: #231f20; stroke-linejoin: miter"/>
   </g>
   <g id="patch_95">
    <path d="M 221.4 657.312127 
C 320.122852 657.312127 414.815563 618.342174 484.623161 548.984947 
C 554.430759 479.62772 593.653764 385.545931 593.653764 287.46 
C 593.653764 189.374069 554.430759 95.29228 484.623161 25.935053 
C 414.815563 -43.422174 320.122852 -82.392127 221.4 -82.392127 
C 122.677148 -82.392127 27.984437 -43.422174 -41.823161 25.935053 
C -111.630759 95.29228 -150.853764 189.374069 -150.853764 287.46 
C -150.853764 385.545931 -111.630759 479.62772 -41.823161 548.984947 
C 27.984437 618.342174 122.677148 657.312127 221.4 657.312127 
z
" clip-path="url(#p3fe8ec9226)" style="fill: #b74e08; fill-opacity: 0.752941; stroke: #231f20; stroke-linejoin: miter"/>
   </g>
   <g id="patch_96">
    <path d="M 151.65 588.012127 
C 250.372852 588.012127 345.065563 549.042174 414.873161 479.684947 
C 484.680759 410.32772 523.903764 316.245931 523.903764 218.16 
C 523.903764 120.074069 484.680759 25.99228 414.873161 -43.364947 
C 345.065563 -112.722174 250.372852 -151.692127 151.65 -151.692127 
C 52.927148 -151.692127 -41.765563 -112.722174 -111.573161 -43.364947 
C -181.380759 25.99228 -220.603764 120.074069 -220.603764 218.16 
C -220.603764 316.245931 -181.380759 410.32772 -111.573161 479.684947 
C -41.765563 549.042174 52.927148 588.012127 151.65 588.012127 
z
" clip-path="url(#p3fe8ec9226)" style="fill: #b74e08; fill-opacity: 0.752941; stroke: #231f20; stroke-linejoin: miter"/>
   </g>
   <g id="patch_97">
    <path d="M 291.15 588.012127 
C 389.872852 588.012127 484.565563 549.042174 554.373161 479.684947 
C 624.180759 410.32772 663.403764 316.245931 663.403764 218.16 
C 663.403764 120.074069 624.180759 25.99228 554.373161 -43.364947 
C 484.565563 -112.722174 389.872852 -151.692127 291.15 -151.692127 
C 192.427148 -151.692127 97.734437 -112.722174 27.926839 -43.364947 
C -41.880759 25.99228 -81.103764 120.074069 -81.103764 218.16 
C -81.103764 316.245931 -41.880759 410.32772 27.926839 479.684947 
C 97.734437 549.042174 192.427148 588.012127 291.15 588.012127 
z
" clip-path="url(#p3fe8ec9226)" style="fill: #b74e08; fill-opacity: 0.752941; stroke: #231f20; stroke-linejoin: miter"/>
   </g>
   <g id="patch_98">
    <path d="M 221.4 518.712127 
C 320.122852 518.712127 414.815563 479.742174 484.623161 410.384947 
C 554.430759 341.02772 593.653764 246.945931 593.653764 148.86 
C 593.653764 50.774069 554.430759 -43.30772 484.623161 -112.664947 
C 414.815563 -182.022174 320.122852 -220.992127 221.4 -220.992127 
C 122.677148 -220.992127 27.984437 -182.022174 -41.823161 -112.664947 
C -111.630759 -43.30772 -150.853764 50.774069 -150.853764 148.86 
C -150.853764 246.945931 -111.630759 341.02772 -41.823161 410.384947 
C 27.984437 479.742174 122.677148 518.712127 221.4 518.712127 
z
" clip-path="url(#p3fe8ec9226)" style="fill: #b74e08; fill-opacity: 0.752941; stroke: #231f20; stroke-linejoin: miter"/>
   </g>
   <g id="patch_99">
    <path d="M 267.9 663.807 
C 374.52247 663.807 476.792313 621.718744 552.185784 546.811682 
C 627.579256 471.904621 669.940812 370.294583 669.940812 264.36 
C 669.940812 158.425417 627.579256 56.815379 552.185784 -18.091682 
C 476.792313 -92.998744 374.52247 -135.087 267.9 -135.087 
C 161.27753 -135.087 59.007687 -92.998744 -16.385784 -18.091682 
C -91.779256 56.815379 -134.140812 158.425417 -134.140812 264.36 
C -134.140812 370.294583 -91.779256 471.904621 -16.385784 546.811682 
C 59.007687 621.718744 161.27753 663.807 267.9 663.807 
z
" clip-path="url(#p3fe8ec9226)" style="fill: #0871b7; fill-opacity: 0.752941; stroke: #231f20; stroke-linejoin: miter"/>
   </g>
   <g id="patch_100">
    <path d="M 174.9 571.407 
C 281.52247 571.407 383.792313 529.318744 459.185784 454.411682 
C 534.579256 379.504621 576.940812 277.894583 576.940812 171.96 
C 576.940812 66.025417 534.579256 -35.584621 459.185784 -110.491682 
C 383.792313 -185.398744 281.52247 -227.487 174.9 -227.487 
C 68.27753 -227.487 -33.992313 -185.398744 -109.385784 -110.491682 
C -184.779256 -35.584621 -227.140812 66.025417 -227.140812 171.96 
C -227.140812 277.894583 -184.779256 379.504621 -109.385784 454.411682 
C -33.992313 529.318744 68.27753 571.407 174.9 571.407 
z
" clip-path="url(#p3fe8ec9226)" style="fill: #0871b7; fill-opacity: 0.752941; stroke: #231f20; stroke-linejoin: miter"/>
   </g>
   <g id="patch_101">
    <path d="M 174.9 663.807 
C 281.52247 663.807 383.792313 621.718744 459.185784 546.811682 
C 534.579256 471.904621 576.940812 370.294583 576.940812 264.36 
C 576.940812 158.425417 534.579256 56.815379 459.185784 -18.091682 
C 383.792313 -92.998744 281.52247 -135.087 174.9 -135.087 
C 68.27753 -135.087 -33.992313 -92.998744 -109.385784 -18.091682 
C -184.779256 56.815379 -227.140812 158.425417 -227.140812 264.36 
C -227.140812 370.294583 -184.779256 471.904621 -109.385784 546.811682 
C -33.992313 621.718744 68.27753 663.807 174.9 663.807 
z
" clip-path="url(#p3fe8ec9226)" style="fill: #0871b7; fill-opacity: 0.752941; stroke: #231f20; stroke-linejoin: miter"/>
   </g>
   <g id="patch_102">
    <path d="M 267.9 571.407 
C 374.52247 571.407 476.792313 529.318744 552.185784 454.411682 
C 627.579256 379.504621 669.940812 277.894583 669.940812 171.96 
C 669.940812 66.025417 627.579256 -35.584621 552.185784 -110.491682 
C 476.792313 -185.398744 374.52247 -227.487 267.9 -227.487 
C 161.27753 -227.487 59.007687 -185.398744 -16.385784 -110.491682 
C -91.779256 -35.584621 -134.140812 66.025417 -134.140812 171.96 
C -134.140812 277.894583 -91.779256 379.504621 -16.385784 454.411682 
C 59.007687 529.318744 161.27753 571.407 267.9 571.407 
z
" clip-path="url(#p3fe8ec9226)" style="fill: #0871b7; fill-opacity: 0.752941; stroke: #231f20; stroke-linejoin: miter"/>
   </g>
   <g id="patch_103">
    <path d="M 244.65 770.737932 
C 379.81503 770.737932 509.462247 717.382759 605.038356 622.42327 
C 700.614465 527.463781 754.316101 398.652997 754.316101 264.36 
C 754.316101 130.067003 700.614465 1.256219 605.038356 -93.70327 
C 509.462247 -188.662759 379.81503 -242.017932 244.65 -242.017932 
C 109.48497 -242.017932 -20.162247 -188.662759 -115.738356 -93.70327 
C -211.314465 1.256219 -265.016101 130.067003 -265.016101 264.36 
C -265.016101 398.652997 -211.314465 527.463781 -115.738356 622.42327 
C -20.162247 717.382759 109.48497 770.737932 244.65 770.737932 
z
" clip-path="url(#p3fe8ec9226)" style="fill: #b74e08; fill-opacity: 0.752941; stroke: #231f20; stroke-linejoin: miter"/>
   </g>
   <g id="patch_104">
    <path d="M 174.9 701.437932 
C 310.06503 701.437932 439.712247 648.082759 535.288356 553.12327 
C 630.864465 458.163781 684.566101 329.352997 684.566101 195.06 
C 684.566101 60.767003 630.864465 -68.043781 535.288356 -163.00327 
C 439.712247 -257.962759 310.06503 -311.317932 174.9 -311.317932 
C 39.73497 -311.317932 -89.912247 -257.962759 -185.488356 -163.00327 
C -281.064465 -68.043781 -334.766101 60.767003 -334.766101 195.06 
C -334.766101 329.352997 -281.064465 458.163781 -185.488356 553.12327 
C -89.912247 648.082759 39.73497 701.437932 174.9 701.437932 
z
" clip-path="url(#p3fe8ec9226)" style="fill: #b74e08; fill-opacity: 0.752941; stroke: #231f20; stroke-linejoin: miter"/>
   </g>
   <g id="patch_105">
    <path d="M 198.15 770.737932 
C 333.31503 770.737932 462.962247 717.382759 558.538356 622.42327 
C 654.114465 527.463781 707.816101 398.652997 707.816101 264.36 
C 707.816101 130.067003 654.114465 1.256219 558.538356 -93.70327 
C 462.962247 -188.662759 333.31503 -242.017932 198.15 -242.017932 
C 62.98497 -242.017932 -66.662247 -188.662759 -162.238356 -93.70327 
C -257.814465 1.256219 -311.516101 130.067003 -311.516101 264.36 
C -311.516101 398.652997 -257.814465 527.463781 -162.238356 622.42327 
C -66.662247 717.382759 62.98497 770.737932 198.15 770.737932 
z
" clip-path="url(#p3fe8ec9226)" style="fill: #b74e08; fill-opacity: 0.752941; stroke: #231f20; stroke-linejoin: miter"/>
   </g>
   <g id="patch_106">
    <path d="M 174.9 747.637932 
C 310.06503 747.637932 439.712247 694.282759 535.288356 599.32327 
C 630.864465 504.363781 684.566101 375.552997 684.566101 241.26 
C 684.566101 106.967003 630.864465 -21.843781 535.288356 -116.80327 
C 439.712247 -211.762759 310.06503 -265.117932 174.9 -265.117932 
C 39.73497 -265.117932 -89.912247 -211.762759 -185.488356 -116.80327 
C -281.064465 -21.843781 -334.766101 106.967003 -334.766101 241.26 
C -334.766101 375.552997 -281.064465 504.363781 -185.488356 599.32327 
C -89.912247 694.282759 39.73497 747.637932 174.9 747.637932 
z
" clip-path="url(#p3fe8ec9226)" style="fill: #b74e08; fill-opacity: 0.752941; stroke: #231f20; stroke-linejoin: miter"/>
   </g>
   <g id="patch_107">
    <path d="M 267.9 701.437932 
C 403.06503 701.437932 532.712247 648.082759 628.288356 553.12327 
C 723.864465 458.163781 777.566101 329.352997 777.566101 195.06 
C 777.566101 60.767003 723.864465 -68.043781 628.288356 -163.00327 
C 532.712247 -257.962759 403.06503 -311.317932 267.9 -311.317932 
C 132.73497 -311.317932 3.087753 -257.962759 -92.488356 -163.00327 
C -188.064465 -68.043781 -241.766101 60.767003 -241.766101 195.06 
C -241.766101 329.352997 -188.064465 458.163781 -92.488356 553.12327 
C 3.087753 648.082759 132.73497 701.437932 267.9 701.437932 
z
" clip-path="url(#p3fe8ec9226)" style="fill: #b74e08; fill-opacity: 0.752941; stroke: #231f20; stroke-linejoin: miter"/>
   </g>
   <g id="patch_108">
    <path d="M 244.65 678.337932 
C 379.81503 678.337932 509.462247 624.982759 605.038356 530.02327 
C 700.614465 435.063781 754.316101 306.252997 754.316101 171.96 
C 754.316101 37.667003 700.614465 -91.143781 605.038356 -186.10327 
C 509.462247 -281.062759 379.81503 -334.417932 244.65 -334.417932 
C 109.48497 -334.417932 -20.162247 -281.062759 -115.738356 -186.10327 
C -211.314465 -91.143781 -265.016101 37.667003 -265.016101 171.96 
C -265.016101 306.252997 -211.314465 435.063781 -115.738356 530.02327 
C -20.162247 624.982759 109.48497 678.337932 244.65 678.337932 
z
" clip-path="url(#p3fe8ec9226)" style="fill: #b74e08; fill-opacity: 0.752941; stroke: #231f20; stroke-linejoin: miter"/>
   </g>
   <g id="patch_109">
    <path d="M 267.9 747.637932 
C 403.06503 747.637932 532.712247 694.282759 628.288356 599.32327 
C 723.864465 504.363781 777.566101 375.552997 777.566101 241.26 
C 777.566101 106.967003 723.864465 -21.843781 628.288356 -116.80327 
C 532.712247 -211.762759 403.06503 -265.117932 267.9 -265.117932 
C 132.73497 -265.117932 3.087753 -211.762759 -92.488356 -116.80327 
C -188.064465 -21.843781 -241.766101 106.967003 -241.766101 241.26 
C -241.766101 375.552997 -188.064465 504.363781 -92.488356 599.32327 
C 3.087753 694.282759 132.73497 747.637932 267.9 747.637932 
z
" clip-path="url(#p3fe8ec9226)" style="fill: #b74e08; fill-opacity: 0.752941; stroke: #231f20; stroke-linejoin: miter"/>
   </g>
   <g id="patch_110">
    <path d="M 198.15 678.337932 
C 333.31503 678.337932 462.962247 624.982759 558.538356 530.02327 
C 654.114465 435.063781 707.816101 306.252997 707.816101 171.96 
C 707.816101 37.667003 654.114465 -91.143781 558.538356 -186.10327 
C 462.962247 -281.062759 333.31503 -334.417932 198.15 -334.417932 
C 62.98497 -334.417932 -66.662247 -281.062759 -162.238356 -186.10327 
C -257.814465 -91.143781 -311.516101 37.667003 -311.516101 171.96 
C -311.516101 306.252997 -257.814465 435.063781 -162.238356 530.02327 
C -66.662247 624.982759 62.98497 678.337932 198.15 678.337932 
z
" clip-path="url(#p3fe8ec9226)" style="fill: #b74e08; fill-opacity: 0.752941; stroke: #231f20; stroke-linejoin: miter"/>
   </g>
   <g id="patch_111">
    <path d="M 221.4 808.432966 
C 366.626784 808.432966 505.925006 751.106006 608.61585 649.077684 
C 711.306694 547.049361 769.005907 408.649837 769.005907 264.36 
C 769.005907 120.070163 711.306694 -18.329361 608.61585 -120.357684 
C 505.925006 -222.386006 366.626784 -279.712966 221.4 -279.712966 
C 76.173216 -279.712966 -63.125006 -222.386006 -165.81585 -120.357684 
C -268.506694 -18.329361 -326.205907 120.070163 -326.205907 264.36 
C -326.205907 408.649837 -268.506694 547.049361 -165.81585 649.077684 
C -63.125006 751.106006 76.173216 808.432966 221.4 808.432966 
z
" clip-path="url(#p3fe8ec9226)" style="fill: #0871b7; fill-opacity: 0.752941; stroke: #231f20; stroke-linejoin: miter"/>
   </g>
   <g id="patch_112">
    <path d="M 174.9 762.232966 
C 320.126784 762.232966 459.425006 704.906006 562.11585 602.877684 
C 664.806694 500.849361 722.505907 362.449837 722.505907 218.16 
C 722.505907 73.870163 664.806694 -64.529361 562.11585 -166.557684 
C 459.425006 -268.586006 320.126784 -325.912966 174.9 -325.912966 
C 29.673216 -325.912966 -109.625006 -268.586006 -212.31585 -166.557684 
C -315.006694 -64.529361 -372.705907 73.870163 -372.705907 218.16 
C -372.705907 362.449837 -315.006694 500.849361 -212.31585 602.877684 
C -109.625006 704.906006 29.673216 762.232966 174.9 762.232966 
z
" clip-path="url(#p3fe8ec9226)" style="fill: #0871b7; fill-opacity: 0.752941; stroke: #231f20; stroke-linejoin: miter"/>
   </g>
   <g id="patch_113">
    <path d="M 267.9 762.232966 
C 413.126784 762.232966 552.425006 704.906006 655.11585 602.877684 
C 757.806694 500.849361 815.505907 362.449837 815.505907 218.16 
C 815.505907 73.870163 757.806694 -64.529361 655.11585 -166.557684 
C 552.425006 -268.586006 413.126784 -325.912966 267.9 -325.912966 
C 122.673216 -325.912966 -16.625006 -268.586006 -119.31585 -166.557684 
C -222.006694 -64.529361 -279.705907 73.870163 -279.705907 218.16 
C -279.705907 362.449837 -222.006694 500.849361 -119.31585 602.877684 
C -16.625006 704.906006 122.673216 762.232966 267.9 762.232966 
z
" clip-path="url(#p3fe8ec9226)" style="fill: #0871b7; fill-opacity: 0.752941; stroke: #231f20; stroke-linejoin: miter"/>
   </g>
   <g id="patch_114">
    <path d="M 221.4 716.032966 
C 366.626784 716.032966 505.925006 658.706006 608.61585 556.677684 
C 711.306694 454.649361 769.005907 316.249837 769.005907 171.96 
C 769.005907 27.670163 711.306694 -110.729361 608.61585 -212.757684 
C 505.925006 -314.786006 366.626784 -372.112966 221.4 -372.112966 
C 76.173216 -372.112966 -63.125006 -314.786006 -165.81585 -212.757684 
C -268.506694 -110.729361 -326.205907 27.670163 -326.205907 171.96 
C -326.205907 316.249837 -268.506694 454.649361 -165.81585 556.677684 
C -63.125006 658.706006 76.173216 716.032966 221.4 716.032966 
z
" clip-path="url(#p3fe8ec9226)" style="fill: #0871b7; fill-opacity: 0.752941; stroke: #231f20; stroke-linejoin: miter"/>
   </g>
   <g id="patch_115">
    <path d="M 198.15 883.194 
C 369.49836 883.194 533.851803 815.555784 655.01339 695.175884 
C 776.174978 574.795985 844.252403 411.502887 844.252403 241.26 
C 844.252403 71.017113 776.174978 -92.275985 655.01339 -212.655884 
C 533.851803 -333.035784 369.49836 -400.674 198.15 -400.674 
C 26.80164 -400.674 -137.551803 -333.035784 -258.71339 -212.655884 
C -379.874978 -92.275985 -447.952403 71.017113 -447.952403 241.26 
C -447.952403 411.502887 -379.874978 574.795985 -258.71339 695.175884 
C -137.551803 815.555784 26.80164 883.194 198.15 883.194 
z
" clip-path="url(#p3fe8ec9226)" style="fill: #0871b7; fill-opacity: 0.752941; stroke: #231f20; stroke-linejoin: miter"/>
   </g>
   <g id="patch_116">
    <path d="M 244.65 836.994 
C 415.99836 836.994 580.351803 769.355784 701.51339 648.975884 
C 822.674978 528.595985 890.752403 365.302887 890.752403 195.06 
C 890.752403 24.817113 822.674978 -138.475985 701.51339 -258.855884 
C 580.351803 -379.235784 415.99836 -446.874 244.65 -446.874 
C 73.30164 -446.874 -91.051803 -379.235784 -212.21339 -258.855884 
C -333.374978 -138.475985 -401.452403 24.817113 -401.452403 195.06 
C -401.452403 365.302887 -333.374978 528.595985 -212.21339 648.975884 
C -91.051803 769.355784 73.30164 836.994 244.65 836.994 
z
" clip-path="url(#p3fe8ec9226)" style="fill: #0871b7; fill-opacity: 0.752941; stroke: #231f20; stroke-linejoin: miter"/>
   </g>
   <g id="patch_117">
    <path d="M 244.65 883.194 
C 415.99836 883.194 580.351803 815.555784 701.51339 695.175884 
C 822.674978 574.795985 890.752403 411.502887 890.752403 241.26 
C 890.752403 71.017113 822.674978 -92.275985 701.51339 -212.655884 
C 580.351803 -333.035784 415.99836 -400.674 244.65 -400.674 
C 73.30164 -400.674 -91.051803 -333.035784 -212.21339 -212.655884 
C -333.374978 -92.275985 -401.452403 71.017113 -401.452403 241.26 
C -401.452403 411.502887 -333.374978 574.795985 -212.21339 695.175884 
C -91.051803 815.555784 73.30164 883.194 244.65 883.194 
z
" clip-path="url(#p3fe8ec9226)" style="fill: #0871b7; fill-opacity: 0.752941; stroke: #231f20; stroke-linejoin: miter"/>
   </g>
   <g id="patch_118">
    <path d="M 198.15 836.994 
C 369.49836 836.994 533.851803 769.355784 655.01339 648.975884 
C 776.174978 528.595985 844.252403 365.302887 844.252403 195.06 
C 844.252403 24.817113 776.174978 -138.475985 655.01339 -258.855884 
C 533.851803 -379.235784 369.49836 -446.874 198.15 -446.874 
C 26.80164 -446.874 -137.551803 -379.235784 -258.71339 -258.855884 
C -379.874978 -138.475985 -447.952403 24.817113 -447.952403 195.06 
C -447.952403 365.302887 -379.874978 528.595985 -258.71339 648.975884 
C -137.551803 769.355784 26.80164 836.994 198.15 836.994 
z
" clip-path="url(#p3fe8ec9226)" style="fill: #0871b7; fill-opacity: 0.752941; stroke: #231f20; stroke-linejoin: miter"/>
   </g>
   <g id="patch_119">
    <path d="M 244.65 907.879897 
C 428.75362 907.879897 605.341617 835.206657 735.522536 705.865616 
C 865.703454 576.524575 938.848597 401.075855 938.848597 218.16 
C 938.848597 35.244145 865.703454 -140.204575 735.522536 -269.545616 
C 605.341617 -398.886657 428.75362 -471.559897 244.65 -471.559897 
C 60.54638 -471.559897 -116.041617 -398.886657 -246.222536 -269.545616 
C -376.403454 -140.204575 -449.548597 35.244145 -449.548597 218.16 
C -449.548597 401.075855 -376.403454 576.524575 -246.222536 705.865616 
C -116.041617 835.206657 60.54638 907.879897 244.65 907.879897 
z
" clip-path="url(#p3fe8ec9226)" style="fill: #b74e08; fill-opacity: 0.752941; stroke: #231f20; stroke-linejoin: miter"/>
   </g>
   <g id="patch_120">
    <path d="M 221.4 884.779897 
C 405.50362 884.779897 582.091617 812.106657 712.272536 682.765616 
C 842.453454 553.424575 915.598597 377.975855 915.598597 195.06 
C 915.598597 12.144145 842.453454 -163.304575 712.272536 -292.645616 
C 582.091617 -421.986657 405.50362 -494.659897 221.4 -494.659897 
C 37.29638 -494.659897 -139.291617 -421.986657 -269.472536 -292.645616 
C -399.653454 -163.304575 -472.798597 12.144145 -472.798597 195.06 
C -472.798597 377.975855 -399.653454 553.424575 -269.472536 682.765616 
C -139.291617 812.106657 37.29638 884.779897 221.4 884.779897 
z
" clip-path="url(#p3fe8ec9226)" style="fill: #b74e08; fill-opacity: 0.752941; stroke: #231f20; stroke-linejoin: miter"/>
   </g>
   <g id="patch_121">
    <path d="M 221.4 930.979897 
C 405.50362 930.979897 582.091617 858.306657 712.272536 728.965616 
C 842.453454 599.624575 915.598597 424.175855 915.598597 241.26 
C 915.598597 58.344145 842.453454 -117.104575 712.272536 -246.445616 
C 582.091617 -375.786657 405.50362 -448.459897 221.4 -448.459897 
C 37.29638 -448.459897 -139.291617 -375.786657 -269.472536 -246.445616 
C -399.653454 -117.104575 -472.798597 58.344145 -472.798597 241.26 
C -472.798597 424.175855 -399.653454 599.624575 -269.472536 728.965616 
C -139.291617 858.306657 37.29638 930.979897 221.4 930.979897 
z
" clip-path="url(#p3fe8ec9226)" style="fill: #b74e08; fill-opacity: 0.752941; stroke: #231f20; stroke-linejoin: miter"/>
   </g>
   <g id="patch_122">
    <path d="M 198.15 907.879897 
C 382.25362 907.879897 558.841617 835.206657 689.022536 705.865616 
C 819.203454 576.524575 892.348597 401.075855 892.348597 218.16 
C 892.348597 35.244145 819.203454 -140.204575 689.022536 -269.545616 
C 558.841617 -398.886657 382.25362 -471.559897 198.15 -471.559897 
C 14.04638 -471.559897 -162.541617 -398.886657 -292.722536 -269.545616 
C -422.903454 -140.204575 -496.048597 35.244145 -496.048597 218.16 
C -496.048597 401.075855 -422.903454 576.524575 -292.722536 705.865616 
C -162.541617 835.206657 14.04638 907.879897 198.15 907.879897 
z
" clip-path="url(#p3fe8ec9226)" style="fill: #b74e08; fill-opacity: 0.752941; stroke: #231f20; stroke-linejoin: miter"/>
   </g>
   <g id="patch_123">
    <path d="M 221.4 959.223 
C 419.208388 959.223 608.941687 881.139927 748.813339 742.170673 
C 888.684992 603.201418 967.275097 414.692205 967.275097 218.16 
C 967.275097 21.627795 888.684992 -166.881418 748.813339 -305.850673 
C 608.941687 -444.819927 419.208388 -522.903 221.4 -522.903 
C 23.591612 -522.903 -166.141687 -444.819927 -306.013339 -305.850673 
C -445.884992 -166.881418 -524.475097 21.627795 -524.475097 218.16 
C -524.475097 414.692205 -445.884992 603.201418 -306.013339 742.170673 
C -166.141687 881.139927 23.591612 959.223 221.4 959.223 
z
" clip-path="url(#p3fe8ec9226)" style="fill: #0871b7; fill-opacity: 0.752941; stroke: #231f20; stroke-linejoin: miter"/>
   </g>
  </g>
 </g>
 <defs>
  <clipPath id="p3fe8ec9226">
   <rect x="54" y="51.84" width="334.8" height="332.64"/>
  </clipPath>
 </defs>
</svg>
