<?xml version="1.0" encoding="utf-8" standalone="no"?>
<!DOCTYPE svg PUBLIC "-//W3C//DTD SVG 1.1//EN"
  "http://www.w3.org/Graphics/SVG/1.1/DTD/svg11.dtd">
<svg xmlns:xlink="http://www.w3.org/1999/xlink" width="432pt" height="432pt" viewBox="0 0 432 432" xmlns="http://www.w3.org/2000/svg" version="1.1">
 <metadata>
  <rdf:RDF xmlns:dc="http://purl.org/dc/elements/1.1/" xmlns:cc="http://creativecommons.org/ns#" xmlns:rdf="http://www.w3.org/1999/02/22-rdf-syntax-ns#">
   <cc:Work>
    <dc:type rdf:resource="http://purl.org/dc/dcmitype/StillImage"/>
    <dc:date>2025-03-02T17:37:36.395323</dc:date>
    <dc:format>image/svg+xml</dc:format>
    <dc:creator>
     <cc:Agent>
      <dc:title>Matplotlib v3.10.0, https://matplotlib.org/</dc:title>
     </cc:Agent>
    </dc:creator>
   </cc:Work>
  </rdf:RDF>
 </metadata>
 <defs>
  <style type="text/css">*{stroke-linejoin: round; stroke-linecap: butt}</style>
 </defs>
 <g id="figure_1">
  <g id="patch_1">
   <path d="M 0 432 
L 432 432 
L 432 0 
L 0 0 
z
" style="fill: #ffffff"/>
  </g>
  <g id="axes_1">
   <g id="patch_2">
    <path d="M 81.9 356.76 
L 360.9 356.76 
L 360.9 79.56 
L 81.9 79.56 
L 81.9 356.76 
z
" clip-path="url(#ped6da021e0)" style="fill: none; stroke: #969696; stroke-width: 1.5; stroke-linejoin: miter"/>
   </g>
   <g id="patch_3">
    <path d="M 94.987911 347.861285 
C 96.083575 347.861285 97.13451 347.428782 97.909261 346.659029 
C 98.684012 345.889276 99.119324 344.845121 99.119324 343.756527 
C 99.119324 342.667932 98.684012 341.623777 97.909261 340.854024 
C 97.13451 340.084272 96.083575 339.651768 94.987911 339.651768 
C 93.892248 339.651768 92.841313 340.084272 92.066562 340.854024 
C 91.291811 341.623777 90.856499 342.667932 90.856499 343.756527 
C 90.856499 344.845121 91.291811 345.889276 92.066562 346.659029 
C 92.841313 347.428782 93.892248 347.861285 94.987911 347.861285 
z
" clip-path="url(#ped6da021e0)" style="fill: #0871b7; fill-opacity: 0.752941; stroke: #231f20; stroke-linejoin: miter"/>
   </g>
   <g id="patch_4">
    <path d="M 347.812089 347.861285 
C 348.907752 347.861285 349.958687 347.428782 350.733438 346.659029 
C 351.508189 345.889276 351.943501 344.845121 351.943501 343.756527 
C 351.943501 342.667932 351.508189 341.623777 350.733438 340.854024 
C 349.958687 340.084272 348.907752 339.651768 347.812089 339.651768 
C 346.716425 339.651768 345.66549 340.084272 344.890739 340.854024 
C 344.115988 341.623777 343.680676 342.667932 343.680676 343.756527 
C 343.680676 344.845121 344.115988 345.889276 344.890739 346.659029 
C 345.66549 347.428782 346.716425 347.861285 347.812089 347.861285 
z
" clip-path="url(#ped6da021e0)" style="fill: #0871b7; fill-opacity: 0.752941; stroke: #231f20; stroke-linejoin: miter"/>
   </g>
   <g id="patch_5">
    <path d="M 94.987911 96.668232 
C 96.083575 96.668232 97.13451 96.235728 97.909261 95.465976 
C 98.684012 94.696223 99.119324 93.652068 99.119324 92.563473 
C 99.119324 91.474879 98.684012 90.430724 97.909261 89.660971 
C 97.13451 88.891218 96.083575 88.458715 94.987911 88.458715 
C 93.892248 88.458715 92.841313 88.891218 92.066562 89.660971 
C 91.291811 90.430724 90.856499 91.474879 90.856499 92.563473 
C 90.856499 93.652068 91.291811 94.696223 92.066562 95.465976 
C 92.841313 96.235728 93.892248 96.668232 94.987911 96.668232 
z
" clip-path="url(#ped6da021e0)" style="fill: #0871b7; fill-opacity: 0.752941; stroke: #231f20; stroke-linejoin: miter"/>
   </g>
   <g id="patch_6">
    <path d="M 347.812089 96.668232 
C 348.907752 96.668232 349.958687 96.235728 350.733438 95.465976 
C 351.508189 94.696223 351.943501 93.652068 351.943501 92.563473 
C 351.943501 91.474879 351.508189 90.430724 350.733438 89.660971 
C 349.958687 88.891218 348.907752 88.458715 347.812089 88.458715 
C 346.716425 88.458715 345.66549 88.891218 344.890739 89.660971 
C 344.115988 90.430724 343.680676 91.474879 343.680676 92.563473 
C 343.680676 93.652068 344.115988 94.696223 344.890739 95.465976 
C 345.66549 96.235728 346.716425 96.668232 347.812089 96.668232 
z
" clip-path="url(#ped6da021e0)" style="fill: #0871b7; fill-opacity: 0.752941; stroke: #231f20; stroke-linejoin: miter"/>
   </g>
   <g id="patch_7">
    <path d="M 146.283531 349.590706 
C 147.840821 349.590706 149.334537 348.97598 150.435707 347.881914 
C 151.536877 346.787849 152.155595 345.303769 152.155595 343.756527 
C 152.155595 342.209284 151.536877 340.725205 150.435707 339.631139 
C 149.334537 338.537073 147.840821 337.922347 146.283531 337.922347 
C 144.726242 337.922347 143.232525 338.537073 142.131355 339.631139 
C 141.030185 340.725205 140.411468 342.209284 140.411468 343.756527 
C 140.411468 345.303769 141.030185 346.787849 142.131355 347.881914 
C 143.232525 348.97598 144.726242 349.590706 146.283531 349.590706 
z
" clip-path="url(#ped6da021e0)" style="fill: #0871b7; fill-opacity: 0.752941; stroke: #231f20; stroke-linejoin: miter"/>
   </g>
   <g id="patch_8">
    <path d="M 296.516469 349.590706 
C 298.073758 349.590706 299.567475 348.97598 300.668645 347.881914 
C 301.769815 346.787849 302.388532 345.303769 302.388532 343.756527 
C 302.388532 342.209284 301.769815 340.725205 300.668645 339.631139 
C 299.567475 338.537073 298.073758 337.922347 296.516469 337.922347 
C 294.959179 337.922347 293.465463 338.537073 292.364293 339.631139 
C 291.263123 340.725205 290.644405 342.209284 290.644405 343.756527 
C 290.644405 345.303769 291.263123 346.787849 292.364293 347.881914 
C 293.465463 348.97598 294.959179 349.590706 296.516469 349.590706 
z
" clip-path="url(#ped6da021e0)" style="fill: #0871b7; fill-opacity: 0.752941; stroke: #231f20; stroke-linejoin: miter"/>
   </g>
   <g id="patch_9">
    <path d="M 94.987911 298.626026 
C 96.545201 298.626026 98.038918 298.0113 99.140087 296.917234 
C 100.241257 295.823168 100.859975 294.339089 100.859975 292.791846 
C 100.859975 291.244604 100.241257 289.760524 99.140087 288.666459 
C 98.038918 287.572393 96.545201 286.957667 94.987911 286.957667 
C 93.430622 286.957667 91.936905 287.572393 90.835736 288.666459 
C 89.734566 289.760524 89.115848 291.244604 89.115848 292.791846 
C 89.115848 294.339089 89.734566 295.823168 90.835736 296.917234 
C 91.936905 298.0113 93.430622 298.626026 94.987911 298.626026 
z
" clip-path="url(#ped6da021e0)" style="fill: #0871b7; fill-opacity: 0.752941; stroke: #231f20; stroke-linejoin: miter"/>
   </g>
   <g id="patch_10">
    <path d="M 94.987911 149.362333 
C 96.545201 149.362333 98.038918 148.747607 99.140087 147.653541 
C 100.241257 146.559476 100.859975 145.075396 100.859975 143.528154 
C 100.859975 141.980911 100.241257 140.496832 99.140087 139.402766 
C 98.038918 138.3087 96.545201 137.693974 94.987911 137.693974 
C 93.430622 137.693974 91.936905 138.3087 90.835736 139.402766 
C 89.734566 140.496832 89.115848 141.980911 89.115848 143.528154 
C 89.115848 145.075396 89.734566 146.559476 90.835736 147.653541 
C 91.936905 148.747607 93.430622 149.362333 94.987911 149.362333 
z
" clip-path="url(#ped6da021e0)" style="fill: #0871b7; fill-opacity: 0.752941; stroke: #231f20; stroke-linejoin: miter"/>
   </g>
   <g id="patch_11">
    <path d="M 347.812089 298.626026 
C 349.369378 298.626026 350.863095 298.0113 351.964264 296.917234 
C 353.065434 295.823168 353.684152 294.339089 353.684152 292.791846 
C 353.684152 291.244604 353.065434 289.760524 351.964264 288.666459 
C 350.863095 287.572393 349.369378 286.957667 347.812089 286.957667 
C 346.254799 286.957667 344.761082 287.572393 343.659913 288.666459 
C 342.558743 289.760524 341.940025 291.244604 341.940025 292.791846 
C 341.940025 294.339089 342.558743 295.823168 343.659913 296.917234 
C 344.761082 298.0113 346.254799 298.626026 347.812089 298.626026 
z
" clip-path="url(#ped6da021e0)" style="fill: #0871b7; fill-opacity: 0.752941; stroke: #231f20; stroke-linejoin: miter"/>
   </g>
   <g id="patch_12">
    <path d="M 347.812089 149.362333 
C 349.369378 149.362333 350.863095 148.747607 351.964264 147.653541 
C 353.065434 146.559476 353.684152 145.075396 353.684152 143.528154 
C 353.684152 141.980911 353.065434 140.496832 351.964264 139.402766 
C 350.863095 138.3087 349.369378 137.693974 347.812089 137.693974 
C 346.254799 137.693974 344.761082 138.3087 343.659913 139.402766 
C 342.558743 140.496832 341.940025 141.980911 341.940025 143.528154 
C 341.940025 145.075396 342.558743 146.559476 343.659913 147.653541 
C 344.761082 148.747607 346.254799 149.362333 347.812089 149.362333 
z
" clip-path="url(#ped6da021e0)" style="fill: #0871b7; fill-opacity: 0.752941; stroke: #231f20; stroke-linejoin: miter"/>
   </g>
   <g id="patch_13">
    <path d="M 146.283531 98.397653 
C 147.840821 98.397653 149.334537 97.782927 150.435707 96.688861 
C 151.536877 95.594795 152.155595 94.110716 152.155595 92.563473 
C 152.155595 91.016231 151.536877 89.532151 150.435707 88.438086 
C 149.334537 87.34402 147.840821 86.729294 146.283531 86.729294 
C 144.726242 86.729294 143.232525 87.34402 142.131355 88.438086 
C 141.030185 89.532151 140.411468 91.016231 140.411468 92.563473 
C 140.411468 94.110716 141.030185 95.594795 142.131355 96.688861 
C 143.232525 97.782927 144.726242 98.397653 146.283531 98.397653 
z
" clip-path="url(#ped6da021e0)" style="fill: #0871b7; fill-opacity: 0.752941; stroke: #231f20; stroke-linejoin: miter"/>
   </g>
   <g id="patch_14">
    <path d="M 296.516469 98.397653 
C 298.073758 98.397653 299.567475 97.782927 300.668645 96.688861 
C 301.769815 95.594795 302.388532 94.110716 302.388532 92.563473 
C 302.388532 91.016231 301.769815 89.532151 300.668645 88.438086 
C 299.567475 87.34402 298.073758 86.729294 296.516469 86.729294 
C 294.959179 86.729294 293.465463 87.34402 292.364293 88.438086 
C 291.263123 89.532151 290.644405 91.016231 290.644405 92.563473 
C 290.644405 94.110716 291.263123 95.594795 292.364293 96.688861 
C 293.465463 97.782927 294.959179 98.397653 296.516469 98.397653 
z
" clip-path="url(#ped6da021e0)" style="fill: #0871b7; fill-opacity: 0.752941; stroke: #231f20; stroke-linejoin: miter"/>
   </g>
   <g id="patch_15">
    <path d="M 221.4 350.117069 
C 223.097789 350.117069 224.72627 349.446882 225.926788 348.254109 
C 227.127306 347.061336 227.801844 345.443362 227.801844 343.756527 
C 227.801844 342.069691 227.127306 340.451717 225.926788 339.258944 
C 224.72627 338.066171 223.097789 337.395984 221.4 337.395984 
C 219.702211 337.395984 218.07373 338.066171 216.873212 339.258944 
C 215.672694 340.451717 214.998156 342.069691 214.998156 343.756527 
C 214.998156 345.443362 215.672694 347.061336 216.873212 348.254109 
C 218.07373 349.446882 219.702211 350.117069 221.4 350.117069 
z
" clip-path="url(#ped6da021e0)" style="fill: #0871b7; fill-opacity: 0.752941; stroke: #231f20; stroke-linejoin: miter"/>
   </g>
   <g id="patch_16">
    <path d="M 94.987911 224.520542 
C 96.6857 224.520542 98.314181 223.850355 99.514699 222.657583 
C 100.715217 221.46481 101.389756 219.846836 101.389756 218.16 
C 101.389756 216.473164 100.715217 214.85519 99.514699 213.662417 
C 98.314181 212.469645 96.6857 211.799458 94.987911 211.799458 
C 93.290122 211.799458 91.661642 212.469645 90.461124 213.662417 
C 89.260606 214.85519 88.586067 216.473164 88.586067 218.16 
C 88.586067 219.846836 89.260606 221.46481 90.461124 222.657583 
C 91.661642 223.850355 93.290122 224.520542 94.987911 224.520542 
z
" clip-path="url(#ped6da021e0)" style="fill: #0871b7; fill-opacity: 0.752941; stroke: #231f20; stroke-linejoin: miter"/>
   </g>
   <g id="patch_17">
    <path d="M 347.812089 224.520542 
C 349.509878 224.520542 351.138358 223.850355 352.338876 222.657583 
C 353.539394 221.46481 354.213933 219.846836 354.213933 218.16 
C 354.213933 216.473164 353.539394 214.85519 352.338876 213.662417 
C 351.138358 212.469645 349.509878 211.799458 347.812089 211.799458 
C 346.1143 211.799458 344.485819 212.469645 343.285301 213.662417 
C 342.084783 214.85519 341.410244 216.473164 341.410244 218.16 
C 341.410244 219.846836 342.084783 221.46481 343.285301 222.657583 
C 344.485819 223.850355 346.1143 224.520542 347.812089 224.520542 
z
" clip-path="url(#ped6da021e0)" style="fill: #0871b7; fill-opacity: 0.752941; stroke: #231f20; stroke-linejoin: miter"/>
   </g>
   <g id="patch_18">
    <path d="M 221.4 98.924016 
C 223.097789 98.924016 224.72627 98.253829 225.926788 97.061056 
C 227.127306 95.868283 227.801844 94.250309 227.801844 92.563473 
C 227.801844 90.876638 227.127306 89.258664 225.926788 88.065891 
C 224.72627 86.873118 223.097789 86.202931 221.4 86.202931 
C 219.702211 86.202931 218.07373 86.873118 216.873212 88.065891 
C 215.672694 89.258664 214.998156 90.876638 214.998156 92.563473 
C 214.998156 94.250309 215.672694 95.868283 216.873212 97.061056 
C 218.07373 98.253829 219.702211 98.924016 221.4 98.924016 
z
" clip-path="url(#ped6da021e0)" style="fill: #0871b7; fill-opacity: 0.752941; stroke: #231f20; stroke-linejoin: miter"/>
   </g>
   <g id="patch_19">
    <path d="M 146.283531 301.084088 
C 148.49694 301.084088 150.61999 300.210365 152.185106 298.655347 
C 153.750222 297.100328 154.629619 294.990975 154.629619 292.791846 
C 154.629619 290.592718 153.750222 288.483365 152.185106 286.928346 
C 150.61999 285.373328 148.49694 284.499605 146.283531 284.499605 
C 144.070123 284.499605 141.947072 285.373328 140.381956 286.928346 
C 138.81684 288.483365 137.937444 290.592718 137.937444 292.791846 
C 137.937444 294.990975 138.81684 297.100328 140.381956 298.655347 
C 141.947072 300.210365 144.070123 301.084088 146.283531 301.084088 
z
" clip-path="url(#ped6da021e0)" style="fill: #0871b7; fill-opacity: 0.752941; stroke: #231f20; stroke-linejoin: miter"/>
   </g>
   <g id="patch_20">
    <path d="M 296.516469 301.084088 
C 298.729877 301.084088 300.852928 300.210365 302.418044 298.655347 
C 303.98316 297.100328 304.862556 294.990975 304.862556 292.791846 
C 304.862556 290.592718 303.98316 288.483365 302.418044 286.928346 
C 300.852928 285.373328 298.729877 284.499605 296.516469 284.499605 
C 294.30306 284.499605 292.18001 285.373328 290.614894 286.928346 
C 289.049778 288.483365 288.170381 290.592718 288.170381 292.791846 
C 288.170381 294.990975 289.049778 297.100328 290.614894 298.655347 
C 292.18001 300.210365 294.30306 301.084088 296.516469 301.084088 
z
" clip-path="url(#ped6da021e0)" style="fill: #0871b7; fill-opacity: 0.752941; stroke: #231f20; stroke-linejoin: miter"/>
   </g>
   <g id="patch_21">
    <path d="M 146.283531 151.820395 
C 148.49694 151.820395 150.61999 150.946672 152.185106 149.391654 
C 153.750222 147.836635 154.629619 145.727282 154.629619 143.528154 
C 154.629619 141.329025 153.750222 139.219672 152.185106 137.664653 
C 150.61999 136.109635 148.49694 135.235912 146.283531 135.235912 
C 144.070123 135.235912 141.947072 136.109635 140.381956 137.664653 
C 138.81684 139.219672 137.937444 141.329025 137.937444 143.528154 
C 137.937444 145.727282 138.81684 147.836635 140.381956 149.391654 
C 141.947072 150.946672 144.070123 151.820395 146.283531 151.820395 
z
" clip-path="url(#ped6da021e0)" style="fill: #0871b7; fill-opacity: 0.752941; stroke: #231f20; stroke-linejoin: miter"/>
   </g>
   <g id="patch_22">
    <path d="M 296.516469 151.820395 
C 298.729877 151.820395 300.852928 150.946672 302.418044 149.391654 
C 303.98316 147.836635 304.862556 145.727282 304.862556 143.528154 
C 304.862556 141.329025 303.98316 139.219672 302.418044 137.664653 
C 300.852928 136.109635 298.729877 135.235912 296.516469 135.235912 
C 294.30306 135.235912 292.18001 136.109635 290.614894 137.664653 
C 289.049778 139.219672 288.170381 141.329025 288.170381 143.528154 
C 288.170381 145.727282 289.049778 147.836635 290.614894 149.391654 
C 292.18001 150.946672 294.30306 151.820395 296.516469 151.820395 
z
" clip-path="url(#ped6da021e0)" style="fill: #0871b7; fill-opacity: 0.752941; stroke: #231f20; stroke-linejoin: miter"/>
   </g>
   <g id="patch_23">
    <path d="M 221.4 301.832219 
C 223.813103 301.832219 226.127697 300.879668 227.834018 299.184355 
C 229.54034 297.489042 230.499076 295.189381 230.499076 292.791846 
C 230.499076 290.394312 229.54034 288.094651 227.834018 286.399338 
C 226.127697 284.704025 223.813103 283.751474 221.4 283.751474 
C 218.986897 283.751474 216.672303 284.704025 214.965982 286.399338 
C 213.25966 288.094651 212.300924 290.394312 212.300924 292.791846 
C 212.300924 295.189381 213.25966 297.489042 214.965982 299.184355 
C 216.672303 300.879668 218.986897 301.832219 221.4 301.832219 
z
" clip-path="url(#ped6da021e0)" style="fill: #0871b7; fill-opacity: 0.752941; stroke: #231f20; stroke-linejoin: miter"/>
   </g>
   <g id="patch_24">
    <path d="M 146.283531 227.200372 
C 148.696634 227.200372 151.011228 226.247822 152.71755 224.552509 
C 154.423871 222.857196 155.382607 220.557535 155.382607 218.16 
C 155.382607 215.762465 154.423871 213.462804 152.71755 211.767491 
C 151.011228 210.072178 148.696634 209.119628 146.283531 209.119628 
C 143.870428 209.119628 141.555834 210.072178 139.849513 211.767491 
C 138.143191 213.462804 137.184455 215.762465 137.184455 218.16 
C 137.184455 220.557535 138.143191 222.857196 139.849513 224.552509 
C 141.555834 226.247822 143.870428 227.200372 146.283531 227.200372 
z
" clip-path="url(#ped6da021e0)" style="fill: #0871b7; fill-opacity: 0.752941; stroke: #231f20; stroke-linejoin: miter"/>
   </g>
   <g id="patch_25">
    <path d="M 296.516469 227.200372 
C 298.929572 227.200372 301.244166 226.247822 302.950487 224.552509 
C 304.656809 222.857196 305.615545 220.557535 305.615545 218.16 
C 305.615545 215.762465 304.656809 213.462804 302.950487 211.767491 
C 301.244166 210.072178 298.929572 209.119628 296.516469 209.119628 
C 294.103366 209.119628 291.788772 210.072178 290.08245 211.767491 
C 288.376129 213.462804 287.417393 215.762465 287.417393 218.16 
C 287.417393 220.557535 288.376129 222.857196 290.08245 224.552509 
C 291.788772 226.247822 294.103366 227.200372 296.516469 227.200372 
z
" clip-path="url(#ped6da021e0)" style="fill: #0871b7; fill-opacity: 0.752941; stroke: #231f20; stroke-linejoin: miter"/>
   </g>
   <g id="patch_26">
    <path d="M 221.4 152.568526 
C 223.813103 152.568526 226.127697 151.615975 227.834018 149.920662 
C 229.54034 148.225349 230.499076 145.925688 230.499076 143.528154 
C 230.499076 141.130619 229.54034 138.830958 227.834018 137.135645 
C 226.127697 135.440332 223.813103 134.487781 221.4 134.487781 
C 218.986897 134.487781 216.672303 135.440332 214.965982 137.135645 
C 213.25966 138.830958 212.300924 141.130619 212.300924 143.528154 
C 212.300924 145.925688 213.25966 148.225349 214.965982 149.920662 
C 216.672303 151.615975 218.986897 152.568526 221.4 152.568526 
z
" clip-path="url(#ped6da021e0)" style="fill: #0871b7; fill-opacity: 0.752941; stroke: #231f20; stroke-linejoin: miter"/>
   </g>
   <g id="patch_27">
    <path d="M 221.4 228.016 
C 224.030815 228.016 226.554232 226.97751 228.414499 225.129244 
C 230.274766 223.280979 231.32 220.773842 231.32 218.16 
C 231.32 215.546158 230.274766 213.039021 228.414499 211.190756 
C 226.554232 209.34249 224.030815 208.304 221.4 208.304 
C 218.769185 208.304 216.245768 209.34249 214.385501 211.190756 
C 212.525234 213.039021 211.48 215.546158 211.48 218.16 
C 211.48 220.773842 212.525234 223.280979 214.385501 225.129244 
C 216.245768 226.97751 218.769185 228.016 221.4 228.016 
z
" clip-path="url(#ped6da021e0)" style="fill: #0871b7; fill-opacity: 0.752941; stroke: #231f20; stroke-linejoin: miter"/>
   </g>
  </g>
 </g>
 <defs>
  <clipPath id="ped6da021e0">
   <rect x="54" y="51.84" width="334.8" height="332.64"/>
  </clipPath>
 </defs>
</svg>
