<?xml version="1.0" encoding="utf-8" standalone="no"?>
<!DOCTYPE svg PUBLIC "-//W3C//DTD SVG 1.1//EN"
  "http://www.w3.org/Graphics/SVG/1.1/DTD/svg11.dtd">
<svg xmlns:xlink="http://www.w3.org/1999/xlink" width="432pt" height="432pt" viewBox="0 0 432 432" xmlns="http://www.w3.org/2000/svg" version="1.1">
 <metadata>
  <rdf:RDF xmlns:dc="http://purl.org/dc/elements/1.1/" xmlns:cc="http://creativecommons.org/ns#" xmlns:rdf="http://www.w3.org/1999/02/22-rdf-syntax-ns#">
   <cc:Work>
    <dc:type rdf:resource="http://purl.org/dc/dcmitype/StillImage"/>
    <dc:date>2025-03-02T17:37:36.655058</dc:date>
    <dc:format>image/svg+xml</dc:format>
    <dc:creator>
     <cc:Agent>
      <dc:title>Matplotlib v3.10.0, https://matplotlib.org/</dc:title>
     </cc:Agent>
    </dc:creator>
   </cc:Work>
  </rdf:RDF>
 </metadata>
 <defs>
  <style type="text/css">*{stroke-linejoin: round; stroke-linecap: butt}</style>
 </defs>
 <g id="figure_1">
  <g id="patch_1">
   <path d="M 0 432 
L 432 432 
L 432 0 
L 0 0 
z
" style="fill: #ffffff"/>
  </g>
  <g id="axes_1">
   <g id="patch_2">
    <path d="M 81.9 356.76 
L 360.9 356.76 
L 360.9 79.56 
L 81.9 79.56 
L 81.9 356.76 
z
" clip-path="url(#p56d9aa2bf0)" style="fill: none; stroke: #969696; stroke-width: 1.5; stroke-linejoin: miter"/>
   </g>
   <g id="patch_3">
    <path d="M 81.9 357.915 
C 82.208299 357.915 82.504012 357.793302 82.722012 357.576708 
C 82.940012 357.360115 83.0625 357.06631 83.0625 356.76 
C 83.0625 356.45369 82.940012 356.159885 82.722012 355.943292 
C 82.504012 355.726698 82.208299 355.605 81.9 355.605 
C 81.591701 355.605 81.295988 355.726698 81.077988 355.943292 
C 80.859988 356.159885 80.7375 356.45369 80.7375 356.76 
C 80.7375 357.06631 80.859988 357.360115 81.077988 357.576708 
C 81.295988 357.793302 81.591701 357.915 81.9 357.915 
z
" clip-path="url(#p56d9aa2bf0)" style="fill: #0871b7; fill-opacity: 0.752941; stroke: #231f20; stroke-linejoin: miter"/>
   </g>
   <g id="patch_4">
    <path d="M 360.9 357.915 
C 361.208299 357.915 361.504012 357.793302 361.722012 357.576708 
C 361.940012 357.360115 362.0625 357.06631 362.0625 356.76 
C 362.0625 356.45369 361.940012 356.159885 361.722012 355.943292 
C 361.504012 355.726698 361.208299 355.605 360.9 355.605 
C 360.591701 355.605 360.295988 355.726698 360.077988 355.943292 
C 359.859988 356.159885 359.7375 356.45369 359.7375 356.76 
C 359.7375 357.06631 359.859988 357.360115 360.077988 357.576708 
C 360.295988 357.793302 360.591701 357.915 360.9 357.915 
z
" clip-path="url(#p56d9aa2bf0)" style="fill: #0871b7; fill-opacity: 0.752941; stroke: #231f20; stroke-linejoin: miter"/>
   </g>
   <g id="patch_5">
    <path d="M 81.9 80.715 
C 82.208299 80.715 82.504012 80.593302 82.722012 80.376708 
C 82.940012 80.160115 83.0625 79.86631 83.0625 79.56 
C 83.0625 79.25369 82.940012 78.959885 82.722012 78.743292 
C 82.504012 78.526698 82.208299 78.405 81.9 78.405 
C 81.591701 78.405 81.295988 78.526698 81.077988 78.743292 
C 80.859988 78.959885 80.7375 79.25369 80.7375 79.56 
C 80.7375 79.86631 80.859988 80.160115 81.077988 80.376708 
C 81.295988 80.593302 81.591701 80.715 81.9 80.715 
z
" clip-path="url(#p56d9aa2bf0)" style="fill: #0871b7; fill-opacity: 0.752941; stroke: #231f20; stroke-linejoin: miter"/>
   </g>
   <g id="patch_6">
    <path d="M 360.9 80.715 
C 361.208299 80.715 361.504012 80.593302 361.722012 80.376708 
C 361.940012 80.160115 362.0625 79.86631 362.0625 79.56 
C 362.0625 79.25369 361.940012 78.959885 361.722012 78.743292 
C 361.504012 78.526698 361.208299 78.405 360.9 78.405 
C 360.591701 78.405 360.295988 78.526698 360.077988 78.743292 
C 359.859988 78.959885 359.7375 79.25369 359.7375 79.56 
C 359.7375 79.86631 359.859988 80.160115 360.077988 80.376708 
C 360.295988 80.593302 360.591701 80.715 360.9 80.715 
z
" clip-path="url(#p56d9aa2bf0)" style="fill: #0871b7; fill-opacity: 0.752941; stroke: #231f20; stroke-linejoin: miter"/>
   </g>
   <g id="patch_7">
    <path d="M 114.674782 359.511986 
C 115.409357 359.511986 116.113944 359.222019 116.633366 358.705948 
C 117.152789 358.189876 117.444638 357.489835 117.444638 356.76 
C 117.444638 356.030165 117.152789 355.330124 116.633366 354.814052 
C 116.113944 354.297981 115.409357 354.008014 114.674782 354.008014 
C 113.940208 354.008014 113.235621 354.297981 112.716198 354.814052 
C 112.196776 355.330124 111.904926 356.030165 111.904926 356.76 
C 111.904926 357.489835 112.196776 358.189876 112.716198 358.705948 
C 113.235621 359.222019 113.940208 359.511986 114.674782 359.511986 
z
" clip-path="url(#p56d9aa2bf0)" style="fill: #0871b7; fill-opacity: 0.752941; stroke: #231f20; stroke-linejoin: miter"/>
   </g>
   <g id="patch_8">
    <path d="M 328.125218 359.511986 
C 328.859792 359.511986 329.564379 359.222019 330.083802 358.705948 
C 330.603224 358.189876 330.895074 357.489835 330.895074 356.76 
C 330.895074 356.030165 330.603224 355.330124 330.083802 354.814052 
C 329.564379 354.297981 328.859792 354.008014 328.125218 354.008014 
C 327.390643 354.008014 326.686056 354.297981 326.166634 354.814052 
C 325.647211 355.330124 325.355362 356.030165 325.355362 356.76 
C 325.355362 357.489835 325.647211 358.189876 326.166634 358.705948 
C 326.686056 359.222019 327.390643 359.511986 328.125218 359.511986 
z
" clip-path="url(#p56d9aa2bf0)" style="fill: #0871b7; fill-opacity: 0.752941; stroke: #231f20; stroke-linejoin: miter"/>
   </g>
   <g id="patch_9">
    <path d="M 81.9 326.948654 
C 82.634574 326.948654 83.339161 326.658687 83.858584 326.142616 
C 84.378006 325.626544 84.669856 324.926503 84.669856 324.196668 
C 84.669856 323.466833 84.378006 322.766791 83.858584 322.25072 
C 83.339161 321.734649 82.634574 321.444682 81.9 321.444682 
C 81.165426 321.444682 80.460839 321.734649 79.941416 322.25072 
C 79.421994 322.766791 79.130144 323.466833 79.130144 324.196668 
C 79.130144 324.926503 79.421994 325.626544 79.941416 326.142616 
C 80.460839 326.658687 81.165426 326.948654 81.9 326.948654 
z
" clip-path="url(#p56d9aa2bf0)" style="fill: #0871b7; fill-opacity: 0.752941; stroke: #231f20; stroke-linejoin: miter"/>
   </g>
   <g id="patch_10">
    <path d="M 360.9 326.948654 
C 361.634574 326.948654 362.339161 326.658687 362.858584 326.142616 
C 363.378006 325.626544 363.669856 324.926503 363.669856 324.196668 
C 363.669856 323.466833 363.378006 322.766791 362.858584 322.25072 
C 362.339161 321.734649 361.634574 321.444682 360.9 321.444682 
C 360.165426 321.444682 359.460839 321.734649 358.941416 322.25072 
C 358.421994 322.766791 358.130144 323.466833 358.130144 324.196668 
C 358.130144 324.926503 358.421994 325.626544 358.941416 326.142616 
C 359.460839 326.658687 360.165426 326.948654 360.9 326.948654 
z
" clip-path="url(#p56d9aa2bf0)" style="fill: #0871b7; fill-opacity: 0.752941; stroke: #231f20; stroke-linejoin: miter"/>
   </g>
   <g id="patch_11">
    <path d="M 81.9 114.875318 
C 82.634574 114.875318 83.339161 114.585351 83.858584 114.06928 
C 84.378006 113.553209 84.669856 112.853167 84.669856 112.123332 
C 84.669856 111.393497 84.378006 110.693456 83.858584 110.177384 
C 83.339161 109.661313 82.634574 109.371346 81.9 109.371346 
C 81.165426 109.371346 80.460839 109.661313 79.941416 110.177384 
C 79.421994 110.693456 79.130144 111.393497 79.130144 112.123332 
C 79.130144 112.853167 79.421994 113.553209 79.941416 114.06928 
C 80.460839 114.585351 81.165426 114.875318 81.9 114.875318 
z
" clip-path="url(#p56d9aa2bf0)" style="fill: #0871b7; fill-opacity: 0.752941; stroke: #231f20; stroke-linejoin: miter"/>
   </g>
   <g id="patch_12">
    <path d="M 360.9 114.875318 
C 361.634574 114.875318 362.339161 114.585351 362.858584 114.06928 
C 363.378006 113.553209 363.669856 112.853167 363.669856 112.123332 
C 363.669856 111.393497 363.378006 110.693456 362.858584 110.177384 
C 362.339161 109.661313 361.634574 109.371346 360.9 109.371346 
C 360.165426 109.371346 359.460839 109.661313 358.941416 110.177384 
C 358.421994 110.693456 358.130144 111.393497 358.130144 112.123332 
C 358.130144 112.853167 358.421994 113.553209 358.941416 114.06928 
C 359.460839 114.585351 360.165426 114.875318 360.9 114.875318 
z
" clip-path="url(#p56d9aa2bf0)" style="fill: #0871b7; fill-opacity: 0.752941; stroke: #231f20; stroke-linejoin: miter"/>
   </g>
   <g id="patch_13">
    <path d="M 114.674782 82.311986 
C 115.409357 82.311986 116.113944 82.022019 116.633366 81.505948 
C 117.152789 80.989876 117.444638 80.289835 117.444638 79.56 
C 117.444638 78.830165 117.152789 78.130124 116.633366 77.614052 
C 116.113944 77.097981 115.409357 76.808014 114.674782 76.808014 
C 113.940208 76.808014 113.235621 77.097981 112.716198 77.614052 
C 112.196776 78.130124 111.904926 78.830165 111.904926 79.56 
C 111.904926 80.289835 112.196776 80.989876 112.716198 81.505948 
C 113.235621 82.022019 113.940208 82.311986 114.674782 82.311986 
z
" clip-path="url(#p56d9aa2bf0)" style="fill: #0871b7; fill-opacity: 0.752941; stroke: #231f20; stroke-linejoin: miter"/>
   </g>
   <g id="patch_14">
    <path d="M 328.125218 82.311986 
C 328.859792 82.311986 329.564379 82.022019 330.083802 81.505948 
C 330.603224 80.989876 330.895074 80.289835 330.895074 79.56 
C 330.895074 78.830165 330.603224 78.130124 330.083802 77.614052 
C 329.564379 77.097981 328.859792 76.808014 328.125218 76.808014 
C 327.390643 76.808014 326.686056 77.097981 326.166634 77.614052 
C 325.647211 78.130124 325.355362 78.830165 325.355362 79.56 
C 325.355362 80.289835 325.647211 80.989876 326.166634 81.505948 
C 326.686056 82.022019 327.390643 82.311986 328.125218 82.311986 
z
" clip-path="url(#p56d9aa2bf0)" style="fill: #0871b7; fill-opacity: 0.752941; stroke: #231f20; stroke-linejoin: miter"/>
   </g>
   <g id="patch_15">
    <path d="M 114.674782 330.753747 
C 116.425032 330.753747 118.103831 330.062851 119.341445 328.833223 
C 120.579058 327.603594 121.274439 325.935625 121.274439 324.196668 
C 121.274439 322.45771 120.579058 320.789742 119.341445 319.560113 
C 118.103831 318.330484 116.425032 317.639589 114.674782 317.639589 
C 112.924533 317.639589 111.245733 318.330484 110.00812 319.560113 
C 108.770507 320.789742 108.075125 322.45771 108.075125 324.196668 
C 108.075125 325.935625 108.770507 327.603594 110.00812 328.833223 
C 111.245733 330.062851 112.924533 330.753747 114.674782 330.753747 
z
" clip-path="url(#p56d9aa2bf0)" style="fill: #0871b7; fill-opacity: 0.752941; stroke: #231f20; stroke-linejoin: miter"/>
   </g>
   <g id="patch_16">
    <path d="M 328.125218 330.753747 
C 329.875467 330.753747 331.554267 330.062851 332.79188 328.833223 
C 334.029493 327.603594 334.724875 325.935625 334.724875 324.196668 
C 334.724875 322.45771 334.029493 320.789742 332.79188 319.560113 
C 331.554267 318.330484 329.875467 317.639589 328.125218 317.639589 
C 326.374968 317.639589 324.696169 318.330484 323.458555 319.560113 
C 322.220942 320.789742 321.525561 322.45771 321.525561 324.196668 
C 321.525561 325.935625 322.220942 327.603594 323.458555 328.833223 
C 324.696169 330.062851 326.374968 330.753747 328.125218 330.753747 
z
" clip-path="url(#p56d9aa2bf0)" style="fill: #0871b7; fill-opacity: 0.752941; stroke: #231f20; stroke-linejoin: miter"/>
   </g>
   <g id="patch_17">
    <path d="M 114.674782 118.680411 
C 116.425032 118.680411 118.103831 117.989516 119.341445 116.759887 
C 120.579058 115.530258 121.274439 113.86229 121.274439 112.123332 
C 121.274439 110.384375 120.579058 108.716406 119.341445 107.486777 
C 118.103831 106.257149 116.425032 105.566253 114.674782 105.566253 
C 112.924533 105.566253 111.245733 106.257149 110.00812 107.486777 
C 108.770507 108.716406 108.075125 110.384375 108.075125 112.123332 
C 108.075125 113.86229 108.770507 115.530258 110.00812 116.759887 
C 111.245733 117.989516 112.924533 118.680411 114.674782 118.680411 
z
" clip-path="url(#p56d9aa2bf0)" style="fill: #0871b7; fill-opacity: 0.752941; stroke: #231f20; stroke-linejoin: miter"/>
   </g>
   <g id="patch_18">
    <path d="M 328.125218 118.680411 
C 329.875467 118.680411 331.554267 117.989516 332.79188 116.759887 
C 334.029493 115.530258 334.724875 113.86229 334.724875 112.123332 
C 334.724875 110.384375 334.029493 108.716406 332.79188 107.486777 
C 331.554267 106.257149 329.875467 105.566253 328.125218 105.566253 
C 326.374968 105.566253 324.696169 106.257149 323.458555 107.486777 
C 322.220942 108.716406 321.525561 110.384375 321.525561 112.123332 
C 321.525561 113.86229 322.220942 115.530258 323.458555 116.759887 
C 324.696169 117.989516 326.374968 118.680411 328.125218 118.680411 
z
" clip-path="url(#p56d9aa2bf0)" style="fill: #0871b7; fill-opacity: 0.752941; stroke: #231f20; stroke-linejoin: miter"/>
   </g>
   <g id="patch_19">
    <path d="M 181.610203 360.092105 
C 182.499626 360.092105 183.35274 359.741013 183.981657 359.116154 
C 184.610574 358.491295 184.963946 357.643685 184.963946 356.76 
C 184.963946 355.876315 184.610574 355.028705 183.981657 354.403846 
C 183.35274 353.778987 182.499626 353.427895 181.610203 353.427895 
C 180.720781 353.427895 179.867667 353.778987 179.23875 354.403846 
C 178.609833 355.028705 178.256461 355.876315 178.256461 356.76 
C 178.256461 357.643685 178.609833 358.491295 179.23875 359.116154 
C 179.867667 359.741013 180.720781 360.092105 181.610203 360.092105 
z
" clip-path="url(#p56d9aa2bf0)" style="fill: #0871b7; fill-opacity: 0.752941; stroke: #231f20; stroke-linejoin: miter"/>
   </g>
   <g id="patch_20">
    <path d="M 261.189797 360.092105 
C 262.079219 360.092105 262.932333 359.741013 263.56125 359.116154 
C 264.190167 358.491295 264.543539 357.643685 264.543539 356.76 
C 264.543539 355.876315 264.190167 355.028705 263.56125 354.403846 
C 262.932333 353.778987 262.079219 353.427895 261.189797 353.427895 
C 260.300374 353.427895 259.44726 353.778987 258.818343 354.403846 
C 258.189426 355.028705 257.836054 355.876315 257.836054 356.76 
C 257.836054 357.643685 258.189426 358.491295 258.818343 359.116154 
C 259.44726 359.741013 260.300374 360.092105 261.189797 360.092105 
z
" clip-path="url(#p56d9aa2bf0)" style="fill: #0871b7; fill-opacity: 0.752941; stroke: #231f20; stroke-linejoin: miter"/>
   </g>
   <g id="patch_21">
    <path d="M 81.9 261.025193 
C 82.789423 261.025193 83.642537 260.674102 84.271454 260.049242 
C 84.900371 259.424383 85.253742 258.576773 85.253742 257.693088 
C 85.253742 256.809404 84.900371 255.961793 84.271454 255.336934 
C 83.642537 254.712075 82.789423 254.360983 81.9 254.360983 
C 81.010577 254.360983 80.157463 254.712075 79.528546 255.336934 
C 78.899629 255.961793 78.546258 256.809404 78.546258 257.693088 
C 78.546258 258.576773 78.899629 259.424383 79.528546 260.049242 
C 80.157463 260.674102 81.010577 261.025193 81.9 261.025193 
z
" clip-path="url(#p56d9aa2bf0)" style="fill: #0871b7; fill-opacity: 0.752941; stroke: #231f20; stroke-linejoin: miter"/>
   </g>
   <g id="patch_22">
    <path d="M 360.9 261.025193 
C 361.789423 261.025193 362.642537 260.674102 363.271454 260.049242 
C 363.900371 259.424383 364.253742 258.576773 364.253742 257.693088 
C 364.253742 256.809404 363.900371 255.961793 363.271454 255.336934 
C 362.642537 254.712075 361.789423 254.360983 360.9 254.360983 
C 360.010577 254.360983 359.157463 254.712075 358.528546 255.336934 
C 357.899629 255.961793 357.546258 256.809404 357.546258 257.693088 
C 357.546258 258.576773 357.899629 259.424383 358.528546 260.049242 
C 359.157463 260.674102 360.010577 261.025193 360.9 261.025193 
z
" clip-path="url(#p56d9aa2bf0)" style="fill: #0871b7; fill-opacity: 0.752941; stroke: #231f20; stroke-linejoin: miter"/>
   </g>
   <g id="patch_23">
    <path d="M 81.9 181.959017 
C 82.789423 181.959017 83.642537 181.607925 84.271454 180.983066 
C 84.900371 180.358207 85.253742 179.510596 85.253742 178.626912 
C 85.253742 177.743227 84.900371 176.895617 84.271454 176.270758 
C 83.642537 175.645898 82.789423 175.294807 81.9 175.294807 
C 81.010577 175.294807 80.157463 175.645898 79.528546 176.270758 
C 78.899629 176.895617 78.546258 177.743227 78.546258 178.626912 
C 78.546258 179.510596 78.899629 180.358207 79.528546 180.983066 
C 80.157463 181.607925 81.010577 181.959017 81.9 181.959017 
z
" clip-path="url(#p56d9aa2bf0)" style="fill: #0871b7; fill-opacity: 0.752941; stroke: #231f20; stroke-linejoin: miter"/>
   </g>
   <g id="patch_24">
    <path d="M 360.9 181.959017 
C 361.789423 181.959017 362.642537 181.607925 363.271454 180.983066 
C 363.900371 180.358207 364.253742 179.510596 364.253742 178.626912 
C 364.253742 177.743227 363.900371 176.895617 363.271454 176.270758 
C 362.642537 175.645898 361.789423 175.294807 360.9 175.294807 
C 360.010577 175.294807 359.157463 175.645898 358.528546 176.270758 
C 357.899629 176.895617 357.546258 177.743227 357.546258 178.626912 
C 357.546258 179.510596 357.899629 180.358207 358.528546 180.983066 
C 359.157463 181.607925 360.010577 181.959017 360.9 181.959017 
z
" clip-path="url(#p56d9aa2bf0)" style="fill: #0871b7; fill-opacity: 0.752941; stroke: #231f20; stroke-linejoin: miter"/>
   </g>
   <g id="patch_25">
    <path d="M 181.610203 82.892105 
C 182.499626 82.892105 183.35274 82.541013 183.981657 81.916154 
C 184.610574 81.291295 184.963946 80.443685 184.963946 79.56 
C 184.963946 78.676315 184.610574 77.828705 183.981657 77.203846 
C 183.35274 76.578987 182.499626 76.227895 181.610203 76.227895 
C 180.720781 76.227895 179.867667 76.578987 179.23875 77.203846 
C 178.609833 77.828705 178.256461 78.676315 178.256461 79.56 
C 178.256461 80.443685 178.609833 81.291295 179.23875 81.916154 
C 179.867667 82.541013 180.720781 82.892105 181.610203 82.892105 
z
" clip-path="url(#p56d9aa2bf0)" style="fill: #0871b7; fill-opacity: 0.752941; stroke: #231f20; stroke-linejoin: miter"/>
   </g>
   <g id="patch_26">
    <path d="M 261.189797 82.892105 
C 262.079219 82.892105 262.932333 82.541013 263.56125 81.916154 
C 264.190167 81.291295 264.543539 80.443685 264.543539 79.56 
C 264.543539 78.676315 264.190167 77.828705 263.56125 77.203846 
C 262.932333 76.578987 262.079219 76.227895 261.189797 76.227895 
C 260.300374 76.227895 259.44726 76.578987 258.818343 77.203846 
C 258.189426 77.828705 257.836054 78.676315 257.836054 79.56 
C 257.836054 80.443685 258.189426 81.291295 258.818343 81.916154 
C 259.44726 82.541013 260.300374 82.892105 261.189797 82.892105 
z
" clip-path="url(#p56d9aa2bf0)" style="fill: #0871b7; fill-opacity: 0.752941; stroke: #231f20; stroke-linejoin: miter"/>
   </g>
   <g id="patch_27">
    <path d="M 328.125218 265.632401 
C 330.24442 265.632401 332.277111 264.795865 333.775613 263.30703 
C 335.274116 261.818195 336.116084 259.798618 336.116084 257.693088 
C 336.116084 255.587558 335.274116 253.567981 333.775613 252.079147 
C 332.277111 250.590312 330.24442 249.753776 328.125218 249.753776 
C 326.006015 249.753776 323.973324 250.590312 322.474822 252.079147 
C 320.976319 253.567981 320.134351 255.587558 320.134351 257.693088 
C 320.134351 259.798618 320.976319 261.818195 322.474822 263.30703 
C 323.973324 264.795865 326.006015 265.632401 328.125218 265.632401 
z
" clip-path="url(#p56d9aa2bf0)" style="fill: #0871b7; fill-opacity: 0.752941; stroke: #231f20; stroke-linejoin: miter"/>
   </g>
   <g id="patch_28">
    <path d="M 328.125218 186.566224 
C 330.24442 186.566224 332.277111 185.729688 333.775613 184.240853 
C 335.274116 182.752019 336.116084 180.732442 336.116084 178.626912 
C 336.116084 176.521382 335.274116 174.501805 333.775613 173.01297 
C 332.277111 171.524135 330.24442 170.687599 328.125218 170.687599 
C 326.006015 170.687599 323.973324 171.524135 322.474822 173.01297 
C 320.976319 174.501805 320.134351 176.521382 320.134351 178.626912 
C 320.134351 180.732442 320.976319 182.752019 322.474822 184.240853 
C 323.973324 185.729688 326.006015 186.566224 328.125218 186.566224 
z
" clip-path="url(#p56d9aa2bf0)" style="fill: #0871b7; fill-opacity: 0.752941; stroke: #231f20; stroke-linejoin: miter"/>
   </g>
   <g id="patch_29">
    <path d="M 181.610203 120.062644 
C 183.729406 120.062644 185.762097 119.226108 187.260599 117.737274 
C 188.759102 116.248439 189.60107 114.228862 189.60107 112.123332 
C 189.60107 110.017802 188.759102 107.998225 187.260599 106.50939 
C 185.762097 105.020556 183.729406 104.18402 181.610203 104.18402 
C 179.491001 104.18402 177.45831 105.020556 175.959808 106.50939 
C 174.461305 107.998225 173.619337 110.017802 173.619337 112.123332 
C 173.619337 114.228862 174.461305 116.248439 175.959808 117.737274 
C 177.45831 119.226108 179.491001 120.062644 181.610203 120.062644 
z
" clip-path="url(#p56d9aa2bf0)" style="fill: #0871b7; fill-opacity: 0.752941; stroke: #231f20; stroke-linejoin: miter"/>
   </g>
   <g id="patch_30">
    <path d="M 261.189797 120.062644 
C 263.308999 120.062644 265.34169 119.226108 266.840192 117.737274 
C 268.338695 116.248439 269.180663 114.228862 269.180663 112.123332 
C 269.180663 110.017802 268.338695 107.998225 266.840192 106.50939 
C 265.34169 105.020556 263.308999 104.18402 261.189797 104.18402 
C 259.070594 104.18402 257.037903 105.020556 255.539401 106.50939 
C 254.040898 107.998225 253.19893 110.017802 253.19893 112.123332 
C 253.19893 114.228862 254.040898 116.248439 255.539401 117.737274 
C 257.037903 119.226108 259.070594 120.062644 261.189797 120.062644 
z
" clip-path="url(#p56d9aa2bf0)" style="fill: #0871b7; fill-opacity: 0.752941; stroke: #231f20; stroke-linejoin: miter"/>
   </g>
   <g id="patch_31">
    <path d="M 181.610203 332.13598 
C 183.729406 332.13598 185.762097 331.299444 187.260599 329.81061 
C 188.759102 328.321775 189.60107 326.302198 189.60107 324.196668 
C 189.60107 322.091138 188.759102 320.071561 187.260599 318.582726 
C 185.762097 317.093892 183.729406 316.257356 181.610203 316.257356 
C 179.491001 316.257356 177.45831 317.093892 175.959808 318.582726 
C 174.461305 320.071561 173.619337 322.091138 173.619337 324.196668 
C 173.619337 326.302198 174.461305 328.321775 175.959808 329.81061 
C 177.45831 331.299444 179.491001 332.13598 181.610203 332.13598 
z
" clip-path="url(#p56d9aa2bf0)" style="fill: #0871b7; fill-opacity: 0.752941; stroke: #231f20; stroke-linejoin: miter"/>
   </g>
   <g id="patch_32">
    <path d="M 261.189797 332.13598 
C 263.308999 332.13598 265.34169 331.299444 266.840192 329.81061 
C 268.338695 328.321775 269.180663 326.302198 269.180663 324.196668 
C 269.180663 322.091138 268.338695 320.071561 266.840192 318.582726 
C 265.34169 317.093892 263.308999 316.257356 261.189797 316.257356 
C 259.070594 316.257356 257.037903 317.093892 255.539401 318.582726 
C 254.040898 320.071561 253.19893 322.091138 253.19893 324.196668 
C 253.19893 326.302198 254.040898 328.321775 255.539401 329.81061 
C 257.037903 331.299444 259.070594 332.13598 261.189797 332.13598 
z
" clip-path="url(#p56d9aa2bf0)" style="fill: #0871b7; fill-opacity: 0.752941; stroke: #231f20; stroke-linejoin: miter"/>
   </g>
   <g id="patch_33">
    <path d="M 114.674782 265.632401 
C 116.793985 265.632401 118.826676 264.795865 120.325178 263.30703 
C 121.823681 261.818195 122.665649 259.798618 122.665649 257.693088 
C 122.665649 255.587558 121.823681 253.567981 120.325178 252.079147 
C 118.826676 250.590312 116.793985 249.753776 114.674782 249.753776 
C 112.55558 249.753776 110.522889 250.590312 109.024387 252.079147 
C 107.525884 253.567981 106.683916 255.587558 106.683916 257.693088 
C 106.683916 259.798618 107.525884 261.818195 109.024387 263.30703 
C 110.522889 264.795865 112.55558 265.632401 114.674782 265.632401 
z
" clip-path="url(#p56d9aa2bf0)" style="fill: #0871b7; fill-opacity: 0.752941; stroke: #231f20; stroke-linejoin: miter"/>
   </g>
   <g id="patch_34">
    <path d="M 114.674782 186.566224 
C 116.793985 186.566224 118.826676 185.729688 120.325178 184.240853 
C 121.823681 182.752019 122.665649 180.732442 122.665649 178.626912 
C 122.665649 176.521382 121.823681 174.501805 120.325178 173.01297 
C 118.826676 171.524135 116.793985 170.687599 114.674782 170.687599 
C 112.55558 170.687599 110.522889 171.524135 109.024387 173.01297 
C 107.525884 174.501805 106.683916 176.521382 106.683916 178.626912 
C 106.683916 180.732442 107.525884 182.752019 109.024387 184.240853 
C 110.522889 185.729688 112.55558 186.566224 114.674782 186.566224 
z
" clip-path="url(#p56d9aa2bf0)" style="fill: #0871b7; fill-opacity: 0.752941; stroke: #231f20; stroke-linejoin: miter"/>
   </g>
   <g id="patch_35">
    <path d="M 181.610203 267.30601 
C 184.176134 267.30601 186.637317 266.293132 188.451704 264.49045 
C 190.266091 262.687769 191.285546 260.242465 191.285546 257.693088 
C 191.285546 255.143712 190.266091 252.698408 188.451704 250.895726 
C 186.637317 249.093045 184.176134 248.080167 181.610203 248.080167 
C 179.044273 248.080167 176.58309 249.093045 174.768703 250.895726 
C 172.954316 252.698408 171.934861 255.143712 171.934861 257.693088 
C 171.934861 260.242465 172.954316 262.687769 174.768703 264.49045 
C 176.58309 266.293132 179.044273 267.30601 181.610203 267.30601 
z
" clip-path="url(#p56d9aa2bf0)" style="fill: #0871b7; fill-opacity: 0.752941; stroke: #231f20; stroke-linejoin: miter"/>
   </g>
   <g id="patch_36">
    <path d="M 261.189797 267.30601 
C 263.755727 267.30601 266.21691 266.293132 268.031297 264.49045 
C 269.845684 262.687769 270.865139 260.242465 270.865139 257.693088 
C 270.865139 255.143712 269.845684 252.698408 268.031297 250.895726 
C 266.21691 249.093045 263.755727 248.080167 261.189797 248.080167 
C 258.623866 248.080167 256.162683 249.093045 254.348296 250.895726 
C 252.533909 252.698408 251.514454 255.143712 251.514454 257.693088 
C 251.514454 260.242465 252.533909 262.687769 254.348296 264.49045 
C 256.162683 266.293132 258.623866 267.30601 261.189797 267.30601 
z
" clip-path="url(#p56d9aa2bf0)" style="fill: #0871b7; fill-opacity: 0.752941; stroke: #231f20; stroke-linejoin: miter"/>
   </g>
   <g id="patch_37">
    <path d="M 181.610203 188.239833 
C 184.176134 188.239833 186.637317 187.226955 188.451704 185.424274 
C 190.266091 183.621592 191.285546 181.176288 191.285546 178.626912 
C 191.285546 176.077535 190.266091 173.632231 188.451704 171.82955 
C 186.637317 170.026868 184.176134 169.01399 181.610203 169.01399 
C 179.044273 169.01399 176.58309 170.026868 174.768703 171.82955 
C 172.954316 173.632231 171.934861 176.077535 171.934861 178.626912 
C 171.934861 181.176288 172.954316 183.621592 174.768703 185.424274 
C 176.58309 187.226955 179.044273 188.239833 181.610203 188.239833 
z
" clip-path="url(#p56d9aa2bf0)" style="fill: #0871b7; fill-opacity: 0.752941; stroke: #231f20; stroke-linejoin: miter"/>
   </g>
   <g id="patch_38">
    <path d="M 261.189797 188.239833 
C 263.755727 188.239833 266.21691 187.226955 268.031297 185.424274 
C 269.845684 183.621592 270.865139 181.176288 270.865139 178.626912 
C 270.865139 176.077535 269.845684 173.632231 268.031297 171.82955 
C 266.21691 170.026868 263.755727 169.01399 261.189797 169.01399 
C 258.623866 169.01399 256.162683 170.026868 254.348296 171.82955 
C 252.533909 173.632231 251.514454 176.077535 251.514454 178.626912 
C 251.514454 181.176288 252.533909 183.621592 254.348296 185.424274 
C 256.162683 187.226955 258.623866 188.239833 261.189797 188.239833 
z
" clip-path="url(#p56d9aa2bf0)" style="fill: #0871b7; fill-opacity: 0.752941; stroke: #231f20; stroke-linejoin: miter"/>
   </g>
  </g>
 </g>
 <defs>
  <clipPath id="p56d9aa2bf0">
   <rect x="54" y="51.84" width="334.8" height="332.64"/>
  </clipPath>
 </defs>
</svg>
