<?xml version="1.0" encoding="utf-8" standalone="no"?>
<!DOCTYPE svg PUBLIC "-//W3C//DTD SVG 1.1//EN"
  "http://www.w3.org/Graphics/SVG/1.1/DTD/svg11.dtd">
<svg xmlns:xlink="http://www.w3.org/1999/xlink" width="432pt" height="432pt" viewBox="0 0 432 432" xmlns="http://www.w3.org/2000/svg" version="1.1">
 <metadata>
  <rdf:RDF xmlns:dc="http://purl.org/dc/elements/1.1/" xmlns:cc="http://creativecommons.org/ns#" xmlns:rdf="http://www.w3.org/1999/02/22-rdf-syntax-ns#">
   <cc:Work>
    <dc:type rdf:resource="http://purl.org/dc/dcmitype/StillImage"/>
    <dc:date>2025-03-02T17:37:36.715348</dc:date>
    <dc:format>image/svg+xml</dc:format>
    <dc:creator>
     <cc:Agent>
      <dc:title>Matplotlib v3.10.0, https://matplotlib.org/</dc:title>
     </cc:Agent>
    </dc:creator>
   </cc:Work>
  </rdf:RDF>
 </metadata>
 <defs>
  <style type="text/css">*{stroke-linejoin: round; stroke-linecap: butt}</style>
 </defs>
 <g id="figure_1">
  <g id="patch_1">
   <path d="M 0 432 
L 432 432 
L 432 0 
L 0 0 
z
" style="fill: #ffffff"/>
  </g>
  <g id="axes_1">
   <g id="patch_2">
    <path d="M 81.9 356.76 
L 360.9 356.76 
L 360.9 79.56 
L 81.9 79.56 
L 81.9 356.76 
z
" clip-path="url(#pf715a3a6ad)" style="fill: none; stroke: #969696; stroke-width: 1.5; stroke-linejoin: miter"/>
   </g>
   <g id="patch_3">
    <path d="M 81.9 357.585 
C 82.120213 357.585 82.331437 357.498073 82.487151 357.343363 
C 82.642865 357.188653 82.730357 356.978793 82.730357 356.76 
C 82.730357 356.541207 82.642865 356.331347 82.487151 356.176637 
C 82.331437 356.021927 82.120213 355.935 81.9 355.935 
C 81.679787 355.935 81.468563 356.021927 81.312849 356.176637 
C 81.157135 356.331347 81.069643 356.541207 81.069643 356.76 
C 81.069643 356.978793 81.157135 357.188653 81.312849 357.343363 
C 81.468563 357.498073 81.679787 357.585 81.9 357.585 
z
" clip-path="url(#pf715a3a6ad)" style="fill: #0871b7; fill-opacity: 0.752941; stroke: #231f20; stroke-linejoin: miter"/>
   </g>
   <g id="patch_4">
    <path d="M 360.9 357.585 
C 361.120213 357.585 361.331437 357.498073 361.487151 357.343363 
C 361.642865 357.188653 361.730357 356.978793 361.730357 356.76 
C 361.730357 356.541207 361.642865 356.331347 361.487151 356.176637 
C 361.331437 356.021927 361.120213 355.935 360.9 355.935 
C 360.679787 355.935 360.468563 356.021927 360.312849 356.176637 
C 360.157135 356.331347 360.069643 356.541207 360.069643 356.76 
C 360.069643 356.978793 360.157135 357.188653 360.312849 357.343363 
C 360.468563 357.498073 360.679787 357.585 360.9 357.585 
z
" clip-path="url(#pf715a3a6ad)" style="fill: #0871b7; fill-opacity: 0.752941; stroke: #231f20; stroke-linejoin: miter"/>
   </g>
   <g id="patch_5">
    <path d="M 81.9 80.385 
C 82.120213 80.385 82.331437 80.298073 82.487151 80.143363 
C 82.642865 79.988653 82.730357 79.778793 82.730357 79.56 
C 82.730357 79.341207 82.642865 79.131347 82.487151 78.976637 
C 82.331437 78.821927 82.120213 78.735 81.9 78.735 
C 81.679787 78.735 81.468563 78.821927 81.312849 78.976637 
C 81.157135 79.131347 81.069643 79.341207 81.069643 79.56 
C 81.069643 79.778793 81.157135 79.988653 81.312849 80.143363 
C 81.468563 80.298073 81.679787 80.385 81.9 80.385 
z
" clip-path="url(#pf715a3a6ad)" style="fill: #0871b7; fill-opacity: 0.752941; stroke: #231f20; stroke-linejoin: miter"/>
   </g>
   <g id="patch_6">
    <path d="M 360.9 80.385 
C 361.120213 80.385 361.331437 80.298073 361.487151 80.143363 
C 361.642865 79.988653 361.730357 79.778793 361.730357 79.56 
C 361.730357 79.341207 361.642865 79.131347 361.487151 78.976637 
C 361.331437 78.821927 361.120213 78.735 360.9 78.735 
C 360.679787 78.735 360.468563 78.821927 360.312849 78.976637 
C 360.157135 79.131347 360.069643 79.341207 360.069643 79.56 
C 360.069643 79.778793 360.157135 79.988653 360.312849 80.143363 
C 360.468563 80.298073 360.679787 80.385 360.9 80.385 
z
" clip-path="url(#pf715a3a6ad)" style="fill: #0871b7; fill-opacity: 0.752941; stroke: #231f20; stroke-linejoin: miter"/>
   </g>
   <g id="patch_7">
    <path d="M 105.583766 358.749148 
C 106.11472 358.749148 106.623999 358.539559 106.99944 358.16654 
C 107.374881 357.793521 107.585831 357.287528 107.585831 356.76 
C 107.585831 356.232472 107.374881 355.726479 106.99944 355.35346 
C 106.623999 354.980441 106.11472 354.770852 105.583766 354.770852 
C 105.052813 354.770852 104.543534 354.980441 104.168093 355.35346 
C 103.792652 355.726479 103.581702 356.232472 103.581702 356.76 
C 103.581702 357.287528 103.792652 357.793521 104.168093 358.16654 
C 104.543534 358.539559 105.052813 358.749148 105.583766 358.749148 
z
" clip-path="url(#pf715a3a6ad)" style="fill: #0871b7; fill-opacity: 0.752941; stroke: #231f20; stroke-linejoin: miter"/>
   </g>
   <g id="patch_8">
    <path d="M 337.216234 358.749148 
C 337.747187 358.749148 338.256466 358.539559 338.631907 358.16654 
C 339.007348 357.793521 339.218298 357.287528 339.218298 356.76 
C 339.218298 356.232472 339.007348 355.726479 338.631907 355.35346 
C 338.256466 354.980441 337.747187 354.770852 337.216234 354.770852 
C 336.68528 354.770852 336.176001 354.980441 335.80056 355.35346 
C 335.425119 355.726479 335.214169 356.232472 335.214169 356.76 
C 335.214169 357.287528 335.425119 357.793521 335.80056 358.16654 
C 336.176001 358.539559 336.68528 358.749148 337.216234 358.749148 
z
" clip-path="url(#pf715a3a6ad)" style="fill: #0871b7; fill-opacity: 0.752941; stroke: #231f20; stroke-linejoin: miter"/>
   </g>
   <g id="patch_9">
    <path d="M 81.9 335.21818 
C 82.430954 335.21818 82.940232 335.008591 83.315673 334.635572 
C 83.691114 334.262553 83.902064 333.75656 83.902064 333.229032 
C 83.902064 332.701504 83.691114 332.195511 83.315673 331.822492 
C 82.940232 331.449473 82.430954 331.239884 81.9 331.239884 
C 81.369046 331.239884 80.859768 331.449473 80.484327 331.822492 
C 80.108886 332.195511 79.897936 332.701504 79.897936 333.229032 
C 79.897936 333.75656 80.108886 334.262553 80.484327 334.635572 
C 80.859768 335.008591 81.369046 335.21818 81.9 335.21818 
z
" clip-path="url(#pf715a3a6ad)" style="fill: #0871b7; fill-opacity: 0.752941; stroke: #231f20; stroke-linejoin: miter"/>
   </g>
   <g id="patch_10">
    <path d="M 360.9 335.21818 
C 361.430954 335.21818 361.940232 335.008591 362.315673 334.635572 
C 362.691114 334.262553 362.902064 333.75656 362.902064 333.229032 
C 362.902064 332.701504 362.691114 332.195511 362.315673 331.822492 
C 361.940232 331.449473 361.430954 331.239884 360.9 331.239884 
C 360.369046 331.239884 359.859768 331.449473 359.484327 331.822492 
C 359.108886 332.195511 358.897936 332.701504 358.897936 333.229032 
C 358.897936 333.75656 359.108886 334.262553 359.484327 334.635572 
C 359.859768 335.008591 360.369046 335.21818 360.9 335.21818 
z
" clip-path="url(#pf715a3a6ad)" style="fill: #0871b7; fill-opacity: 0.752941; stroke: #231f20; stroke-linejoin: miter"/>
   </g>
   <g id="patch_11">
    <path d="M 81.9 105.080116 
C 82.430954 105.080116 82.940232 104.870527 83.315673 104.497508 
C 83.691114 104.124489 83.902064 103.618496 83.902064 103.090968 
C 83.902064 102.56344 83.691114 102.057447 83.315673 101.684428 
C 82.940232 101.311409 82.430954 101.10182 81.9 101.10182 
C 81.369046 101.10182 80.859768 101.311409 80.484327 101.684428 
C 80.108886 102.057447 79.897936 102.56344 79.897936 103.090968 
C 79.897936 103.618496 80.108886 104.124489 80.484327 104.497508 
C 80.859768 104.870527 81.369046 105.080116 81.9 105.080116 
z
" clip-path="url(#pf715a3a6ad)" style="fill: #0871b7; fill-opacity: 0.752941; stroke: #231f20; stroke-linejoin: miter"/>
   </g>
   <g id="patch_12">
    <path d="M 360.9 105.080116 
C 361.430954 105.080116 361.940232 104.870527 362.315673 104.497508 
C 362.691114 104.124489 362.902064 103.618496 362.902064 103.090968 
C 362.902064 102.56344 362.691114 102.057447 362.315673 101.684428 
C 361.940232 101.311409 361.430954 101.10182 360.9 101.10182 
C 360.369046 101.10182 359.859768 101.311409 359.484327 101.684428 
C 359.108886 102.057447 358.897936 102.56344 358.897936 103.090968 
C 358.897936 103.618496 359.108886 104.124489 359.484327 104.497508 
C 359.859768 104.870527 360.369046 105.080116 360.9 105.080116 
z
" clip-path="url(#pf715a3a6ad)" style="fill: #0871b7; fill-opacity: 0.752941; stroke: #231f20; stroke-linejoin: miter"/>
   </g>
   <g id="patch_13">
    <path d="M 105.583766 81.549148 
C 106.11472 81.549148 106.623999 81.339559 106.99944 80.96654 
C 107.374881 80.593521 107.585831 80.087528 107.585831 79.56 
C 107.585831 79.032472 107.374881 78.526479 106.99944 78.15346 
C 106.623999 77.780441 106.11472 77.570852 105.583766 77.570852 
C 105.052813 77.570852 104.543534 77.780441 104.168093 78.15346 
C 103.792652 78.526479 103.581702 79.032472 103.581702 79.56 
C 103.581702 80.087528 103.792652 80.593521 104.168093 80.96654 
C 104.543534 81.339559 105.052813 81.549148 105.583766 81.549148 
z
" clip-path="url(#pf715a3a6ad)" style="fill: #0871b7; fill-opacity: 0.752941; stroke: #231f20; stroke-linejoin: miter"/>
   </g>
   <g id="patch_14">
    <path d="M 337.216234 81.549148 
C 337.747187 81.549148 338.256466 81.339559 338.631907 80.96654 
C 339.007348 80.593521 339.218298 80.087528 339.218298 79.56 
C 339.218298 79.032472 339.007348 78.526479 338.631907 78.15346 
C 338.256466 77.780441 337.747187 77.570852 337.216234 77.570852 
C 336.68528 77.570852 336.176001 77.780441 335.80056 78.15346 
C 335.425119 78.526479 335.214169 79.032472 335.214169 79.56 
C 335.214169 80.087528 335.425119 80.593521 335.80056 80.96654 
C 336.176001 81.339559 336.68528 81.549148 337.216234 81.549148 
z
" clip-path="url(#pf715a3a6ad)" style="fill: #0871b7; fill-opacity: 0.752941; stroke: #231f20; stroke-linejoin: miter"/>
   </g>
   <g id="patch_15">
    <path d="M 337.216234 107.886979 
C 338.49641 107.886979 339.724326 107.381641 340.629547 106.48226 
C 341.534768 105.582879 342.043388 104.362885 342.043388 103.090968 
C 342.043388 101.819051 341.534768 100.599057 340.629547 99.699676 
C 339.724326 98.800295 338.49641 98.294957 337.216234 98.294957 
C 335.936057 98.294957 334.708141 98.800295 333.80292 99.699676 
C 332.897699 100.599057 332.389079 101.819051 332.389079 103.090968 
C 332.389079 104.362885 332.897699 105.582879 333.80292 106.48226 
C 334.708141 107.381641 335.936057 107.886979 337.216234 107.886979 
z
" clip-path="url(#pf715a3a6ad)" style="fill: #0871b7; fill-opacity: 0.752941; stroke: #231f20; stroke-linejoin: miter"/>
   </g>
   <g id="patch_16">
    <path d="M 105.583766 338.025043 
C 106.863943 338.025043 108.091859 337.519705 108.99708 336.620324 
C 109.902301 335.720943 110.410921 334.500949 110.410921 333.229032 
C 110.410921 331.957115 109.902301 330.737121 108.99708 329.83774 
C 108.091859 328.938359 106.863943 328.433021 105.583766 328.433021 
C 104.30359 328.433021 103.075674 328.938359 102.170453 329.83774 
C 101.265232 330.737121 100.756612 331.957115 100.756612 333.229032 
C 100.756612 334.500949 101.265232 335.720943 102.170453 336.620324 
C 103.075674 337.519705 104.30359 338.025043 105.583766 338.025043 
z
" clip-path="url(#pf715a3a6ad)" style="fill: #0871b7; fill-opacity: 0.752941; stroke: #231f20; stroke-linejoin: miter"/>
   </g>
   <g id="patch_17">
    <path d="M 337.216234 338.025043 
C 338.49641 338.025043 339.724326 337.519705 340.629547 336.620324 
C 341.534768 335.720943 342.043388 334.500949 342.043388 333.229032 
C 342.043388 331.957115 341.534768 330.737121 340.629547 329.83774 
C 339.724326 328.938359 338.49641 328.433021 337.216234 328.433021 
C 335.936057 328.433021 334.708141 328.938359 333.80292 329.83774 
C 332.897699 330.737121 332.389079 331.957115 332.389079 333.229032 
C 332.389079 334.500949 332.897699 335.720943 333.80292 336.620324 
C 334.708141 337.519705 335.936057 338.025043 337.216234 338.025043 
z
" clip-path="url(#pf715a3a6ad)" style="fill: #0871b7; fill-opacity: 0.752941; stroke: #231f20; stroke-linejoin: miter"/>
   </g>
   <g id="patch_18">
    <path d="M 105.583766 107.886979 
C 106.863943 107.886979 108.091859 107.381641 108.99708 106.48226 
C 109.902301 105.582879 110.410921 104.362885 110.410921 103.090968 
C 110.410921 101.819051 109.902301 100.599057 108.99708 99.699676 
C 108.091859 98.800295 106.863943 98.294957 105.583766 98.294957 
C 104.30359 98.294957 103.075674 98.800295 102.170453 99.699676 
C 101.265232 100.599057 100.756612 101.819051 100.756612 103.090968 
C 100.756612 104.362885 101.265232 105.582879 102.170453 106.48226 
C 103.075674 107.381641 104.30359 107.886979 105.583766 107.886979 
z
" clip-path="url(#pf715a3a6ad)" style="fill: #0871b7; fill-opacity: 0.752941; stroke: #231f20; stroke-linejoin: miter"/>
   </g>
   <g id="patch_19">
    <path d="M 155.995593 359.244148 
C 156.658675 359.244148 157.294688 358.982402 157.763557 358.516558 
C 158.232427 358.050713 158.495872 357.418804 158.495872 356.76 
C 158.495872 356.101196 158.232427 355.469287 157.763557 355.003442 
C 157.294688 354.537598 156.658675 354.275852 155.995593 354.275852 
C 155.332512 354.275852 154.696499 354.537598 154.227629 355.003442 
C 153.75876 355.469287 153.495315 356.101196 153.495315 356.76 
C 153.495315 357.418804 153.75876 358.050713 154.227629 358.516558 
C 154.696499 358.982402 155.332512 359.244148 155.995593 359.244148 
z
" clip-path="url(#pf715a3a6ad)" style="fill: #0871b7; fill-opacity: 0.752941; stroke: #231f20; stroke-linejoin: miter"/>
   </g>
   <g id="patch_20">
    <path d="M 286.804407 359.244148 
C 287.467488 359.244148 288.103501 358.982402 288.572371 358.516558 
C 289.04124 358.050713 289.304685 357.418804 289.304685 356.76 
C 289.304685 356.101196 289.04124 355.469287 288.572371 355.003442 
C 288.103501 354.537598 287.467488 354.275852 286.804407 354.275852 
C 286.141325 354.275852 285.505312 354.537598 285.036443 355.003442 
C 284.567573 355.469287 284.304128 356.101196 284.304128 356.76 
C 284.304128 357.418804 284.567573 358.050713 285.036443 358.516558 
C 285.505312 358.982402 286.141325 359.244148 286.804407 359.244148 
z
" clip-path="url(#pf715a3a6ad)" style="fill: #0871b7; fill-opacity: 0.752941; stroke: #231f20; stroke-linejoin: miter"/>
   </g>
   <g id="patch_21">
    <path d="M 81.9 285.626591 
C 82.563082 285.626591 83.199094 285.364845 83.667964 284.899001 
C 84.136834 284.433156 84.400279 283.801246 84.400279 283.142443 
C 84.400279 282.483639 84.136834 281.85173 83.667964 281.385885 
C 83.199094 280.92004 82.563082 280.658295 81.9 280.658295 
C 81.236918 280.658295 80.600906 280.92004 80.132036 281.385885 
C 79.663166 281.85173 79.399721 282.483639 79.399721 283.142443 
C 79.399721 283.801246 79.663166 284.433156 80.132036 284.899001 
C 80.600906 285.364845 81.236918 285.626591 81.9 285.626591 
z
" clip-path="url(#pf715a3a6ad)" style="fill: #0871b7; fill-opacity: 0.752941; stroke: #231f20; stroke-linejoin: miter"/>
   </g>
   <g id="patch_22">
    <path d="M 360.9 285.626591 
C 361.563082 285.626591 362.199094 285.364845 362.667964 284.899001 
C 363.136834 284.433156 363.400279 283.801246 363.400279 283.142443 
C 363.400279 282.483639 363.136834 281.85173 362.667964 281.385885 
C 362.199094 280.92004 361.563082 280.658295 360.9 280.658295 
C 360.236918 280.658295 359.600906 280.92004 359.132036 281.385885 
C 358.663166 281.85173 358.399721 282.483639 358.399721 283.142443 
C 358.399721 283.801246 358.663166 284.433156 359.132036 284.899001 
C 359.600906 285.364845 360.236918 285.626591 360.9 285.626591 
z
" clip-path="url(#pf715a3a6ad)" style="fill: #0871b7; fill-opacity: 0.752941; stroke: #231f20; stroke-linejoin: miter"/>
   </g>
   <g id="patch_23">
    <path d="M 81.9 155.661705 
C 82.563082 155.661705 83.199094 155.39996 83.667964 154.934115 
C 84.136834 154.46827 84.400279 153.836361 84.400279 153.177557 
C 84.400279 152.518754 84.136834 151.886844 83.667964 151.420999 
C 83.199094 150.955155 82.563082 150.693409 81.9 150.693409 
C 81.236918 150.693409 80.600906 150.955155 80.132036 151.420999 
C 79.663166 151.886844 79.399721 152.518754 79.399721 153.177557 
C 79.399721 153.836361 79.663166 154.46827 80.132036 154.934115 
C 80.600906 155.39996 81.236918 155.661705 81.9 155.661705 
z
" clip-path="url(#pf715a3a6ad)" style="fill: #0871b7; fill-opacity: 0.752941; stroke: #231f20; stroke-linejoin: miter"/>
   </g>
   <g id="patch_24">
    <path d="M 360.9 155.661705 
C 361.563082 155.661705 362.199094 155.39996 362.667964 154.934115 
C 363.136834 154.46827 363.400279 153.836361 363.400279 153.177557 
C 363.400279 152.518754 363.136834 151.886844 362.667964 151.420999 
C 362.199094 150.955155 361.563082 150.693409 360.9 150.693409 
C 360.236918 150.693409 359.600906 150.955155 359.132036 151.420999 
C 358.663166 151.886844 358.399721 152.518754 358.399721 153.177557 
C 358.399721 153.836361 358.663166 154.46827 359.132036 154.934115 
C 359.600906 155.39996 360.236918 155.661705 360.9 155.661705 
z
" clip-path="url(#pf715a3a6ad)" style="fill: #0871b7; fill-opacity: 0.752941; stroke: #231f20; stroke-linejoin: miter"/>
   </g>
   <g id="patch_25">
    <path d="M 155.995593 82.044148 
C 156.658675 82.044148 157.294688 81.782402 157.763557 81.316558 
C 158.232427 80.850713 158.495872 80.218804 158.495872 79.56 
C 158.495872 78.901196 158.232427 78.269287 157.763557 77.803442 
C 157.294688 77.337598 156.658675 77.075852 155.995593 77.075852 
C 155.332512 77.075852 154.696499 77.337598 154.227629 77.803442 
C 153.75876 78.269287 153.495315 78.901196 153.495315 79.56 
C 153.495315 80.218804 153.75876 80.850713 154.227629 81.316558 
C 154.696499 81.782402 155.332512 82.044148 155.995593 82.044148 
z
" clip-path="url(#pf715a3a6ad)" style="fill: #0871b7; fill-opacity: 0.752941; stroke: #231f20; stroke-linejoin: miter"/>
   </g>
   <g id="patch_26">
    <path d="M 286.804407 82.044148 
C 287.467488 82.044148 288.103501 81.782402 288.572371 81.316558 
C 289.04124 80.850713 289.304685 80.218804 289.304685 79.56 
C 289.304685 78.901196 289.04124 78.269287 288.572371 77.803442 
C 288.103501 77.337598 287.467488 77.075852 286.804407 77.075852 
C 286.141325 77.075852 285.505312 77.337598 285.036443 77.803442 
C 284.567573 78.269287 284.304128 78.901196 284.304128 79.56 
C 284.304128 80.218804 284.567573 80.850713 285.036443 81.316558 
C 285.505312 81.782402 286.141325 82.044148 286.804407 82.044148 
z
" clip-path="url(#pf715a3a6ad)" style="fill: #0871b7; fill-opacity: 0.752941; stroke: #231f20; stroke-linejoin: miter"/>
   </g>
   <g id="patch_27">
    <path d="M 221.4 359.4 
C 222.104683 359.4 222.780598 359.121833 223.278884 358.626762 
C 223.77717 358.131691 224.057143 357.460136 224.057143 356.76 
C 224.057143 356.059864 223.77717 355.388309 223.278884 354.893238 
C 222.780598 354.398167 222.104683 354.12 221.4 354.12 
C 220.695317 354.12 220.019402 354.398167 219.521116 354.893238 
C 219.02283 355.388309 218.742857 356.059864 218.742857 356.76 
C 218.742857 357.460136 219.02283 358.131691 219.521116 358.626762 
C 220.019402 359.121833 220.695317 359.4 221.4 359.4 
z
" clip-path="url(#pf715a3a6ad)" style="fill: #0871b7; fill-opacity: 0.752941; stroke: #231f20; stroke-linejoin: miter"/>
   </g>
   <g id="patch_28">
    <path d="M 81.9 220.8 
C 82.604683 220.8 83.280598 220.521833 83.778884 220.026762 
C 84.27717 219.531691 84.557143 218.860136 84.557143 218.16 
C 84.557143 217.459864 84.27717 216.788309 83.778884 216.293238 
C 83.280598 215.798167 82.604683 215.52 81.9 215.52 
C 81.195317 215.52 80.519402 215.798167 80.021116 216.293238 
C 79.52283 216.788309 79.242857 217.459864 79.242857 218.16 
C 79.242857 218.860136 79.52283 219.531691 80.021116 220.026762 
C 80.519402 220.521833 81.195317 220.8 81.9 220.8 
z
" clip-path="url(#pf715a3a6ad)" style="fill: #0871b7; fill-opacity: 0.752941; stroke: #231f20; stroke-linejoin: miter"/>
   </g>
   <g id="patch_29">
    <path d="M 360.9 220.8 
C 361.604683 220.8 362.280598 220.521833 362.778884 220.026762 
C 363.27717 219.531691 363.557143 218.860136 363.557143 218.16 
C 363.557143 217.459864 363.27717 216.788309 362.778884 216.293238 
C 362.280598 215.798167 361.604683 215.52 360.9 215.52 
C 360.195317 215.52 359.519402 215.798167 359.021116 216.293238 
C 358.52283 216.788309 358.242857 217.459864 358.242857 218.16 
C 358.242857 218.860136 358.52283 219.531691 359.021116 220.026762 
C 359.519402 220.521833 360.195317 220.8 360.9 220.8 
z
" clip-path="url(#pf715a3a6ad)" style="fill: #0871b7; fill-opacity: 0.752941; stroke: #231f20; stroke-linejoin: miter"/>
   </g>
   <g id="patch_30">
    <path d="M 221.4 82.2 
C 222.104683 82.2 222.780598 81.921833 223.278884 81.426762 
C 223.77717 80.931691 224.057143 80.260136 224.057143 79.56 
C 224.057143 78.859864 223.77717 78.188309 223.278884 77.693238 
C 222.780598 77.198167 222.104683 76.92 221.4 76.92 
C 220.695317 76.92 220.019402 77.198167 219.521116 77.693238 
C 219.02283 78.188309 218.742857 78.859864 218.742857 79.56 
C 218.742857 80.260136 219.02283 80.931691 219.521116 81.426762 
C 220.019402 81.921833 220.695317 82.2 221.4 82.2 
z
" clip-path="url(#pf715a3a6ad)" style="fill: #0871b7; fill-opacity: 0.752941; stroke: #231f20; stroke-linejoin: miter"/>
   </g>
   <g id="patch_31">
    <path d="M 337.216234 289.131943 
C 338.814982 289.131943 340.348465 288.500851 341.478951 287.377659 
C 342.609437 286.254466 343.244626 284.730877 343.244626 283.142443 
C 343.244626 281.554009 342.609437 280.030419 341.478951 278.907227 
C 340.348465 277.784034 338.814982 277.152943 337.216234 277.152943 
C 335.617485 277.152943 334.084002 277.784034 332.953516 278.907227 
C 331.82303 280.030419 331.187841 281.554009 331.187841 283.142443 
C 331.187841 284.730877 331.82303 286.254466 332.953516 287.377659 
C 334.084002 288.500851 335.617485 289.131943 337.216234 289.131943 
z
" clip-path="url(#pf715a3a6ad)" style="fill: #0871b7; fill-opacity: 0.752941; stroke: #231f20; stroke-linejoin: miter"/>
   </g>
   <g id="patch_32">
    <path d="M 337.216234 159.167057 
C 338.814982 159.167057 340.348465 158.535966 341.478951 157.412773 
C 342.609437 156.289581 343.244626 154.765991 343.244626 153.177557 
C 343.244626 151.589123 342.609437 150.065534 341.478951 148.942341 
C 340.348465 147.819149 338.814982 147.188057 337.216234 147.188057 
C 335.617485 147.188057 334.084002 147.819149 332.953516 148.942341 
C 331.82303 150.065534 331.187841 151.589123 331.187841 153.177557 
C 331.187841 154.765991 331.82303 156.289581 332.953516 157.412773 
C 334.084002 158.535966 335.617485 159.167057 337.216234 159.167057 
z
" clip-path="url(#pf715a3a6ad)" style="fill: #0871b7; fill-opacity: 0.752941; stroke: #231f20; stroke-linejoin: miter"/>
   </g>
   <g id="patch_33">
    <path d="M 155.995593 109.080468 
C 157.594342 109.080468 159.127825 108.449376 160.258311 107.326184 
C 161.388797 106.202992 162.023986 104.679402 162.023986 103.090968 
C 162.023986 101.502534 161.388797 99.978944 160.258311 98.855752 
C 159.127825 97.732559 157.594342 97.101468 155.995593 97.101468 
C 154.396845 97.101468 152.863362 97.732559 151.732876 98.855752 
C 150.60239 99.978944 149.9672 101.502534 149.9672 103.090968 
C 149.9672 104.679402 150.60239 106.202992 151.732876 107.326184 
C 152.863362 108.449376 154.396845 109.080468 155.995593 109.080468 
z
" clip-path="url(#pf715a3a6ad)" style="fill: #0871b7; fill-opacity: 0.752941; stroke: #231f20; stroke-linejoin: miter"/>
   </g>
   <g id="patch_34">
    <path d="M 286.804407 109.080468 
C 288.403155 109.080468 289.936638 108.449376 291.067124 107.326184 
C 292.19761 106.202992 292.8328 104.679402 292.8328 103.090968 
C 292.8328 101.502534 292.19761 99.978944 291.067124 98.855752 
C 289.936638 97.732559 288.403155 97.101468 286.804407 97.101468 
C 285.205658 97.101468 283.672175 97.732559 282.541689 98.855752 
C 281.411203 99.978944 280.776014 101.502534 280.776014 103.090968 
C 280.776014 104.679402 281.411203 106.202992 282.541689 107.326184 
C 283.672175 108.449376 285.205658 109.080468 286.804407 109.080468 
z
" clip-path="url(#pf715a3a6ad)" style="fill: #0871b7; fill-opacity: 0.752941; stroke: #231f20; stroke-linejoin: miter"/>
   </g>
   <g id="patch_35">
    <path d="M 155.995593 339.218532 
C 157.594342 339.218532 159.127825 338.587441 160.258311 337.464248 
C 161.388797 336.341056 162.023986 334.817466 162.023986 333.229032 
C 162.023986 331.640598 161.388797 330.117008 160.258311 328.993816 
C 159.127825 327.870624 157.594342 327.239532 155.995593 327.239532 
C 154.396845 327.239532 152.863362 327.870624 151.732876 328.993816 
C 150.60239 330.117008 149.9672 331.640598 149.9672 333.229032 
C 149.9672 334.817466 150.60239 336.341056 151.732876 337.464248 
C 152.863362 338.587441 154.396845 339.218532 155.995593 339.218532 
z
" clip-path="url(#pf715a3a6ad)" style="fill: #0871b7; fill-opacity: 0.752941; stroke: #231f20; stroke-linejoin: miter"/>
   </g>
   <g id="patch_36">
    <path d="M 286.804407 339.218532 
C 288.403155 339.218532 289.936638 338.587441 291.067124 337.464248 
C 292.19761 336.341056 292.8328 334.817466 292.8328 333.229032 
C 292.8328 331.640598 292.19761 330.117008 291.067124 328.993816 
C 289.936638 327.870624 288.403155 327.239532 286.804407 327.239532 
C 285.205658 327.239532 283.672175 327.870624 282.541689 328.993816 
C 281.411203 330.117008 280.776014 331.640598 280.776014 333.229032 
C 280.776014 334.817466 281.411203 336.341056 282.541689 337.464248 
C 283.672175 338.587441 285.205658 339.218532 286.804407 339.218532 
z
" clip-path="url(#pf715a3a6ad)" style="fill: #0871b7; fill-opacity: 0.752941; stroke: #231f20; stroke-linejoin: miter"/>
   </g>
   <g id="patch_37">
    <path d="M 105.583766 289.131943 
C 107.182515 289.131943 108.715998 288.500851 109.846484 287.377659 
C 110.97697 286.254466 111.612159 284.730877 111.612159 283.142443 
C 111.612159 281.554009 110.97697 280.030419 109.846484 278.907227 
C 108.715998 277.784034 107.182515 277.152943 105.583766 277.152943 
C 103.985018 277.152943 102.451535 277.784034 101.321049 278.907227 
C 100.190563 280.030419 99.555374 281.554009 99.555374 283.142443 
C 99.555374 284.730877 100.190563 286.254466 101.321049 287.377659 
C 102.451535 288.500851 103.985018 289.131943 105.583766 289.131943 
z
" clip-path="url(#pf715a3a6ad)" style="fill: #0871b7; fill-opacity: 0.752941; stroke: #231f20; stroke-linejoin: miter"/>
   </g>
   <g id="patch_38">
    <path d="M 105.583766 159.167057 
C 107.182515 159.167057 108.715998 158.535966 109.846484 157.412773 
C 110.97697 156.289581 111.612159 154.765991 111.612159 153.177557 
C 111.612159 151.589123 110.97697 150.065534 109.846484 148.942341 
C 108.715998 147.819149 107.182515 147.188057 105.583766 147.188057 
C 103.985018 147.188057 102.451535 147.819149 101.321049 148.942341 
C 100.190563 150.065534 99.555374 151.589123 99.555374 153.177557 
C 99.555374 154.765991 100.190563 156.289581 101.321049 157.412773 
C 102.451535 158.535966 103.985018 159.167057 105.583766 159.167057 
z
" clip-path="url(#pf715a3a6ad)" style="fill: #0871b7; fill-opacity: 0.752941; stroke: #231f20; stroke-linejoin: miter"/>
   </g>
   <g id="patch_39">
    <path d="M 337.216234 224.525273 
C 338.915285 224.525273 340.544977 223.854588 341.746388 222.660928 
C 342.947799 221.467268 343.62284 219.84809 343.62284 218.16 
C 343.62284 216.47191 342.947799 214.852732 341.746388 213.659072 
C 340.544977 212.465412 338.915285 211.794727 337.216234 211.794727 
C 335.517182 211.794727 333.88749 212.465412 332.686079 213.659072 
C 331.484668 214.852732 330.809627 216.47191 330.809627 218.16 
C 330.809627 219.84809 331.484668 221.467268 332.686079 222.660928 
C 333.88749 223.854588 335.517182 224.525273 337.216234 224.525273 
z
" clip-path="url(#pf715a3a6ad)" style="fill: #0871b7; fill-opacity: 0.752941; stroke: #231f20; stroke-linejoin: miter"/>
   </g>
   <g id="patch_40">
    <path d="M 221.4 109.456241 
C 223.099052 109.456241 224.728744 108.785556 225.930155 107.591896 
C 227.131566 106.398236 227.806606 104.779058 227.806606 103.090968 
C 227.806606 101.402878 227.131566 99.7837 225.930155 98.59004 
C 224.728744 97.39638 223.099052 96.725695 221.4 96.725695 
C 219.700948 96.725695 218.071256 97.39638 216.869845 98.59004 
C 215.668434 99.7837 214.993394 101.402878 214.993394 103.090968 
C 214.993394 104.779058 215.668434 106.398236 216.869845 107.591896 
C 218.071256 108.785556 219.700948 109.456241 221.4 109.456241 
z
" clip-path="url(#pf715a3a6ad)" style="fill: #0871b7; fill-opacity: 0.752941; stroke: #231f20; stroke-linejoin: miter"/>
   </g>
   <g id="patch_41">
    <path d="M 221.4 339.594305 
C 223.099052 339.594305 224.728744 338.92362 225.930155 337.72996 
C 227.131566 336.5363 227.806606 334.917122 227.806606 333.229032 
C 227.806606 331.540942 227.131566 329.921764 225.930155 328.728104 
C 224.728744 327.534444 223.099052 326.863759 221.4 326.863759 
C 219.700948 326.863759 218.071256 327.534444 216.869845 328.728104 
C 215.668434 329.921764 214.993394 331.540942 214.993394 333.229032 
C 214.993394 334.917122 215.668434 336.5363 216.869845 337.72996 
C 218.071256 338.92362 219.700948 339.594305 221.4 339.594305 
z
" clip-path="url(#pf715a3a6ad)" style="fill: #0871b7; fill-opacity: 0.752941; stroke: #231f20; stroke-linejoin: miter"/>
   </g>
   <g id="patch_42">
    <path d="M 105.583766 224.525273 
C 107.282818 224.525273 108.91251 223.854588 110.113921 222.660928 
C 111.315332 221.467268 111.990373 219.84809 111.990373 218.16 
C 111.990373 216.47191 111.315332 214.852732 110.113921 213.659072 
C 108.91251 212.465412 107.282818 211.794727 105.583766 211.794727 
C 103.884715 211.794727 102.255023 212.465412 101.053612 213.659072 
C 99.852201 214.852732 99.17716 216.47191 99.17716 218.16 
C 99.17716 219.84809 99.852201 221.467268 101.053612 222.660928 
C 102.255023 223.854588 103.884715 224.525273 105.583766 224.525273 
z
" clip-path="url(#pf715a3a6ad)" style="fill: #0871b7; fill-opacity: 0.752941; stroke: #231f20; stroke-linejoin: miter"/>
   </g>
   <g id="patch_43">
    <path d="M 155.995593 290.622432 
C 157.992191 290.622432 159.907282 289.834293 161.319089 288.431594 
C 162.730897 287.028894 163.524153 285.126159 163.524153 283.142443 
C 163.524153 281.158727 162.730897 279.255991 161.319089 277.853292 
C 159.907282 276.450593 157.992191 275.662454 155.995593 275.662454 
C 153.998996 275.662454 152.083905 276.450593 150.672097 277.853292 
C 149.26029 279.255991 148.467033 281.158727 148.467033 283.142443 
C 148.467033 285.126159 149.26029 287.028894 150.672097 288.431594 
C 152.083905 289.834293 153.998996 290.622432 155.995593 290.622432 
z
" clip-path="url(#pf715a3a6ad)" style="fill: #0871b7; fill-opacity: 0.752941; stroke: #231f20; stroke-linejoin: miter"/>
   </g>
   <g id="patch_44">
    <path d="M 286.804407 290.622432 
C 288.801004 290.622432 290.716095 289.834293 292.127903 288.431594 
C 293.53971 287.028894 294.332967 285.126159 294.332967 283.142443 
C 294.332967 281.158727 293.53971 279.255991 292.127903 277.853292 
C 290.716095 276.450593 288.801004 275.662454 286.804407 275.662454 
C 284.807809 275.662454 282.892718 276.450593 281.480911 277.853292 
C 280.069103 279.255991 279.275847 281.158727 279.275847 283.142443 
C 279.275847 285.126159 280.069103 287.028894 281.480911 288.431594 
C 282.892718 289.834293 284.807809 290.622432 286.804407 290.622432 
z
" clip-path="url(#pf715a3a6ad)" style="fill: #0871b7; fill-opacity: 0.752941; stroke: #231f20; stroke-linejoin: miter"/>
   </g>
   <g id="patch_45">
    <path d="M 155.995593 160.657546 
C 157.992191 160.657546 159.907282 159.869407 161.319089 158.466708 
C 162.730897 157.064009 163.524153 155.161273 163.524153 153.177557 
C 163.524153 151.193841 162.730897 149.291106 161.319089 147.888406 
C 159.907282 146.485707 157.992191 145.697568 155.995593 145.697568 
C 153.998996 145.697568 152.083905 146.485707 150.672097 147.888406 
C 149.26029 149.291106 148.467033 151.193841 148.467033 153.177557 
C 148.467033 155.161273 149.26029 157.064009 150.672097 158.466708 
C 152.083905 159.869407 153.998996 160.657546 155.995593 160.657546 
z
" clip-path="url(#pf715a3a6ad)" style="fill: #0871b7; fill-opacity: 0.752941; stroke: #231f20; stroke-linejoin: miter"/>
   </g>
   <g id="patch_46">
    <path d="M 286.804407 160.657546 
C 288.801004 160.657546 290.716095 159.869407 292.127903 158.466708 
C 293.53971 157.064009 294.332967 155.161273 294.332967 153.177557 
C 294.332967 151.193841 293.53971 149.291106 292.127903 147.888406 
C 290.716095 146.485707 288.801004 145.697568 286.804407 145.697568 
C 284.807809 145.697568 282.892718 146.485707 281.480911 147.888406 
C 280.069103 149.291106 279.275847 151.193841 279.275847 153.177557 
C 279.275847 155.161273 280.069103 157.064009 281.480911 158.466708 
C 282.892718 159.869407 284.807809 160.657546 286.804407 160.657546 
z
" clip-path="url(#pf715a3a6ad)" style="fill: #0871b7; fill-opacity: 0.752941; stroke: #231f20; stroke-linejoin: miter"/>
   </g>
   <g id="patch_47">
    <path d="M 221.4 291.091716 
C 223.521861 291.091716 225.557102 290.25413 227.057485 288.763428 
C 228.557867 287.272725 229.400892 285.250615 229.400892 283.142443 
C 229.400892 281.034271 228.557867 279.01216 227.057485 277.521458 
C 225.557102 276.030755 223.521861 275.19317 221.4 275.19317 
C 219.278139 275.19317 217.242898 276.030755 215.742515 277.521458 
C 214.242133 279.01216 213.399108 281.034271 213.399108 283.142443 
C 213.399108 285.250615 214.242133 287.272725 215.742515 288.763428 
C 217.242898 290.25413 219.278139 291.091716 221.4 291.091716 
z
" clip-path="url(#pf715a3a6ad)" style="fill: #0871b7; fill-opacity: 0.752941; stroke: #231f20; stroke-linejoin: miter"/>
   </g>
   <g id="patch_48">
    <path d="M 155.995593 226.109273 
C 158.117455 226.109273 160.152696 225.271688 161.653078 223.780985 
C 163.153461 222.290282 163.996485 220.268172 163.996485 218.16 
C 163.996485 216.051828 163.153461 214.029718 161.653078 212.539015 
C 160.152696 211.048312 158.117455 210.210727 155.995593 210.210727 
C 153.873732 210.210727 151.838491 211.048312 150.338108 212.539015 
C 148.837726 214.029718 147.994701 216.051828 147.994701 218.16 
C 147.994701 220.268172 148.837726 222.290282 150.338108 223.780985 
C 151.838491 225.271688 153.873732 226.109273 155.995593 226.109273 
z
" clip-path="url(#pf715a3a6ad)" style="fill: #0871b7; fill-opacity: 0.752941; stroke: #231f20; stroke-linejoin: miter"/>
   </g>
   <g id="patch_49">
    <path d="M 286.804407 226.109273 
C 288.926268 226.109273 290.961509 225.271688 292.461892 223.780985 
C 293.962274 222.290282 294.805299 220.268172 294.805299 218.16 
C 294.805299 216.051828 293.962274 214.029718 292.461892 212.539015 
C 290.961509 211.048312 288.926268 210.210727 286.804407 210.210727 
C 284.682545 210.210727 282.647304 211.048312 281.146922 212.539015 
C 279.646539 214.029718 278.803515 216.051828 278.803515 218.16 
C 278.803515 220.268172 279.646539 222.290282 281.146922 223.780985 
C 282.647304 225.271688 284.682545 226.109273 286.804407 226.109273 
z
" clip-path="url(#pf715a3a6ad)" style="fill: #0871b7; fill-opacity: 0.752941; stroke: #231f20; stroke-linejoin: miter"/>
   </g>
   <g id="patch_50">
    <path d="M 221.4 161.12683 
C 223.521861 161.12683 225.557102 160.289245 227.057485 158.798542 
C 228.557867 157.30784 229.400892 155.285729 229.400892 153.177557 
C 229.400892 151.069385 228.557867 149.047275 227.057485 147.556572 
C 225.557102 146.06587 223.521861 145.228284 221.4 145.228284 
C 219.278139 145.228284 217.242898 146.06587 215.742515 147.556572 
C 214.242133 149.047275 213.399108 151.069385 213.399108 153.177557 
C 213.399108 155.285729 214.242133 157.30784 215.742515 158.798542 
C 217.242898 160.289245 219.278139 161.12683 221.4 161.12683 
z
" clip-path="url(#pf715a3a6ad)" style="fill: #0871b7; fill-opacity: 0.752941; stroke: #231f20; stroke-linejoin: miter"/>
   </g>
   <g id="patch_51">
    <path d="M 221.4 226.608 
C 223.654984 226.608 225.817913 225.717865 227.412428 224.133638 
C 229.006942 222.549411 229.902857 220.400436 229.902857 218.16 
C 229.902857 215.919564 229.006942 213.770589 227.412428 212.186362 
C 225.817913 210.602135 223.654984 209.712 221.4 209.712 
C 219.145016 209.712 216.982087 210.602135 215.387572 212.186362 
C 213.793058 213.770589 212.897143 215.919564 212.897143 218.16 
C 212.897143 220.400436 213.793058 222.549411 215.387572 224.133638 
C 216.982087 225.717865 219.145016 226.608 221.4 226.608 
z
" clip-path="url(#pf715a3a6ad)" style="fill: #0871b7; fill-opacity: 0.752941; stroke: #231f20; stroke-linejoin: miter"/>
   </g>
  </g>
 </g>
 <defs>
  <clipPath id="pf715a3a6ad">
   <rect x="54" y="51.84" width="334.8" height="332.64"/>
  </clipPath>
 </defs>
</svg>
